<svg id="Capa_1" enable-background="new 0 0 512 512" height="512" viewBox="0 0 512 512" width="512" xmlns="http://www.w3.org/2000/svg"><g><g><path clip-rule="evenodd" d="m377.348 131.797c0-67.147-54.183-121.625-121.079-121.767h-.283-.254c-66.896.142-121.079 54.619-121.079 121.767 0 39.597 18.843 74.772 47.997 97.022 0-29.733 17.826-55.498 43.251-67.062-10.904-8.843-17.882-22.364-17.882-37.528 0-26.587 21.47-48.128 47.968-48.128 26.527 0 47.997 21.542 47.997 48.128 0 15.164-6.978 28.684-17.91 37.528 25.453 11.564 43.251 37.329 43.251 67.062 29.18-22.25 48.023-57.426 48.023-97.022z" fill="#dfedff" fill-rule="evenodd"/></g><g><path clip-rule="evenodd" d="m303.983 124.229c0-26.587-21.47-48.128-47.997-48.128-26.498 0-47.968 21.542-47.968 48.128 0 15.164 6.978 28.684 17.882 37.528 8.249 6.633 18.701 10.629 30.086 10.629 11.413 0 21.865-3.997 30.114-10.629 10.622-8.617 17.515-21.655 17.882-36.337.001-.398.001-.794.001-1.191z" fill="#ffdcd5" fill-rule="evenodd"/></g><g><path clip-rule="evenodd" d="m329.323 228.819c0-29.733-17.797-55.498-43.222-67.062-8.249 6.633-18.702 10.629-30.114 10.629-11.385 0-21.837-3.997-30.086-10.629-25.425 11.564-43.251 37.329-43.251 67.062 14.068 10.686 30.51 18.395 48.392 22.165 8.051 1.672 16.413 2.579 24.945 2.579 8.56 0 16.893-.907 24.945-2.579 17.909-3.77 34.351-11.479 48.391-22.165z" fill="#ffda8f" fill-rule="evenodd"/></g><g><path clip-rule="evenodd" d="m406.897 312.718h-125.966v-61.734c-8.051 1.672-16.385 2.579-24.945 2.579-8.531 0-16.893-.907-24.945-2.579v61.734h-125.938v-33.418l-82.603 58.446 82.603 58.474v-33.446h125.938v56.348h-33.307l58.251 82.879 58.28-82.879h-33.335v-56.348h125.967v33.446l82.603-58.474-82.603-58.446z" fill="#a0c8ff" fill-rule="evenodd"/></g><g><path d="m339.55 53.447c2.5 0 5.004-.933 6.945-2.806 3.973-3.837 4.084-10.166.248-14.14l-.027-.028c-3.836-3.971-10.153-4.071-14.127-.233-3.973 3.836-4.07 10.18-.234 14.153 1.962 2.033 4.577 3.054 7.195 3.054z"/><path d="m495.276 329.583-82.603-58.446c-3.053-2.158-7.052-2.434-10.372-.719-3.319 1.718-5.404 5.143-5.404 8.881v23.419h-105.966v-43.86c21.71-5.97 41.611-17.517 57.962-33.923 38.871-39.001 49.411-98.784 26.227-148.764-2.324-5.009-8.266-7.187-13.279-4.863-5.01 2.323-7.188 8.268-4.863 13.279 19.246 41.491 11.091 90.932-20.153 124.043-5.017-20.038-17.355-37.69-34.645-49.289 7.4-9.765 11.803-21.931 11.803-35.113 0-32.052-26.017-58.128-57.996-58.128-31.964 0-57.969 26.077-57.969 58.128 0 13.179 4.399 25.343 11.792 35.106-17.296 11.603-29.639 29.257-34.659 49.294-41.314-43.721-40.607-113.012 2.123-155.884 31.496-31.6 78.588-41.331 119.975-24.786 5.122 2.051 10.946-.444 12.997-5.573 2.051-5.128-.444-10.947-5.573-12.996-48.834-19.522-104.403-8.047-141.564 29.238-51.21 51.38-51.209 134.959 0 186.307 4.146 4.16 8.525 8 13.099 11.523.256.216.523.421.8.612 13.258 10.053 28.16 17.411 44.035 21.78v43.867h-105.94v-23.416c0-3.738-2.085-7.164-5.404-8.881-3.319-1.718-7.319-1.44-10.372.719l-82.603 58.446c-2.648 1.874-4.224 4.917-4.224 8.162s1.573 6.288 4.222 8.163l82.603 58.474c3.052 2.16 7.053 2.438 10.373.72s5.405-5.143 5.405-8.881v-23.447h105.938v36.349h-23.307c-3.732 0-7.153 2.078-8.874 5.39-1.721 3.311-1.453 7.305.692 10.359l58.252 82.879c1.872 2.664 4.925 4.25 8.181 4.25h.001c3.256 0 6.308-1.585 8.181-4.248l58.279-82.879c2.146-3.054 2.414-7.047.694-10.36-1.721-3.312-5.143-5.391-8.875-5.391h-23.335v-36.349h105.967v23.447c0 3.738 2.085 7.164 5.405 8.881 3.321 1.719 7.321 1.44 10.373-.72l82.603-58.474c2.648-1.875 4.222-4.918 4.222-8.163s-1.575-6.289-4.224-8.163zm-239.29-243.484c20.951 0 37.996 17.104 37.996 38.13 0 21.04-17.045 38.157-37.996 38.157-20.937 0-37.969-17.117-37.969-38.157.001-21.025 17.033-38.13 37.969-38.13zm-63.137 137.76c1.66-21.067 13.802-40.052 32.23-50.466 8.954 5.685 19.55 8.992 30.907 8.992 11.361 0 21.96-3.305 30.917-8.989 18.428 10.409 30.569 29.401 32.222 50.481-18.43 12.785-40.251 19.672-63.125 19.672-22.884 0-44.714-6.893-63.151-19.69zm224.048 153.03v-14.115c0-5.522-4.478-9.999-10-9.999h-125.966c-5.522 0-10 4.477-10 9.999v56.348c0 5.522 4.478 9.999 10 9.999h14.079l-39.021 55.492-39.003-55.492h14.056c5.522 0 10-4.477 10-9.999v-56.348c0-5.522-4.478-9.999-10-9.999h-125.939c-5.522 0-10 4.477-10 9.999v14.115l-55.293-39.141 55.293-39.123v14.093c0 5.522 4.478 9.999 10 9.999h125.938c5.522 0 10-4.477 10-9.999v-50.02c4.932.558 9.923.85 14.959.85 5.027 0 10.008-.291 14.931-.846v50.016c0 5.522 4.478 9.999 10 9.999h125.967c5.522 0 10-4.477 10-9.999v-14.093l55.293 39.123z"/></g></g></svg>