<svg height="512" viewBox="0 0 64 64" width="512" xmlns="http://www.w3.org/2000/svg"><g id="Fill_Outline" data-name="Fill Outline"><g id="Stroke_copy" data-name="Stroke copy"><path d="m56.41 6.54a14.27 14.27 0 0 0 -19.59.75l-5.38 5.38-.07.08a20 20 0 0 0 -2.82 3.54l-.42.7a38.55 38.55 0 0 0 -4.32 11.17l-2.27 10-5.65 5.66 4.24 4.18 5.66-5.66 10-2.26a38.49 38.49 0 0 0 11.16-4.32l.7-.42a20.1 20.1 0 0 0 3.55-2.82l.08-.07 5.66-5.66a14 14 0 0 0 -.53-20.25zm-29.92 30.87 1.63-7.87a14 14 0 0 0 6.25 6.25zm27.58-13.41-5.66 5.66a10 10 0 0 1 -14.14 0 10 10 0 0 1 0-14.15l5.66-5.65a10 10 0 0 1 14.14 14.14z" fill="#f9e109"/><circle cx="52" cy="55" fill="#c4f236" r="6"/><path d="m45.19 31.79a10 10 0 0 1 -9.65-1.09 19.57 19.57 0 0 1 -9.93-8.48 43.72 43.72 0 0 0 -1.8 5.94l-2.27 10-5.65 5.66 4.24 4.18 5.66-5.66 10-2.26a38.49 38.49 0 0 0 11.16-4.32l.7-.42a20.1 20.1 0 0 0 3.55-2.82l.08-.07 5.66-5.66a13.93 13.93 0 0 0 3.91-7.66 19.47 19.47 0 0 1 -15.66 12.66zm-18.7 5.62 1.63-7.87a14 14 0 0 0 6.25 6.25z" fill="#fcbc04"/><path d="m9.07 41.93h6a1 1 0 0 1 1 1v17a2 2 0 0 1 -2 2h-4a2 2 0 0 1 -2-2v-17a1 1 0 0 1 1-1z" fill="#aae1f9" transform="matrix(.707 .707 -.707 .707 40.25 6.67)"/><path d="m20.47 46.19-7 7a8 8 0 0 1 -9.61 1.29l-.29.3a2 2 0 0 0 0 2.83l2.82 2.82a2 2 0 0 0 2.83 0l12-12a1 1 0 0 0 0-1.41z" fill="#57b7eb"/><path d="m49.76 56.24a6 6 0 0 1 -1.5-5.89 3.89 3.89 0 0 0 -.5.41 6 6 0 0 0 8.48 8.48 5.83 5.83 0 0 0 1.5-2.59 6 6 0 0 1 -7.98-.41z" fill="#a1d51c"/></g><g id="Outline_copy" fill="#2d72bc" data-name="Outline copy"><path d="m31.44 32.47a13.19 13.19 0 0 1 -2.44-3.38 1 1 0 0 0 -1.88.24l-1.63 7.88a1 1 0 0 0 .28.91 1 1 0 0 0 .7.3h.21l7.88-1.62a1 1 0 0 0 .24-1.88 13.19 13.19 0 0 1 -3.36-2.45zm-3.66 3.66.81-3.92a14.95 14.95 0 0 0 3.11 3.11z"/><path d="m47.05 50.05a7 7 0 0 0 5 12h.28.07a7 7 0 1 0 -5.3-11.93zm9.88 4.23a5 5 0 0 1 -2.81-1.4 5 5 0 0 1 -1.4-2.81 4.89 4.89 0 0 1 4.21 4.21zm-9.86 1.44a4.94 4.94 0 0 1 4.21 4.21 4.89 4.89 0 0 1 -4.21-4.21zm6.21 4.09a7 7 0 0 0 -6.09-6.09 4.8 4.8 0 0 1 3.53-3.53 7 7 0 0 0 6.09 6.09 4.8 4.8 0 0 1 -3.53 3.53z"/><path d="m51 39v6a1 1 0 0 0 2 0v-6a1 1 0 0 0 -2 0z"/><path d="m58 40a1 1 0 0 0 -1 1v6a1 1 0 0 0 2 0v-6a1 1 0 0 0 -1-1z"/><path d="m46 48a1 1 0 0 0 1-1v-3a1 1 0 0 0 -2 0v3a1 1 0 0 0 1 1z"/><circle cx="46" cy="40" r="1"/><circle cx="58" cy="37" r="1"/><path d="m48.14 36.21a21.18 21.18 0 0 0 3.71-3l.1-.09 2.83-2.83a1 1 0 0 0 0-1.41 1 1 0 0 0 -1.42 0l-2.81 2.82-.1.08a18.83 18.83 0 0 1 -3.36 2.68l-.69.41a37.59 37.59 0 0 1 -10.87 4.2l-10 2.27a.93.93 0 0 0 -.48.27l-3.86 3.86-2.83-2.83 3.86-3.86a1 1 0 0 0 .27-.49l2.27-10a37.77 37.77 0 0 1 4.24-10.79c.13-.23.27-.45.41-.68a19.22 19.22 0 0 1 2.67-3.36l5.45-5.46a13.19 13.19 0 0 1 18.21-.72 13 13 0 0 1 .45 18.82 1 1 0 1 0 1.42 1.42 15 15 0 0 0 -.53-21.72 15.19 15.19 0 0 0 -21 .78l-5.34 5.42-.08.1a20.85 20.85 0 0 0 -3 3.72l-.43.71a39.43 39.43 0 0 0 -4.43 11.46l-2.21 9.68-3.84 3.83a2 2 0 0 0 -1.85.5l-12 12a3 3 0 0 0 0 4.24l2.83 2.83a3 3 0 0 0 4.24 0l12-12a2 2 0 0 0 .49-2l3.83-3.83 9.71-2.17a39.26 39.26 0 0 0 11.45-4.43zm-39.6 23.5a1 1 0 0 1 -1.42 0l-2.83-2.83a1 1 0 0 1 0-1.42l12-12h.06l4.19 4.19z"/><path d="m48.38 31.11c.25-.22.5-.44.74-.67l5.66-5.66a11 11 0 0 0 -15.56-15.56l-5.66 5.66c-.23.24-.45.49-.67.74a11 11 0 0 0 15.49 15.49zm-12.65-1.42 1.37-1.38 2.12 2.13-.74.74a9 9 0 0 1 -2.75-1.49zm-2.91-4.17.74-.74 2.13 2.12-1.38 1.37a9 9 0 0 1 -1.49-2.75zm.91-7.65 2 2-2.17 2.13-1-1.05a9.09 9.09 0 0 1 1.17-3.08zm11.52-9.69 1 1-.35.36a1 1 0 0 0 0 1.41 1 1 0 0 0 1.41 0l.36-.35 2.12 2.12-2.12 2.12-5.5-5.49a8.93 8.93 0 0 1 3.08-1.17zm7.37 1.82-1.38 1.37-2.12-2.15.74-.74a9 9 0 0 1 2.76 1.52zm2.9 4.17-.74.74-2.12-2.12 1.34-1.41a9 9 0 0 1 1.52 2.76zm-.91 7.65-2-2 2.12-2.12 1 1a8.93 8.93 0 0 1 -1.12 3.09zm-9-2 2.12-2.12 2.12 2.12-2.14 2.18zm3.53-3.54 2.12-2.12 2.12 2.12-2.12 2.12zm-2.83 0-2.12 2.12-2.12-2.12 2.12-2.12zm-3.53 3.54-2.14 2.18-2.13-2.12 2.13-2.12zm-3.54 3.53-2.14 2.14-2.1-2.13 2.12-2.12zm3.87 8.12-1-1 2.12-2.13 2 2a9.05 9.05 0 0 1 -3.14 1.14zm-2.47-2.47-2.13-2.1 2.13-2.12 2.12 2.12zm7.07 0-2.12-2.1.7-.71a1 1 0 1 0 -1.41-1.41l-.71.71-2.12-2.13 2.12-2.12 5.66 5.66zm3.53-3.53-2.12-2.13 2.12-2.12 2.12 2.12zm-10.6-14.83 2.12 2.12-2.12 2.12-2.13-2.12zm-3.54 3.53 2.12 2.12-2.12 2.12-2.1-2.12z"/></g></g></svg>