<svg id="Capa_1" enable-background="new 0 0 501 501" height="512" viewBox="0 0 501 501" width="512" xmlns="http://www.w3.org/2000/svg"><g><path d="m325.32 489.272c-23.642 7.625-48.829 11.74-74.942 11.728-17.37-.008-34.318-1.824-50.664-5.271h.001v-5.914c0-54.713-44.353-99.066-99.066-99.066h-54.797c-26.059-39.496-40.991-86.983-40.331-137.993 1.739-134.354 111.213-242.077 245.578-241.755 135.107.323 244.519 110.008 244.401 245.219-.032 36.605-8.175 71.381-22.719 102.621h-17.028c-72.036-.001-130.433 58.396-130.433 130.431z" fill="#533672"/><path d="m411.99 265.5c0 94.798-76.849 171.647-171.647 171.647s-171.648-76.849-171.648-171.647 76.85-171.647 171.648-171.647 171.647 76.849 171.647 171.647z" fill="#644189"/><path d="m261.637 133.057c-4.407 10.841-12.783 19.287-23.586 23.782l-18.695 7.782c-3.377 1.406-5.986 4.049-7.348 7.445-1.36 3.395-1.3 7.108.171 10.457 4.207 9.582 4.82 20.365 1.724 30.363l-20.52 66.262c-2.451 7.913-10.853 12.342-18.766 9.891s-12.342-10.853-9.891-18.766l20.52-66.262c.961-3.104.771-6.451-.535-9.426-4.737-10.786-4.931-22.75-.548-33.683 4.384-10.935 12.788-19.45 23.664-23.978l18.696-7.781c3.354-1.396 5.954-4.019 7.323-7.384 1.368-3.365 1.335-7.059-.094-10.398l-5.204-12.164c-4.056-9.483-4.609-20.13-1.558-29.981l5.775-18.648c2.451-7.913 10.853-12.342 18.766-9.891s12.342 10.853 9.891 18.766l-5.775 18.647c-.947 3.059-.776 6.364.484 9.308l5.204 12.164c4.602 10.76 4.709 22.655.302 33.495z" fill="#eac23f"/><path d="m261.637 133.057c-4.407 10.841-12.783 19.287-23.586 23.782l-18.695 7.782c-3.377 1.406-5.986 4.049-7.348 7.445-1.36 3.395-1.3 7.108.171 10.457 4.207 9.582 4.82 20.365 1.724 30.363l-20.52 66.262c-1.056 3.408-3.215 6.17-5.965 8.015-5.358-3.599-7.966-10.408-5.958-16.89l20.52-66.262c.961-3.104.771-6.451-.535-9.426-4.737-10.786-4.931-22.75-.548-33.683 4.384-10.935 12.788-19.45 23.664-23.978l18.696-7.781c3.354-1.396 5.954-4.019 7.323-7.384 1.368-3.365 1.335-7.059-.094-10.398l-5.204-12.164c-4.056-9.483-4.609-20.13-1.558-29.981l5.775-18.648c1.056-3.408 3.215-6.17 5.965-8.015 5.358 3.599 7.966 10.408 5.958 16.89l-5.775 18.647c-.947 3.059-.776 6.364.484 9.308l5.204 12.164c4.602 10.76 4.709 22.655.302 33.495zm-111.593 16.155c5.906-.73 9.603-6.848 10.145-7.776 11.304-19.323-23.862-49.236-13.164-64.016 6.743-9.317 19.549-1.783 37.951-12.091 18.144-10.164 35.117-33.757 27.769-49.97-4.599-10.147-18.888-17.764-29.808-14.655-12.768 3.636-11.78 19.328-31.42 43.509-1.936 2.383-21.49 26.191-29.22 22.273-7.144-3.621 3.866-25.68-7.72-36.903-5.728-5.548-15.761-5.848-23.109-3.227-1.354.483-10.933 4.06-14.318 13.132-4.751 12.731 7.332 23.858 2.56 29.503-4.474 5.293-16.136-3.22-24.958 2.879-6.084 4.206-9.433 14.492-6.87 22.236 5.687 17.183 37.126 11.735 43.618 28.557 4.981 12.908-10.654 23.569-4.461 36.296 4.748 9.758 19.765 15.46 26.638 11.006 11.497-7.45.072-41.095 6.936-43.407 6.101-2.055 16.392 24.267 29.431 22.654z" fill="#fff36c"/><path d="m103.833 157.667c1.605 6.015 3.639 10.367 5.546 13.74-7.555.873-18.43-4.412-22.34-12.448-6.193-12.726 9.442-23.387 4.461-36.295-6.492-16.823-37.931-11.374-43.618-28.557-2.563-7.745.786-18.03 6.87-22.236 8.822-6.099 20.484 2.414 24.958-2.879 4.772-5.646-7.311-16.772-2.56-29.503 3.385-9.072 12.964-12.649 14.318-13.132 2.211-.789 4.665-1.313 7.172-1.509-2.477 7.417-5.271 16.977-1.806 28.82 3.865 13.213 11.485 15.472 13 29.333 1.029 9.411-2.206 10.908-5.333 27.333-2.19 11.498-5.538 29.079-.668 47.333z" fill="#eac23f"/><path d="m350.786 249.903c-7.943 2.354-16.29-2.176-18.644-10.119l-19.712-66.506c-.923-3.115-2.94-5.794-5.678-7.543-9.928-6.343-16.73-16.186-19.153-27.714-2.423-11.529-.159-23.277 6.374-33.08l11.232-16.851c2.015-3.022 2.722-6.647 1.992-10.207-.73-3.558-2.807-6.613-5.85-8.597l-11.081-7.229c-8.638-5.637-15.008-14.186-17.938-24.074l-5.548-18.717c-2.354-7.943 2.176-16.29 10.119-18.644s16.29 2.176 18.644 10.119l5.548 18.717c.91 3.07 2.887 5.724 5.569 7.474l11.081 7.229c9.801 6.396 16.493 16.231 18.844 27.694 2.352 11.463.073 23.138-6.417 32.874l-11.231 16.85c-2.028 3.044-2.732 6.691-1.979 10.271.753 3.579 2.865 6.634 5.947 8.603 8.818 5.635 15.314 14.264 18.288 24.299l19.712 66.506c2.354 7.943-2.176 16.291-10.119 18.645zm10.332-225.241c-10.935 12.807-6.206 36.888 6.003 46.299 14.29 11.017 35.547-.594 42.642 10.764 2.483 3.975 2.623 9.788.414 13.662-3.945 6.918-13.05 3.567-21.735 10.419-6.686 5.275-12.667 16.236-8.901 25.185 3.545 8.424 14.858 13.004 23.253 10.971 11.122-2.693 12.249-15.745 21.699-16.233 6.534-.337 12.066 5.704 15.562 9.609 8.434 9.424 6.008 15.594 12.855 20.503 5.902 4.232 15.426 5.182 22.054.848 9.265-6.058 9.902-20.499 5.514-28.84-2.207-4.196-7.126-7.462-16.965-13.996-9.867-6.553-16.341-9.231-16.558-14.396-.118-2.818 1.684-4.99 2.138-5.537 6.771-8.158 21.652 1.586 31.384-4.665 9.781-6.283 13.231-27.999 2.545-40.715-5.254-6.253-14.038-10.462-22.819-9.803-1.035.078-6.356.545-12.144 4.14-11.235 6.979-10.916 16.686-15.931 17.538-9.729 1.652-14.256-34.799-37.613-43.482-11.287-4.195-25.871-1.085-33.397 7.729z" fill="#e5554e"/><path d="m360.905 231.259c1.934 6.523-.777 13.319-6.208 16.844-2.893-1.876-5.158-4.753-6.215-8.319l-19.712-66.507c-.923-3.115-2.94-5.794-5.678-7.543-9.928-6.343-16.73-16.186-19.153-27.713-2.423-11.529-.159-23.277 6.374-33.081l11.232-16.851c2.015-3.022 2.722-6.647 1.992-10.207-.73-3.559-2.807-6.613-5.85-8.597l-11.081-7.229c-8.638-5.637-15.008-14.186-17.938-24.073l-5.548-18.717c-1.934-6.523.777-13.32 6.208-16.845 2.893 1.876 5.158 4.754 6.215 8.319l5.548 18.717c.91 3.07 2.887 5.724 5.569 7.473l11.081 7.229c9.801 6.396 16.493 16.231 18.844 27.694 2.352 11.463.073 23.138-6.417 32.875l-11.231 16.85c-2.028 3.044-2.732 6.691-1.979 10.271.753 3.579 2.865 6.634 5.947 8.603 8.818 5.635 15.314 14.264 18.288 24.299zm119.572-142.003c9.781-6.283 13.231-27.999 2.545-40.715-5.254-6.252-14.037-10.462-22.819-9.803-1.035.078-6.356.545-12.144 4.14-11.235 6.979-10.916 16.686-15.931 17.538-7.364 1.25-11.747-19.325-23.57-33.17-6.862 2.372-19.798.01-23.558 6.254-3.22 5.347 1.541 14.928 6.5 20.5 11.99 13.472 27.987 6.716 35 17.5 6.223 9.57-4.644 17.551 0 32 5.671 17.646 28.087 25.057 38.5 28.5 5.754 1.902 11.924 3.942 18.009 5.015-.28-3.355-1.16-6.558-2.532-9.164-2.208-4.196-7.126-7.462-16.965-13.996-9.867-6.553-16.341-9.23-16.558-14.396-.118-2.818 1.684-4.99 2.138-5.538 6.772-8.158 21.653 1.587 31.385-4.665z" fill="#f87b67"/><path d="m252.24 305.432-2.344 7.57c-.817 2.638-3.617 4.114-6.255 3.297l-152.839-47.331c-2.638-.817-4.114-3.618-3.297-6.255l2.344-7.57c1.254-4.05 4.926-6.869 9.163-7.034l44.853-1.749 18.55-59.899 68.778 21.299-18.55 59.899 36.014 26.792c3.402 2.53 4.838 6.931 3.583 10.981zm185.725-60.509-2.252-7.598c-1.205-4.065-4.842-6.928-9.076-7.145l-44.828-2.294-17.82-60.121-69.032 20.461 17.82 60.121-36.338 26.352c-3.432 2.489-4.922 6.872-3.717 10.937l2.252 7.598c.785 2.647 3.567 4.158 6.215 3.373l153.403-45.469c2.648-.785 4.158-3.568 3.373-6.215z" fill="#4cacba"/><path d="m434.592 251.138-120.749 35.79-2.035-9.827 24.453-39.255-16.855-56.867 44.583-13.214 17.82 60.121 44.828 2.294c4.234.217 7.872 3.08 9.076 7.145l2.252 7.598c.785 2.647-.725 5.43-3.373 6.215zm-185.935 43.312-36.014-26.792 18.55-59.899-45.815-14.188-17.93 57.896-40.35 18.272-2.961 9.552 119.504 37.008c2.638.817 5.438-.659 6.255-3.297l2.344-7.57c1.255-4.05-.181-8.451-3.583-10.982z" fill="#95ced6"/><path d="m286.079 193.464c-1.177-3.972 1.088-8.145 5.059-9.322l73.825-21.882c3.971-1.177 8.145 1.088 9.322 5.06 1.177 3.971-1.088 8.145-5.059 9.322l-73.825 21.882c-3.971 1.177-8.145-1.088-9.322-5.06zm16.427 29.029 73.825-21.882c3.971-1.177 6.237-5.351 5.059-9.322-1.177-3.972-5.351-6.237-9.322-5.06l-73.825 21.882c-3.971 1.177-6.237 5.351-5.059 9.322 1.177 3.972 5.351 6.237 9.322 5.06zm85.989-7.235c-1.177-3.971-5.351-6.237-9.322-5.06l-73.825 21.882c-3.971 1.177-6.237 5.351-5.059 9.322 1.177 3.971 5.351 6.236 9.322 5.059l73.825-21.882c3.971-1.176 6.236-5.35 5.059-9.321zm-168.227 36.226-73.554-22.778c-3.957-1.226-8.158.989-9.383 4.945-1.225 3.957.989 8.158 4.946 9.383l73.554 22.778c3.957 1.225 8.158-.989 9.383-4.946 1.225-3.955-.989-8.157-4.946-9.382zm14.791-47.762-73.554-22.778c-3.957-1.225-8.158.989-9.383 4.946s.989 8.157 4.946 9.383l73.554 22.778c3.957 1.225 8.158-.989 9.383-4.946s-.989-8.158-4.946-9.383zm-7.395 23.881-73.554-22.778c-3.957-1.225-8.158.989-9.383 4.946s.989 8.158 4.946 9.383l73.554 22.778c3.957 1.226 8.158-.989 9.383-4.945 1.225-3.958-.989-8.158-4.946-9.384z" fill="#95ced6"/><path d="m376.331 200.611-46.98 13.925c-3.971 1.177-8.145-1.088-9.322-5.059s1.088-8.145 5.059-9.322l46.98-13.925c3.971-1.177 8.145 1.088 9.322 5.059s-1.087 8.145-5.059 9.322zm-63.406-15.104c1.177 3.971 5.351 6.237 9.322 5.059l46.98-13.925c3.971-1.177 6.237-5.351 5.059-9.322-1.177-3.971-5.351-6.237-9.322-5.059l-46.98 13.925c-3.971 1.177-6.236 5.351-5.059 9.322zm75.57 29.751c-1.177-3.971-5.351-6.237-9.322-5.059l-46.98 13.925c-3.971 1.177-6.237 5.351-5.059 9.322 1.177 3.971 5.351 6.237 9.322 5.059l46.98-13.925c3.971-1.177 6.236-5.35 5.059-9.322zm-155.885 21.728c1.225-3.957-.989-8.158-4.946-9.383l-46.807-14.495c-3.957-1.225-8.158.989-9.383 4.946s.989 8.158 4.946 9.383l46.807 14.495c3.956 1.225 8.157-.989 9.383-4.946zm-53.74-42.814c-1.225 3.957.989 8.158 4.946 9.383l46.807 14.495c3.957 1.225 8.158-.989 9.383-4.946s-.989-8.158-4.946-9.383l-46.807-14.495c-3.957-1.224-8.158.99-9.383 4.946zm46.344 66.695c1.225-3.957-.989-8.158-4.946-9.383l-46.807-14.495c-3.957-1.225-8.158.989-9.383 4.946s.989 8.158 4.946 9.383l46.807 14.495c3.957 1.225 8.158-.989 9.383-4.946z" fill="#badfe4"/><path d="m251.375 308.226-20.731 66.942c-12.286 39.674-22.607 79.91-30.929 120.562-36.759-7.749-70.481-23.738-99.143-45.946-34.82-26.979-48.88-72.826-35.497-114.793 1.073-3.366 2.133-6.737 3.178-10.113l20.731-66.942z" fill="#eac23f"/><path d="m88.984 257.936 38.114 11.803-20.731 66.942c-6.147 19.85-12.78 39.538-19.891 59.046-3.779 10.368-37.72-12.864-36.298-16.818 6.427-17.866 12.454-35.882 18.075-54.032z" fill="#c3a01a"/><path d="m245.459 327.331-5.916 19.105-162.391-50.29 5.916-19.105z" fill="#fff36c"/><path d="m121.181 288.844-5.916 19.105-38.114-11.803 5.916-19.105z" fill="#eac23f"/><path d="m325.32 489.365c-8.184-45.103-18.814-89.748-31.853-133.736l-19.915-67.189 162.991-48.311 19.915 67.189c.051.173.103.346.154.519 11.833 39.859-4.986 78.041-33.113 108.663-3.479 3.787.405 12.653-3.303 16.215-26.586 25.537-58.924 45.132-94.876 56.65z" fill="#f76c57"/><path d="m362.801 473.804c-11.954 6.176-24.481 11.396-37.481 15.561-8.184-45.103-18.814-89.748-31.853-133.736l-19.915-67.189 38.254-11.338 19.915 67.189c12.632 42.614 23.004 85.846 31.08 129.513z" fill="#e5554e"/><path d="m447.911 278.48-162.991 48.311-5.684-19.175 162.991-48.311z" fill="#faa598"/><path d="m323.174 315.452-38.254 11.338-5.684-19.175 38.254-11.339z" fill="#f87b67"/><path d="m472.936 358.84c-12.899 27.852-30.875 52.873-52.74 73.875l-100.076 29.663c-7.33-35.936-16.221-71.552-26.653-106.749l-2.864-9.663 162.991-48.311 2.864 9.663c5.127 17.296 10.621 34.474 16.478 51.522zm-404.683-33.962c-6.865 22.167-14.335 44.132-22.401 65.871 14.974 22.696 33.622 42.753 55.097 59.326l101.747 31.509c7.766-35.844 17.09-71.35 27.949-106.417l2.981-9.627-162.391-50.29z" fill="#fff5f5"/><path d="m328.858 334.627 2.864 9.663c10.432 35.196 19.323 70.813 26.652 106.748l-38.254 11.339c-7.329-35.935-16.221-71.552-26.653-106.748l-2.864-9.663zm-260.605-9.749c-6.865 22.167-14.335 44.132-22.401 65.871 8.496 12.877 18.174 24.905 28.881 35.929 11.666-29.577 22.22-59.597 31.634-89.996l2.982-9.628-38.114-11.803z" fill="#f5e8b4"/><path d="m368.522 406.456c-.297-.875-.578-1.76-.843-2.652-6.351-21.429-2.031-43.834 10.104-62.817 20.52 9.305 36.351 25.737 42.703 47.166.265.893.511 1.788.739 2.683 7.401 29.113-43.045 44.065-52.703 15.62z" fill="#f87b67"/><path d="m368.522 406.456c-.297-.875-.578-1.76-.843-2.652-6.234-21.033-2.187-43.007 9.44-61.763-1.471 11.213-.7 22.674 2.628 33.901.303 1.023.626 2.037.966 3.04 5.98 17.611 25.6 20.708 41.043 14.574 3.718 27.296-43.881 40.445-53.234 12.9z" fill="#e5554e"/><path d="m155.852 422.437c-.275.89-.567 1.77-.875 2.642-10.003 28.326-60.264 12.761-52.508-16.261.239-.893.496-1.785.771-2.674 6.612-21.35 22.642-37.588 43.273-46.643 11.904 19.129 15.951 41.586 9.339 62.936z" fill="#edd578"/><path d="m153.909 427.637c-12.059 24.768-58.95 9.284-51.44-18.819.239-.893.496-1.785.771-2.674 6.49-20.956 22.053-36.987 42.135-46.134-7.448 8.511-13.168 18.472-16.632 29.657-.316 1.02-.61 2.042-.884 3.065-4.801 17.968 9.8 31.435 26.05 34.905z" fill="#eac23f"/></g></svg>