<svg height="512pt" viewBox="0 -10 512 511" width="512pt" xmlns="http://www.w3.org/2000/svg"><path d="m477.6875 159.445312v307.910157h-443.371094v-307.910157c0-21.222656 14.390625-39.082031 33.941406-44.359374 3.824219-1.03125 7.84375-1.585938 11.992188-1.585938h351.496094c25.378906 0 45.941406 20.574219 45.941406 45.945312zm0 0" fill="#4c5072"/><path d="m350.933594 113.5v6.226562c0 5.445313 4.40625 9.855469 9.851562 9.855469h41.753906c5.445313 0 9.855469-4.410156 9.855469-9.855469v-6.226562zm-18.769532 201.027344h-43.425781c-5.441406 0-9.851562-4.417969-9.851562-9.863282v-191.164062h-76.558594v191.164062c0 5.445313-4.421875 9.863282-9.867187 9.863282h-43.976563c-5.445313 0-9.863281 4.410156-9.863281 9.851562v41.757813c0 5.441406 4.417968 9.851562 9.863281 9.851562h183.679687c5.445313 0 9.867188-4.410156 9.867188-9.851562v-41.757813c0-5.441406-4.421875-9.851562-9.867188-9.851562zm-263.90625-199.441406v4.640624c0 5.445313 4.40625 9.855469 9.851563 9.855469h41.753906c5.445313 0 9.851563-4.410156 9.851563-9.855469v-6.226562h-49.464844c-4.148438 0-8.167969.554688-11.992188 1.585938zm0 0" fill="#353a59"/><path d="m96.597656 113.503906c-25.371094 0-45.933594 20.574219-45.933594 45.945313v307.910156h-16.34375v-307.910156c0-25.371094 20.5625-45.945313 45.933594-45.945313zm0 0" fill="#353a59"/><path d="m445.527344 173.738281v217.527344c0 11.765625-9.539063 21.292969-21.304688 21.292969h-336.449218c-11.765626 0-21.304688-9.527344-21.304688-21.292969v-217.527344c0-11.765625 9.539062-21.304687 21.304688-21.304687h336.449218c11.765625 0 21.304688 9.539062 21.304688 21.304687zm0 0" fill="#e1ebf0"/><path d="m332.164062 314.527344h-43.425781c-5.441406 0-9.851562-4.417969-9.851562-9.863282v-152.230468h-76.558594v152.230468c0 5.445313-4.421875 9.863282-9.867187 9.863282h-43.976563c-5.445313 0-9.863281 4.410156-9.863281 9.851562v41.757813c0 5.441406 4.417968 9.851562 9.863281 9.851562h183.679687c5.445313 0 9.867188-4.410156 9.867188-9.851562v-41.757813c0-5.441406-4.421875-9.851562-9.867188-9.851562zm0 0" fill="#b4d2d7"/><path d="m424.222656 420.402344h-336.449218c-16.070313 0-29.140626-13.070313-29.140626-29.132813v-217.527343c0-16.070313 13.070313-29.140626 29.140626-29.140626h336.449218c16.066406 0 29.140625 13.070313 29.140625 29.140626v217.527343c0 16.0625-13.074219 29.132813-29.140625 29.132813zm-336.449218-260.128906c-7.425782 0-13.46875 6.042968-13.46875 13.46875v217.527343c0 7.421875 6.042968 13.457031 13.46875 13.457031h336.449218c7.425782 0 13.46875-6.035156 13.46875-13.457031v-217.527343c0-7.425782-6.042968-13.46875-13.46875-13.46875zm0 0" fill="#353a59"/><path d="m34.316406 424.851562h443.371094v42.507813h-443.371094zm0 0" fill="#353a59"/><path d="m500.425781 444.007812h-488.851562c-6.390625 0-11.574219 5.183594-11.574219 11.578126 0 19.386718 15.71875 35.109374 35.109375 35.109374h441.78125c19.390625 0 35.109375-15.722656 35.109375-35.109374 0-6.394532-5.183594-11.578126-11.574219-11.578126zm0 0" fill="#4c5072"/><path d="m278.089844 467.351562h-44.179688c-12.894531 0-23.34375-10.453124-23.34375-23.34375h90.867188c0 12.890626-10.453125 23.34375-23.34375 23.34375zm0 0" fill="#353a59"/><path d="m164.15625 314.523438h43.980469c5.445312 0 9.859375-4.414063 9.859375-9.863282v-232.832031c0-5.445313-4.414063-9.859375-9.859375-9.859375h-52.878907c-5.449218 0-9.863281 4.414062-9.863281 9.859375v47.894531c0 5.445313-4.414062 9.859375-9.863281 9.859375h-41.742188c-5.449218 0-9.863281-4.414062-9.863281-9.859375v-109.359375c0-5.449219 4.417969-9.863281 9.863281-9.863281h324.417969c5.449219 0 9.863281 4.414062 9.863281 9.863281v109.359375c0 5.445313-4.414062 9.863282-9.863281 9.863282h-41.742187c-5.449219 0-9.863282-4.417969-9.863282-9.863282v-47.894531c0-5.445313-4.414062-9.859375-9.859374-9.859375h-52.324219c-5.445313 0-9.859375 4.414062-9.859375 9.859375v232.832031c0 5.449219 4.414062 9.863282 9.859375 9.863282h43.421875c5.449218 0 9.863281 4.414062 9.863281 9.863281v41.742187c0 5.449219-4.417969 9.863282-9.863281 9.863282h-183.683594c-5.445312 0-9.859375-4.417969-9.859375-9.863282v-41.742187c-.003906-5.449219 4.414063-9.863281 9.859375-9.863281zm0 0" fill="#ff435e"/><g fill="#e51c42"><path d="m208.136719 314.523438h10.421875c5.449218 0 9.863281-4.414063 9.863281-9.863282v-232.832031c0-5.445313-4.414063-9.859375-9.863281-9.859375h-10.421875c5.445312 0 9.863281 4.414062 9.863281 9.859375v232.832031c0 5.449219-4.417969 9.863282-9.863281 9.863282zm0 0"/><path d="m94.351562 119.722656v-109.359375c0-5.449219 4.414063-9.863281 9.859376-9.863281h-10.421876c-5.449218 0-9.863281 4.414062-9.863281 9.863281v109.359375c0 5.445313 4.417969 9.863282 9.863281 9.863282h10.421876c-5.445313 0-9.859376-4.417969-9.859376-9.863282zm0 0"/><path d="m164.71875 366.128906v-41.742187c0-5.449219 4.414062-9.863281 9.863281-9.863281h-10.425781c-5.445312 0-9.863281 4.417968-9.863281 9.863281v41.742187c0 5.449219 4.417969 9.863282 9.863281 9.863282h10.425781c-5.449219 0-9.863281-4.414063-9.863281-9.863282zm0 0"/><path d="m377.027344 119.722656v-47.894531c0-5.445313-4.417969-9.859375-9.863282-9.859375h-10.421874c5.445312 0 9.859374 4.414062 9.859374 9.859375v47.894531c0 5.445313 4.417969 9.859375 9.863282 9.859375h10.421875c-5.445313.003907-9.859375-4.414062-9.859375-9.859375zm0 0"/></g><path d="m93.476562 490.695312h-58.367187c-9.695313 0-18.472656-3.929687-24.828125-10.28125-6.351562-6.355468-10.28125-15.132812-10.28125-24.828124 0-6.394532 5.183594-11.578126 11.578125-11.578126h58.367187c-6.394531 0-11.578124 5.183594-11.578124 11.578126 0 9.695312 3.929687 18.472656 10.285156 24.828124 6.351562 6.351563 15.128906 10.28125 24.824218 10.28125zm0 0" fill="#353a59"/></svg>