<svg height="512" viewBox="0 0 62 62" width="512" xmlns="http://www.w3.org/2000/svg"><g id="009---Keyboard" fill="none"><g id="Icons" transform="translate(1 1)"><path id="Shape" d="m57.58 23.64-33.94 33.94c-1.9568393 1.9508553-5.1231607 1.9508553-7.08 0-2.373-2.368-8.631-8.616-14.14-14.14-1.95140494-1.9566122-1.95140494-5.1233878 0-7.08l33.94-33.94c1.9590993-1.9453799 5.1209007-1.9453799 7.08 0l14.14 14.14c1.9497573 1.9572931 1.9497573 5.1227069 0 7.08z" fill="#00838f"/><path id="Shape" d="m55.54 21.68-33.95 33.94c-1.7615388 1.7625858-4.5536477 1.9547034-6.54.45l-12.63-12.63c-1.94975729-1.9572931-1.94975729-5.1227069 0-7.08l33.94-33.94c1.7535142-1.74611481 4.5193494-1.95004736 6.51-.48l12.67 12.67c1.9519097 1.9524993 1.9519097 5.1175007 0 7.07z" fill="#00bcd4"/><path id="Shape" d="m23.99 47.32c-.852.852-.52.535-1.41 1.42-.1877666.1893127-.4433625.2957983-.71.2957983s-.5222334-.1064856-.71-.2957983c-2.267-2.267-.888-.886-6.36-6.37 1.692-1.692 1.042-1.045 2.83-2.82l6.36 6.36c.3877236.3900375.3877236 1.0199625 0 1.41z" fill="#37474f"/><path id="Shape" d="m28.94 42.37c-.852.852-.52.535-1.41 1.42-.1877666.1893127-.4433625.2957983-.71.2957983s-.5222334-.1064856-.71-.2957983c-2.716-2.716-.9-.9-6.36-6.37 1.692-1.692 1.042-1.045 2.83-2.82l6.36 6.36c.3877236.3900375.3877236 1.0199625 0 1.41z" fill="#37474f"/><path id="Shape" d="m38.84 32.47-1.42 1.42c-.3900375.3877236-1.0199625.3877236-1.41 0l-6.36-6.36 2.82-2.83c5.934 5.921 4.006 4 6.37 6.36.3877236.3900375.3877236 1.0199625 0 1.41z" fill="#37474f"/><path id="Shape" d="m43.79 27.53c-.885.89-.568.558-1.42 1.41-.3900375.3877236-1.0199625.3877236-1.41 0l-6.36-6.36c1.693-1.7 1.045-1.055 2.82-2.83 5.475 5.463 4.007 4 6.37 6.36.1893127.1877666.2957983.4433625.2957983.71s-.1064856.5222334-.2957983.71z" fill="#37474f"/><path id="Shape" d="m57.91 23.26c-.41.468-34.11 34.18-34.65 34.65-2.235-2.235-7.075-7.074-11.29-11.29-.3899779-.3930079-.3899779-1.0269921 0-1.42l2.83-2.83c5.672 5.672 4.483 4.487 6.36 6.37.1877666.1893127.4433625.2957983.71.2957983s.5222334-.1064856.71-.2957983c.89-.885.558-.568 1.41-1.42.3877236-.3900375.3877236-1.0199625 0-1.41l-6.36-6.36 2.12-2.13c5.672 5.672 4.483 4.487 6.36 6.37.1877666.1893127.4433625.2957983.71.2957983s.5222334-.1064856.71-.2957983c.89-.885.558-.568 1.41-1.42.3877236-.3900375.3877236-1.0199625 0-1.41l-6.36-6.36c.1-.1 6.78-6.8 7.07-7.07l6.36 6.36c.3900375.3877236 1.0199625.3877236 1.41 0l1.42-1.42c.3877236-.3900375.3877236-1.0199625 0-1.41-2.265-2.259-.884-.874-6.37-6.36 2.171-2.171 1.966-1.969 2.13-2.12l6.36 6.36c.3900375.3877236 1.0199625.3877236 1.41 0 .852-.852.535-.52 1.42-1.41.1893127-.1877666.2957983-.4433625.2957983-.71s-.1064856-.5222334-.2957983-.71c-2.265-2.259-.884-.874-6.37-6.36 2.171-2.171 1.966-1.969 2.13-2.12l6.36 6.36c.3900375.3877236 1.0199625.3877236 1.41 0 .852-.852.535-.52 1.42-1.41.1893127-.1877666.2957983-.4433625.2957983-.71s-.1064856-.5222334-.2957983-.71c-2.265-2.259-.884-.874-6.37-6.36l2.83-2.83c.3958391-.3830437 1.0241609-.3830437 1.42 0z" fill="#ffe0b2"/><path id="Shape" d="m48.74 22.58c-.885.89-.568.558-1.42 1.41-.3900375.3877236-1.0199625.3877236-1.41 0l-6.36-6.36c1.693-1.7 1.045-1.055 2.82-2.83 5.421 5.41 3.97 3.96 6.37 6.36.1893127.1877666.2957983.4433625.2957983.71s-.1064856.5222334-.2957983.71z" fill="#37474f"/><g fill="#607d8b"><path id="Shape" d="m22.19 45.52c-.852.852-.52.535-1.41 1.42-.3941173.3872754-1.0258827.3872754-1.42 0l-4.56-4.57c1.692-1.692 1.042-1.045 2.83-2.82l4.56 4.56c.3877236.3900375.3877236 1.0199625 0 1.41z"/><path id="Shape" d="m27.14 40.57c-.852.852-.52.535-1.41 1.42-.3927829.3905238-1.0272171.3905238-1.42 0l-4.56-4.57c1.692-1.692 1.042-1.045 2.83-2.82l4.56 4.56c.3877236.3900375.3877236 1.0199625 0 1.41z"/><path id="Shape" d="m37.04 30.67-1.42 1.42c-.3900375.3877236-1.0199625.3877236-1.41 0l-4.56-4.56 2.82-2.83c6.237 6.223 4.138 4.123 4.58 4.57.3838239.3893664.3793468 1.0161562-.01 1.4z"/><path id="Shape" d="m41.99 25.73c-.885.89-.568.558-1.42 1.41-.3900375.3877236-1.0199625.3877236-1.41 0l-4.56-4.56c1.693-1.7 1.045-1.055 2.82-2.83 6.25 6.237 4.15 4.129 4.59 4.58.3756427.3942669.3667519 1.0166244-.02 1.4z"/><path id="Shape" d="m46.94 20.78c-.885.89-.568.558-1.42 1.41-.3900375.3877236-1.0199625.3877236-1.41 0l-4.56-4.56c1.693-1.7 1.045-1.055 2.82-2.83 6.237 6.223 4.138 4.123 4.58 4.57.3849712.3927817.3805035 1.0227181-.01 1.41z"/></g><rect id="Rectangle-path" fill="#009688" height="5" rx="1" transform="matrix(.707 -.707 .707 .707 -9.937 23.99)" width="12" x="17.99" y="21.49"/><path id="Shape" d="m11.97 40.96c-1.2333776 1.2349482-3.1881021 1.3724609-4.58223083.322355-1.39412873-1.050106-1.80151935-2.9668455-.95499797-4.4931872.84652139-1.5263417 2.68819917-2.1957298 4.3172288-1.5691678 1.1054301.4251736 1.9208464 1.3805549 2.1670777 2.5390532.2462314 1.1584983-.1101299 2.3629333-.9470777 3.2009468z" fill="#37474f"/><path id="Shape" d="m40.96 11.97c-1.2368388 1.2328386-3.1931948 1.3653239-4.5849555.3104952-1.3917606-1.0548287-1.7930168-2.97417105-.9403921-4.49820925.8526246-1.52403821 2.6982086-2.18638358 4.3253476-1.55228595 1.102292.42956424 1.9129815 1.3868973 2.1550722 2.54489781s-.1171859 2.35992579-.9550722 3.19510219z" fill="#37474f"/><path id="Shape" d="m6.24 39.76c-.50244784-1.2899544-.19736639-2.7548467.77826949-3.7369724.97563589-.9821257 2.43847331-1.2969123 3.73173051-.8030276.5024478 1.2899544.1973664 2.7548467-.77826949 3.7369724s-2.43847331 1.2969123-3.73173051.8030276z" fill="#607d8b"/><path id="Shape" d="m35.22 10.76c-.4985471-1.29506389-.1865629-2.7622998.7957777-3.74247665s2.4502609-1.28892495 3.7442223-.78752335c.5055109 1.29557774.1960146 2.76753115-.7884466 3.74982393-.9844612.98229277-2.4570935 1.28854257-3.7515534.78017607z" fill="#607d8b"/><path id="Shape" d="m9 18c0 2.23-3.061 3.565-5.5 2.77-3.327-1-3.33-4.543 0-5.54 2.461-.803 5.5.555 5.5 2.77z" fill="#c81e1e"/><path id="Shape" d="m3.5 20.77c-3.327-1-3.33-4.543 0-5.54 3.327.996 3.33 4.543 0 5.54z" fill="#f44335"/><path id="Shape" d="m48 56c0 2.23-3.061 3.565-5.5 2.77-3.327-1-3.33-4.543 0-5.54 2.461-.803 5.5.555 5.5 2.77z" fill="#c81e1e"/><path id="Shape" d="m59 56c0 2.23-3.061 3.565-5.5 2.77-3.327-1-3.33-4.543 0-5.54 2.461-.803 5.5.555 5.5 2.77z" fill="#c81e1e"/><path id="Shape" d="m42.5 58.77c-3.327-1-3.33-4.543 0-5.54 3.327.996 3.33 4.543 0 5.54z" fill="#f44335"/><path id="Shape" d="m53.5 58.77c-3.327-1-3.33-4.543 0-5.54 3.327.996 3.33 4.543 0 5.54z" fill="#f44335"/></g><g id="Outline" fill="#000"><path id="Shape" d="m16.858 59.284c2.3431136 2.3429582 6.1418864 2.3429582 8.485 0 46.2-46.207 6.871-6.876 33.941-33.941 2.3429582-2.3431136 2.3429582-6.1418864 0-8.485l-14.142-14.142c-2.3431136-2.34295817-6.1418864-2.34295817-8.485 0l-33.941 33.941c-2.34295817 2.3431136-2.34295817 6.1418864 0 8.485zm7.424-1.768-10.606-10.606 2.124-2.121 5.657 5.656c.7809997.7807639 2.0470003.7807639 2.828 0l3.536 3.536zm29.7-29.7-3.536-3.535c.375248-.375096.5860729-.8839266.5860729-1.4145s-.2108249-1.039404-.5860729-1.4145l-5.658-5.652 2.122-2.122 10.607 10.605zm-4.949-4.951-1.415 1.416-5.658-5.655 1.414-1.414zm-4.95 4.951c.917.916.971.974-.001.002zm-16.265 16.266-5.657-5.657 1.414-1.415 5.658 5.657zm11.314-1.415-10.607-10.607 2.122-2.121 5.653 5.661c.7809997.7807639 2.0470003.7807639 2.828 0l3.535 3.536zm-1.414-8.485-5.657-5.657 1.414-1.414 5.658 5.656zm-7.072 7.071-5.657-5.653 2.122-2.122 10.607 10.603-3.536 3.536-3.536-3.535c.375248-.375096.5860729-.8839266.5860729-1.4145s-.2108249-1.039404-.5860729-1.4145zm13.435-3.535-3.535-3.536c.7807639-.7809997.7807639-2.0470003 0-2.828l-5.657-5.654.708-.708 5.656 5.657c.7809997.7807639 2.0470003.7807639 2.828 0l3.536 3.536zm-1.414-8.486-5.656-5.657 1.414-1.413 5.657 5.656zm-24.041 12.728 5.657 5.656-1.415 1.415-5.657-5.656zm7.074 4.24-5.66-5.654.707-.707 5.653 5.661c.375096.375248.8839266.5860729 1.4145.5860729s1.039404-.2108249 1.4145-.5860729l3.536 3.535-3.536 3.536-3.529-3.54c.3758603-.3751769.587074-.8844363.587074-1.4155s-.2112137-1.0403231-.587074-1.4155zm23.331-13.432-3.531-3.536c.7780156-.7821358.7780156-2.0458642 0-2.828l-5.657-5.657.707-.707 5.65 5.66c.7809997.7807639 2.0470003.7807639 2.828 0l3.536 3.535zm-44.9 5.3 33.94-33.938c.7501514-.7501901 1.7675983-1.17164575 2.8285-1.17164575s2.0783486.42145565 2.8285 1.17164575l14.142 14.142c1.1550918 1.1512871 1.4932612 2.889652.854 4.39l-10.4-10.4c-.7809997-.7807639-2.0470003-.7807639-2.828 0-3.187 3.189-30.132 30.129-33.235 33.238-.7807639.7809997-.7807639 2.0470003 0 2.828l10.4 10.4c-1.4999342.6384834-3.2373968.3008084-4.389-.853l-14.142-14.147c-.7501901-.7501514-1.17164575-1.7675983-1.17164575-2.8285s.42145565-2.0783486 1.17164575-2.8285z"/><path id="Shape" d="m21.1 31c.7809997.7807639 2.0470003.7807639 2.828 0l7.072-7.071c.375248-.375096.5860729-.8839266.5860729-1.4145s-.2108249-1.039404-.5860729-1.4145l-2.121-2.122c-.7809997-.7807639-2.0470003-.7807639-2.828 0l-7.072 7.072c-.7807639.7809997-.7807639 2.0470003 0 2.828zm6.364-10.606 2.122 2.119-7.072 7.073-2.121-2.122z"/><path id="Shape" d="m10.494 43.983c2.036418-.0004704 3.8187107-1.3684655 4.3456817-3.3355192.526971-1.9670536-.332738-4.0428374-2.0961886-5.0612875-1.7634506-1.01845-3.99106668-.7256968-5.4314931.7138067-1.28772285 1.2868977-1.67318645 3.2229063-.97657437 4.9048895.69661207 1.6819832 2.33804265 2.778531 4.15857437 2.7781105zm-1.768-6.266c.97637875-.9761213 2.5591714-.9759822 3.5353785.0003107.9762072.976293.9762072 2.5590856 0 3.5353786-.9762071.9762929-2.55899975.976432-3.5353785.0003107-.46898353-.4688599-.73246612-1.1048446-.73246612-1.768s.26348259-1.2991401.73246612-1.768z"/><path id="Shape" d="m39.485 14.994c2.4852814 0 4.5-2.0147186 4.5-4.5 0-2.48528137-2.0147186-4.5-4.5-4.5s-4.5 2.01471863-4.5 4.5c0 2.4852814 2.0147186 4.5 4.5 4.5zm1.768-6.268c.7999261.80013712.9627643 2.0377695.3970313 3.0175896-.5657331.9798201-1.7189978 1.4575549-2.8118849 1.1648108s-1.8529354-1.2829848-1.8531464-2.4144004c-.0001886-1.01130044.6089191-1.92310544 1.5432283-2.31013888s2.0097686-.17305282 2.7247717.54213888z"/><path id="Shape" d="m16.857 32c.5 0 .639-.224 1.415-1 .2527654-.2525868.3515769-.6208353.259213-.96603-.0923638-.3451946-.3618707-.6148921-.707-.7075s-.7134476.0059432-.966213.25853l-.708.707c-.2866239.2859-.3725934.7164072-.2177586 1.0904636.1548349.3740564.5199229.6178554.9247586.6175364z"/><path id="Shape" d="m18.979 31.707-.707.707c-.2525868.2527654-.3511378.6210837-.25853.966213.0926079.3451292.3623054.6146361.7075.707.3451947.0923638.7134432-.0064476.96603-.259213l.707-.707c.3904653-.3907415.3902415-1.0240347-.0005-1.4145s-1.0240347-.3902415-1.4145.0005z"/><path id="Shape" d="m30.293 18.565c.494 0 .638-.224 1.414-1 .3789722-.3923789.3735524-1.0160848-.0121814-1.4018186s-1.0094397-.3911536-1.4018186-.0121814l-.707.707c-.2859079.2859943-.3714219.7160366-.216678 1.0896546.1547439.3736179.5192821.6172591.923678.6173454z"/><path id="Shape" d="m31.707 20.394c.3904999.3903819 1.0235001.3903819 1.414 0l.707-.708c.2599566-.2510745.3642126-.6228779.2726972-.9725073-.0915155-.3496295-.3645604-.6226744-.7141899-.7141899-.3496294-.0915154-.7214328.0127406-.9725073.2726972l-.707.707c-.187777.1875683-.2932867.4420908-.2932867.7075s.1055097.5199317.2932867.7075z"/><path id="Shape" d="m6 23c2.757 0 5-1.794 5-4v-13.814c1.7851776 1.16642673 3.8676101 1.79601548 6 1.814.5522847 0 1-.44771525 1-1s-.4477153-1-1-1c-.051 0-5.232-.054-6.03-3.243-.1227443-.48975536-.5913178-.81118457-1.09242243-.74937319-.5011046.06181138-.87752461.48747076-.87757757.99237319v13.82c-3.327-2.014-8-.08-8 3.18 0 2.206 2.243 4 5 4zm0-6c1.626 0 3 .916 3 2s-1.374 2-3 2-3-.916-3-2 1.374-2 3-2z"/><path id="Shape" d="m51 57c0 2.206 2.243 4 5 4s5-1.794 5-4v-16c0-1.1045695-.8954305-2-2-2h-9c-1.1045695 0-2 .8954305-2 2v12.82c-3.327-2.014-8-.08-8 3.18 0 2.206 2.243 4 5 4s5-1.794 5-4v-12h9v8.82c-3.327-2.014-8-.08-8 3.18zm5 2c-1.626 0-3-.916-3-2s1.374-2 3-2 3 .916 3 2-1.374 2-3 2zm-11 0c-1.626 0-3-.916-3-2s1.374-2 3-2 3 .916 3 2-1.374 2-3 2zm5-16v-2h9v2z"/></g></g></svg>