<?xml version="1.0" encoding="iso-8859-1"?>
<!-- Generator: Adobe Illustrator 19.0.0, SVG Export Plug-In . SVG Version: 6.00 Build 0)  -->
<svg version="1.1" id="Capa_1" xmlns="http://www.w3.org/2000/svg" xmlns:xlink="http://www.w3.org/1999/xlink" x="0px" y="0px"
	 viewBox="0 0 512 512" style="enable-background:new 0 0 512 512;" xml:space="preserve">
<path style="fill:#63CEC1;" d="M313.904,0.289L87.658,61.171l236.68,12.102V8.287C324.338,2.837,319.165-1.127,313.904,0.289z"/>
<path style="fill:#CEFFFB;" d="M416.061,512H95.94c-4.574,0-8.282-3.708-8.282-8.282V61.171h328.403
	c4.574,0,8.282,3.708,8.282,8.282v434.265C424.342,508.292,420.635,512,416.061,512z"/>
<g>
	<path style="opacity:0.5;fill:#8FE5D8;enable-background:new    ;" d="M416.061,512h-19.987V61.171h19.987
		c4.574,0,8.282,3.708,8.282,8.282v434.265C424.342,508.292,420.635,512,416.061,512z"/>
	<path style="opacity:0.5;fill:#8FE5D8;enable-background:new    ;" d="M116.653,512H96.667c-4.574,0-8.282-3.708-8.282-8.282
		V61.171h28.269L116.653,512L116.653,512z"/>
</g>
<path style="fill:#FFC299;" d="M285.835,376.185c-5.276-6.962-13.052-9.083-19.911-10.954c-2.532-0.69-4.923-1.343-6.992-2.184
	c-1.677-0.681-2.948-1.441-3.776-2.259c-4.142-4.089-1.872-13.584,0.195-20.369c0.821-2.692,2.375-6.547,2.197-9.239
	c-4.706,1.503-9.221,3.503-13.874,5.222c-1.227,0.453-2.464,0.864-3.707,1.256c-2.283,7.755-6.153,23.881,4.278,34.181
	c2.321,2.292,5.215,4.123,8.843,5.596c2.929,1.19,5.888,1.997,8.749,2.778c5.118,1.395,9.538,2.601,11.623,5.352
	c2.565,3.384,1.333,9.153-0.499,13.066c-1.439,3.07-3.436,6.051-5.55,9.206c-1.982,2.958-4.031,6.016-5.798,9.412
	c-8.892,17.091-7.756,38.506,2.892,54.561c1.494,2.253,3.962,3.474,6.477,3.474c1.474,0,2.964-0.42,4.285-1.295
	c3.574-2.37,4.549-7.188,2.179-10.762c-7.458-11.244-8.284-26.841-2.057-38.81c1.371-2.634,3.096-5.21,4.922-7.936
	c2.345-3.5,4.77-7.118,6.711-11.26C292.003,394.591,291.56,383.736,285.835,376.185z"/>
<path style="fill:#63CEC1;" d="M232.082,320.806l-0.65,13.968c-0.194,4.172,3.843,7.251,7.815,5.959l20.523-6.672
	c4.061-1.32,5.466-6.35,2.677-9.584l-9.266-10.745c-1.572-1.822-4.083-2.524-6.372-1.78l-10.608,3.449
	C233.839,316.17,232.198,318.322,232.082,320.806z"/>
<path style="fill:#A6AEF2;" d="M260.594,309.457c-4.887,4.673-10.51,8.183-16.835,10.241c-36.334,11.811-82.055-28.666-98.98-80.713
	c-16.924-52.054,1.37-95.965,37.697-107.776c13.944-4.536,28.522-3.682,42.143,2.037c21.88,9.175,41.303,30.889,51.73,62.963
	C290.32,239.192,283.76,287.343,260.594,309.457z"/>
<g>
	<path style="fill:#8593D6;" d="M260.594,309.457c-28.013-23.195-47.236-69.894-47.236-117.894c0-22.149,4.095-41.84,11.26-58.317
		c21.88,9.175,41.303,30.889,51.73,62.963C290.32,239.192,283.76,287.343,260.594,309.457z"/>
	<path style="fill:#8593D6;" d="M276.346,196.212c16.921,52.05,3.737,111.672-32.59,123.482c-2.284,0.743-4.606,1.28-6.957,1.618
		c31.299-16.501,41.876-71.925,26.018-120.702c-15.857-48.777-52.522-73.601-86.975-66.8c2.138-0.992,4.352-1.864,6.636-2.606
		C218.806,119.394,259.426,144.163,276.346,196.212z"/>
</g>
<path style="fill:#FFC299;" d="M329.607,361.863c-4.514-7.479-12.023-10.407-18.648-12.991c-2.445-0.953-4.754-1.854-6.724-2.909
	c-1.595-0.853-2.778-1.742-3.515-2.642c-3.689-4.504-0.432-13.707,2.34-20.237c0.757-1.785,1.746-3.947,2.243-5.937
	c-5.348-0.162-10.673-0.702-16.013-1.016c-0.211,0.29-0.397,0.585-0.525,0.887c-2.768,6.524-10.123,23.853-0.059,36.143
	c2.067,2.524,4.752,4.649,8.204,6.495c2.786,1.491,5.643,2.605,8.406,3.683c4.943,1.928,9.211,3.593,10.995,6.549
	c2.194,3.634,0.362,9.242-1.873,12.941c-1.754,2.902-4.054,5.654-6.488,8.569c-2.282,2.733-4.642,5.557-6.757,8.749
	c-10.642,16.057-11.77,37.474-2.872,54.562c1.384,2.658,4.09,4.18,6.893,4.18c1.208,0,2.434-0.283,3.58-0.88
	c3.803-1.98,5.281-6.669,3.301-10.473c-6.232-11.968-5.411-27.565,2.043-38.812c1.64-2.475,3.627-4.854,5.731-7.373
	c2.7-3.232,5.493-6.575,7.858-10.49C333.801,380.816,334.504,369.974,329.607,361.863z"/>
<path style="fill:#FC819C;" d="M287.643,298.349l-4.936,13.083c-1.474,3.908,1.413,8.084,5.59,8.084h21.581
	c4.27,0,7.161-4.349,5.509-8.286l-5.49-13.083c-0.931-2.219-3.103-3.663-5.509-3.663h-11.154
	C290.747,294.484,288.521,296.023,287.643,298.349z"/>
<path style="fill:#FFA6B7;" d="M229.914,193.543c0-54.731,30.97-90.841,69.173-90.841s69.173,36.109,69.173,90.841
	s-30.97,107.359-69.173,107.359S229.914,248.274,229.914,193.543z"/>
<path style="fill:#FC819C;" d="M368.26,193.546c0,54.731-30.972,107.356-69.171,107.356c-2.402,0-4.777-0.206-7.117-0.613
	c34.868-6.015,62.061-55.454,62.061-106.744s-27.194-86.233-62.061-90.418c2.34-0.282,4.715-0.427,7.117-0.427
	C337.286,102.701,368.26,138.814,368.26,193.546z"/>
<g>
	<path style="fill:#FFA6B7;" d="M144.402,455.729h-17.968c-4.289,0-7.764-3.476-7.764-7.764s3.476-7.764,7.764-7.764h17.968
		c4.289,0,7.764,3.476,7.764,7.764S148.691,455.729,144.402,455.729z"/>
	<path style="fill:#FFA6B7;" d="M213.963,480.228h-87.529c-4.289,0-7.764-3.476-7.764-7.764s3.476-7.764,7.764-7.764h87.529
		c4.289,0,7.764,3.476,7.764,7.764S218.252,480.228,213.963,480.228z"/>
</g>
<g>
</g>
<g>
</g>
<g>
</g>
<g>
</g>
<g>
</g>
<g>
</g>
<g>
</g>
<g>
</g>
<g>
</g>
<g>
</g>
<g>
</g>
<g>
</g>
<g>
</g>
<g>
</g>
<g>
</g>
</svg>
