<svg id="flat" height="512" viewBox="0 0 512 512" width="512" xmlns="http://www.w3.org/2000/svg"><rect fill="#548aff" height="464" rx="24" width="464" x="24" y="24"/><path d="m136 168v-144h-88a24 24 0 0 0 -24 24v120z" fill="#7dafff"/><path d="m488 360h-320v128h296a24 24 0 0 0 24-24z" fill="#4976f2"/><g fill="#7dafff"><path d="m208 384h104v16h-104z"/><path d="m288 416h144v16h-144z"/><path d="m248 448h48v16h-48z"/><path d="m320 448h24v16h-24z"/><path d="m376 384h56v16h-56z"/><path d="m168 488v-128h-144v104a24 24 0 0 0 24 24z"/></g><path d="m168 400v-16h-88v-24h-16v24h-40v16h40v16h-40v16h40v16h-40v16h40v24h16v-24h88v-16h-88v-16h88v-16h-88v-16z" fill="#639aff"/><circle cx="56" cy="56" fill="#639aff" r="8"/><circle cx="80" cy="56" fill="#639aff" r="8"/><circle cx="104" cy="56" fill="#639aff" r="8"/><path d="m384 312h80v16h-80z" fill="#4976f2"/><path d="m160 312h184v16h-184z" fill="#4976f2"/><path d="m344 328-16-16v-24h32v24z" fill="#91c0ff"/><path d="m24 168h112v192h-112z" fill="#639aff"/><path d="m48 192h48v16h-48z" fill="#91c0ff"/><path d="m48 224h32v16h-32z" fill="#91c0ff"/><path d="m48 256h48v16h-48z" fill="#91c0ff"/><path d="m80 288h32v16h-32z" fill="#91c0ff"/><path d="m80 320h32v16h-32z" fill="#91c0ff"/><path d="m328 96h-48l-40 16v16h56l-8 32 40 16 24-24h40l32-24-8-16-32 8-40-16z" fill="#ffb401"/><path d="m320 80h32a0 0 0 0 1 0 0v16a16 16 0 0 1 -16 16 16 16 0 0 1 -16-16v-16a0 0 0 0 1 0 0z" fill="#ffceb6"/><path d="m320 80v-16l13.26688-6.63344a12.94424 12.94424 0 0 1 5.78885-1.36656 12.94426 12.94426 0 0 1 12.94427 12.94426v11.05574z" fill="#b1712c"/><path d="m288 160-24 56-48 16v16l72-8 32-32z" fill="#7dafff"/><path d="m280 128v-32l-40 16v16z" fill="#ffceb6"/><path d="m392 152-8-32 32-8 8 16z" fill="#ffceb6"/><path d="m288 160-3.64457 10.93371a28.161 28.161 0 0 0 3.2845 24.52619 28.161 28.161 0 0 0 23.43137 12.5401h40.9287l-8 48 16 8 20.1428-46.99986a25.75456 25.75456 0 0 0 .76074-18.28952 25.75456 25.75456 0 0 0 -20.19888-17.25983l-32.70466-5.45079z" fill="#91c0ff"/></svg>