<svg viewBox="0 0 512 512" xmlns="http://www.w3.org/2000/svg"><path d="m180 437h90v60h-90zm0 0" fill="#d3d3d8"/><path d="m225 437h45v60h-45zm0 0" fill="#babac0"/><path d="m452 136v256l-30 30h-392l-30-30v-256c0-24.902344 20.097656-45 45-45h362c24.902344 0 45 20.097656 45 45zm0 0" fill="#3e5959"/><path d="m452 136v226l-30 30h-197v-301h182c24.902344 0 45 20.097656 45 45zm0 0" fill="#384949"/><path d="m422 136v226h-392v-226c0-8.402344 6.597656-15 15-15h362c8.402344 0 15 6.597656 15 15zm0 0" fill="#bdfdff"/><path d="m422 136v226h-197v-241h182c8.402344 0 15 6.597656 15 15zm0 0" fill="#9bfbff"/><path d="m452 392v15c0 24.902344-20.097656 45-45 45h-362c-24.902344 0-45-20.097656-45-45v-15zm0 0" fill="#ececf1"/><path d="m452 392v15c0 24.902344-20.097656 45-45 45h-182v-60zm0 0" fill="#d3d3d8"/><path d="m332 497c0 8.402344-6.597656 15-15 15h-182c-8.402344 0-15-6.597656-15-15s6.597656-15 15-15h182c8.402344 0 15 6.597656 15 15zm0 0" fill="#ececf1"/><path d="m332 497c0 8.402344-6.597656 15-15 15h-92v-30h92c8.402344 0 15 6.597656 15 15zm0 0" fill="#d3d3d8"/><path d="m482 407 30 6.597656v83.402344c0 8.398438-6.597656 15-15 15h-180c-8.402344 0-15-6.601562-15-15v-240c0-8.402344 6.597656-15 15-15h180c8.402344 0 15 6.597656 15 15v105c0 16.5-13.5 45-30 45zm0 0" fill="#ffd400"/><path d="m482 407 30 6.597656v83.402344c0 8.398438-6.597656 15-15 15h-90v-270h90c8.402344 0 15 6.597656 15 15v105c0 16.5-13.5 45-30 45zm0 0" fill="#ff9f00"/><path d="m195 181v121c0 16.5-13.5 30-30 30s-30-13.5-30-30v-121zm0 0" fill="#4a696f"/><path d="m195 181v121c0 16.5-13.5 30-30 30v-151zm0 0" fill="#3e5959"/><path d="m270 15v136l-105 30-105-30v-136c0-8.402344 6.597656-15 15-15h30c3.898438 0 7.800781 1.5 10.5 4.5l19.5 19.199219 19.5-19.199219c2.699219-3 6.601562-4.5 10.5-4.5h90c8.402344 0 15 6.597656 15 15zm0 0" fill="#ff9f00"/><path d="m270 15v136l-105 30v-181h90c8.402344 0 15 6.597656 15 15zm0 0" fill="#ff7816"/><path d="m270 151v15c0 24.898438-20.097656 45-45 45h-120c-24.902344 0-45-20.101562-45-45v-15zm0 0" fill="#4a696f"/><path d="m270 151v15c0 24.898438-20.097656 45-45 45h-60v-60zm0 0" fill="#3e5959"/><path d="m482 392c-16.539062 0-30-13.460938-30-30v-45c0-8.289062-6.710938-15-15-15s-15 6.710938-15 15v45c0 33.089844 26.910156 60 60 60 10.976562 0 21.140625-3.175781 30-8.34375v-51.65625c0 16.539062-13.460938 30-30 30zm0 0" fill="#3e5959"/><path d="m482 317c0 8.398438-6.597656 15-15 15h-60c-8.402344 0-15-6.601562-15-15 0-8.402344 6.597656-15 15-15h60c8.402344 0 15 6.597656 15 15zm0 0" fill="#4a696f"/><path d="m482 317c0 8.398438-6.597656 15-15 15h-60v-30h60c8.402344 0 15 6.597656 15 15zm0 0" fill="#3e5959"/></svg>