<svg height="512" viewBox="0 0 64 64" width="512" xmlns="http://www.w3.org/2000/svg"><path d="m29 23h24v34h-24z" fill="#f98c96"/><path d="m29 57h24v4h-24z" fill="#87cee9"/><path d="m29 19h24v4h-24z" fill="#87cee9"/><path d="m29 23v14a2 2 0 0 0 4 0v-3a2 2 0 0 1 4 0v5a2 2 0 0 0 4 0v-8a2 2 0 0 1 4 0v5a2 2 0 0 0 4 0v-13z" fill="#d9176c"/><circle cx="54" cy="10" fill="#d9176c" r="2"/><circle cx="23" cy="36" fill="#d9176c" r="2"/><path d="m49 54h-3v-2h2v-4h2v5a1 1 0 0 1 -1 1z" fill="#f4f4e6"/><path d="m42 52h2v2h-2z" fill="#f4f4e6"/><path d="m53 19h-24l7-6h10z" fill="#a9dded"/><path d="m38 3h6v6h-6z" fill="#20749e"/><path d="m40 9h2v4h-2z" fill="#113e54"/><path d="m17 53a2 2 0 0 0 0 4h-6a2 2 0 0 0 0 4h18v-8z" fill="#d9176c"/><path d="m29 52h11v2h-11z" fill="#f4f4e6"/><g fill="#f98c96"><path d="m24-2.521h1.999v12.042h-1.999z" transform="matrix(.083 -.997 .997 .083 19.436 28.123)"/><path d="m17 7h14v2h-14z"/><path d="m18.917 12h12.166v2h-12.166z" transform="matrix(.986 -.164 .164 .986 -1.794 4.278)"/><path d="m15 2h2v2h-2z"/><path d="m13 7h2v2h-2z"/><path d="m15 13h2v2h-2z"/></g></svg>