<svg height="511pt" viewBox="-13 0 511 511.99864" width="511pt" xmlns="http://www.w3.org/2000/svg"><g fill="#825a2c"><path d="m381.730469 22.367188 25.136719-4.851563c9.238281-1.710937 18.140624 4.3125 19.988281 13.523437 1.757812 9.25-4.285157 18.183594-13.523438 19.992188l-25.132812 4.851562-100.546875 19.402344-25.136719 4.851563c-9.25 1.757812-18.179687-4.285157-19.992187-13.523438-1.710938-9.238281 4.3125-18.144531 13.523437-19.992187l25.136719-4.851563zm0 0"/><path d="m85.832031 93.867188h-42.667969c-9.414062-.03125-17.035156-7.65625-17.066406-17.070313.070313-9.394531 7.671875-16.996094 17.066406-17.066406h42.667969"/><path d="m154.097656 59.730469h42.667969c9.398437.070312 17 7.671875 17.066406 17.066406-.027343 9.414063-7.652343 17.039063-17.066406 17.070313h-42.667969"/></g><path d="m43.164062 93.867188c18.851563 0 34.136719 15.28125 34.136719 34.132812v366.933594c0 4.710937-3.820312 8.53125-8.535156 8.53125h-51.199219c-4.714844 0-8.535156-3.820313-8.535156-8.53125v-366.933594c0-18.851562 15.285156-34.132812 34.132812-34.132812zm0 0" fill="#fec108"/><path d="m26.097656 93.867188h8.535156c9.425782 0 17.066407 7.640624 17.066407 17.066406v388.265625c0 2.355469-1.910157 4.265625-4.265625 4.265625h-34.132813c-2.359375 0-4.269531-1.910156-4.269531-4.265625v-388.265625c0-9.425782 7.640625-17.066406 17.066406-17.066406zm0 0" fill="#ffdc00"/><path d="m230.898438 265.554688v229.378906c-.011719 4.707031-3.824219 8.519531-8.53125 8.53125h-51.203126c-4.707031-.011719-8.519531-3.824219-8.53125-8.53125v-366.933594c0-18.851562 15.28125-34.132812 34.132813-34.132812s34.132813 15.28125 34.132813 34.132812zm0 0" fill="#fec108"/><path d="m205.300781 265.554688v229.378906c0 4.691406-2.402343 8.53125-5.335937 8.53125h-32c-2.933594 0-5.332032-3.839844-5.332032-8.53125v-366.933594c0-18.859375 9.546876-34.132812 21.332032-34.132812 6.417968.5 12.121094 4.273437 15.09375 9.980468 4.234375 7.335938 6.390625 15.683594 6.242187 24.152344zm0 0" fill="#ffdc00"/><path d="m85.832031 42.664062h68.265625c9.425782 0 17.066406 7.640626 17.066406 17.066407v34.136719c0 9.421874-7.640624 17.066406-17.066406 17.066406h-68.265625c-9.425781 0-17.066406-7.644532-17.066406-17.066406v-34.136719c0-9.425781 7.640625-17.066407 17.066406-17.066407zm0 0" fill="#fec108"/><path d="m85.832031 42.664062h42.667969c9.425781 0 17.066406 7.640626 17.066406 17.066407v34.136719c0 9.421874-7.640625 17.066406-17.066406 17.066406h-42.667969c-9.425781 0-17.066406-7.644532-17.066406-17.066406v-34.136719c0-9.425781 7.640625-17.066407 17.066406-17.066407zm0 0" fill="#ffdc00"/><path d="m294.714844 21.777344 67.03125-12.9375c9.253906-1.785156 18.203125 4.269531 19.992187 13.523437l6.46875 33.515625c1.785157 9.253906-4.269531 18.207032-13.523437 19.992188l-67.035156 12.9375c-9.253907 1.785156-18.203126-4.269532-19.988282-13.523438l-6.46875-33.519531c-1.789062-9.253906 4.265625-18.203125 13.523438-19.988281zm0 0" fill="#fec108"/><path d="m295.9375 23.1875 40.320312-7.78125c9.253907-1.785156 18.203126 4.269531 19.992188 13.523438l6.464844 33.515624c1.789062 9.253907-4.265625 18.203126-13.523438 19.988282l-40.320312 7.78125c-9.253906 1.789062-18.207032-4.265625-19.992188-13.523438l-6.464844-33.511718c-1.789062-9.257813 4.265626-18.207032 13.523438-19.992188zm0 0" fill="#ffdc00"/><path d="m375.796875 234.835938 36.09375-95.828126c5.78125-15.445312 21.785156-24.542968 38.011719-21.605468 16.230468 2.933594 28.03125 17.058594 28.035156 33.550781.019531 4.140625-.734375 8.25-2.21875 12.117187l-125.917969 334.867188c-1.25 3.324219-4.433593 5.527344-7.988281 5.527344h-54.726562c-2.800782 0-5.421876-1.375-7.015626-3.675782-1.59375-2.304687-1.957031-5.242187-.96875-7.863281l80.652344-214.421875zm0 0" fill="#e4c05c"/><path d="m375.796875 234.835938 36.09375-95.828126c5.78125-15.445312 21.785156-24.542968 38.011719-21.605468 16.230468 2.933594 28.03125 17.058594 28.035156 33.550781.019531 4.140625-.734375 8.25-2.21875 12.117187l-125.917969 334.867188c-1.25 3.324219-4.433593 5.527344-7.988281 5.527344h-54.726562c-2.800782 0-5.421876-1.375-7.015626-3.675782-1.59375-2.304687-1.957031-5.242187-.96875-7.863281l80.652344-214.421875zm0 0" fill="#fec108"/><path d="m308.402344 503.464844c3.855468.039062 7.347656-2.28125 8.808594-5.847656l142.863281-362.300782c1.019531-2.496094 1.421875-5.199218 1.171875-7.886718-.582032-7-5.226563-13.003907-11.859375-15.328126-2.195313-.773437-4.507813-1.167968-6.835938-1.167968-7.765625-.09375-14.792969 4.582031-17.710937 11.785156l-39.847656 101.714844-104.296876 266.773437c-1.046874 2.839844-.613281 6.015625 1.15625 8.46875 1.765626 2.457031 4.636719 3.878907 7.660157 3.789063zm0 0" fill="#ffdc00"/><path d="m353.4375 284.671875c-17.488281 17.597656-42.445312 25.585937-66.902344 21.417969-7.261718-1.164063-14.308594-3.40625-20.90625-6.65625-7.699218-3.703125-14.714844-8.699219-20.734375-14.761719-19.410156-19.386719-26.996093-47.65625-19.902343-74.15625s27.792968-47.199219 54.289062-54.292969c26.5-7.09375 54.769531.496094 74.15625 19.902344 6.019531 6.03125 11.003906 13.007812 14.761719 20.652344 14.367187 29.441406 8.4375 64.761718-14.761719 87.894531zm0 0" fill="#c81e1e"/><path d="m327.839844 284.671875c-11.207032 11.261719-25.644532 18.75-41.304688 21.417969-7.261718-1.164063-14.308594-3.40625-20.90625-6.65625-7.699218-3.703125-14.714844-8.699219-20.734375-14.761719-20.269531-20.339844-27.519531-50.273437-18.792969-77.632813 8.722657-27.355468 31.964844-47.570312 60.265626-52.417968 6.839843 1.203125 13.496093 3.300781 19.796874 6.230468 8.058594 3.789063 15.394532 8.960938 21.675782 15.273438 6.015625 6.03125 11.003906 13.007812 14.761718 20.652344 14.367188 29.441406 8.433594 64.761718-14.761718 87.894531zm0 0" fill="#f44335"/><path d="m368.199219 196.777344-102.570313 102.65625c-7.699218-3.703125-14.714844-8.699219-20.734375-14.761719-6.316406-6.3125-11.488281-13.675781-15.273437-21.761719l102.140625-102.058594c8.0625 3.789063 15.394531 8.960938 21.675781 15.273438 6.019531 6.03125 11.003906 13.007812 14.761719 20.652344zm0 0" fill="#c81e1e"/><path d="m68.765625 512h-51.199219c-9.421875-.011719-17.058594-7.644531-17.066406-17.066406v-366.933594c0-23.566406 19.101562-42.667969 42.664062-42.667969 23.566407 0 42.667969 19.101563 42.667969 42.667969v366.933594c-.007812 9.421875-7.644531 17.054687-17.066406 17.066406zm-25.601563-409.601562c-14.128906.015624-25.582031 11.46875-25.597656 25.601562v366.933594h51.210938l-.011719-366.933594c-.015625-14.132812-11.46875-25.585938-25.601563-25.601562zm0 0"/><path d="m222.367188 512h-51.203126c-9.417968-.011719-17.054687-7.644531-17.066406-17.066406v-366.933594c0-23.566406 19.105469-42.667969 42.667969-42.667969 23.566406 0 42.667969 19.101563 42.667969 42.667969v67.242188c0 4.710937-3.820313 8.53125-8.535156 8.53125-4.710938 0-8.53125-3.820313-8.53125-8.53125v-67.242188c0-14.140625-11.460938-25.601562-25.601563-25.601562-14.136719 0-25.601563 11.460937-25.601563 25.601562v366.933594h51.203126v-229.378906c0-4.710938 3.820312-8.53125 8.53125-8.53125 4.714843 0 8.535156 3.820312 8.535156 8.53125v229.378906c-.011719 9.421875-7.644532 17.054687-17.066406 17.066406zm0 0"/><path d="m154.097656 119.464844h-68.265625c-14.132812-.015625-25.582031-11.46875-25.597656-25.597656v-34.136719c.015625-14.128907 11.464844-25.582031 25.597656-25.597657h68.265625c14.132813.015626 25.585938 11.46875 25.601563 25.597657v34.136719c-.015625 14.128906-11.46875 25.582031-25.601563 25.597656zm-68.265625-68.265625c-4.710937.003906-8.527343 3.824219-8.53125 8.53125v34.136719c.003907 4.707031 3.820313 8.523437 8.53125 8.53125h68.265625c4.710938-.007813 8.527344-3.824219 8.535156-8.53125v-34.136719c-.007812-4.707031-3.824218-8.527344-8.535156-8.53125zm0 0"/><path d="m68.765625 102.398438h-25.601563c-14.128906-.015626-25.582031-11.46875-25.597656-25.601563.066406-14.109375 11.488282-25.53125 25.597656-25.597656h25.601563c4.714844 0 8.535156 3.820312 8.535156 8.53125 0 4.714843-3.820312 8.535156-8.535156 8.535156h-25.601563c-2.226562-.019531-4.363281.867187-5.921874 2.457031-1.671876 1.578125-2.617188 3.777344-2.609376 6.074219.007813 4.710937 3.824219 8.527344 8.53125 8.535156h25.601563c4.714844 0 8.535156 3.820313 8.535156 8.535157 0 4.710937-3.820312 8.53125-8.535156 8.53125zm0 0"/><path d="m196.765625 102.398438h-25.601563c-4.710937 0-8.53125-3.820313-8.53125-8.53125 0-4.714844 3.820313-8.535157 8.53125-8.535157h25.601563c4.710937-.007812 8.527344-3.824219 8.535156-8.535156.019531-2.226563-.867187-4.363281-2.460937-5.921875-1.578125-1.671875-3.777344-2.617188-6.074219-2.609375h-25.601563c-4.710937 0-8.53125-3.820313-8.53125-8.535156 0-4.710938 3.820313-8.53125 8.53125-8.53125h25.601563c14.113281.066406 25.535156 11.488281 25.601563 25.597656-.015626 14.132813-11.46875 25.585937-25.601563 25.601563zm0 0"/><path d="m304.40625 97.65625c-12.261719-.019531-22.792969-8.71875-25.132812-20.753906l-6.46875-33.515625c-2.660157-13.878907 6.414062-27.292969 20.285156-29.984375l67.03125-12.9375c6.667968-1.289063 13.574218.125 19.199218 3.929687 5.625 3.808594 9.503907 9.691407 10.789063 16.363281l6.46875 33.507813c2.660156 13.878906-6.414063 27.292969-20.285156 29.988281l-67.03125 12.9375c-1.597657.308594-3.226563.464844-4.855469.464844zm60.585938-80.589844c-.550782 0-1.097657.054688-1.636719.15625l-67.03125 12.9375c-4.625.898438-7.648438 5.367188-6.761719 9.992188l6.46875 33.515625c.429688 2.226562 1.722656 4.1875 3.597656 5.457031s4.179688 1.738281 6.402344 1.308594l67.027344-12.9375c4.625-.898438 7.648437-5.367188 6.761718-9.996094l-6.46875-33.515625c-.773437-4.007813-4.277343-6.910156-8.359374-6.917969zm0 0"/><path d="m259.257812 88.980469c-12.25-.035157-22.769531-8.726563-25.117187-20.75-2.609375-13.867188 6.445313-27.25 20.292969-29.984375l25.128906-4.855469c2.992188-.578125 6.066406.484375 8.066406 2.789063 1.996094 2.300781 2.613282 5.496093 1.617188 8.378906-.996094 2.882812-3.453125 5.011718-6.445313 5.589844l-25.136719 4.855468c-2.1875.398438-4.121093 1.675782-5.347656 3.535156-1.34375 1.867188-1.855468 4.207032-1.410156 6.464844.917969 4.609375 5.375 7.621094 9.996094 6.753906l25.136718-4.851562c4.605469-.84375 9.035157 2.179688 9.921876 6.78125.882812 4.597656-2.101563 9.050781-6.695313 9.976562l-25.136719 4.851563c-1.605468.308594-3.234375.464844-4.871094.464844zm0 0"/><path d="m388.191406 64.414062c-4.398437-.003906-8.070312-3.347656-8.488281-7.722656-.414063-4.378906 2.5625-8.355468 6.878906-9.1875l25.136719-4.851562c4.625-.898438 7.652344-5.371094 6.765625-9.996094-.402344-2.183594-1.675781-4.113281-3.527344-5.339844-1.867187-1.351562-4.210937-1.867187-6.472656-1.421875l-25.136719 4.855469c-4.59375.824219-8.996094-2.199219-9.882812-6.78125-.886719-4.585938 2.074218-9.027344 6.648437-9.976562l25.136719-4.851563c13.867188-2.605469 27.242188 6.441406 29.988281 20.28125 2.648438 13.878906-6.421875 27.289063-20.289062 29.992187l-25.132813 4.851563c-.535156.101563-1.082031.152344-1.625.148437zm0 0"/><path d="m299.164062 315.730469c-40.710937.003906-75.761718-28.753907-83.707031-68.683594-7.945312-39.933594 13.425781-79.917969 51.039063-95.5 37.613281-15.582031 81-2.421875 103.621094 31.429687 22.617187 33.851563 18.175781 78.96875-10.613282 107.757813-15.964844 16.058594-37.695312 25.058594-60.339844 24.996094zm0-153.597657c-30.898437-.003906-57.941406 20.75-65.941406 50.597657-7.996094 29.84375 5.046875 61.339843 31.808594 76.789062 26.757812 15.449219 60.558594 11 82.40625-10.851562 19.523438-19.523438 25.363281-48.882813 14.796875-74.394531-10.566406-25.507813-35.457031-42.140626-63.070313-42.140626zm0 0"/><path d="m234.121094 279.839844c-3.453125 0-6.5625-2.078125-7.882813-5.269532-1.320312-3.1875-.589843-6.855468 1.847657-9.296874l6.035156-6.03125c2.144531-2.210938 5.3125-3.097657 8.289062-2.3125 2.980469.78125 5.304688 3.105468 6.089844 6.085937.78125 2.976563-.101562 6.148437-2.3125 8.289063l-6.035156 6.035156c-1.597656 1.605468-3.769532 2.503906-6.03125 2.5zm24.136718-24.136719c-3.449218 0-6.5625-2.078125-7.882812-5.269531-1.320312-3.1875-.589844-6.855469 1.847656-9.296875l6.035156-6.035157c2.144532-2.214843 5.316407-3.105468 8.300782-2.324218 2.980468.78125 5.3125 3.109375 6.09375 6.09375s-.109375 6.15625-2.328125 8.296875l-6.03125 6.035156c-1.601563 1.601563-3.769531 2.503906-6.035157 2.5zm24.132813-24.132813c-3.449219 0-6.5625-2.082031-7.882813-5.269531-1.320312-3.1875-.589843-6.855469 1.847657-9.296875l6.035156-6.035156c2.144531-2.210938 5.3125-3.09375 8.292969-2.3125 2.976562.78125 5.304687 3.109375 6.085937 6.089844.78125 2.976562-.101562 6.144531-2.3125 8.289062l-6.03125 6.035156c-1.597656 1.601563-3.769531 2.503907-6.035156 2.5zm24.136719-24.136718c-3.449219-.003906-6.558594-2.082032-7.878906-5.269532-1.324219-3.1875-.59375-6.859374 1.847656-9.296874l6.03125-6.035157c2.148437-2.203125 5.3125-3.078125 8.285156-2.296875 2.972656.785156 5.292969 3.105469 6.078125 6.078125.78125 2.976563-.09375 6.140625-2.296875 8.285157l-6.03125 6.035156c-1.597656 1.601562-3.769531 2.5-6.035156 2.5zm24.132812-24.132813c-3.449218-.003906-6.5625-2.082031-7.882812-5.269531-1.320313-3.1875-.589844-6.859375 1.851562-9.300781l6.035156-6.035157c3.347657-3.261718 8.691407-3.226562 11.992188.074219 3.304688 3.304688 3.335938 8.648438.078125 11.992188l-6.039063 6.035156c-1.597656 1.605469-3.769531 2.503906-6.035156 2.503906zm0 0"/><path d="m258.257812 303.976562c-3.449218 0-6.5625-2.078124-7.882812-5.265624s-.589844-6.859376 1.847656-9.300782l6.035156-6.03125c2.144532-2.210937 5.3125-3.09375 8.292969-2.3125 2.976563.78125 5.304688 3.109375 6.085938 6.085938.78125 2.980468-.101563 6.148437-2.3125 8.292968l-6.03125 6.03125c-1.601563 1.605469-3.769531 2.503907-6.035157 2.5zm24.136719-24.136718c-3.449219 0-6.5625-2.078125-7.882812-5.265625-1.320313-3.191407-.589844-6.859375 1.851562-9.300781l6.03125-6.03125c3.347657-3.234376 8.671875-3.1875 11.964844.101562 3.289063 3.292969 3.335937 8.613281.101563 11.960938l-6.03125 6.035156c-1.597657 1.601562-3.769532 2.503906-6.035157 2.5zm24.132813-24.132813c-3.449219 0-6.558594-2.078125-7.878906-5.269531-1.324219-3.1875-.59375-6.855469 1.847656-9.296875l6.03125-6.035156c2.144531-2.207031 5.3125-3.09375 8.292968-2.3125 2.980469.785156 5.304688 3.109375 6.085938 6.089843.785156 2.976563-.101562 6.144532-2.3125 8.289063l-6.03125 6.035156c-1.597656 1.601563-3.769531 2.503907-6.035156 2.5zm24.136718-24.136719c-3.449218 0-6.558593-2.082031-7.878906-5.269531-1.320312-3.1875-.59375-6.855469 1.847656-9.296875l6.03125-6.035156c3.347657-3.261719 8.691407-3.226562 11.992188.078125 3.304688 3.300781 3.335938 8.644531.078125 11.988281l-6.035156 6.035156c-1.597657 1.601563-3.769531 2.503907-6.035157 2.5zm24.140626-24.132812c-3.453126 0-6.5625-2.082031-7.882813-5.269531s-.589844-6.859375 1.847656-9.296875l6.039063-6.039063c2.144531-2.203125 5.308594-3.078125 8.28125-2.296875 2.972656.785156 5.296875 3.105469 6.078125 6.078125.785156 2.976563-.09375 6.140625-2.292969 8.285157l-6.039062 6.039062c-1.597657 1.601562-3.769532 2.5-6.03125 2.5zm0 0"/><path d="m341.8125 512h-54.726562c-5.597657 0-10.84375-2.75-14.03125-7.351562-3.1875-4.605469-3.914063-10.480469-1.941407-15.71875l80.652344-214.429688c1.074219-2.855469 3.589844-4.917969 6.597656-5.417969 3.007813-.496093 6.050781.648438 7.984375 3.007813 1.9375 2.355468 2.464844 5.5625 1.394532 8.417968l-80.65625 214.425782h54.726562l125.921875-334.867188c1.121094-2.90625 1.6875-5.996094 1.671875-9.113281-.007812-12.359375-8.855469-22.949219-21.015625-25.152344-12.164063-2.203125-24.164063 4.609375-28.503906 16.183594l-36.105469 95.859375c-1.660156 4.414062-6.582031 6.640625-10.996094 4.980469-4.410156-1.660157-6.640625-6.585938-4.976562-10.996094l36.09375-95.828125c8.285156-22.042969 32.855468-33.210938 54.910156-24.957031 16.605469 6.28125 27.609375 22.160156 27.660156 39.910156.023438 5.1875-.921875 10.332031-2.789062 15.171875l-125.894532 334.816406c-2.523437 6.636719-8.875 11.035156-15.976562 11.058594zm0 0"/></svg>