<svg height="484pt" viewBox="0 0 484 484" width="484pt" xmlns="http://www.w3.org/2000/svg"><path d="m422.097656 191.40625c-5.042968 1.734375-7.722656 7.238281-5.992187 12.289062.171875.503907 16.957031 51.082032-8.117188 113.078126-.730469 1.691406-18.773437 42.699218-55.433593 70.289062-.050782.042969-.121094.09375-.175782.136719-.265625.207031-26.835937 20.851562-67.792968 30.488281-.402344.09375-40.972657 9.355469-85.054688-3.550781-.054688-.015625-.125-.035157-.179688-.050781-.234374-.0625-23.816406-6.617188-47.160156-22.351563-9.167968-6.929687-34.214844-27.449219-43.183594-41.539063-.132812-.207031-.273437-.40625-.414062-.601562-.089844-.121094-5.3125-7.15625-10.839844-16.679688l6.308594 3.128907c3.984375 1.972656 8.664062.953125 11.492188-2.191407.578124-.640624 1.074218-1.371093 1.476562-2.179687 2.367188-4.792969.398438-10.597656-4.394531-12.972656l-30.726563-15.222657c-.003906 0-.003906 0-.007812-.003906-.269532-.132812-.546875-.25-.828125-.359375-.09375-.035156-.183594-.0625-.277344-.09375-.183594-.066406-.371094-.128906-.5625-.179687-.117187-.035156-.238281-.066406-.355469-.09375-.164062-.039063-.332031-.074219-.496094-.105469-.128906-.023437-.257812-.046875-.390624-.070313-.15625-.019531-.316407-.035156-.476563-.050781-.132813-.011719-.269531-.03125-.402344-.035156-.175781-.011719-.355469-.007813-.535156-.007813-.203125 0-.40625.007813-.613281.023438-.1875.011719-.378906.027344-.566406.046875-.113282.015625-.222657.039063-.335938.054687-.179688.03125-.359375.058594-.539062.101563-.109376.023437-.214844.054687-.324219.078125-.175781.046875-.351563.09375-.523438.152344-.109375.03125-.214843.070312-.320312.105468-.167969.0625-.335938.125-.503907.199219-.105468.042969-.210937.085938-.3125.136719-.160156.074219-.320312.15625-.476562.242188-.101562.054687-.203125.101562-.300781.160156-.183594.101562-.355469.214844-.527344.332031-.167969.109375-.332031.230469-.492187.351563-.113282.089843-.230469.175781-.34375.269531-.113282.09375-.222657.199219-.335938.300781-.101562.09375-.203125.1875-.300781.285156-.105469.105469-.203125.210938-.300781.320313-.105469.117187-.207032.234375-.308594.351562-.082032.101563-.164063.199219-.242188.304688-.136718.183593-.269531.371093-.394531.566406-.035156.050781-.070313.09375-.101563.144531-.160156.261719-.308593.53125-.449218.804688-.003906.015625-.011719.027344-.019532.039062-.023437.042969-.039062.089844-.058593.128906-.101563.214844-.195313.433594-.28125.65625-.042969.101563-.074219.203126-.113281.304688-.058594.171875-.113282.347656-.164063.523438-.039063.128906-.074219.257812-.105469.386718-.011718.046875-.023437.09375-.035156.140625l-7.609375 33.460938c-1.183594 5.210937 2.082031 10.402343 7.292969 11.59375 5.214844 1.195312 10.402344-2.0625 11.585937-7.273438l1.277344-5.628906c5.628906 9.773437 10.949219 17.117187 12.140625 18.726563 12.921875 20.023437 46.453125 45.394531 47.882812 46.46875.128907.097656.265626.191406.398438.285156 25.636719 17.339844 50.953125 24.53125 53.050781 25.113281 48.890625 14.285156 92.984375 4.226563 94.839844 3.792969 44.445313-10.457032 72.976563-32.28125 75.25-34.058594 9.863281-7.433594 18.480469-15.664062 25.890625-23.917969 23.621094-26.296875 35.039062-52.808593 35.652344-54.257812.019531-.046875.039062-.09375.058594-.140625 27.984374-69.09375 9.304687-124.449219 8.496093-126.773438-1.753906-5.039062-7.253906-7.703125-12.296875-5.972656zm0 0" fill="#ffea92"/><path d="m249.503906 444.359375c-16.21875 0-35.917968-1.792969-56.417968-7.78125-2.753907-.757813-28.179688-8.058594-54.167969-25.640625-.191407-.125-.386719-.269531-.582031-.414062-1.425782-1.074219-35.378907-26.742188-48.757813-47.378907-1.101563-1.5-3.976563-5.496093-7.5-11.050781-1.105469 2.066406-2.734375 3.820312-4.773437 5.101562-3.09375 1.945313-6.765626 2.566407-10.328126 1.75-7.351562-1.679687-11.96875-9.027343-10.296874-16.378906l7.605468-33.460937c.019532-.074219.058594-.230469.082032-.304688.015624-.078125.066406-.265625.121093-.453125.066407-.234375.148438-.484375.234375-.730468.050782-.144532.109375-.308594.175782-.472657.09375-.25.230468-.558593.375-.863281v-.003906c.007812-.019532.019531-.042969.027343-.066406.019531-.050782.035157-.074219.070313-.144532.019531-.039062.039062-.078125.0625-.117187.183594-.363281.378906-.714844.59375-1.054688.035156-.0625.128906-.203125.171875-.261719.148437-.230468.335937-.5.539062-.765624.085938-.113282.191407-.242188.296875-.375.167969-.203126.308594-.367188.449219-.527344.160156-.175782.304687-.324219.453125-.472656.117188-.117188.265625-.257813.417969-.394532.214843-.203125.367187-.335937.519531-.460937.074219-.066407.230469-.1875.390625-.304688.269531-.207031.5-.375.738281-.535156.253906-.171875.503906-.332031.765625-.484375.109375-.0625.238281-.128906.367188-.195312.28125-.152344.507812-.269532.742187-.378907.128906-.058593.296875-.128906.46875-.203125.1875-.078125.425782-.171875.671875-.257812.125-.050782.296875-.109375.476563-.164063.191406-.0625.457031-.136719.726562-.207031l.398438-.101562c.289062-.0625.539062-.105469.785156-.144532.230469-.039062.367188-.0625.503906-.082031.265625-.03125.539063-.050781.8125-.066406.304688-.023438.667969-.03125.960938-.03125.253906 0 .429687 0 .609375.007812.222656.015625.390625.03125.558593.046875.328126.03125.53125.054688.730469.082032.117188.015624.289063.042968.457031.078124.308594.054688.535157.105469.761719.15625l.527344.140626c.261719.070312.542969.160156.824219.261718l.359375.125c.390625.152344.785156.320313 1.164062.507813.007813.003906.015625.007812.023438.011719 0 0 .003906.003906.007812.003906l30.707031 15.210937c6.765626 3.351563 9.546876 11.574219 6.207032 18.328125-.550782 1.113282-1.25 2.152344-2.082032 3.078125-2.84375 3.167969-6.953124 4.726563-11.03125 4.496094 2.457032 3.703125 4.179688 6.03125 4.300782 6.195313.191406.253906.382812.535156.566406.816406 8.617188 13.539062 33.257812 33.71875 42.148438 40.449218 22.625 15.226563 45.660156 21.6875 45.890624 21.75.042969.011719.265626.078126.304688.089844 42.6875 12.496094 82.570312 3.5625 82.964844 3.472656 39.792968-9.359374 65.96875-29.542968 66.226562-29.742187.003906 0 .175782-.132813.175782-.132813 35.859374-26.984374 53.5-67.039062 54.234374-68.730468 24.328126-60.15625 8.164063-109.707032 7.996094-110.199219-2.4375-7.121094 1.367188-14.910156 8.476563-17.359375h.003906c7.109375-2.445312 14.902344 1.339844 17.375 8.4375.832031 2.382812 19.972656 59.125-8.566406 129.59375-.007813.023438-.066407.164062-.078125.1875-.492188 1.164062-12.238282 28.523438-36.363282 55.382812-8.300781 9.242188-17.207031 17.464844-26.460937 24.4375-3.070313 2.40625-31.8125 24.195313-76.742187 34.761719-1.117188.261719-17.222657 3.933594-40.457032 3.933594zm-168.765625-106.214844c1.414063 0 2.742188.753907 3.464844 2.003907 5.554687 9.644531 10.875 16.980468 11.890625 18.351562.046875.066406.09375.132812.136719.203125 12.566406 19.46875 45.535156 44.386719 46.929687 45.4375l.226563.164063c25.371093 17.160156 50.808593 24.285156 51.878906 24.578124 47.917969 14 91.050781 4.175782 92.863281 3.753907 44.003906-10.351563 72.511719-32.378907 73.703125-33.316407 8.902344-6.707031 17.421875-14.578124 25.378907-23.4375 23.242187-25.875 34.476562-52.046874 34.945312-53.148437 27.457031-67.789063 9.25-121.773437 8.460938-124.039063-1.027344-2.949218-4.273438-4.519531-7.21875-3.503906-2.949219 1.015625-4.527344 4.25-3.511719 7.207032.175781.507812 17.503906 52.339843-8.191407 115.875-.804687 1.863281-19.273437 43.789062-56.738281 71.984374-.382812.296876-27.730469 21.507813-69.457031 31.320313-.429688.101563-42.25 9.523437-87.09375-3.601563-.351562-.097656-24.539062-6.804687-48.453125-22.925781-.058594-.039062-.117187-.082031-.175781-.125-.328125-.25-32.976563-25.039062-44.148438-42.585937-.066406-.109375-.15625-.234375-.242187-.355469-.234375-.308594-5.523438-7.460937-11.09375-17.0625-.886719-1.527344-.667969-3.453125.539062-4.742187 1.207031-1.289063 3.117188-1.636719 4.695313-.851563l6.3125 3.128906c2.28125 1.125 5.046875.597657 6.738281-1.285156.34375-.378906.632813-.8125.867187-1.277344 1.382813-2.804687.226563-6.222656-2.585937-7.617187l-30.695313-15.203125c-.019531-.011719-.035156-.019531-.054687-.027344-.148437-.074219-.304687-.140625-.460937-.199219-.019532-.007812-.175782-.058594-.195313-.066406-.09375-.035156-.1875-.0625-.28125-.089844l-.523437-.125c-.019532-.003906-.222657-.039062-.242188-.042968-.003906 0-.28125-.03125-.28125-.03125l-.25-.023438h-.203125c-.191406.003906-.316406.003906-.441406.011719-.128907.011719-.238281.015625-.34375.03125-.027344.003906-.1875.03125-.214844.039062l-.292969.050781c-.007812 0-.1875.046876-.195312.050782l-.261719.070312c-.015625.007813-.210937.070313-.226563.078125l-.289062.113281c-.011719.007813-.191406.082032-.207031.089844l-.269531.136719-2.09375-3.417969 1.898437 3.519532c-.085937.046874-.183594.117187-.28125.179687-.089844.058594-.1875.132813-.28125.207031l-1.074219 1.066406c-.09375.125-.167968.230469-.238281.339844-.023437.039063-.09375.144532-.125.183594-.03125.050781-.109375.199219-.1875.351562-.03125.070313-.0625.140626-.089844.195313-.019531.039063-.074219.167969-.125.292969-.003906.007812-.070312.199218-.074219.207031l-.15625.523437c-.011718.039063-.03125.105469-.042968.160157l-7.589844 33.382812c-.695312 3.054688 1.226562 6.109375 4.285156 6.804688 1.480469.34375 3.003906.085937 4.285156-.722657 1.28125-.804687 2.171876-2.058593 2.507813-3.535156l1.28125-5.625c.367187-1.609375 1.675781-2.824218 3.304687-3.070312.207032-.023438.40625-.039063.605469-.039063zm0 0" fill="#3762cc"/><path d="m416.441406 129.429688c-5.210937-1.214844-10.410156 2.023437-11.617187 7.230468l-1.296875 5.621094c-5.59375-9.792969-10.886719-17.15625-12.066406-18.773438-12.847657-20.070312-46.28125-45.566406-47.707032-46.648437-.128906-.097656-.265625-.195313-.398437-.285156-25.558594-17.429688-50.828125-24.722657-52.949219-25.316407-48.839844-14.476562-92.96875-4.582031-94.828125-4.152343-44.484375 10.28125-73.101563 31.996093-75.382813 33.769531-41.410156 30.957031-61.027343 76.035156-61.839843 77.9375-.019531.046875-.042969.09375-.0625.140625-28.246094 68.984375-9.777344 124.414063-8.980469 126.738281 1.742188 5.058594 7.25 7.753906 12.304688 6.023438 5.054687-1.730469 7.742187-7.234375 6.003906-12.289063-.171875-.5-16.910156-50.75 8.558594-113.027343.757812-1.734376 18.960937-42.640626 55.699218-70.070313.066406-.046875.128906-.097656.191406-.144531.261719-.207032 26.644532-20.683594 67.894532-30.21875.40625-.09375 41.011718-9.199219 85.042968 3.875.054688.015625.121094.035156.179688.050781.234375.066406 23.792969 6.707031 47.074219 22.53125 9.136719 6.957031 34.09375 27.550781 43.027343 41.703125.125.203125.265626.410156.410157.601562.085937.117188 4.824219 6.550782 10.027343 15.433594l-6.21875-3.335937c-4.714843-2.527344-10.578124-.757813-13.101562 3.949219-2.519531 4.710937-.742188 10.578124 3.972656 13.105468l31.582032 16.9375c.042968.023438.082031.039063.121093.058594.140625.074219.285157.140625.433594.207031.105469.046875.207031.097657.316406.140625.132813.054688.265625.105469.402344.152344.125.046875.246094.09375.371094.132812.113281.035157.230469.066407.347656.101563.144531.039063.292969.082031.441406.113281.09375.023438.191407.039063.285157.058594.171874.03125.339843.066406.511718.089844.082032.011718.164063.019531.242188.027344.1875.023437.375.042968.558594.050781.078124.003906.15625.003906.230468.007812.191406.003907.382813.007813.574219.003907.019531 0 .039063.003906.058594 0 .042969 0 .089843-.007813.136719-.011719.242187-.011719.484374-.03125.722656-.058594.097656-.011719.195312-.027344.296875-.042969.203125-.03125.410156-.070312.613281-.117187.101562-.019531.199219-.039063.300781-.066407.242188-.058593.480469-.132812.71875-.210937.046875-.015625.09375-.027344.140625-.042969.277344-.097656.550782-.214844.820313-.339844.074219-.035156.148437-.074218.222656-.113281.199219-.097656.394531-.199219.585937-.3125.074219-.042969.148438-.089843.222657-.132812.195312-.121094.386719-.25.574219-.382813.058593-.042968.113281-.082031.171874-.125.214844-.160156.417969-.332031.621094-.515625.023438-.019531.046875-.039062.070313-.058593.230469-.210938.449219-.425782.660156-.660157.261719-.292969.503906-.601562.734375-.929687.089844-.128906.164062-.273438.25-.40625.117188-.191406.242188-.371094.347656-.566406.003906-.011719.007813-.023438.015625-.039063.042969-.078125.074219-.164063.117188-.246094.125-.261719.246093-.523437.347656-.789062.042969-.105469.078125-.21875.117187-.328125.09375-.265625.175782-.535156.242188-.808594.015625-.058594.039062-.113281.050781-.175781l7.738281-33.429688c1.199219-5.203125-2.046874-10.40625-7.253906-11.621093zm0 0" fill="#ffea92"/><path d="m58.492188 296.238281c-5.6875 0-11.015626-3.574219-12.964844-9.246093-.816406-2.382813-19.730469-59.234376 9.0625-129.550782.019531-.050781.105468-.242187.125-.292968.789062-1.847657 20.734375-47.816407 63.085937-79.476563 3.074219-2.390625 31.871094-24.0625 76.875-34.464844 1.898438-.4375 47.078125-10.535156 96.867188 4.21875 2.746093.765625 28.128906 8.15625 54.066406 25.84375.175781.121094.371094.261719.566406.410157 1.429688 1.082031 35.253907 26.828124 48.585938 47.566406 1.09375 1.503906 3.953125 5.507812 7.457031 11.085937 1.117188-2.0625 2.75-3.8125 4.792969-5.089843 3.101562-1.933594 6.777343-2.539063 10.332031-1.707032 7.347656 1.710938 11.941406 9.078125 10.242188 16.421875l-7.738282 33.429688c-.023437.09375-.0625.242187-.101562.359375-.089844.351562-.191406.695312-.3125 1.039062l-.15625.441406c-.15625.398438-.320313.773438-.503906 1.136719-.027344.058594-.054688.121094-.085938.1875-.015625.039063-.035156.074219-.050781.109375-.1875.351563-.324219.5625-.457031.777344l-3.484376-1.972656 3.375 2.148437c-.105468.179688-.214843.355469-.335937.527344-.3125.457031-.664063.894531-1.035156 1.308594-.292969.324219-.601563.628906-.917969.921875-.046875.042968-.128906.117187-.175781.15625-.226563.203125-.519531.445312-.820313.675781-.027344.019531-.148437.105469-.175781.125-.355469.253906-.625.433594-.894531.601563l-.273438.167968c-.292968.171875-.574218.316406-.859375.457032l-.308593.152343c-.394532.179688-.78125.339844-1.175782.480469-.070312.023438-.222656.074219-.296875.09375-.222656.078125-.566406.183594-.910156.269531l-.371094.082031c-.328125.074219-.621093.128907-.917969.175782l-.425781.058594c-.320312.039062-.65625.066406-.996093.082031-.074219.003906-.316407.015625-.398438.015625-.230469-.003906-.457031 0-.6875-.007813l-.3125-.007812c-.300781-.019531-.558594-.042969-.816406-.074219l-.359375-.042969c-.1875-.027343-.410157-.066406-.636719-.109375-.203125-.039062-.339844-.066406-.472656-.097656-.175782-.039062-.371094-.089844-.5625-.144531l-.558594-.164063c-.144531-.042968-.308594-.101562-.46875-.160156-.226562-.082031-.417969-.152344-.601562-.226562l-.472657-.214844c-.1875-.082032-.390625-.179688-.601562-.289063-.097657-.042969-.105469-.046875-.199219-.101562l-31.542969-16.914063c-6.648437-3.566406-9.164062-11.875-5.609375-18.519531 1.726563-3.21875 4.601563-5.574219 8.101563-6.628906 1.542969-.464844 3.132812-.660157 4.695312-.570313-1.855469-2.753906-3.097656-4.453125-3.195312-4.585937-.191407-.257813-.390625-.550781-.578125-.84375-8.566406-13.574219-33.121094-33.832031-41.976563-40.585938-22.621093-15.351562-45.574219-21.863281-45.804687-21.925781-.023438-.007812-.230469-.066406-.25-.070312-42.769532-12.699219-82.613282-3.902344-83.007813-3.8125-40.144531 9.28125-66.066406 29.265624-66.320312 29.46875l-.308594.230468c-35.957031 26.847656-53.648437 66.753906-54.386719 68.441406-24.691406 60.378907-8.601562 109.640626-8.4375 110.132813 1.1875 3.449219.957032 7.160156-.648437 10.445313-1.605469 3.28125-4.390625 5.734374-7.847657 6.921874-1.464843.496094-2.957031.730469-4.421874.730469zm175.765624-248.832031c-21.746093 0-36.730468 3.355469-37.785156 3.597656-44.078125 10.1875-72.628906 32.101563-73.824218 33.03125-40.707032 30.429688-59.824219 74.488282-60.617188 76.347656-27.707031 67.652344-9.714844 121.742188-8.9375 124.011719 1.019531 2.964844 4.261719 4.546875 7.222656 3.539063 1.433594-.488282 2.585938-1.507813 3.25-2.867188.667969-1.363281.761719-2.90625.269532-4.339844-.175782-.515624-17.386719-52.195312 8.636718-115.839843.804688-1.851563 19.335938-43.632813 57.011719-71.765625.367187-.285156 27.234375-21.265625 69.578125-31.054688.414062-.09375 42.0625-9.425781 87.078125 3.941406.332031.089844 24.273437 6.730469 48.367187 23.105469.058594.042969.117188.082031.175782.125.324218.25 32.859375 25.128907 43.984375 42.753907.074219.121093.152343.234374.230469.34375.539062.722656 5.160156 7.074218 10.277343 15.800781.90625 1.546875.675781 3.507812-.570312 4.796875-1.242188 1.289062-3.191407 1.601562-4.769531.75l-6.222657-3.335938c-1.339843-.71875-2.875-.875-4.324219-.433594-1.453124.4375-2.644531 1.414063-3.359374 2.746094-1.476563 2.761719-.425782 6.210938 2.335937 7.695313l31.503906 16.890625c.035157.019531.074219.035156.097657.046875l.941406.398437c.011718.003906.21875.0625.226562.066406l.230469.058594c.015625.003906.234375.042969.25.046875l.90625.09375h.242187.089844c.210938-.015625.34375-.027343.46875-.042969l.6875 3.945313-.460937-3.976563c.074219-.011718.191406-.035156.308593-.0625.332032-.074218.46875-.121093.609376-.164062.03125-.011719.082031-.027344.125-.042969.195312-.074219.320312-.128906.445312-.183593.238281-.125.351562-.183594.457031-.246094.269531-.164063.382813-.242188.496094-.324219.199219-.148437.320313-.25.441406-.355469.160157-.144531.292969-.277344.417969-.414062.152344-.167969.292969-.351563.425781-.542969.019531-.03125.121094-.207031.136719-.234375l.136719-.214844.011719.007813c.023437-.042969.046874-.089844.070312-.132813.027344-.0625.066406-.15625.097656-.214844.054688-.109374.128906-.265624.1875-.417968.003906-.015625.070313-.207032.074219-.21875.042969-.128906.089844-.285156.128906-.441406.015625-.058594.039063-.144532.066407-.226563l7.707031-33.304687c.703125-3.050782-1.207031-6.113282-4.261719-6.824219-1.480469-.34375-3-.09375-4.289062.710937-1.285157.796875-2.179688 2.050782-2.523438 3.527344l-1.296875 5.625c-.375 1.601562-1.691406 2.816406-3.316406 3.050781-1.609375.25-3.238281-.539062-4.054688-1.972656-5.53125-9.691406-10.816406-17.023437-11.820312-18.394531-.046875-.066406-.097657-.132813-.140625-.207032-12.523438-19.566406-46.410156-45.355468-46.753906-45.617187l-.210938-.152344c-25.328125-17.273437-50.726562-24.484375-51.796875-24.78125-20.085937-5.953125-39.347656-7.707031-55.070313-7.707031zm181.671876 127.164062h.019531zm0 0" fill="#3762cc"/><path d="m294 56c0 28.71875-23.28125 52-52 52s-52-23.28125-52-52 23.28125-52 52-52 52 23.28125 52 52zm0 0" fill="#a4c9ff"/><path d="m294 428c0 28.71875-23.28125 52-52 52s-52-23.28125-52-52 23.28125-52 52-52 52 23.28125 52 52zm0 0" fill="#4671c6"/><path d="m480 242c0 28.71875-23.28125 52-52 52s-52-23.28125-52-52 23.28125-52 52-52 52 23.28125 52 52zm0 0" fill="#f9a7a7"/><path d="m108 242c0 28.71875-23.28125 52-52 52s-52-23.28125-52-52 23.28125-52 52-52 52 23.28125 52 52zm0 0" fill="#b9befc"/><path d="m451.578125 276.761719c-.003906-.078125-.007813-.15625-.015625-.234375-.007812-.152344-.019531-.304688-.03125-.453125-.007812-.09375-.019531-.1875-.03125-.28125-.015625-.132813-.03125-.265625-.050781-.398438-.011719-.097656-.027344-.199219-.046875-.296875-.019532-.125-.039063-.246094-.0625-.367187-.019532-.105469-.039063-.207031-.0625-.3125-.023438-.109375-.046875-.21875-.074219-.328125-.023437-.113282-.050781-.226563-.078125-.335938-.023438-.089844-.050781-.179687-.074219-.269531-.136719-.480469-.292969-.957031-.476562-1.421875-.015625-.039062-.027344-.078125-.042969-.117188-.0625-.152343-.125-.304687-.191406-.453124-.019532-.042969-.035156-.085938-.054688-.128907-.070312-.152343-.144531-.304687-.21875-.453125-.015625-.035156-.03125-.066406-.046875-.101562-.082031-.160156-.164062-.316406-.25-.46875-.007812-.015625-.015625-.03125-.023437-.042969-2.4375-4.410156-7.046875-7.449219-12.386719-7.667969l-.023437.027344c0 .007812-.003907.019531-.007813.03125-.007813.007812-.019531.011719-.03125.019531l-.003906.003907h-.003907c-5.824218 3.832031-13.375 3.828124-19.191406-.023438l-.003906-.003906c0-.003906-.003906-.003906-.003906-.007813h-.015625c-4.207031.367188-7.910157 2.496094-10.371094 5.636719h-.003906c-.007813.011719-.015625.027344-.027344.039062-.078125.101563-.15625.207032-.234375.3125-.050781.066407-.097656.128907-.144531.195313-.074219.105469-.148438.207031-.21875.316406-.046875.066407-.09375.140625-.140625.210938-.066406.105469-.132813.210937-.199219.316406-.046875.078125-.09375.152344-.136719.230469-.0625.105468-.125.207031-.1875.316406-.042968.078125-.085937.160156-.128906.242188-.058594.109374-.117188.214843-.167969.320312-.046875.085938-.085937.175781-.128906.261719-.046875.109375-.101563.210937-.148437.316406-.046876.105469-.089844.210937-.132813.316406-.070313.167969-.140625.339844-.207031.507813-.042969.117187-.089844.234375-.128906.351562-.03125.09375-.0625.1875-.089844.28125-.039063.113282-.074219.226563-.113282.34375-.027343.097656-.050781.191406-.078124.289063-.035157.117187-.066407.230469-.097657.347656-.023437.097656-.042969.195313-.066406.292969-.03125.117187-.054687.238281-.078125.359375-.023438.09375-.039062.191406-.058594.289062-.019531.125-.042968.25-.0625.375-.015625.09375-.03125.191407-.042968.285157-.019532.132812-.035157.265624-.046876.398437-.011718.09375-.019531.179687-.027343.269531-.015625.148438-.027344.300782-.035157.453125-.003906.074219-.011718.148438-.011718.226563-.011719.230468-.015625.457031-.015625.6875v2.972656h47.046875v-2.972656c.007812-.238282 0-.472656-.011719-.703125zm0 0" fill="#b9befc"/><path d="m418.230469 263.0625-.109375-.285156c.027344.097656.066406.191406.109375.285156zm0 0" fill="#f9cfcf"/><path d="m437.300781 262.808594-.066406.175781c.027344-.058594.050781-.117187.066406-.175781zm0 0" fill="#f9cfcf"/><path d="m427.847656 258.523438c-3.550781 0-6.890625-.882813-9.820312-2.433594v6.085937c0 .175781.027344.34375.070312.511719h.003906c5.832032 3.859375 13.40625 3.859375 19.234376 0 .042968-.167969.074218-.34375.074218-.523438v-5.9375c-2.871094 1.464844-6.121094 2.296876-9.5625 2.296876zm0 0" fill="#f9cfcf"/><path d="m409.59375 245.335938h-1.484375c-3.230469 0-5.847656-2.621094-5.847656-5.851563v-16.210937c0-3.230469 2.617187-5.847657 5.847656-5.847657h1.484375c3.230469 0 5.847656 2.617188 5.847656 5.847657v16.210937c0 3.234375-2.621094 5.851563-5.847656 5.851563zm0 0" fill="#4671c6"/><path d="m447.222656 245.507812h-1.484375c-3.230469 0-5.847656-2.621093-5.847656-5.851562v-16.210938c0-3.234374 2.621094-5.851562 5.847656-5.851562h1.484375c3.230469 0 5.847656 2.621094 5.847656 5.851562v16.210938c0 3.230469-2.617187 5.851562-5.847656 5.851562zm0 0" fill="#4671c6"/><path d="m448.878906 232.734375c-.042968 0-.089844.003906-.132812.003906v-1.984375c0-11.613281-9.414063-21.027344-21.027344-21.027344s-21.027344 9.414063-21.027344 21.027344v1.984375c-.046875 0-.089844-.003906-.132812-.003906-3.542969 0-6.417969 2.871094-6.417969 6.414063 0 3.542968 2.875 6.417968 6.417969 6.417968.230468 0 .460937-.015625.6875-.039062 2.167968 9.300781 10.507812 16.234375 20.472656 16.234375s18.300781-6.933594 20.472656-16.234375c.222656.023437.453125.039062.6875.039062 3.542969 0 6.414063-2.871094 6.414063-6.417968 0-3.542969-2.871094-6.414063-6.414063-6.414063zm0 0" fill="#f9cfcf"/><path d="m428.074219 251.804688c-3.171875 0-5.75-2.339844-5.75-5.21875 0-.550782.449219-1 1-1 .554687 0 1 .449218 1 1 0 1.777343 1.683593 3.21875 3.75 3.21875 2.066406 0 3.746093-1.445313 3.746093-3.21875 0-.550782.449219-1 1-1 .550782 0 1 .449218 1 1 0 2.878906-2.578124 5.21875-5.746093 5.21875zm0 0" fill="#3762cc"/><path d="m441.878906 227.480469h11.105469c.820313 0 1.488281-.667969 1.488281-1.488281v-8.496094c0-9.445313-7.660156-17.101563-17.105468-17.101563h-.527344c-2.464844 0-4.464844 1.996094-4.464844 4.460938v13.121093c0 5.246094 4.253906 9.503907 9.503906 9.503907zm0 0" fill="#4671c6"/><path d="m419.046875 227.480469h-19.351563c-.824218 0-1.492187-.667969-1.492187-1.496094v-7.023437c0-10.253907 8.3125-18.570313 18.566406-18.570313h11.191407c2.460937 0 4.453124 1.996094 4.453124 4.457031v9.261719c.003907 7.382813-5.980468 13.371094-13.367187 13.371094zm0 0" fill="#4671c6"/><path d="m416.617188 239.992188c-1.179688 0-2.140626-.957032-2.140626-2.136719v-3.566407c0-1.179687.960938-2.136718 2.140626-2.136718 1.179687 0 2.136718.957031 2.136718 2.136718v3.566407c.003906 1.179687-.957031 2.136719-2.136718 2.136719zm0 0" fill="#3762cc"/><path d="m438.816406 239.992188c-1.179687 0-2.136718-.957032-2.136718-2.136719v-3.566407c0-1.179687.957031-2.136718 2.136718-2.136718 1.179688 0 2.140625.957031 2.140625 2.136718v3.566407c0 1.179687-.957031 2.136719-2.140625 2.136719zm0 0" fill="#3762cc"/><path d="m266.089844 464.894531c-.003906-.078125-.011719-.15625-.015625-.234375-.011719-.152344-.019531-.304687-.035157-.453125-.007812-.09375-.019531-.1875-.027343-.28125-.015625-.132812-.03125-.265625-.050781-.398437-.015626-.097656-.03125-.199219-.046876-.300782-.019531-.121093-.039062-.242187-.0625-.363281-.023437-.105469-.042968-.210937-.0625-.3125-.023437-.109375-.050781-.222656-.074218-.332031-.027344-.109375-.054688-.222656-.082032-.332031-.023437-.089844-.046874-.179688-.074218-.269531-.132813-.484376-.289063-.957032-.472656-1.421876-.015626-.039062-.03125-.078124-.042969-.117187-.0625-.152344-.128907-.304687-.191407-.453125-.019531-.042969-.039062-.085938-.058593-.128906-.070313-.152344-.140625-.304688-.214844-.453125-.015625-.035157-.035156-.070313-.050781-.101563-.078125-.160156-.160156-.316406-.246094-.472656-.007812-.011719-.015625-.027344-.023438-.039062-2.4375-4.410157-7.046874-7.453126-12.390624-7.667969l-.019532.027343c-.003906.007813-.003906.019532-.007812.027344-.011719.007813-.023438.015625-.035156.023438v.003906h-.003907c-5.828125 3.832031-13.375 3.828125-19.195312-.027344h-.003907c0-.003906 0-.007812 0-.011718h-.015624c-4.207032.371093-7.910157 2.5-10.375 5.644531-.011719.011719-.019532.023437-.027344.035156-.082032.105469-.160156.207031-.238282.3125-.046874.066406-.09375.132813-.144531.195313-.074219.105468-.144531.210937-.214843.316406-.046876.070312-.097657.140625-.140626.214844-.070312.101562-.136718.207031-.203124.316406-.042969.074218-.089844.148437-.136719.226562-.0625.105469-.125.210938-.183594.316406-.042969.082032-.085937.164063-.132813.246094-.054687.105469-.113281.210938-.167968.320313-.042969.085937-.082032.171875-.125.261719-.050782.105468-.101563.210937-.148438.316406-.046875.101562-.089844.207031-.136718.316406-.070313.167969-.136719.335938-.203126.507812-.042968.113282-.089843.230469-.128906.347657-.03125.09375-.0625.1875-.09375.28125-.039062.117187-.074218.230469-.109375.34375-.027343.097656-.054687.195312-.082031.289062-.03125.117188-.0625.234375-.09375.351563-.023438.09375-.046875.191406-.070312.289062-.027344.121094-.054688.238282-.078126.359375-.019531.097657-.039062.191407-.054687.289063-.023437.125-.042969.25-.066406.378906-.011719.09375-.027344.1875-.039063.28125-.019531.132812-.035156.265625-.050781.402344-.007813.089844-.019531.175781-.027344.265625-.011719.152343-.023437.300781-.03125.453125-.003906.078125-.011719.152344-.015625.226562-.007812.230469-.015625.457032-.015625.6875v2.972656h47.046875v-2.972656c.007813-.238281.003906-.472656-.007812-.703125zm0 0" fill="#a4c9ff"/><path d="m232.738281 451.195312-.105469-.289062c.027344.101562.0625.195312.105469.289062zm0 0" fill="#f9cfcf"/><path d="m251.8125 450.941406-.066406.171875c.023437-.058593.046875-.113281.066406-.171875zm0 0" fill="#f9cfcf"/><path d="m242.355469 446.652344c-3.546875 0-6.886719-.882813-9.816407-2.433594v6.085938c0 .175781.027344.34375.070313.511718h.003906c5.828125 3.863282 13.402344 3.863282 19.234375 0 .042969-.167968.074219-.34375.074219-.523437v-5.9375c-2.871094 1.464843-6.121094 2.296875-9.566406 2.296875zm0 0" fill="#f9cfcf"/><path d="m224.101562 433.46875h-1.480468c-3.234375 0-5.851563-2.621094-5.851563-5.851562v-16.210938c0-3.230469 2.621094-5.851562 5.851563-5.851562h1.480468c3.234376 0 5.851563 2.621093 5.851563 5.851562v16.210938c0 3.230468-2.621094 5.851562-5.851563 5.851562zm0 0" fill="#eaa97d"/><path d="m261.730469 433.636719h-1.480469c-3.230469 0-5.851562-2.621094-5.851562-5.851563v-16.210937c0-3.230469 2.621093-5.851563 5.851562-5.851563h1.480469c3.234375 0 5.851562 2.621094 5.851562 5.851563v16.210937c0 3.234375-2.617187 5.851563-5.851562 5.851563zm0 0" fill="#eaa97d"/><path d="m263.386719 420.867188c-.042969 0-.085938.003906-.128907.003906v-1.984375c0-11.613281-9.414062-21.027344-21.03125-21.027344-11.613281 0-21.027343 9.414063-21.027343 21.027344v1.984375c-.042969 0-.085938-.003906-.132813-.003906-3.539062 0-6.414062 2.871093-6.414062 6.414062s2.871094 6.417969 6.414062 6.417969c.234375 0 .464844-.015625.691406-.039063 2.167969 9.300782 10.507813 16.234375 20.46875 16.234375 9.964844 0 18.304688-6.933593 20.472657-16.234375.226562.023438.457031.039063.6875.039063 3.542969 0 6.417969-2.875 6.417969-6.417969s-2.871094-6.414062-6.417969-6.414062zm0 0" fill="#f9cfcf"/><path d="m242.585938 439.9375c-3.171876 0-5.75-2.339844-5.75-5.21875 0-.550781.449218-1 1-1 .550781 0 1 .449219 1 1 0 1.777344 1.683593 3.21875 3.75 3.21875 2.0625 0 3.746093-1.445312 3.746093-3.21875 0-.550781.449219-1 1-1s1 .449219 1 1c0 2.878906-2.578125 5.21875-5.746093 5.21875zm0 0" fill="#3762cc"/><path d="m256.386719 415.609375h11.105469c.824218 0 1.488281-.664063 1.488281-1.488281v-8.492188c0-9.445312-7.65625-17.105468-17.101563-17.105468h-.53125c-2.464844 0-4.460937 2-4.460937 4.460937v13.125c-.003907 5.246094 4.253906 9.5 9.5 9.5zm0 0" fill="#eaa97d"/><path d="m241.515625 415.609375h-27.109375c-.933594 0-1.691406-.757813-1.691406-1.691406v-7.394531c0-9.941407 8.058594-18 18-18h20.902344c2.789062 0 5.046874 2.261718 5.046874 5.050781v6.882812c0 8.367188-6.78125 15.152344-15.148437 15.152344zm0 0" fill="#eaa97d"/><path d="m231.125 428.125c-1.179688 0-2.136719-.960938-2.136719-2.140625v-3.5625c0-1.179687.957031-2.136719 2.136719-2.136719s2.140625.957032 2.140625 2.136719v3.5625c0 1.179687-.957031 2.140625-2.140625 2.140625zm0 0" fill="#3762cc"/><path d="m253.328125 428.125c-1.179687 0-2.136719-.960938-2.136719-2.140625v-3.5625c0-1.179687.957032-2.136719 2.136719-2.136719s2.136719.957032 2.136719 2.136719v3.5625c0 1.179687-.953125 2.140625-2.136719 2.140625zm0 0" fill="#3762cc"/><path d="m265.578125 92.351562c-.003906-.078124-.007813-.15625-.015625-.234374-.007812-.152344-.019531-.304688-.03125-.457032-.007812-.09375-.019531-.183594-.03125-.277344-.015625-.132812-.03125-.265624-.050781-.398437-.011719-.101563-.027344-.199219-.046875-.300781-.019532-.121094-.039063-.242188-.0625-.363282-.019532-.105468-.039063-.210937-.0625-.3125-.023438-.113281-.046875-.222656-.074219-.332031-.023437-.113281-.050781-.222656-.078125-.332031-.023438-.089844-.050781-.179688-.074219-.269531-.136719-.484375-.292969-.957031-.476562-1.421875-.015625-.039063-.027344-.078125-.042969-.117188-.0625-.15625-.125-.304687-.191406-.457031-.019532-.039063-.035156-.082031-.054688-.125-.070312-.15625-.144531-.304687-.21875-.457031-.015625-.03125-.03125-.066406-.046875-.097656-.082031-.160157-.164062-.316407-.25-.472657-.007812-.015625-.015625-.027343-.023437-.042969-2.4375-4.410156-7.046875-7.449218-12.386719-7.667968l-.023437.027344c0 .011718-.003907.023437-.007813.03125-.007813.007812-.019531.015624-.03125.019531l-.003906.003906h-.003907c-5.824218 3.835937-13.375 3.828125-19.191406-.023437h-.003906c0-.003907-.003906-.007813-.003906-.011719h-.015625c-4.207031.371093-7.910157 2.5-10.371094 5.640625h-.003906c-.007813.011718-.015625.023437-.027344.035156-.078125.105469-.15625.207031-.234375.316406-.050781.0625-.097656.128906-.144531.195313-.074219.101562-.148438.207031-.21875.3125-.046875.070312-.09375.140625-.140625.214843-.066406.101563-.132813.210938-.199219.316407-.046875.074219-.09375.152343-.136719.226562-.0625.105469-.125.210938-.1875.320313-.042968.078125-.085937.160156-.128906.242187-.058594.105469-.117188.210938-.167969.320313-.046875.085937-.085937.171875-.128906.261718-.046875.105469-.101563.210938-.148437.316407-.046876.105469-.089844.210937-.132813.316406-.070313.167969-.140625.335937-.207031.507813-.042969.117187-.089844.230468-.128906.347656-.03125.09375-.0625.191406-.089844.285156-.039063.113281-.074219.226562-.113282.34375-.027343.09375-.050781.191406-.078124.285156-.035157.117188-.066407.234375-.097657.351563-.023437.097656-.042969.195312-.066406.289062-.03125.121094-.054687.242188-.078125.359375-.023438.097656-.039062.195313-.058594.289063-.019531.125-.042968.253906-.0625.378906-.015625.09375-.03125.1875-.042968.28125-.019532.132813-.035157.269531-.046876.402344-.011718.089843-.019531.179687-.027343.269531-.015625.148438-.027344.296875-.035157.449219-.003906.078125-.011718.152343-.011718.230469-.011719.226562-.015625.453124-.015625.683593v2.972657h47.046875v-2.972657c.007812-.238281 0-.46875-.011719-.699219zm0 0" fill="#f9a7a7"/><path d="m232.230469 78.652344-.109375-.285156c.027344.097656.066406.191406.109375.285156zm0 0" fill="#f9cfcf"/><path d="m251.300781 78.398438-.066406.171874c.027344-.054687.050781-.113281.066406-.171874zm0 0" fill="#f9cfcf"/><path d="m241.847656 74.109375c-3.550781 0-6.890625-.882813-9.820312-2.433594v6.085938c0 .175781.027344.34375.070312.511719h.003906c5.832032 3.859374 13.40625 3.859374 19.234376 0 .042968-.167969.074218-.34375.074218-.523438v-5.9375c-2.871094 1.46875-6.121094 2.296875-9.5625 2.296875zm0 0" fill="#f9cfcf"/><path d="m223.59375 60.925781h-1.484375c-3.230469 0-5.847656-2.621093-5.847656-5.851562v-16.210938c0-3.234375 2.617187-5.851562 5.847656-5.851562h1.484375c3.230469 0 5.847656 2.621093 5.847656 5.851562v16.210938c0 3.230469-2.621094 5.851562-5.847656 5.851562zm0 0" fill="#4671c6"/><path d="m261.222656 61.09375h-1.484375c-3.230469 0-5.847656-2.621094-5.847656-5.851562v-16.210938c0-3.230469 2.621094-5.847656 5.847656-5.847656h1.484375c3.230469 0 5.847656 2.617187 5.847656 5.847656v16.210938c0 3.230468-2.617187 5.851562-5.847656 5.851562zm0 0" fill="#4671c6"/><path d="m262.878906 48.320312c-.042968 0-.089844.007813-.132812.007813v-1.984375c0-11.617188-9.414063-21.03125-21.027344-21.03125s-21.027344 9.414062-21.027344 21.03125v1.984375c-.046875 0-.089844-.007813-.132812-.007813-3.542969 0-6.417969 2.875-6.417969 6.417969s2.875 6.414063 6.417969 6.414063c.230468 0 .460937-.011719.6875-.035156 2.167968 9.300781 10.507812 16.234374 20.472656 16.234374s18.300781-6.933593 20.472656-16.234374c.222656.023437.453125.035156.6875.035156 3.542969 0 6.414063-2.871094 6.414063-6.414063s-2.871094-6.417969-6.414063-6.417969zm0 0" fill="#f9cfcf"/><path d="m242.074219 67.394531c-3.171875 0-5.75-2.34375-5.75-5.21875 0-.554687.449219-1 1-1 .554687 0 1 .445313 1 1 0 1.773438 1.683593 3.21875 3.75 3.21875 2.066406 0 3.746093-1.445312 3.746093-3.21875 0-.554687.449219-1 1-1 .550782 0 1 .445313 1 1 0 2.875-2.578124 5.21875-5.746093 5.21875zm0 0" fill="#3762cc"/><path d="m254.375 43.066406h12.609375c.820313 0 1.488281-.667968 1.488281-1.488281v-13.601563c0-6.625-5.371094-12-12-12h-5.105468c-2.757813 0-4.992188 2.238282-4.992188 4.992188v14.09375c0 4.421875 3.582031 8.003906 8 8.003906zm0 0" fill="#4671c6"/><path d="m238.417969 15.980469h-26.214844v19.085937c0 4.417969 3.582031 8 8 8h18.214844c4.417969 0 8-3.582031 8-8v-11.085937c0-4.417969-3.582031-8-8-8zm0 0" fill="#4671c6"/><path d="m230.617188 55.578125c-1.183594 0-2.140626-.957031-2.140626-2.136719v-3.5625c0-1.183594.960938-2.140625 2.140626-2.140625 1.179687 0 2.136718.960938 2.136718 2.140625v3.5625c.003906 1.179688-.957031 2.136719-2.136718 2.136719zm0 0" fill="#3762cc"/><path d="m252.816406 55.578125c-1.179687 0-2.136718-.957031-2.136718-2.136719v-3.5625c0-1.183594.957031-2.140625 2.136718-2.140625 1.179688 0 2.140625.960938 2.140625 2.140625v3.5625c0 1.179688-.957031 2.136719-2.140625 2.136719zm0 0" fill="#3762cc"/><path d="m78.734375 277.183594c-.003906-.078125-.011719-.15625-.015625-.234375-.011719-.152344-.019531-.304688-.035156-.453125-.007813-.09375-.019532-.1875-.03125-.28125-.011719-.128906-.027344-.265625-.046875-.398438-.015625-.097656-.03125-.199218-.046875-.296875-.019532-.125-.039063-.246093-.066406-.367187-.019532-.105469-.039063-.207032-.058594-.3125-.027344-.109375-.050782-.21875-.074219-.328125-.027344-.113281-.054687-.226563-.082031-.335938-.023438-.089843-.050782-.179687-.074219-.269531-.132813-.480469-.292969-.957031-.472656-1.421875-.015625-.039063-.03125-.078125-.042969-.117187-.0625-.152344-.128906-.304688-.195312-.453126-.015626-.042968-.035157-.085937-.054688-.128906-.070312-.152344-.140625-.304687-.214844-.453125-.015625-.035156-.035156-.066406-.050781-.101562-.078125-.160157-.160156-.316407-.246094-.46875-.011719-.015625-.019531-.03125-.027343-.042969-2.433594-4.410156-7.042969-7.449219-12.386719-7.667969l-.023438.027344c0 .011719-.003906.019531-.003906.03125-.011719.007813-.023437.011719-.035156.019531v.003906h-.003907c-5.828124 3.832032-13.378906 3.828126-19.195312-.023437l-.003906-.003906c0-.003907-.003906-.003907-.003906-.007813h-.011719c-4.207031.367188-7.910157 2.496094-10.375 5.636719h.003906c-.007813.011719-.015625.027344-.027344.039063-.078125.101562-.15625.207031-.234375.3125-.050781.066406-.097656.128906-.144531.195312-.074219.105469-.148437.207031-.21875.316406-.046875.066406-.09375.140625-.140625.210938-.066406.105468-.132812.210937-.199219.316406-.046875.078125-.09375.152344-.136719.230469-.0625.105469-.125.207031-.1875.316406-.042968.082031-.085937.164063-.128906.242187-.058594.109376-.117187.214844-.167968.320313-.046876.085937-.085938.175781-.128907.261719-.046875.109375-.101562.210937-.148437.316406s-.089844.210938-.132813.316406c-.070312.167969-.140625.339844-.207031.507813-.042969.117187-.089844.234375-.128906.351562-.03125.09375-.0625.1875-.089844.28125-.039062.113281-.074219.226563-.113281.34375-.027344.097657-.050781.191407-.082031.289063-.03125.117187-.0625.230468-.09375.351562-.023438.09375-.042969.191406-.070313.289063-.027344.117187-.050781.238281-.074219.359375-.023437.09375-.039062.191406-.058594.289062-.019531.125-.042968.25-.0625.375-.015624.09375-.03125.191406-.042968.285156-.019532.132813-.035156.265626-.046875.402344-.011719.089844-.019531.175782-.027344.265625-.015625.152344-.027344.300781-.035156.453125-.003907.074219-.011719.148438-.011719.226563-.011719.230469-.015625.457031-.015625.6875v2.972656h47.042969v-2.972656c.007812-.242188 0-.472657-.011719-.703125zm0 0" fill="#e0ebfc"/><path d="m45.382812 263.484375-.105468-.285156c.027344.097656.066406.191406.105468.285156zm0 0" fill="#f9cfcf"/><path d="m64.457031 263.230469-.066406.171875c.023437-.054688.050781-.113282.066406-.171875zm0 0" fill="#f9cfcf"/><path d="m55 258.941406c-3.546875 0-6.886719-.882812-9.816406-2.433594v6.089844c0 .171875.027344.34375.070312.507813l.003906.003906c5.828126 3.859375 13.402344 3.859375 19.230469 0 .046875-.171875.074219-.347656.074219-.523437v-5.941407c-2.867188 1.46875-6.117188 2.296875-9.5625 2.296875zm0 0" fill="#f9cfcf"/><path d="m36.746094 245.757812h-1.480469c-3.234375 0-5.851563-2.621093-5.851563-5.851562v-16.210938c0-3.234374 2.621094-5.851562 5.851563-5.851562h1.480469c3.230468 0 5.851562 2.621094 5.851562 5.851562v16.210938c0 3.230469-2.621094 5.851562-5.851562 5.851562zm0 0" fill="#4671c6"/><path d="m74.378906 245.925781h-1.484375c-3.230469 0-5.847656-2.621093-5.847656-5.851562v-16.210938c0-3.230469 2.617187-5.847656 5.847656-5.847656h1.484375c3.230469 0 5.847656 2.617187 5.847656 5.847656v16.210938c0 3.230469-2.617187 5.851562-5.847656 5.851562zm0 0" fill="#4671c6"/><path d="m76.035156 233.152344c-.046875 0-.089844.007812-.132812.007812v-1.984375c0-11.617187-9.414063-21.03125-21.027344-21.03125s-21.027344 9.414063-21.027344 21.03125v1.984375c-.046875 0-.089844-.007812-.132812-.007812-3.542969 0-6.417969 2.875-6.417969 6.417968 0 3.542969 2.875 6.414063 6.417969 6.414063.230468 0 .460937-.011719.6875-.035156 2.167968 9.300781 10.507812 16.234375 20.472656 16.234375s18.300781-6.933594 20.472656-16.234375c.222656.023437.453125.035156.6875.035156 3.539063 0 6.414063-2.871094 6.414063-6.414063 0-3.542968-2.875-6.417968-6.414063-6.417968zm0 0" fill="#f9cfcf"/><path d="m55.230469 252.226562c-3.171875 0-5.75-2.34375-5.75-5.21875 0-.550781.449219-1 1-1 .554687 0 1 .449219 1 1 0 1.777344 1.683593 3.21875 3.75 3.21875 2.066406 0 3.746093-1.445312 3.746093-3.21875 0-.550781.449219-1 1-1 .550782 0 1 .449219 1 1 0 2.875-2.578124 5.21875-5.746093 5.21875zm0 0" fill="#3762cc"/><path d="m69.035156 227.898438h11.105469c.820313 0 1.488281-.664063 1.488281-1.488282v-8.492187c0-9.445313-7.660156-17.105469-17.105468-17.105469h-.53125c-2.460938 0-4.460938 2-4.460938 4.464844v13.121094c0 5.246093 4.253906 9.5 9.503906 9.5zm0 0" fill="#4671c6"/><path d="m46.203125 227.898438h-19.351563c-.824218 0-1.492187-.667969-1.492187-1.492188v-7.027344c0-10.253906 8.3125-18.566406 18.566406-18.566406h11.191407c2.460937 0 4.453124 1.996094 4.453124 4.457031v9.261719c.003907 7.382812-5.980468 13.367188-13.367187 13.367188zm0 0" fill="#4671c6"/><g fill="#3762cc"><path d="m43.773438 240.410156c-1.183594 0-2.140626-.957031-2.140626-2.136718v-3.5625c0-1.179688.960938-2.140626 2.140626-2.140626 1.179687 0 2.136718.960938 2.136718 2.140626v3.5625c0 1.183593-.957031 2.136718-2.136718 2.136718zm0 0"/><path d="m65.972656 240.410156c-1.179687 0-2.136718-.957031-2.136718-2.136718v-3.5625c0-1.179688.957031-2.140626 2.136718-2.140626 1.183594 0 2.140625.960938 2.140625 2.140626v3.5625c0 1.183593-.960937 2.136718-2.140625 2.136718zm0 0"/><path d="m43.96875 246.078125c-4.894531 0-8.875-3.976563-8.875-8.875 0-4.894531 3.980469-8.875 8.875-8.875 4.898438 0 8.878906 3.980469 8.878906 8.875 0 4.898437-3.980468 8.875-8.878906 8.875zm0-15.75c-3.789062 0-6.875 3.085937-6.875 6.878906 0 3.789063 3.085938 6.875 6.875 6.875 3.792969 0 6.878906-3.085937 6.878906-6.875 0-3.792969-3.085937-6.878906-6.878906-6.878906zm0 0"/><path d="m65.972656 246.078125c-4.894531 0-8.875-3.976563-8.875-8.875 0-4.894531 3.980469-8.875 8.875-8.875 4.898438 0 8.878906 3.980469 8.878906 8.875 0 4.898437-3.980468 8.875-8.878906 8.875zm0-15.75c-3.789062 0-6.875 3.085937-6.875 6.878906 0 3.789063 3.085938 6.875 6.875 6.875 3.792969 0 6.878906-3.085937 6.878906-6.875 0-3.792969-3.085937-6.878906-6.878906-6.878906zm0 0"/><path d="m58.101562 238.207031h-6.253906c-.554687 0-1-.449219-1-1 0-.554687.445313-1 1-1h6.253906c.550782 0 1 .445313 1 1 0 .550781-.449218 1-1 1zm0 0"/><path d="m242 112c-30.878906 0-56-25.121094-56-56s25.121094-56 56-56 56 25.121094 56 56-25.121094 56-56 56zm0-104c-26.464844 0-48 21.535156-48 48s21.535156 48 48 48 48-21.535156 48-48-21.535156-48-48-48zm0 0"/><path d="m242 484c-30.878906 0-56-25.121094-56-56s25.121094-56 56-56 56 25.121094 56 56-25.121094 56-56 56zm0-104c-26.464844 0-48 21.535156-48 48s21.535156 48 48 48 48-21.535156 48-48-21.535156-48-48-48zm0 0"/><path d="m428 298c-30.878906 0-56-25.121094-56-56s25.121094-56 56-56 56 25.121094 56 56-25.121094 56-56 56zm0-104c-26.464844 0-48 21.535156-48 48s21.535156 48 48 48 48-21.535156 48-48-21.535156-48-48-48zm0 0"/><path d="m56 298c-30.878906 0-56-25.121094-56-56s25.121094-56 56-56 56 25.121094 56 56-25.121094 56-56 56zm0-104c-26.464844 0-48 21.535156-48 48s21.535156 48 48 48 48-21.535156 48-48-21.535156-48-48-48zm0 0"/></g><path d="m342 242c0 55.226562-44.773438 100-100 100s-100-44.773438-100-100 44.773438-100 100-100 100 44.773438 100 100zm0 0" fill="#ffea92"/><path d="m289.179688 310.316406c-.007813-.148437-.023438-.296875-.03125-.445312-.015626-.285156-.035157-.574219-.0625-.859375-.015626-.179688-.039063-.359375-.054688-.535157-.027344-.25-.058594-.503906-.09375-.753906-.027344-.191406-.058594-.378906-.085938-.570312-.039062-.230469-.078124-.460938-.121093-.691406-.039063-.199219-.074219-.402344-.117188-.597657-.042969-.210937-.089843-.417969-.140625-.628906-.050781-.210937-.097656-.425781-.152344-.632813-.042968-.171874-.09375-.339843-.140624-.507812-.253907-.921875-.554688-1.824219-.898438-2.703125-.027344-.074219-.054688-.152344-.085938-.222656-.117187-.292969-.238281-.578125-.367187-.863281-.035156-.082032-.066406-.164063-.105469-.242188-.128906-.292969-.265625-.578125-.40625-.863281-.03125-.066407-.0625-.128907-.097656-.191407-.152344-.300781-.308594-.601562-.46875-.898437-.015625-.023437-.03125-.050781-.042969-.078125-4.628906-8.378906-13.390625-14.152344-23.539062-14.566406l-.042969.054687c-.003906.019531-.003906.035157-.011719.054688-.019531.015625-.042969.027343-.0625.042969l-.007812.003906h-.003907c-11.070312 7.285156-25.417968 7.273437-36.472656-.046875l-.007812-.003907c0-.007812 0-.015624-.003906-.019531h-.023438c-7.996094.703125-15.03125 4.746094-19.710938 10.71875h-.003906c-.019531.019531-.035156.042969-.050781.066407-.152344.195312-.300781.394531-.449219.597656-.09375.121094-.183594.246094-.273437.371094-.140625.199218-.273438.398437-.410157.597656-.089843.132812-.179687.269531-.269531.40625-.128906.199218-.257812.398437-.382812.597656-.085938.144531-.171875.292969-.257813.4375-.117187.199219-.238281.398438-.347656.601562-.085938.152344-.167969.308594-.25.460938-.109375.203125-.21875.402344-.320312.609375-.082032.164063-.160157.328125-.238282.496094-.09375.199219-.191406.394531-.28125.597656-.089844.199219-.171875.398437-.253906.597656-.136719.320313-.265625.640625-.386719.96875-.085937.21875-.171875.441407-.25.664063-.058593.179687-.117187.359375-.175781.535156-.070312.21875-.140625.433594-.207031.652344-.054688.179687-.105469.363281-.152344.546875-.0625.21875-.125.441406-.179687.664062-.046876.183594-.085938.367188-.132813.550781-.050781.230469-.101563.457032-.148437.6875-.039063.179688-.074219.363282-.105469.546876-.046875.238281-.085938.476562-.121094.714843-.027344.179688-.054687.359375-.078125.539063-.035156.253906-.066406.507812-.09375.765625-.019531.167969-.039062.335937-.054688.507812-.023437.285157-.042968.570313-.0625.855469-.007812.144531-.019531.289062-.027343.433594-.019531.433594-.03125.867187-.03125 1.300781v5.648437h89.386719v-5.648437c0-.441406-.011719-.882813-.03125-1.324219zm0 0" fill="#6bdddd"/><path d="m225.8125 284.289062-.203125-.542968c.050781.1875.121094.367187.203125.542968zm0 0" fill="#f9cfcf"/><path d="m262.050781 283.804688-.125.332031c.046875-.109375.089844-.214844.125-.332031zm0 0" fill="#f9cfcf"/><path d="m244.085938 275.660156c-6.742188 0-13.089844-1.675781-18.65625-4.625v11.566406c0 .328126.054687.652344.132812.964844l.007812.003906c11.078126 7.335938 25.464844 7.335938 36.542969 0 .082031-.324218.140625-.65625.140625-.996093v-11.28125c-5.453125 2.792969-11.625 4.367187-18.167968 4.367187zm0 0" fill="#f9cfcf"/><path d="m209.402344 250.609375h-2.8125c-6.140625 0-11.117188-4.976563-11.117188-11.117187v-30.800782c0-6.140625 4.976563-11.117187 11.117188-11.117187h2.8125c6.140625 0 11.117187 4.976562 11.117187 11.117187v30.800782c0 6.140624-4.980469 11.117187-11.117187 11.117187zm0 0" fill="#4671c6"/><path d="m280.898438 250.929688h-2.8125c-6.140626 0-11.117188-4.976563-11.117188-11.117188v-30.800781c0-6.140625 4.976562-11.117188 11.117188-11.117188h2.8125c6.140624 0 11.117187 4.976563 11.117187 11.117188v30.800781c0 6.140625-4.976563 11.117188-11.117187 11.117188zm0 0" fill="#4671c6"/><path d="m284.046875 226.664062c-.085937 0-.167969.011719-.253906.011719v-3.773437c0-22.066406-17.886719-39.953125-39.949219-39.953125-22.066406 0-39.953125 17.890625-39.953125 39.953125v3.773437c-.085937 0-.167969-.011719-.253906-.011719-6.730469 0-12.1875 5.457032-12.1875 12.1875 0 6.734376 5.457031 12.1875 12.1875 12.1875.441406 0 .878906-.023437 1.308593-.070312 4.121094 17.671875 19.964844 30.84375 38.898438 30.84375 18.929688 0 34.773438-13.167969 38.898438-30.84375.429687.046875.867187.070312 1.308593.070312 6.730469 0 12.1875-5.457031 12.1875-12.1875-.003906-6.730468-5.460937-12.1875-12.191406-12.1875zm0 0" fill="#f9cfcf"/><path d="m244.519531 262.003906c-5.527343 0-10.023437-4.046875-10.023437-9.019531 0-.550781.449218-1 1-1 .554687 0 1 .449219 1 1 0 3.871094 3.601562 7.019531 8.023437 7.019531s8.019531-3.148437 8.019531-7.019531c0-.550781.449219-1 1-1 .554688 0 1 .449219 1 1 0 4.972656-4.496093 9.019531-10.019531 9.019531zm0 0" fill="#3762cc"/><path d="m270.746094 216.679688h21.101562c1.558594 0 2.828125-1.265626 2.828125-2.824219v-16.140625c0-17.949219-14.550781-32.5-32.5-32.5h-1.007812c-4.683594 0-8.476563 3.796875-8.476563 8.480468v24.929688c0 9.972656 8.082032 18.054688 18.054688 18.054688zm0 0" fill="#4671c6"/><path d="m227.371094 216.679688h-36.769532c-1.566406 0-2.835937-1.269532-2.835937-2.835938v-13.351562c0-19.480469 15.792969-35.277344 35.277344-35.277344h21.261719c4.675781 0 8.46875 3.789062 8.46875 8.46875v17.59375c0 14.03125-11.375 25.402344-25.402344 25.402344zm0 0" fill="#4671c6"/><path d="m222.75 240.453125c-2.242188 0-4.0625-1.820313-4.0625-4.0625v-6.769531c0-2.246094 1.820312-4.0625 4.0625-4.0625s4.0625 1.820312 4.0625 4.0625v6.769531c0 2.246094-1.820312 4.0625-4.0625 4.0625zm0 0" fill="#3762cc"/><path d="m264.933594 240.453125c-2.246094 0-4.0625-1.820313-4.0625-4.0625v-6.769531c0-2.246094 1.820312-4.0625 4.0625-4.0625 2.242187 0 4.058594 1.820312 4.058594 4.0625v6.769531c.003906 2.246094-1.816407 4.0625-4.058594 4.0625zm0 0" fill="#3762cc"/><path d="m242 346c-57.347656 0-104-46.652344-104-104s46.652344-104 104-104 104 46.652344 104 104-46.652344 104-104 104zm0-200c-52.9375 0-96 43.0625-96 96s43.0625 96 96 96 96-43.0625 96-96-43.0625-96-96-96zm0 0" fill="#3762cc"/><path d="m242 108c-1.34375 0-2.671875-.066406-3.988281-.164062l.03125 34.261718c1.316406-.050781 2.632812-.097656 3.957031-.097656 1.355469 0 2.703125.046875 4.042969.101562l-.03125-34.269531c-1.324219.101563-2.660157.167969-4.011719.167969zm0 0" fill="#3762cc"/><path d="m242 376c1.4375 0 2.859375.074219 4.269531.1875l-.035156-34.292969c-1.40625.058594-2.8125.105469-4.234375.105469-1.261719 0-2.515625-.046875-3.765625-.09375l.03125 34.242188c1.238281-.089844 2.476563-.148438 3.734375-.148438zm0 0" fill="#3762cc"/><path d="m376.15625 245.875c-.09375-1.28125-.15625-2.570312-.15625-3.875 0-1.390625.070312-2.765625.179688-4.125l-34.285157.03125c.054688 1.359375.105469 2.722656.105469 4.09375 0 1.308594-.046875 2.609375-.097656 3.90625zm0 0" fill="#3762cc"/><path d="m107.84375 238.125c.09375 1.28125.15625 2.570312.15625 3.875 0 1.390625-.070312 2.765625-.179688 4.125l34.285157-.03125c-.058594-1.359375-.105469-2.71875-.105469-4.09375 0-1.308594.046875-2.609375.097656-3.90625zm0 0" fill="#3762cc"/></svg>