<svg height="511pt" viewBox="0 -55 511.99975 511" width="511pt" xmlns="http://www.w3.org/2000/svg"><path d="m363.605469 345.792969-17.152344 39.085937-14.589844-5.632812 17.148438-39.082032zm0 0" fill="#e6e7e8"/><path d="m117.164062 363.972656-41.132812 11.347656-4.179688-14.164062 41.128907-11.351562zm0 0" fill="#e6e7e8"/><path d="m117.589844 365.335938c3.433594 11.261718-2.90625 23.179687-14.164063 26.625-2.023437.601562-4.121093.917968-6.230469.9375-9.378906-.003907-17.65625-6.132813-20.394531-15.105469l-.769531-2.472657 41.132812-11.347656zm0 0" fill="#37474f"/><path d="m349.011719 340.164062-17.148438 39.082032-128.769531-49.75c-16.449219-6.480469-33.519531-11.257813-50.945312-14.25l-51.882813-8.875 12.714844 43.433594-41.128907 11.351562-2.816406-9.472656-15.871094-53.417969v-.085937c-3-9.761719-.710937-20.382813 6.042969-28.039063 6.757813-7.660156 17.003907-11.261719 27.066407-9.507813h.082031l34.648437 5.375 83.625 18.175782 75.863282 29.695312 55.976562 21.503906zm0 0" fill="#f57c00"/><path d="m336.46875 335.382812-16.128906 36.78125-128.765625-49.75c-16.449219-6.480468-33.519531-11.257812-50.945313-14.25l-37.324218-1.273437 3.804687 34.269531-38.074219 10.523438-15.871094-53.417969v-.085937c-3-9.761719-.710937-20.382813 6.042969-28.039063 6.757813-7.660156 17.003907-11.261719 27.066407-9.507813h.082031l34.648437 5.375 83.625 18.175782 75.863282 29.695312zm0 0" fill="#ff9801"/><path d="m391.082031 379.332031c-3.179687 8.199219-11.085937 13.59375-19.882812 13.566407-2.65625.015624-5.292969-.476563-7.765625-1.449219l-16.980469-6.570313 17.152344-39.085937 15.359375 5.890625c10.964844 4.304687 16.382812 16.667968 12.117187 27.648437zm0 0" fill="#37474f"/><path d="m310.355469 196.886719-10.835938 30.550781c-4.777343 13.324219-17.417969 22.207031-31.574219 22.1875-5.824218.003906-11.539062-1.558594-16.554687-4.523438-.976563-.535156-1.914063-1.132812-2.816406-1.792968l-26.023438-18.6875-2.476562 8.191406-14.507813 48.300781-.9375 3.070313-19.882812-4.351563-63.742188-13.824219 16.46875-73.640624-63.234375-19.457032c-15.9375-4.878906-26.8125-19.601562-26.792969-36.265625.035157-5.015625 1.050782-9.96875 2.988282-14.59375l.425781-.9375 19.625-48.46875c2.46875-5.507812 7.164063-9.703125 12.910156-11.542969 5.746094-1.839843 12.007813-1.148437 17.214844 1.898438 9.550781 5.972656 13.109375 18.15625 8.277344 28.332031l-16.898438 42.410157 54.785157 16.894531 58.878906 16.386719c10.722656 2.984374 20.832031 7.839843 29.867187 14.335937l10.835938 7.847656 17.070312 12.289063 6.738281-18.859375c2.296876-6.492188 7.617188-11.460938 14.25-13.3125 4.277344-1.292969 8.855469-1.171875 13.058594.34375 5.328125 1.882812 9.6875 5.816406 12.109375 10.929687 2.417969 5.109375 2.695313 10.972656.773438 16.289063zm0 0" fill="#dfc49c"/><path d="m290.476562 192.535156-10.839843 30.550782c-4.34375 12.199218-15.355469 20.78125-28.246094 22.015624-1.109375.085938-2.21875.171876-3.328125.171876-6.957031-.023438-13.734375-2.234376-19.371094-6.316407l-8.617187-6.144531-17.40625-12.542969-16.984375 56.492188-.9375 3.070312-63.742188-13.824219 16.46875-73.640624-63.234375-19.457032c-15.9375-4.878906-26.8125-19.601562-26.792969-36.265625.035157-5.015625 1.050782-9.96875 2.988282-14.59375l.425781-.9375 19.625-48.46875c2.550781-5.664062 7.445313-9.929687 13.398437-11.691406 7.167969 6.648437 9.234376 17.15625 5.121094 26.027344l-16.898437 42.410156 54.785156 16.894531 58.878906 16.382813c10.722657 2.988281 20.832031 7.839843 29.867188 14.335937l27.90625 20.140625 2.8125-7.9375 17.070312 12.289063 6.738281-18.859375c2.296876-6.492188 7.617188-11.460938 14.25-13.3125 6.625 5.742187 9.035157 14.964843 6.0625 23.210937zm0 0" fill="#ffe0b2"/><path d="m240.554688 95.257812c-.429688 19.585938-14.144532 36.359376-33.253907 40.679688-19.109375 4.316406-38.703125-4.9375-47.511719-22.433594-8.808593-17.5-4.570312-38.75 10.28125-51.527344l53.417969 25.171876zm0 0" fill="#dfc49c"/><path d="m223.488281 87.148438c-.746093 22.980468-19.589843 41.21875-42.582031 41.21875-3.390625-.003907-6.769531-.40625-10.070312-1.195313-9.695313-7.996094-15.375-19.855469-15.523438-32.421875-.144531-12.5625 5.253906-24.554688 14.757812-32.773438zm0 0" fill="#ffe0b2"/><path d="m263.59375 106.09375-22.355469-10.496094-102.230469-48.214844c-1.546874-.734374-2.503906-2.324218-2.429687-4.035156.074219-1.714844 1.164063-3.214844 2.769531-3.8125l62.550782-22.785156 18.089843-6.570312c2.050781-.722657 4.316407.191406 5.292969 2.132812l43.945312 87.976562c.839844 1.628907.542969 3.613282-.730468 4.925782-1.277344 1.3125-3.25 1.667968-4.902344.878906zm0 0" fill="#fdd834"/><path d="m241.238281 95.597656-102.230469-48.214844c-1.546874-.734374-2.503906-2.324218-2.429687-4.035156.074219-1.714844 1.164063-3.214844 2.769531-3.8125l62.550782-22.785156zm0 0" fill="#ffeb3a"/><path d="m97.167969 401.433594c-13.128907-.015625-24.707031-8.605469-28.535157-21.164063l-23.652343-79.53125c-3.820313-12.527343-.910157-26.136719 7.691406-36.007812 8.605469-9.871094 21.695313-14.613281 34.625-12.539063l.367187.050782 26.757813 4.125 12.996094-58.148438-55.6875-17.160156c-12.519531-3.851563-22.832031-12.820313-28.378907-24.6875-5.550781-11.867188-5.824218-25.527344-.753906-37.605469l.402344-.9375 19.625-48.324219c3.386719-7.796875 9.945312-13.773437 18.023438-16.421875 8.074218-2.648437 16.898437-1.714843 24.242187 2.5625 13.308594 8.210938 18.359375 25.078125 11.761719 39.253907l-13.3125 33.46875 45.992187 14.113281 58.667969 16.332031c11.683594 3.25 22.703125 8.535156 32.546875 15.617188l18.695313 13.488281 2.925781-8.164063c5.601562-15.472656 22.617187-23.550781 38.144531-18.109375 7.476562 2.644531 13.585938 8.160157 16.980469 15.324219 3.394531 7.167969 3.785156 15.390625 1.09375 22.847656l-10.828125 30.496094c-4.410156 12.429688-14.417969 22.054688-27.011719 25.980469-12.589844 3.925781-26.296875 1.691406-36.988281-6.027344l-16.324219-11.71875-12.195313 40.59375 68.523438 26.820313 98.40625 37.769531c9.949219 3.871093 17.074219 12.757812 18.695312 23.308593 1.621094 10.550782-2.511718 21.164063-10.835937 27.84375-8.328125 6.679688-19.585937 8.40625-29.535156 4.535157l-160.246094-61.984375c-15.945313-6.242188-32.488281-10.84375-49.367187-13.738282l-38.398438-6.589843 13.5 45.839843c2.726562 9.050782 1.011719 18.855469-4.628906 26.441407-5.636719 7.582031-14.53125 12.050781-23.984375 12.046875zm3.097656-103.597656c.484375 0 .96875.042968 1.441406.128906l51.894531 8.890625c18.003907 3.097656 35.652344 8.007812 52.667969 14.660156l160.230469 61.996094c3.179688 1.246093 6.722656 1.179687 9.855469-.1875 3.105469-1.351563 5.542969-3.894531 6.757812-7.058594 2.546875-6.605469-.710937-14.03125-7.296875-16.628906l-98.378906-37.785157-75.949219-29.722656c-4.152343-1.625-6.351562-6.171875-5.050781-10.4375l17.917969-59.527344c.792969-2.640624 2.8125-4.734374 5.421875-5.625 2.609375-.871093 5.484375-.449218 7.730468 1.144532l26.015626 18.6875c6.332031 4.578125 14.445312 5.90625 21.90625 3.589844 7.457031-2.316407 13.394531-8.007813 16.019531-15.363282l10.871093-30.527344c1.160157-3.179687 1.003907-6.691406-.4375-9.757812-1.445312-3.0625-4.050781-5.425781-7.242187-6.554688-6.691406-2.382812-14.050781 1.097657-16.453125 7.78125l-6.742188 18.851563c-.902343 2.527344-2.941406 4.484375-5.503906 5.28125s-5.351562.339844-7.527344-1.230469l-27.902343-20.136718c-8.207031-5.898438-17.390625-10.300782-27.128907-13.003907l-58.878906-16.402343-55.015625-16.964844c-2.273437-.703125-4.148437-2.324219-5.175781-4.46875-1.027344-2.148438-1.113281-4.625-.234375-6.839844l16.871094-42.398438c3.230469-6.230468 1.261719-13.894531-4.574219-17.792968-3.140625-1.859375-6.925781-2.273438-10.394531-1.136719-3.429688 1.082031-6.226563 3.589844-7.679688 6.878906l-19.976562 49.1875c-3.210938 7.636719-3.039063 16.277344.472656 23.78125 3.507813 7.503907 10.03125 13.175781 17.953125 15.605469l63.230469 19.457031c4.257812 1.308594 6.792969 5.671875 5.820312 10.019531l-16.46875 73.640626c-.980469 4.386718-5.195312 7.261718-9.636719 6.570312l-34.3125-5.324219c-.1875-.015625-.375-.039062-.5625-.074219-7.136718-1.234374-14.40625 1.324219-19.199218 6.757813-4.796875 5.429687-6.433594 12.957031-4.324219 19.890625l23.679687 79.691406c2.242188 6.542969 9.277344 10.117188 15.882813 8.078125 6.609375-2.042969 10.398437-8.960937 8.5625-15.628906l-17.339844-59.050781c-.757812-2.578125-.253906-5.363282 1.355469-7.519532 1.609375-2.152343 4.140625-3.417968 6.828125-3.421874zm0 0"/><path d="m197.972656 145.433594c-21.382812-.007813-40.507812-13.304688-47.96875-33.34375-7.457031-20.042969-1.675781-42.605469 14.5-56.589844 3.597656-2.851562 8.800782-2.351562 11.785156 1.132812 2.984376 3.488282 2.679688 8.707032-.691406 11.820313-11.855468 10.230469-15.230468 27.222656-8.179687 41.207031 7.046875 13.984375 22.710937 21.378906 37.992187 17.933594 15.277344-3.449219 26.25-16.851562 26.609375-32.507812-.003906-2.28125.925781-4.460938 2.574219-6.039063 1.648438-1.574219 3.871094-2.40625 6.148438-2.296875 4.707031.105469 8.4375 4.003906 8.335937 8.710938-.449219 27.855468-23.25 50.148437-51.105469 49.972656zm0 0"/><path d="m435.199219 401.433594h-426.664063c-4.714844 0-8.535156-3.820313-8.535156-8.535156 0-4.710938 3.820312-8.53125 8.535156-8.53125h426.664063c4.714843 0 8.535156 3.820312 8.535156 8.53125 0 4.714843-3.820313 8.535156-8.535156 8.535156zm0 0"/><path d="m265.507812 115.027344c-1.910156-.003906-3.789062-.429688-5.515624-1.246094l-124.644532-58.65625c-4.683594-2.199219-7.582031-7.003906-7.34375-12.171875.238282-5.167969 3.5625-9.6875 8.425782-11.449219l80.640624-29.320312c6.117188-2.230469 12.929688.484375 15.839844 6.304687l43.988282 87.988281c1.992187 3.960938 1.792968 8.671876-.527344 12.449219-2.320313 3.777344-6.429688 6.085938-10.863282 6.101563zm-113.613281-70.980469 104.234375 49.050781-36.820312-73.574218zm0 0"/><path d="m503.464844 290.5c-1.4375 0-2.851563-.367188-4.109375-1.066406l-494.933594-273.066406c-3.957031-2.359376-5.328125-7.425782-3.105469-11.457032 2.226563-4.03125 7.246094-5.570312 11.347656-3.476562l494.933594 273.066406c3.402344 1.882812 5.101563 5.832031 4.128906 9.597656-.972656 3.769532-4.367187 6.402344-8.261718 6.402344zm0 0"/><path d="m486.398438 401.433594h-17.066407c-4.710937 0-8.53125-3.820313-8.53125-8.535156 0-4.710938 3.820313-8.53125 8.53125-8.53125h17.066407c4.714843 0 8.535156 3.820312 8.535156 8.53125 0 4.714843-3.820313 8.535156-8.535156 8.535156zm0 0"/></svg>