<svg height="512" viewBox="0 0 60 60" width="512" xmlns="http://www.w3.org/2000/svg"><g id="020---Genetics" fill="none"><g id="Icons" transform="translate(1 1)"><path id="Shape" d="m50 5v4h-4v-4c0-.55228475-.4477153-1-1-1h-22c-.5522847 0-1 .44771525-1 1v4h-4v-4c0-2.76142375 2.2385763-5 5-5h22c1.3260824 0 2.597852.5267842 3.5355339 1.46446609.9376819.9376819 1.4644661 2.20945146 1.4644661 3.53553391z" fill="#fec108"/><path id="Shape" d="m47 5v4h-1v-4c0-.55228475-.4477153-1-1-1h-22c-.5522847 0-1 .44771525-1 1v4h-4v-4c0-2.76142375 2.2385763-5 5-5h19c1.3260824 0 2.597852.5267842 3.5355339 1.46446609.9376819.9376819 1.4644661 2.20945146 1.4644661 3.53553391z" fill="#ffdc00"/><path id="Shape" d="m28.41 52h-16.82c-2.83723401.0033498-5.46399361-1.4963178-6.90342792-3.9412998s-1.47618006-5.4694685-.09657208-7.9487002l7.01-12.61c.917945-1.6409308 1.3999507-3.4897668 1.4-5.37v-7.13h14v7.13c.0000493 1.8802332.482055 3.7290692 1.4 5.37l7.05 12.61c1.3831539 2.4854804 1.3425533 5.5184673-.1066361 7.966033-1.4491894 2.4475656-4.088998 3.9415766-6.9333639 3.923967z" fill="#02a9f4"/><rect id="Rectangle-path" fill="#00bcd4" height="6" rx="2" width="18" x="11" y="9"/><circle id="Oval" cx="11" cy="42" fill="#ffdc00" r="2"/><circle id="Oval" cx="23" cy="30" fill="#ffdc00" r="2"/><rect id="Rectangle-path" fill="#783e22" height="6" rx="2" width="57.92" y="52"/><rect id="Rectangle-path" fill="#a0522d" height="6" rx="2" width="54.92" y="52"/><path id="Rectangle-path" d="m43 14h10v17h-10z" fill="#0377bc"/><path id="Rectangle-path" d="m43 14h7v17h-7z" fill="#02a9f4"/><path id="Shape" d="m53 31v16c0 2.7614237-2.2385763 5-5 5s-5-2.2385763-5-5v-16z" fill="#bb193b"/><path id="Shape" d="m50.0000107 31-.0000107 16c.0045063 2.1873902-1.4133569 4.1237862-3.5 4.78-2.0866431-.6562138-3.5045063-2.5926098-3.5-4.78l-.0000107-16z" fill="#ef314c"/><rect id="Rectangle-path" fill="#00838f" height="5" rx="1" width="12" x="42" y="9"/><rect id="Rectangle-path" fill="#00bcd4" height="5" rx="1" width="9" x="42" y="9"/><path id="Shape" d="m29 42c.0049248 3.1192384-2.3810275 5.7219825-5.488934 5.9876684-3.1079066.2656859-5.9010121-1.8943157-6.4255988-4.9691297s1.3943405-6.0387242 4.4145328-6.8185387c1.7951888-.4635182 3.7038307-.0710639 5.1704933 1.0631552 1.4666626 1.134219 2.3265794 2.8827835 2.3295067 4.7368448z" fill="#ef314c"/></g><g id="Layer_2" fill="#000"><path id="Shape" d="m25 36.08v-2.26c1.3775467-.4870363 2.2038721-1.8956662 1.9567957-3.3357331-.2470764-1.4400668-1.4956868-2.492694-2.9567957-2.492694s-2.7097193 1.0526272-2.9567957 2.492694c-.2470764 1.4400669.579249 2.8486968 1.9567957 3.3357331v2.26c-1.1533667.1683815-2.2464308.6221062-3.18 1.32l-4.11-4.11c-.3921222-.3921221-1.0278778-.3921221-1.42 0-.3921221.3921222-.3921221 1.0278778 0 1.42l4.11 4.11c-.6978938.9335692-1.1516185 2.0266333-1.32 3.18h-2.26c-.4870363-1.3775467-1.8956662-2.2038721-3.3357331-1.9567957-1.4400668.2470764-2.49269402 1.4956868-2.49269402 2.9567957s1.05262722 2.7097193 2.49269402 2.9567957c1.4400669.2470764 2.8486968-.579249 3.3357331-1.9567957h2.26c.5107365 3.5734188 3.6550152 6.1724978 7.2607073 6.0017429 3.6056922-.170755 6.4902806-3.0553434 6.6610356-6.6610356.1707549-3.6056921-2.4283241-6.7499708-6.0017429-7.2607073zm-1-6.08c.5522847 0 1 .4477153 1 1s-.4477153 1-1 1-1-.4477153-1-1 .4477153-1 1-1zm-12 14c-.5522847 0-1-.4477153-1-1s.4477153-1 1-1 1 .4477153 1 1-.4477153 1-1 1zm12 4c-2.7614237 0-5-2.2385763-5-5s2.2385763-5 5-5 5 2.2385763 5 5c0 1.3260824-.5267842 2.597852-1.4644661 3.5355339s-2.2094515 1.4644661-3.5355339 1.4644661z"/><path id="Shape" d="m24 39c-1.0699851-.0307097-2.1053413.3808482-2.8622466 1.1377534-.7569052.7569053-1.1684631 1.7922615-1.1377534 2.8622466 0 .5522847.4477153 1 1 1s1-.4477153 1-1c-.0324436-.5397267.1678295-1.0675039.5501628-1.4498372s.9101105-.5826064 1.4498372-.5501628c.5522847 0 1-.4477153 1-1s-.4477153-1-1-1z"/><path id="Shape" d="m3 60h53.92c1.6568542 0 3-1.3431458 3-3v-2c0-1.6568542-1.3431458-3-3-3h-3.46c.988314-1.0982476 1.5366648-2.5225356 1.54-4v-32.28c.6150891-.3551046.9957131-1.0097779 1-1.72v-3c0-1.1045695-.8954305-2-2-2h-2v-3c0-3.3137085-2.6862915-6-6-6h-22c-3.3137085 0-6 2.6862915-6 6v3h-4c-1.6568542 0-3 1.3431458-3 3v2c.0035644 1.2682549.8042713 2.3972517 2 2.82v6.31c-.0012288 1.705058-.4384078 3.3814845-1.27 4.87l-7 12.61c-2.14221813 3.82124-1.22186479 8.6298751 2.18 11.39h-3.91c-1.65685425 0-3 1.3431458-3 3v2c0 1.6568542 1.34314575 3 3 3zm34.32-19.38-7.05-12.62c-.8315922-1.4885155-1.2687712-3.164942-1.27-4.87v-6.31c1.1957287-.4227483 1.9964356-1.5517451 2-2.82v-2c0-1.6568542-1.3431458-3-3-3h-4v-3h22v3h-2c-1.1045695 0-2 .8954305-2 2v3c.0042869.7102221.3849109 1.3648954 1 1.72v32.28c.0033352 1.4774644.551686 2.9017524 1.54 4h-9.45c3.4137865-2.7451214 4.355235-7.549464 2.23-11.38zm15.68-24.62v15h-8v-2h2c.5522847 0 1-.4477153 1-1s-.4477153-1-1-1h-2v-2h2c.5522847 0 1-.4477153 1-1s-.4477153-1-1-1h-2v-2h2c.5522847 0 1-.4477153 1-1s-.4477153-1-1-1h-2v-3zm-8 32v-3h2c.5522847 0 1-.4477153 1-1s-.4477153-1-1-1h-2v-2h2c.5522847 0 1-.4477153 1-1s-.4477153-1-1-1h-2v-2h2c.5522847 0 1-.4477153 1-1s-.4477153-1-1-1h-2v-2h8v15c0 2.209139-1.790861 4-4 4s-4-1.790861-4-4zm9-34h-10v-3h10zm-34-8c0-2.209139 1.790861-4 4-4h22c2.209139 0 4 1.790861 4 4v3h-2v-3c0-1.1045695-.8954305-2-2-2h-22c-1.1045695 0-2 .8954305-2 2v3h-2zm-7 6c0-.5522847.4477153-1 1-1h14c.5522847 0 1 .4477153 1 1v2c0 .5522847-.4477153 1-1 1h-14c-.5522847 0-1-.4477153-1-1zm-6.57 29.6 7-12.61c1.0166048-1.7866212 1.5572143-3.8044375 1.57-5.86v-6.13h12v6.13c-.0011352 2.0554086.5256976 4.076656 1.53 5.87l7 12.61c1.1998283 2.167607 1.1644903 4.8079734-.0929194 6.9426933-1.2574096 2.13472-3.5495605 3.4457605-6.0270806 3.4473067h-16.82c-2.4876826.0146577-4.79624004-1.2920949-6.06403726-3.4325318-1.26779721-2.1404368-1.30432989-4.7929272-.09596274-6.9674682zm-4.43 13.4c0-.5522847.44771525-1 1-1h53.92c.5522847 0 1 .4477153 1 1v2c0 .5522847-.4477153 1-1 1h-53.92c-.55228475 0-1-.4477153-1-1z"/></g></g></svg>