<svg height="512" viewBox="0 0 50 61" width="512" xmlns="http://www.w3.org/2000/svg"><g id="025---Sumo-Wrestler" transform="translate(-1)"><path id="Shape" d="m50 22.37-.17-1.28c-.2343023-1.7209207-1.299942-3.2165552-2.85-4-8.66-4.32-10.83-4.09-16.49-4.09-.0712759-.4886407-.1953345-.9681105-.37-1.43 1.07-.57 1.45-2.33 1.45-3.57-.05475-1.36152648-.7103176-2.6287131-1.79-3.46.95-2.4-1.35-4.54-4.28-4.54s-5.3 2.18-4.25 4.63c-1.0172438.83053014-1.629039 2.05776212-1.68 3.37 0 1.24.38 2.94 1.46 3.57-.1825739.4600272-.3101257.9400246-.38 1.43-5.44 0-7.62-.35-16.53 4.1-1.55005804.7834448-2.61569766 2.2790793-2.85 4l-.17 1.27c-.35 2.52.2 8 1.67 10.24l2.44 3.25c-.54.48-1.07 1-1.56 1.45-3.14 3.14 1.29 10.9 3.42 15.14.65 1.29.54 1.58.54 1.57-.35.34-2.19.29-3.79 1.09s-2.82 2.44-1.97 3.89c.35510459.6150891 1.00977788.9957131 1.72 1h11c.4956717-.001294.9732034-.1866048 1.34-.52.71-.65 2.85-3.06.91-6.93-.7639936-1.6812491-1.1366771-3.5138943-1.09-5.36 2.7218748.5510238 5.4929377.8224339 8.27.81 5.84 0 6 .08 11.19-.79.0423963 1.8317868-.3266645 3.6497528-1.08 5.32-1.3640413 2.3150357-.8520131 5.2771823 1.21 7 .3693492.3357148.8508789.5211929 1.35.52h11c.7195165.0100968 1.388991-.3671119 1.7531127-.9877739s.3667518-1.3890861.0068873-2.0122261c-.5888725-.8461536-1.3933338-1.5194152-2.33-1.95-1.55-.78-3.46-.79-3.77-1.07-.36-1.25 7.94-12.74 3.94-16.73-.43-.44-.9-.87-1.38-1.29l2.53-3.44c1.42-2.17 1.97-7.68 1.58-10.2zm-22.3-11c.5656009.7601305.8707288 1.6825285.87 2.63 0 2.2-1.34 4-3 4-2.52 0-4-4-2.25-6.6.4-.37.62-.4 2.25-.4.8 0 1.77 0 2.17.34zm-5.14-5.21c1.8372037 1.16366149 4.1864346 1.14016918 6-.06.588958.46617312.9524189 1.16038344 1 1.91.0376693.64720697-.1265587 1.29014193-.47 1.84l-.09-.06c-1-.91-2.36-.79-3.74-.79-1.1073443-.14120351-2.2274482.13703886-3.14.78l-.12.08c-.3298421-.56156903-.4798966-1.21064191-.43-1.86.0593925-.7244289.4181855-1.39127642.99-1.84zm2.94-4.16c1.5 0 2.5.8 2.5 1.51s-1 1.49-2.5 1.49-2.5-.78-2.5-1.49 1-1.51 2.5-1.51zm-10 43.12c-.1777488-.9470853-.545105-1.8484686-1.08-2.65-.3190263-.4241552-.9138382-.5251973-1.3550316-.2301824-.4411934.2950148-.575064.8833085-.3049684 1.3401824 1.74 2.62.2 5.72 2.27 9.86 1.23 2.46.23 3.91-.46 4.55h-11c1.23-2.29 4.8-1 5.82-3.07.67-1.35-.41-3.14-1.1-4.51-1.76-3.45-5-9.88-3.22-11.69 2.1031747-1.9974085 4.36012826-3.8263767 6.75-5.47 2.0625756 2.4565805 4.6913733 4.3749851 7.66 5.59.0518112.3846643.081859.7719475.09 1.16-.1814856 1.9068955-.6083455 3.7823903-1.27 5.58-.81-.11-1.49-.23-2.82-.45zm-7.16-15.26c-.02798588-.1689805-.00717095-.3424383.06-.5.4-1.68 0-2.29-.16-4.24 1.08306025.0681634 2.1703277-.0159905 3.23-.25-.3748529 2.1520807-.5323119 4.3364059-.47 6.52-.2.13-.45.31-.75.53-.73-1.48-1.7-1.15-1.91-2.06zm34.41-.5c.0423389.1639778.0423389.3360222 0 .5-.0664606.302823-.2696185.5576937-.55.69-.6359649.3161533-1.1391422.8476786-1.42 1.5l-.78-.57c.0657595-2.2243015-.0984455-4.449446-.49-6.64 1.1109722.2538283 2.2524372.3481086 3.39.28-.15 1.88-.55 2.56-.15 4.24zm-4.75 2.27c-7.14 8.52-17.93 8.51-25-.09v-1c7.32 7.27 17.6 7.32 25 .06zm-17.68 14.23c.7384489-2.0396237 1.1534606-4.1821639 1.23-6.35 2.6402638.6799115 5.4097362.6799115 8.05 0v.53c.1662408 1.9916176.5725185 3.9558527 1.21 5.85-3.4939423.206236-6.9972945.1962169-10.49-.03zm22.3 4.54c-.69 1.36-1.77 3.16-1.1 4.5.78 1.58 3 1.15 4.67 2 .5699532.2406199 1.0715214.6185137 1.46 1.1h-11c-1.3902115-1.1041981-1.7263397-3.0778739-.78-4.58 2.08-4.16.51-7.22 2.27-9.86.1982824-.2983168.2223528-.6797552.0631441-1.0006312s-.4775089-.5324409-.835-.5550001-.6998617.1473145-.8981441.4456313c-.5398908.8135215-.907443 1.7289987-1.08 2.69-1.19.2-1.78.31-2.63.44-.6212499-1.8049247-1.0208459-3.6786606-1.19-5.58.0071116-.4050725.0405152-.8092559.1-1.21 2.8990304-1.2020283 5.4724778-3.0730034 7.51-5.46 2.3616499 1.6031442 4.5889933 3.3957209 6.66 5.36 1.81 1.82-1.47 8.25-3.22 11.71zm4.15-19-2.43 3.3c-.61-.5-1.21-1-1.77-1.38-.0384422-.4226351.1940625-.8235052.58-1 .8054172-.3940608 1.3923493-1.1277259 1.6-2 .1020115-.4706546.0813507-.9596283-.06-1.42-.1706924-.6895943-.1706924-1.4104057 0-2.1.26-1.83.37-2.89-.27-3.48-.2831661-.2747324-.6824931-.3941573-1.07-.32-2 .47-6.35-.45-8-2.62-.3313708-.4418278-.9581722-.5313708-1.4-.2s-.5313708.9581722-.2 1.4c.9291638 1.1395533 2.1437228 2.0125176 3.52 2.53.3092559 1.1927788.5100728 2.4110681.6 3.64-7.12 8.38-17.76 8.33-24.79-.09.0858405-1.1753756.2799976-2.340318.58-3.48 1.4425462-.5169188 2.7178376-1.4154981 3.69-2.6.3313708-.4418278.2418278-1.0686292-.2-1.4s-1.0686292-.2418278-1.4.2c-1.62 2.17-6 3.09-8 2.62-.38582739-.0890365-.79066889.019671-1.08.29-1 .9-.14 3.55-.14 4.69 0 1-.41 1.3-.17 2.31.2076507.8722741.79458276 1.6059392 1.6 2 .31201079.1556487.52041942.4625777.55.81-.57.43-1.18.91-1.81 1.42l-2.3-3.06c-1.08-1.64-1.61-6.69-1.32-8.81l.18-1.29c.13688742-1.057528.78844718-1.9786987 1.74-2.46 8.49-4.23 10.41-3.9 15.65-3.9.39 2.83 2.45 5 4.92 5s4.53-2.17 4.93-5c5.29 0 7.14-.35 15.62 3.89.9584546.4792529 1.6201732 1.3989295 1.77 2.46l.17 1.29c.29 2.13-.24 7.18-1.29 8.78z"/><path id="Shape" d="m32.57 24c-1.0930661.0778708-2.1722696-.2818637-3-1 0-.5522847-.4477153-1-1-1s-1 .4477153-1 1c0 1.77 2.64 3 5 3 .5522847 0 1-.4477153 1-1s-.4477153-1-1-1z"/><path id="Shape" d="m22.58 22c-.5522847 0-1 .4477153-1 1-.8141335.7467796-1.8974318 1.129545-3 1.06-.5522847 0-1 .4477153-1 1s.4477153 1 1 1c2.37 0 5-1.23 5-3 .0165573-.2754504-.0814438-.5454995-.2708046-.746222-.1893609-.2007226-.4532483-.3142752-.7291954-.313778z"/></g></svg>