<svg height="512pt" viewBox="0 -6 512 512" width="512pt" xmlns="http://www.w3.org/2000/svg"><path d="m119.160156 111.394531h-21.375c-23.359375 0-34.800781-28.6875-17.683594-44.578125 44.785157-41.5625 104.800782-66.941406 170.75-66.816406 138.046876.261719 250.425782 113.320312 249.894532 251.363281-.257813 66.773438-26.65625 127.382813-69.492188 172.128907 0-172.371094-139.730468-312.097657-312.09375-312.097657zm0 0" fill="#fdc273"/><path d="m426.648438 428.199219c-45.246094 44.847656-107.507813 72.558593-176.25 72.558593-65.539063 0-125.191407-25.1875-169.820313-66.40625-2.371094-2.1875-.832031-6.152343 2.394531-6.152343zm0 0" fill="#fd7a7a"/><path d="m469.078125 81.761719v306.585937c0 8.464844-6.863281 15.328125-15.328125 15.328125h-401.335938c-32.847656-42.359375-52.414062-95.539062-52.414062-153.292969 0-72.730468 31-138.207031 80.519531-183.953124h373.230469c8.464844 0 15.328125 6.863281 15.328125 15.332031zm0 0" fill="#aba4d5"/><path d="m218.699219 83.804688c0 4.230468-3.433594 7.664062-7.664063 7.664062-4.234375 0-7.664062-3.433594-7.664062-7.664062 0-4.234376 3.429687-7.664063 7.664062-7.664063 4.230469 0 7.664063 3.429687 7.664063 7.664063zm-40.878907-7.664063c-4.234374 0-7.664062 3.429687-7.664062 7.664063 0 4.230468 3.429688 7.664062 7.664062 7.664062 4.234376 0 7.664063-3.433594 7.664063-7.664062 0-4.234376-3.429687-7.664063-7.664063-7.664063zm66.425782 0c-4.230469 0-7.664063 3.429687-7.664063 7.664063 0 4.230468 3.433594 7.664062 7.664063 7.664062 4.234375 0 7.667968-3.433594 7.667968-7.664062 0-4.234376-3.433593-7.664063-7.667968-7.664063zm0 0" fill="#8279c0"/><path d="m438.417969 111.398438v282.058593c0 5.644531-4.574219 10.21875-10.21875 10.21875h-375.800781c-11.234376-14.488281-20.910157-30.242187-28.785157-47.007812 0 0 15.222657-2.289063 15.222657-5.113281v-205.410157c0-2.824219-13.75-5.109375-13.75-5.109375 6.84375-14.070312 14.953124-27.414062 24.203124-39.859375h378.910157c5.644531 0 10.21875 4.578125 10.21875 10.222657zm0 0" fill="#6354b0"/><path d="m377.101562 124.171875c0-4.234375 3.433594-7.664063 7.664063-7.664063 4.234375 0 7.664063 3.429688 7.664063 7.664063 0 4.230469-3.429688 7.664063-7.664063 7.664063-4.230469 0-7.664063-3.433594-7.664063-7.664063zm33.214844 7.664063c4.230469 0 7.664063-3.433594 7.664063-7.664063 0-4.234375-3.433594-7.664063-7.664063-7.664063-4.234375 0-7.664062 3.429688-7.664062 7.664063 0 4.230469 3.429687 7.664063 7.664062 7.664063zm6.570313 114.121093-26.171875-26.171875c-3.113282-3.113281-8.164063-3.113281-11.277344 0-3.113281 3.113282-3.113281 8.164063 0 11.277344l16.632812 16.628906c.636719.640625.636719 1.675782 0 2.316406l-16.632812 16.628907c-3.113281 3.113281-3.113281 8.164062 0 11.277343 3.113281 3.113282 8.164062 3.113282 11.277344 0l26.171875-26.171874c1.597656-1.597657 1.597656-4.1875 0-5.785157zm0 0" fill="#8279c0"/><path d="m356.664062 146.144531v205.410157c0 2.824218-2.289062 5.113281-5.109374 5.113281h-327.945313c-15.148437-32.265625-23.609375-68.28125-23.609375-106.285157 0-39.210937 9.007812-76.308593 25.074219-109.347656h326.480469c2.820312 0 5.109374 2.285156 5.109374 5.109375zm0 0" fill="#8ed0e1"/><path d="m193.148438 171.691406c0 5.644532-4.574219 10.21875-10.21875 10.21875h-40.878907c-5.644531 0-10.21875-4.574218-10.21875-10.21875 0-5.644531 4.574219-10.21875 10.21875-10.21875h40.878907c5.644531 0 10.21875 4.574219 10.21875 10.21875zm-122.632813 30.660156c5.644531 0 10.21875-4.574218 10.21875-10.21875 0-5.644531-4.574219-10.222656-10.21875-10.222656h-40.878906c-5.644531 0-10.21875 4.578125-10.21875 10.222656 0 5.644532 4.574219 10.21875 10.21875 10.21875zm10.21875 61.316407h-40.878906c-5.644531 0-10.21875 4.574219-10.21875 10.21875s4.574219 10.21875 10.21875 10.21875h40.878906c5.644531 0 10.21875-4.574219 10.21875-10.21875s-4.574219-10.21875-10.21875-10.21875zm224.832031-102.195313h-30.660156c-5.644531 0-10.21875 4.574219-10.21875 10.21875 0 5.644532 4.574219 10.21875 10.21875 10.21875h30.660156c5.644532 0 10.21875-4.574218 10.21875-10.21875 0-5.644531-4.574218-10.21875-10.21875-10.21875zm0 0" fill="#b0dde9"/><path d="m182.929688 233.007812c0 39.511719-32.027344 71.539063-71.535157 71.539063-39.511719 0-71.539062-32.027344-71.539062-71.539063 0-39.507812 32.027343-71.535156 71.539062-71.535156 39.507813 0 71.535157 32.027344 71.535157 71.535156zm0 0" fill="#ffe899"/><path d="m182.867188 229.972656c.496093 14.34375-3.050782 27.777344-9.761719 39.203125-11.421875 6.707031-24.859375 10.351563-39.199219 9.757813-36.917969-1.53125-67.601562-31.496094-68.4375-68.4375-.746094-32.84375 31.796875-49.550782 48.957031-48.960938 37.109375 1.277344 67.097657 29.703125 68.441407 68.4375zm0 0" fill="#fff2b4"/><path d="m277.417969 215.785156c23.007812 19.714844 51.933593 45.355469 79.246093 71.957032v63.8125c0 2.824218-2.289062 5.113281-5.109374 5.113281h-322.035157c36.210938-47.511719 103.542969-107.851563 146.6875-144.628907 2.117188-1.804687 4.800781-2.789062 7.582031-2.789062h75.96875c6.480469 0 12.742188 2.316406 17.660157 6.535156zm0 0" fill="#09a66d"/><path d="m356.664062 287.742188v37.242187h-197.847656c-22.515625 0-35.128906-26.046875-21.074218-43.636719 15.089843-18.886718 43.5-49.289062 65.386718-72.097656h56.703125c6.429688 0 12.644531 2.296875 17.53125 6.484375 23.015625 19.722656 51.96875 45.386719 79.300781 72.007813zm0 0" fill="#22b27f"/><path d="m277.695312 216.019531c-6.347656 4.269531-13.980468 6.769531-22.207031 6.769531-6.238281 0-12.140625-1.433593-17.398437-3.992187-5.816406-2.828125-12.527344-2.828125-18.34375 0-5.257813 2.558594-11.160156 3.992187-17.398438 3.992187-10.273437 0-19.632812-3.894531-26.699218-10.277343 23.949218-20.425781 40.589843-33.710938 40.589843-33.710938 5.09375-3.332031 11.675781-3.332031 16.769531 0 0 0 18.558594 14.816407 44.6875 37.21875zm0 0" fill="#ececf1"/><path d="m233.007812 178.800781s18.558594 14.816407 44.6875 37.21875c-6.347656 4.269531-13.980468 6.769531-22.207031 6.769531-6.238281 0-12.140625-1.433593-17.398437-3.992187-5.816406-2.828125-12.527344-2.828125-18.34375 0-5.257813 2.558594-11.160156 3.992187-17.398438 3.992187-3.71875 0-7.316406-.515624-10.730468-1.46875 22.011718-23.230468 41.230468-42.625 41.390624-42.519531zm0 0" fill="#fff5f5"/><path d="m152.25 305.226562c-.351562 5.429688-5.105469 9.539063-10.546875 9.539063h-40.53125c-5.640625 0-10.21875 4.574219-10.21875 10.21875s-4.574219 10.21875-10.21875 10.21875h-40.878906c-5.867188 0-10.582031-4.949219-10.195313-10.898437.351563-5.433594 5.105469-9.539063 10.546875-9.539063h9.867188c5.644531 0 10.222656-4.574219 10.222656-10.21875s4.574219-10.222656 10.21875-10.222656h71.535156c5.871094.003906 10.582031 4.949219 10.199219 10.902343zm178.863281-82.4375h25.550781v-20.4375h-51.097656c-5.644531 0-10.222656 4.574219-10.222656 10.21875 0 5.644532 4.578125 10.21875 10.222656 10.21875h5.109375c2.820313 0 5.109375 2.289063 5.109375 5.109376 0 2.824218-2.289062 5.109374-5.109375 5.109374h-56.207031c-5.644531 0-10.222656 4.578126-10.222656 10.222657s4.578125 10.21875 10.222656 10.21875h81.753906c5.644532 0 10.21875-4.574219 10.21875-10.21875s-4.574218-10.222657-10.21875-10.222657h-5.109375c-2.820312 0-5.109375-2.285156-5.109375-5.109374 0-2.820313 2.289063-5.109376 5.109375-5.109376zm0 0" fill="#b0dde9"/><path d="m512 408.785156v10.21875c0 8.46875-6.863281 15.332032-15.328125 15.332032h-416.148437c-13.332032-12.269532-25.261719-25.992188-35.644532-40.878907h451.792969c8.464844 0 15.328125 6.863281 15.328125 15.328125zm0 0" fill="#d3d3d8"/><path d="m481.339844 413.894531h-308.628906c-5.644532 0-10.21875-4.574219-10.21875-10.21875s4.574218-10.21875 10.21875-10.21875h308.628906c5.644531 0 10.222656 4.574219 10.222656 10.21875s-4.578125 10.21875-10.222656 10.21875zm0 0" fill="#ececf1"/></svg>