<?xml version="1.0" encoding="iso-8859-1"?>
<!-- Generator: Adobe Illustrator 16.0.0, SVG Export Plug-In . SVG Version: 6.00 Build 0)  -->
<!DOCTYPE svg PUBLIC "-//W3C//DTD SVG 1.1//EN" "http://www.w3.org/Graphics/SVG/1.1/DTD/svg11.dtd">
<svg version="1.1" id="Capa_1" xmlns="http://www.w3.org/2000/svg" xmlns:xlink="http://www.w3.org/1999/xlink" x="0px" y="0px"
	 width="70.1px" height="70.1px" viewBox="0 0 70.1 70.1" style="enable-background:new 0 0 70.1 70.1;" xml:space="preserve">
<g>
	<path d="M64.162,67.297c0.301-1.608,0.948-5.328,0.691-6.04c-0.336-0.91-6.53-6.037-7.029-6.283
		c-0.496-0.243,2.484-5.119,2.728-6.618c0.25-1.485-0.992-2.889-2.229-3.471c-1.245-0.574-1.656-0.574-1.988-1.399
		c-0.331-0.828-0.242-1.984-1.32-2.313c-1.078-0.332-2.316,0.079-2.646,0.992L46.832,0l-7.679,0.411l2.642,31.171
		c0,0-0.082,3.14-0.582,3.718c-0.499,0.585-4.305,2.316-4.716,2.48c-0.412,0.158-1.154,2.231-1.24,3.299
		c-0.084,1.082-0.084,3.56-0.084,3.56s-3.14,0.91-4.043,0.746c-0.916-0.171-4.717,0.493-5.792,1.485
		c-1.069,0.992-4.212,4.798-5.292,5.119c-1.073,0.336-3.384,0.828-4.541,2.156c-1.16,1.314-3.143,4.209-4.143,5.201
		c-0.802,0.805-5.651,5.989-7.484,7.939H1.858V70.1h66.383v-2.813h-4.079V67.297z M24.017,53.652
		c0.659-0.335,4.712-1.242,6.197-2.562c1.494-1.321,2.237-1.817,2.979-2.061c0.746-0.253,1.24-0.168,1.24-0.168
		s-0.578,5.702-1.16,6.283c-0.578,0.575-3.301,2.07-4.3,2.889c-0.626,0.521-2.372,1.811-3.578,2.68
		c-0.094-0.698-0.539-1.064-1.054-1.438c-0.582-0.411-2.812-2.98-2.812-2.98S23.353,53.981,24.017,53.652z M18.363,67.297H7.122
		c2.625-2.228,10.258-8.688,10.6-9.075c0.046,0.283,4.226,3.617,4.226,3.617L18.363,67.297z M34.598,64.897l-0.084,0.568
		c-0.696,0.664-1.388,1.321-1.919,1.828H22.554c1.483-1.438,3.75-3.573,5.019-4.463c1.986-1.41,6.861-4.052,7.195-3.888
		C35.089,59.111,34.598,64.897,34.598,64.897z M42.985,45.101l0.123,2.111c0,0-0.869-0.13-1.111-0.287
		c-0.25-0.175-0.948-0.626-0.743-0.876C41.456,45.796,42.862,44.598,42.985,45.101z M42.862,58.937c0,0-2.964,1.797-4.794,3.21
		c0.394-3.035,0.438-5.872,1.372-7.632c0.551-1.054,2.107-2.765,2.107-2.765s0.493,4.045,0.657,5.037
		C42.37,57.79,42.862,58.937,42.862,58.937z M37.489,39.68c0.041-0.455,0.918-0.913,1.403-1.156
		c0.493-0.247,3.183-2.022,3.183-2.022l0.287,4.127c0,0-1.218-0.301-2.278,0.685c-0.479,0.444-1.023,2.17-1.023,2.17l-0.907,0.369
		c0,0-0.746-0.619-0.828-0.784C37.243,42.91,37.448,40.139,37.489,39.68z M36.406,67.297c0.98-0.763,2.329-1.797,3.068-2.234
		c1.239-0.746,2.149-1.981,2.724-2.317c0.589-0.332,2.238-0.821,2.238-0.821l0.425,5.373H36.406z M61.876,62.995
		c-0.062,0.353-0.28,2.83-0.404,4.302h-6.159l-1.044-8.604c0,0,4.459,2.32,5.54,2.649C60.891,61.674,61.958,62.495,61.876,62.995z"
		/>
</g>
<g>
</g>
<g>
</g>
<g>
</g>
<g>
</g>
<g>
</g>
<g>
</g>
<g>
</g>
<g>
</g>
<g>
</g>
<g>
</g>
<g>
</g>
<g>
</g>
<g>
</g>
<g>
</g>
<g>
</g>
</svg>
