<svg id="Capa_1" enable-background="new 0 0 511.925 511.925" height="512" viewBox="0 0 511.925 511.925" width="512" xmlns="http://www.w3.org/2000/svg"><path d="m468.849 239.925-137.699 137.699c-43.5 43.5-103.801 58.801-159.6 46.201-30.901-6.601-60.601-21.901-84.6-46.201-67.2-67.2-67.2-176.4 0-243.9l84.6-84.598 16.199-16.201c6-5.7 15.3-5.7 21.301 0 11.7 11.7 11.7 30.901 0 42.601l-37.5 37.5-24.3 24.298c-6 5.7-6 15.3 0 21.301 5.7 5.7 15.3 5.7 21.301 0l2.999-2.999 148.801-149.101c9-8.699 23.099-8.699 31.8 0 9 8.701 9 23.101 0 31.802l-121.8 122.098c-6 5.7-6 15.3 0 21 5.7 6 15.298 6 20.999 0l164.401-164.399c9-8.699 23.099-8.699 31.8 0 9 9 9 23.101 0 31.8l-164.402 164.399c-5.698 6-5.698 15.601 0 21.301 6 5.999 15.601 5.999 21.301 0l122.1-121.8c8.699-9 23.101-9 31.8 0 8.699 8.699 8.699 22.798 0 31.8l-122.1 121.8c-5.7 5.999-5.7 15.3 0 21.299 6 5.7 15.3 5.7 21.301 0l79.499-79.499c8.701-9 23.101-9 31.8 0 8.701 8.699 8.701 22.8-.001 31.799z" fill="#fed2a4"/><path d="m209.05 75.526-37.5 37.5v-63.9l16.199-16.201c6-5.7 15.3-5.7 21.301 0 11.701 11.7 11.701 30.901 0 42.601z" fill="#ffbd86"/><path d="m468.849 239.925-137.699 137.699c-43.5 43.5-103.801 58.801-159.6 46.201v-268.2l148.801-149.1c9-8.699 23.099-8.699 31.8 0 9 8.701 9 23.101 0 31.802l-121.8 122.098c-6 5.7-6 15.3 0 21 5.7 6 15.298 6 20.999 0l164.401-164.399c9-8.699 23.099-8.699 31.8 0 9 9 9 23.101 0 31.8l-164.402 164.399c-5.698 6-5.698 15.601 0 21.301 6 5.999 15.601 5.999 21.301 0l122.1-121.8c8.699-9 23.101-9 31.8 0 8.699 8.699 8.699 22.798 0 31.8l-122.1 121.8c-5.7 5.999-5.7 15.3 0 21.299 6 5.7 15.3 5.7 21.301 0l79.499-79.499c8.701-9 23.101-9 31.8 0 8.701 8.699 8.701 22.8-.001 31.799z" fill="#ffbd86"/><path d="m186.55 344.925v60c0 8.399-6.599 15-15 15s-15-6.601-15-15v-60c0-8.401 6.599-15 15-15s15 6.6 15 15z" fill="#725d57"/><path d="m186.55 344.925v60c0 8.399-6.599 15-15 15v-90c8.401 0 15 6.6 15 15z" fill="#53433f"/><path d="m171.55 269.925c-24.901 0-45 20.099-45 45 0 24.899 20.099 45 45 45s45-20.101 45-45c0-24.9-20.099-45-45-45z" fill="#e63950"/><path d="m216.55 314.925c0 24.899-20.099 45-45 45v-90c24.901 0 45 20.1 45 45z" fill="#cd0000"/><path d="m171.55 209.925c-24.901 0-45 20.099-45 45 0 24.899 20.099 45 45 45s45-20.101 45-45c0-24.9-20.099-45-45-45z" fill="#ff637b"/><path d="m216.55 254.925c0 24.899-20.099 45-45 45v-90c24.901 0 45 20.1 45 45z" fill="#e63950"/><path d="m171.55 149.925c-24.901 0-45 20.099-45 45 0 24.899 20.099 45 45 45s45-20.101 45-45c0-24.9-20.099-45-45-45z" fill="#ff8e8e"/><path d="m171.55 239.925v-90c24.901 0 45 20.099 45 45 0 24.899-20.099 45-45 45z" fill="#ff637b"/><path d="m171.55 389.925c-24.901 0-45 20.099-45 45v62c0 8.399 6.599 15 15 15h60c8.401 0 15-6.601 15-15v-62c0-24.9-20.099-45-45-45z" fill="#fdbf00"/><path d="m216.55 434.925v62c0 8.399-6.599 15-15 15h-30v-122c24.901 0 45 20.1 45 45z" fill="#ff9100"/></svg>