<?xml version="1.0" encoding="iso-8859-1"?>
<!-- Generator: Adobe Illustrator 19.0.0, SVG Export Plug-In . SVG Version: 6.00 Build 0)  -->
<svg version="1.1" id="Capa_1" xmlns="http://www.w3.org/2000/svg" xmlns:xlink="http://www.w3.org/1999/xlink" x="0px" y="0px"
	 viewBox="0 0 512.001 512.001" style="enable-background:new 0 0 512.001 512.001;" xml:space="preserve">
<path style="fill:#4F4F4F;" d="M361,401.857c-12.406,0-22.5-10.093-22.5-22.5v-97.5h15v97.5c0,4.135,3.364,7.5,7.5,7.5
	s7.5-3.364,7.5-7.5v-97.5h15v97.5C383.5,391.763,373.406,401.857,361,401.857z"/>
<rect x="143.5" y="46.857" style="fill:#FFCB63;" width="15" height="35"/>
<rect x="136" y="74.36" style="fill:#FFF0D3;" width="30" height="70"/>
<path style="fill:#FF6337;" d="M161.607,28.75c5.858,5.858,5.858,15.355,0,21.213s-15.355,5.858-21.213,0s-5.858-15.355,0-21.213
	L151,18.143L161.607,28.75z"/>
<path style="fill:#FF4128;" d="M136,166.857c-4.136,0-7.5-3.364-7.5-7.5s3.364-7.5,7.5-7.5h30c4.142,0,7.5-3.358,7.5-7.5
	s-3.358-7.5-7.5-7.5h-30c-12.407,0-22.5,10.093-22.5,22.5s10.093,22.5,22.5,22.5h120v-15H136z"/>
<g>
	<path style="fill:#FFCB63;" d="M106,196.857c-4.142,0-7.5,3.358-7.5,7.5v25h15v-25C113.5,200.215,110.142,196.857,106,196.857z"/>
	<path style="fill:#FFCB63;" d="M166,196.857c-4.142,0-7.5,3.358-7.5,7.5v25h15v-25C173.5,200.215,170.142,196.857,166,196.857z"/>
	<rect x="38.5" y="161.86" style="fill:#FFCB63;" width="15" height="45"/>
</g>
<path style="fill:#FFD9D4;" d="M218.5,274.357v196.592l-24.87,8.29c-3.93,1.31-6.053,5.557-4.744,9.487
	c1.31,3.93,5.559,6.054,9.487,4.744l29.998-10c3.063-1.021,5.128-3.887,5.128-7.115V274.357H218.5z"/>
<path style="fill:#FFB4A9;" d="M293.5,274.357v196.592l24.87,8.29c3.93,1.31,6.053,5.557,4.744,9.487
	c-1.31,3.93-5.559,6.054-9.487,4.744l-29.998-10c-3.063-1.021-5.128-3.887-5.128-7.115V274.357H293.5z"/>
<g>
	<rect x="91" y="219.36" style="fill:#FFF0D3;" width="30" height="55"/>
	<rect x="151" y="219.36" style="fill:#FFF0D3;" width="30" height="55"/>
</g>
<polygon style="fill:#353535;" points="474.5,274.357 376,274.357 444.5,229.357 474.5,229.357 "/>
<polygon style="fill:#4F4F4F;" points="444.5,274.357 331,274.357 331,229.357 377,229.357 403.25,199.357 429.5,229.357 
	444.5,229.357 "/>
<rect x="31" y="189.36" style="fill:#FFF0D3;" width="30" height="85"/>
<path style="fill:#FF6337;" d="M56.607,143.75c5.858,5.858,5.858,15.355,0,21.213s-15.355,5.858-21.213,0s-5.858-15.355,0-21.213
	L46,133.143L56.607,143.75z"/>
<rect x="426.67" y="433.86" style="fill:#FFA754;" width="71.67" height="15"/>
<g>
	<path style="fill:#C27749;" d="M511.93,485.337l-28.371-207l-14.861,2.037l28.371,207c0.563,4.103,4.334,6.973,8.449,6.412
		C509.621,493.224,512.492,489.441,511.93,485.337z"/>
	<path style="fill:#C27749;" d="M441.439,278.338l-28.371,207c-0.563,4.104,2.309,7.887,6.412,8.449
		c4.102,0.56,7.887-2.309,8.449-6.412l28.371-207L441.439,278.338z"/>
	<polygon style="fill:#C27749;" points="447.499,289.357 462.499,274.357 477.499,289.357 481.32,319.357 443.678,319.357 	"/>
</g>
<rect x="13.669" y="433.86" style="fill:#FFA754;" width="71.67" height="15"/>
<g>
	<path style="fill:#C27749;" d="M98.932,485.337l-28.371-207L55.7,280.374l28.371,207c0.563,4.103,4.334,6.973,8.449,6.412
		C96.623,493.224,99.494,489.441,98.932,485.337z"/>
	<path style="fill:#C27749;" d="M28.441,278.338l-28.371,207c-0.563,4.104,2.309,7.887,6.412,8.449
		c4.102,0.56,7.887-2.309,8.449-6.412l28.371-207L28.441,278.338z"/>
	<polygon style="fill:#C27749;" points="34.501,289.357 49.501,274.357 64.501,289.357 68.322,319.357 30.68,319.357 	"/>
</g>
<path style="fill:#CF301B;" d="M281,154.357h-30v120h50v-100C301,163.311,292.046,154.357,281,154.357z"/>
<path style="fill:#FF4128;" d="M251,154.357h-20c-11.046,0-20,8.954-20,20v100h60v-100C271,163.311,262.046,154.357,251,154.357z"/>
<polygon style="fill:#1990C2;" points="315.5,274.357 226,274.357 286,334.357 316,334.357 "/>
<rect x="196" y="274.36" style="fill:#2DADE3;" width="90" height="60"/>
<circle style="fill:#FF6337;" cx="304.02" cy="101.82" r="22.6"/>
<path style="fill:#FFB4A9;" d="M270.092,63.969L256,124.421c24.853,0,45-20.147,45-45L270.092,63.969z"/>
<path style="fill:#FFD9D4;" d="M271,79.421c0-5.429-0.321-10.634-0.908-15.453l-41.095-20.546C218.07,51.633,211,64.701,211,79.421
	c0,24.853,20.147,45,45,45C264.284,124.421,271,104.274,271,79.421z"/>
<path style="fill:#FF6337;" d="M256,34.421l14.899,39.832c9.413,3.341,19.543,5.168,30.101,5.168
	C301,54.569,280.853,34.421,256,34.421z"/>
<path style="fill:#FF8646;" d="M256,34.421c-10.132,0-19.481,3.35-27.003,9.002c10.532,14.02,25.066,24.856,41.901,30.831
	C270.044,51.836,263.701,34.421,256,34.421z"/>
<polygon style="fill:#FFA754;" points="474.5,259.357 444.5,274.357 474.5,289.357 504.5,289.357 504.5,259.357 "/>
<rect x="7.5" y="259.36" style="fill:#FFCB63;" width="467" height="30"/>
<path style="fill:#B3B3B3;" d="M414.5,174.357l-15,55h30c8.25,0,15-6.75,15-15v-40H414.5z"/>
<g>
	<path style="fill:#CCCCCC;" d="M414.5,214.357v-40H362v40c0,8.25,6.75,15,15,15h22.5C407.75,229.357,414.5,222.607,414.5,214.357z"
		/>
	<path style="fill:#CCCCCC;" d="M504.5,166.857H362v15h142.5c4.143,0,7.5-3.358,7.5-7.5S508.643,166.857,504.5,166.857z"/>
</g>
<g>
</g>
<g>
</g>
<g>
</g>
<g>
</g>
<g>
</g>
<g>
</g>
<g>
</g>
<g>
</g>
<g>
</g>
<g>
</g>
<g>
</g>
<g>
</g>
<g>
</g>
<g>
</g>
<g>
</g>
</svg>
