<?xml version="1.0" encoding="iso-8859-1"?>
<!-- Generator: Adobe Illustrator 19.0.0, SVG Export Plug-In . SVG Version: 6.00 Build 0)  -->
<svg xmlns="http://www.w3.org/2000/svg" xmlns:xlink="http://www.w3.org/1999/xlink" version="1.1" id="Capa_1" x="0px" y="0px" viewBox="0 0 520 520" style="enable-background:new 0 0 520 520;" xml:space="preserve" width="512" height="512">
<g id="XMLID_901_">
	<path id="XMLID_902_" style="fill:#767780;" d="M220,130c-8.284,0-15,6.716-15,15v75c0,8.284,6.716,15,15,15h40l10.008-52.5   L260,130H220z"/>
	<path id="XMLID_905_" style="fill:#5F6066;" d="M300,130h-40v105h40c8.284,0,15-6.716,15-15v-75C315,136.716,308.284,130,300,130z"/>
	<path id="XMLID_906_" style="fill:#3E3E42;" d="M505,60c-8.284,0-15,6.716-15,15v31.295l-20,11.429l-20-11.429V75   c0-8.284-6.716-15-15-15s-15,6.716-15,15v40c0,5.383,2.884,10.353,7.558,13.023L455,143.705V200c0,8.284,6.716,15,15,15   s15-6.716,15-15v-56.295l27.442-15.681C517.116,125.353,520,120.383,520,115V75C520,66.716,513.284,60,505,60z"/>
	<path id="XMLID_907_" style="fill:#56545C;" d="M85,60c-8.284,0-15,6.716-15,15v31.295l-20,11.429l-20-11.429V75   c0-8.284-6.716-15-15-15S0,66.716,0,75v40c0,5.383,2.884,10.353,7.558,13.023L35,143.705V200c0,8.284,6.716,15,15,15   s15-6.716,15-15v-56.295l27.442-15.681C97.116,125.353,100,120.383,100,115V75C100,66.716,93.284,60,85,60z"/>
	<path id="XMLID_908_" style="fill:#3E3E42;" d="M380.012,295.003c-5.503,0-10.8-3.038-13.428-8.295   c-3.705-7.409-0.701-16.42,6.708-20.124l55-27.5c7.408-3.707,16.419-0.701,20.125,6.708c3.705,7.409,0.701,16.42-6.708,20.124   l-55,27.5C384.555,294.493,382.266,295.003,380.012,295.003z"/>
	<g id="XMLID_909_">
		<path id="XMLID_910_" style="fill:#56545C;" d="M139.988,295.003c-2.254,0-4.543-0.51-6.696-1.587l-55-27.5    c-7.41-3.704-10.413-12.715-6.708-20.124s12.716-10.415,20.125-6.708l55,27.5c7.41,3.704,10.413,12.715,6.708,20.124    C150.789,291.964,145.491,295.003,139.988,295.003z"/>
	</g>
	<path id="XMLID_911_" style="fill:#5C6BC0;" d="M180,0c-3.246,0-6.403,1.053-9,3l-40,30c-3.777,2.833-6,7.278-6,12v70   c0,4.722,2.223,9.167,6,12l40,30c2.597,1.947,5.754,3,9,3h80l10.008-81L260,0H180z"/>
	<path id="XMLID_912_" style="fill:#3949AB;" d="M389,33L349,3c-2.597-1.947-5.754-3-9-3h-80v160h80c3.246,0,6.403-1.053,9-3l40-30   c3.777-2.833,6-7.278,6-12V45C395,40.278,392.777,35.833,389,33z"/>
	<path id="XMLID_913_" style="fill:#FFF176;" d="M200,65c-8.284,0-15,6.716-15,15s6.716,15,15,15h60l10.008-15L260,65H200z"/>
	<path id="XMLID_914_" style="fill:#FDD835;" d="M320,65h-60v30h60c8.284,0,15-6.716,15-15S328.284,65,320,65z"/>
	<path id="XMLID_915_" style="fill:#26A69A;" d="M180,205c-3.25,0-6.4,1.05-9,3l-40,30c-3.78,2.83-6,7.28-6,12v200   c0,4.2,1.76,8.22,4.86,11.06l60,55c2.77,2.53,6.39,3.94,10.14,3.94h60l10.008-157.5L260,205H180z"/>
	<path id="XMLID_916_" style="fill:#00897B;" d="M389,238l-40-30c-2.6-1.95-5.75-3-9-3h-80v315h60c3.75,0,7.37-1.41,10.14-3.94   l60-55c3.1-2.84,4.86-6.86,4.86-11.06V250C395,245.28,392.78,240.83,389,238z"/>
	<path id="XMLID_917_" style="fill:#EEEEEE;" d="M220,275c-8.284,0-15,6.716-15,15s6.716,15,15,15h40l10.008-15L260,275H220z"/>
	<path id="XMLID_918_" style="fill:#E0E0E0;" d="M300,275h-40v30h40c8.284,0,15-6.716,15-15S308.284,275,300,275z"/>
	<path id="XMLID_919_" style="fill:#80DEEA;" d="M240,415c-8.284,0-15,6.716-15,15s6.716,15,15,15h20l10.008-15L260,415H240z"/>
	<path id="XMLID_920_" style="fill:#26B2BC;" d="M280,415h-20v30h20c8.284,0,15-6.716,15-15S288.284,415,280,415z"/>
	<path id="XMLID_923_" style="fill:#5F6066;" d="M470,185c-27.57,0-50,22.43-50,50s22.43,50,50,50s50-22.43,50-50   S497.57,185,470,185z"/>
	<path id="XMLID_924_" style="fill:#767780;" d="M50,185c-27.57,0-50,22.43-50,50s22.43,50,50,50s50-22.43,50-50S77.57,185,50,185z"/>
	<path id="XMLID_925_" style="fill:#00897B;" d="M218.75,345L125,295v34l82.94,44.24c2.17,1.15,4.6,1.76,7.06,1.76h45l10.008-12.5   L260,345H218.75z"/>
	<path id="XMLID_926_" style="fill:#007264;" d="M296.46,345H260v30h40c2.33,0,4.63-0.54,6.71-1.58L395,329.28v-33.55L296.46,345z"/>
</g>















</svg>
