<svg height="504pt" viewBox="-9 0 504 504.9705" width="504pt" xmlns="http://www.w3.org/2000/svg"><g fill="#ffdbad"><path d="m243.890625 169.316406v-71.429687c0-11.585938-9.394531-20.980469-20.984375-20.980469s-20.984375 9.394531-20.984375 20.980469v-41.964844c0-11.589844-9.394531-20.984375-20.984375-20.984375-11.585938 0-20.980469 9.394531-20.980469 20.984375v-25.179687c0-11.589844-9.394531-20.984376-20.984375-20.984376s-20.984375 9.394532-20.984375 20.984376v25.179687c0-11.589844-9.394531-20.984375-20.984375-20.984375-11.585937 0-20.984375 9.394531-20.984375 20.984375v214.03125l-16.785156-50.359375c.011719-11.695312-2.902344-23.207031-8.476563-33.488281-4.597656-9.839844-14.253906-16.328125-25.097656-16.871094-4.742187 0-9.265625 2.003906-12.449218 5.523437-3.183594 3.519532-4.726563 8.21875-4.253907 12.941407l25.097657 149.402343v5.539063c0 23.554687 8.257812 46.363281 23.332031 64.460937l5.039062 5.960938c8.789063 10.558594 13.597657 23.863281 13.59375 37.601562v37.519532c0 4.636718 3.757813 8.394531 8.394531 8.394531h109.117188c4.632812 0 8.390625-3.757813 8.390625-8.394531v-37.519532c-.003906-13.738281 4.808594-27.042968 13.597656-37.601562l5.035157-5.960938c15.078124-18.097656 23.335937-40.90625 23.335937-64.460937zm0 0"/><path d="m462.121094 169.234375c-4.984375-.023437-9.851563 1.5-13.933594 4.363281-4.636719 3.253906-8.457031 7.53125-11.164062 12.507813-5.574219 10.28125-8.488282 21.792969-8.476563 33.488281l-16.789063 50.359375v-214.03125c0-7.949219-4.488281-15.214844-11.597656-18.769531-7.109375-3.554688-15.617187-2.785156-21.976562 1.980468-2.484375-1.855468-5.351563-3.144531-8.390625-3.777343v-4.613281c0-7.949219-4.492188-15.214844-11.601563-18.769532-7.109375-3.554687-15.613281-2.789062-21.972656 1.980469-.8125.578125-1.570312 1.222656-2.265625 1.929687-3.933594 3.945313-6.136719 9.289063-6.128906 14.859376v24.339843c-.449219-11.261719-9.714844-20.152343-20.984375-20.144531-1.40625.011719-2.8125.152344-4.195313.417969-3.039062.632812-5.90625 1.921875-8.394531 3.777343-.808594.578126-1.566406 1.222657-2.265625 1.933594-3.933594 3.941406-6.136719 9.285156-6.125 14.855469v41.964844c0-5.5625-2.210937-10.902344-6.148437-14.835938-3.933594-3.933593-9.273438-6.144531-14.835938-6.144531-1.410156.007812-2.816406.148438-4.199219.417969-3.039062.628906-5.90625 1.917969-8.390625 3.777343-.8125.578126-1.570312 1.222657-2.269531 1.929688-3.929687 3.945312-6.136719 9.289062-6.125 14.855469v244.753906c0 23.554687 8.257813 46.363281 23.332031 64.460937l5.039063 5.960938c8.789062 10.558594 13.597656 23.863281 13.597656 37.601562v37.519532c0 4.636718 3.757813 8.394531 8.390625 8.394531h109.117188c4.632812 0 8.390624-3.757813 8.390624-8.394531v-37.519532c0-13.738281 4.808594-27.042968 13.597657-37.601562l5.035156-5.960938c15.078125-18.097656 23.335937-40.90625 23.335937-64.460937v-5.539063l25.097657-149.402343c.472656-4.722657-1.070313-9.421875-4.253907-12.941407-3.183593-3.519531-7.707031-5.523437-12.449218-5.523437zm0 0"/><path d="m453.640625 187.699219-25.09375 149.402343v5.539063c-.003906 23.554687-8.257813 46.363281-23.335937 64.460937l-5.035157 5.960938c-8.789062 10.558594-13.601562 23.863281-13.597656 37.601562v37.519532c0 4.636718-3.757813 8.394531-8.394531 8.394531h-83.933594c-4.632812 0-8.390625-3.757813-8.390625-8.394531v-37.519532c0-13.738281-4.808594-27.042968-13.597656-37.601562l-5.039063-5.960938c-15.074218-18.097656-23.332031-40.90625-23.332031-64.460937v-244.753906c-.011719-5.566407 2.195313-10.910157 6.125-14.855469.699219-.707031 1.457031-1.351562 2.269531-1.929688 2.484375-1.859374 5.351563-3.148437 8.390625-3.777343 1.382813-.269531 2.789063-.410157 4.199219-.417969 11.585938 0 20.984375 9.394531 20.984375 20.980469v-41.964844c-.011719-5.570313 2.191406-10.914063 6.125-14.855469.699219-.710937 1.457031-1.355468 2.265625-1.933594 2.488281-1.855468 5.355469-3.144531 8.394531-3.777343 1.382813-.265625 2.789063-.40625 4.195313-.417969 11.269531-.007812 20.535156 8.882812 20.984375 20.144531v-24.339843c-.007813-5.570313 2.195312-10.914063 6.128906-14.859376.695313-.707031 1.453125-1.351562 2.265625-1.929687 6.359375-4.769531 14.863281-5.535156 21.972656-1.980469 7.109375 3.554688 11.601563 10.820313 11.601563 18.769532v24.339843c.222656-5.273437 2.40625-10.273437 6.125-14.015625.699219-.710937 1.457031-1.355468 2.265625-1.933594 6.359375-4.765624 14.867187-5.535156 21.976562-1.980468 7.109375 3.554687 11.597656 10.820312 11.597656 18.769531v214.03125l16.789063-50.359375c-.011719-11.695312 2.902344-23.207031 8.476563-33.488281 2.707031-4.976563 6.527343-9.253907 11.164062-12.507813 3.964844 3.558594 5.992188 8.800782 5.453125 14.101563zm0 0"/></g><path d="m478.824219 187.699219-25.097657 149.402343v5.539063c0 23.554687-8.257812 46.363281-23.335937 64.460937l-5.035156 5.960938c-8.789063 10.558594-13.597657 23.863281-13.597657 37.601562v37.519532c0 4.636718-3.757812 8.394531-8.390624 8.394531h-25.183594c4.636718 0 8.394531-3.757813 8.394531-8.394531v-37.519532c-.003906-13.738281 4.808594-27.042968 13.597656-37.601562l5.035157-5.960938c15.078124-18.097656 23.332031-40.90625 23.335937-64.460937v-5.539063l25.09375-149.402343c.539063-5.300781-1.488281-10.542969-5.453125-14.101563 4.082031-2.863281 8.949219-4.386718 13.933594-4.363281 4.742187 0 9.265625 2.003906 12.449218 5.523437 3.183594 3.519532 4.726563 8.21875 4.253907 12.941407zm0 0" fill="#baa380"/><path d="m378.183594 39.132812c-.808594.578126-1.566406 1.222657-2.265625 1.933594-3.71875 3.742188-5.902344 8.742188-6.125 14.015625v-19.726562c3.039062.632812 5.90625 1.921875 8.390625 3.777343zm0 0" fill="#ffdbad"/><path d="m319.164062 395.855469c-4.144531-.003907-8.269531-.570313-12.265624-1.679688-19.695313-6.328125-37.5-17.46875-51.804688-32.414062-13.78125-12.546875-24.71875-22.503907-41.125-22.898438-27.40625 6.800781-81.71875 6.386719-98.707031-42.746093-11.417969-33.019532-3.46875-54.472657 5.210937-66.652344 11.113282-15.269532 28.726563-24.457032 47.609375-24.835938 5.5625 0 9.5-4.316406 16.550781-12.589844 12.589844-14.730468 29.820313-34.902343 74.011719-30.644531 46.039063 4.4375 60.097657 35.738281 73.695313 66.003907 6.777344 17.359374 16.207031 33.558593 27.949218 48.027343 25.183594 28.269531 20.488282 67.03125 5.523438 91.085938-9.351562 17.265625-27.039062 28.390625-46.648438 29.34375zm0 0" fill="#795548"/><path d="m462.121094 160.839844c-13.871094.484375-26.335938 8.601562-32.382813 21.09375-6.101562 11.125-9.390625 23.570312-9.585937 36.257812v-162.269531c-.027344-10.0625-5.191406-19.414063-13.695313-24.796875-8.503906-5.382812-19.164062-6.046875-28.273437-1.769531-.011719-16.222657-13.171875-29.3671878-29.394532-29.355469-16.226562.0117188-29.371093 13.171875-29.359374 29.398438-9.097657-4.316407-19.769532-3.671876-28.285157 1.707031-8.511719 5.382812-13.675781 14.746093-13.679687 24.816406v15.425781c-11.226563-5.320312-24.582032-3.019531-33.382813 5.75-.074219.074219-.117187.160156-.191406.234375-.074219-.074219-.117187-.160156-.195313-.234375-8.796874-8.769531-22.152343-11.070312-33.378906-5.75v-15.425781c-.007812-10.070313-5.171875-19.433594-13.683594-24.816406-8.511718-5.378907-19.183593-6.023438-28.285156-1.707031-.699218-15.699219-13.632812-28.0625-29.347656-28.0625-15.710938 0-28.644531 12.363281-29.347656 28.0625-9.105469-4.304688-19.777344-3.65625-28.296875 1.71875-8.515625 5.375-13.695313 14.734374-13.726563 24.804687v162.269531c-.191406-12.6875-3.480468-25.132812-9.578125-36.257812-6.050781-12.496094-18.515625-20.613282-32.390625-21.09375-7.210937 0-14.078125 3.09375-18.855468 8.496094-4.777344 5.40625-7.011719 12.597656-6.132813 19.753906l24.988281 148.707031v4.84375c.015625 25.535156 8.972656 50.257813 25.316406 69.875l5.035157 5.875c7.523437 9.070313 11.632812 20.488281 11.617187 32.273437v37.519532c0 9.269531 7.515625 16.785156 16.785156 16.785156h109.117188c9.269531 0 16.785156-7.515625 16.785156-16.785156v-37.519532c.007813-11.742187 4.113282-23.113281 11.617188-32.144531l5.035156-6.003906c7.039062-8.488281 12.742188-17.996094 16.921875-28.199219 4.183594 10.199219 9.886719 19.710938 16.921875 28.199219l5.035156 5.875c7.523438 9.070313 11.632813 20.488281 11.617188 32.273437v37.519532c0 9.269531 7.515625 16.785156 16.785156 16.785156h109.117188c9.269531 0 16.785156-7.515625 16.785156-16.785156v-37.519532c.007812-11.742187 4.117187-23.113281 11.617187-32.144531l5.035157-6.003906c16.347656-19.617187 25.304687-44.339844 25.316406-69.875v-4.84375l25.054687-149.257813c.710938-7.082031-1.609375-14.132812-6.382812-19.410156-4.773438-5.277344-11.558594-8.289062-18.671875-8.289062zm-180.585938 124.699218c12.035156 7.757813 25.972656 12.050782 40.289063 12.40625 10.132812.046876 20.097656-2.589843 28.882812-7.644531 13.789063 20.246094 14.121094 46.78125.835938 67.363281-8.054688 12.96875-22.878907 25.089844-40.1875 20.339844-17.125-5.683594-32.574219-15.527344-44.960938-28.648437-14.742187-13.429688-29.972656-27.285157-53.449219-27.285157-.71875.003907-1.429687.09375-2.125.277344-2.570312.667969-63.277343 15.820313-79.738281-31.710937-7.183593-20.785157-6.136719-38.570313 3.023438-51.429688 6.210937-8.476562 15.269531-14.4375 25.515625-16.785156 27.234375-3.425781 44.425781 4.960937 51.089844 24.96875 1.464843 4.40625 6.222656 6.789063 10.625 5.324219 4.40625-1.464844 6.789062-6.222656 5.324218-10.628906-4.871094-16.277344-17.570312-29.039063-33.828125-33.984376 1.546875-1.675781 3.066407-3.433593 4.550781-5.175781 11.296876-13.253906 24.089844-28.253906 59.59375-24.839843 36.335938 3.503906 46.765626 26.75 59.988282 56.179687 6.199218 14.992187 13.9375 29.296875 23.097656 42.6875-9.058594 4.476563-26.171875 8.445313-49.933594-5.875-2.570312-1.609375-5.8125-1.703125-8.476562-.25-2.664063 1.457031-4.332032 4.234375-4.367188 7.269531s1.570313 5.851563 4.199219 7.367188zm12.714844-229.617187c0-6.953125 5.636719-12.589844 12.589844-12.589844s12.589844 5.636719 12.589844 12.589844v145.324219c-6.078126-11.195313-14.703126-20.804688-25.179688-28.050782zm-38.296875 33.042969c3.601563-3.617188 9.027344-4.699219 13.746094-2.746094 4.714843 1.957031 7.78125 6.566406 7.765625 11.667969v67.382812c-6.117188-1.96875-12.429688-3.265625-18.828125-3.859375-2.199219-.210937-4.28125-.320312-6.351563-.410156v-63.113281c-.019531-3.34375 1.300782-6.554688 3.667969-8.921875zm-33.046875-3.667969c3.34375-.015625 6.558594 1.304687 8.921875 3.667969 2.367187 2.367187 3.6875 5.578125 3.667969 8.921875v63.648437c-8.8125.976563-17.359375 3.621094-25.179688 7.796875v-71.445312c0-3.335938 1.328125-6.539063 3.6875-8.902344 2.359375-2.359375 5.5625-3.6875 8.902344-3.6875zm-41.96875-41.964844c3.347656-.019531 6.558594 1.300781 8.925781 3.667969 2.363281 2.363281 3.683594 5.578125 3.667969 8.921875v126.277344c-3.316406 3.359375-6.230469 6.714843-8.90625 9.855469-6.925781 8.125-10.863281 12.378906-16.277344 12.523437v-148.65625c0-6.953125 5.636719-12.589844 12.589844-12.589844zm33.214844 358.347657-5.078125 6.011718c-10.039063 12.070313-15.539063 27.273438-15.542969 42.972656v37.519532h-109.117188v-37.519532c-.003906-15.730468-5.515624-30.964843-15.578124-43.058593l-5.035157-5.875c-13.796875-16.601563-21.347656-37.503907-21.351562-59.089844v-5.539063c0-.46875-.039063-.933593-.117188-1.394531l-25.023437-148.847656c-.238282-2.359375.535156-4.710937 2.128906-6.46875 1.589844-1.761719 3.851562-2.765625 6.222656-2.765625 7.839844.546875 14.714844 5.425781 17.820313 12.640625 4.847656 9.015625 7.378906 19.09375 7.359375 29.328125 0 .902344.144531 1.796875.429687 2.652344l16.785157 50.359375c1.300781 3.910156 5.242187 6.300781 9.308593 5.640625 4.066407-.660156 7.054688-4.171875 7.050781-8.292969v-214.03125c0-4.5 2.402344-8.65625 6.296876-10.902344 3.894531-2.25 8.695312-2.25 12.589843 0 3.894531 2.246094 6.292969 6.402344 6.292969 10.902344v146.882813c0 4.636718 3.757812 8.394531 8.394531 8.394531s8.394531-3.757813 8.394531-8.394531v-172.0625c0-6.953126 5.636719-12.589844 12.589844-12.589844s12.589844 5.636718 12.589844 12.589844v176.597656c-12.5 3.769531-23.414062 11.546875-31.054688 22.132812-8.679687 12.179688-16.628906 33.632813-5.214843 66.652344 16.988281 49.136719 71.34375 49.519531 98.707031 42.746094 7.628906.230468 15.042969 2.589844 21.40625 6.808594-.664062 20.511718-8.144531 40.214843-21.253906 56zm231.296875-65.972657c-.078125.460938-.121094.925781-.117188 1.394531v5.539063c-.007812 21.566406-7.558593 42.453125-21.34375 59.039063l-5.078125 6.011718c-10.039062 12.070313-15.539062 27.273438-15.542968 42.972656v37.519532h-109.117188v-37.519532c-.003906-15.730468-5.515625-30.964843-15.578125-43.058593l-5.035156-5.875c-9.765625-11.769531-16.457031-25.78125-19.472657-40.773438l.898438.839844c14.316406 14.933594 32.132812 26.066406 51.835938 32.378906 3.996093 1.109375 8.121093 1.675781 12.265624 1.679688 19.601563-.953125 37.289063-12.070313 46.640626-29.328125 14.964843-24.054688 19.617187-62.816406-5.523438-91.082032-9.945312-11.886718-18.054688-25.191406-24.0625-39.476562v-205.226562c0-6.953126 5.636719-12.589844 12.589844-12.589844s12.589844 5.636718 12.589844 12.589844v188.851562c0 4.636719 3.757812 8.394531 8.394531 8.394531 4.632812 0 8.390625-3.757812 8.390625-8.394531v-163.671875c0-6.953125 5.636718-12.589844 12.59375-12.589844 6.953125 0 12.589844 5.636719 12.589844 12.589844v214.03125c-.003907 4.121094 2.980468 7.632813 7.046874 8.292969 4.066407.660156 8.011719-1.730469 9.308594-5.640625l16.789063-50.359375c.285156-.855469.429687-1.75.425781-2.652344-.015625-10.234375 2.511719-20.308594 7.363281-29.320312 3.101563-7.21875 9.980469-12.101563 17.820313-12.648438 2.378906-.011719 4.652344 1 6.234375 2.78125 1.488281 1.582031 2.28125 3.699219 2.191406 5.875zm0 0"/></svg>