<svg height="512pt" viewBox="-32 0 512 512" width="512pt" xmlns="http://www.w3.org/2000/svg"><path d="m76.488281 280.15625c-12.589843 0-23.984375 5.15625-32.175781 13.449219v116.835937l.796875.160156c5.152344 1.054688 8.890625 5.628907 8.890625 10.878907v4.980469c0 3.304687-1.46875 6.417968-4.023438 8.539062l-.929687.769531.929687.769531c2.558594 2.121094 4.023438 5.234376 4.023438 8.539063v4.980469c0 3.304687-1.46875 6.417968-4.023438 8.539062l-.929687.769532.929687.773437c2.558594 2.117187 4.023438 5.230469 4.023438 8.535156v4.980469c0 6.121094-4.992188 11.101562-11.128906 11.101562h-11.507813v13.390626c0 2.785156 2.253907 5.039062 5.039063 5.039062h74.789062v-223.03125zm0 0" fill="#def9ff"/><path d="m281.601562 481.355469c-15.746093-15.230469-25.71875-34.65625-28.835937-56.167969-.324219-2.234375.285156-4.539062 1.675781-6.324219 1.390625-1.785156 3.480469-2.949219 5.730469-3.1875 16.011719-1.714843 28.089844-15.128906 28.089844-31.207031v-36.777344c0-9.195312-4.011719-17.878906-11.003907-23.832031-1.867187-1.589844-2.9375-3.910156-2.9375-6.355469v-17.050781c0-6.972656 1.007813-13.789063 2.894532-20.292969h-31.695313c.417969.945313.644531 2.074219.644531 3.351563v41.34375c0 2-.546874 3.671875-1.578124 4.832031-.980469 1.097656-2.339844 1.679688-3.941407 1.679688-1.007812 0-2.082031-.230469-3.191406-.6875l-34.488281-14.238282-.472656.558594c-3.816407 4.546875-9.402344 7.15625-15.328126 7.15625-5.925781 0-11.511718-2.609375-15.328124-7.15625l-.472657-.558594-34.488281 14.238282c-1.105469.457031-2.179688.6875-3.191406.6875-3.351563 0-5.519532-2.558594-5.519532-6.511719v-41.34375c0-1.277344.230469-2.40625.648438-3.355469h-50.878906v223.027344h224.308594c2.441406 0 4.527343-1.609375 5.242187-3.820313-9.484375-4.554687-18.253906-10.632812-25.882813-18.007812zm0 0" fill="#00cca5"/><path d="m77.933594 280.160156h21.476562v223.023438h-21.476562zm0 0" fill="#02af8e"/><path d="m202.964844 316.441406-.46875.558594c-3.816406 4.546875-9.40625 7.15625-15.332032 7.15625-5.921874 0-11.511718-2.609375-15.328124-7.15625l-.472657-.558594-28.167969 11.628906 42.457032 137.65625c.832031 2.707032 2.195312 2.707032 3.027344 0l42.265624-137.734374zm0 0" fill="#def9ff"/><path d="m143.195312 328.070312 42.457032 137.65625c.832031 2.707032 2.195312 2.707032 3.027344 0l4.828124-15.734374-39.039062-126.578126zm0 0" fill="#abebff"/><path d="m187.167969 365.988281c-1.980469 0-3.910157-.800781-5.3125-2.199219-1.390625-1.398437-2.1875-3.328124-2.1875-5.300781 0-1.976562.800781-3.910156 2.1875-5.308593 1.402343-1.390626 3.332031-2.191407 5.3125-2.191407 1.96875 0 3.910156.800781 5.300781 2.191407 1.398438 1.398437 2.199219 3.328124 2.199219 5.308593 0 1.972657-.800781 3.902344-2.199219 5.300781-1.402344 1.402344-3.332031 2.199219-5.300781 2.199219zm0 0" fill="#69cdff"/><path d="m187.167969 403.371094c-1.980469 0-3.910157-.800782-5.300781-2.191406-1.398438-1.398438-2.199219-3.328126-2.199219-5.308594 0-1.972656.800781-3.910156 2.199219-5.300782 1.390624-1.398437 3.328124-2.199218 5.300781-2.199218 1.96875 0 3.898437.800781 5.300781 2.199218 1.398438 1.398438 2.199219 3.328126 2.199219 5.300782 0 1.96875-.800781 3.910156-2.199219 5.308594-1.390625 1.390624-3.332031 2.191406-5.300781 2.191406zm0 0" fill="#69cdff"/><path d="m171.363281 291.929688.472657-.5625c3.816406-4.546876 9.402343-7.152344 15.328124-7.152344 5.925782 0 11.515626 2.605468 15.328126 7.152344l.472656.5625 33.539062-13.847657v-27.722656c-11.757812 6.386719-24.988281 9.808594-38.539062 9.808594h-21.597656c-13.550782 0-26.78125-3.421875-38.539063-9.808594v27.722656zm0 0" fill="#def9ff"/><path d="m159.433594 287.003906v-28.652344c-7.546875-1.621093-14.820313-4.308593-21.605469-7.992187v27.722656zm0 0" fill="#abebff"/><path d="m184.023438 284.464844c1.03125-.164063 2.082031-.25 3.140624-.25 1.0625 0 2.113282.085937 3.144532.25.066406-.066406.136718-.113282.199218-.179688l23.03125-25.652344c-5.101562 1.003907-10.3125 1.535157-15.574218 1.535157h-21.597656c-5.265626 0-10.476563-.53125-15.574219-1.535157l23.03125 25.652344c.0625.066406.136719.113282.199219.179688zm0 0" fill="#ffe2b8"/><path d="m81.429688 137.546875h14.046874v-29.230469c0-2.480468 2.019532-4.5 4.507813-4.5h78.371094c12.371093 0 24.199219-5.90625 31.636719-15.800781.847656-1.128906 2.191406-1.800781 3.605468-1.800781 1.410156 0 2.757813.671875 3.601563 1.800781 7.441406 9.894531 19.265625 15.800781 31.636719 15.800781h25.515624c2.484376 0 4.507813 2.019532 4.507813 4.5v29.230469h14.042969c2.046875 0 3.996094.398437 5.796875 1.097656v-67.421875c0-39.335937-31.890625-71.222656-71.230469-71.222656h-80.601562c-39.34375 0-71.234376 31.886719-71.234376 71.222656v67.421875c1.800782-.699219 3.75-1.097656 5.796876-1.097656zm0 0" fill="#383838"/><path d="m81.429688 137.546875h14.046874v-29.230469c0-2.480468 2.019532-4.5 4.507813-4.5h7.644531v-32.59375c0-39.335937 31.890625-71.222656 71.234375-71.222656h-32c-39.339843 0-71.234375 31.886719-71.234375 71.222656v67.421875c1.804688-.699219 3.753906-1.097656 5.800782-1.097656zm0 0" fill="#282828"/><path d="m95.476562 179.289062v-42.742187h-14.046874c-9.445313 0-17.097657 7.652344-17.097657 17.097656v20.691407c0 9.441406 7.652344 17.09375 17.097657 17.09375h14.960937c-.601563-3.960938-.914063-8.015626-.914063-12.140626zm0 0" fill="#ffe2b8"/><path d="m292.902344 136.546875h-14.046875v42.742187c0 4.125-.316407 8.179688-.914063 12.140626h14.960938c9.441406 0 17.097656-7.652344 17.097656-17.09375v-20.691407c0-9.445312-7.65625-17.097656-17.097656-17.097656zm0 0" fill="#f8d5ab"/><path d="m176.367188 261.167969c-45.152344 0-81.890626-36.730469-81.890626-81.878907v-70.972656c0-3.039062 2.464844-5.5 5.507813-5.5h78.371094c12.054687 0 23.585937-5.757812 30.835937-15.402344 1.039063-1.386718 2.671875-2.199218 4.402344-2.199218s3.363281.8125 4.402344 2.199218c7.253906 9.644532 18.78125 15.402344 30.835937 15.402344h25.515625c3.039063 0 5.507813 2.460938 5.507813 5.5v70.972656c0 45.144532-36.738281 81.878907-81.890625 81.878907zm0 0" fill="#ffe2b8"/><path d="m116.019531 179.289062v-70.972656c0-3.039062 2.464844-5.5 5.507813-5.5h-21.542969c-3.042969 0-5.507813 2.460938-5.507813 5.5v70.972656c0 45.144532 36.738282 81.878907 81.890626 81.878907h21.542968c-45.152344 0-81.890625-36.730469-81.890625-81.878907zm0 0" fill="#ffc987"/><path d="m141.488281 154.800781c-4.144531 0-7.5-3.359375-7.5-7.5v-16.910156c0-4.144531 3.355469-7.5 7.5-7.5 4.140625 0 7.5 3.355469 7.5 7.5v16.910156c0 4.140625-3.359375 7.5-7.5 7.5zm0 0" fill="#72563c"/><path d="m232.84375 154.800781c-4.144531 0-7.5-3.359375-7.5-7.5v-16.910156c0-4.144531 3.355469-7.5 7.5-7.5 4.140625 0 7.5 3.355469 7.5 7.5v16.910156c0 4.140625-3.359375 7.5-7.5 7.5zm0 0" fill="#72563c"/><path d="m195.648438 178.871094h-11.574219c-7.109375 0-12.890625-5.777344-12.890625-12.882813v-27.429687c0-4.140625 3.355468-7.5 7.5-7.5 4.140625 0 7.5 3.359375 7.5 7.5v25.3125h9.464844c4.140624 0 7.5 3.359375 7.5 7.5 0 4.144531-3.359376 7.5-7.5 7.5zm0 0" fill="#72563c"/><path d="m187.164062 232.363281c-19.980468 0-36.234374-15.023437-36.234374-33.488281 0-4.144531 3.359374-7.5 7.5-7.5 4.144531 0 7.5 3.355469 7.5 7.5 0 10.195312 9.527343 18.488281 21.234374 18.488281 11.710938 0 21.234376-8.292969 21.234376-18.488281 0-4.144531 3.359374-7.5 7.5-7.5 4.144531 0 7.5 3.355469 7.5 7.5 0 18.464844-16.253907 33.488281-36.234376 33.488281zm0 0" fill="#72563c"/><path d="m167.164062 304.183594c0-4.988282 1.855469-9.546875 4.898438-13.050782l-34.804688-14.367187c-5.550781-2.292969-10.09375.742187-10.09375 6.746094v41.34375c0 6.003906 4.542969 9.039062 10.09375 6.75l34.804688-14.371094c-3.042969-3.503906-4.898438-8.058594-4.898438-13.050781zm0 0" fill="#e62937"/><path d="m237.074219 276.765625-34.804688 14.367187c3.039063 3.503907 4.894531 8.0625 4.894531 13.050782 0 4.992187-1.855468 9.546875-4.894531 13.050781l34.800781 14.371094c5.554688 2.289062 10.09375-.746094 10.09375-6.75v-41.34375c0-6.003907-4.539062-9.039063-10.089843-6.746094zm0 0" fill="#e62937"/><path d="m142.328125 324.855469v-41.34375c0-1.664063.359375-3.089844.980469-4.25l-6.050782-2.5c-5.550781-2.289063-10.09375.746093-10.09375 6.75v41.34375c0 6.003906 4.542969 9.039062 10.09375 6.746093l6.050782-2.496093c-.621094-1.160157-.980469-2.585938-.980469-4.25zm0 0" fill="#b7092b"/><path d="m208.164062 304.183594c0-11.582032-9.402343-20.972656-21-20.972656-11.597656 0-21 9.390624-21 20.972656 0 11.582031 9.402344 20.972656 21 20.972656 11.597657 0 21-9.390625 21-20.972656zm0 0" fill="#ff99a3"/><path d="m182.613281 304.183594c0-8.667969 5.265625-16.101563 12.777344-19.296875-2.527344-1.078125-5.308594-1.671875-8.226563-1.671875-11.597656 0-21 9.386718-21 20.96875 0 11.582031 9.402344 20.972656 21 20.972656 2.917969 0 5.699219-.597656 8.226563-1.671875-7.511719-3.199219-12.777344-10.632813-12.777344-19.300781zm0 0" fill="#f66"/><path d="m43.03125 204.398438-21.632812-21v20.867187l8.914062 8.695313v197.417968h12.558594c.839844 0 1.65625.097656 2.441406.273438v-200.867188c0-2.027344-.824219-3.972656-2.28125-5.386718zm0 0" fill="#a7a9ac"/><path d="m12.128906 410.378906h10.269532v-233.894531c0-4.140625-3.359376-7.5-7.5-7.5-4.144532 0-7.5 3.359375-7.5 7.5v234.960937c1.4375-.675781 3.039062-1.066406 4.730468-1.066406zm0 0" fill="#b57a4e"/><path d="m12.128906 485.753906c-6.6875 0-12.128906-5.429687-12.128906-12.101562v-52.171875c0-6.671875 5.441406-12.101563 12.128906-12.101563h30.742188c6.691406 0 12.128906 5.429688 12.128906 12.101563v4.980469c0 3.738281-1.707031 7.085937-4.386719 9.308593 2.679688 2.222657 4.386719 5.570313 4.386719 9.308594v4.976563c0 3.742187-1.707031 7.089843-4.386719 9.3125 2.679688 2.222656 4.386719 5.570312 4.386719 9.308593v4.976563c0 6.671875-5.4375 12.101562-12.128906 12.101562zm0 0" fill="#ffe2b8"/><path d="m21.984375 473.652344v-52.171875c0-6.671875 5.441406-12.101563 12.128906-12.101563h-21.984375c-6.6875 0-12.128906 5.429688-12.128906 12.101563v52.171875c0 6.671875 5.441406 12.101562 12.128906 12.101562h21.984375c-6.6875 0-12.128906-5.429687-12.128906-12.101562zm0 0" fill="#ffc987"/><path d="m357.371094 423.027344h5.5625v24.289062h-5.5625zm0 0" fill="#b57a4e"/><path d="m338.808594 328.304688h5.5625v81.785156h-5.5625zm0 0" fill="#b57a4e"/><path d="m338.808594 423.027344h5.5625v24.289062h-5.5625zm0 0" fill="#b57a4e"/><path d="m357.371094 328.304688h5.5625v81.785156h-5.5625zm0 0" fill="#b57a4e"/><path d="m322.535156 503.585938-2.625-52.34375c-.050781-1.050782.308594-2.03125 1.015625-2.773438.703125-.742188 1.671875-1.152344 2.71875-1.152344h2.164063v-24.285156h-1.515625c-3.566407 0-6.46875-2.902344-6.46875-6.472656 0-3.566406 2.902343-6.46875 6.46875-6.46875h1.515625v-81.785156h-6.777344c-.539062 0-1.035156-.210938-1.394531-.589844-.359375-.382813-.542969-.890625-.511719-1.429688l5.523438-96.113281c-28.753907 10.488281-49.328126 38.035156-49.328126 70.28125v17.050781c0 2.738282 1.203126 5.339844 3.289063 7.117188 6.769531 5.761718 10.652344 14.171875 10.652344 23.070312v36.777344c0 15.566406-11.691407 28.550781-27.195313 30.210938-2.535156.269531-4.851562 1.558593-6.414062 3.566406-1.5625 2.011718-2.242188 4.566406-1.878906 7.082031 3.152343 21.734375 13.222656 41.355469 29.132812 56.742187 12.160156 11.765626 26.851562 20.074219 42.808594 24.425782-.675782-.855469-1.125-1.878906-1.179688-2.910156zm0 0" fill="#b57a4e"/><path d="m446.433594 418.25c-1.566406-2.011719-3.882813-3.296875-6.417969-3.566406-15.503906-1.660156-27.191406-14.648438-27.191406-30.210938v-36.78125c0-8.894531 3.882812-17.304687 10.648437-23.070312 2.089844-1.777344 3.289063-4.378906 3.289063-7.117188v-17.050781c0-22.519531-10.042969-42.738281-25.890625-56.46875-.101563.003906-.199219.015625-.300782.015625h-22.339843l4.726562 82.285156c.03125.539063-.148437 1.046875-.507812 1.429688-.359375.378906-.855469.589844-1.398438.589844h-5.117187v81.738281l.847656.132812c3.175781.484375 5.480469 3.171875 5.480469 6.382813 0 3.214844-2.308594 5.898437-5.480469 6.386718l-.847656.128907v24.199219l.894531.089843c2.007813.203125 3.441406 1.871094 3.34375 3.878907l-2.625 52.347656c-.050781 1.03125-.503906 2.054687-1.175781 2.910156 15.953125-4.355469 30.644531-12.660156 42.804687-24.421875 15.90625-15.390625 25.984375-35.011719 29.132813-56.746094.363281-2.519531-.3125-5.074219-1.875-7.082031zm0 0" fill="#b57a4e"/><path d="m273.171875 433.023438c-.363281-2.515626.3125-5.070313 1.878906-7.078126 1.5625-2.007812 3.878907-3.296874 6.414063-3.566406 15.503906-1.660156 27.191406-14.648437 27.191406-30.210937v-36.78125c0-8.898438-3.878906-17.304688-10.648438-23.070313-2.085937-1.777344-3.289062-4.378906-3.289062-7.117187v-17.050781c0-22.917969 10.402344-43.453126 26.734375-57.183594l1.195313-20.792969c-28.753907 10.488281-49.328126 38.035156-49.328126 70.28125v17.050781c0 2.738282 1.203126 5.339844 3.289063 7.117188 6.769531 5.761718 10.652344 14.171875 10.652344 23.070312v36.777344c0 15.566406-11.691407 28.550781-27.195313 30.210938-2.535156.269531-4.851562 1.558593-6.414062 3.566406-1.5625 2.011718-2.242188 4.566406-1.878906 7.082031 3.152343 21.734375 13.222656 41.355469 29.132812 56.742187 13.054688 12.628907 29.027344 21.257813 46.347656 25.304688-9.066406-4.5-17.488281-10.394531-24.949218-17.605469-15.910157-15.386719-25.984376-35.007812-29.132813-56.746093zm0 0" fill="#9b5729"/><g fill="#282828"><path d="m375.789062 410.089844c.390626 0 .769532.039062 1.144532.105468v-81.894531h-15v81.785157h13.855468zm0 0"/><path d="m375.789062 423.027344h-13.855468v24.289062h14.503906c.167969 0 .332031.027344.496094.046875v-24.441406c-.375.066406-.753906.105469-1.144532.105469zm0 0"/><path d="m343.371094 328.304688h15v81.785156h-15zm0 0"/><path d="m343.371094 423.027344h15v24.289062h-15zm0 0"/><path d="m324.808594 423.027344h15v24.289062h-15zm0 0"/><path d="m324.808594 328.304688h15v81.785156h-15zm0 0"/></g><path d="m347.261719 99.816406h5.558593v229.484375h-5.558593zm0 0" fill="#6d6e71"/><path d="m329.136719 99.816406-13.007813 226.410156c-.097656 1.691407 1.210938 3.074219 2.902344 3.074219h15.230469v-229.484375zm0 0" fill="#6d6e71"/><path d="m371.28125 244c-2 0-3.863281-.566406-5.460938-1.535156v86.839844h15.230469c1.691407 0 3-1.386719 2.902344-3.074219l-4.722656-82.230469zm0 0" fill="#6d6e71"/><path d="m371.28125 173.234375h3.882812l-4.21875-73.417969h-5.125v74.953125c1.597657-.964843 3.460938-1.535156 5.460938-1.535156zm0 0" fill="#6d6e71"/><path d="m360.726562 233.472656v-4.746094c0-3.132812 1.390626-6.085937 3.816407-8.097656l.929687-.769531-.929687-.769531c-2.425781-2.015625-3.816407-4.964844-3.816407-8.101563v-4.742187c0-3.136719 1.390626-6.089844 3.816407-8.101563l.929687-.769531-.929687-.769531c-2.425781-2.011719-3.816407-4.960938-3.816407-8.097657v-4.742187c0-4.214844 2.5-7.851563 6.09375-9.53125v-74.417969h-15v229.484375h15v-86.300781c-3.59375-1.679688-6.09375-5.3125-6.09375-9.527344zm0 0" fill="#282828"/><path d="m333.261719 99.816406h15v229.484375h-15zm0 0" fill="#282828"/><path d="m373.394531 509.503906c2.695313-.488281 5.015625-3.132812 5.152344-5.867187l2.621094-52.347657c.136719-2.734374-1.992188-4.972656-4.730469-4.972656h-52.792969c-2.742187 0-4.871093 2.238282-4.734375 4.972656l2.625 52.347657c.140625 2.734375 2.457032 5.378906 5.152344 5.867187 0 0 13.71875 2.496094 23.351562 2.496094 9.636719 0 23.355469-2.496094 23.355469-2.496094zm0 0" fill="#6d6e71"/><path d="m334.683594 507.113281-2.785156-55.519531c-.144532-2.902344 2.113281-5.277344 5.019531-5.277344h-13.273438c-2.738281 0-4.867187 2.238282-4.730469 4.976563l2.625 52.34375c.136719 2.738281 2.453126 5.378906 5.148438 5.867187 0 0 4.203125.765625 9.582031 1.445313-.910156-1.097657-1.515625-2.453125-1.585937-3.835938zm0 0" fill="#585959"/><path d="m324.433594 48.808594c0-.355469-.046875-.738282-.109375-1.125h-12.667969c-4.125 0-7.46875 3.347656-7.46875 7.472656s3.34375 7.472656 7.46875 7.472656h12.777344zm0 0" fill="#7f441c"/><path d="m388.425781 47.683594h-12.667969c-.066406.386718-.109374.769531-.109374 1.125v13.820312h12.777343c4.125 0 7.472657-3.347656 7.472657-7.472656-.003907-4.128906-3.347657-7.472656-7.472657-7.472656zm0 0" fill="#7f441c"/><path d="m324.433594 67.644531h-12.777344c-4.125 0-7.46875 3.34375-7.46875 7.46875 0 4.128907 3.34375 7.472657 7.46875 7.472657h12.777344zm0 0" fill="#7f441c"/><path d="m388.425781 67.644531h-12.777343v14.941407h12.777343c4.125 0 7.472657-3.347657 7.472657-7.472657-.003907-4.125-3.347657-7.46875-7.472657-7.46875zm0 0" fill="#7f441c"/><path d="m393.457031 3.410156c0-1.875-1.535156-3.410156-3.414062-3.410156h-80.003907c-1.875 0-3.410156 1.535156-3.410156 3.410156v22.71875c0 1.878906 1.113282 4.464844 2.480469 5.753906l11.84375 11.171876c1.363281 1.289062 2.480469 3.875 2.480469 5.753906v48.59375c0 1.878906 1.535156 3.414062 3.414062 3.414062h46.386719c1.878906 0 3.414063-1.535156 3.414063-3.414062v-48.59375c0-1.878906 1.117187-4.464844 2.480468-5.753906l11.84375-11.171876c1.363282-1.289062 2.480469-3.875 2.480469-5.753906v-22.71875zm0 0" fill="#b57a4e"/><path d="m340.039062 97.402344v-48.59375c0-1.878906-1.117187-4.464844-2.480468-5.753906l-11.84375-11.171876c-1.367188-1.289062-2.484375-3.875-2.484375-5.753906v-22.71875c0-1.875 1.539062-3.410156 3.414062-3.410156h-16.605469c-1.875 0-3.410156 1.535156-3.410156 3.410156v22.71875c0 1.878906 1.113282 4.464844 2.480469 5.753906l11.84375 11.171876c1.363281 1.289062 2.480469 3.875 2.480469 5.753906v48.59375c0 1.878906 1.535156 3.414062 3.414062 3.414062h16.601563c-1.875 0-3.410157-1.535156-3.410157-3.414062zm0 0" fill="#9b5729"/><path d="m362.011719 32.984375h-23.613281c-4.125 0-7.46875-3.34375-7.46875-7.46875 0-4.128906 3.34375-7.472656 7.46875-7.472656h23.613281c4.128906 0 7.472656 3.34375 7.472656 7.472656 0 4.125-3.34375 7.46875-7.472656 7.46875zm0 0" fill="#602f0e"/><path d="m400.570312 172.234375c6.371094 0 11.558594 5.171875 11.558594 11.53125v49.703125c0 6.355469-5.1875 11.53125-11.558594 11.53125h-29.289062c-6.371094 0-11.554688-5.175781-11.554688-11.53125v-4.742188c0-3.5625 1.625-6.75 4.179688-8.871093-2.554688-2.113281-4.179688-5.304688-4.179688-8.867188v-4.742187c0-3.5625 1.625-6.753906 4.179688-8.871094-2.554688-2.113281-4.179688-5.308594-4.179688-8.867188v-4.742187c0-6.359375 5.183594-11.527344 11.554688-11.527344h29.289062zm0 0" fill="#ffe2b8"/><path d="m381.371094 233.472656v-4.746094c0-3.5625 1.628906-6.75 4.179687-8.867187-2.550781-2.117187-4.179687-5.308594-4.179687-8.871094v-4.742187c0-3.5625 1.628906-6.753906 4.179687-8.867188-2.550781-2.117187-4.179687-5.308594-4.179687-8.867187v-4.746094c0-6.355469 5.183594-11.527344 11.554687-11.527344h-21.644531c-6.371094 0-11.554688 5.171875-11.554688 11.527344v4.746094c0 3.558593 1.625 6.75 4.179688 8.867187-2.554688 2.113282-4.179688 5.304688-4.179688 8.867188v4.742187c0 3.5625 1.625 6.753907 4.179688 8.871094-2.554688 2.117187-4.179688 5.304687-4.179688 8.867187v4.746094c0 6.351563 5.183594 11.527344 11.554688 11.527344h21.644531c-6.371093 0-11.554687-5.175781-11.554687-11.527344zm0 0" fill="#ffc987"/><path d="m375.789062 424.027344h-51.496093c-4.125 0-7.46875-3.34375-7.46875-7.46875 0-4.128906 3.34375-7.472656 7.46875-7.472656h51.496093c4.125 0 7.472657 3.34375 7.472657 7.472656 0 4.125-3.347657 7.46875-7.472657 7.46875zm0 0" fill="#585959"/></svg>