<svg enable-background="new 0 0 60.008 59.416" height="512" viewBox="0 0 60.008 59.416" width="512" xmlns="http://www.w3.org/2000/svg"><path d="m27.267 21.149c-15.876-14.679-26.267-20.15-26.267-20.15s5.524 10.289 20.353 26.003z" fill="#7383bf"/><path d="m32.875 38.35c2.657 2.454 6.067 5.556 9.132 8.186l5-4.95c-2.657-3.035-5.785-6.415-8.264-9.046z" fill="#7383bf"/><path d="m58.166 10.632-8.896-8.807c-1.058-1.047-2.773-1.047-3.831 0l-5.156 5.104-4.243 4.2-27.262 26.987-7.778 20.3 8.462-3.177 12.044-4.522 27.262-26.988 4.243-4.2 5.156-5.104c1.057-1.048 1.057-2.745-.001-3.793z" fill="#e7eced"/><path d="m1 58.416 7.778-20.3 27.262-26.987 12.728 12.599-27.262 26.988z" fill="#ebba16"/><path d="m53.011 19.528-12.728-12.6 5.156-5.104c1.058-1.047 2.773-1.047 3.831 0l8.897 8.807c1.058 1.047 1.058 2.745 0 3.793z" fill="#cb465f"/><path d="m1 58.416 20.271-7.612-12.582-12.455z" fill="#f7e6a1"/><path d="m3.723 51.311-2.723 7.105 7.177-2.695z" fill="#bf5a45"/><path d="m48.768 23.728-12.728-12.599 4.243-4.2 12.728 12.599z" fill="#e7eced"/><path d="m47.008 41.587c1.922.65 3.876 2.419 6.338 5.18 5.762 6.462 5.662 11.649 5.662 11.649s-5.26.118-11.787-5.586c-2.789-2.437-4.562-4.385-5.213-6.294z" fill="#f7e6a1"/><path d="m9.507 13.302c1.472 1.88 3.158 3.947 5.072 6.179l5.089-5.038c-2.255-1.895-4.342-3.564-6.242-5.021z" fill="#e7eced"/><g fill="#4d007e"><path d="m59.008 59.396c-.254 0-.508-.096-.702-.288l-6-5.92c-.393-.388-.397-1.021-.01-1.414.388-.395 1.021-.398 1.414-.01l6 5.92c.393.388.397 1.021.01 1.414-.196.199-.454.298-.712.298z"/><path d="m58.98 59.416c-.605 0-5.935-.168-12.418-5.833-2.683-2.344-4.441-4.698-5.225-6.996-.124-.363-.03-.764.243-1.034l4.467-4.422c.269-.266.665-.358 1.024-.237 2.259.765 4.621 2.517 7.021 5.208 5.954 6.677 5.92 12.106 5.916 12.333-.01.536-.441.969-.977.98-.01.001-.027.001-.051.001zm-15.529-12.901c.761 1.789 2.248 3.656 4.428 5.562 4.441 3.88 8.222 4.941 10.008 5.231-.309-1.772-1.405-5.521-5.287-9.875-1.955-2.193-3.837-3.68-5.602-4.428z"/><path d="m44.508 45.062c-.254 0-.509-.096-.704-.29l-3.5-3.465c-.392-.388-.396-1.021-.007-1.414s1.021-.396 1.414-.007l3.5 3.465c.392.388.396 1.021.007 1.414-.195.198-.453.297-.71.297z"/><path d="m14.531 20.528c-.013 0-.026 0-.039-.001-.277-.011-.537-.136-.718-.345-1.836-2.126-3.558-4.212-5.118-6.2-.314-.399-.278-.971.083-1.328l4.052-4.012c.356-.353.917-.387 1.313-.083 2.02 1.553 4.127 3.257 6.264 5.064.214.181.343.444.354.725s-.096.552-.296.75l-5.192 5.14c-.188.187-.44.29-.703.29zm-3.749-7.082c1.188 1.495 2.464 3.042 3.808 4.616l3.65-3.614c-1.584-1.325-3.147-2.587-4.664-3.768z"/><path d="m1 59.416c-.262 0-.519-.103-.71-.295-.277-.279-.365-.695-.224-1.062l7.778-20.3c.051-.132.129-.253.23-.353l27.262-26.987c.39-.386 1.017-.387 1.407 0l12.728 12.6c.19.188.296.443.296.71s-.107.523-.296.71l-27.261 26.987c-.1.099-.22.176-.352.226l-20.506 7.7c-.115.043-.234.064-.352.064zm8.635-20.741-6.906 18.023 18.226-6.843 26.392-26.127-11.307-11.192z"/><path d="m48.768 24.728c-.254 0-.509-.096-.704-.29l-12.728-12.6c-.19-.188-.296-.443-.296-.71s.107-.523.296-.71l4.243-4.2c.39-.386 1.018-.386 1.407 0l12.728 12.6c.19.188.296.443.296.71s-.107.523-.296.711l-4.243 4.2c-.194.193-.448.289-.703.289zm-11.306-13.599 11.306 11.192 2.821-2.792-11.306-11.193z"/><path d="m53.011 20.529c-.254 0-.509-.096-.704-.29l-12.728-12.6c-.19-.188-.296-.443-.296-.71s.107-.523.296-.71l5.156-5.104c1.444-1.43 3.794-1.431 5.238 0l8.897 8.807c.703.696 1.09 1.622 1.09 2.607s-.387 1.911-1.09 2.607l-5.156 5.103c-.194.193-.449.29-.703.29zm-11.307-13.601 11.306 11.193 4.452-4.407c.321-.317.497-.739.497-1.186s-.177-.869-.497-1.186l-8.897-8.808c-.668-.661-1.756-.661-2.424 0z"/><path d="m27.163 37.716c-.258 0-.515-.099-.711-.296-.388-.393-.385-1.026.007-1.414l17.363-17.188c.393-.389 1.026-.385 1.414.007.388.393.385 1.026-.007 1.414l-17.362 17.187c-.196.194-.45.29-.704.29z"/><path d="m17.264 47.516c-.258 0-.515-.099-.711-.296-.388-.393-.385-1.026.007-1.414l6.364-6.3c.393-.39 1.026-.385 1.414.007.388.393.385 1.026-.007 1.414l-6.364 6.3c-.195.193-.449.289-.703.289z"/><path d="m1 59.416c-.262 0-.519-.103-.71-.295-.277-.279-.365-.695-.224-1.062l2.722-7.105c.121-.315.393-.548.723-.62.331-.071.674.03.914.267l4.455 4.41c.242.24.345.586.274.919s-.307.607-.626.727l-7.177 2.695c-.114.043-.233.064-.351.064zm3.108-6.317-1.379 3.599 3.635-1.365z"/><path d="m1 59.416c-.262 0-.519-.103-.71-.295-.277-.279-.365-.695-.224-1.062l7.689-20.067c.121-.315.393-.548.723-.62.331-.071.674.029.914.267l12.582 12.456c.242.24.345.586.274.919s-.307.607-.626.727l-20.27 7.611c-.115.043-.234.064-.352.064zm8.075-19.279-6.346 16.561 16.729-6.282z"/><path d="m20.682 27.332c-.006 0-.011 0-.017 0-.269-.005-.525-.118-.71-.313-14.76-15.641-19.647-25.171-19.848-25.569-.194-.384-.12-.849.183-1.154.303-.305.767-.383 1.153-.192.402.198 10.031 5.032 25.832 19.64.2.186.316.444.321.717s-.102.536-.296.728l-5.914 5.854c-.187.185-.44.289-.704.289zm-16.863-23.539c2.521 3.946 7.731 11.312 16.889 21.106l4.44-4.395c-9.9-9.067-17.346-14.223-21.329-16.711z"/><path d="m42.007 47.536c-.231 0-.463-.08-.651-.241-2.938-2.52-5.832-5.094-8.601-7.651-.2-.186-.317-.444-.321-.717-.005-.273.102-.536.296-.728l5.868-5.81c.192-.189.451-.276.721-.29.27.005.526.118.71.314 2.578 2.736 5.178 5.6 7.73 8.515.348.397.327.998-.049 1.369l-5 4.95c-.193.192-.447.289-.703.289zm-7.125-8.653c2.295 2.104 4.669 4.215 7.078 6.294l3.675-3.638c-2.104-2.389-4.237-4.739-6.359-7.006z"/></g></svg>