<?xml version="1.0" encoding="iso-8859-1"?>
<!-- Generator: Adobe Illustrator 19.0.0, SVG Export Plug-In . SVG Version: 6.00 Build 0)  -->
<svg version="1.1" id="Layer_1" xmlns="http://www.w3.org/2000/svg" xmlns:xlink="http://www.w3.org/1999/xlink" x="0px" y="0px"
	 viewBox="0 0 512 512" style="enable-background:new 0 0 512 512;" xml:space="preserve">
<g>
	<g>
		<g>
			<path d="M486.4,0H25.6C11.486,0,0,11.486,0,25.6v51.2v409.6C0,500.514,11.486,512,25.6,512h460.8c14.114,0,25.6-11.486,25.6-25.6
				V76.8V25.6C512,11.486,500.514,0,486.4,0z M17.067,25.6c0-4.702,3.831-8.533,8.533-8.533h460.8c4.702,0,8.533,3.831,8.533,8.533
				v42.667H17.067V25.6z M494.933,486.4c0,4.702-3.831,8.533-8.533,8.533H25.6c-4.702,0-8.533-3.831-8.533-8.533V85.333h477.867
				V486.4z"/>
			<circle cx="42.667" cy="42.667" r="8.533"/>
			<circle cx="76.8" cy="42.667" r="8.533"/>
			<circle cx="110.933" cy="42.667" r="8.533"/>
			<path d="M136.533,298.667v51.2c0,4.71,3.823,8.533,8.533,8.533c4.71,0,8.533-3.823,8.533-8.533V307.2h25.6
				c14.114,0,25.6-11.486,25.6-25.6v-17.067c0-14.114-11.486-25.6-25.6-25.6h-34.133c-4.71,0-8.533,3.823-8.533,8.533V298.667z
				 M187.733,264.533V281.6c0,4.702-3.831,8.533-8.533,8.533h-25.6V256h25.6C183.902,256,187.733,259.831,187.733,264.533z"/>
			<path d="M315.733,358.4c4.71,0,8.533-3.823,8.533-8.533V307.2h25.6c14.114,0,25.6-11.486,25.6-25.6v-17.067
				c0-14.114-11.486-25.6-25.6-25.6h-34.133c-4.71,0-8.533,3.823-8.533,8.533v51.2v51.2C307.2,354.577,311.023,358.4,315.733,358.4z
				 M358.4,264.533V281.6c0,4.702-3.831,8.533-8.533,8.533h-25.6V256h25.6C354.569,256,358.4,259.831,358.4,264.533z"/>
			<path d="M230.4,358.4c4.71,0,8.533-3.823,8.533-8.533V307.2h25.6c4.702,0,8.533,3.831,8.533,8.533v34.133
				c0,4.71,3.823,8.533,8.533,8.533s8.533-3.823,8.533-8.533v-34.133c0-14.114-11.486-25.6-25.6-25.6h-25.6v-42.667
				c0-4.71-3.823-8.533-8.533-8.533s-8.533,3.823-8.533,8.533v102.4C221.867,354.577,225.69,358.4,230.4,358.4z"/>
			<path d="M93.867,319.266v30.601C93.867,368.691,109.175,384,128,384c4.71,0,8.533-3.823,8.533-8.533s-3.823-8.533-8.533-8.533
				c-9.412,0-17.067-7.654-17.067-17.067v-34.133c0-2.261-0.896-4.437-2.5-6.033l-19.567-19.567l19.567-19.567
				c1.604-1.596,2.5-3.772,2.5-6.033V230.4c0-9.412,7.654-17.067,17.067-17.067c4.71,0,8.533-3.823,8.533-8.533
				c0-4.71-3.823-8.533-8.533-8.533c-18.825,0-34.133,15.309-34.133,34.133v30.601l-23.1,23.1c-3.337,3.337-3.337,8.73,0,12.066
				L93.867,319.266z"/>
			<path d="M384,213.333c9.446,0,17.135,7.654,17.135,17.05l-0.068,34.133c0,2.27,0.896,4.446,2.5,6.05l19.567,19.567L403.567,309.7
				c-1.604,1.596-2.5,3.772-2.5,6.033v34.133c0,9.412-7.654,17.067-17.067,17.067c-4.71,0-8.533,3.823-8.533,8.533
				S379.29,384,384,384c18.825,0,34.133-15.309,34.133-34.133v-30.601l23.1-23.1c3.337-3.337,3.337-8.73,0-12.066l-23.091-23.1
				l0.06-30.601c0-18.825-15.343-34.133-34.202-34.133c-4.71,0-8.533,3.823-8.533,8.533C375.467,209.51,379.29,213.333,384,213.333z
				"/>
		</g>
	</g>
</g>
<g>
</g>
<g>
</g>
<g>
</g>
<g>
</g>
<g>
</g>
<g>
</g>
<g>
</g>
<g>
</g>
<g>
</g>
<g>
</g>
<g>
</g>
<g>
</g>
<g>
</g>
<g>
</g>
<g>
</g>
</svg>
