<?xml version="1.0" encoding="iso-8859-1"?>
<!-- Generator: Adobe Illustrator 19.0.0, SVG Export Plug-In . SVG Version: 6.00 Build 0)  -->
<svg version="1.1" id="Capa_1" xmlns="http://www.w3.org/2000/svg" xmlns:xlink="http://www.w3.org/1999/xlink" x="0px" y="0px"
	 viewBox="0 0 512 512" style="enable-background:new 0 0 512 512;" xml:space="preserve">
<path style="fill:#FFD15C;" d="M512,256c0,2.33-0.031,4.65-0.094,6.959c-0.125,4.556-0.366,9.08-0.721,13.563
	c-0.982,12.445-2.863,24.639-5.559,36.519c-0.491,2.132-1.003,4.242-1.536,6.353c-0.616,2.435-1.275,4.848-1.964,7.252
	c-4.221,14.733-9.728,28.923-16.394,42.444c-3.093,6.269-6.426,12.382-10.01,18.348c-6.844,11.431-14.566,22.277-23.061,32.455
	c-2.988,3.594-6.092,7.105-9.279,10.533c0,0,0,0-0.01,0.01c-8.025,8.61-16.624,16.677-25.767,24.106
	c-0.418,0.355-0.846,0.7-1.264,1.034c-3.521,2.832-7.126,5.58-10.794,8.223c-10.355,7.471-21.295,14.179-32.726,20.052
	c-0.303,0.157-0.606,0.313-0.909,0.46c-1.766,0.909-3.542,1.787-5.329,2.644c-2.058,0.982-4.127,1.944-6.207,2.873
	c-6.635,2.967-13.427,5.663-20.355,8.067C313.699,507.037,285.435,512,256,512c-33.52,0-65.536-6.437-94.877-18.16
	c-24.795-9.895-47.689-23.562-67.96-40.302c-7.879-6.499-15.36-13.469-22.413-20.856c-24.367-25.537-43.51-56.111-55.693-89.997
	C5.308,315.611,0,286.427,0,256C0,114.615,114.615,0,256,0c47.929,0,92.777,13.176,131.135,36.091
	c18.359,10.971,35.244,24.189,50.249,39.257c2.215,2.226,4.389,4.493,6.51,6.792c2.142,2.299,4.232,4.639,6.28,7.022
	c23.876,27.763,41.911,60.709,52.161,96.925c0.334,1.202,0.669,2.403,0.993,3.605c1.87,6.98,3.448,14.085,4.723,21.285
	c0.805,4.504,1.484,9.059,2.038,13.636C511.352,234.904,512,245.373,512,256z"/>
<g>
	<path style="fill:#FFDC8D;" d="M502.335,186.086H316.28c-4.148,0-7.889-1.672-10.606-4.389c-2.717-2.717-4.389-6.457-4.389-10.606
		c0-8.286,6.708-15.005,14.994-15.005h45.599c4.148,0,7.889-1.682,10.606-4.389c2.717-2.717,4.389-6.468,4.389-10.606
		c0-8.286-6.708-15.005-14.994-15.005h-12.727c-4.148,0-7.889-1.672-10.606-4.389c-2.717-2.717-4.399-6.457-4.399-10.606
		c0-8.286,6.719-15.005,15.005-15.005h42.13c4.138,0,7.889-1.682,10.606-4.389c2.706-2.717,4.389-6.468,4.389-10.606
		c0-8.286-6.719-15.005-14.994-15.005h-92.505c-4.138,0-7.889-1.672-10.595-4.389c-2.717-2.717-4.399-6.457-4.399-10.606
		c0-8.286,6.719-15.005,14.994-15.005h88.357c18.359,10.971,35.244,24.189,50.249,39.257c2.215,2.226,4.389,4.493,6.51,6.792
		c2.142,2.299,4.232,4.639,6.28,7.022C474.049,116.924,492.084,149.87,502.335,186.086z"/>
	<path style="fill:#FFDC8D;" d="M207.998,115.035L207.998,115.035c0-8.284-6.716-15-15-15h-126.4c-8.284,0-15,6.716-15,15l0,0
		c0,8.284,6.716,15,15,15h40.886c8.284,0,15,6.716,15,14.999l0,0c0,8.284-6.716,15-15,15h-4.168c-8.284,0-15,6.716-15,14.999l0,0
		c0,8.284,6.716,15,15,15h121.145c8.284,0,14.999-6.716,14.999-15l0,0c0-8.284,6.716-14.999,15-14.999h4.168c8.284,0,15-6.716,15-15
		l0,0c0-8.284-6.716-14.999-15-14.999h-35.631C214.714,130.034,207.998,123.319,207.998,115.035z"/>
	<path style="fill:#FFDC8D;" d="M180.673,417.677c0,8.286-6.708,15.005-14.994,15.005H70.75
		c-24.367-25.537-43.51-56.111-55.693-89.997h127.289c4.148,0,7.889,1.682,10.606,4.389c2.717,2.717,4.389,6.468,4.389,10.606
		c0,8.286-6.708,15.005-14.994,15.005H94.009c-8.286,0-15.005,6.708-15.005,14.994s6.719,15.005,15.005,15.005h71.67
		c4.138,0,7.889,1.682,10.606,4.389C178.991,409.788,180.673,413.539,180.673,417.677z"/>
	<path style="fill:#FFDC8D;" d="M417.604,454.541c-0.418,0.355-0.846,0.7-1.264,1.034c-3.521,2.832-7.126,5.58-10.794,8.223
		c-10.355,7.471-21.295,14.179-32.726,20.052c-0.303,0.157-0.606,0.313-0.909,0.46h-75.682c-4.138,0-7.899-1.682-10.606-4.399
		c-2.717-2.717-4.399-6.457-4.399-10.606c0-8.286-6.708-14.994-14.994-14.994h-23.751c-4.138,0-7.889-1.682-10.606-4.399
		c-2.706-2.706-4.389-6.468-4.389-10.606c0-8.286,6.708-14.994,14.994-14.994h142.493c8.286,0,15.005,6.708,15.005,14.994
		c0,4.138,1.682,7.899,4.399,10.606c2.706,2.717,6.457,4.399,10.595,4.399C415.869,454.311,416.747,454.395,417.604,454.541z"/>
</g>
<path style="fill:#5C5E70;" d="M512,256c0,2.33-0.031,4.65-0.094,6.959c-0.125,4.556-0.366,9.08-0.721,13.563
	c-0.982,12.445-2.863,24.639-5.559,36.519c-0.491,2.132-1.003,4.242-1.536,6.353c-0.616,2.435-1.275,4.848-1.964,7.252
	c-4.221,14.733-9.728,28.923-16.394,42.444c-3.093,6.269-6.426,12.382-10.01,18.348c-6.844,11.431-14.566,22.277-23.061,32.455
	c-2.988,3.594-6.092,7.105-9.279,10.533c0.554,0.784,1.118,1.557,1.714,2.32c-0.596-0.752-1.16-1.526-1.724-2.309
	c-8.391,9.007-17.418,17.418-27.031,25.14c-3.521,2.832-7.126,5.58-10.794,8.223c-10.355,7.471-21.295,14.179-32.726,20.052
	c-2.069,1.066-4.148,2.1-6.238,3.103c-2.058,0.982-4.127,1.944-6.207,2.873c-6.635,2.967-13.427,5.663-20.355,8.067
	c-21.264-31.545-33.688-69.548-33.688-110.456c0-108.972,88.127-197.35,196.995-197.747c1.87,6.98,3.448,14.085,4.723,21.285
	c0.805,4.504,1.484,9.059,2.038,13.636C511.352,234.904,512,245.373,512,256z"/>
<g>
	<path style="fill:#F9EED7;" d="M452.66,419.892c-2.988,3.594-6.092,7.105-9.279,10.533c0.554,0.784,1.118,1.557,1.714,2.32
		c-0.596-0.752-1.16-1.526-1.724-2.309c-8.391,9.007-17.418,17.418-27.031,25.14c-3.521,2.832-7.126,5.58-10.794,8.223
		c-10.355,7.471-21.295,14.179-32.726,20.052c-2.069,1.066-4.148,2.1-6.238,3.103c-20.271-27.961-32.225-62.349-32.225-99.516
		h141.364C468.877,398.869,461.155,409.715,452.66,419.892z"/>
	<path style="fill:#F9EED7;" d="M504.09,217.715v101.679c-0.616,2.435-1.275,4.848-1.964,7.252
		c-4.221,14.733-9.728,28.923-16.394,42.444l-69.799-69.799l-27-27l-4.859-4.859C414.783,236.711,457.216,217.715,504.09,217.715z"
		/>
	<path style="fill:#F9EED7;" d="M504.09,313.02c-3.845,0-7.628,0.293-11.316,0.857c-1.128,0.178-2.257,0.376-3.365,0.606
		c-5.559,1.108-10.888,2.842-15.924,5.13c-1.097,0.491-2.173,1.014-3.239,1.557c-3.751,1.923-7.314,4.148-10.658,6.656
		c-1.212,0.909-2.393,1.86-3.553,2.832c-0.428,0.366-0.846,0.721-1.254,1.087c-1.128,1.003-2.226,2.038-3.291,3.103
		c-13.469,13.479-21.817,32.078-21.817,52.59c0,3.845,0.293,7.628,0.857,11.316c0.188,1.233,0.408,2.456,0.658,3.668
		c1.118,5.433,2.832,10.668,5.068,15.611c0.502,1.097,1.024,2.184,1.567,3.25c0.554,1.076,1.128,2.132,1.724,3.166
		c0.899,1.567,1.849,3.082,2.853,4.566c0.324,0.481,0.648,0.951,0.982,1.411c3.187-3.427,6.29-6.938,9.279-10.533
		c-0.47-0.721-0.909-1.463-1.337-2.205c-0.491-0.846-0.961-1.714-1.4-2.581c-1.797-3.49-3.26-7.189-4.357-11.034
		c-0.272-0.961-0.522-1.933-0.752-2.915c-0.219-0.982-0.428-1.964-0.606-2.967c-0.627-3.49-0.951-7.084-0.951-10.752
		c0-16.76,6.823-31.963,17.836-42.987c1.034-1.034,2.1-2.027,3.197-2.988c6.625-5.747,14.503-10.083,23.165-12.549
		c0.961-0.272,1.923-0.522,2.905-0.752c3.803-0.878,7.732-1.4,11.766-1.515c0.69-2.403,1.348-4.817,1.964-7.252
		c0.533-2.111,1.045-4.221,1.536-6.353C505.114,313.031,504.602,313.02,504.09,313.02z"/>
	<path style="fill:#F9EED7;" d="M504.09,262.708c-13.249,0-26.018,2.079-38.003,5.925c-0.658,0.209-1.317,0.418-1.964,0.648
		c-10.616,3.594-20.605,8.589-29.727,14.764c-1.661,1.118-3.291,2.278-4.89,3.479c-0.805,0.596-1.599,1.212-2.382,1.829
		c-0.585,0.46-1.17,0.93-1.755,1.4c-1.16,0.951-2.299,1.912-3.427,2.905c-0.564,0.491-1.118,0.993-1.672,1.494
		c-1.484,1.348-2.926,2.727-4.336,4.138c-22.58,22.591-36.571,53.77-36.571,88.148c0,12.894,1.964,25.339,5.622,37.052
		c0.606,1.943,1.264,3.877,1.964,5.789c0.7,1.912,1.442,3.803,2.236,5.663c4.242,10.021,9.759,19.372,16.363,27.857
		c3.668-2.644,7.272-5.392,10.794-8.223c-4.263-5.475-8.035-11.368-11.222-17.586c-0.815-1.588-1.588-3.208-2.341-4.848
		c-0.742-1.651-1.452-3.312-2.111-4.995c-0.669-1.682-1.296-3.375-1.87-5.099c-3.793-11.18-5.851-23.155-5.851-35.61
		c0-30.626,12.466-58.42,32.59-78.545c1.891-1.891,3.835-3.709,5.862-5.454c1.003-0.878,2.027-1.735,3.062-2.57
		c1.567-1.264,3.156-2.476,4.786-3.647c3.793-2.738,7.774-5.245,11.912-7.492c1.567-0.857,3.166-1.682,4.786-2.456
		c2.424-1.17,4.911-2.257,7.429-3.26c1.682-0.658,3.385-1.285,5.099-1.87c3.448-1.17,6.969-2.173,10.553-2.999
		c1.787-0.418,3.594-0.784,5.413-1.118c6.384-1.139,12.946-1.735,19.655-1.735c2.382,0,4.754,0.073,7.095,0.23
		c0.355-4.483,0.596-9.007,0.721-13.563C509.325,262.792,506.713,262.708,504.09,262.708z M402.777,433.142
		c0.742,1.641,1.515,3.25,2.341,4.848C404.302,436.402,403.529,434.782,402.777,433.142z M463.37,284.014
		c1.682-0.658,3.385-1.285,5.099-1.87C466.756,282.718,465.053,283.345,463.37,284.014z"/>
</g>
<g>
	<path style="fill:#5C5E70;" d="M492.774,313.877c-1.128,0.178-2.257,0.376-3.365,0.606c-5.559,1.108-10.888,2.842-15.924,5.13
		c-1.097,0.491-2.173,1.014-3.239,1.557c-3.751,1.923-7.314,4.148-10.658,6.656c-1.212,0.909-2.393,1.86-3.553,2.832
		c-0.428,0.366-0.846,0.721-1.254,1.087c-1.128,1.003-2.226,2.038-3.291,3.103l9.603,9.603c1.034-1.034,2.1-2.027,3.197-2.988
		c6.625-5.747,14.503-10.083,23.165-12.549c0.961-0.272,1.923-0.522,2.905-0.752c3.803-0.878,7.732-1.4,11.766-1.515
		c0.69-2.403,1.348-4.817,1.964-7.252v-6.374C500.245,313.02,496.462,313.313,492.774,313.877z M452.66,419.892
		c-0.47-0.721-0.909-1.463-1.337-2.205c-0.491-0.846-0.961-1.714-1.4-2.581c-1.797-3.49-3.26-7.189-4.357-11.034
		c-0.272-0.961-0.522-1.933-0.752-2.915c-0.219-0.982-0.428-1.964-0.606-2.967c-0.627-3.49-0.951-7.084-0.951-10.752h-13.584
		c0,3.845,0.293,7.628,0.857,11.316c0.188,1.233,0.408,2.456,0.658,3.668c1.118,5.433,2.832,10.668,5.068,15.611
		c0.502,1.097,1.024,2.184,1.567,3.25c0.554,1.076,1.128,2.132,1.724,3.166c0.899,1.567,1.849,3.082,2.853,4.566
		c0.324,0.481,0.648,0.951,0.972,1.421c0.564,0.784,1.128,1.557,1.724,2.309c-0.596-0.763-1.16-1.536-1.714-2.32
		C446.568,426.998,449.672,423.487,452.66,419.892z"/>
	<path style="fill:#5C5E70;" d="M466.087,268.633c-0.658,0.209-1.317,0.418-1.964,0.648c-10.616,3.594-20.605,8.589-29.727,14.764
		c-1.661,1.118-3.291,2.278-4.89,3.479c-0.805,0.596-1.599,1.212-2.382,1.829c-0.585,0.46-1.17,0.93-1.755,1.4
		c-1.16,0.951-2.299,1.923-3.427,2.905c-0.564,0.491-1.118,0.993-1.672,1.494c-1.484,1.348-2.926,2.727-4.336,4.138l9.603,9.603
		c1.891-1.891,3.835-3.709,5.862-5.454c1.003-0.878,2.027-1.735,3.062-2.57c1.567-1.254,3.156-2.476,4.786-3.647
		c3.793-2.738,7.774-5.245,11.912-7.492c1.567-0.857,3.166-1.672,4.786-2.456c2.424-1.17,4.911-2.257,7.429-3.26
		c1.682-0.669,3.385-1.296,5.099-1.87c3.448-1.17,6.969-2.173,10.553-2.999c1.787-0.418,3.594-0.784,5.413-1.118
		c6.384-1.139,12.946-1.735,19.655-1.735v-13.584C490.841,262.708,478.072,264.788,466.087,268.633z M405.117,437.99
		c-0.826-1.599-1.599-3.208-2.341-4.848c-0.742-1.651-1.452-3.312-2.111-4.995c-0.669-1.682-1.296-3.375-1.87-5.099
		c-3.793-11.18-5.851-23.155-5.851-35.61h-13.584c0,12.894,1.964,25.339,5.622,37.052c0.606,1.943,1.264,3.877,1.964,5.789
		c0.7,1.912,1.442,3.803,2.236,5.663c4.242,10.021,9.759,19.372,16.363,27.857c3.668-2.644,7.272-5.392,10.794-8.223
		C412.076,450.1,408.304,444.207,405.117,437.99z"/>
</g>
<path style="fill:#F9EED7;" d="M508.05,210.975c-1.317-0.042-2.633-0.052-3.96-0.052c-97.332,0-176.525,79.182-176.525,176.515
	c0,38.149,12.163,73.498,32.81,102.39c2.079-0.93,4.148-1.891,6.207-2.873c2.09-1.003,4.169-2.038,6.238-3.103
	c-19.905-27.021-31.671-60.364-31.671-96.413c0-44.91,18.275-85.64,47.783-115.148c29.497-29.508,70.228-47.783,115.158-47.783
	c2.006,0,4.002,0.031,5.998,0.105C509.534,220.035,508.855,215.479,508.05,210.975z"/>
<path style="fill:#F4A14E;" d="M130.38,289.688c-0.313,3.676,0.872,7.384,3.468,10.007c0.018,0.018,0.036,0.036,0.053,0.053
	c5.408,5.408,14.71,6.066,20.777,0l21.9,21.9l-65.374,65.374l-36.263-36.263c-7.802-7.802-10.041-19.587-5.645-29.702l13.971-32.133
	c0.067-0.14,0.125-0.288,0.178-0.428c-0.007-0.007,0-0.015,0-0.015c1.574-3.82,1.936-7.935,1.196-11.837
	c-0.868-4.576-3.255-8.858-7.023-12.07c-8.394-7.156-21.011-6.266-28.811,1.534L26.96,287.956l-13.484-13.484l45.158-58.635
	l25.608-14.822l47.825,68.909L130.38,289.688z"/>
<path style="fill:#5C5E70;" d="M0,260.994l13.479,13.479l47.576-47.576c6.817-6.817,17.503-7.857,25.506-2.482l45.506,45.506
	l33.726-30.495l12.292-12.292c14.239-14.239,18.725-35.543,11.436-54.314l-10.249-26.4l98.398-98.398L245.32,15.673L0,260.994z
	 M155.408,200.989c5.769,5.769,5.769,15.123,0,20.893l-22.577,22.577l-20.893-20.893l22.577-22.577
	C140.284,195.219,149.638,195.219,155.408,200.989L155.408,200.989z"/>
<rect x="121.12" y="99.897" transform="matrix(0.7071 -0.7071 0.7071 0.7071 -13.6769 179.7499)" style="fill:#494B5B;" width="178.038" height="12.975"/>
<path style="fill:#797B89;" d="M245.793,40.862L131.517,155.138c-2.312,2.312-6.061,2.312-8.374,0l0,0
	c-2.312-2.312-2.312-6.061,0-8.374L237.42,32.489c2.312-2.312,6.061-2.312,8.374,0l0,0C248.106,34.8,248.106,38.549,245.793,40.862z
	"/>
<path style="fill:#E28D40;" d="M128.197,370.027l-16.993,16.993l-36.263-36.263c-7.802-7.802-10.041-19.587-5.645-29.702
	l13.971-32.133c0.067-0.14,0.125-0.288,0.178-0.428C81.029,302.585,80.586,338.64,128.197,370.027z"/>
<path style="fill:#C69A6A;" d="M387.427,192.627l-83.226,106.047l-73.519,73.519c-5.099,5.099-13.375,5.099-18.474,0
	c-2.55-2.55-5.893-3.824-9.237-3.824s-6.687,1.275-9.237,3.824c-2.55,2.55-3.824,5.893-3.824,9.237s1.275,6.687,3.824,9.237
	c8.213,8.213,12.413,19.069,12.413,29.978c0,9.017-2.873,18.077-8.714,25.715l-36.31,47.48
	c-24.795-9.895-47.689-23.562-67.96-40.302l29.32-40.124c7.743-10.595,23.113-11.786,32.392-2.508l0.073,0.073
	c0-6.113,0.512-12.204,1.515-18.213c1.003-6.008,2.508-11.933,4.493-17.721l2.121-6.175l48.212-48.212l41.932-41.921v-0.01
	l4.911-3.929l32.037-25.631l95.796-76.633l0.24-0.199C391.69,177.81,392.213,186.525,387.427,192.627z"/>
<path style="fill:#F9EED7;" d="M385.123,173.419L266.515,292.027l-22.904-22.904l132.994-132.994l8.519,8.519
	C393.069,152.592,393.069,165.473,385.123,173.419z"/>
<path style="fill:#E8DBC4;" d="M392.346,166.196L266.515,292.027l-12.807-12.807l132.994-132.994l5.643,5.643
	C396.302,155.826,396.302,162.24,392.346,166.196z"/>
<rect x="197.926" y="140.026" transform="matrix(-0.7071 0.7071 -0.7071 -0.7071 748.562 -11.2041)" style="fill:#F9EED7;" width="357.352" height="18.808"/>
<rect x="201.247" y="148.051" transform="matrix(-0.7071 0.7071 -0.7071 -0.7071 756.5823 -7.8806)" style="fill:#E8DBC4;" width="357.352" height="9.404"/>
<path style="fill:#F9EED7;" d="M496.299,16.434l-31.402,31.401l-9.831-9.831c-4.568-4.568-4.568-11.973,0-16.542l14.859-14.859
	c4.568-4.568,11.974-4.568,16.542,0L496.299,16.434z"/>
<path style="fill:#494B5B;" d="M163.075,368.868l-21.615-21.615c-3.569-3.569-3.569-9.355,0-12.924l13.675-13.675
	c3.569-3.569,9.355-3.569,12.924,0l12.009,12.009l63.541-63.541l22.904,22.904l0,0c-25.153,6.772-48.027,20.169-66.237,38.793
	L163.075,368.868z"/>
<path style="fill:#B58657;" d="M206.148,420.645c0,9.017-2.873,18.077-8.714,25.715l-36.31,47.48
	c-24.795-9.895-47.689-23.562-67.96-40.302C93.163,453.538,159.462,467.331,206.148,420.645z"/>
<g>
</g>
<g>
</g>
<g>
</g>
<g>
</g>
<g>
</g>
<g>
</g>
<g>
</g>
<g>
</g>
<g>
</g>
<g>
</g>
<g>
</g>
<g>
</g>
<g>
</g>
<g>
</g>
<g>
</g>
</svg>
