<svg height="512pt" viewBox="-138 0 512 512.001" width="512pt" xmlns="http://www.w3.org/2000/svg"><path d="m223.554688 147.609375c7.335937-5.445313 12.09375-14.167969 12.09375-24.007813 0-11.28125-6.257813-21.101562-15.488282-26.1875 4.109375-5.117187 6.574219-11.613281 6.574219-18.683593 0-16.503907-13.378906-29.882813-29.882813-29.882813-3.152343 0-6.191406.492188-9.042968 1.398438.007812-.292969.023437-.582032.023437-.875 0-19.617188-15.90625-35.519532-35.523437-35.519532-9.644532 0-18.386719 3.847657-24.785156 10.089844-8.1875-14.300781-23.578126-23.941406-41.234376-23.941406-26.230468 0-47.492187 21.261719-47.492187 47.492188 0 .453124.019531.90625.03125 1.359374-.007813 0-.023437-.003906-.03125-.003906-16.503906 0-29.882813 13.378906-29.882813 29.882813 0 7.070312 2.464844 13.566406 6.574219 18.683593-9.234375 5.085938-15.488281 14.90625-15.488281 26.1875 0 9.839844 4.757812 18.5625 12.09375 24.007813-3.5 3.457031-5.671875 8.253906-5.671875 13.5625 0 10.53125 8.539063 19.070313 19.070313 19.070313h184.664062c10.53125 0 19.070312-8.539063 19.070312-19.070313-.003906-5.308594-2.175781-10.105469-5.671874-13.5625zm0 0" fill="#ff8736"/><path d="m235.648438 123.601562c0-11.28125-6.257813-21.101562-15.488282-26.1875 4.109375-5.117187 6.574219-11.613281 6.574219-18.683593 0-16.503907-13.378906-29.882813-29.882813-29.882813-3.152343 0-6.191406.492188-9.042968 1.398438.007812-.292969.023437-.582032.023437-.875 0-19.617188-15.90625-35.519532-35.523437-35.519532-4.449219 0-8.703125.828126-12.628906 2.324219 13.371093 5.097657 22.878906 18.035157 22.878906 33.195313 0 .292968-.015625.582031-.023438.875 2.851563-.90625 5.890625-1.398438 9.042969-1.398438 16.503906 0 29.882813 13.378906 29.882813 29.882813 0 7.070312-2.464844 13.566406-6.574219 18.683593 9.234375 5.085938 15.488281 14.90625 15.488281 26.1875 0 9.839844-4.757812 18.5625-12.09375 24.007813 3.5 3.457031 5.671875 8.253906 5.671875 13.5625 0 10.53125-8.539063 19.070313-19.070313 19.070313h25.269532c10.53125 0 19.070312-8.539063 19.070312-19.070313 0-5.308594-2.171875-10.105469-5.667968-13.5625 7.335937-5.445313 12.09375-14.167969 12.09375-24.007813zm0 0" fill="#cc5d11"/><path d="m72.71875 415.238281h90.207031c2.921875-28.394531 17.085938-53.457031 37.964844-70.65625 3.894531-3.207031 4.996094-8.667969 2.84375-13.226562-8.386719-17.746094-23.90625-31.460938-42.871094-37.429688-11.503906-3.617187-19.417969-14.160156-19.417969-26.222656v-42.472656h-47.242187v42.472656c0 12.0625-7.914063 22.601563-19.417969 26.222656-18.964844 5.96875-34.484375 19.683594-42.871094 37.429688-2.152343 4.558593-1.046874 10.019531 2.84375 13.226562 20.878907 17.199219 35.042969 42.261719 37.960938 70.65625zm0 0" fill="#ffcd34"/><path d="m203.734375 331.355469c-8.386719-17.746094-23.90625-31.460938-42.871094-37.429688-11.503906-3.621093-19.417969-14.160156-19.417969-26.222656v-42.472656h-27.191406v42.472656c0 12.0625 7.519532 22.601563 18.445313 26.222656 18.007812 5.96875 32.75 19.683594 40.714843 37.429688 2.046876 4.558593.996094 10.019531-2.699218 13.226562-19.832032 17.203125-33.285156 42.261719-36.058594 70.65625h28.269531c2.917969-28.394531 17.082031-53.457031 37.964844-70.65625 3.890625-3.207031 4.996094-8.667969 2.84375-13.226562zm0 0" fill="#e69012"/><path d="m117.824219 280.6875c5.898437 0 14.933593-2.628906 24.382812-6.601562-.496093-2.058594-.761719-4.191407-.761719-6.382813v-42.472656h-47.242187v42.472656c0 2.191406-.265625 4.328125-.761719 6.382813 9.449219 3.972656 18.480469 6.601562 24.382813 6.601562zm0 0" fill="#e69012"/><path d="m160.863281 293.925781c-.15625-.046875-.304687-.113281-.460937-.164062-27.308594 34.1875-67.109375 58.210937-110.015625 66.738281 12.199219 15.347656 20.21875 34.167969 22.332031 54.738281h90.207031c2.917969-28.394531 17.082031-53.457031 37.964844-70.65625 3.890625-3.207031 4.996094-8.667969 2.839844-13.226562-8.382813-17.746094-23.902344-31.460938-42.867188-37.429688zm0 0" fill="#ff8736"/><path d="m200.261719 324.898438c-.632813-1.042969-1.292969-2.070313-1.972657-3.074219-6.152343-9.058594-14.335937-16.625-23.90625-22.027344-4.929687-2.785156-8.792968-4.304687-13.980468-6.035156-2.789063 3.492187-5.714844 6.871093-8.753906 10.148437 9.296874 7.015625 16.832031 16.453125 21.765624 27.445313 2.046876 4.558593.996094 10.019531-2.699218 13.226562-19.832032 17.199219-33.285156 42.261719-36.058594 70.65625h28.269531c1.097657-10.648437 3.773438-20.828125 7.789063-30.300781 4.355468-10.261719 10.28125-19.691406 17.484375-27.988281 8.132812-9.371094 12.785156-11.886719 14.582031-14.390625 4.242188-5.902344 1.148438-11.605469-2.519531-17.660156zm0 0" fill="#cc5d11"/><path d="m49.027344 438.15625v58.390625c0 8.535156 6.917968 15.453125 15.453125 15.453125h106.6875c8.535156 0 15.453125-6.917969 15.453125-15.453125v-58.390625zm0 0" fill="#485072"/><path d="m162.410156 444.15625v52.390625c0 8.535156-6.917968 15.453125-15.453125 15.453125h24.210938c8.53125 0 15.453125-6.917969 15.453125-15.453125v-52.390625zm0 0" fill="#28375b"/><path d="m17.882812 429.695312c0-7.984374 6.476563-14.457031 14.460938-14.457031h170.960938c7.984374 0 14.457031 6.472657 14.457031 14.457031 0 7.988282-6.472657 14.460938-14.457031 14.460938h-170.960938c-7.984375 0-14.460938-6.472656-14.460938-14.460938zm0 0" fill="#bc5b57"/><path d="m203.304688 415.238281h-28.859376c7.984376 0 14.457032 6.472657 14.457032 14.457031 0 7.988282-6.472656 14.460938-14.457032 14.460938h28.859376c7.984374 0 14.457031-6.472656 14.457031-14.460938 0-7.984374-6.472657-14.457031-14.457031-14.457031zm0 0" fill="#8e3a38"/><g fill="#ffcd34"><path d="m202.335938 167.4375h-26.160157v35.667969h26.160157c9.851562 0 17.835937-7.984375 17.835937-17.835938 0-9.847656-7.984375-17.832031-17.835937-17.832031zm0 0"/><path d="m33.308594 167.4375h26.160156v35.667969h-26.160156c-9.847656 0-17.835938-7.984375-17.835938-17.835938 0-9.847656 7.988282-17.832031 17.835938-17.832031zm0 0"/><path d="m180.054688 227.109375c-9.375 13.019531-46.679688 31.269531-62.230469 31.269531-15.554688 0-52.859375-18.25-62.234375-31.269531-14.203125-19.742187-5.773438-73.957031.777344-105.550781.390624.226562.785156.4375 1.183593.640625 10.378907 5.222656 22.996094 4.628906 33.890625.574219 10.886719-4.066407 19.3125-11.796876 27.960938-19.554688 9.050781 7.375 21.484375 10.410156 32.90625 8.015625 1.921875-.398437 3.804687-.957031 5.644531-1.652344 1.441406 7.757813 5.136719 15.101563 10.625 20.785157 3.96875 4.101562 8.847656 7.296874 14.15625 9.402343 5.347656 31.171875 9.058594 71.023438-2.679687 87.339844zm0 0"/></g><path d="m182.734375 139.769531c-5.308594-2.105469-10.1875-5.296875-14.15625-9.402343-5.492187-5.683594-9.183594-13.027344-10.628906-20.785157-.824219.3125-1.660157.585938-2.503907.84375 5.1875 34.402344 11.140626 101.511719.226563 116.683594-7.410156 10.292969-32.265625 23.84375-50.039063 29.074219 4.710938 1.386718 8.933594 2.195312 12.191407 2.195312 15.554687 0 52.859375-18.25 62.230469-31.269531 11.738281-16.316406 8.027343-56.167969 2.679687-87.339844zm0 0" fill="#e69012"/><path d="m160.195312 168.671875h-15.308593c-4.140625 0-7.5-3.359375-7.5-7.5s3.359375-7.5 7.5-7.5h15.308593c4.140626 0 7.5 3.359375 7.5 7.5s-3.359374 7.5-7.5 7.5zm0 0" fill="#e69012"/><path d="m161.285156 168.585938c3.625-.53125 6.410156-3.644532 6.410156-7.414063 0-4.101563-3.292968-7.425781-7.375-7.492187.386719 4.957031.714844 9.960937.964844 14.90625zm0 0" fill="#b56608"/><path d="m128.484375 210.605469h-17.222656c-4.140625 0-7.5-3.355469-7.5-7.5v-34.433594h-28.308594c-4.144531 0-7.5-3.359375-7.5-7.5 0-4.144531 3.355469-7.5 7.5-7.5h35.808594c4.144531 0 7.5 3.355469 7.5 7.5v34.433594h9.722656c4.140625 0 7.5 3.359375 7.5 7.5 0 4.144531-3.359375 7.5-7.5 7.5zm0 0" fill="#e69012"/><path d="m68.617188 395.097656c26.214843-2.671875 50.839843-13.984375 69.519531-32.015625 2.980469-2.875 3.0625-7.625.1875-10.605469-2.878907-2.980468-7.625-3.0625-10.605469-.1875-16.414062 15.847657-39.105469 26.074219-62.257812 28.066407-.832032.070312-1.617188.28125-2.34375.59375 2.160156 4.546875 4 9.273437 5.5 14.148437zm0 0" fill="#cc5d11"/></svg>