<?xml version="1.0" encoding="iso-8859-1"?>
<!-- Generator: Adobe Illustrator 19.0.0, SVG Export Plug-In . SVG Version: 6.00 Build 0)  -->
<svg version="1.1" id="Capa_1" xmlns="http://www.w3.org/2000/svg" xmlns:xlink="http://www.w3.org/1999/xlink" x="0px" y="0px"
	 viewBox="0 0 512.004 512.004" style="enable-background:new 0 0 512.004 512.004;" xml:space="preserve">
<path style="fill:#E22342;" d="M496.021,0L258.004,396.695l-36.989,61.649c-7.596,12.695-17.366,23.312-28.547,31.65
	c-34.805,25.997-83.32,30.02-122.827,6.363c-52.213-31.253-69.266-99.161-38.013-151.374c9.634-16.091,30.49-21.326,46.581-11.692
	s21.326,30.48,11.692,46.571c-12.016,20.083-5.465,46.195,14.618,58.222c20.083,12.016,46.195,5.465,58.222-14.618L416.818,0
	H496.021z"/>
<g>
	<path style="fill:#C9183A;" d="M87.398,496.355c-52.212-31.256-69.262-99.162-38.007-151.374
		c4.702-7.854,12.079-13.113,20.269-15.329c-14.316-3.893-30.038,1.974-38.032,15.329C0.373,397.193,17.423,465.099,69.635,496.355
		c20.449,12.241,43.305,17.07,65.424,15.283C118.705,510.322,102.404,505.338,87.398,496.355z"/>
	<path style="fill:#C9183A;" d="M180.5,423.465L434.577,0.001h-17.763L162.736,423.465c-6.293,10.513-16.451,17.31-27.581,19.685
		C152.433,446.852,170.932,439.45,180.5,423.465z"/>
	<path style="fill:#C9183A;" d="M258.004,396.695l-36.989,61.649c-7.596,12.695-17.366,23.312-28.547,31.65
		c-8.255-10.177-13.197-23.155-13.197-37.271c0-32.747,26.54-59.287,59.287-59.287C245.371,393.435,251.912,394.584,258.004,396.695
		z"/>
</g>
<g>
	<polygon style="fill:#EFBC4B;" points="334.666,268.925 307.644,313.96 285.848,247.881 279.547,228.779 306.568,183.745 
		312.868,202.846 	"/>
	<circle style="fill:#EFBC4B;" cx="267.809" cy="452.722" r="59.282"/>
</g>
<g>
	<path style="fill:#D3A13D;" d="M246.06,452.718c0-26.18,16.977-48.381,40.518-56.233c-5.899-1.968-12.204-3.049-18.764-3.049
		c-32.741,0-59.283,26.541-59.283,59.282S235.071,512,267.813,512c6.561,0,12.866-1.081,18.764-3.049
		C263.037,501.098,246.06,478.898,246.06,452.718z"/>
	<polygon style="fill:#D3A13D;" points="312.868,202.846 285.848,247.881 279.547,228.779 306.568,183.745 	"/>
</g>
<g>
</g>
<g>
</g>
<g>
</g>
<g>
</g>
<g>
</g>
<g>
</g>
<g>
</g>
<g>
</g>
<g>
</g>
<g>
</g>
<g>
</g>
<g>
</g>
<g>
</g>
<g>
</g>
<g>
</g>
</svg>
