<?xml version="1.0" standalone="no"?>
<!DOCTYPE svg PUBLIC "-//W3C//DTD SVG 20010904//EN"
 "http://www.w3.org/TR/2001/REC-SVG-20010904/DTD/svg10.dtd">
<svg version="1.0" xmlns="http://www.w3.org/2000/svg"
 width="512.000000pt" height="512.000000pt" viewBox="0 0 512.000000 512.000000"
 preserveAspectRatio="xMidYMid meet">
<metadata>
Created by potrace 1.16, written by Peter Selinger 2001-2019
</metadata>
<g transform="translate(0.000000,512.000000) scale(0.100000,-0.100000)"
fill="#000000" stroke="none">
<path d="M203 4958 c-174 -172 -196 -198 -191 -231 3 -19 32 5 192 163 103
102 192 193 197 203 8 14 5 17 -17 17 -21 0 -60 -33 -181 -152z"/>
<path d="M303 4858 c-140 -139 -264 -265 -275 -281 -10 -15 -18 -37 -16 -50 3
-18 49 23 292 263 158 157 292 293 297 303 8 14 5 17 -17 17 -22 0 -75 -47
-281 -252z"/>
<path d="M402 4758 c-194 -194 -362 -365 -373 -381 -11 -15 -19 -37 -17 -50 3
-19 36 10 216 188 165 162 212 204 212 187 0 -13 7 -34 16 -48 l17 -25 -232
-233 c-185 -187 -231 -238 -231 -259 0 -15 3 -27 7 -27 4 0 113 106 244 236
l236 236 22 -37 c11 -20 21 -39 21 -43 0 -3 -119 -126 -265 -272 -214 -215
-265 -272 -265 -293 0 -15 3 -27 7 -27 4 0 130 122 280 272 150 150 274 270
276 267 2 -2 13 -20 25 -39 l21 -35 -304 -306 c-250 -250 -305 -310 -305 -333
0 -22 3 -25 18 -17 9 5 152 145 316 310 l300 300 24 -40 24 -41 -341 -342
c-279 -280 -341 -347 -341 -369 0 -15 3 -27 7 -27 4 0 163 156 354 346 l347
347 22 -43 22 -43 -376 -376 c-308 -309 -376 -382 -376 -404 0 -15 3 -27 7
-27 4 0 180 172 390 382 210 210 384 380 386 377 2 -2 13 -20 24 -40 l21 -36
-122 -121 c-73 -74 -136 -128 -160 -137 -54 -23 -133 -100 -163 -160 -17 -34
-83 -108 -204 -231 -141 -143 -179 -187 -179 -208 0 -14 3 -26 7 -26 4 0 82
75 173 166 l167 165 7 -57 7 -57 -181 -182 c-142 -144 -180 -188 -180 -209 0
-14 3 -26 7 -26 4 0 91 84 194 186 157 157 188 183 193 166 4 -10 16 -28 27
-37 19 -18 16 -22 -201 -240 -177 -179 -220 -227 -220 -249 0 -22 3 -25 18
-17 9 5 116 109 236 230 l220 220 35 -21 c20 -12 38 -23 40 -25 3 -2 -120
-129 -272 -281 -224 -226 -277 -284 -277 -305 0 -15 3 -27 7 -27 4 0 142 134
308 298 l300 299 48 -5 c26 -2 47 -8 47 -14 0 -5 -160 -170 -355 -367 -285
-288 -355 -364 -355 -385 0 -14 3 -26 7 -26 4 0 132 125 285 277 l278 278 0
-65 0 -64 -285 -286 c-233 -234 -285 -291 -285 -314 0 -22 3 -25 18 -17 9 5
141 134 292 285 151 152 278 276 282 276 5 0 8 -6 8 -12 0 -7 9 -24 20 -38
l19 -25 -319 -321 c-263 -263 -320 -325 -320 -348 0 -22 3 -25 18 -17 9 5 160
153 336 329 l318 319 39 -25 40 -26 -376 -376 c-307 -308 -375 -381 -375 -403
0 -15 3 -27 7 -27 4 0 185 178 403 395 390 390 396 395 429 389 71 -14 53 -37
-409 -499 -357 -358 -430 -436 -430 -458 0 -23 3 -26 18 -18 9 5 201 195 427
420 l410 411 16 -47 15 -48 -443 -445 c-365 -367 -443 -451 -443 -473 0 -15 3
-27 7 -27 4 0 209 201 455 447 l448 447 29 -34 30 -35 -485 -485 c-403 -405
-484 -490 -484 -513 0 -23 3 -26 18 -18 9 5 235 228 502 495 267 267 488 486
492 486 4 0 23 -10 43 -21 l37 -22 -546 -546 c-456 -457 -546 -551 -546 -574
0 -23 3 -26 18 -18 9 5 264 258 567 560 302 303 557 551 567 551 43 0 47 -9
26 -58 -16 -38 -135 -162 -599 -627 -480 -482 -579 -585 -579 -608 0 -15 3
-27 7 -27 4 0 263 255 574 566 l567 567 11 -54 12 -53 -586 -586 c-486 -486
-585 -590 -585 -613 0 -15 3 -27 7 -27 4 0 274 266 599 591 l590 590 26 -38
26 -38 -624 -625 c-523 -524 -624 -630 -624 -653 0 -23 3 -26 17 -18 10 5 301
293 646 639 l629 629 44 -21 45 -20 -691 -691 c-575 -575 -690 -695 -690 -718
0 -15 3 -27 7 -27 4 0 329 321 723 714 l715 715 67 3 68 3 -765 -765 c-421
-421 -765 -769 -765 -773 0 -4 12 -7 27 -7 23 0 156 128 803 774 l775 774 70
7 70 7 -772 -774 c-425 -425 -773 -777 -773 -781 0 -4 12 -7 27 -7 23 0 157
130 813 785 l785 785 65 0 65 0 -778 -778 c-427 -427 -777 -781 -777 -785 0
-4 12 -7 27 -7 23 0 158 130 818 790 435 435 797 790 806 790 8 0 26 -11 39
-25 l24 -26 -757 -757 c-416 -417 -757 -761 -757 -765 0 -4 12 -7 27 -7 23 0
151 124 774 746 l747 747 37 -28 36 -28 -710 -711 c-391 -391 -711 -715 -711
-719 0 -4 12 -7 27 -7 23 0 145 117 733 705 l705 705 35 -21 c19 -12 37 -23
40 -26 2 -2 -298 -306 -668 -676 -370 -370 -672 -676 -672 -680 0 -4 12 -7 27
-7 23 0 139 112 694 666 l667 667 36 -22 c20 -13 36 -26 36 -29 0 -4 -279
-286 -621 -627 -341 -341 -625 -628 -630 -638 -8 -14 -5 -17 18 -17 23 0 129
101 653 625 344 344 628 625 632 625 4 0 23 -10 43 -22 l37 -21 -596 -596
c-328 -328 -596 -600 -596 -604 0 -4 12 -7 27 -7 23 0 127 100 618 590 l590
590 39 -26 38 -26 -556 -557 c-306 -306 -556 -560 -556 -564 0 -4 12 -7 27 -7
23 0 121 94 579 551 l552 552 34 -23 c18 -13 35 -25 38 -27 2 -2 -229 -237
-513 -521 -284 -285 -517 -521 -517 -525 0 -4 12 -7 27 -7 23 0 115 88 539
511 l512 511 41 -23 42 -23 -481 -481 c-264 -264 -480 -484 -480 -488 0 -4 12
-7 27 -7 22 0 110 83 504 476 270 270 479 471 483 465 4 -6 4 -34 0 -63 l-6
-53 -404 -405 c-222 -223 -404 -409 -404 -413 0 -4 12 -7 27 -7 22 0 94 67
396 367 l369 368 -7 -70 -7 -70 -289 -290 c-159 -160 -289 -294 -289 -298 0
-4 12 -7 27 -7 21 0 76 49 281 253 l254 252 -7 -70 -7 -70 -174 -176 c-96 -96
-174 -178 -174 -182 0 -4 12 -7 26 -7 20 0 59 32 168 139 l141 138 31 -32 32
-32 -90 -89 c-109 -109 -119 -124 -81 -124 23 0 147 120 778 751 l751 750 10
-55 10 -55 -678 -678 c-374 -373 -684 -686 -689 -695 -8 -15 -5 -18 18 -18 23
0 135 107 693 666 l666 665 10 -55 10 -55 -593 -593 c-327 -326 -599 -601
-604 -610 -8 -15 -5 -18 18 -18 23 0 122 95 608 581 l581 580 10 -55 10 -55
-508 -508 c-280 -279 -514 -516 -519 -525 -8 -15 -5 -18 18 -18 23 0 110 83
523 496 l496 495 10 -55 10 -55 -423 -423 c-234 -233 -429 -431 -434 -441 -8
-14 -5 -17 18 -17 22 0 97 70 439 411 l412 412 9 -54 10 -54 -349 -350 c-191
-193 -348 -354 -348 -358 0 -4 12 -7 27 -7 22 0 87 60 354 326 l327 326 9 -53
10 -54 -264 -265 c-145 -146 -263 -269 -263 -273 0 -4 12 -7 27 -7 21 0 74 47
269 241 l242 241 9 -53 10 -54 -179 -181 c-98 -99 -178 -183 -178 -187 0 -4
12 -7 26 -7 21 0 61 34 184 156 158 156 158 156 165 126 3 -17 13 -36 21 -43
13 -10 -2 -29 -93 -123 -94 -96 -105 -111 -86 -114 13 -2 35 6 50 16 34 25
557 548 579 580 8 12 14 32 12 45 -3 19 -27 -1 -164 -135 -88 -87 -163 -158
-166 -158 -3 0 -9 23 -13 51 l-7 51 176 177 c140 142 176 184 176 205 0 22 -3
25 -17 17 -10 -5 -90 -82 -178 -170 -88 -89 -163 -161 -166 -161 -4 0 -10 23
-14 51 l-7 51 191 192 c153 154 191 199 191 220 0 22 -3 25 -17 17 -10 -5 -97
-89 -193 -185 -96 -97 -178 -176 -181 -176 -4 0 -10 23 -14 51 l-7 51 206 207
c164 166 206 213 206 234 0 15 -3 27 -7 27 -4 0 -100 -93 -214 -206 l-206
-206 -8 57 -7 57 221 223 c177 177 221 227 221 248 0 15 -3 27 -7 27 -4 0
-107 -99 -229 -221 l-221 -221 -8 57 -7 57 236 238 c190 190 236 242 236 263
0 15 -3 27 -7 27 -4 0 -114 -106 -244 -236 l-236 -236 -8 57 -7 57 251 253
c202 203 251 257 251 278 0 15 -3 27 -7 27 -4 0 -120 -113 -259 -251 l-251
-251 -8 57 -7 57 266 267 c215 216 266 273 266 294 0 15 -3 27 -7 27 -4 0
-127 -120 -274 -266 l-266 -266 -8 57 -7 57 281 282 c228 229 281 288 281 309
0 15 -3 27 -7 27 -4 0 -134 -126 -289 -281 l-281 -281 -8 57 -7 58 296 296
c240 242 296 302 296 324 0 15 -3 27 -7 27 -4 0 -141 -133 -304 -296 l-296
-296 -8 57 -7 58 311 311 c253 254 311 317 311 339 0 15 -3 27 -7 27 -4 0
-147 -140 -319 -311 l-311 -311 -8 57 -7 58 326 326 c266 267 326 332 326 354
0 15 -3 27 -7 27 -4 0 -154 -147 -334 -326 l-327 -327 -7 58 -8 57 342 342
c279 280 341 347 341 369 0 15 -3 27 -7 27 -4 0 -162 -154 -350 -342 -282
-282 -343 -338 -343 -318 -1 14 -7 36 -15 50 -14 25 -9 30 351 391 298 299
364 370 364 392 0 15 -3 27 -7 27 -4 0 -173 -165 -374 -367 l-367 -366 -16 38
c-9 20 -16 42 -16 48 0 6 176 187 390 402 323 324 390 396 390 418 0 23 -3 26
-17 18 -10 -5 -191 -183 -403 -395 l-385 -386 -17 33 c-9 17 -17 39 -18 47 0
8 189 204 420 435 348 349 420 426 420 448 0 23 -3 26 -17 18 -10 -5 -205
-197 -433 -425 l-415 -416 -17 33 c-9 17 -17 39 -18 47 0 8 203 217 450 465
371 372 450 456 450 478 0 15 -3 27 -7 27 -4 0 -213 -205 -464 -456 l-457
-456 -17 47 -18 46 481 483 c398 398 482 487 482 509 0 15 -3 27 -7 27 -4 0
-226 -219 -494 -486 l-486 -486 -18 47 -18 46 511 513 c424 424 512 516 512
539 0 15 -3 27 -7 27 -4 0 -240 -232 -524 -516 l-516 -516 -18 47 -18 46 541
543 c453 452 542 546 542 569 0 23 -3 26 -17 18 -10 -5 -258 -250 -552 -544
l-534 -535 -24 34 c-12 19 -23 38 -23 42 0 4 259 266 575 582 477 478 575 580
575 603 0 15 -3 27 -7 27 -4 0 -272 -264 -595 -587 l-587 -586 -34 29 -35 29
629 630 c527 528 629 635 629 658 0 23 -3 26 -17 18 -10 -5 -303 -295 -652
-644 l-634 -635 -44 21 -43 21 695 696 c579 580 695 700 695 723 0 15 -3 27
-7 27 -4 0 -328 -320 -720 -712 l-712 -712 -40 19 c-23 10 -41 21 -41 24 0 3
313 319 696 701 382 382 700 703 705 713 8 14 5 17 -18 17 -23 0 -141 -113
-734 -706 l-706 -706 -43 22 -43 22 677 677 c372 372 676 680 676 684 0 4 -12
7 -27 7 -23 0 -141 -113 -703 -673 l-675 -674 -43 21 -42 21 636 635 c349 349
640 643 645 653 8 14 5 17 -18 17 -23 0 -131 -104 -668 -640 l-641 -640 -42
16 c-23 10 -42 20 -42 23 0 3 270 276 601 606 330 330 605 608 610 618 8 14 5
17 -18 17 -23 0 -127 -99 -638 -609 l-610 -610 -42 22 -43 22 571 570 c314
314 575 578 580 588 8 14 5 17 -18 17 -23 0 -122 -94 -604 -576 l-577 -577
-46 19 -46 19 550 550 c303 303 550 554 550 558 0 4 -12 7 -27 7 -23 0 -121
-93 -574 -546 l-546 -546 -43 22 -43 22 517 517 c284 284 516 520 516 524 0 4
-12 7 -27 7 -23 0 -116 -89 -543 -514 l-515 -515 -42 22 -43 22 476 475 c261
261 480 483 485 493 8 14 5 17 -18 17 -23 0 -108 -80 -508 -481 l-482 -480
-41 16 c-23 10 -42 20 -42 24 0 3 198 204 441 446 242 242 445 448 450 458 8
14 5 17 -18 17 -22 0 -103 -76 -478 -449 l-450 -449 -48 17 -47 16 416 415
c228 228 420 423 425 433 8 14 5 17 -18 17 -22 0 -100 -73 -458 -430 l-431
-430 -58 -10 c-32 -5 -68 -12 -79 -16 -12 -3 175 191 416 433 240 241 437 442
437 446 0 4 -12 7 -27 7 -22 0 -108 -81 -493 -464 l-465 -464 -89 -25 -89 -25
481 482 c265 265 482 485 482 489 0 4 -12 7 -27 7 -22 0 -114 -87 -533 -505
l-506 -506 -94 -29 -94 -29 527 527 c290 290 527 531 527 535 0 4 -12 7 -27 7
-22 0 -123 -96 -583 -554 -502 -501 -559 -554 -595 -561 -31 -5 -42 -3 -52 11
-12 17 38 70 522 554 294 294 535 539 535 543 0 4 -12 7 -27 7 -23 0 -117 -89
-548 -521 l-522 -520 -28 36 -28 37 477 477 c262 262 476 480 476 484 0 4 -12
7 -27 7 -22 0 -108 -81 -490 -462 -254 -254 -464 -460 -466 -457 -2 2 -14 19
-27 37 l-23 34 417 417 c229 229 416 420 416 424 0 4 -12 7 -27 7 -22 0 -98
-71 -428 -400 -220 -220 -403 -400 -407 -400 -3 0 -16 16 -29 36 l-22 36 357
357 c196 196 356 360 356 364 0 4 -12 7 -27 7 -22 0 -90 -63 -371 -342 l-343
-343 -25 30 c-13 17 -24 35 -24 40 0 6 129 138 286 295 157 157 290 293 295
303 8 14 5 17 -17 17 -23 0 -80 -52 -313 -284 l-286 -285 -27 38 -27 37 230
230 c127 126 235 237 240 247 8 14 5 17 -17 17 -22 0 -71 -43 -254 -225 l-226
-226 -27 38 -27 38 180 180 c99 100 180 184 180 188 0 4 -12 7 -26 7 -21 0
-63 -36 -194 -165 l-167 -166 -28 36 -27 37 121 122 c66 68 121 126 121 129 0
4 -12 7 -26 7 -19 0 -53 -27 -135 -107 -108 -106 -110 -107 -154 -104 -33 2
-54 -4 -87 -25 -33 -20 -15 2 80 98 67 69 122 128 122 131 0 4 -12 7 -27 7
-22 0 -91 -64 -381 -352z m1918 -676 c0 -4 -109 -116 -243 -250 l-243 -242
-32 33 -32 33 203 202 c170 169 211 205 248 217 49 15 99 19 99 7z m111 -38
l41 -17 -248 -248 c-202 -202 -254 -249 -282 -254 -25 -5 -39 -2 -53 11 -19
17 -14 24 233 271 139 139 256 253 260 253 4 0 26 -7 49 -16z m-525 -183
l-168 -168 -39 25 -40 26 117 117 116 116 86 25 c48 14 89 26 92 27 3 0 -71
-75 -164 -168z m654 122 c22 -10 40 -20 40 -23 0 -3 -91 -96 -202 -207 l-203
-202 -70 -6 -70 -7 230 231 c126 127 231 231 232 231 2 0 21 -8 43 -17z m-860
-128 c-84 -85 -85 -86 -125 -79 -67 11 -69 16 -20 64 36 36 62 50 128 72 45
14 86 26 92 27 5 1 -29 -37 -75 -84z m875 -125 l-165 -165 -67 -2 -67 -2 189
189 188 188 44 -21 44 -21 -166 -166z m258 124 c18 -9 34 -18 37 -21 6 -5
-352 -363 -364 -363 -6 0 -23 12 -38 27 l-29 27 173 173 c95 95 176 173 181
173 4 0 22 -7 40 -16z m139 -65 l41 -21 -199 -199 -198 -199 -31 28 c-16 15
-32 28 -34 30 -5 3 370 382 377 382 1 0 21 -9 44 -21z m145 -67 l33 -17 -215
-215 -215 -215 -32 33 -33 32 200 200 c110 110 207 200 215 200 8 -1 30 -9 47
-18z m-2077 -83 l13 -31 -174 -174 c-184 -184 -193 -190 -254 -162 -26 12 -25
13 176 214 146 146 206 200 215 193 6 -5 18 -23 24 -40z m-295 -139 c-129
-129 -182 -176 -191 -169 -6 5 -18 23 -24 40 -13 31 -13 31 96 140 108 109
109 110 199 139 50 16 92 29 95 30 3 0 -76 -81 -175 -180z m2495 164 c22 -9
40 -19 40 -23 0 -3 -101 -107 -224 -230 l-224 -224 -37 28 -36 28 218 219
c120 120 219 218 220 218 2 0 21 -7 43 -16z m-1642 -72 c12 -8 22 -15 22 -16
0 -1 -70 -71 -155 -156 l-154 -154 -20 45 -20 44 132 132 c139 140 140 141
195 105z m1817 -13 c2 -3 -110 -119 -250 -259 -187 -187 -255 -249 -255 -234
0 12 -9 32 -19 45 l-20 24 231 231 231 232 38 -18 c22 -9 41 -19 44 -21z
m-2315 -38 c25 -48 13 -73 -77 -163 -78 -76 -93 -87 -133 -93 -25 -3 -58 -8
-75 -11 -26 -5 -10 15 115 140 80 80 148 146 152 146 4 0 12 -9 18 -19z m2414
-6 c20 -8 36 -19 36 -23 0 -4 -178 -185 -396 -403 l-397 -397 -34 31 -34 31
388 388 c213 213 391 388 394 388 4 0 23 -7 43 -15z m-1826 -28 l32 -33 -169
-168 -169 -169 -22 43 -22 43 158 158 c88 88 159 159 159 159 1 0 15 -15 33
-33z m1964 -38 l41 -21 -413 -413 c-437 -437 -421 -424 -465 -375 l-19 21 404
404 c223 223 406 405 408 405 1 0 21 -9 44 -21z m-2014 -276 c-101 -101 -185
-183 -188 -183 -3 0 -14 18 -24 41 l-20 40 174 174 174 175 33 -32 33 -32
-182 -183z m2172 192 c6 -7 -145 -165 -419 -439 l-429 -429 -30 34 -31 34 421
422 422 422 29 -17 c16 -9 32 -22 37 -27z m-1448 -12 l28 -27 -77 -78 -77 -78
-33 32 -33 32 72 73 c40 40 77 73 82 73 6 0 23 -12 38 -27z m-639 -295 c-109
-109 -201 -198 -204 -198 -3 0 -14 18 -24 41 l-19 40 189 189 189 190 33 -32
33 -32 -197 -198z m2151 210 l16 -43 -800 -800 -801 -800 -30 35 -29 35 807
807 c445 445 811 808 814 808 3 0 13 -19 23 -42z m-1406 -6 l33 -27 -80 -79
-79 -79 -37 28 -36 28 78 79 c42 43 80 78 83 78 3 0 20 -13 38 -28z m-660
-319 c-117 -117 -215 -213 -218 -213 -7 0 -40 60 -40 73 0 7 91 103 202 214
l202 203 33 -32 33 -32 -212 -213z m767 227 l29 -31 -79 -79 -80 -79 -35 29
-35 29 80 81 c44 44 82 80 85 80 4 0 19 -14 35 -30z m1357 -44 l16 -43 -773
-773 -773 -773 -36 22 c-20 13 -36 26 -36 29 0 8 1572 1582 1580 1582 3 0 13
-20 22 -44z m-2742 6 c0 -4 -96 -103 -213 -220 -212 -212 -213 -213 -225 -187
-28 61 -21 71 151 242 148 148 165 162 202 166 75 7 85 7 85 -1z m1519 -82 c1
-3 -35 -41 -78 -84 l-80 -79 -36 28 -37 28 83 83 82 83 33 -27 c18 -15 33 -29
33 -32z m-1463 -24 l16 -29 -183 -183 c-101 -101 -190 -184 -197 -184 -7 0
-29 7 -49 15 l-37 16 209 209 c144 144 212 206 217 197 5 -7 16 -25 24 -41z
m2748 -47 l15 -35 -744 -744 -743 -743 -33 23 c-19 13 -36 25 -39 27 -2 2 338
346 755 763 418 418 763 756 767 752 4 -4 14 -23 22 -43z m-1775 -17 c6 -3
-471 -482 -479 -482 -3 0 -16 17 -29 37 l-23 36 128 126 c71 69 159 147 196
173 47 33 69 55 74 75 4 15 20 43 37 60 l31 33 30 -28 c17 -15 33 -28 35 -30z
m573 25 l37 -23 -87 -87 -88 -87 -34 29 -35 30 80 80 c44 45 82 81 85 81 3 0
22 -11 42 -23z m-1548 -208 c-84 -85 -90 -88 -158 -104 -39 -9 -78 -19 -86
-21 -8 -3 52 63 134 145 l150 150 23 -41 24 -42 -87 -87z m1051 112 l33 -28
-257 -257 -256 -256 -24 42 -23 41 243 243 c134 134 246 244 248 244 2 0 18
-13 36 -29z m1759 -52 l15 -35 -712 -711 -712 -711 -39 25 -39 25 729 729
c401 401 732 725 736 721 4 -4 14 -23 22 -43z m-1891 -341 c-147 -147 -269
-265 -272 -263 -3 2 -15 20 -25 40 l-20 36 259 259 259 260 33 -32 33 -32
-267 -268z m1948 210 l21 -41 -679 -679 c-373 -373 -681 -678 -686 -678 -4 0
-23 10 -42 23 l-35 22 698 698 c383 383 698 697 699 697 2 0 12 -19 24 -42z
m-1606 -8 l29 -31 -281 -281 -281 -281 -25 39 -25 39 271 273 c150 149 274
272 278 272 3 0 18 -14 34 -30z m-157 -417 c-161 -161 -295 -293 -298 -293 -4
0 -16 17 -28 38 l-21 37 287 287 286 288 33 -32 33 -32 -292 -293z m1824 283
l16 -43 -648 -648 -648 -648 -36 22 c-20 13 -36 26 -36 29 0 8 1322 1332 1330
1332 3 0 13 -20 22 -44z m-2892 -151 c-196 -196 -194 -195 -225 -135 -14 26
-12 28 113 153 124 122 129 126 197 145 39 11 77 20 85 21 8 0 -68 -82 -170
-184z m240 98 l21 -37 -159 -159 -159 -159 -43 22 -43 22 174 174 c96 96 177
174 180 174 4 0 17 -17 29 -37z m1195 -3 l29 -31 -304 -304 c-168 -168 -308
-305 -312 -305 -3 0 -16 16 -29 36 l-22 36 299 299 c164 164 301 299 305 299
3 0 18 -14 34 -30z m1515 -82 l19 -43 -616 -617 -617 -617 -36 21 c-19 12 -37
23 -40 25 -4 3 1261 1273 1268 1273 2 0 12 -19 22 -42z m-1380 -28 c8 0 -133
-148 -314 -329 -182 -182 -332 -328 -335 -326 -3 2 -15 20 -25 40 l-20 36 314
314 314 315 26 -25 c14 -14 33 -25 40 -25z m-1253 -8 l22 -39 -114 -113 -113
-113 -57 8 -58 7 144 144 c79 79 146 144 149 144 3 0 15 -17 27 -38z m2682
-147 c1 -27 -59 -90 -571 -602 l-571 -571 -39 26 -39 26 603 603 c571 572 603
602 609 576 4 -16 7 -41 8 -58z m-2606 26 l26 -38 -42 -41 c-38 -36 -48 -40
-112 -47 l-70 -7 85 86 c46 47 85 86 86 86 1 0 13 -17 27 -39z m2108 -754
c-457 -458 -537 -534 -545 -518 -4 10 -19 25 -33 32 -24 13 -14 23 534 571
l558 558 11 -52 11 -53 -536 -538z m-1935 482 c4 -7 -58 -76 -147 -165 l-154
-154 -57 0 c-32 0 -58 3 -58 8 0 14 305 310 325 315 38 9 84 7 91 -4z m-328
-146 l-137 -137 -26 24 c-14 13 -25 31 -25 39 0 21 178 198 205 204 11 3 42 5
70 6 l50 1 -137 -137z m2268 -530 c-308 -309 -561 -561 -562 -560 -1 1 3 34 8
72 l9 70 542 543 542 542 11 -52 11 -53 -561 -562z m-1877 580 l23 -36 -84
-84 -83 -83 -70 -6 -70 -6 125 126 c69 69 127 126 130 126 3 0 16 -17 29 -37z
m2459 -140 l9 -51 -594 -594 c-406 -405 -593 -585 -589 -568 3 14 8 48 11 75
l6 50 572 572 c314 315 572 571 573 570 1 -1 6 -25 12 -54z m30 -170 l9 -51
-624 -624 c-426 -425 -623 -615 -619 -598 3 14 8 48 11 75 l6 50 602 602 c331
331 602 601 603 600 1 -1 6 -25 12 -54z"/>
<path d="M4896 250 c-119 -118 -222 -223 -227 -232 -8 -15 -5 -18 17 -18 21 0
65 37 211 183 205 202 226 227 221 260 -3 19 -37 -11 -222 -193z"/>
<path d="M4996 150 c-136 -133 -149 -150 -111 -150 18 0 49 23 111 82 102 98
127 130 122 161 -3 19 -19 7 -122 -93z"/>
</g>
</svg>
