<?xml version="1.0"?>
<svg xmlns="http://www.w3.org/2000/svg" viewBox="0 0 512 512" width="512" height="512"><g id="Fill_out_line" data-name="Fill out line"><rect x="187.30809" y="232" width="32.02524" height="60.33333" style="fill:gray"/><polygon points="264 336 264 304 232 296 232 344 264 344 264 336" style="fill:gray"/><path d="M488,296l-88,24-48,16-40-8-16-32-16-24-40,8-24,16-16-48,9.5-21.5L240,232h16l1.52,1.21A184.48323,184.48323,0,0,0,344.71,271.49023L400,280Z" style="fill:#eb352f"/><polygon points="312 328 280 384 256 376 264 336 264 304 232 296 216 296 240 280 280 272 296 296 312 328" style="fill:#ccc"/><path d="M280,384l108.55707,50.66a14.69994,14.69994,0,0,0,18.44747-5.16678l0,0a14.69994,14.69994,0,0,0-5.31347-21.12459L296,352Z" style="fill:#e6e6e6"/><path d="M92.74708,232h3.35947a76.99759,76.99759,0,0,1,54.44552,22.55207l0,0a76.99755,76.99755,0,0,1,21.50444,41.7872l1.53077,9.18459A17.32418,17.32418,0,0,0,190.67578,320h0A17.32418,17.32418,0,0,0,208,302.67582V281.346a57.59266,57.59266,0,0,0-2.95546-18.21236v0a57.5925,57.5925,0,0,0-17.15635-25.51516l-3.46148-2.967a120.36334,120.36334,0,0,0-93.26064-28.04721H91.166A12.74708,12.74708,0,0,0,80,219.2529v0A12.74708,12.74708,0,0,0,92.74708,232Z" style="fill:#eb352f"/><polygon points="400 280 488 296 400 320 400 280" style="fill:#c7161f"/><path d="M264,336H243.48191a15.93031,15.93031,0,0,0-15.11281,10.8927v0a15.93032,15.93032,0,0,0,7.98857,19.28611L256,376Z" style="fill:#4d4d4d"/><polygon points="208 200 240 232 224 232 200 248 176 232 208 200" style="fill:#ccc"/><path d="M344,152l-40,40-13.58008-9.05-41.06006-27.37988a27.32455,27.32455,0,0,1-8.12988-37.01c.43994-.72022.91992-1.43018,1.42993-2.11011l11.74-15.6499a32.00013,32.00013,0,0,1,51.2002,0L335.7,140.92993Z" style="fill:#eb352f"/><path d="M320,144l-48,32v16a16,16,0,0,1-32,0V176l40-40-14.98-9.99a20.23151,20.23151,0,0,1-9.02-16.8501V108.25A20.25,20.25,0,0,1,293.83008,98.2Z" style="fill:#eb352f"/><path d="M348.5,235.22,320,280a71.59279,71.59279,0,0,1,20.62012,57.77L336,384l-64-16,40-16-32-80,24-80,40-40A71.64133,71.64133,0,0,1,348.5,235.22Z" style="fill:gray"/><polygon points="192 72 224 120 256 80 224 40 192 72" style="fill:gray"/><path d="M280,70.73V88l-40,32-10.90991,3.64014L216,128l-8-16,32-32L224,56,192,88l-.02-.05a44.1818,44.1818,0,0,1,11.91992-54.27,45.47217,45.47217,0,0,1,12.98-7.18994A44.28192,44.28192,0,0,1,231.5,24h2.3999A44.29115,44.29115,0,0,1,269.26,41.67993l1.8999,2.54A44.16486,44.16486,0,0,1,280,70.73Z" style="fill:#4d4d4d"/><path d="M340.62012,337.77,336,384l-64-16,40-16-16-40h42.51A71.64215,71.64215,0,0,1,340.62012,337.77Z" style="fill:#4d4d4d"/><path d="M272,176v16a16,16,0,0,1-32,0V176Z" style="fill:gray"/><polygon points="242.66 116.45 240 120 216 128 208 112 214.4 105.6 242.66 116.45" style="fill:#e6e6e6"/><path d="M264.35986,36.17993,240,80,224,56,192,88l-.02-.05a44.1818,44.1818,0,0,1,11.91992-54.27A42.738,42.738,0,0,1,209.27,30.02L200,64l45.01-38.58008A44.07722,44.07722,0,0,1,264.35986,36.17993Z" style="fill:#e6e6e6"/><path d="M495.99219,295.6543a8.00015,8.00015,0,0,0-6.56153-7.52539l-88-16c-.07128-.0127-.14257-.02442-.21386-.03614l-55.28809-8.50586c-1.80273-.27734-3.60693-.59472-5.40967-.92968l14.729-23.14551a79.63316,79.63316,0,0,0-4.84888-92.31055l.00122-.001L312,96a40.20143,40.20143,0,0,0-24-15.16479V70.73047A52.52392,52.52392,0,0,0,277.56152,39.415L275.65625,36.876A52.43761,52.43761,0,0,0,233.90527,16H231.501a52.18923,52.18923,0,0,0-46.68555,75.51855,8.00028,8.00028,0,0,0,12.8418,2.13868L217.459,73.85547a6.14228,6.14228,0,0,1,9.45411.93555,6.15837,6.15837,0,0,1-.76856,7.75l-23.80176,23.80175a8.00157,8.00157,0,0,0-1.498,9.23535l8,16a7.99769,7.99769,0,0,0,9.68554,4.01172l10.68677-3.56225a35.42673,35.42673,0,0,0,14.261,29.17993l-9.13526,9.13525A8.00235,8.00235,0,0,0,232,176h-8a8.00321,8.00321,0,0,0-5.81641,2.50684L178.771,220.23779A128.639,128.639,0,0,0,90.1748,198.666,20.747,20.747,0,0,0,92.74707,240h3.35938A68.493,68.493,0,0,1,142.855,258.2666l-11.564,12.24414a72.23961,72.23961,0,1,0,11.623,10.99658l10.43653-11.05078A68.62827,68.62827,0,0,1,164.165,297.65332l1.53125,9.18555A25.24479,25.24479,0,0,0,190.67578,328c.61133,0,1.22022-.02441,1.82568-.06738A27.98063,27.98063,0,0,0,212,376h26.11133l14.31055,7.15527.00341-.00683a7.99265,7.99265,0,0,0,1.04444.4414l23.57226,7.85743,51.479,24.02441A71.99251,71.99251,0,1,0,400,352a72.01249,72.01249,0,0,0-49.67017,19.90918l-4.824-2.57275,2.59619-25.95752,2.32959.46582a8.00545,8.00545,0,0,0,4.09863-.25489l47.78907-15.93066,87.78515-23.94141A7.99751,7.99751,0,0,0,495.99219,295.6543ZM341.75,230.92188l-28.499,44.7832a7.99954,7.99954,0,0,0,1.09179,9.95215A63.66318,63.66318,0,0,1,327.13062,304H301.4165l-12.95068-32.377L311.083,196.23047l31.7998-31.79981A63.64655,63.64655,0,0,1,341.75,230.92188Zm56.17578,184.50488a6.70054,6.70054,0,0,1-5.98633,11.98437L294.1853,381.792l39.87427,9.96875a7.99663,7.99663,0,0,0,9.552-5.30176ZM256,328H243.48145A24.01916,24.01916,0,0,0,240,328.26318V306.24609l16,4Zm-62.90527-96.456-1.6543-1.41773,17.18018-18.19116,12.58984,12.58984a7.98439,7.98439,0,0,0-1.648.81885l-19.58691,13.05811A65.574,65.574,0,0,0,193.09473,231.544Zm80.623,33.55371-35.28711,7.05761a7.99221,7.99221,0,0,0-2.86816,1.18848L220.27734,283.5332l-10.75586-32.2666L226.42188,240h26.77539A192.997,192.997,0,0,0,276.5,255.82471ZM208,312a8.00917,8.00917,0,0,1,8-8h8v16h-8A8.00917,8.00917,0,0,1,208,312Zm31.84814-22.28369,3.273-2.18213L275.044,281.1499,301.60059,347.543l-32.57129,13.0293a7.97474,7.97474,0,0,0-2.02442,1.19433l4.83985-24.19726A7.9929,7.9929,0,0,0,272,336V304a7.99866,7.99866,0,0,0-6.05957-7.76074Zm92.815,47.26025-3.70215,37.01758-31.01856-7.75488,17.02832-6.81153a7.99975,7.99975,0,0,0,4.457-10.39843L307.81616,320h24.269A63.85556,63.85556,0,0,1,332.66309,336.97656ZM248,184h16v8a8,8,0,0,1-16,0Zm37.65723-42.34277a8.00073,8.00073,0,0,0-1.21973-12.31348l-14.98242-9.98828A12.22556,12.22556,0,0,1,264,109.16309V108.249a12.24877,12.24877,0,0,1,22.88379-6.07714l22.46582,39.31347L269.57812,168h-10.2644Zm38.78027,8.999a7.98761,7.98761,0,0,0,3.55518-6.66553l5.44384,7.2583L302.98,181.70557l-12.55786-8.37232ZM217.73438,113.58008,237.459,93.85547A22.14266,22.14266,0,0,0,206.14453,62.541L195.65918,73.02637A36.1599,36.1599,0,0,1,231.501,32h2.40429a36.36231,36.36231,0,0,1,28.95215,14.47656l1.9043,2.53906A36.41635,36.41635,0,0,1,272,70.73047v9.5896a28.12165,28.12165,0,0,0-13.41406,5.90649A39.7946,39.7946,0,0,0,248,96l-11.74023,15.6543c-.3667.48877-.69751.99975-1.03736,1.50512l-15.16968,5.05738ZM253.79883,148.918a19.31356,19.31356,0,0,1-4.73828-27.665l1.04638-1.39526A28.19988,28.19988,0,0,0,260.5791,132.668l6.86328,4.57519L254.98,149.70557ZM227.44824,192H232a24,24,0,0,0,48,0v-6.38574l14.63574,9.75732-13.39941,44.6648a176.91823,176.91823,0,0,1-18.72461-13.07251l-1.51563-1.21192A8.00009,8.00009,0,0,0,256,224H243.31445l-23.70263-23.70264ZM96.10645,224H92.74707a4.74683,4.74683,0,0,1-.58887-9.457,112.6438,112.6438,0,0,1,75.47315,17.48974l-13.79273,14.604A84.38165,84.38165,0,0,0,96.10645,224ZM144,328a56.08744,56.08744,0,1,1-23.78369-45.76318l-38.03272,40.27,11.63282,10.98632,38.03-40.26709A55.71114,55.71114,0,0,1,144,328Zm37.47852-23.791-1.53125-9.18554a84.48747,84.48747,0,0,0-15.39331-36.4292l15.8872-16.82178,2.24048,1.91992A49.605,49.605,0,0,1,197.44873,265.646l.01563.04638A49.51665,49.51665,0,0,1,200,281.3457v12.78516a23.94291,23.94291,0,0,0-7.99756,17.77148A9.4307,9.4307,0,0,1,190.67578,312,9.29485,9.29485,0,0,1,181.47852,304.209ZM200,348a12.01312,12.01312,0,0,1,12-12h12v2.04688A23.68407,23.68407,0,0,0,221.0166,360H212A12.01312,12.01312,0,0,1,200,348Zm39.93457,11.02344A7.93062,7.93062,0,0,1,243.48145,344H254.2417l-4.03223,20.16016ZM400,368a56,56,0,1,1-56,56c0-.43018.02344-.85938.0332-1.28906l41.14063,19.19922a22.824,22.824,0,0,0,9.665,2.16015,22.71877,22.71877,0,0,0,10.61718-42.76074l-40.019-21.34326A56.0052,56.0052,0,0,1,400,368Zm-48.51465-40.26172-2.5874-.51709a79.19148,79.19148,0,0,0-18.84619-48.11572l1.26806-1.99268c4.03687.88965,8.11084,1.66309,12.1753,2.28858L392,286.86377V314.2334ZM408,309.52637V289.58594l43.86816,7.97558Z"/></g></svg>
