<svg height="512" viewBox="0 0 64 64" width="512" xmlns="http://www.w3.org/2000/svg"><g id="Fill_Outline" data-name="Fill Outline"><rect fill="#a1d51c" height="38" rx="4" width="48" x="8" y="7"/><path d="m36 38a18.16 18.16 0 0 1 -4-.46v-20.54a4 4 0 0 0 -4 4v15.11a18 18 0 0 1 -10-16.11v-13h-6a4 4 0 0 0 -4 4v30a4 4 0 0 0 4 4h40a4 4 0 0 0 4-4v-3z" fill="#7ab92d"/><rect fill="#57b7eb" height="28" rx="4" width="28" x="32" y="13"/><path d="m36 19v-6a4 4 0 0 0 -4 4v20a4 4 0 0 0 4 4h20a4 4 0 0 0 4-4h-6a18 18 0 0 1 -18-18z" fill="#4891d3"/><circle cx="46" cy="27" fill="#7fcaf3" r="10"/><circle cx="46" cy="27" fill="#4891d3" r="6"/><circle cx="48.83" cy="24.17" fill="#aae1f9" r="2"/><rect fill="#aae1f9" height="6" rx="2" width="18" x="23" y="3"/><path d="m13 12h13v13h-13z" fill="#aae1f9"/><circle cx="19" cy="37" fill="#aae1f9" r="3"/><path d="m24 45h16v12h-16z" fill="#57b7eb"/><path d="m17 57h30a2 2 0 0 1 2 2v2a0 0 0 0 1 0 0h-34a0 0 0 0 1 0 0v-2a2 2 0 0 1 2-2z" fill="#7fcaf3"/><path d="m29 45h6v12h-6z" fill="#7fcaf3"/><path d="m19 49h5a0 0 0 0 1 0 0v4a0 0 0 0 1 0 0h-5a2 2 0 0 1 -2-2 2 2 0 0 1 2-2z" fill="#7fcaf3"/><path d="m53 49h-13v4h13l8 3v-10z" fill="#aae1f9"/><path d="m46 37a10 10 0 0 0 3.42-.61 18 18 0 0 1 -12.81-12.81 10 10 0 0 0 9.39 13.42z" fill="#57b7eb"/><path d="m13 12v2h7a4 4 0 0 1 4 4v7h2v-13z" fill="#7fcaf3"/><path d="m21 38a3 3 0 0 1 -3-3 3 3 0 0 1 .14-.86 3 3 0 1 0 3.72 3.72 3 3 0 0 1 -.86.14z" fill="#7fcaf3"/><path d="m26 3h-1a2 2 0 0 0 -2 2v2a2 2 0 0 0 2 2h14a2 2 0 0 0 2-2v-1h-12a3 3 0 0 1 -3-3z" fill="#7fcaf3"/><path d="m24 45h5v3h-5z" fill="#4891d3"/><path d="m35 45h5v3h-5z" fill="#4891d3"/><path d="m29 45h6v3h-6z" fill="#57b7eb"/><path d="m45 51a3 3 0 0 1 -2.82-2h-2.18v4h13l8 3v-5z" fill="#7fcaf3"/><path d="m17 57h30a2 2 0 0 1 2 2 0 0 0 0 1 0 0h-30a2 2 0 0 1 -2-2 0 0 0 0 1 0 0z" fill="#aae1f9"/><g fill="#39519d"><path d="m46 38a11 11 0 1 0 -11-11 11 11 0 0 0 11 11zm0-20a9 9 0 1 1 -9 9 9 9 0 0 1 9-9z"/><path d="m46 34a7 7 0 0 0 6.88-5.76 1 1 0 0 0 -.8-1.16 1 1 0 0 0 -1.17.8 5 5 0 0 1 -1.37 2.66 5 5 0 1 1 -4.43-8.45 1 1 0 0 0 .81-1.16 1 1 0 0 0 -1.16-.81 7 7 0 0 0 1.24 13.88z"/><path d="m46.71 26.29a3 3 0 0 0 4.24 0 3 3 0 0 0 0-4.24 3.08 3.08 0 0 0 -4.24 0 3 3 0 0 0 0 4.24zm1.41-2.83a1 1 0 1 1 0 1.42 1 1 0 0 1 0-1.42z"/><path d="m36 12a5 5 0 0 0 -5 5v10a1 1 0 0 0 2 0v-10a3 3 0 0 1 3-3h20a3 3 0 0 1 3 3v20a3 3 0 0 1 -3 3h-20a3 3 0 0 1 -3-3v-6a1 1 0 0 0 -2 0v6a5 5 0 0 0 5 5h20a5 5 0 0 0 5-5v-20a5 5 0 0 0 -5-5z"/><path d="m27 25v-13a1 1 0 0 0 -1-1h-13a1 1 0 0 0 -1 1v13a1 1 0 0 0 1 1h13a1 1 0 0 0 1-1zm-2-1h-11v-11h11z"/><path d="m17 17h4v2a1 1 0 0 0 2 0v-3a1 1 0 0 0 -1-1h-5a1 1 0 0 0 0 2z"/><path d="m19 31a1 1 0 0 0 -1 1v1.14a4 4 0 1 0 2 0v-1.14a1 1 0 0 0 -1-1zm2 6a2 2 0 1 1 -3-1.72v.72a1 1 0 0 0 2 0v-.72a2 2 0 0 1 1 1.72z"/><path d="m61.57 45.18a1 1 0 0 0 -.92-.12l-7.83 2.94h-11.82v-2h11a1 1 0 0 0 0-2h-40a3 3 0 0 1 -3-3v-30a3 3 0 0 1 3-3h10.18a3 3 0 0 0 2.82 2h14a3 3 0 0 0 2.82-2h10.18a3 3 0 0 1 2.58 1.5 1 1 0 0 0 .87.5.93.93 0 0 0 .5-.14 1 1 0 0 0 .36-1.36 5 5 0 0 0 -4.31-2.5h-10v-1a3 3 0 0 0 -3-3h-14a3 3 0 0 0 -3 3v1h-10a5 5 0 0 0 -5 5v30a5 5 0 0 0 5 5h11v2h-4a3 3 0 0 0 0 6h4v2h-6a3 3 0 0 0 -3 3v2a1 1 0 0 0 1 1h34a1 1 0 0 0 1-1v-2a3 3 0 0 0 -3-3h-6v-2h11.82l7.83 2.94a1 1 0 0 0 .35.06 1 1 0 0 0 1-1v-10a1 1 0 0 0 -.43-.82zm-37.57-40.18a1 1 0 0 1 1-1h14a1 1 0 0 1 1 1v2a1 1 0 0 1 -1 1h-14a1 1 0 0 1 -1-1zm10 41v10h-4v-10zm-15 6a1 1 0 0 1 0-2h4v2zm6-6h3v10h-3zm23 13v1h-32v-1a1 1 0 0 1 1-1h30a1 1 0 0 1 1 1zm-12-3v-10h3v10zm17.35-3.94a1 1 0 0 0 -.35-.06h-12v-2h12a1 1 0 0 0 .35-.06l6.65-2.5v2.56h-2a1 1 0 0 0 0 2h2v2.56z"/></g></g></svg>