<?xml version="1.0" encoding="iso-8859-1"?>
<!-- Generator: Adobe Illustrator 19.0.0, SVG Export Plug-In . SVG Version: 6.00 Build 0)  -->
<svg version="1.1" id="Capa_1" xmlns="http://www.w3.org/2000/svg" xmlns:xlink="http://www.w3.org/1999/xlink" x="0px" y="0px"
	 viewBox="0 0 512 512" style="enable-background:new 0 0 512 512;" xml:space="preserve">
<path style="fill:#7A666C;" d="M252.545,408.725L115.284,173.42c-1.556-2.667,0.368-6.015,3.455-6.015h274.522
	c3.087,0,5.011,3.349,3.455,6.015L259.455,408.725C257.912,411.371,254.088,411.371,252.545,408.725z"/>
<path style="fill:#E8E1D7;" d="M303.071,294.83L303.071,294.83c-5.917,5.917-15.511,5.917-21.428,0L224,237.5l21.5-21.5
	l57.571,57.401C308.988,279.318,308.988,288.912,303.071,294.83z"/>
<path style="fill:#F1EBE0;" d="M275.699,203.16l-64.297,64.297c-2.55,2.55-6.91,0.744-6.91-2.862v-64.297
	c0-2.236,1.812-4.048,4.048-4.048h64.297C276.443,196.249,278.249,200.61,275.699,203.16z"/>
<path style="fill:#FFD681;" d="M256,0v61.811c-53.538,0-102.091,21.778-137.251,56.938L74.977,74.977C121.314,28.66,185.309,0,256,0
	z"/>
<g>
	<path style="fill:#FFBD2A;" d="M256,0v30.905c-62.161,0-118.43,25.198-159.163,65.932l-21.86-21.86C121.314,28.66,185.309,0,256,0z
		"/>
	<path style="fill:#FFBD2A;" d="M437.023,74.977l-43.772,43.772C358.091,83.589,309.538,61.811,256,61.811V0
		C326.691,0,390.686,28.66,437.023,74.977z"/>
</g>
<g>
	<path style="fill:#FF993B;" d="M437.023,74.977l-21.86,21.86C374.43,56.104,318.161,30.905,256,30.905V0
		C326.691,0,390.686,28.66,437.023,74.977z"/>
	<path style="fill:#FF993B;" d="M512,256h-61.811c0-53.538-21.778-102.091-56.938-137.251l43.772-43.772
		C483.34,121.314,512,185.309,512,256z"/>
</g>
<g>
	<path style="fill:#FF7B48;" d="M512,256h-30.905c0-62.161-25.198-118.43-65.932-159.163l21.86-21.86
		C483.34,121.314,512,185.309,512,256z"/>
	<path style="fill:#FF7B48;" d="M512,256c0,70.691-28.66,134.686-74.977,181.023l-43.772-43.772
		c35.16-35.16,56.938-83.713,56.938-137.251H512z"/>
</g>
<g>
	<path style="fill:#FF5A51;" d="M512,256c0,70.691-28.66,134.686-74.977,181.023l-21.86-21.86
		c40.733-40.733,65.932-97.002,65.932-159.163L512,256L512,256z"/>
	<path style="fill:#FF5A51;" d="M437.023,437.023C390.686,483.34,326.691,512,256,512v-61.811
		c53.538,0,102.091-21.778,137.251-56.938L437.023,437.023z"/>
</g>
<g>
	<path style="fill:#E75955;" d="M437.023,437.023C390.686,483.34,326.691,512,256,512v-30.905
		c62.161,0,118.43-25.198,159.163-65.932L437.023,437.023z"/>
	<path style="fill:#E75955;" d="M256,450.189V512c-70.691,0-134.686-28.66-181.023-74.977l43.772-43.772
		C153.909,428.411,202.462,450.189,256,450.189z"/>
</g>
<g>
	<path style="fill:#A85759;" d="M256,481.095V512c-70.691,0-134.686-28.66-181.023-74.977l21.86-21.86
		C137.57,455.896,193.839,481.095,256,481.095z"/>
	<path style="fill:#A85759;" d="M118.749,393.251l-43.772,43.772C28.66,390.686,0,326.691,0,256h61.811
		C61.811,309.538,83.589,358.091,118.749,393.251z"/>
</g>
<g>
	<path style="fill:#89454A;" d="M96.837,415.163l-21.86,21.86C28.66,390.686,0,326.691,0,256h30.905
		C30.905,318.161,56.104,374.43,96.837,415.163z"/>
	<path style="fill:#89454A;" d="M118.749,118.749C83.589,153.909,61.811,202.462,61.811,256H0
		c0-70.691,28.66-134.686,74.977-181.023L118.749,118.749z"/>
</g>
<path style="fill:#6D353C;" d="M96.837,96.837C56.104,137.57,30.905,193.839,30.905,256H0c0-70.691,28.66-134.686,74.977-181.023
	L96.837,96.837z"/>
<g>
</g>
<g>
</g>
<g>
</g>
<g>
</g>
<g>
</g>
<g>
</g>
<g>
</g>
<g>
</g>
<g>
</g>
<g>
</g>
<g>
</g>
<g>
</g>
<g>
</g>
<g>
</g>
<g>
</g>
</svg>
