<svg id="Capa_1" enable-background="new 0 0 512 512" height="512" viewBox="0 0 512 512" width="512" xmlns="http://www.w3.org/2000/svg"><path d="m368.614 217.822c-3.301-3.958-7.009-3.246-8.127 1.574-12.184 52.521-43.856 94.687-55.065 78.893-21.463-30.243 30.061-77.444 8.247-143.069-12.915-38.854-40.122-62.815-55.196-73.387-3.347-2.347-8.176.318-7.274 4.014 5.038 20.66 10.155 69.419-23.391 98.823-16.741 14.674-26.937 30.531-33.147 44.261-4.615 10.204-18.302 11.888-25.368 3.199-9.897-12.171-22.102-22.04-29.485-27.701-3.313-2.54-8.366.13-7.414 3.918 10.937 43.536.293 75.293-6.232 105.061-15.166 69.186 86.675 120.442 131.756 117.525 31.22-2.02 122.844-37.806 128.769-117.695 3.401-45.855-6.53-81.576-18.073-95.416z" fill="#fcb143"/><path d="m368.614 217.822c-3.301-3.958-7.009-3.246-8.127 1.574-3.371 14.533-8.236 28.269-13.745 40.207 2.667 15.251 3.753 33.46 2.256 53.635-5.201 70.112-76.402 106.252-114.857 115.414 8.823 1.915 16.952 2.723 23.776 2.281 31.22-2.02 122.844-37.806 128.769-117.695 3.402-45.855-6.529-81.576-18.072-95.416z" fill="#fba615"/><path d="m313.841 342.169c-63.477 15.966-52.021-62.954-71.199-60.376-34.332 4.614-9.186 70.613-19.76 74.919-21.399 8.713-33.688-40.949-34.816-35.834-3.688 16.715-22.08 57.974-4.865 87.308 26.279 15.481 55.6 23.985 74.716 22.748 6.096-.394 14.494-2.076 24.107-5.122.073-.026.146-.051.22-.074 23.292-21.124 37.404-46.068 44.258-70.514 2.175-7.757-4.849-15.02-12.661-13.055z" fill="#fcee56"/><path d="m314.906 384.042c-25.077 24.875-58.439 39.29-80.764 44.609 8.823 1.915 16.952 2.723 23.776 2.281 6.141-.397 14.624-2.107 24.327-5.196 14.128-12.812 24.859-27.033 32.661-41.694z" fill="#fbe709"/><path d="m254.844 115.019c8.227 10.993 15.87 24.358 21.137 40.201 21.813 65.624-29.71 112.826-8.247 143.069 11.209 15.795 40.816 17.832 45.392 3.186-3.065.591-5.709-.376-7.703-3.186-21.463-30.243 30.061-77.444 8.248-143.069-12.915-38.854-40.122-62.815-55.196-73.387-3.347-2.347-8.176.318-7.274 4.014 1.721 7.068 3.452 17.427 3.643 29.172z" fill="#fba615"/><path d="m256 504.5c-66.377 0-128.78-25.849-175.716-72.784s-72.784-109.339-72.784-175.716 25.849-128.78 72.784-175.716 109.339-72.784 175.716-72.784 128.78 25.849 175.716 72.784c46.935 46.936 72.784 109.339 72.784 175.716s-25.849 128.78-72.784 175.716c-46.936 46.935-109.339 72.784-175.716 72.784zm-139.948-84.867 3.472 2.853c38.277 31.452 86.745 48.774 136.477 48.774 57.498 0 111.554-22.391 152.211-63.048 38.04-38.04 60.349-88.561 62.819-142.259 2.454-53.342-14.787-105.345-48.544-146.429l-2.854-3.472zm139.947-378.893c-57.498 0-111.554 22.391-152.211 63.048-38.039 38.04-60.349 88.561-62.819 142.259-2.454 53.343 14.787 105.345 48.545 146.429l2.853 3.472 303.581-303.582-3.473-2.853c-38.276-31.452-86.745-48.773-136.476-48.773z" fill="#fa4954"/><path d="m431.716 80.284c-46.936-46.935-109.339-72.784-175.716-72.784-6.321 0-12.605.238-18.844.703 59.277 4.415 114.405 29.616 156.871 72.082 19.987 19.987 36.134 42.786 48.105 67.495 20.677 35.511 30.819 76.432 28.899 118.174-1.603 34.841-11.567 68.34-28.751 97.965-11.986 24.826-28.185 47.729-48.253 67.797-42.466 42.466-97.595 67.667-156.871 72.082 6.239.465 12.523.703 18.844.703 66.377 0 128.78-25.849 175.716-72.784 46.935-46.937 72.784-109.34 72.784-175.717s-25.849-128.78-72.784-175.716z" fill="#fa2a3b"/><path d="m248.625 75.618c-3.979 2.717-5.829 7.43-4.713 12.006 2.448 10.037 12.938 61.615-21.048 91.405-15.244 13.361-27.032 29.111-35.037 46.811-2.313 5.116-9.161 5.93-12.715 1.558-7.776-9.562-17.832-19.022-30.742-28.922-8.904-6.824-21.953.943-19.251 11.698 12.396 49.346-4.796 86.467-7.466 108.582-.496 4.112 2.436 7.848 6.548 8.344 4.11.499 7.848-2.436 8.345-6.548 2.2-18.263 18.45-57.107 9.116-105.084 8.92 7.322 16.096 14.365 21.812 21.394 10.595 13.027 31.115 10.427 38.021-4.84 7.116-15.736 17.633-29.77 31.256-41.711 16.045-14.063 25.688-33.378 28.664-57.409 1.991-16.081.47-30.786-1.194-40.412 11.001 8.694 26.603 23.715 38.094 45.699 1.919 3.672 6.453 5.091 10.12 3.173 3.672-1.919 5.092-6.45 3.173-10.121-15.293-29.261-37.157-47.362-48.828-55.548-4.209-2.952-9.897-2.983-14.155-.075z"/><path d="m428.281 114.762-2.854-3.473c-2.805-3.411-7.955-3.682-11.098-.541l-303.581 303.582c-3.14 3.141-2.871 8.294.543 11.098l3.472 2.853c39.615 32.552 89.774 50.479 141.238 50.479 120.7 0 217.129-95.186 222.522-212.462 2.54-55.197-15.303-109.013-50.242-151.536zm-161.598 224.177c11.701 12.201 28.181 15.735 48.987 10.502 2.215-.559 4.237 1.522 3.611 3.757-6.95 24.79-21.067 47.536-40.875 65.882-18.666 5.705-31.875 6.893-58.75-2.31-10.291-3.533-20.93-8.315-30.904-14.034-5.546-10.565-6.717-24.225-3.572-41.627l10.432-10.432c5.628 7.992 13.039 14.621 22.138 14.621 2.524 0 5.179-.51 7.96-1.643 12.392-5.045 5.7-25.222 5.545-48.621l16.07-16.07c4.171 12.287 8.343 28.49 19.358 39.975zm-48.555 11.208h-.022c-2.821 0-6.727-2.255-11.702-10.26l10.552-10.552c.553 6.983 1.551 16.536 1.172 20.812zm245.411-84.539c-5.032 109.397-94.99 198.152-207.538 198.152-46.733 0-92.309-15.846-128.773-44.696l41.24-41.24c-.122 13.202 2.6 24.448 8.198 34.04.696 1.239 1.708 2.209 2.849 2.852 20.826 12.249 50.498 23.833 74.654 23.833 25.644 0 60.857-16.45 81.906-31.109 24.604-17.134 54.654-47.289 58.093-93.648 3.625-48.874-7.329-85.83-19.793-100.773-3.514-4.214-8.069-6.024-12.504-4.971-4.338 1.032-7.505 4.551-8.688 9.653-9.816 42.319-32.582 75.413-41.496 76.438-.041-.049-.09-.111-.146-.19-6.566-9.255-3.724-21.704-.541-32.91 1.132-3.985-1.182-8.132-5.166-9.264-3.982-1.13-8.132 1.181-9.264 5.166-4.594 16.178-6.963 32.017 2.738 45.689 3.649 5.142 9.229 7.408 15.308 6.205 24.076-4.745 45.183-57.096 51.608-81.413 11.297 18.851 15.166 55.864 12.985 85.263-3.002 40.475-29.774 67.176-51.706 82.449-5.747 4.002-11.572 7.528-17.311 10.611 10.703-14.813 18.684-31.196 23.534-48.496 3.728-13.302-8.307-25.723-21.713-22.352-41.009 10.313-42.386-22.819-53.041-47.574l160.094-160.094c31.012 39.173 46.784 88.159 44.473 138.379z"/><path d="m437.02 74.981c-48.353-48.352-112.64-74.981-181.02-74.981-141.483 0-256 114.497-256 256 0 68.38 26.629 132.667 74.98 181.019 48.353 48.352 112.64 74.981 181.02 74.981 141.483 0 256-114.497 256-256 0-68.379-26.629-132.666-74.98-181.019zm-181.02 422.019c-64.373 0-124.894-25.068-170.412-70.587-45.52-45.519-70.588-106.04-70.588-170.413 0-133.193 107.789-241 241-241 64.373 0 124.894 25.068 170.412 70.587 45.52 45.52 70.588 106.041 70.588 170.413 0 133.192-107.789 241-241 241z"/><path d="m400.709 86.57-3.473-2.852c-39.614-32.551-89.773-50.478-141.237-50.478-120.729 0-217.13 95.21-222.522 212.462-2.539 55.199 15.304 109.016 50.241 151.534l2.853 3.473c2.816 3.427 7.969 3.672 11.1.542l303.581-303.582c3.134-3.135 2.877-8.288-.543-11.099zm-307.773 298.202c-31.011-39.172-46.786-88.161-44.475-138.38 5.032-109.4 94.99-198.152 207.538-198.152 46.733 0 92.309 15.846 128.772 44.696z"/></svg>