<svg id="Layer_1" enable-background="new 0 0 256 256" height="512" viewBox="0 0 256 256" width="512" xmlns="http://www.w3.org/2000/svg"><path d="m89.652 85.057-8.115-1.019c-.94-.118-1.794-.505-2.465-1.117l-22.24-20.297c.034-.061.079-.117.111-.179l.002.002.072-.147c.015-.03.03-.06.044-.091l.104-.212c.157-.32.291-.651.4-.99l2.087-6.464c.45-1.394.333-2.938-.326-4.288l-.435-.891-4.458-9.137c-.37-.759-1.256-1.093-1.977-.743-1.714.832-2.391 2.969-1.513 4.77l.337.69-18.571 9.06 3.654 7.49 1.914 3.923c1.179 2.416 3.589 3.823 6.106 3.849l19.616 26.606c.569.772 1.235 1.469 1.981 2.072.738.597 1.548 1.098 2.411 1.492l26.901 12.275v-9.63c0-7.725 6.262-13.987 13.987-13.987h4.575z" fill="#f9cfcf"/><path d="m95.292 113.712c-.282 0-.565-.06-.83-.181l-26.902-12.275c-1.017-.464-1.972-1.055-2.839-1.757-.878-.711-1.663-1.532-2.333-2.44l-19.068-25.864c-2.952-.372-5.516-2.184-6.841-4.901l-5.568-11.413c-.233-.477-.267-1.026-.094-1.528s.538-.914 1.014-1.146l16.891-8.241c-.261-1.056-.216-2.159.144-3.2.472-1.366 1.437-2.46 2.717-3.082 1.713-.829 3.796-.082 4.648 1.665l4.893 10.029c.891 1.827 1.044 3.879.432 5.779l-2.087 6.464c-.058.178-.12.354-.188.529l21.14 19.292c.365.333.837.544 1.367.611l32.315 4.058c1.048.131 1.813 1.055 1.747 2.109s-.94 1.875-1.996 1.875h-4.575c-6.609 0-11.987 5.377-11.987 11.987v9.629c0 .681-.346 1.314-.918 1.682-.328.212-.704.319-1.082.319zm-59.909-58.787 4.691 9.615c.812 1.663 2.47 2.707 4.329 2.726.628.006 1.217.308 1.59.813l19.616 26.606c.467.634 1.016 1.208 1.629 1.705.605.49 1.272.903 1.983 1.228l24.071 10.983v-6.519c0-5.738 3.038-10.779 7.59-13.6l-11.479-1.441-8.115-1.019c-1.354-.17-2.586-.732-3.564-1.625l-22.241-20.295c-.685-.625-.851-1.639-.4-2.449.022-.041.086-.143.121-.197l.167-.34c.114-.232.212-.477.292-.723l2.087-6.464c.29-.897.209-1.917-.22-2.797l-4.637-9.504c-.123.15-.199.311-.245.445-.145.42-.111.883.094 1.305l.337.689c.232.477.267 1.026.094 1.528-.172.502-.537.915-1.014 1.147z" fill="#3762cc"/><path d="m51.766 52.661-13.202 6.441c-1.503.733-3.315.109-4.049-1.394l-2.938-6.022c-.733-1.503-.109-3.315 1.394-4.049l13.202-6.441c1.503-.733 3.315-.109 4.049 1.394l2.938 6.022c.733 1.503.109 3.316-1.394 4.049z" fill="#f9cfcf"/><path d="m37.241 61.411c-.551 0-1.104-.091-1.641-.276-1.27-.437-2.293-1.342-2.882-2.55l-2.938-6.021c-1.215-2.492-.177-5.508 2.314-6.723l13.202-6.441c2.492-1.215 5.508-.178 6.723 2.314l2.938 6.021c.589 1.207.673 2.571.235 3.841-.437 1.27-1.342 2.293-2.549 2.882l-13.202 6.441c-.697.341-1.446.512-2.2.512zm10.259-18.52c-.151 0-.305.034-.449.104l-13.202 6.441c-.509.249-.721.865-.473 1.375l2.938 6.021c.121.247.33.432.589.521s.539.072.784-.048l13.203-6.441c.247-.12.432-.329.521-.589.089-.259.072-.538-.048-.784l-2.938-6.022c-.178-.365-.545-.578-.925-.578z" fill="#3762cc"/><path d="m147.3 49.303c-.053 0-.105.007-.157.008v-2.332c0-13.633-11.152-24.685-24.91-24.685-13.757 0-24.91 11.052-24.91 24.685v2.332c-.053-.001-.104-.008-.157-.008-4.197 0-7.6 3.372-7.6 7.531s3.402 7.531 7.6 7.531c.276 0 .547-.016.815-.045 2.57 10.921 12.449 19.058 24.252 19.058 11.803 0 21.681-8.138 24.252-19.058.268.028.54.045.815.045 4.197 0 7.6-3.372 7.6-7.531-.001-4.159-3.403-7.531-7.6-7.531z" fill="#f9cfcf"/><path d="m108.695 61.471c-1.658 0-3.007-1.349-3.007-3.007v-5.012c0-1.658 1.349-3.007 3.007-3.007s3.007 1.349 3.007 3.007v5.012c0 1.658-1.349 3.007-3.007 3.007z" fill="#3762cc"/><path d="m135.652 61.471c-1.658 0-3.007-1.349-3.007-3.007v-5.012c0-1.658 1.349-3.007 3.007-3.007s3.007 1.349 3.007 3.007v5.012c0 1.658-1.349 3.007-3.007 3.007z" fill="#3762cc"/><path d="m122.232 85.379c-12.024 0-22.404-7.75-25.782-19.04-4.96-.364-8.885-4.488-8.885-9.505 0-4.63 3.342-8.499 7.757-9.354v-.501c0-14.714 12.072-26.685 26.91-26.685s26.91 11.971 26.91 26.685v.501c4.415.855 7.757 4.725 7.757 9.354 0 5.017-3.924 9.141-8.884 9.505-3.379 11.289-13.759 19.04-25.783 19.04zm-24.25-23.059c.918 0 1.731.631 1.945 1.542 2.427 10.313 11.6 17.517 22.305 17.517s19.877-7.203 22.305-17.517c.231-.979 1.158-1.638 2.157-1.53.199.021.401.034.605.034 3.087 0 5.599-2.481 5.599-5.531 0-3.038-2.493-5.512-5.564-5.531-.076.005-.157.007-.192.008-.523 0-1.027-.206-1.401-.573-.383-.376-.599-.891-.599-1.427v-2.333c0-12.509-10.277-22.685-22.91-22.685s-22.91 10.176-22.91 22.685v2.333c0 .537-.216 1.051-.599 1.427s-.879.596-1.438.572c-.035 0-.142-.006-.176-.008-3.031.001-5.543 2.482-5.543 5.532s2.512 5.531 5.6 5.531c.205 0 .406-.013.605-.034.071-.008.142-.012.211-.012z" fill="#3762cc"/><path d="m122.892 73.397c1.081 0 2.165-.227 3.102-.766.677-.39 1.281-.908 1.769-1.537.659-.849 1.074-1.85 1.209-2.899.052-.402-.268-.758-.673-.758h-12.134c-.405 0-.725.356-.673.758.135 1.05.55 2.05 1.209 2.899.489.629 1.092 1.148 1.769 1.537.937.539 2.021.766 3.102.766z" fill="#f9a7a7"/><path d="m122.892 74.897h-1.318c-1.42 0-2.751-.334-3.85-.966-.86-.495-1.602-1.14-2.206-1.917-.82-1.056-1.342-2.31-1.512-3.627-.08-.616.11-1.238.522-1.708.415-.472 1.012-.742 1.639-.742h12.133c.626 0 1.223.27 1.638.741.412.469.603 1.091.523 1.708-.17 1.318-.692 2.572-1.512 3.628-.604.777-1.346 1.422-2.207 1.917-1.098.632-2.43.966-3.85.966zm-5.686-5.96c.159.443.388.861.681 1.237.363.468.812.857 1.332 1.157.645.371 1.458.566 2.354.566h1.318c.896 0 1.71-.196 2.354-.566.521-.3.969-.689 1.333-1.157.292-.376.521-.794.68-1.237z" fill="#3762cc"/><path d="m135.186 88.096h-25.908c-7.725 0-13.987 6.262-13.987 13.987v42.14 7.633h53.881v-7.633-42.14c.001-7.725-6.261-13.987-13.986-13.987z" fill="#f9a7a7"/><path d="m122.233 151.855h-39.961c-4.184 0-8.196 1.662-11.155 4.62l-26.844 26.844c-.781.781-.781 2.047 0 2.828l14.952 14.952c.781.781 2.047.781 2.828 0l23.514-23.514c.374-.374.883-.585 1.413-.585h35.252v54.351c0 1.105.895 2 2 2h22.941c1.105 0 2-.895 2-2v-79.496z" fill="#a4c9ff"/><path d="m45.013 186.889-12.52-3.794c-2.024-.613-4.221-.063-5.717 1.433l-1.083 1.083c-.888.888-.888 2.327 0 3.215l20.598 20.598c1.447 1.447 3.792 1.447 5.239 0l8.009-8.009z" fill="#e0ebfc"/><path d="m147.175 233.351h-11.472-11.472l-3.389 5.271c-.756 1.176-1.158 2.544-1.158 3.942v1.204c0 2.337 1.895 4.232 4.232 4.232h11.787 11.787c2.337 0 4.232-1.895 4.232-4.232v-1.204c0-1.398-.402-2.766-1.158-3.942z" fill="#e0ebfc"/><path d="m122.232 85.379c-12.024 0-22.404-7.75-25.782-19.04-4.96-.364-8.885-4.488-8.885-9.505 0-4.63 3.342-8.499 7.757-9.354v-.501c0-14.714 12.072-26.685 26.91-26.685s26.91 11.971 26.91 26.685v.501c4.415.855 7.757 4.725 7.757 9.354 0 5.017-3.924 9.141-8.884 9.505-3.379 11.289-13.759 19.04-25.783 19.04zm-24.25-23.059c.918 0 1.731.631 1.945 1.542 2.427 10.313 11.6 17.517 22.305 17.517s19.877-7.203 22.305-17.517c.231-.979 1.158-1.638 2.157-1.53.199.021.401.034.605.034 3.087 0 5.599-2.481 5.599-5.531 0-3.038-2.493-5.512-5.564-5.531-.076.005-.157.007-.192.008-.523 0-1.027-.206-1.401-.573-.383-.376-.599-.891-.599-1.427v-2.333c0-12.509-10.277-22.685-22.91-22.685s-22.91 10.176-22.91 22.685v2.333c0 .537-.216 1.051-.599 1.427s-.879.596-1.438.572c-.035 0-.142-.006-.176-.008-3.031.001-5.543 2.482-5.543 5.532s2.512 5.531 5.6 5.531c.205 0 .406-.013.605-.034.071-.008.142-.012.211-.012z" fill="#3762cc"/><path d="m151.944 46.748h-5.486c-1.894 0-3.429-1.535-3.429-3.429v-24.457c0-1.894 1.535-3.429 3.429-3.429 4.923 0 8.915 3.991 8.915 8.915v18.972c0 1.893-1.535 3.428-3.429 3.428z" fill="#4671c6"/><path d="m151.944 48.749h-5.486c-2.993 0-5.429-2.436-5.429-5.429v-24.458c0-2.993 2.436-5.429 5.429-5.429 6.018 0 10.915 4.896 10.915 10.915v18.972c0 2.993-2.436 5.429-5.429 5.429zm-5.486-31.316c-.788 0-1.429.641-1.429 1.429v24.458c0 .788.641 1.429 1.429 1.429h5.486c.788 0 1.429-.641 1.429-1.429v-18.972c0-3.813-3.102-6.915-6.915-6.915z" fill="#3762cc"/><path d="m136.725 14.69h-27.955c-3.402 0-6.795-.514-10.002-1.646-2.916-1.029-5.964-2.632-7.702-5.092-.465-.658-1.634-.477-1.837.272-1.815 6.674-5.626 25.038 4.766 32.823l.109-.233c2.365 2.122 5.553 3.425 9.065 3.425h26.2c7.544 0 13.66-5.804 13.66-12.965v-10.6c0-3.305-2.822-5.984-6.304-5.984z" fill="#4671c6"/><path d="m129.369 46.24h-26.2c-3.5 0-6.851-1.139-9.551-3.228-.294-.057-.576-.179-.822-.364-11.249-8.426-7.592-27.248-5.497-34.949.297-1.092 1.207-1.898 2.374-2.104 1.176-.207 2.365.265 3.027 1.203 1.22 1.728 3.549 3.235 6.733 4.359 2.881 1.017 6.022 1.532 9.337 1.532h27.955c4.579 0 8.305 3.582 8.305 7.984v10.601c-.001 8.252-7.026 14.966-15.661 14.966zm-34.917-7.395c.363.064.706.229.988.481 2.095 1.879 4.839 2.914 7.729 2.914h26.2c6.429 0 11.66-4.919 11.66-10.965v-10.601c0-2.197-1.931-3.984-4.305-3.984h-27.954c-3.769 0-7.358-.592-10.668-1.76-3.174-1.12-5.658-2.575-7.413-4.337-1.59 6.667-3.993 21.461 3.763 28.252z" fill="#3762cc"/><path d="m219.765 106.821.726-.25c1.895-.652 2.927-2.642 2.303-4.443-.263-.758-1.125-1.148-1.923-.873l-9.613 3.309-.938.323c-1.421.489-2.595 1.498-3.263 2.802l-3.095 6.046c-.162.317-.302.646-.417.983l-.076.224c-.011.032-.022.064-.033.096l-.053.155h.003c-.021.067-.029.138-.048.205l-30.078-1.375c-.907-.042-1.785-.372-2.533-.953l-6.458-5.018-17.246-13.398c1.355 2.154 2.151 4.696 2.151 7.429v23.719l19.961 7.452c.889.332 1.816.55 2.76.65.954.101 1.917.079 2.866-.065l32.684-4.943c1.798 1.762 4.497 2.471 7.039 1.596l4.127-1.421 7.88-2.712z" fill="#f9cfcf"/><path d="m173.076 135.966c-.464 0-.929-.024-1.392-.073-1.11-.116-2.203-.374-3.25-.765l-19.961-7.453c-.782-.292-1.3-1.039-1.3-1.874v-23.719c0-2.246-.638-4.447-1.844-6.364-.517-.821-.369-1.896.35-2.547s1.802-.693 2.57-.097l23.705 18.416c.421.327.904.512 1.397.534l28.59 1.308c.076-.173.156-.342.242-.509l3.095-6.045c.909-1.776 2.469-3.12 4.392-3.781l10.551-3.632c1.84-.633 3.842.314 4.464 2.11.466 1.344.375 2.8-.257 4.1-.481.99-1.229 1.803-2.162 2.365l6.116 17.77c.359 1.044-.196 2.183-1.24 2.542l-12.007 4.133c-2.858.984-5.952.453-8.303-1.372l-31.772 4.805c-.657.098-1.32.148-1.984.148zm-21.903-11.552 18.661 6.967c.731.273 1.494.453 2.269.534.787.083 1.58.065 2.358-.053l32.685-4.943c.621-.094 1.25.11 1.699.549 1.328 1.301 3.239 1.736 4.988 1.134l10.116-3.482-6.074-17.647c-.359-1.044.196-2.182 1.24-2.542l.727-.25c.444-.153.795-.457.989-.856.063-.128.122-.295.141-.488l-10 3.442c-.926.319-1.704.983-2.133 1.822l-3.095 6.046c-.118.23-.221.472-.306.721l-.075.22c0 .001-.034.099-.035.101l-.014.04c-.015.069-.041.178-.05.213-.253.895-1.1 1.5-2.016 1.454l-30.079-1.375c-1.323-.061-2.592-.535-3.669-1.371l-18.422-14.313c.064.578.096 1.161.096 1.746v22.331z" fill="#3762cc"/><path d="m213.965 111.934 4.781 13.89c.544 1.581 2.267 2.422 3.848 1.877l6.335-2.181c1.581-.544 2.422-2.267 1.877-3.848l-4.781-13.89c-.544-1.581-2.267-2.422-3.848-1.877l-6.335 2.181c-1.581.544-2.421 2.267-1.877 3.848z" fill="#f9cfcf"/><path d="m221.613 129.866c-2.087 0-4.042-1.311-4.759-3.391l-4.781-13.89c-.437-1.27-.354-2.634.235-3.841s1.613-2.112 2.882-2.549l6.335-2.181c1.271-.437 2.634-.354 3.841.235s2.112 1.613 2.549 2.882l4.781 13.89c.902 2.621-.497 5.488-3.117 6.39l-6.336 2.181c-.538.186-1.089.274-1.63.274zm-5.757-18.583 4.781 13.89c.184.536.772.821 1.306.637l6.335-2.181c.536-.185.821-.771.637-1.306l-4.781-13.89c-.089-.26-.274-.469-.521-.589-.246-.119-.524-.136-.785-.048l-6.335 2.181c-.535.184-.821.77-.637 1.306z" fill="#3762cc"/><path d="m122.233 83.379c-3.999 0-7.766-.952-11.113-2.612v7.318c0 3.85 3.121 6.971 6.971 6.971h8.284c3.85 0 6.971-3.121 6.971-6.971v-7.318c-3.348 1.66-7.115 2.612-11.113 2.612z" fill="#f9cfcf"/><path d="m149.173 153.855h-53.881c-1.104 0-2-.896-2-2v-49.773c0-8.762 7.085-15.9 15.828-15.986v-5.33c0-.692.358-1.335.946-1.7.589-.365 1.323-.399 1.943-.092 3.216 1.595 6.656 2.404 10.224 2.404 3.567 0 7.008-.809 10.225-2.404.62-.307 1.355-.272 1.942.092.588.365.946 1.008.946 1.7v5.33c8.742.086 15.828 7.224 15.828 15.986v49.773c-.001 1.105-.896 2-2.001 2zm-51.881-4h49.881v-47.773c0-6.609-5.377-11.987-11.987-11.987h-1.841c-1.104 0-2-.896-2-2 0-.014 0-.028 0-.043v-4.26c-5.842 2.108-12.384 2.108-18.226 0v4.26.043c0 1.104-.896 2-2 2h-1.841c-6.609 0-11.987 5.377-11.987 11.987v47.773z" fill="#3762cc"/><path d="m122.203 145.333c-26.185 0-70.5-3.493-70.5-16.585 0-6.803 11.725-11.702 34.85-14.561 1.641-.201 3.143.965 3.346 2.609s-.965 3.142-2.609 3.345c-23.541 2.911-29.328 7.556-29.589 8.64.22.848 4.082 4.082 18.447 6.844 12.433 2.39 28.789 3.707 46.056 3.707 1.657 0 3 1.343 3 3-.001 1.658-1.344 3.001-3.001 3.001z" fill="#e0ebfc"/><g fill="#3762cc"><path d="m147.173 235.351h-22.941c-2.206 0-4-1.794-4-4v-52.351h-33.252l-23.514 23.514c-1.559 1.559-4.097 1.56-5.656 0l-14.952-14.952c-1.559-1.56-1.559-4.097 0-5.656l26.845-26.844c3.357-3.357 7.821-5.206 12.569-5.206h66.902c1.104 0 2 .896 2 2v79.496c-.001 2.205-1.795 3.999-4.001 3.999zm-60.193-60.351h35.252c1.104 0 2 .896 2 2v54.351h22.941v-77.496h-64.902c-3.679 0-7.139 1.433-9.741 4.035l-26.844 26.843 14.952 14.952 23.514-23.514c.756-.755 1.76-1.171 2.828-1.171z"/><path d="m122.232 179c-1.104 0-2-.896-2-2v-14c0-1.104.896-2 2-2s2 .896 2 2v14c0 1.104-.895 2-2 2z"/><path d="m48.911 212.505c-1.461 0-2.921-.556-4.033-1.668l-20.598-20.598c-1.666-1.666-1.666-4.376 0-6.042l1.083-1.083c2.021-2.021 4.977-2.761 7.711-1.933l12.52 3.794c.315.096.602.267.834.5l14.525 14.525c.781.781.781 2.047 0 2.828l-8.009 8.009c-1.111 1.112-2.573 1.668-4.033 1.668zm-18.082-27.657c-.975 0-1.926.383-2.638 1.094l-1.083 1.083c-.107.106-.107.28 0 .386l20.598 20.598c.665.664 1.746.665 2.411 0l6.594-6.595-12.757-12.757-12.04-3.648c-.358-.109-.724-.161-1.085-.161z"/><path d="m147.489 250h-23.573c-3.437 0-6.232-2.795-6.232-6.232v-1.204c0-1.785.51-3.522 1.476-5.023l3.389-5.271c.368-.572 1.001-.918 1.682-.918h22.945c.681 0 1.314.346 1.682.918l3.389 5.271c.965 1.501 1.476 3.238 1.476 5.023v1.204c-.001 3.437-2.797 6.232-6.234 6.232zm-22.167-14.649-2.798 4.353c-.549.855-.84 1.844-.84 2.86v1.204c0 1.23 1.001 2.232 2.232 2.232h23.573c1.231 0 2.232-1.001 2.232-2.232v-1.204c0-1.017-.291-2.005-.84-2.86l-2.798-4.353z"/></g><path d="m129.703 216c-8.518 0-16.933-.44-24.336-1.272-1.646-.185-2.831-1.67-2.646-3.316.185-1.647 1.666-2.834 3.317-2.646 7.184.808 15.368 1.235 23.666 1.235 26.858 0 43.362-4.255 46.066-6.906-1.277-1.166-6.434-3.669-20.022-5.41-1.643-.21-2.805-1.713-2.594-3.357.21-1.644 1.714-2.806 3.357-2.594 25.474 3.263 25.474 9.349 25.474 11.349-.001 12.554-46.931 12.917-52.282 12.917zm46.351-12.575h.01z" fill="#e0ebfc"/><path d="m94.104 40.815-.109.232c-.736-.551-1.393-1.16-1.992-1.809v12.081c1.356-1.247 3.167-2.016 5.162-2.016.053 0 .105.007.157.008v-2.332c0-1.329.116-2.631.321-3.903-1.306-.574-2.505-1.334-3.539-2.261z" fill="#3762cc"/><path d="m151.944 46.748h-4.81c.001.077.008.153.008.23v2.332c.053-.001.104-.008.157-.008 2.903 0 5.424 1.614 6.704 3.985v-7.243c-.575.436-1.283.704-2.059.704z" fill="#3762cc"/><path d="m40.779 114.055c0-1.721-1.4-3.121-3.121-3.121s-3.121 1.4-3.121 3.121v26.592c-1.001-.282-2.081-.439-3.219-.439-.731 0-1.472.065-2.203.194-2.649.467-5.007 1.728-6.639 3.551-1.704 1.903-2.425 4.188-2.029 6.433.686 3.893 4.534 6.611 9.357 6.611.73 0 1.471-.065 2.203-.194 2.65-.467 5.007-1.728 6.639-3.551 1.54-1.72 2.268-3.752 2.103-5.785.01-.102.031-.2.031-.304v-33.108z" fill="#6bdddd"/><path d="m232.956 25.959c-.192 0-.386.021-.575.062l-31.808 6.876c-1.237.267-2.135 1.38-2.135 2.646v.739 6.719 19.713c-1.001-.282-2.082-.439-3.22-.439-.73 0-1.471.065-2.203.194-2.649.467-5.007 1.728-6.639 3.551-1.704 1.903-2.425 4.188-2.029 6.433.686 3.893 4.534 6.611 9.357 6.611.73 0 1.471-.065 2.203-.194 2.649-.467 5.007-1.728 6.639-3.551 1.521-1.699 2.253-3.702 2.112-5.71.005-.074.022-.144.022-.219v-24.385l24.737-5.348v17.566c-1.001-.282-2.081-.439-3.219-.439-.731 0-1.472.065-2.203.194-2.649.467-5.007 1.728-6.639 3.55-1.704 1.903-2.425 4.188-2.029 6.433.686 3.893 4.534 6.611 9.357 6.611.73 0 1.471-.065 2.203-.194 2.65-.467 5.007-1.728 6.639-3.55 1.54-1.72 2.268-3.752 2.103-5.785.01-.102.031-.2.031-.304v-27.615-5.492-1.965c0-1.494-1.213-2.708-2.704-2.708z" fill="#6bdddd"/><path d="m213.283 187.098c0-1.721-1.4-3.121-3.121-3.121s-3.121 1.4-3.121 3.121v26.592c-1.001-.282-2.081-.439-3.219-.439-.731 0-1.472.065-2.203.194-2.649.467-5.007 1.728-6.639 3.551-1.704 1.903-2.425 4.188-2.029 6.433.686 3.893 4.534 6.611 9.357 6.611.73 0 1.471-.065 2.203-.194 2.65-.467 5.007-1.728 6.639-3.551 1.54-1.72 2.268-3.752 2.103-5.785.01-.102.031-.2.031-.304v-33.108z" fill="#6bdddd"/></svg>