<svg height="512" viewBox="0 0 256 256" width="512" xmlns="http://www.w3.org/2000/svg"><path d="m170.629 205.774c-.048 0-.1 0-.146 0a2.5 2.5 0 0 1 -2.352-2.64l2.419-41.93a2.5 2.5 0 0 1 4.992.288l-2.419 41.93a2.5 2.5 0 0 1 -2.494 2.352z" fill="#ebe7f2"/><path d="m192.667 87.867a2.5 2.5 0 0 1 -2.374-3.284l3.43-10.392a2.5 2.5 0 0 1 4.748 1.567l-2.144 6.5 16.032-2.546a2.5 2.5 0 0 1 .786 4.938l-20.085 3.19a2.5 2.5 0 0 1 -.393.027z" fill="#a58bc9"/><path d="m194.968 154.736-10.257-24.159c.81.438 1.316.687 1.409.732a2.5 2.5 0 0 0 2.184-4.5c-.109-.053-10.856-5.342-18.466-14.221-7.317-8.535-7.091-21.3-7.088-21.423a2.5 2.5 0 0 0 -5-.134c-.016.584-.286 14.088 7.669 24.054l-6.119 33.186a2.5 2.5 0 0 0 2.459 2.954h8.87a2.5 2.5 0 0 0 2.491-2.287l1.569-18.384 5.867 27.825a2.5 2.5 0 0 0 2.989 1.925l9.667-2.15a2.5 2.5 0 0 0 1.758-3.418zm-30.207-8.511 4.9-26.567q.43.414.865.814l-2.2 25.753zm20.164 8.65-4.609-21.854 8.875 20.9z" fill="#a58bc9"/><path d="m144.553 96.11a2.494 2.494 0 0 1 -1.566-.552l-44.528-35.838a2.5 2.5 0 0 1 3.135-3.9l44.528 35.838a2.5 2.5 0 0 1 -1.569 4.448z" fill="#ebe7f2"/><g fill="#846f75"><path d="m86.92 147.144-13.442-5.218a2.5 2.5 0 0 0 -3.236 1.426l-5.219 13.441a2.5 2.5 0 1 0 4.662 1.81l3.219-8.292a80.774 80.774 0 0 0 10.296 16.544 2.5 2.5 0 1 0 3.9-3.134 75.787 75.787 0 0 1 -9.29-14.753l7.308 2.837a2.5 2.5 0 1 0 1.81-4.661z"/><path d="m67.5 78.872 8.062-1.921a79.707 79.707 0 0 0 -9.574 29.34 2.5 2.5 0 0 0 2.177 2.786 2.472 2.472 0 0 0 .308.019 2.5 2.5 0 0 0 2.478-2.2 74.753 74.753 0 0 1 8.941-27.447l1.961 8.251a2.5 2.5 0 0 0 2.43 1.921 2.532 2.532 0 0 0 .582-.068 2.5 2.5 0 0 0 1.852-3.012l-3.342-14.023a2.5 2.5 0 0 0 -3.012-1.852l-14.027 3.342a2.5 2.5 0 1 0 1.164 4.864z"/><path d="m227.107 81.446-5.75-6.045a2.5 2.5 0 0 0 -3.623 3.447l5.75 6.044a8.283 8.283 0 0 1 1.7 8.72l-9.3 23.543a2.86 2.86 0 0 1 -2.674 1.819h-21.05a2.887 2.887 0 0 1 -2.312-1.166l-13.363-18.062 9.162-7.35 11.89 13.53a4.5 4.5 0 0 0 7.539-1.25l3.825-9.247a2.5 2.5 0 0 0 -4.621-1.911l-3.517 8.5-11.675-13.281a4.477 4.477 0 0 0 -5.71-.858l-6.032-12.342a4.259 4.259 0 0 0 -6.39-1.53l-6.513 4.908a2.488 2.488 0 0 0 -.745-1.23l-6.385-5.746 5.458-7.457 17.511 9.2a4.669 4.669 0 0 0 5.766-1.176l2.838-3.476a19.915 19.915 0 1 0 -2.424-4.737 2.458 2.458 0 0 0 -.569.5l-3.538 4.332-17.64-9.269a4.493 4.493 0 0 0 -3.54-.251l-9.4-10.847a4.347 4.347 0 0 0 -3.321-1.469 4.246 4.246 0 0 0 -3.248 1.628l-6.6 8.413a4.26 4.26 0 0 0 1.405 6.419l12.532 6.434a4.484 4.484 0 0 0 1.095 5.172l6.72 6.048a2.472 2.472 0 0 0 .841.5 4.173 4.173 0 0 0 .134 4.097l-2.21.914-62.96-44.784a4.637 4.637 0 0 0 -6.789 1.6l-4.785-4.287a2.488 2.488 0 0 1 -.827-2l.712-12.778a2.523 2.523 0 0 0 0-.275 11.4 11.4 0 0 0 -5.474-9.132l-1.6-.972a4.5 4.5 0 0 0 -6.647 2.562l-7.776 26.1a4.505 4.505 0 0 0 1.671 4.929l16.719 12.123a4.633 4.633 0 0 0 1.544 4.258l63.021 54.442a12.567 12.567 0 0 1 4.311 8.8l4.61 87.486a4.638 4.638 0 0 0 4.4 4.382v18.5a4.5 4.5 0 0 0 4.5 4.5h27.386a4.5 4.5 0 0 0 4.353-5.641l-.207-.791a13.4 13.4 0 0 0 -8.449-9.232l-9.034-3.24a2.507 2.507 0 0 1 -1.657-2.354v-1.719h.5a4.649 4.649 0 0 0 4.644-4.406l2.557-48.646a2.5 2.5 0 0 0 -4.993-.263l-2.54 48.315h-16.49l-4.593-87.153a17.582 17.582 0 0 0 -6.034-12.322l-62.81-54.263 7.214-14.213 63.756 45.354a2.5 2.5 0 0 0 2.405.273l5.419-2.242c.017-.007.03-.018.047-.025l7.413 6.684a4.469 4.469 0 0 0 -.456 5.848l13.64 18.449a7.909 7.909 0 0 0 6.332 3.193h21.044a7.831 7.831 0 0 0 7.324-4.981l9.3-23.544a13.3 13.3 0 0 0 -2.717-14.003zm-22.076-38.376a14.7 14.7 0 1 1 -14.7 14.7 14.718 14.718 0 0 1 14.7-14.7zm-56.448 9.639 9 10.39-2.157 2.947-12.342-6.337zm27.535 175.462 9.034 3.24a8.408 8.408 0 0 1 5.3 5.793l.043.165h-26.238v-17.977h6.892v1.719a7.518 7.518 0 0 0 4.969 7.06zm-92.648-172.821-15.6-11.314 7.49-25.14 1.049.636a6.412 6.412 0 0 1 3.069 5.006l-.7 12.629a7.462 7.462 0 0 0 2.482 6l5.773 5.172zm89.779 23.19 6.106 12.494-2.8 2.249-10.413-9.383z"/></g><path d="m76.338 123.328a2.5 2.5 0 0 1 -.562-4.936l41.609-9.657a2.5 2.5 0 0 1 1.13 4.87l-41.609 9.657a2.459 2.459 0 0 1 -.568.066z" fill="#ebe7f2"/><path d="m139.41 120.885a2.5 2.5 0 0 0 -2.973-1.914l-66.249 14.362-6.73-14.433 53.1-15.055a2.5 2.5 0 1 0 -1.363-4.81l-53.55 15.181a4.636 4.636 0 0 0 -2.928 6.331l-6.326 1.12a2.494 2.494 0 0 1 -2.086-.583l-9.615-8.447a2.4 2.4 0 0 0 -.217-.171 11.4 11.4 0 0 0 -10.566-1.327l-1.754.661a4.5 4.5 0 0 0 -2.086 6.811l15.743 22.224a4.507 4.507 0 0 0 4.909 1.727l19.858-5.676a4.651 4.651 0 0 0 3.423 1.492 4.893 4.893 0 0 0 .934-.091l66.566-14.429a2.5 2.5 0 0 0 1.91-2.973zm-93.724 16.771-15.16-21.407 1.148-.434a6.414 6.414 0 0 1 5.833.675l9.5 8.348a7.462 7.462 0 0 0 6.256 1.75l7.631-1.35 3.32 7.122z" fill="#a58bc9"/><path d="m97.584 176.958a2.5 2.5 0 0 1 -1.918-4.1l30.265-36.324a2.5 2.5 0 1 1 3.841 3.2l-30.265 36.325a2.5 2.5 0 0 1 -1.923.899z" fill="#ebe7f2"/><path d="m147.851 139.351a2.5 2.5 0 0 0 -3.532.173l-44.082 48.622-14.08-7.446 36.356-46.582a2.5 2.5 0 0 0 -3.942-3.077l-36.691 47.015a4.636 4.636 0 0 0 1.489 6.815l-4.369 4.711a2.5 2.5 0 0 1 -2.015.794l-12.764-.93c-.092-.006-.183-.008-.276 0a11.405 11.405 0 0 0 -9.225 5.32l-1 1.586a4.5 4.5 0 0 0 2.449 6.689l25.964 8.219a4.5 4.5 0 0 0 4.956-1.588l12.411-16.518a4.558 4.558 0 0 0 4.272-1.459l44.255-48.813a2.5 2.5 0 0 0 -.176-3.531zm-64.546 67.03-25.005-7.916.654-1.038a6.411 6.411 0 0 1 5.057-2.983l12.617.919a7.488 7.488 0 0 0 6.043-2.382l5.27-5.683 6.946 3.673z" fill="#a58bc9"/></svg>