<?xml version="1.0" encoding="iso-8859-1"?>
<!-- Generator: Adobe Illustrator 19.0.0, SVG Export Plug-In . SVG Version: 6.00 Build 0)  -->
<svg version="1.1" id="Layer_1" xmlns="http://www.w3.org/2000/svg" xmlns:xlink="http://www.w3.org/1999/xlink" x="0px" y="0px"
	 viewBox="0 0 512 512" style="enable-background:new 0 0 512 512;" xml:space="preserve">
<polygon style="fill:#8BAF73;" points="379.958,388.582 256,434.311 132.042,388.582 8.084,434.311 8.084,70.439 132.042,24.711 
	256,70.439 379.958,24.711 503.916,70.439 503.916,434.311 "/>
<g>
	<polygon style="fill:#68844E;" points="256,70.439 256,434.311 379.958,388.582 379.958,24.711 	"/>
	<polygon style="fill:#68844E;" points="8.084,70.439 8.084,434.311 132.042,388.582 132.042,24.711 	"/>
</g>
<g>
	<path style="fill:#78B9EB;" d="M132.042,327.403c-14.582-7.449-31.054-11.661-48.505-11.661c-29.38,0-56.01,0-75.453,0v118.568
		l123.958-45.729l58.307,21.509C185.521,373.844,163.083,343.261,132.042,327.403z"/>
	<path style="fill:#78B9EB;" d="M132.042,327.403v61.178l58.307,21.509C185.521,373.844,163.083,343.261,132.042,327.403z"/>
</g>
<path style="fill:#5991AD;" d="M83.537,315.742c-29.38,0-56.01,0-75.453,0v118.568l123.958-45.729v-61.178
	C117.46,319.955,100.988,315.742,83.537,315.742z"/>
<path style="fill:#68844E;" d="M503.916,430.636c-1.12-1.402-2.321-2.762-3.618-4.06L377.551,303.83l-7.622,7.622l-7.699-7.699
	c21.946-44.338,14.484-99.654-22.389-136.525c-6.465-6.464-13.547-12.085-21.109-16.818c-1.827-7.599-5.33-16.894-12.016-25.793
	c-10.639-14.158-26.253-22.582-44.425-24.16h-12.577c-18.172,1.578-33.787,10.002-44.425,24.16
	c-6.686,8.9-10.189,18.194-12.016,25.793c-7.563,4.733-14.646,10.354-21.111,16.818c-46.23,46.23-46.23,121.451,0.001,167.681
	c22.394,22.394,52.169,34.728,83.84,34.728c18.696,0,36.73-4.301,52.977-12.43l7.598,7.598l-7.622,7.622l30.936,30.936
	l40.069-14.781l123.958,45.729v-3.672H503.916z M225.49,281.577c-12.207-12.207-15.548-29.967-10.038-45.221
	c9.593,17.813,19.18,32.372,22.686,37.561l13.574,20.089C241.807,293.034,232.62,288.708,225.49,281.577z M286.509,281.577
	c-7.129,7.13-16.316,11.458-26.221,12.428l13.574-20.089c3.506-5.189,13.093-19.749,22.686-37.562
	C302.057,251.611,298.716,269.37,286.509,281.577z"/>
<path style="fill:#ACABB1;" d="M335.141,307.153c-3.115,4.385-6.614,8.581-10.545,12.512c-3.864,3.864-7.983,7.312-12.287,10.388
	l34.752,34.752l22.865-22.865L335.141,307.153z"/>
<path style="fill:#D8D7DA;" d="M324.597,182.471c-37.885-37.885-99.309-37.885-137.193,0s-37.885,99.309,0,137.193
	s99.309,37.885,137.193,0S362.482,220.356,324.597,182.471z M301.752,296.821c-12.22,12.221-28.469,18.952-45.752,18.952
	s-33.532-6.73-45.753-18.952c-25.227-25.228-25.227-66.278,0.001-91.506c12.22-12.221,28.469-18.952,45.752-18.952
	s33.532,6.73,45.753,18.952C326.98,230.543,326.98,271.593,301.752,296.821z"/>
<path style="fill:#ACABB1;" d="M192.458,177.798c1.948,10.989,6.203,23.097,11.401,34.95c1.911-2.598,4.04-5.084,6.389-7.432
	c12.22-12.221,28.469-18.952,45.752-18.952s33.532,6.73,45.753,18.952c2.349,2.349,4.476,4.834,6.388,7.432
	c5.198-11.853,9.453-23.961,11.401-34.95C283.153,146.18,228.847,146.18,192.458,177.798z"/>
<path style="fill:#ED7263;" d="M299.116,164.837c-0.55-15.234-10.779-43.116-43.116-43.116s-42.566,27.882-43.116,43.116
	C211.746,196.358,256,261.848,256,261.848S300.254,196.357,299.116,164.837z M254.922,178.85c-8.929,0-16.168-7.239-16.168-16.168
	s7.239-16.168,16.168-16.168c8.929,0,16.168,7.239,16.168,16.168S263.851,178.85,254.922,178.85z"/>
<path style="fill:#A36D41;" d="M485.053,479.929L485.053,479.929c-10.523,10.523-27.586,10.523-38.109,0L339.441,372.427
	l38.109-38.109L485.053,441.82C495.576,452.344,495.576,469.406,485.053,479.929z"/>
<polygon points="379.958,16.094 256,61.823 132.042,16.094 0,64.805 0,445.91 132.042,397.199 256,442.927 342.688,410.947 
	337.091,395.778 256,425.694 132.042,379.964 16.168,422.711 16.168,76.073 123.958,36.31 123.958,121.721 140.126,121.721 
	140.126,36.31 256,79.056 371.874,36.31 371.874,121.721 388.042,121.721 388.042,36.31 495.832,76.073 495.832,423.532 
	512,423.532 512,64.805 "/>
<path d="M377.551,322.885l-7.622,7.622l-24.412-24.412c24.885-40.485,19.835-94.301-15.203-129.339
	c-1.594-1.596-3.333-3.205-5.468-5.06L314.24,183.9c1.844,1.603,3.319,2.965,4.641,4.289c31.116,31.116,34.287,79.731,9.557,114.439
	c-0.608,0.85-1.231,1.687-1.865,2.513c-0.191,0.249-0.382,0.497-0.576,0.744c-0.583,0.746-1.177,1.481-1.781,2.204
	c-0.359,0.429-0.728,0.853-1.096,1.276c-0.478,0.552-0.954,1.105-1.442,1.642c-0.91,0.995-1.836,1.981-2.798,2.944
	c-0.959,0.959-1.942,1.882-2.934,2.789c-0.501,0.456-1.016,0.901-1.53,1.348c-0.459,0.401-0.921,0.8-1.386,1.189
	c-0.674,0.563-1.356,1.117-2.049,1.662c-0.292,0.23-0.585,0.455-0.88,0.68c-0.783,0.6-1.57,1.194-2.375,1.771
	c-15.406,11.032-33.56,16.566-51.727,16.564c-22.769-0.002-45.546-8.669-62.88-26.004c-34.673-34.673-34.673-91.089,0-125.762
	c1.323-1.323,2.797-2.685,4.641-4.288l-10.606-12.203c-2.135,1.856-3.874,3.463-5.468,5.059c-40.976,40.976-40.976,107.65,0,148.627
	c20.489,20.488,47.402,30.732,74.313,30.732c19.203,0,38.394-5.245,55.263-15.676l24.368,24.368l-7.622,7.622l113.219,113.219
	c6.617,6.617,15.414,10.26,24.77,10.26c9.358,0,18.155-3.643,24.771-10.26c13.658-13.659,13.658-35.883,0-49.542L377.551,322.885z
	 M324.474,330.784c0.318-0.273,0.622-0.558,0.937-0.834c0.509-0.447,1.018-0.894,1.519-1.353c1.138-1.039,2.256-2.092,3.336-3.171
	c0.015-0.015,0.031-0.029,0.046-0.044c0.017-0.017,0.032-0.035,0.049-0.051c1.083-1.085,2.144-2.209,3.187-3.353
	c0.5-0.546,0.983-1.103,1.469-1.657c0.289-0.331,0.587-0.649,0.872-0.984l22.605,22.605l-11.432,11.432L324.474,330.784z
	 M479.335,474.213c-3.562,3.562-8.299,5.524-13.338,5.524c-5.038,0-9.775-1.962-13.338-5.524L350.873,372.428l26.677-26.677
	l101.786,101.786C486.691,454.891,486.691,466.859,479.335,474.213z"/>
<polygon points="48.643,243.399 53.757,258.738 123.047,235.641 133.5,172.921 169.768,172.921 169.768,156.753 86.232,156.753 
	45.272,126.033 35.571,138.968 80.842,172.921 117.11,172.921 108.7,223.381 "/>
<polygon points="458.105,326.521 458.105,277.932 404.211,256.374 404.211,221.427 374.568,221.427 374.568,237.595 
	388.042,237.595 388.042,267.32 441.937,288.878 441.937,326.521 "/>
<polygon points="476.429,128.189 466.728,115.254 425.768,145.974 324.222,145.974 324.222,162.142 390.653,162.142 
	411.465,214.172 468.577,237.016 474.581,222.004 423.904,201.733 408.067,162.142 431.158,162.142 "/>
<path d="M256,113.637c-36.211,0-50.455,30.445-51.195,50.908c-1.198,33.196,39.815,94.901,44.497,101.829l6.698,9.912l6.698-9.912
	c4.681-6.927,45.695-68.632,44.497-101.829l0,0C306.455,144.081,292.211,113.637,256,113.637z M255.999,246.96
	c-13.956-22.368-35.759-61.806-35.036-81.831c0.221-6.109,2.445-15.282,8.022-22.706c6.291-8.372,15.38-12.618,27.015-12.618
	c11.635,0,20.725,4.245,27.015,12.618c5.578,7.423,7.801,16.596,8.022,22.706l0,0C291.759,185.132,269.953,224.584,255.999,246.96z"
	/>
<path d="M254.922,138.429c-13.372,0-24.253,10.879-24.253,24.253s10.88,24.253,24.253,24.253c13.372,0,24.253-10.879,24.253-24.253
	S268.294,138.429,254.922,138.429z M254.922,170.765c-4.458,0-8.084-3.626-8.084-8.084s3.626-8.084,8.084-8.084
	c4.458,0,8.084,3.626,8.084,8.084S259.38,170.765,254.922,170.765z"/>
<path d="M183.427,256.266c1.24,17.47,8.735,33.903,21.103,46.272c13.749,13.747,32.027,21.319,51.469,21.319
	s37.721-7.571,51.469-21.32c12.369-12.369,19.863-28.801,21.103-46.272c1.228-17.286-3.717-34.443-13.92-48.309l-13.023,9.584
	c16.427,22.323,14.022,53.95-5.593,73.566C285.342,301.8,271.124,307.689,256,307.689s-29.342-5.89-40.037-16.583
	c-19.614-19.616-22.019-51.243-5.592-73.565l-13.023-9.584C187.144,221.823,182.2,238.979,183.427,256.266z"/>
<path d="M29.642,323.827h53.895c41.181,0,77.585,25.05,92.741,63.818l15.059-5.887c-8.443-21.596-22.923-40.028-41.871-53.302
	c-19.42-13.605-42.218-20.797-65.929-20.797H29.642C29.642,307.658,29.642,323.827,29.642,323.827z"/>
<rect x="401.26" y="396.311" transform="matrix(-0.7071 0.7071 -0.7071 -0.7071 984.744 400.8964)" width="16.168" height="16.168"/>
<rect x="424.124" y="419.235" transform="matrix(-0.7071 0.7071 -0.7071 -0.7071 1039.9854 423.8627)" width="16.167" height="16.168"/>
<rect x="446.994" y="442.07" transform="matrix(0.7071 0.7071 -0.7071 0.7071 451.5962 -189.9417)" width="16.168" height="16.168"/>
<g>
</g>
<g>
</g>
<g>
</g>
<g>
</g>
<g>
</g>
<g>
</g>
<g>
</g>
<g>
</g>
<g>
</g>
<g>
</g>
<g>
</g>
<g>
</g>
<g>
</g>
<g>
</g>
<g>
</g>
</svg>
