<svg height="512pt" viewBox="-38 0 512 512" width="512pt" xmlns="http://www.w3.org/2000/svg"><path d="m332.933594 504.5h-256.46875c-38.089844 0-68.964844-30.875-68.964844-68.964844v-359.070312c0-38.089844 30.875-68.964844 68.964844-68.964844h256.46875c38.085937 0 68.960937 30.875 68.960937 68.964844v359.074218c0 38.085938-30.875 68.960938-68.960937 68.960938zm0 0" fill="#495059"/><path d="m144.15625 7.5h-67.695312c-38.085938 0-68.960938 30.875-68.960938 68.964844v359.074218c0 38.085938 30.875 68.960938 68.960938 68.960938h209.550781c-149.765625-116.453125-153.441407-370.132812-141.855469-497zm0 0" fill="#41464f"/><path d="m212.105469 23.855469c0 4.09375-3.316407 7.410156-7.410157 7.410156-4.089843 0-7.40625-3.316406-7.40625-7.410156 0-4.089844 3.316407-7.40625 7.40625-7.40625 4.09375 0 7.410157 3.316406 7.410157 7.40625zm0 0" fill="#88c8e9"/><path d="m40.214844 430.558594v-349.117188c0-22.769531 18.457031-41.226562 41.226562-41.226562h246.511719c22.769531 0 41.226563 18.457031 41.226563 41.226562v349.117188c0 22.769531-18.457032 41.226562-41.226563 41.226562h-246.511719c-22.769531 0-41.226562-18.457031-41.226562-41.226562zm0 0" fill="#88c8e9"/><path d="m141.738281 40.214844h-60.296875c-22.769531 0-41.226562 18.457031-41.226562 41.226562v349.117188c0 22.769531 18.460937 41.226562 41.226562 41.226562h169.289063c-104.945313-115.160156-115.929688-310.175781-108.992188-431.570312zm0 0" fill="#73b6d9"/><path d="m416.371094 140.347656h-14.476563v-63.882812h14.476563c6.535156 0 11.832031 5.296875 11.832031 11.828125v40.226562c0 6.53125-5.296875 11.828125-11.832031 11.828125zm0 0" fill="#bebfc0"/><path d="m416.371094 240.394531h-14.476563v-63.882812h14.476563c6.535156 0 11.832031 5.296875 11.832031 11.828125v40.226562c0 6.53125-5.296875 11.828125-11.832031 11.828125zm0 0" fill="#bebfc0"/><path d="m369.179688 235.789062-35.417969-23.367187c-22.597657-14.90625-18.671875-49.171875 6.714843-58.582031l28.703126-10.640625v-4.015625l-52.6875-7.980469c-20.890626-3.160156-33.492188-24.84375-25.894532-44.5625l17.882813-46.425781h-49.132813l-42.492187 34.699218c-14.613281 11.9375-36.242188 9.234376-47.46875-5.933593l-21.300781-28.765625h-47.636719l1.074219 75.671875c.203124 14.535156-9.109376 27.496093-22.949219 31.9375l-38.359375 12.316406v69.449219l8.667968 3.277344c12.125 4.585937 20.453126 15.832031 21.296876 28.765624l3.808593 58.363282c.886719 13.582031 16.253907 21.011718 27.449219 13.265625l33.816406-23.390625c9.339844-6.460938 21.339844-7.675782 31.785156-3.214844l36.136719 15.429688c15.664063 6.6875 33.675781-1.613282 38.769531-17.863282l5.671876-18.101562c3.804687-12.136719 14.238281-21.011719 26.824218-22.828125l94.738282-13.660157zm0 0" fill="#ade9f0"/><path d="m141.738281 40.214844h-41.289062l1.074219 75.671875c.207031 14.535156-9.109376 27.496093-22.949219 31.941406l-38.359375 12.3125v69.453125l8.671875 3.277344c12.121093 4.582031 20.449219 15.828125 21.292969 28.761718l3.808593 58.363282c.890625 13.585937 16.253907 21.011718 27.449219 13.265625l33.820312-23.390625c8.8125-6.097656 20-7.515625 30.011719-3.902344-25.386719-92.949219-27.707031-192.6875-23.53125-265.753906zm0 0" fill="#98dae3"/><path d="m369.179688 285.976562-38.660157-3.820312c-13.375-1.320312-21.761719-15.089844-16.792969-27.582031l11.003907-27.679688c3.679687-9.253906-7.039063-17.558593-15.082031-11.679687l-32.554688 23.796875c-13.328125 9.738281-31.792969 8.160156-43.273438-3.703125l-28.496093-29.449219c-4.996094-5.160156-13.648438-3.472656-16.335938 3.1875l-21.722656 53.761719c-4.703125 11.640625-17.714844 17.535156-29.566406 13.394531l-18.339844-6.402344c-8.675781-3.03125-16.152344 6.824219-10.898437 14.363281l18.234374 26.15625c7.246094 10.398438 7.636719 24.101563.992188 34.894532l-13.503906 21.949218c-6.472656 10.519532 2.285156 23.8125 14.507812 22.011719l32.109375-4.734375c18.414063-2.714844 35.332031 10.59375 37.03125 29.132813l5.328125 58.214843h12.628906l41.542969-62.765624c7.667969-11.585938 21.867188-17.003907 35.304688-13.464844l76.542969 20.140625v-15.257813l-37.191407-42.746094c-7.574219-8.699218-6.339843-21.964843 2.707031-29.121093l34.484376-27.277344zm0 0" fill="#f6e06a"/><path d="m157.511719 274.179688c-5.789063 3.449218-12.988281 4.40625-19.8125 2.023437l-18.339844-6.402344c-8.675781-3.03125-16.152344 6.820313-10.894531 14.363281l18.230468 26.15625c7.246094 10.398438 7.636719 24.101563.996094 34.894532l-13.507812 21.945312c-6.472656 10.519532 2.289062 23.8125 14.507812 22.011719l32.109375-4.730469c18.417969-2.714844 35.335938 10.59375 37.03125 29.128906l5.332031 58.214844h12.625l15.574219-23.527344c-37.292969-50.097656-60.277343-111.417968-73.851562-174.078124zm0 0" fill="#ebd15e"/><g fill="#fff"><path d="m220.929688 365.824219 10.074218 25.015625c2.808594 6.972656-4.125 13.910156-11.101562 11.101562l-25.011719-10.074218c-10.878906-4.378907-20.757813-10.910157-29.046875-19.203126l-133.40625-133.40625c-9.910156-9.910156-9.910156-25.976562 0-35.886718 9.90625-9.90625 25.972656-9.90625 35.882812 0l133.40625 133.410156c8.292969 8.289062 14.824219 18.167969 19.203126 29.042969zm0 0"/><path d="m159.414062 182.050781c0-11.648437-11.851562-21.085937-26.476562-21.085937-14.621094 0-26.476562 9.4375-26.476562 21.085937 0 11.644531 11.855468 21.085938 26.476562 21.085938 14.625 0 26.476562-9.441407 26.476562-21.085938zm0 0"/><path d="m302.933594 182.050781c0-11.648437-11.851563-21.085937-26.476563-21.085937s-26.476562 9.4375-26.476562 21.085937c0 11.644531 11.851562 21.085938 26.476562 21.085938s26.476563-9.441407 26.476563-21.085938zm0 0"/></g><path d="m416.371094 147.851562c10.660156 0 19.332031-8.671874 19.332031-19.332031v-40.226562c0-10.65625-8.671875-19.328125-19.332031-19.328125h-7.347656c-3.78125-38.65625-36.460938-68.964844-76.089844-68.964844h-256.472656c-42.160157 0-76.460938 34.300781-76.460938 76.464844v359.070312c0 42.164063 34.300781 76.464844 76.464844 76.464844h244.496094c4.140624 0 7.5-3.355469 7.5-7.5s-3.359376-7.5-7.5-7.5h-244.5c-33.890626 0-61.460938-27.570312-61.460938-61.464844v-359.070312c0-33.894532 27.570312-61.464844 61.460938-61.464844h256.472656c33.890625 0 61.460937 27.570312 61.460937 61.464844v359.070312c0 25.988282-16.449219 49.277344-40.929687 57.953125-3.902344 1.382813-5.949219 5.667969-4.566406 9.574219 1.382812 3.902344 5.671874 5.945312 9.574218 4.566406 30.457032-10.792968 50.921875-39.765625 50.921875-72.09375v-187.640625h6.976563c10.660156 0 19.332031-8.671875 19.332031-19.328125v-40.226562c0-10.660156-8.671875-19.332032-19.332031-19.332032h-6.976563v-21.160156h6.976563zm-6.976563-63.886718h6.976563c2.390625 0 4.332031 1.941406 4.332031 4.328125v40.226562c0 2.386719-1.941406 4.332031-4.332031 4.332031h-6.976563zm6.976563 100.046875c2.390625 0 4.332031 1.941406 4.332031 4.328125v40.226562c0 2.386719-1.941406 4.328125-4.332031 4.328125h-6.976563v-48.882812zm-147.847656-22.996094v-9.351563c0-4.140624-3.355469-7.5-7.5-7.5-4.140626 0-7.5 3.359376-7.5 7.5v9.351563c0 4.140625 3.359374 7.5 7.5 7.5 4.144531 0 7.5-3.359375 7.5-7.5zm-187.082032 318.269531h246.511719c26.867187 0 48.726563-21.859375 48.726563-48.730468v-349.113282c0-26.867187-21.859376-48.726562-48.726563-48.726562h-246.511719c-18.542968 0-35.757812 10.78125-43.855468 27.472656-1.8125 3.726562-.257813 8.214844 3.46875 10.023438 3.726562 1.808593 8.214843.253906 10.023437-3.472657 5.695313-11.734375 17.328125-19.023437 30.363281-19.023437h246.511719c18.597656 0 33.726563 15.128906 33.726563 33.726562v349.113282c0 18.597656-15.128907 33.730468-33.726563 33.730468h-246.511719c-18.597656 0-33.726562-15.132812-33.726562-33.730468v-165.410157l112.824218 112.824219c9.058594 9.054688 19.671876 16.070312 31.550782 20.855469l25.011718 10.070312c1.945313.785157 3.980469 1.167969 5.996094 1.167969 4.167969 0 8.261719-1.632812 11.328125-4.703125 4.554688-4.550781 5.941407-11.351563 3.535157-17.324219l-10.070313-25.011718c-4.785156-11.878907-11.800781-22.492188-20.855469-31.546876l-113.539062-113.535156c-.003906-.003906-.003906-.003906-.003906-.003906-.003907-.003906-.003907-.003906-.007813-.007812l-19.863281-19.859376c-7.082032-7.085937-16.625-10.246093-25.90625-9.5v-90.082031c0-4.144531-3.359375-7.5-7.5-7.5-4.144532 0-7.5 3.355469-7.5 7.5v95.105469c-1.980469 1.261719-3.855469 2.75-5.582032 4.472656-12.820312 12.820313-12.820312 33.675782 0 46.492188l5.582032 5.582031v180.414063c0 26.871093 21.859375 48.730468 48.726562 48.730468zm114.984375-137.199218c7.617188 7.617187 13.523438 16.546874 17.546875 26.542968l10.074219 25.011719c.074219.1875.253906.632813-.230469 1.113281-.480468.484375-.925781.304688-1.113281.226563l-25.011719-10.070313c-9.996094-4.023437-18.925781-9.929687-26.546875-17.550781l-108.234375-108.234375 25.277344-25.277344zm-158.6875-133.410157c3.484375-3.484375 8.0625-5.226562 12.640625-5.226562 4.574219 0 9.152344 1.742187 12.636719 5.226562l14.566406 14.5625-25.277343 25.28125-6.785157-6.785156s-.003906-.003906-.003906-.003906l-7.777344-7.777344c-6.96875-6.96875-6.96875-18.308594 0-25.277344zm118.128907-47.660156v-9.351563c0-4.140624-3.355469-7.5-7.5-7.5-4.140626 0-7.5 3.359376-7.5 7.5v9.351563c0 4.140625 3.359374 7.5 7.5 7.5 4.144531 0 7.5-3.359375 7.5-7.5zm48.828124 14.679687c7.859376 0 15.335938-3.402343 20.507813-9.339843 2.71875-3.121094 2.394531-7.859375-.726563-10.582031-3.125-2.71875-7.863281-2.394532-10.582031.730468-2.324219 2.664063-5.675781 4.191406-9.199219 4.191406-3.519531 0-6.871093-1.527343-9.195312-4.191406-2.71875-3.125-7.457031-3.449218-10.578125-.730468-3.125 2.722656-3.449219 7.460937-.730469 10.582031 5.171875 5.9375 12.648438 9.339843 20.503906 9.339843zm0 0"/></svg>