<svg height="512" viewBox="0 0 256 256" width="512" xmlns="http://www.w3.org/2000/svg"><path d="m158.416 90.75a2.5 2.5 0 0 1 -.312-4.98l13.083-1.67a2.5 2.5 0 0 1 .63 4.959l-13.083 1.671a2.436 2.436 0 0 1 -.318.02z" fill="#ebe7f2"/><path d="m185.964 133.253a2.5 2.5 0 0 1 -2.5-2.5v-23.67a2.5 2.5 0 0 1 5 0v23.67a2.5 2.5 0 0 1 -2.5 2.5z" fill="#ebe7f2"/><g fill="#846f75"><path d="m172.527 82.883a18.188 18.188 0 0 0 6.361-13.443 2.5 2.5 0 1 0 -5-.181 13.2 13.2 0 0 1 -4.673 9.876 2.5 2.5 0 1 0 3.308 3.748z"/><path d="m216.857 56.786a27.084 27.084 0 0 1 -3.312-3.357l-9.536-11.852a18.742 18.742 0 1 0 -24.568 4.907l-4.716 2.7a4.554 4.554 0 0 0 -2.247 4.631l-7.522 7.185-8.333-7.931a2.506 2.506 0 0 1 -.427-.535l-6-10.12a7.5 7.5 0 0 0 -11.432-1.78l-5.064 4.496a4.259 4.259 0 0 0 .241 6.568l12.465 9.536a2.5 2.5 0 0 1 .482.487l13.952 18.618a2.5 2.5 0 0 0 4-3l-13.94-18.614a7.538 7.538 0 0 0 -1.448-1.462l-11.753-8.991 4.388-3.9a2.5 2.5 0 0 1 3.81.593l6 10.122a7.525 7.525 0 0 0 1.28 1.6l10.06 9.575a2.5 2.5 0 0 0 3.452 0l8.544-8.168 10.307 11.978a3.522 3.522 0 0 1 .523.821l12.977 26.516-7.94 10.317a2.5 2.5 0 1 0 3.962 3.048l6.426-8.353.081.165a7.392 7.392 0 0 0 6.716 4.2c.121 0 .244 0 .366-.009a7.4 7.4 0 0 0 6.665-4.831l7.7-20.292a22.6 22.6 0 0 0 -6.159-24.868zm-41.6-26.4a13.75 13.75 0 1 1 13.743 13.748 13.765 13.765 0 0 1 -13.748-13.75zm43.1 49.5-7.7 20.293a2.5 2.5 0 0 1 -4.583.212l-15.49-31.651a8.385 8.385 0 0 0 -1.242-1.924l-11.677-13.557 6.433-3.678a3.364 3.364 0 0 1 4.856 1.836l4.45 13.068a8.359 8.359 0 0 0 1.031 2.048 2.451 2.451 0 0 0 .184.236l10.731 12.137a2.5 2.5 0 0 0 3.746-3.312l-10.617-12.009a3.366 3.366 0 0 1 -.342-.713l-4.45-13.067a8.6 8.6 0 0 0 -.506-1.157 18.677 18.677 0 0 0 7.3-3.474l9.164 11.389a31.841 31.841 0 0 0 3.907 3.978 17.574 17.574 0 0 1 4.797 19.342z"/><path d="m149.618 76.738-22.906-8.465c-4.824-2.234-27.812-12.813-32.247-13.494-3.405-.524-24.212-5.955-32.326-8.106l-19.688-10.573a4.5 4.5 0 0 0 -6.485 2.592l-4.25 13.626a4.5 4.5 0 0 0 3.555 5.779l20.421 3.4c5.051 2.254 37.968 16.884 44.57 18.2 6.1 1.22 14.281 6.581 14.363 6.635.035.023.071.045.106.066l31.5 18.584a2.5 2.5 0 1 0 2.541-4.307l-31.448-18.548c-.833-.544-9.229-5.958-16.082-7.329-5.243-1.048-33.4-13.347-43.8-18a2.458 2.458 0 0 0 -.609-.183l-20.173-3.359 3.9-12.5 19.47 10.461a2.535 2.535 0 0 0 .543.214c1.17.311 28.718 7.611 33.132 8.29 2.9.446 20.552 8.291 31 13.131.061.028.122.053.185.077l23 8.5a2.5 2.5 0 0 0 1.732-4.691z"/><path d="m210.327 237.935a13.406 13.406 0 0 0 -8.45-9.233l-9.318-3.342a2.506 2.506 0 0 1 -1.635-2.029l2.491-84.331a2.5 2.5 0 0 0 -2.425-2.573h-.075a2.5 2.5 0 0 0 -2.5 2.426l-2.5 84.5a2.4 2.4 0 0 0 .008.281 7.515 7.515 0 0 0 4.942 6.436l9.318 3.343a8.4 8.4 0 0 1 5.3 5.789l.044.168h-25.581c-.163-4.614-1.39-37.9-3-45.314-1.527-7.024.233-15.357.25-15.44a2.447 2.447 0 0 0 .055-.426 54.132 54.132 0 0 0 -1.551-12.39c-1.628-7.485-5.428-35.111-5.466-35.389a2.5 2.5 0 0 0 -4.954.681c.158 1.143 3.866 28.1 5.534 35.771a53.777 53.777 0 0 1 1.447 10.942c-.316 1.576-1.818 9.852-.2 17.308 1.6 7.36 2.894 44.529 2.907 44.9a4.482 4.482 0 0 0 4.5 4.35h26.717a4.5 4.5 0 0 0 4.353-5.637z"/></g><path d="m196.262 109.924c-.111-.084-11.057-8.377-16.975-12.981-4.181-3.251-5.69-12.725-5.92-16.1a2.5 2.5 0 0 0 -2.075-2.3l-22.121-3.759a2.5 2.5 0 0 0 -2.919 2.465v31.667a4.505 4.505 0 0 0 4.5 4.5h7.1l3.489 14.162a4.469 4.469 0 0 0 1.4 2.3c2.626 2.305 11.825 9.921 19.967 11.173a30.141 30.141 0 0 0 4.577.373 16.165 16.165 0 0 0 7.567-1.586 4.478 4.478 0 0 0 2.4-3.984v-23.94a2.5 2.5 0 0 0 -.99-1.99zm-20.045-9.034.041.032-4.565 4.772-4.4-4.308 4.739-5.874a15.729 15.729 0 0 0 4.185 5.378zm16.035 34.656c-1.143.517-3.864 1.323-8.787.567-6.826-1.051-15.36-8.188-17.305-9.882l-3.545-14.39a4.49 4.49 0 0 0 -4.369-3.424h-6.994v-28.207l17.32 2.944a46.715 46.715 0 0 0 1.392 6.957l-7.99 9.9a2.5 2.5 0 0 0 .2 3.356l7.826 7.67a2.5 2.5 0 0 0 1.749.713h.041a2.5 2.5 0 0 0 1.766-.772l6.682-6.978c4.566 3.507 9.857 7.527 12.014 9.163z" fill="#f9b087"/></svg>