<svg height="496pt" viewBox="0 0 496 496" width="496pt" xmlns="http://www.w3.org/2000/svg"><g fill="#f0bc5e"><path d="m384 136c0 22.089844-17.910156 40-40 40s-40-17.910156-40-40 17.910156-40 40-40 40 17.910156 40 40zm0 0"/><path d="m192 136c0 22.089844-17.910156 40-40 40s-40-17.910156-40-40 17.910156-40 40-40 40 17.910156 40 40zm0 0"/><path d="m288 56c0 22.089844-17.910156 40-40 40s-40-17.910156-40-40 17.910156-40 40-40 40 17.910156 40 40zm0 0"/><path d="m392 328h48v40h-48zm0 0"/><path d="m312 264h-128l-26.328125-67.785156 6.753906-3.375c29.261719-14.632813 52.484375-39.253906 65.367188-69.320313l4.933593-11.519531h26.546876l4.933593 11.519531c12.882813 30.066407 36.105469 54.6875 65.367188 69.320313l6.753906 3.375zm0 0"/></g><path d="m496 248c0-136.742188-111.246094-248-248-248s-248 111.257812-248 248c0 42.761719 11.097656 84.792969 32 121.800781v24.625l40 60 13.03125-19.546875c45.183594 39.464844 102.671875 61.121094 162.96875 61.121094 55.761719 0 109.9375-18.894531 153.527344-53.289062l14.472656 18.097656 31.753906-39.695313c5.316406-6.640625 8.246094-14.992187 8.246094-23.503906 0-4.089844-.824219-7.960937-2.03125-11.648437 27.4375-40.882813 42.03125-88.449219 42.03125-137.960938zm-48 117.648438v-235.015626c20.304688 34.457032 32 74.558594 32 117.367188 0 41.769531-11.015625 82.089844-32 117.648438zm-16-258.71875v255.71875c-4.230469-1.65625-8.800781-2.648438-13.609375-2.648438h-4.78125c-4.808594 0-9.378906.992188-13.609375 2.648438v-258.648438c0-8.753906 7.0625-15.855469 15.777344-15.976562 5.734375 6.007812 11.160156 12.3125 16.222656 18.90625zm-336 277.070312h-16v-224h16zm-48-224h16v224h-16zm48-16h-48v-13.367188c7.238281-12.289062 15.574219-23.839843 24.878906-34.542968 12.816406.46875 23.121094 10.972656 23.121094 23.910156zm-80 104c0-29.808594 5.710938-58.289062 16-84.496094v168.992188c-10.457031-26.792969-16-55.457032-16-84.496094zm38.945312 152h34.101563l-17.046875 25.574219zm193.054688 80c-57.105469 0-111.503906-20.785156-154.007812-58.566406l18.007812-27.007813v-274.425781c0-17.265625-11.054688-31.871094-26.40625-37.464844 41.878906-41.109375 99.222656-66.535156 162.40625-66.535156 59.289062 0 113.425781 22.382812 154.480469 59.105469-10.878907 5.109375-18.480469 16.09375-18.480469 28.894531v270.695312c-4.9375 6.367188-8 14.25-8 22.914063 0 8.503906 2.929688 16.855469 8.238281 23.503906l7.296875 9.109375c-40.757812 32.128906-91.40625 49.777344-143.535156 49.777344zm187.257812-68.886719-19.257812 24.078125-19.265625-24.085937c-3.054687-3.808594-4.734375-8.609375-4.734375-13.496094 0-11.914063 9.695312-21.609375 21.609375-21.609375h4.78125c11.914063 0 21.609375 9.695312 21.609375 21.609375 0 4.886719-1.679688 9.6875-4.742188 13.503906zm0 0"/><path d="m345.078125 112.113281c-13.269531-31.113281-40.734375-54.015625-73.734375-61.480469-2.457031-10.648437-11.960938-18.632812-23.34375-18.632812s-20.886719 7.984375-23.34375 18.625c-32.992188 7.464844-60.464844 30.367188-73.734375 61.480469-12.722656.582031-22.921875 11.03125-22.921875 23.894531 0 13.230469 10.769531 24 24 24s24-10.769531 24-24c0-7.785156-3.785156-14.648438-9.550781-19.039062 11.269531-25.136719 33.460937-43.632813 60.214843-50.191407 3.96875 7.816407 11.992188 13.230469 21.335938 13.230469s17.367188-5.414062 21.328125-13.230469c26.75 6.558594 48.953125 25.054688 60.214844 50.191407-5.757813 4.390624-9.542969 11.253906-9.542969 19.039062 0 13.230469 10.769531 24 24 24s24-10.769531 24-24c0-12.863281-10.199219-23.3125-22.921875-23.886719zm-193.078125 31.886719c-4.414062 0-8-3.59375-8-8s3.585938-8 8-8 8 3.59375 8 8-3.585938 8-8 8zm96-80c-4.414062 0-8-3.59375-8-8s3.585938-8 8-8 8 3.59375 8 8-3.585938 8-8 8zm96 80c-4.414062 0-8-3.59375-8-8s3.585938-8 8-8 8 3.59375 8 8-3.585938 8-8 8zm0 0"/><path d="m296 400c0 26.472656-21.527344 48-48 48s-48-21.527344-48-48v-104h80v-16h-80v-16h-16v136c0 35.289062 28.710938 64 64 64s64-28.710938 64-64v-136h-16zm0 0"/><path d="m240 112v73.472656c-9.289062 3.3125-16 12.113282-16 22.527344 0 13.230469 10.769531 24 24 24s24-10.769531 24-24c0-10.414062-6.710938-19.214844-16-22.527344v-73.472656zm8 104c-4.414062 0-8-3.59375-8-8s3.585938-8 8-8 8 3.59375 8 8-3.585938 8-8 8zm0 0"/></svg>