<svg enable-background="new 0 0 60 53.987" height="512" viewBox="0 0 60 53.987" width="512" xmlns="http://www.w3.org/2000/svg"><path d="m40.822 53.987c-6.55 0-15.711-8.401-22.364-21.083-3.973-7.573-6.347-15.476-6.515-21.682-.007-.274.098-.539.292-.733s.453-.323.733-.293c.03 0 .074.004.112.009.515.041.92.472.92.996 0 .104-.016.206-.046.3.234 5.861 2.511 13.298 6.275 20.474 6.979 13.303 17.352 22.256 22.651 19.545 1.314-.671 2.24-2.045 2.753-4.083.135-.536.678-.86 1.213-.726.536.135.861.678.726 1.213-.659 2.622-1.931 4.431-3.782 5.377-.905.463-1.902.686-2.968.686z" fill="#dd352e"/><circle cx="30" cy="26.993" fill="#ed8a19" r="7"/><path d="m13 11.487c-1.808 0-3.279-1.456-3.279-3.247s1.471-3.247 3.279-3.247 3.279 1.456 3.279 3.247-1.471 3.247-3.279 3.247z" fill="#ebba16"/><path d="m47 47.526c-1.54 0-2.793-1.241-2.793-2.766s1.253-2.767 2.793-2.767 2.793 1.241 2.793 2.766-1.253 2.767-2.793 2.767z" fill="#ebba16"/><path d="m55 23.993c-1.654 0-3-1.346-3-3s1.346-3 3-3 3 1.346 3 3-1.346 3-3 3z" fill="#ebba16"/><g fill="#4d007e"><path d="m47.364 5.315c-.705-2.22-1.908-3.777-3.574-4.629-6.468-3.307-17.596 5.652-25.332 20.397-5.519 10.52-7.805 21.35-5.823 27.589.705 2.22 1.908 3.777 3.574 4.629.906.463 1.902.685 2.968.685 6.549 0 15.711-8.402 22.363-21.083 5.521-10.519 7.806-21.349 5.824-27.588zm-7.593 26.66c-6.979 13.303-17.351 22.257-22.651 19.545-1.173-.6-2.041-1.761-2.578-3.454-1.801-5.668.485-16.139 5.688-26.055 6.136-11.697 14.896-20.029 20.524-20.029.772 0 1.486.157 2.126.484 1.173.6 2.041 1.761 2.578 3.454 1.801 5.668-.485 16.139-5.687 26.055z"/><path d="m13 12.201c-2.206 0-4-1.777-4-3.961 0-2.185 1.794-3.961 4-3.961s4 1.777 4 3.961c0 2.185-1.794 3.961-4 3.961zm0-5.922c-1.103 0-2 .88-2 1.961s.897 1.961 2 1.961 2-.88 2-1.961-.897-1.961-2-1.961z"/><path d="m47 48.721c-2.206 0-4-1.777-4-3.961s1.794-3.961 4-3.961 4 1.777 4 3.961-1.794 3.961-4 3.961zm0-5.922c-1.103 0-2 .88-2 1.961s.897 1.961 2 1.961 2-.88 2-1.961-.897-1.961-2-1.961z"/><path d="m40.822 53.987c-6.55 0-15.711-8.401-22.364-21.083-3.973-7.573-6.347-15.476-6.515-21.682l-.028-1.053 1.139.032c1.078-.029 1.946-.897 1.946-1.96 0-.912-.635-1.694-1.543-1.903l-1.086-.25.365-1.053c.719-2.076 1.888-3.539 3.474-4.35 6.468-3.302 17.596 5.652 25.332 20.397 3.783 7.211 6.081 14.546 6.468 20.653l.067 1.063h-1.131c-1.078.029-1.946.898-1.946 1.962 0 .97.745 1.8 1.733 1.93l1.113.146-.274 1.088c-.659 2.622-1.931 4.431-3.782 5.377-.905.463-1.902.686-2.968.686zm-26.838-41.907c.355 5.768 2.604 12.954 6.246 19.895 6.978 13.303 17.351 22.256 22.65 19.545 1.106-.565 1.937-1.626 2.478-3.163-1.4-.625-2.358-2.019-2.358-3.597 0-1.821 1.247-3.358 2.94-3.82-.535-5.589-2.757-12.424-6.169-18.928-6.98-13.303-17.354-22.257-22.651-19.545-.889.454-1.604 1.239-2.133 2.339 1.225.688 2.013 1.979 2.013 3.435 0 1.848-1.285 3.404-3.016 3.839z"/><path d="m30 34.993c-4.411 0-8-3.589-8-8s3.589-8 8-8 8 3.589 8 8-3.589 8-8 8zm0-14c-3.308 0-6 2.691-6 6s2.692 6 6 6 6-2.691 6-6-2.692-6-6-6z"/><path d="m55 24.993c-2.206 0-4-1.794-4-4s1.794-4 4-4 4 1.794 4 4-1.794 4-4 4zm0-6c-1.103 0-2 .897-2 2s.897 2 2 2 2-.897 2-2-.897-2-2-2z"/><path d="m30 39.838c-16.823 0-30-5.642-30-12.844s13.177-12.844 30-12.844c8.862 0 17.197 1.618 22.867 4.438l.961.478-.544.925c-.189.319-.284.657-.284 1.002 0 1.103.897 2 2 2 .579 0 1.113-.249 1.504-.702l.746-.863.758.852c1.322 1.486 1.992 3.071 1.992 4.713 0 7.203-13.177 12.845-30 12.845zm0-23.689c-15.177 0-28 4.966-28 10.844s12.823 10.844 28 10.844 28-4.966 28-10.844c0-.876-.297-1.753-.885-2.616-.63.398-1.362.616-2.115.616-2.206 0-4-1.794-4-4 0-.341.046-.682.136-1.015-5.375-2.44-13.006-3.829-21.136-3.829z"/><path d="m33 27.993h-6c-.552 0-1-.448-1-1s.448-1 1-1h6c.552 0 1 .448 1 1s-.448 1-1 1z"/><path d="m30 30.993c-.552 0-1-.448-1-1v-6c0-.552.448-1 1-1s1 .448 1 1v6c0 .553-.448 1-1 1z"/></g></svg>