<svg id="Flat" enable-background="new 0 0 512 512" height="512" viewBox="0 0 512 512" width="512" xmlns="http://www.w3.org/2000/svg"><g><path d="m408.7353516 103.2646484c-40.7978516-40.796875-95.0400391-63.2646484-152.7353516-63.2646484s-111.9375 22.4677734-152.7353516 63.2646484c-40.796875 40.7973633-63.2646484 95.0395508-63.2646484 152.7353516s22.4677734 111.9379883 63.2646484 152.7353516c40.7978516 40.796875 95.0400391 63.2646484 152.7353516 63.2646484s111.9375-22.4677734 152.7353516-63.2646484c40.796875-40.7973633 63.2646484-95.0395508 63.2646484-152.7353516s-22.4677734-111.9379883-63.2646484-152.7353516zm-152.7353516 336.7353516c-101.6203613 0-184-82.3796387-184-184s82.3796387-184 184-184c101.6206055 0 184 82.3795776 184 184s-82.3793945 184-184 184z" fill="#fcc200"/><path d="m240 16v72.0000153c0 8.8365478 7.1634369 15.9999847 15.9999847 15.9999847h.0000458c8.8365479 0 15.9999695-7.1634369 15.9999695-15.9999847v-72.0000153z" fill="#f98800"/><path d="m232 312h-208l56 40 16-16 112 24z" fill="#fad6c6"/><path d="m232 312-96 176 56-32v-16l48-56 57.7790527 36.7684937c18.3703918 11.6902466 41.9084167 11.4398499 60.0259705-.6384888l.000061-.000061c23.8357544-15.8905029 31.4792175-47.4181824 17.5669861-72.4602051l-15.3720703-27.6697388 24-48 88-16-24-104h-24l-24 16 8 24h24l-8 41-56-1-24-8-24-31 16-8v-25l24-16-16-32h-40v16h-40l-16 24 16 8v16h-16l8 24 16 8h16v24h-96l-80-88-8.0000076 16h-39.9999924v16l24 16 24-8 64 80 88 8-8 16 40 32 8 40z" fill="#fad6c6"/><path d="m304 360 24 16" fill="none" stroke="#000" stroke-linejoin="round" stroke-miterlimit="10" stroke-width="16"/><path d="m232 312h-88v34.2856445l64 13.7143555z" fill="#5b0b3c"/><g><path d="m304 360-72-48-43.2475586 79.2871094 30.206543 17.2608643 21.0410156-24.5479737 57.7792969 36.7685547c18.3701172 11.6901855 41.9082031 11.4396973 60.0258789-.6385498v-.0001221c22.480957-14.9874267 30.5488281-43.8830566 19.7216797-68.1298828h-75.1269531z" fill="#931d5b"/><path d="m384 272-16-40-24-8-24 32h-16l-16-24-24 40-8 16 40 32h64z" fill="#f98dd4"/><path d="m288 176 16-16h8l8 33 16-8v-25l24-16-16-32h-40v16h-40l-16 24 16 8h24z" fill="#35495e"/></g></g></svg>