<svg height="512" viewBox="0 0 58 48" width="512" xmlns="http://www.w3.org/2000/svg"><g id="Page-1" fill="none" fill-rule="evenodd"><g id="003---Bow-Pose" fill-rule="nonzero" transform="translate(0 -1)"><path id="Shape" d="m56 28c-1.4123344-2.990721-2.6543193-6.0589578-3.72-9.19-1.2645887-.2707128-2.4407095-.8553343-3.42-1.7-.3892833-1.2531237-1.547805-2.1078373-2.86-2.11h-28.32c1.364-1.038 2.861-2.105 4.32-3 4-3 1-7 1-7-5.8 3.25-10.977 5.9-16.54 10.65-1.81252405 1.5145607-3.40457675 3.2749065-4.73 5.23-1.19308914 1.7441019-1.78628331 3.8290565-1.69 5.94.33 9.88 12.5 21.07 22.96 21.18h8c14 0 21-12 21-12 3-1 6-4 4-8zm-12.14-5.91c-.5781034 4.6583243-3.5635512 8.6693077-7.86 10.56-1.358.543-.894.2-2.99-.7-1.2605494-.5791429-2.6236043-.9020612-4.01-.95-3 0-5 1-8 3-.611.4-.809.787-1.43.68-5.37-.99-9.44-4.02-10.16-5.1-.79876084-1.0419937-1.28124309-2.2915881-1.39-3.6-.00582687-.4367923.11958381-.8652788.36-1.23 1.27314437-2.1972514 2.8788327-4.184122 4.76-5.89.3768087 1.2661818 1.5389462 2.1357532 2.86 2.14h28c-.04.37-.08.74-.14 1.09z" fill="#fdd7ad"/><path id="Shape" d="m40 15v5.0000256l-25-.0000256c-.5387716.0022451-1.0678836-.1430013-1.53-.42-.1498416-.2196585-.2614179-.4630976-.33-.72l-.01.01-.02.02c-.0815781.0715926-.1584074.1484219-.23.23-.350497-.3474708-.6083479-.7772223-.75-1.25-.0844676-.2823463-.1282415-.5752949-.13-.87v-2c0-.5522847.4477153-1 1-1h6.03c-.44.32-.89.65-1.35 1z" fill="#f9c795"/><path id="Shape" d="m52 36s-7 12-21 12h-8c-10.46-.11-22.63-11.3-22.96-21.18-.09628331-2.1109435.49691086-4.1958981 1.69-5.94 1.85751205-2.6479548 4.13795681-4.9723192 6.75-6.88 1.39541381 1.7639499 2.9448428 3.4003879 4.63 4.89-1.8764361 1.6910988-3.47291685 3.6689798-4.73 5.86-.24041619.3647212-.36582687.7932077-.36 1.23.10875691 1.3084119.59123916 2.5580063 1.39 3.6.72 1.08 4.79 4.11 10.16 5.1.622.107.822-.285 1.43-.68 3.1-2.065 5.719-3.475 9.49-2.85 1.0056403.2093401 1.982595.5383489 2.91.98.716.341.582.29.6.29.592.331.941.616 1.48.43 3.0649749-1.1439656 5.5741165-3.4204478 7.01-6.36.8262263-1.7254856 1.3375908-3.5846849 1.51-5.49h-3v-6c4.842 0 5.369-.119 6.24.27.7781746.3535884 1.3678192 1.0233082 1.62 1.84.0054305.0053939.0089432.0124192.01.02.9822224.8303657 2.1530778 1.4072094 3.41 1.68 1.0656807 3.1310422 2.3076656 6.199279 3.72 9.19 2 4-1 7-4 8z" fill="#ff5364"/><path id="Shape" d="m41 15v6.0000256l-25-.0000256c-1.323307.0054573-2.4919203-.8618411-2.87-2.13-.0844676-.2823463-.1282415-.5752949-.13-.87v-2c0-.5522847.4477153-1 1-1z" fill="#fdd7ad"/><path id="Shape" d="m58 9v8c-.0032948 1.1032019-.8967981 1.9967052-2 2h-2c-.5781164.0015982-1.1547402-.0587462-1.72-.18v-.01c-1.2558107-.2759692-2.4259346-.8524526-3.41-1.68-.0010568-.0075808-.0045695-.0146061-.01-.02-.2521808-.8166918-.8418254-1.4864116-1.62-1.84-.8147095-1.2747668-1.2451869-2.7571368-1.24-4.27v-2c.0049563-3.31165334 2.6883467-5.99504366 6-6 3.3137085 0 6 2.6862915 6 6z" fill="#fdd7ad"/><path id="Shape" d="m46.01 8.87c-.3300933.08442281-.6692873.12808145-1.01.13-2.066169.0029834-3.7946052-1.56815817-3.9881819-3.62524139s1.2114153-3.92308827 3.2418691-4.30560737c2.0304537-.38251911 4.0181136.84434103 4.5863128 2.83084876z" fill="#805333"/><path id="Shape" d="m56.8 5.41c-.48.82-1.96 2.59-5.8 2.59 0 0 0 3.87-4.76 4.95-.1615347-.6373491-.2421689-1.2925027-.24-1.95v-2c.0042965-2.58074323 1.6583797-4.86962779 4.1073705-5.68369047 2.4489908-.81406269 5.1441862.02908945 6.6926295 2.09369047z" fill="#a56a43"/><path id="Shape" d="m36 32.65v7.35c0 .5522847-.4477153 1-1 1s-1-.4477153-1-1v-7.58c.25.14.47.26.63.35.2576672.1507256.5687349.1800025.85.08.14-.05.32-.12.52-.2z" fill="#df4d60"/><g fill="#3f5c6c"><path id="Shape" d="m50 49h-47c-.55228475 0-1-.4477153-1-1s.44771525-1 1-1h47c.5522847 0 1 .4477153 1 1s-.4477153 1-1 1z"/><path id="Shape" d="m55 49h-1c-.5522847 0-1-.4477153-1-1s.4477153-1 1-1h1c.5522847 0 1 .4477153 1 1s-.4477153 1-1 1z"/></g></g></g></svg>