<svg height="512" viewBox="0 0 64 64" width="512" xmlns="http://www.w3.org/2000/svg"><g id="flat"><rect fill="#f4f4e6" height="40" rx="4" width="58" x="3" y="19"/><path d="m14 29h-6l2-6h2z" fill="#dd3e46"/><path d="m8 29h6v4h-6z" fill="#394d5c"/><path d="m8 33h6v12h-6z" fill="#dd3e46"/><path d="m20 29h-6l2-6h2z" fill="#e97424"/><path d="m14 29h6v4h-6z" fill="#aabece"/><path d="m14 33h6v12h-6z" fill="#e97424"/><path d="m26 29h-6l2-6h2z" fill="#f9bb4b"/><path d="m20 29h6v4h-6z" fill="#394d5c"/><path d="m20 33h6v12h-6z" fill="#f9bb4b"/><path d="m32 29h-6l2-6h2z" fill="#fcf05a"/><path d="m26 29h6v4h-6z" fill="#aabece"/><path d="m26 33h6v12h-6z" fill="#fcf05a"/><path d="m38 29h-6l2-6h2z" fill="#55b56a"/><path d="m32 29h6v4h-6z" fill="#394d5c"/><path d="m32 33h6v12h-6z" fill="#55b56a"/><path d="m44 29h-6l2-6h2z" fill="#8ec13f"/><path d="m38 29h6v4h-6z" fill="#aabece"/><path d="m38 33h6v12h-6z" fill="#8ec13f"/><path d="m50 29h-6l2-6h2z" fill="#2d75bb"/><path d="m44 29h6v4h-6z" fill="#394d5c"/><path d="m44 33h6v12h-6z" fill="#2d75bb"/><path d="m56 29h-6l2-6h2z" fill="#50b4f8"/><path d="m50 29h6v4h-6z" fill="#aabece"/><path d="m50 33h6v12h-6z" fill="#50b4f8"/><path d="m3 45h58a0 0 0 0 1 0 0v10a4 4 0 0 1 -4 4h-50a4 4 0 0 1 -4-4v-10a0 0 0 0 1 0 0z" fill="#ad6327"/><path d="m21 5h22a2 2 0 0 1 2 2v12a0 0 0 0 1 0 0h-26a0 0 0 0 1 0 0v-12a2 2 0 0 1 2-2z" fill="#ad6327"/><path d="m37 11c0-1.105-2.239-2-5-2s-5 .895-5 2h-4v4h18v-4z" fill="#fff"/><path d="m3 51 8 8h6l-14-14z" fill="#fcf05a"/><path d="m3 45 14 14h6l-14-14z" fill="#d3843d"/><path d="m61 51-8 8h-6l14-14z" fill="#fcf05a"/><path d="m61 45-14 14h-6l14-14z" fill="#d3843d"/><ellipse cx="32" cy="52" fill="#fcf05a" rx="8" ry="3"/><g fill="#f4f4e6"><path d="m17 48h2v2h-2z"/><path d="m21 48h2v2h-2z"/><path d="m42 48h2v2h-2z"/><path d="m46 48h2v2h-2z"/></g></g></svg>