<svg id="Layer_1" enable-background="new 0 0 512 512" height="512" viewBox="0 0 512 512" width="512" xmlns="http://www.w3.org/2000/svg"><g id="XMLID_191_"><g id="XMLID_3261_"><g id="XMLID_3262_"><g id="XMLID_3263_"><g id="XMLID_3264_"><g id="XMLID_3265_"><g id="XMLID_3266_"><g id="XMLID_3267_"><g id="XMLID_3268_"><g id="XMLID_3269_"><g id="XMLID_3270_"><g id="XMLID_3271_"><g id="XMLID_3272_"><g id="XMLID_3273_"><g id="XMLID_3274_"><circle id="XMLID_3275_" cx="256" cy="256" fill="#ffe733" r="256"/></g></g></g></g></g></g></g></g></g></g></g></g></g></g><path id="XMLID_235_" d="m247.486 511.844c2.828.092 5.663.156 8.514.156 141.385 0 256-114.615 256-256 0-3.223-.08-6.428-.198-9.622l-182.779-182.779-146.047 30 27.69 26.901c34.158 21.884-32.318 323.833-32.318 323.833z" fill="#ffc200"/><g id="XMLID_6_"><g id="XMLID_1736_"><g id="XMLID_934_"><path id="XMLID_1446_" d="m400.325 300.522c-.894 30.691-13.31 64.742-39.602 99.246-12.283 16.116-20.967 31.102-27.073 44.566h-155.301c-6.105-13.464-14.79-28.45-27.073-44.566-26.291-34.504-38.707-68.555-39.602-99.246-.195-6.814 5.622-9.425 6.527-15.88 1.018-7.174-2.755-18.12-.432-24.76 7.873-22.612 23.126-41.883 44.319-56.077 8.87-5.941 15.777-12.94 21.121-20.525 3.448-4.9 9.555-8.373 11.806-13.624 2.58-6.018 1.133-13.846 2.439-19.945 6.835-31.872-1.449-62.111-1.449-62.111h119.987s-8.284 30.228-1.449 62.1c1.428 6.666-.356 15.273 2.611 21.82 2.115 4.669 8.55 7.371 11.635 11.748 5.334 7.585 12.241 14.595 21.121 20.536 21.194 14.194 36.446 33.466 44.319 56.077 2.477 7.092-1.028 15.9-.051 23.599.772 5.982 6.332 10.752 6.147 17.042z" fill="#18c98e"/></g><g id="XMLID_1858_"><path id="XMLID_1883_" d="m400.33 300.16v.36c-.9 30.69-13.31 64.74-39.61 99.25-12.28 16.11-20.96 31.1-27.07 44.56h-77.65v-356.73h59.99s-.6 2.18-1.34 6c-2.02 10.37-5.1 32.8-.11 56.1 1.43 6.67-.35 15.27 2.61 21.82 2.12 4.67 8.56 7.37 11.64 11.75 5.33 7.58 12.24 14.59 21.12 20.53 21.19 14.2 36.45 33.47 44.32 56.08 2.48 7.09-1.03 15.9-.05 23.6.76 5.86 6.11 10.57 6.15 16.68z" fill="#13aa78"/></g><g id="XMLID_1119_"><path id="XMLID_601_" d="m400.324 300.518-20.305 17.611-41.351-35.858-41.34 35.858-41.339-35.858-41.339 35.858-41.339-35.858-41.339 35.858-20.294-17.611c-.416-14.385 1.688-28.03 6.094-40.634l14.2 12.327 41.339-35.87 41.339 35.87 41.339-35.87 41.339 35.87 41.34-35.858 41.351 35.858 14.211-12.327c4.405 12.604 6.51 26.249 6.094 40.634z" fill="#2e537f"/></g><g id="XMLID_1855_"><path id="XMLID_1873_" d="m400.33 300.16v.06c0 .1-.01.2-.01.3l-20.3 17.61-41.35-35.86-41.34 35.86-41.33-35.85v-45.93l41.33 35.86 41.34-35.86 41.35 35.86 14.21-12.33c4.37 12.5 6.47 26.02 6.1 40.28z" fill="#15364f"/></g><g id="XMLID_1385_"><path id="XMLID_1441_" d="m328.79 183.269-31.461 27.278-41.339-35.85-41.339 35.85-31.441-27.268c7.4-10.514 11.799-22.149 14.245-33.568l17.195 14.924 41.339-35.871 41.339 35.871 17.216-14.934c2.446 11.418 6.835 23.053 14.246 33.568z" fill="#13aa78"/></g><g id="XMLID_1852_"><g id="XMLID_1853_"><path id="XMLID_1872_" d="m328.79 183.27-31.46 27.28-41.33-35.84v-45.94l41.33 35.86 17.21-14.93c2.45 11.42 6.84 23.05 14.25 33.57z" fill="#098961"/></g></g></g><g id="XMLID_924_"><path id="XMLID_931_" d="m182.977 63.599h146.047v30h-146.047z" fill="#2e537f"/></g><g id="XMLID_1849_"><g id="XMLID_1850_"><path id="XMLID_1871_" d="m256 63.6h73.02v30h-73.02z" fill="#15364f"/></g></g></g></g></svg>