<?xml version="1.0" encoding="iso-8859-1"?>
<!-- Generator: Adobe Illustrator 21.0.0, SVG Export Plug-In . SVG Version: 6.00 Build 0)  -->
<svg xmlns="http://www.w3.org/2000/svg" xmlns:xlink="http://www.w3.org/1999/xlink" version="1.1" id="Capa_1" x="0px" y="0px" viewBox="0 0 512 512" style="enable-background:new 0 0 512 512;" xml:space="preserve" width="512" height="512">
<g>
	<path style="fill:#7657C1;" d="M256,22C120.69,22,11,131.69,11,267c0,107.906,69.76,199.516,166.641,232.199l116.131,9.902   C411.147,490.936,501,389.464,501,267C501,131.69,391.31,22,256,22z"/>
	<path style="fill:#474979;" d="M314.879,135.558c0,0-12.458,48.566,13.068,77.436c25.526,28.87-29.176,52.008-10.745,70.937   c18.431,18.929,5.868,69.932-52.342,61.672c-58.21-8.261-61.461-51.696-50.286-85.512c11.175-33.815-17.484-102.964,33.649-144.342   L314.879,135.558z"/>
	<path style="fill:#383C6B;" d="M327.947,212.994c-25.525-28.87-13.068-77.436-13.068-77.436l-66.657-19.81   c-49.788,40.289-23.932,106.903-32.853,141.596c29.465,17.697,65.097,30.98,74.937,9.656c17.577-38.09,39.366-21.656,39.367-21.656   C335.463,235.433,338.282,224.683,327.947,212.994z"/>
	<path style="fill:#FCD2AE;" d="M380.311,122.491l-17.102-89.552c-0.013-0.066-0.034-0.129-0.048-0.195   c-0.012-0.059-0.03-0.118-0.043-0.177c-0.45-2.116-1.253-4.066-2.333-5.81l-9.65-17.356C346.23,0.579,335.103-2.6,326.277,2.307   c-8.824,4.905-12,16.035-7.094,24.858l2.329,4.189c-4.343-0.85-12.721-1.673-12.537,4.683c0.212,7.337,15.173,8.029,19.149,8.084   l14.877,77.9l-52.518,79.044c-0.064,0.096-0.115,0.197-0.177,0.294c0.181-0.005,0.361-0.014,0.542,0.02l4.415,0.833   c0.713,0.135,1.324,0.542,1.719,1.146c0.397,0.607,0.525,1.333,0.362,2.043c-2.832,12.311-4.708,30.32,2.432,46.207   c0.391,0.87,0.621,1.782,0.711,2.705h1.888c4.511-8.675,12.99-24.637,18.558-33.018l56.648-85.26   C380.169,132.139,381.196,127.129,380.311,122.491z"/>
	<path style="fill:#FCD2AE;" d="M174.078,48.41c4.198-1.342,17.584-6.202,15.742-13.113c-1.406-5.279-7.357-3.675-11.492-1.817   l3.052-7.338c3.877-9.321-0.537-20.021-9.858-23.898c-9.318-3.878-20.021,0.537-23.898,9.858L140,30.435   c-0.879,1.861-1.458,3.894-1.665,6.053c-0.005,0.054-0.016,0.109-0.02,0.163c-0.006,0.068-0.021,0.133-0.026,0.201l-6.874,90.911   c-0.361,4.818,1.301,9.652,4.243,13.149l65.919,78.314c0,0,3.904,5.035,6.223,12.885c0.314-0.413,0.656-0.81,1.033-1.183   c9.639-9.56,15.522-22.154,17.986-38.483l-58.387-69.366L174.078,48.41z"/>
	<path style="fill:#F9BD91;" d="M212.242,175.128c5.052,16.543-11.968,31.34-27.66,23.909l16.994,20.189   c0,0,3.904,5.035,6.223,12.885c0.314-0.413,0.656-0.81,1.033-1.183c9.639-9.56,15.522-22.154,17.986-38.483L212.242,175.128z"/>
	<path style="fill:#F9BD91;" d="M284.642,204.363c-2.374-0.448-5.266-2.986-4.818-5.36l1.993-10.569   c-3.56,1.853-7.423,3.215-11.471,4.023c-3.9,0.778-8.042-0.025-11.361-2.187c-4.314-2.809-8.045-6.309-11.012-10.311l-2.375,12.589   c-0.447,2.374-5.396,3.434-7.77,2.986c-0.083-0.016-0.165-0.019-0.248-0.034l0.06,3.91c0.19,1.429,0.383,2.966,0.586,4.587   c1.612,12.872,3.618,28.891,9.362,33.601c3.923,3.216,9.141,4.204,13.97,2.637c7.068-2.291,14.773-16.482,20.964-27.884   c0.98-1.805,1.897-3.491,2.744-5.005l1.104-2.568c-0.542-0.156-1.094-0.294-1.659-0.401L284.642,204.363z"/>
	<path style="fill:#EAA77A;" d="M266.01,192.681c-6.945-0.621-14.153-7.485-18.035-12.723l-2.375,12.589   c-0.454,2.411-5.391,3.435-8.019,2.952l0.06,3.91c1.407,10.589,3.03,28.742,8.088,36.096   C258.623,224.454,263.891,205.112,266.01,192.681z"/>
	<path style="fill:#F9BD91;" d="M301.235,184.88c-4.431,6.678-10.218,15.357-10.929,16.477c0.733-0.02,0.087-0.022,4.957,0.852   c1.463,0.277,2.421,1.706,2.081,3.189c-7.186,31.235,2.696,44.335,3.143,48.913h1.888c18.475-35.526,21.376-36.33,28.272-47.637   C315.758,215.219,297.323,202.063,301.235,184.88z"/>
	<path style="fill:#F9BD91;" d="M279.993,297.306c0.559-2.039-0.737-4.113-2.813-4.516l-63.234-12.273   c-2.18-0.423-4.208,1.197-4.314,3.415c-1.521,31.935-19.725,54.14-19.725,54.14l32.315,37.604c2.045,2.38,5.258,3.402,8.302,2.642   l52.975-13.224C274.204,326.955,277.775,305.392,279.993,297.306z"/>
	<path style="fill:#F9BD91;" d="M297.756,508.441l-20.124-110.835c-2.003-11.037-12.575-18.353-23.612-16.355   c-11.037,2.005-18.359,12.575-16.355,23.612l19.45,107.124C270.964,511.924,284.54,510.71,297.756,508.441z"/>
	<path style="fill:#FAD964;" d="M301.627,250.773c-6.759-15.038-5.253-32.102-2.305-44.919c0.596-2.589-1.074-5.147-3.685-5.639   l-4.414-0.833c-1.822-0.344-3.66,0.434-4.715,1.959c-5.254,7.595-16.793,34.113-25.577,36.961   c-4.137,1.341-8.692,0.481-12.055-2.276c-7.141-5.853-8.226-34.75-10.352-43.735c-0.427-1.804-1.855-3.198-3.678-3.541   l-4.498-0.848c-2.604-0.491-5.096,1.273-5.482,3.894c-1.805,12.25-6.165,26.484-17.465,37.691   c-1.807,1.792-3.064,4.066-3.529,6.568c-0.291,1.563-0.557,2.994-0.562,3.019c-1.543,8.18-1.234,16.603,0.904,24.649l2.192,8.25   l0.056,1.447c2.884,1.076,25.656,9.037,38.811-2.359c1.991-1.725,5.025-1.153,6.252,1.18c8.105,15.413,32.235,16.285,35.291,16.334   l0.579-1.326l5.05-6.889c4.896-6.68,8.242-14.367,9.794-22.501l0.144-0.756C302.792,254.964,302.519,252.757,301.627,250.773z"/>
	<polygon style="fill:#474979;" points="243.271,122.648 243.272,122.648 243.272,122.648  "/>
	<path style="fill:#474979;" d="M263.408,73.833c11.881-3.408,21.481,1.006,26.605,4.621c8.815-3.517,13.671-2.62,18.285,1.272   c15.089,12.727,13.246,42.342,6.585,58.525l0,0l-0.001,0.005c-1.794-0.473-3.931-0.359-5.422,0.192l0,0   c-0.104-1.663-0.298-3.723-0.938-4.92c-0.577-1.078-0.809-2.296-0.563-3.481c1.301-6.274,3.407-24.781-16.828-25.463   c-6.169,10.4-20.941,27.603-47.859,18.063l0,0l0,0c-1.081-1.164-2.936-2.232-4.75-2.62l0.001-0.005   C231.537,108.238,243.32,79.595,263.408,73.833z"/>
	<path style="fill:#F9BD91;" d="M237.529,145.056c0,0,0.401-13.677,4.4-21.099c-1.968-1.893-6.176-3.442-8.488-1.957   c-4.734,3.039-2.91,9.355-2.206,13.259c0.216,1.199,0.277,2.38,0.185,3.535c-0.2,2.509,0.476,6.367,6.163,7.374   C237.564,145.797,237.544,145.432,237.529,145.056z"/>
	<path style="fill:#EAA77A;" d="M238.674,134.475c-1.258,0.657-2.736,0.913-4.238,0.624c-1.464-0.282-2.713-1.038-3.631-2.074   c0.15,0.796,0.306,1.553,0.429,2.233c0.216,1.199,0.277,2.38,0.185,3.535c-0.2,2.509,0.476,6.367,6.162,7.374   c-0.018-0.37-0.038-0.736-0.053-1.112C237.529,145.056,237.677,140.063,238.674,134.475z"/>
	<path style="fill:#F9BD91;" d="M319.317,138.529c-1.596-2.237-6.078-2.36-8.608-1.333c0.958,8.376-3.746,21.224-3.746,21.224   c-0.153,0.344-0.308,0.675-0.462,1.013c5.654,1.176,7.714-2.156,8.459-4.56c0.343-1.106,0.838-2.181,1.484-3.214   C318.546,148.295,322.585,143.108,319.317,138.529z"/>
	<path style="fill:#EAA77A;" d="M313.621,150.34c-1.542-0.297-2.852-1.116-3.781-2.238c-1.148,5.589-2.878,10.318-2.878,10.318   c-0.153,0.344-0.308,0.675-0.462,1.013c5.654,1.176,7.714-2.156,8.46-4.56c0.343-1.106,0.838-2.181,1.484-3.214   c0.35-0.56,0.755-1.174,1.17-1.824C316.41,150.401,315.027,150.61,313.621,150.34z"/>
	<path style="fill:#FCD2AE;" d="M309.601,132.872c-0.651-1.059-0.953-2.272-0.761-3.471c1.125-7.002,2.495-28.983-25.901-24.234   c-1.116,0.187-2.278-0.037-3.245-0.625c-24.604-14.95-31.492,5.969-33.046,12.889c-0.266,1.184-0.998,2.199-1.995,2.94   c-6.686,4.972-7.247,24.637-7.247,24.637c0.467,11.812,2.531,20.917,5.059,27.796c2.991,8.138,8.658,15.121,16.027,20.026   c3.311,2.204,7.453,3.007,11.361,2.187c8.663-1.819,16.517-6.2,22.316-12.646c4.901-5.449,10.198-13.137,15.016-23.932   C307.185,158.439,313.964,139.971,309.601,132.872z"/>
	<path style="fill:#F9BD91;" d="M259.117,176.009c-1.508-6.682-2.561-15.593-2.302-27.265c0,0,1.415-19.5,6.583-24.764   c0.771-0.785,1.361-1.827,1.616-3.013c1.004-4.654,4.104-15.667,11.274-18.308c-21.834-11.068-28.161,8.185-29.641,14.773   c-0.266,1.184-0.997,2.199-1.995,2.94c-6.686,4.972-7.247,24.637-7.247,24.637c0.467,11.812,2.531,20.917,5.059,27.796   c2.991,8.138,8.658,15.121,16.027,20.026c3.311,2.204,7.453,3.007,11.361,2.187c0.005-0.001,0.01-0.002,0.015-0.004   C264.707,190.532,260.901,183.911,259.117,176.009z"/>
	<path style="fill:#474979;" d="M295.769,78.801c0,0-16.948-25.879-46.055-13.239c-29.107,12.64-26.841,51.541-6.443,57.086   c20.398,5.545,42.52-22.728,58.551-16.322L295.769,78.801z"/>
	<path style="fill:#383C6B;" d="M276.018,67.564c1.636-0.711,3.228-1.28,4.776-1.729c-7.704-3.913-18.198-5.867-31.08-0.273   c-29.107,12.64-26.841,51.541-6.443,57.086c8.285,2.252,16.855-1.075,25.185-5.391C252.245,110.561,251.275,78.309,276.018,67.564z   "/>
	<path style="fill:#EAA77A;" d="M231.679,293.019c-1.755-3.719-2.257-6.888-2.141-9.475l-15.592-3.026   c-2.18-0.423-4.208,1.197-4.314,3.416c-1.521,31.935-19.725,54.14-19.725,54.14l21.7,25.252   C221.427,340.92,231.679,293.019,231.679,293.019z"/>
	<path style="fill:#FAB941;" d="M234.847,188.749l-4.498-0.848c-2.604-0.491-5.096,1.272-5.482,3.894   c-1.805,12.25-6.165,26.485-17.465,37.691c-1.807,1.792-3.064,4.066-3.529,6.568c-0.291,1.563-0.557,2.994-0.562,3.019   c-1.543,8.18-1.234,16.603,0.904,24.649l2.192,8.25l0.056,1.447c2.014,0.751,13.732,4.855,25.099,3.381   c0.602-0.961,1.103-1.454,1.103-1.454c-8.731-37.745,14.575-41.208,14.575-41.208l-0.003-0.016   c-5.682-8.586-6.76-33.587-8.712-41.831C238.098,190.487,236.669,189.093,234.847,188.749z"/>
	<path style="fill:#BC4C2E;" d="M287.391,287.246c0,0-26.953,0.13-35.613-16.335c-1.227-2.333-4.262-2.906-6.255-1.18   c-14.063,12.179-39.117,2.241-39.117,2.241l0.48,12.368c0.092,2.359,1.802,4.343,4.122,4.781l65.854,12.421   c2.319,0.437,4.633-0.785,5.579-2.948l4.945-11.304L287.391,287.246z"/>
	<path style="fill:#AB3829;" d="M211.008,289.12l20.671,3.899c-5.382-11.405,0.985-17.672,0.985-17.673   c-12.747,1.976-26.258-3.374-26.258-3.374l0.48,12.368C206.978,286.699,208.688,288.683,211.008,289.12z"/>
	<path style="fill:#25C191;" d="M233.054,396.174c-5.64,1.562-11.685,0.068-15.948-3.94l-44.057-41.42   c-8.505,8.195-17.532,20.238-19.986,35.853c-2.195,13.968,2.029,26.638,7.426,40.59c8.556,22.117,13.284,45.569,13.386,69.283   c0.002,0.442-0.002,0.892-0.002,1.337C199.548,507.011,227.189,512,256,512c9.356,0,18.583-0.543,27.666-1.564   c7.937-38.544,10.893-82.488,2.867-129.073L233.054,396.174z"/>
	<path style="fill:#15AA7F;" d="M173.874,496.54c0.002,0.442-0.002,0.892-0.002,1.337c14.173,5.042,28.947,8.813,44.184,11.187   c-3.324-17.833,8.475-35.375-8.587-62.611c-30.26-48.304-7.638-67.887-7.638-67.887c0-0.231,0.01-0.452,0.016-0.678l-28.798-27.074   c-8.505,8.195-17.533,20.238-19.986,35.853c-2.195,13.969,2.03,26.639,7.426,40.591   C169.044,449.375,173.772,472.826,173.874,496.54z"/>
	<path style="fill:#15AA7F;" d="M217.227,393.041c4.201,3.949,10.158,5.421,15.715,3.882l53.71-14.875   c-1.115-6.529-2.372-13.105-3.813-19.731l-44.756,12.395c-4.414,1.223-9.146,0.053-12.483-3.084l-35.693-33.556   c0,0-8.383,4.481-17.219,13.095L217.227,393.041z"/>
	<path style="fill:#0E996E;" d="M213.059,359.839L213.059,359.839l-23.152-21.766c0,0-8.383,4.481-17.219,13.095l29.143,27.398   C201.83,363.375,213.059,359.839,213.059,359.839z"/>
</g>















</svg>
