<svg id="Capa_1" enable-background="new 0 0 497 497" height="512" viewBox="0 0 497 497" width="512" xmlns="http://www.w3.org/2000/svg"><g><g fill="#792a47"><path d="m415.255 36.213c-1.919 0-3.839-.732-5.304-2.197l-21.214-21.213c-2.929-2.929-2.929-7.678 0-10.606 2.93-2.929 7.678-2.929 10.607 0l21.214 21.213c2.929 2.929 2.929 7.678 0 10.606-1.465 1.465-3.384 2.197-5.303 2.197z"/><path d="m394.041 57.427c-1.92 0-3.839-.732-5.304-2.197l-21.213-21.213c-2.929-2.929-2.929-7.678 0-10.606 2.93-2.929 7.678-2.929 10.607 0l21.213 21.213c2.929 2.929 2.929 7.678 0 10.606-1.464 1.464-3.384 2.197-5.303 2.197z"/><path d="m372.828 78.64c-1.919 0-3.839-.732-5.304-2.197l-21.214-21.213c-2.929-2.929-2.929-7.678 0-10.606 2.93-2.929 7.678-2.929 10.607 0l21.214 21.213c2.929 2.929 2.929 7.678 0 10.606-1.464 1.464-3.384 2.197-5.303 2.197z"/><path d="m309.188 142.279c-1.92 0-3.839-.732-5.304-2.197l-10.606-10.607c-2.929-2.929-2.929-7.678 0-10.606 2.931-2.929 7.679-2.929 10.607 0l10.606 10.607c2.929 2.929 2.929 7.678 0 10.606-1.464 1.465-3.384 2.197-5.303 2.197z"/><path d="m287.975 163.493c-1.919 0-3.839-.732-5.304-2.197l-10.607-10.607c-2.929-2.929-2.929-7.678 0-10.606 2.93-2.929 7.678-2.929 10.607 0l10.607 10.607c2.929 2.929 2.929 7.678 0 10.606-1.464 1.464-3.384 2.197-5.303 2.197z"/><path d="m266.761 184.705c-1.919 0-3.839-.732-5.304-2.197l-10.606-10.606c-2.929-2.929-2.929-7.678 0-10.606 2.93-2.929 7.678-2.929 10.607 0l10.606 10.606c2.929 2.929 2.929 7.678 0 10.606-1.464 1.465-3.384 2.197-5.303 2.197z"/><path d="m245.548 205.919c-1.92 0-3.839-.732-5.304-2.197l-10.606-10.607c-2.929-2.929-2.929-7.678 0-10.606 2.93-2.929 7.678-2.929 10.607 0l10.606 10.607c2.929 2.929 2.929 7.678 0 10.606-1.464 1.464-3.384 2.197-5.303 2.197z"/><path d="m224.335 227.132c-1.919 0-3.839-.732-5.304-2.197l-10.607-10.607c-2.929-2.929-2.929-7.678 0-10.606 2.93-2.929 7.678-2.929 10.607 0l10.607 10.607c2.929 2.929 2.929 7.678 0 10.606-1.464 1.465-3.384 2.197-5.303 2.197z"/><path d="m222.206 406.999.057-54.44c.017-15.891 6.337-31.127 17.574-42.363l13.214-13.215-21.213-21.213-192.453 181.847c46.863 46.863 116.962 52.743 156.571 13.134 17.529-17.529 26.279-40.644 26.25-63.75z"/></g><path d="m174.743 449.536c11.281-11.281 17.483-26.374 17.463-42.568l.057-54.44c.026-24.005 9.387-46.572 26.36-63.545l13.214-13.214-31.82-31.82-13.217 13.217c-11.237 11.237-26.474 17.558-42.366 17.574l-54.435.055c-23.106-.028-46.221 8.721-63.75 26.25-39.609 39.609-33.729 109.708 13.134 156.571 35.15 35.146 95.751 31.529 135.36-8.08z" fill="#a62b38"/><path d="m494.803 55.23-90.156 90.156-63.64-21.213 137.886-95.459 15.91 15.91c2.929 2.928 2.929 7.677 0 10.606z" fill="#a62b38"/><path d="m478.893 28.713-116.672 116.673-10.607-53.033 90.156-90.156c2.929-2.929 7.678-2.929 10.607 0z" fill="#d22d28"/><path d="m404.647 145.386-21.213 21.213-63.64-21.213 63.64-21.213z" fill="#fde6bb"/><path d="m383.434 124.173-42.426 42.426-10.607-53.033 21.213-21.213z" fill="#fff"/><path d="m383.434 166.599-130.382 130.382-53.033-10.606 140.989-140.989h21.213z" fill="#ff2f19"/><path d="m362.221 145.386-151.596 151.595-10.606-53.033 130.382-130.382z" fill="#fe501f"/><path d="m132.317 385.896-31.82-10.606 10.607 31.819 21.213 21.214 21.213-21.214z" fill="#fab432"/><path d="m85.497 345.29h30v60h-30z" fill="#fccd76" transform="matrix(.707 -.707 .707 .707 -235.935 180.982)"/><path d="m158.833 377.486c-1.92 0-3.839-.732-5.304-2.197l-31.819-31.82c-2.929-2.929-2.929-7.678 0-10.606 2.931-2.93 7.679-2.929 10.607 0l31.819 31.82c2.929 2.929 2.929 7.678 0 10.606-1.464 1.465-3.384 2.197-5.303 2.197z" fill="#fccd76"/><path d="m231.838 275.768-31.82-31.82c-21.421 21.421-29.657 50.542-25.275 78.308 7.458 1.177 15.014 1.435 22.492.78z" fill="#fff"/><path d="m231.838 275.768-13.214 13.214c-9.762 9.762-16.99 21.381-21.388 34.054 20.363-1.783 40.149-10.388 55.816-26.055z" fill="#fde6bb"/></g></svg>