<svg viewBox="0 -2 511.99988 511" xmlns="http://www.w3.org/2000/svg"><path d="m380.191406 448.214844c-22.179687 22.179687-35.367187 44.949218-29.460937 50.859375 5.910156 5.90625 28.679687-7.28125 50.859375-29.460938 22.179687-22.179687 35.367187-44.949219 29.460937-50.859375-5.910156-5.90625-28.679687 7.28125-50.859375 29.460938zm0 0" fill="#c6c5ca"/><path d="m452.246094 376.164062c-22.179688 22.175782-35.371094 44.945313-29.460938 50.855469 5.910156 5.910157 28.679688-7.28125 50.855469-29.460937 22.179687-22.179688 35.371094-44.949219 29.460937-50.855469-5.90625-5.910156-28.675781 7.28125-50.855468 29.460937zm0 0" fill="#c6c5ca"/><path d="m131.800781 448.207031c-22.179687-22.179687-44.949219-35.367187-50.855469-29.460937-5.910156 5.910156 7.28125 28.679687 29.457032 50.859375 22.179687 22.175781 44.949218 35.367187 50.859375 29.457031 5.90625-5.90625-7.28125-28.675781-29.460938-50.855469zm0 0" fill="#c6c5ca"/><path d="m59.75 376.15625c-22.179688-22.179688-44.949219-35.371094-50.859375-29.460938-5.90625 5.90625 7.28125 28.675782 29.460937 50.855469 22.179688 22.179688 44.949219 35.371094 50.859376 29.460938 5.90625-5.910157-7.28125-28.679688-29.460938-50.855469zm0 0" fill="#c6c5ca"/><path d="m380.195312 60.292969c22.179688 22.179687 44.949219 35.367187 50.859376 29.460937 5.90625-5.910156-7.28125-28.679687-29.460938-50.859375-22.179688-22.175781-44.949219-35.367187-50.859375-29.457031-5.90625 5.90625 7.28125 28.675781 29.460937 50.855469zm0 0" fill="#c6c5ca"/><path d="m452.25 132.347656c22.179688 22.175782 44.949219 35.367188 50.855469 29.457032 5.910156-5.90625-7.28125-28.675782-29.460938-50.855469-22.175781-22.179688-44.945312-35.367188-50.855469-29.460938-5.910156 5.910157 7.28125 28.679688 29.460938 50.859375zm0 0" fill="#c6c5ca"/><path d="m313.785156 144.59375h-115.574218v-25.070312c0-11.5 9.320312-20.820313 20.820312-20.820313h73.9375c11.496094 0 20.816406 9.320313 20.816406 20.820313zm0 0" fill="#ff929f"/><path d="m420.519531 71.648438c-113.421875 74.980468-215.617187 74.980468-329.042969 0l-18.082031 18.082031c74.980469 113.421875 74.980469 215.617187 0 329.042969l18.082031 18.082031c113.425782-74.980469 215.621094-74.980469 329.042969 0l18.082031-18.082031c-74.976562-113.425782-74.976562-215.617188 0-329.042969zm0 0" fill="#eaeaea"/><path d="m267.6875 160.210938c45.546875-20.164063 77.464844-49.246094 77.464844-49.246094-84.785156 31.851562-165.851563 18.738281-253.675782-39.316406l-18.082031 18.082031c74.980469 113.421875 74.980469 215.617187 0 329.042969l18.082031 18.082031c36.726563-24.277344 72.28125-40.695313 107.414063-49.25 28-52.769531 30.28125-114.265625 27.085937-157.320313-2.210937-29.808594 14.378907-57.972656 41.710938-70.074218zm0 0" fill="#d8d7da"/><path d="m131.804688 60.292969c22.179687-22.175781 35.367187-44.945313 29.460937-50.855469-5.910156-5.910156-28.679687 7.28125-50.859375 29.460938-22.175781 22.179687-35.367188 44.949218-29.457031 50.855468 5.90625 5.910156 28.675781-7.28125 50.855469-29.460937zm0 0" fill="#c6c5ca"/><path d="m59.753906 132.347656c22.179688-22.179687 35.367188-44.949218 29.460938-50.859375-5.910156-5.90625-28.679688 7.28125-50.859375 29.460938-22.179688 22.179687-35.367188 44.949219-29.460938 50.859375 5.910157 5.90625 28.679688-7.28125 50.859375-29.460938zm0 0" fill="#c6c5ca"/><g fill="#acabb1"><path d="m89.214844 81.488281c-5.855469-5.851562-28.261719 7.042969-50.246094 28.851563 2.363281 4.414062 5.394531 8.5625 9.113281 12.28125 3.675781 3.675781 7.808594 6.738281 12.261719 9.132812 21.820312-21.988281 34.726562-44.40625 28.871094-50.265625zm0 0"/><path d="m80.945312 89.757812c5.855469 5.851563 28.265626-7.042968 50.25-28.851562-2.363281-4.414062-5.398437-8.5625-9.117187-12.28125-3.675781-3.675781-7.808594-6.738281-12.261719-9.136719-21.820312 21.992188-34.726562 44.410157-28.871094 50.269531zm0 0"/><path d="m422.785156 81.492188c5.855469-5.855469 28.261719 7.039062 50.246094 28.847656-2.363281 4.414062-5.398438 8.5625-9.113281 12.28125-3.679688 3.675781-7.808594 6.738281-12.261719 9.132812-21.820312-21.988281-34.726562-44.40625-28.871094-50.261718zm0 0"/><path d="m431.050781 89.757812c-5.855469 5.851563-28.261719-7.042968-50.246093-28.851562 2.363281-4.414062 5.398437-8.5625 9.113281-12.28125 3.675781-3.675781 7.808593-6.738281 12.261719-9.136719 21.824218 21.992188 34.726562 44.414063 28.871093 50.269531zm0 0"/><path d="m80.945312 418.75c5.855469-5.855469 28.261719 7.039062 50.246094 28.847656-2.363281 4.414063-5.394531 8.566406-9.113281 12.28125-3.675781 3.679688-7.808594 6.738282-12.261719 9.132813-21.820312-21.988281-34.722656-44.40625-28.871094-50.261719zm0 0"/><path d="m89.214844 427.015625c-5.855469 5.851563-28.265625-7.042969-50.25-28.851563 2.363281-4.414062 5.398437-8.5625 9.117187-12.28125 3.675781-3.675781 7.808594-6.738281 12.261719-9.132812 21.820312 21.988281 34.726562 44.410156 28.871094 50.265625zm0 0"/><path d="m431.050781 418.75c-5.855469-5.855469-28.261719 7.039062-50.246093 28.847656 2.363281 4.414063 5.398437 8.566406 9.113281 12.28125 3.675781 3.679688 7.808593 6.738282 12.261719 9.132813 21.820312-21.988281 34.726562-44.40625 28.871093-50.261719zm0 0"/><path d="m422.785156 427.015625c5.851563 5.851563 28.261719-7.042969 50.246094-28.851563-2.363281-4.414062-5.398438-8.5625-9.113281-12.28125-3.679688-3.675781-7.808594-6.738281-12.261719-9.132812-21.824219 21.988281-34.730469 44.410156-28.871094 50.265625zm0 0"/></g><path d="m110.402344 85.621094c0 13.988281-11.335938 25.324218-25.320313 25.324218-13.988281 0-25.324219-11.335937-25.324219-25.324218 0-13.984375 11.335938-25.320313 25.324219-25.320313 13.984375 0 25.320313 11.335938 25.320313 25.320313zm0 0" fill="#ff929f"/><path d="m452.238281 85.621094c0 13.988281-11.335937 25.324218-25.320312 25.324218s-25.324219-11.335937-25.324219-25.324218c0-13.984375 11.339844-25.320313 25.324219-25.320313s25.320312 11.335938 25.320312 25.320313zm0 0" fill="#ff929f"/><path d="m110.402344 422.882812c0 13.984376-11.335938 25.320313-25.320313 25.320313-13.988281 0-25.324219-11.335937-25.324219-25.320313 0-13.988281 11.335938-25.324218 25.324219-25.324218 13.984375 0 25.320313 11.335937 25.320313 25.324218zm0 0" fill="#ff929f"/><path d="m452.238281 422.882812c0 13.984376-11.335937 25.320313-25.320312 25.320313s-25.324219-11.335937-25.324219-25.320313c0-13.988281 11.339844-25.324218 25.324219-25.324218s25.320312 11.335937 25.320312 25.324218zm0 0" fill="#ff929f"/><path d="m344.160156 256.550781v-12.449219c0-4.144531-3.355468-7.503906-7.5-7.503906-4.144531 0-7.5 3.359375-7.5 7.503906v12.449219c0 4.144531 3.355469 7.5 7.5 7.5 4.144532 0 7.5-3.355469 7.5-7.5zm0 0"/><path d="m182.835938 256.550781v-12.449219c0-4.144531-3.355469-7.503906-7.5-7.503906-4.140626 0-7.5 3.359375-7.5 7.503906v12.449219c0 4.144531 3.359374 7.5 7.5 7.5 4.144531 0 7.5-3.355469 7.5-7.5zm0 0"/><path d="m256 271.90625c9.707031 0 19.414062-3.140625 27.515625-9.425781 3.273437-2.539063 3.867187-7.25 1.328125-10.523438-2.539062-3.273437-7.25-3.867187-10.523438-1.328125-10.785156 8.367188-25.855468 8.367188-36.644531 0-3.269531-2.542968-7.984375-1.945312-10.519531 1.328125-2.539062 3.273438-1.945312 7.984375 1.328125 10.523438 8.097656 6.285156 17.808594 9.425781 27.515625 9.425781zm0 0"/><path d="m508.40625 341.394531c-5.644531-5.648437-15.195312-4.632812-28.390625 3.007813-10.152344 5.882812-21.898437 15.273437-33.074219 26.449218-6.324218 6.324219-12.183594 12.957032-17.117187 19.355469-.007813 0-.015625 0-.027344 0-26.871094-47.003906-39.941406-91.535156-39.929687-136.015625.011718-44.433594 13.082031-88.921875 39.921874-135.875.015626-.003906.03125-.003906.046876-.003906 4.929687 6.394531 10.890624 12.917969 17.105468 19.339844 38.863282 40.144531 58.914063 32.011718 61.464844 29.460937 5.644531-5.644531 4.632812-15.195312-3.011719-28.390625-5.882812-10.152344-15.273437-21.902344-26.449219-33.074218-6.316406-6.316407-12.945312-12.175782-19.339843-17.105469.085937-.964844 2.042969-15.105469-9.480469-26.128907-11.523438-11.023437-25.160156-9.5625-26.128906-9.480468-4.929688-6.394532-10.785156-13.019532-17.105469-19.339844-7.589844-7.589844-46.230469-44.691406-61.464844-29.460938-5.644531 5.648438-4.628906 15.199219 3.011719 28.394532 5.882812 10.152344 15.277344 21.898437 26.449219 33.070312 5.460937 5.460938 11.152343 10.578125 16.726562 15.050782-46.847656 26.722656-89.859375 39.734374-136.078125 39.734374-16.941406 0-32.582031-1.832031-49.007812-5.40625 1.867187-5.109374 6.757812-8.773437 12.503906-8.773437h73.9375c4.140625 0 7.5-3.355469 7.5-7.5 0-4.140625-3.359375-7.5-7.5-7.5h-73.9375c-12.769531 0-23.585938 8.496094-27.105469 20.128906-23.410156-6.578125-47.144531-16.769531-71.539062-30.6875 5.574219-4.46875 11.261719-9.585937 16.722656-15.046875 11.175781-11.171875 20.566406-22.921875 26.449219-33.074218 7.644531-13.191407 8.65625-22.746094 3.011718-28.390626-15.234374-15.230468-53.875 21.871094-61.464843 29.460938-6.316407 6.316406-12.175781 12.945312-17.105469 19.339844-.964844-.082032-15.183594-1.792969-26.128906 9.480468-10.945313 11.269532-9.5625 25.164063-9.480469 26.128907-6.394531 4.929687-13.023437 10.785156-19.339844 17.101562-11.171875 11.175781-20.566406 22.921875-26.449219 33.074219-7.640624 13.195312-8.65625 22.746094-3.011718 28.394531 2.554687 2.550781 16.996094 14.636719 61.464844-29.460937 6.347656-6.292969 12.175781-12.945313 17.105468-19.339844h.042969c14.933594 26.148438 25.785156 52.035156 32.253906 77.011719.875 3.378906 3.804688 7.082031 9.140625 5.382812 3.949219-1.261719 6.421875-5.132812 5.382813-9.144531-6.394531-24.679688-16.808594-50.121094-30.980469-75.753906 3.796875-1.625 7.285156-3.972656 10.289062-6.976563 3.769532-3.769531 6.503907-8.292969 8.070313-13.230469 47.511719 26.496094 93.570313 39.742188 139.640625 39.742188 46.066406 0 92.140625-13.253906 139.640625-39.742188 1.570313 4.933594 4.300781 9.460938 8.070313 13.230469 3.003906 3.003907 6.488281 5.347657 10.28125 6.972657-52.144532 94.222656-52.140626 182.6875.007812 276.910156-3.738281 1.597656-7.242188 3.910156-10.289062 6.957031-3.835938 3.835937-6.511719 8.394531-8.050782 13.238281-95.003906-52.988281-184.300781-52.988281-279.320312.007813-1.535156-4.847657-4.210938-9.410157-8.050782-13.246094-3.046874-3.050781-6.554687-5.363281-10.296874-6.957031 32.292968-58.34375 44.429687-114.089844 37.050781-170.121094-.539063-4.109375-4.304688-7.007812-8.414063-6.457031-4.105468.539062-7 4.304687-6.457031 8.414062 7.140625 54.234375-5.292969 108.464844-37.976563 165.65625-.007812 0-.015624 0-.023437 0-4.929687-6.398437-10.792969-13.03125-17.113281-19.355469-11.175782-11.175781-22.921875-20.566406-33.074219-26.449218-13.195313-7.644532-22.746094-8.65625-28.390625-3.011719s-4.632812 15.199219 3.011719 28.394531c5.878906 10.152344 15.273437 21.898438 26.449219 33.070313 6.320312 6.320312 12.953124 12.183593 19.351562 17.117187 0 0-2.058594 14.386719 9.46875 26.117188 11.523438 11.730468 27.128906 9.4375 26.117188 9.464844 4.933593 6.402343 10.492187 13.351562 17.113281 19.355468 42.570312 38.601563 58.917969 32.011719 61.464843 29.460938 15.230469-15.230469-21.867187-53.875-29.460937-61.464844-5.457031-5.460938-11.148437-10.578125-16.71875-15.046875 46.730469-26.660156 91.460937-39.738281 135.292969-39.738281 43.832031 0 89.085937 13.015625 135.929687 39.734375-5.574219 4.472656-11.261719 9.589843-16.722656 15.046875-7.589844 7.59375-44.691406 46.234375-29.460937 61.46875 2.550781 2.550781 19.394531 14.269531 61.464843-29.460938 6.195313-6.441406 12.179688-12.953125 17.117188-19.355468.964843.085937 14.476562 2.175781 26.117187-9.464844 0 0 22.726563-23.691406 0-46.417969-1.632812-1.632813-3.398437-3.054687-5.257812-4.269531 3.820312-4.648438 8.109375-9.371094 12.679687-13.945313 17.988281-17.988281 32.765625-26.527343 39.105469-28.324219-1.765625 6.175782-9.949219 20.457032-27.113281 37.902344-2.90625 2.953125-2.867188 7.703125.085937 10.609375 2.953125 2.902344 7.703125 2.863281 10.605469-.089843 10.820313-10.996094 19.871094-22.480469 25.488281-32.339844 7.347656-12.894532 8.25-22.257813 2.683594-27.820313zm-392.695312-297.191406c18-18 32.78125-26.539063 39.117187-28.328125-1.789063 6.335938-10.328125 21.117188-28.328125 39.117188-4.566406 4.570312-9.292969 8.855468-13.9375 12.675781-1.226562-1.871094-7.65625-8.296875-9.527344-9.527344 3.820313-4.644531 8.105469-9.371094 12.675782-13.9375zm-61.261719 82.839844c-18 18-32.78125 26.539062-39.117188 28.328125 1.789063-6.335938 10.328125-21.117188 28.328125-39.117188 4.566406-4.570312 9.292969-8.855468 13.9375-12.675781 1.226563 1.871094 7.65625 8.300781 9.527344 9.527344-3.820312 4.644531-8.105469 9.371093-12.675781 13.9375zm43.234375-28.816407c-3.367188 3.363282-7.84375 5.21875-12.601563 5.21875-4.761719 0-9.238281-1.855468-12.605469-5.21875-3.363281-3.367187-5.21875-7.84375-5.21875-12.601562 0-4.761719 1.855469-9.238281 5.21875-12.601562 3.367188-3.367188 7.84375-5.222657 12.605469-5.222657 4.757813 0 9.234375 1.855469 12.601563 5.222657 3.363281 3.363281 5.21875 7.839843 5.21875 12.601562 0 4.757812-1.855469 9.234375-5.21875 12.601562zm370.65625 18.027344c17.996094 18 26.535156 32.78125 28.328125 39.117188-6.339844-1.789063-21.121094-10.328125-39.121094-28.328125-4.566406-4.570313-8.855469-9.292969-12.675781-13.9375 1.875-1.230469 8.300781-7.65625 9.527344-9.527344 4.648437 3.820313 9.371093 8.109375 13.941406 12.675781zm-111.171875-100.378906c6.339843 1.789062 21.121093 10.328125 39.121093 28.324219 4.566407 4.570312 8.851563 9.296875 12.671876 13.941406-1.871094 1.230469-8.296876 7.65625-9.527344 9.527344-4.644532-3.820313-9.367188-8.105469-13.9375-12.675781-18-18-26.535156-32.78125-28.328125-39.117188zm57.148437 57.144531c3.363282-3.363281 7.839844-5.21875 12.601563-5.21875 4.757812 0 9.234375 1.855469 12.601562 5.222657 3.367188 3.363281 5.21875 7.839843 5.21875 12.601562 0 4.757812-1.851562 9.234375-5.21875 12.601562-3.367187 3.367188-7.839843 5.21875-12.601562 5.21875s-9.238281-1.851562-12.601563-5.21875c-3.367187-3.367187-5.21875-7.84375-5.21875-12.601562 0-4.761719 1.851563-9.238281 5.21875-12.605469zm-370.65625 319.230469c-18-17.996094-26.539062-32.78125-28.328125-39.117188 6.335938 1.789063 21.117188 10.328126 39.117188 28.328126 4.570312 4.570312 8.855469 9.296874 12.675781 13.941406-1.859375 1.21875-8.308594 7.667968-9.523438 9.527344-4.648437-3.824219-9.375-8.109376-13.941406-12.679688zm28.816406 43.234375c-6.949218-6.949219-6.949218-18.257813 0-25.203125 6.949219-6.949219 18.257813-6.949219 25.207032-.003906 6.945312 6.949218 6.945312 18.257812 0 25.207031-6.949219 6.949219-18.257813 6.949219-25.207032 0zm82.351563 57.148437c-6.335937-1.792968-21.121094-10.332031-39.117187-28.328124-4.570313-4.570313-8.855469-9.296876-12.679688-13.945313 1.863281-1.214844 8.3125-7.664063 9.527344-9.523437 4.644531 3.820312 9.371094 8.105468 13.941406 12.675781 18 18 26.539062 32.78125 28.328125 39.121093zm241.457031-28.328124c-18 17.996093-32.78125 26.535156-39.117187 28.328124 1.789062-6.339843 10.328125-21.121093 28.328125-39.121093 4.570312-4.570313 9.296875-8.855469 13.941406-12.675781 1.21875 1.859374 7.667969 8.308593 9.527344 9.523437-3.824219 4.648437-8.109375 9.375-12.679688 13.945313zm43.234375-28.820313c-6.949219 6.949219-18.253906 6.945313-25.203125 0-6.949218-6.949219-6.949218-18.257813 0-25.203125 3.472656-3.476562 8.035156-5.214844 12.601563-5.214844 4.5625 0 9.125 1.738282 12.601562 5.210938 6.949219 6.949218 6.949219 18.257812 0 25.207031zm0 0"/></svg>