<svg id="filled_outline" height="512" viewBox="0 0 512 512" width="512" xmlns="http://www.w3.org/2000/svg" data-name="filled outline"><rect fill="#548aff" height="464" rx="24" width="464" x="24" y="24"/><path d="m136 168v-144h-88a24 24 0 0 0 -24 24v120z" fill="#7dafff"/><path d="m488 360h-320v128h296a24 24 0 0 0 24-24z" fill="#4976f2"/><path d="m168 488v-128h-144v104a24 24 0 0 0 24 24z" fill="#7dafff"/><path d="m344 328-16-16v-24h32v24z" fill="#91c0ff"/><path d="m24 168h112v192h-112z" fill="#639aff"/><path d="m328 96h-48l-40 16v16h56l-8 32 40 16 24-24h40l32-24-8-16-32 8-40-16z" fill="#ffb401"/><path d="m320 80h32a0 0 0 0 1 0 0v16a16 16 0 0 1 -16 16 16 16 0 0 1 -16-16v-16a0 0 0 0 1 0 0z" fill="#ffceb6"/><path d="m320 80v-16l13.26688-6.63344a12.94424 12.94424 0 0 1 5.78885-1.36656 12.94426 12.94426 0 0 1 12.94427 12.94426v11.05574z" fill="#b1712c"/><path d="m288 160-24 56-48 16v16l72-8 32-32z" fill="#7dafff"/><path d="m280 128v-32l-40 16v16z" fill="#ffceb6"/><path d="m392 152-8-32 32-8 8 16z" fill="#ffceb6"/><path d="m288 160-3.64457 10.93371a28.161 28.161 0 0 0 3.2845 24.52619 28.161 28.161 0 0 0 23.43137 12.5401h40.9287l-8 48 16 8 20.1428-46.99986a25.75456 25.75456 0 0 0 .76074-18.28952 25.75456 25.75456 0 0 0 -20.19888-17.25983l-32.70466-5.45079z" fill="#91c0ff"/><path d="m48 496h416a32.036 32.036 0 0 0 32-32v-416a32.036 32.036 0 0 0 -32-32h-416a32.036 32.036 0 0 0 -32 32v416a32.036 32.036 0 0 0 32 32zm-16-32h32v16h-16a16.01833 16.01833 0 0 1 -16-16zm128-48h-80v-16h80zm0 16v16h-80v-16zm0 32v16h-80v-16zm0-80h-80v-16h80zm-32-32h-96v-176h96zm-64 16v16h-32v-16zm0 32v16h-32v-16zm0 32v16h-32v-16zm400 48h-288v-112h304v96a16.01833 16.01833 0 0 1 -16 16zm16-432v304h-336v-320h320a16.01833 16.01833 0 0 1 16 16zm-432-16h80v128h-96v-112a16.01833 16.01833 0 0 1 16-16z"/><path d="m208 384h104v16h-104z"/><path d="m288 416h144v16h-144z"/><path d="m248 448h48v16h-48z"/><path d="m320 448h24v16h-24z"/><path d="m376 384h56v16h-56z"/><circle cx="56" cy="56" r="8"/><circle cx="80" cy="56" r="8"/><circle cx="104" cy="56" r="8"/><path d="m384 312h80v16h-80z"/><path d="m332.68652 328 5.65674 5.65674a7.99945 7.99945 0 0 0 11.31348 0l16-16a7.99877 7.99877 0 0 0 2.34326-5.65674v-24a7.99977 7.99977 0 0 0 -8-8h-32a7.99977 7.99977 0 0 0 -8 8v24h-160v16zm3.31348-32h16v12.68652l-8 8-8-8z"/><path d="m48 192h48v16h-48z"/><path d="m48 224h32v16h-32z"/><path d="m48 256h48v16h-48z"/><path d="m80 288h32v16h-32z"/><path d="m80 320h32v16h-32z"/><path d="m210.66455 253.96094a8.00168 8.00168 0 0 0 6.21875 1.99023l72-8a7.99845 7.99845 0 0 0 4.77344-2.29443l29.65674-29.65674h19.24267l-6.44726 38.68457a7.99969 7.99969 0 0 0 4.31347 8.4707l16 8a8 8 0 0 0 10.93067-4.0039l20.14258-46.99951a33.75475 33.75475 0 0 0 -25.47608-46.59229l-17.37036-2.895 10.66483-10.66457h36.686a7.99948 7.99948 0 0 0 4.7998-1.6001l32-24a7.9996 7.9996 0 0 0 2.35547-9.97754l-8-16a7.99877 7.99877 0 0 0 -9.0957-4.18359l-29.49023 7.37256-25.2182-10.08716a23.96392 23.96392 0 0 0 .64886-5.52417v-27.05566a20.94358 20.94358 0 0 0 -30.31055-18.73291l-13.26709 6.6333a7.99924 7.99924 0 0 0 -4.42236 7.15527v24h-32a8.00164 8.00164 0 0 0 -2.97119.57227l-40 16a7.99975 7.99975 0 0 0 -5.02881 7.42773v16a7.99977 7.99977 0 0 0 8 8h45.75391l-5.36005 21.43921-22.33186 52.10718-44.5918 14.86425a8.00011 8.00011 0 0 0 -5.4702 7.58936v16a8.00089 8.00089 0 0 0 2.66455 5.96094zm162.64945-52.72022a17.73543 17.73543 0 0 1 -.52441 12.60791l-16.80078 39.20166-3.12647-1.56347 7.02881-42.17139a8.00034 8.00034 0 0 0 -7.89115-9.31543h-40.92871a20.1611 20.1611 0 0 1 -19.12647-26.53662l.96155-2.88464 32.12244 12.849a7.986 7.986 0 0 0 1.65729.45722l-.001.00616 32.7041 5.45069a17.7145 17.7145 0 0 1 13.9248 11.89891zm-21.314-57.24072a7.99877 7.99877 0 0 0 -5.65674 2.34326l-20.27 20.26953-28.61865-11.44726 6.30664-25.2251a8.0001 8.0001 0 0 0 -7.76125-9.94043h-8v-16h25.3761a23.97964 23.97964 0 0 0 37.033 11.17987l26.82165 10.72864 4.52291 18.09149zm-8-48a8 8 0 0 1 -16 0v-8h16zm69.85889 29.606-17.01984 12.76489-3.13751-12.55 18.01282-4.50348zm-77.01319-61.084a4.94339 4.94339 0 0 1 7.1543 4.42234v3.05566h-16v-3.05566zm-88.8457 52.8945 24-9.60022v12.18372h-24zm-24 120.34961 42.52979-14.17675a7.99955 7.99955 0 0 0 4.82324-4.438l8.81164-20.56055c.26654.43829.53235.877.81873 1.30664a36.07631 36.07631 0 0 0 20.894 14.91168l-17.54974 17.54975-60.32766 6.70312z"/></svg>