<svg id="_x33_0" enable-background="new 0 0 64 64" height="512" viewBox="0 0 64 64" width="512" xmlns="http://www.w3.org/2000/svg"><g><g><g><path d="m36 20c0-2.8-.94-5.91-1.77-8.11v-.01c-.53-.08-1.04-.24-1.53-.46l-6.99-3.11c-.47-.2-.97-.31-1.49-.31-1.84 0-3.39 1.37-3.62 3.2l-.6 4.8c-.55 0-1.05.22-1.41.59-.37.36-.59.86-.59 1.41 0 .64.25 1.25.71 1.71l1.29 1.29v7.19c0 1.03-.78 1.89-1.8 1.99l-.2.02-2.34.23-3.54-5.9c-1.39-2.31-2.12-4.95-2.12-7.65 0-4.11 1.66-7.83 4.36-10.52 2.69-2.7 6.41-4.36 10.52-4.36h.38c1.83 0 3.6.31 5.27.92l5.78 2.1c1.78.65 3.66.98 5.56.98 2.07 0 4.12-.39 6.04-1.16l.16-.07c1.27-.51 2.64-.77 4.01-.77 1.26 0 2.51.22 3.68.65 1.18.42 2.28 1.05 3.25 1.86l2.99 2.49-3.17 2.64c-1.79 1.5-2.83 3.71-2.83 6.04 0 1.44-.22 2.84-.62 4.16-.41 1.32-1 2.56-1.76 3.69-.52-.91-1.5-1.53-2.62-1.53-.83 0-1.58.34-2.12.88s-.88 1.29-.88 2.12c-.55 0-1.05.22-1.41.59-.37.36-.59.86-.59 1.41 0 .64.25 1.25.71 1.71l.17.17c-.62.23-1.27.43-1.93.58l-5.58 1.24c-1.13-1.12-2.62-1.82-4.22-1.98l-1.15-.12-4-.4-.2-.02c-1.02-.1-1.8-.96-1.8-1.99v-2.19h1c2.05 0 3.81-1.24 4.58-3 .27-.61.42-1.29.42-2z" fill="#fcd770"/></g><g><path d="m48 43v-11l-1.12-1.12-.17-.17c-.46-.46-.71-1.07-.71-1.71 0-.55.22-1.05.59-1.41.36-.37.86-.59 1.41-.59 0-.83.34-1.58.88-2.12s1.29-.88 2.12-.88c1.12 0 2.1.62 2.62 1.53.24.43.38.93.38 1.47v19.45c0 1.53-.62 2.92-1.62 3.93-1.01 1-2.4 1.62-3.93 1.62-1.56 0-3.05-.66-4.1-1.81l-8.62-9.46h-.01c-.13-.62-.31-1.23-.55-1.82l-.45-1.12c-.19-.46-.33-.92-.45-1.4-.18-.76-.27-1.53-.27-2.32v-3.47l1.15.12c1.6.16 3.09.86 4.22 1.98.16.16.31.32.46.5z" fill="#f0d0b4"/></g><g><path d="m16 50h11 7c0 2.66.33 5.3.97 7.88l1.03 4.12h-22l1.03-4.12c.01-.04.02-.07.03-.11.35.15.73.23 1.12.23 1.56 0 2.82-1.26 2.82-2.82v-.05c0-.74-.3-1.45-.84-1.97l-.16-.16v-1c0-1.1-.9-2-2-2z" fill="#f0d0b4"/></g><g><path d="m18 53 .16.16c.54.52.84 1.23.84 1.97v.05c0 1.56-1.26 2.82-2.82 2.82-.39 0-.77-.08-1.12-.23-.33-.14-.63-.34-.89-.6l-10.98-10.98c-.76-.76-1.19-1.79-1.19-2.87 0-.86.27-1.69.78-2.39l5.64-7.76c1-1.38 2.55-2.27 4.25-2.44l1.33-.13v3.24c0 2.09-.34 4.17-1 6.16l-4 4 6 6h.98.02c1.1 0 2 .9 2 2z" fill="#f0d0b4"/></g><g><path d="m33.58 23c-.77 1.76-2.53 3-4.58 3h-1v2.19c0 1.03.78 1.89 1.8 1.99l.2.02v1.8c0 1.66-.67 3.16-1.76 4.24-.69.7-1.55 1.22-2.51 1.51-.55.16-1.13.25-1.73.25-1.21 0-2.33-.35-3.27-.97-1.64-1.07-2.73-2.92-2.73-5.03v-1.8l.2-.02c1.02-.1 1.8-.96 1.8-1.99v-7.19l-1.29-1.29c-.46-.46-.71-1.07-.71-1.71 0-.55.22-1.05.59-1.41.36-.37.86-.59 1.41-.59l.6-4.8c.23-1.83 1.78-3.2 3.62-3.2.52 0 1.02.11 1.49.31l6.99 3.11c.49.22 1 .38 1.53.46v.01c.83 2.2 1.77 5.31 1.77 8.11l-2 1c0 .71-.15 1.39-.42 2z" fill="#f0d0b4"/></g><g><path d="m18 30.2v1.8c0 2.11 1.09 3.96 2.73 5.03-.45.53-.73 1.22-.73 1.97 0 1.66 1.34 3 3 3s3-1.34 3-3c0-.45-.1-.87-.27-1.25.96-.29 1.82-.81 2.51-1.51 1.09-1.08 1.76-2.58 1.76-4.24v-1.8l4 .4v3.47c0 .79.09 1.56.27 2.32-1.34.65-2.27 2.02-2.27 3.61 0 2.2 1.77 3.98 3.97 4-.09 1.55-.5 3.06-1.2 4.46l-.04.08c-.59-1.48-2.03-2.54-3.73-2.54-2.21 0-4 1.79-4 4h-11-.02c0-.04 0-.08-.01-.12h.01c1.73-.44 3.02-2.01 3.02-3.88 0-2.21-1.79-4-4-4-.31 0-.61.03-.9.1-.32-.72-.69-1.42-1.1-2.1.66-1.99 1-4.07 1-6.16v-3.24l1.66-.17z" fill="#75b1f2"/></g><g><path d="m35.17 38.91c.24.59.42 1.2.55 1.82.19.82.28 1.67.28 2.52 0 .25-.01.5-.03.75-2.2-.02-3.97-1.8-3.97-4 0-1.59.93-2.96 2.27-3.61.12.48.26.94.45 1.4z" fill="#e6e9ed"/></g><g><path d="m31 46c1.7 0 3.14 1.06 3.73 2.54v.01l-.73 1.45h-7c0-2.21 1.79-4 4-4z" fill="#e6e9ed"/></g><g><path d="m25.73 37.75c.17.38.27.8.27 1.25 0 1.66-1.34 3-3 3s-3-1.34-3-3c0-.75.28-1.44.73-1.97.94.62 2.06.97 3.27.97.6 0 1.18-.09 1.73-.25z" fill="#e6e9ed"/></g><g><path d="m19 46c0 1.87-1.29 3.44-3.02 3.88h-.01c-.12-2.7-.75-5.34-1.87-7.78.29-.07.59-.1.9-.1 2.21 0 4 1.79 4 4z" fill="#e6e9ed"/></g></g><g><path d="m30 18c1.654 0 3-1.346 3-3h-2c0 .552-.449 1-1 1s-1-.448-1-1h-2c0 1.654 1.346 3 3 3z"/><path d="m59.649 5.739c-3.28-2.733-7.981-3.482-11.959-1.893l-.153.062c-3.465 1.387-7.375 1.449-10.89.173l-5.771-2.099c-1.79-.652-3.679-.982-5.613-.982h-.384c-8.756 0-15.879 7.123-15.879 15.879 0 2.877.782 5.702 2.263 8.17l2.728 4.547-1.416.142c-1.982.198-3.792 1.236-4.964 2.849l-5.643 7.759c-.634.868-.968 1.897-.968 2.973 0 1.352.526 2.622 1.481 3.576l10.983 10.983c.137.137.291.251.444.365l-1.189 4.757h24.562l-1.34-5.361c-.605-2.42-.921-4.909-.939-7.404l.662-1.324c.823-1.646 1.265-3.478 1.317-5.318l6.631 7.271c1.237 1.357 3.001 2.136 4.838 2.136 3.612 0 6.55-2.938 6.55-6.55v-19.45c0-.489-.101-.952-.262-1.386 1.476-2.386 2.262-5.113 2.262-7.933 0-2.042.899-3.962 2.467-5.269l4.095-3.412zm-40.234 13.261c-.268-.268-.415-.622-.415-1 0-.552.449-1 1-1h.883l.709-5.676c.166-1.325 1.298-2.324 2.633-2.324.373 0 .736.077 1.078.229l6.993 3.108c.381.169.778.294 1.18.397.674 1.869 1.396 4.349 1.509 6.655l-1.985.993v.618c0 .347-.058.678-.142 1h-1.622c-.998 0-1.895-.555-2.341-1.447l-1.789.895c.788 1.574 2.37 2.553 4.13 2.553h.382c-.703.615-1.612 1-2.618 1h-4v2h2v1.19c0 1.3.825 2.405 2 2.819v.99c0 2.757-2.243 5-5 5s-5-2.243-5-5v-.991c1.175-.414 2-1.518 2-2.818v-7.604zm5.585 20c0 1.103-.897 2-2 2s-2-.897-2-2c0-.217.04-.43.108-.633.883.403 1.86.633 2.892.633.337 0 .667-.032.992-.079.001.027.008.052.008.079zm-5.59-1.728c-.258.537-.41 1.123-.41 1.728 0 2.206 1.794 4 4 4s4-1.794 4-4c0-.222-.034-.437-.07-.651 2.399-1.112 4.07-3.537 4.07-6.349v-.695l2 .2v2.569c0 .613.06 1.218.16 1.816-1.331.925-2.16 2.464-2.16 4.11 0 2.358 1.654 4.339 3.861 4.858-.082.532-.205 1.056-.365 1.57-.914-.896-2.15-1.428-3.496-1.428-2.414 0-4.434 1.721-4.899 4h-7.106c.633-.843 1.005-1.884 1.005-3 0-2.757-2.243-5-5-5-.105 0-.209.011-.314.018-.192-.386-.396-.766-.61-1.141.605-1.96.924-3.987.924-6.039v-2.333l2-.2v.695c0 2.103.937 3.988 2.41 5.272zm14.377.887.451 1.126c.451 1.129.693 2.314.742 3.523-1.151-.421-1.98-1.518-1.98-2.808 0-.733.275-1.43.743-1.968.016.042.027.085.044.127zm-5.603 10.841c.414-1.161 1.514-2 2.816-2 1.104 0 2.09.591 2.615 1.533l-.233.467zm-11.331-.65c-.206-1.81-.635-3.589-1.275-5.292 1.378.271 2.422 1.486 2.422 2.942 0 .944-.443 1.795-1.147 2.35zm-4.083-6.706c1.091 2.119 1.792 4.425 2.078 6.789l-4.434-4.433zm-8.874 3.837c-.578-.577-.896-1.344-.896-2.162 0-.65.202-1.272.584-1.799l5.643-7.759c.838-1.151 2.13-1.893 3.546-2.034l.227-.022v2.133c0 1.912-.295 3.803-.876 5.624l-3.124 3.124-1.293-1.293-1.414 1.414 8.293 8.293h1.414c.551 0 1 .448 1 1v1.424l.469.454c.338.326.531.783.531 1.303 0 1.003-.816 1.819-1.82 1.819-.494 0-.957-.19-1.302-.535zm11.385 15.519.509-2.038c.13.013.258.038.391.038 2.106 0 3.819-1.713 3.819-3.87 0-.941-.362-1.857-1-2.546v-.584c0-.352-.072-.686-.184-1h14.215c.072 2.402.387 4.793.969 7.123l.719 2.877zm37.719-14.55c0 2.509-2.041 4.55-4.55 4.55-1.276 0-2.502-.541-3.362-1.484l-8.465-9.283c-.14-.572-.307-1.138-.528-1.69l-.45-1.126c-.428-1.068-.645-2.192-.645-3.343v-2.369l.052.005c1.574.157 3 .914 4.013 2.13l7.935 9.522v3.638h2v-15.414l-1.585-1.586c-.268-.268-.415-.622-.415-1 0-.552.449-1 1-1h1v-1c0-1.103.897-2 2-2s2 .897 2 2zm-6.389-14.425.389.389v7.824l-5.775-6.93 3.943-.876c.49-.11.971-.251 1.443-.407zm11.576-21.15c-2.025 1.688-3.187 4.169-3.187 6.806 0 2.172-.539 4.282-1.554 6.177-.679-.529-1.521-.858-2.446-.858-1.911 0-3.513 1.347-3.907 3.14-1.212.385-2.093 1.522-2.093 2.86 0 .468.097.92.275 1.338-.18.048-.36.1-.542.141l-5.079 1.128c-1.233-1.059-2.754-1.723-4.403-1.888l-5.351-.534c-.513-.051-.9-.479-.9-.994v-1.191c3.094 0 5.649-2.354 5.967-5.365l1.335-.667 2.175-.311c3.228-.461 6.102-2.438 7.686-5.29 1.496-2.694 4.339-4.367 7.42-4.367h.417v-2h-.417c-3.807 0-7.321 2.067-9.169 5.396-1.283 2.308-3.608 3.908-6.221 4.28l-1.241.177c-.158-2.04-.703-4.129-1.278-5.871 1.099-.036 2.193-.298 3.186-.794l.587-.294-.896-1.789-.586.294c-1.506.751-3.325.792-4.858.109l-6.993-3.108c-.6-.266-1.235-.4-1.889-.4-2.341 0-4.326 1.752-4.617 4.076l-.508 4.062c-1.216.383-2.1 1.521-2.1 2.862 0 .911.355 1.769 1 2.414l1 1v6.776c0 .516-.387.943-.9.994l-1.908.191-3.214-5.356c-1.294-2.156-1.978-4.625-1.978-7.14 0-7.653 6.226-13.879 13.879-13.879h.384c1.7 0 3.358.29 4.929.861l5.772 2.099c3.976 1.445 8.393 1.376 12.32-.196l.152-.062c3.294-1.317 7.207-.697 9.932 1.574l2.07 1.724z"/><circle cx="25" cy="56" r="1"/></g></g></svg>