<svg id="Layer_1" height="512" viewBox="0 0 128 128" width="512" xmlns="http://www.w3.org/2000/svg" data-name="Layer 1"><path d="m31.932 10.125h71.333v99.044h-71.333z" fill="#5f69e2"/><path d="m67.599 10.125h35.667v99.044h-35.667z" fill="#3440da"/><path d="m24.734 17.081h71.333v99.044h-71.333z" fill="#f6ebd8"/><path d="m60.422 17.081h35.646v99.044h-35.646z" fill="#ecd5af"/><path d="m31.932 24.319h56.937v15.512h-56.937z" fill="#5f69e2"/><path d="m31.932 50.331h23.575v23.575h-23.575z" fill="#ff415a"/><path d="m65.294 50.331h23.575v23.575h-23.575z" fill="#ff9e21"/><path d="m31.932 84.405h23.575v23.575h-23.575z" fill="#00b5bc"/><path d="m65.294 84.405h23.575v23.575h-23.575z" fill="#3440da"/><path d="m49.776 60.368h-4.306v-4.306a1.75 1.75 0 0 0 -3.5 0v4.307h-4.306a1.75 1.75 0 0 0 0 3.5h4.306v4.306a1.75 1.75 0 0 0 3.5 0v-4.307h4.306a1.75 1.75 0 0 0 0-3.5z" fill="#f6ebd8"/><path d="m43.72 91.885a1.831 1.831 0 0 0 .34-.03 1.558 1.558 0 0 0 .33-.1 1.744 1.744 0 0 0 .95-.95 1.7 1.7 0 0 0 .13-.67 1.949 1.949 0 0 0 -.03-.34c-.03-.11-.06-.22-.1-.33a2.275 2.275 0 0 0 -.17-.3 1.382 1.382 0 0 0 -.21-.271 1.822 1.822 0 0 0 -2.48 0 1.364 1.364 0 0 0 -.21.271 2.28 2.28 0 0 0 -.17.3c-.04.11-.07.22-.1.33a1.95 1.95 0 0 0 -.03.34 1.7 1.7 0 0 0 .13.67 1.966 1.966 0 0 0 .38.57 1.738 1.738 0 0 0 1.24.51z" fill="#f6ebd8"/><path d="m45.34 101.575a2.285 2.285 0 0 0 -.17-.3 1.717 1.717 0 0 0 -.21-.26 1.753 1.753 0 0 0 -1.58-.479 1.372 1.372 0 0 0 -.33.1 1.072 1.072 0 0 0 -.3.16 1.421 1.421 0 0 0 -.27.22 2.737 2.737 0 0 0 -.22.26c-.06.1-.11.2-.16.3s-.07.22-.1.33a2.028 2.028 0 0 0 -.03.34 1.75 1.75 0 1 0 3.5 0 2.026 2.026 0 0 0 -.03-.34c-.03-.111-.06-.221-.1-.331z" fill="#f6ebd8"/><path d="m49.776 94.442h-12.112a1.75 1.75 0 1 0 0 3.5h12.112a1.75 1.75 0 1 0 0-3.5z" fill="#f6ebd8"/><path d="m83.138 94.442h-12.113a1.75 1.75 0 0 0 0 3.5h12.113a1.75 1.75 0 1 0 0-3.5z" fill="#ecd5af"/><path d="m71.563 67.638a1.749 1.749 0 0 0 2.475 0l3.045-3.045 3.045 3.045a1.75 1.75 0 0 0 2.472-2.475l-3.045-3.045 3.045-3.045a1.75 1.75 0 1 0 -2.473-2.473l-3.045 3.045-3.045-3.045a1.75 1.75 0 1 0 -2.475 2.475l3.045 3.045-3.045 3.045a1.749 1.749 0 0 0 .001 2.473z" fill="#ecd5af"/><path d="m60.422 24.319h28.447v15.512h-28.447z" fill="#3440da"/><g fill="#500000"><path d="m103.266 8.375h-71.333a1.75 1.75 0 1 0 0 3.5h69.583v97.294a1.75 1.75 0 0 0 3.5 0v-99.044a1.75 1.75 0 0 0 -1.75-1.75z"/><path d="m96.067 15.331h-38.9a1.75 1.75 0 0 0 0 3.5h37.15v95.544h-67.833v-95.544h13.683a1.75 1.75 0 0 0 0-3.5h-15.433a1.75 1.75 0 0 0 -1.75 1.75v99.044a1.75 1.75 0 0 0 1.75 1.75h71.333a1.75 1.75 0 0 0 1.75-1.75v-99.044a1.75 1.75 0 0 0 -1.75-1.75z"/><path d="m49.167 18.831a1.75 1.75 0 0 0 0-3.5h-1.5a1.75 1.75 0 0 0 0 3.5z"/><path d="m30.183 24.319v15.512a1.75 1.75 0 0 0 1.75 1.75h48.234a1.75 1.75 0 0 0 0-3.5h-46.484v-12.012h53.436v13.762a1.75 1.75 0 0 0 3.5 0v-15.512a1.75 1.75 0 0 0 -1.75-1.75h-56.936a1.75 1.75 0 0 0 -1.75 1.75z"/><path d="m57.257 50.331a1.75 1.75 0 0 0 -1.75-1.75h-23.574a1.75 1.75 0 0 0 -1.75 1.75v23.574a1.75 1.75 0 0 0 1.75 1.75h23.574a1.75 1.75 0 0 0 1.75-1.75zm-3.5 21.824h-20.074v-20.074h20.074z"/><path d="m90.619 50.331a1.75 1.75 0 0 0 -1.75-1.75h-23.574a1.75 1.75 0 0 0 -1.75 1.75v23.574a1.75 1.75 0 0 0 1.75 1.75h23.574a1.75 1.75 0 0 0 1.75-1.75zm-3.5 21.824h-20.074v-20.074h20.074z"/><path d="m55.507 102.708a1.75 1.75 0 0 0 1.75-1.75v-16.553a1.75 1.75 0 0 0 -1.75-1.75h-23.574a1.75 1.75 0 0 0 -1.75 1.75v23.575a1.75 1.75 0 0 0 1.75 1.75h23.574a1.75 1.75 0 0 0 0-3.5h-21.824v-20.075h20.074v14.8a1.75 1.75 0 0 0 1.75 1.753z"/><path d="m88.869 82.655h-23.574a1.75 1.75 0 0 0 -1.75 1.75v23.575a1.75 1.75 0 0 0 1.75 1.75h23.574a1.75 1.75 0 0 0 1.75-1.75v-23.575a1.75 1.75 0 0 0 -1.75-1.75zm-1.75 23.575h-20.074v-20.075h20.074z"/><path d="m37.664 63.868h4.306v4.306a1.75 1.75 0 0 0 3.5 0v-4.306h4.306a1.75 1.75 0 0 0 0-3.5h-4.306v-4.306a1.75 1.75 0 0 0 -3.5 0v4.307h-4.306a1.75 1.75 0 0 0 0 3.5z"/><path d="m43.72 91.885a1.831 1.831 0 0 0 .34-.03 1.558 1.558 0 0 0 .33-.1 1.744 1.744 0 0 0 .95-.95 1.7 1.7 0 0 0 .13-.67 1.949 1.949 0 0 0 -.03-.34c-.03-.11-.06-.22-.1-.33a2.275 2.275 0 0 0 -.17-.3 1.382 1.382 0 0 0 -.21-.271 1.822 1.822 0 0 0 -2.48 0 1.364 1.364 0 0 0 -.21.271 2.28 2.28 0 0 0 -.17.3c-.04.11-.07.22-.1.33a1.95 1.95 0 0 0 -.03.34 1.7 1.7 0 0 0 .13.67 1.966 1.966 0 0 0 .38.57 1.738 1.738 0 0 0 1.24.51z"/><path d="m45.17 101.274a1.717 1.717 0 0 0 -.21-.26 1.753 1.753 0 0 0 -1.58-.479 1.372 1.372 0 0 0 -.33.1 1.072 1.072 0 0 0 -.3.16 1.421 1.421 0 0 0 -.27.22 2.737 2.737 0 0 0 -.22.26c-.06.1-.11.2-.16.3s-.07.22-.1.33a2.028 2.028 0 0 0 -.03.34 1.75 1.75 0 1 0 3.5 0 2.026 2.026 0 0 0 -.03-.34c-.03-.11-.06-.221-.1-.33a2.285 2.285 0 0 0 -.17-.301z"/><path d="m51.526 96.192a1.75 1.75 0 0 0 -1.75-1.75h-12.112a1.75 1.75 0 1 0 0 3.5h12.112a1.75 1.75 0 0 0 1.75-1.75z"/><path d="m71.025 97.942h12.113a1.75 1.75 0 1 0 0-3.5h-12.113a1.75 1.75 0 0 0 0 3.5z"/><path d="m71.563 67.638a1.749 1.749 0 0 0 2.475 0l3.045-3.045 3.045 3.045a1.75 1.75 0 0 0 2.472-2.475l-3.045-3.045 3.045-3.045a1.75 1.75 0 1 0 -2.473-2.473l-3.045 3.045-3.045-3.045a1.75 1.75 0 1 0 -2.475 2.475l3.045 3.045-3.045 3.045a1.749 1.749 0 0 0 .001 2.473z"/></g></svg>