<?xml version="1.0" encoding="UTF-8"?><svg xmlns="http://www.w3.org/2000/svg" viewBox="0 0 71.04 51.82"><defs><style>.cls-1{fill:#6cffc0;}.cls-2{fill:none;stroke:#4b4668;stroke-linecap:round;stroke-linejoin:round;stroke-width:3px;}.cls-3{fill:#4b4668;}</style></defs><title>Asset 4</title><g id="Layer_2" data-name="Layer 2"><g id="Musical_Instruments" data-name="Musical Instruments"><path class="cls-1" d="M37.2 0c3.27 3.27 7.36 0 7.36 0L42.2 45s-2-2.48-5 0V0c-3.25 3.25-7.36 0-7.36 0l2.36 45s3-2.48 5 0" fill="#6cffc0"/><path class="cls-2" fill="none" stroke="#4b4668" stroke-linecap="round" stroke-linejoin="round" stroke-width="3px" d="M1.508 5.276l19.951-1.395 3.14 44.89-19.952 1.396z"/><path class="cls-2" fill="none" stroke="#4b4668" stroke-linecap="round" stroke-linejoin="round" stroke-width="3px" d="M21.52 12.89l-9.97.7"/><path class="cls-2" fill="none" stroke="#4b4668" stroke-linecap="round" stroke-linejoin="round" stroke-width="3px" d="M21.92 18.51l-9.98.69"/><path class="cls-2" fill="none" stroke="#4b4668" stroke-linecap="round" stroke-linejoin="round" stroke-width="3px" d="M22.62 28.61l-9.97.69"/><path class="cls-2" fill="none" stroke="#4b4668" stroke-linecap="round" stroke-linejoin="round" stroke-width="3px" d="M23.02 34.22l-9.98.7"/><path class="cls-2" fill="none" stroke="#4b4668" stroke-linecap="round" stroke-linejoin="round" stroke-width="3px" d="M23.41 39.83l-9.98.7"/><path class="cls-2" fill="none" stroke="#4b4668" stroke-linecap="round" stroke-linejoin="round" stroke-width="3px" d="M49.624 3.743l19.924 1.743-3.922 44.829-19.924-1.743z"/><circle class="cls-3" cx="56" cy="16.84" r="1.5" transform="translate(34.35 71.16) rotate(-85)" fill="#4b4668"/><circle class="cls-3" cx="55.57" cy="21.82" r="1.5" transform="translate(28.99 75.27) rotate(-85)" fill="#4b4668"/><circle class="cls-3" cx="55.13" cy="26.8" r="1.5" transform="translate(23.63 79.39) rotate(-85)" fill="#4b4668"/><circle class="cls-3" cx="54.7" cy="31.78" r="1.5" transform="translate(18.27 83.5) rotate(-85)" fill="#4b4668"/><circle class="cls-3" cx="54.26" cy="36.76" r="1.5" transform="translate(12.91 87.61) rotate(-85)" fill="#4b4668"/><circle class="cls-3" cx="53.83" cy="41.74" r="1.5" transform="translate(7.55 91.73) rotate(-85)" fill="#4b4668"/><circle class="cls-3" cx="61.42" cy="12.29" r="1.5" transform="translate(43.82 72.41) rotate(-85)" fill="#4b4668"/><circle class="cls-3" cx="60.99" cy="17.27" r="1.5" transform="translate(38.46 76.52) rotate(-85)" fill="#4b4668"/><circle class="cls-3" cx="60.55" cy="22.25" r="1.5" transform="translate(33.1 80.63) rotate(-85)" fill="#4b4668"/><circle class="cls-3" cx="60.11" cy="27.24" r="1.5" transform="translate(27.74 84.75) rotate(-85)" fill="#4b4668"/><circle class="cls-3" cx="59.68" cy="32.22" r="1.5" transform="translate(22.38 88.86) rotate(-85)" fill="#4b4668"/><circle class="cls-3" cx="59.24" cy="37.2" r="1.5" transform="translate(17.02 92.97) rotate(-85)" fill="#4b4668"/><path class="cls-2" d="M35.2 3.54c3.27 3.27 7.36 0 7.36 0L40.2 48.48s-2-2.48-5 0V3.5c-3.25 3.25-7.36 0-7.36 0l2.36 44.98s3-2.48 5 0" fill="none" stroke="#4b4668" stroke-linecap="round" stroke-linejoin="round" stroke-width="3px"/></g></g><metadata><rdf:RDF xmlns:rdf="http://www.w3.org/1999/02/22-rdf-syntax-ns#" xmlns:rdfs="http://www.w3.org/2000/01/rdf-schema#" xmlns:dc="http://purl.org/dc/elements/1.1/"><rdf:Description about="https://iconscout.com/legal#licenses" dc:title="asset" dc:description="asset" dc:publisher="Iconscout" dc:date="2017-09-26" dc:format="image/svg+xml" dc:language="en"><dc:creator><rdf:Bag><rdf:li>Arzu Sendag</rdf:li></rdf:Bag></dc:creator></rdf:Description></rdf:RDF></metadata></svg>