<svg id="Capa_1" enable-background="new 0 0 510 510" height="512" viewBox="0 0 510 510" width="512" xmlns="http://www.w3.org/2000/svg" xmlns:xlink="http://www.w3.org/1999/xlink"><linearGradient id="lg1"><stop offset="0" stop-color="#f9f7fc"/><stop offset="1" stop-color="#f0ddfc"/></linearGradient><linearGradient id="SVGID_1_" gradientUnits="userSpaceOnUse" x1="223.88" x2="389.931" xlink:href="#lg1" y1="102.033" y2="522.129"/><linearGradient id="SVGID_2_" gradientUnits="userSpaceOnUse" x1="465" x2="-135.9" xlink:href="#lg1" y1="390.764" y2="-210.136"/><linearGradient id="lg2"><stop offset="0" stop-color="#ff7044"/><stop offset="1" stop-color="#f92814"/></linearGradient><linearGradient id="SVGID_3_" gradientUnits="userSpaceOnUse" x1="227.546" x2="374.035" xlink:href="#lg2" y1="111.308" y2="481.912"/><linearGradient id="lg3"><stop offset="0" stop-color="#f92814" stop-opacity="0"/><stop offset="1" stop-color="#c1272d"/></linearGradient><linearGradient id="SVGID_4_" gradientUnits="userSpaceOnUse" x1="53" x2="12.988" xlink:href="#lg3" y1="180.764" y2="180.764"/><linearGradient id="SVGID_5_" gradientUnits="userSpaceOnUse" x1="255" x2="255" xlink:href="#lg3" y1="55.764" y2="13.468"/><linearGradient id="SVGID_6_" gradientUnits="userSpaceOnUse" x1="286.335" x2="397.593" xlink:href="#lg3" y1="202.76" y2="-238.435"/><linearGradient id="SVGID_7_" gradientUnits="userSpaceOnUse" x1="469.221" x2="350.554" xlink:href="#lg3" y1="347.709" y2="246.376"/><linearGradient id="SVGID_8_" gradientUnits="userSpaceOnUse" x1="231.581" x2="356.539" xlink:href="#lg1" y1="121.517" y2="437.649"/><linearGradient id="SVGID_9_" gradientUnits="userSpaceOnUse" x1="492.363" x2="284.363" y1="347.951" y2="162.617"><stop offset="0" stop-color="#f0ddfc" stop-opacity="0"/><stop offset=".2889" stop-color="#c8b7e0" stop-opacity=".289"/><stop offset=".5915" stop-color="#a595c8" stop-opacity=".592"/><stop offset=".8395" stop-color="#8f81b8" stop-opacity=".84"/><stop offset="1" stop-color="#8779b3"/></linearGradient><linearGradient id="SVGID_10_" gradientUnits="userSpaceOnUse" x1="107.189" x2="402.811" xlink:href="#lg2" y1="245.381" y2="245.381"/><linearGradient id="SVGID_11_" gradientUnits="userSpaceOnUse" x1="271.504" x2="121.572" y1="261.885" y2="111.953"><stop offset="0" stop-color="#ff7044" stop-opacity="0"/><stop offset="1" stop-color="#ffa425"/></linearGradient><linearGradient id="SVGID_12_" gradientUnits="userSpaceOnUse" x1="260.133" x2="463.306" xlink:href="#lg3" y1="302.029" y2="-75.844"/><linearGradient id="SVGID_13_" gradientUnits="userSpaceOnUse" x1="264.775" x2="237.898" y1="203.348" y2="89.498"><stop offset="0" stop-color="#f45227" stop-opacity="0"/><stop offset="1" stop-color="#ffda45"/></linearGradient><linearGradient id="lg4"><stop offset="0" stop-color="#bec3d2" stop-opacity="0"/><stop offset=".5577" stop-color="#d4d9e4" stop-opacity=".558"/><stop offset="1" stop-color="#e9edf5"/></linearGradient><linearGradient id="SVGID_14_" gradientUnits="userSpaceOnUse" x1="186.657" x2="77.033" xlink:href="#lg4" y1="172.758" y2="59.565"/><linearGradient id="SVGID_15_" gradientUnits="userSpaceOnUse" x1="256.182" x2="243.435" xlink:href="#lg4" y1="172.318" y2="49.437"/><linearGradient id="SVGID_16_" gradientUnits="userSpaceOnUse" x1="357.574" x2="370.193" y1="191.592" y2="129.641"><stop offset="0" stop-color="#555a66" stop-opacity="0"/><stop offset="1" stop-color="#333"/></linearGradient><linearGradient id="lg5"><stop offset="0" stop-color="#4a98f7"/><stop offset="1" stop-color="#0469bc"/></linearGradient><linearGradient id="SVGID_17_" gradientUnits="userSpaceOnUse" x1="141.205" x2="272.492" xlink:href="#lg5" y1="414.36" y2="414.36"/><linearGradient id="SVGID_18_" gradientUnits="userSpaceOnUse" x1="71.909" x2="203.214" xlink:href="#lg5" y1="414.36" y2="414.36"/><linearGradient id="SVGID_19_" gradientUnits="userSpaceOnUse" x1="210.501" x2="341.788" xlink:href="#lg5" y1="414.36" y2="414.36"/><linearGradient id="SVGID_20_" gradientTransform="matrix(-1 0 0 1 421.77 0)" gradientUnits="userSpaceOnUse" x1="52.975" x2="184.262" xlink:href="#lg5" y1="414.36" y2="414.36"/><linearGradient id="SVGID_21_" gradientTransform="matrix(-1 0 0 1 421.77 0)" gradientUnits="userSpaceOnUse" x1="-16.321" x2="114.984" xlink:href="#lg5" y1="414.36" y2="414.36"/><linearGradient id="SVGID_22_" gradientTransform="matrix(-1 0 0 1 421.77 0)" gradientUnits="userSpaceOnUse" x1="122.271" x2="253.558" xlink:href="#lg5" y1="414.36" y2="414.36"/><linearGradient id="SVGID_23_" gradientUnits="userSpaceOnUse" x1="255" x2="255" y1="321.88" y2="361.337"><stop offset="0" stop-color="#ffda45"/><stop offset="1" stop-color="#ffa425"/></linearGradient><path d="m494.098 359.276h-478.196c-8.782 0-15.902-7.12-15.902-15.902v-325.219c0-8.783 7.12-15.902 15.902-15.902h478.195c8.783 0 15.902 7.12 15.902 15.902v325.219c.001 8.782-7.119 15.902-15.901 15.902z" fill="url(#SVGID_1_)"/><path d="m486.067 351.217h-462.134c-8.435 0-15.273-6.838-15.273-15.273v-310.36c0-8.435 6.838-15.273 15.273-15.273h462.133c8.435 0 15.273 6.838 15.273 15.273v310.36c.001 8.435-6.837 15.273-15.272 15.273z" fill="url(#SVGID_2_)"/><path d="m472.59 335.706h-435.18c-7.061 0-12.785-5.724-12.785-12.785v-284.313c0-7.061 5.724-12.785 12.785-12.785h435.18c7.061 0 12.786 5.724 12.786 12.785v284.313c0 7.061-5.724 12.785-12.786 12.785z" fill="url(#SVGID_3_)"/><path d="m66 25.823h-28.59c-7.061 0-12.785 5.724-12.785 12.785v284.313c0 7.061 5.724 12.785 12.785 12.785h28.59z" fill="url(#SVGID_4_)"/><path d="m472.59 25.823h-435.18c-7.061 0-12.785 5.724-12.785 12.785v23.156h460.752v-23.156c-.001-7.061-5.725-12.785-12.787-12.785z" fill="url(#SVGID_5_)"/><path d="m36.486 335.706h435.181c7.061 0 12.785-5.724 12.785-12.785v-284.313c0-3.435-1.362-6.547-3.566-8.844l-455.338 299.752c2.239 3.705 6.293 6.19 10.938 6.19z" fill="url(#SVGID_6_)"/><path d="m348.667 130.253v229.023h145.431c8.783 0 15.902-7.12 15.902-15.902v-51.788z" fill="url(#SVGID_7_)"/><path d="m449.091 309.573h-388.182c-6.075 0-10.999-4.924-10.999-10.999v-235.619c0-6.075 4.924-10.999 10.999-10.999h388.181c6.075 0 10.999 4.924 10.999 10.999v235.619c.001 6.074-4.924 10.999-10.998 10.999z" fill="url(#SVGID_8_)"/><path d="m348.667 130.253v179.32h100.424c6.075 0 10.999-4.924 10.999-10.999v-56.898z" fill="url(#SVGID_9_)"/><circle cx="255" cy="245.381" fill="url(#SVGID_10_)" r="147.811"/><circle cx="255" cy="245.381" fill="url(#SVGID_11_)" r="138.273"/><path d="m321.12 113.159c9.969 19.896 15.589 42.35 15.589 66.12 0 81.634-66.177 147.811-147.811 147.811-23.77 0-46.224-5.619-66.12-15.589 24.269 48.436 74.358 81.69 132.222 81.69 81.634 0 147.811-66.177 147.811-147.811 0-57.863-33.255-107.952-81.691-132.221z" fill="url(#SVGID_12_)"/><ellipse cx="255" cy="161.941" fill="url(#SVGID_13_)" rx="89.69" ry="52.133"/><path d="m375.073 159.174c-21.922-18.277-49.991-28.667-79.269-28.667-.121 0-.244 0-.364 0l-.55.001c-17.582 0-34.876-2.45-51.562-7.285 13.155-9.357 27.439-16.88 42.562-22.411-7.233-1.538-14.66-2.547-22.242-2.984-11.271 5.509-21.997 12.122-32.05 19.777-.519.394-1.021.808-1.535 1.208-8.998-3.363-17.749-7.44-26.14-12.177-4.469 1.646-8.837 3.5-13.092 5.553 9.295 5.809 19.07 10.832 29.175 14.999-8.79 7.837-16.87 16.452-24.091 25.764-.209.268-.411.541-.618.811-15.304-4.952-31.112-8.472-47.155-10.503-3.214 3.362-6.268 6.876-9.156 10.529 16.746 1.59 33.274 4.873 49.257 9.779-7.524 11.177-13.839 23.079-18.847 35.546-14.888-2.935-30.273.121-43.117 8.753-7.518 5.052-13.605 11.629-17.961 19.201-.742 6.001-1.129 12.112-1.129 18.313 0 11.013 1.214 21.741 3.499 32.066.231-4.452.752-13.878 1.539-24.814 1.034-14.359 8.487-27.205 20.451-35.244 9.764-6.563 21.358-9.096 32.702-7.328-6.528 19.566-9.842 40.013-9.842 60.895 0 37.681 11.129 74.542 31.658 105.794 6.607 3.417 13.503 6.353 20.644 8.755-26.333-32.223-40.83-72.85-40.83-114.55 0-19.849 3.183-39.274 9.45-57.848 37.965 13.684 64.759 48.176 68.539 88.596 1.175 12.57 2.693 21.601 4.512 26.843 7.977 22.995 21.217 43.842 38.571 60.925 4.382-1.002 8.687-2.206 12.912-3.587-18.505-16.637-32.518-37.669-40.644-61.097-1.474-4.25-2.869-12.827-3.928-24.152-4.19-44.813-33.879-83.063-75.957-98.279 5.04-12.324 11.438-24.053 19.097-35.01 81.182 29.271 141.767 99.078 158.929 183.556 3.323-3.26 6.492-6.675 9.497-10.234-19.783-83.675-80.5-152.548-161.23-182.902 7.603-9.493 16.145-18.203 25.492-25.991 20.136 6.77 41.189 10.205 62.641 10.205l.59-.001h.331c35.688 0 69.403 16.997 90.237 45.511l8.363 11.446.766-.559c-4.743-14.144-11.566-27.331-20.105-39.203z" fill="#555a66"/><path d="m232.249 131.777c20.136 6.77 41.189 10.205 62.641 10.205l.59-.001h.331c28.561 0 55.851 10.895 76.294 29.859-7.267-11.547-16.188-21.946-26.44-30.857-15.503-6.808-32.468-10.474-49.859-10.474-.121 0-.244 0-.364 0l-.55.001c-17.582 0-34.876-2.45-51.562-7.285 8.239-5.86 16.92-11 25.973-15.383-4.701-.483-9.472-.733-14.301-.733-2.88 0-5.737.099-8.573.272-5.085 3.17-10.036 6.575-14.83 10.225-.519.394-1.021.808-1.535 1.208-4.843-1.81-9.612-3.834-14.294-6.05-5.073 1.498-10.026 3.273-14.838 5.319 6.196 3.376 12.566 6.421 19.076 9.105-8.79 7.837-16.87 16.452-24.091 25.764-.209.268-.411.541-.618.811-11.554-3.739-23.396-6.659-35.41-8.741-3.381 3.205-6.6 6.578-9.643 10.107 12.891 1.82 25.61 4.635 37.998 8.438-7.524 11.177-13.839 23.079-18.847 35.546-14.888-2.935-30.273.121-43.117 8.753-1.93 1.297-3.762 2.697-5.498 4.186-1.832 7.404-3.076 15.04-3.661 22.861 3.536-6.97 8.834-13.007 15.558-17.525 9.764-6.563 21.358-9.096 32.702-7.328-6.528 19.566-9.842 40.013-9.842 60.895 0 31.037 7.557 61.514 21.691 88.763 6.293 4.289 12.959 8.068 19.938 11.286-19.545-29.509-30.157-64.384-30.157-100.049 0-19.849 3.183-39.274 9.45-57.848 37.965 13.684 64.759 48.176 68.539 88.596 1.175 12.57 2.693 21.601 4.512 26.843 6.75 19.459 17.282 37.37 30.874 52.773 4.342-.806 8.615-1.81 12.804-3.012-14.656-15.267-25.9-33.515-32.839-53.521-1.474-4.25-2.869-12.827-3.928-24.152-4.19-44.813-33.879-83.063-75.957-98.279 5.04-12.324 11.438-24.053 19.097-35.01 77.609 27.982 136.389 93.014 156.408 172.491 3.18-3.398 6.19-6.955 9.017-10.661-22.433-78.46-81.227-142.458-158.229-171.41 7.601-9.491 16.143-18.201 25.49-25.988z" fill="url(#SVGID_14_)"/><path d="m295.804 130.507c-.121 0-.244 0-.364 0l-.55.001c-17.582 0-34.876-2.45-51.562-7.285 6.856-4.876 14.02-9.249 21.448-13.107-3.211-.202-6.472-.309-9.776-.309-4.49 0-8.901.194-13.214.564-3.464 2.3-6.867 4.704-10.189 7.234-.519.394-1.021.808-1.535 1.208-3.769-1.409-7.492-2.951-11.167-4.606-5.515 1.411-10.74 3.134-15.607 5.134 5.452 2.875 11.03 5.501 16.718 7.847-8.79 7.837-16.87 16.452-24.091 25.764-.209.268-.411.541-.618.811-8.572-2.774-17.307-5.081-26.148-6.947-1.831 3.517-3.043 7.189-3.556 10.976 7.645 1.574 15.209 3.49 22.651 5.775-4.817 7.155-9.131 14.609-12.931 22.316 2.535 2.844 5.507 5.535 8.864 8.044 4.355-9.262 9.492-18.152 15.385-26.581 28.722 10.356 54.86 25.791 77.414 45.149 4.874-.714 9.589-1.66 14.109-2.816-24.209-22.255-52.736-40.033-84.328-51.911 7.603-9.493 16.145-18.203 25.492-25.991 20.136 6.77 41.189 10.205 62.641 10.205l.59-.001h.331c16.591 0 32.752 3.678 47.394 10.473-1.834-5.797-5.317-11.257-10.156-16.212-11.912-3.754-24.463-5.735-37.245-5.735z" fill="url(#SVGID_15_)"/><path d="m395.161 198.335c-.281-.838-.57-1.671-.865-2.502-.041-.115-.083-.229-.124-.344-.263-.733-.531-1.464-.805-2.192-.062-.163-.124-.326-.186-.489-.26-.682-.524-1.362-.794-2.04-.073-.182-.146-.364-.219-.546-.266-.66-.536-1.317-.811-1.972-.078-.187-.157-.374-.236-.56-.278-.655-.561-1.308-.849-1.959-.078-.176-.155-.353-.234-.529-.3-.673-.606-1.343-.917-2.011-.068-.146-.135-.294-.204-.44-.338-.722-.683-1.44-1.032-2.156-.043-.087-.084-.175-.127-.263-1.613-3.286-3.345-6.503-5.189-9.646-.009-.014-.017-.029-.026-.043-.441-.75-.888-1.496-1.342-2.238-.068-.112-.138-.223-.207-.334-.397-.645-.797-1.286-1.203-1.925-.099-.156-.2-.312-.3-.467-.38-.592-.763-1.181-1.151-1.768-.119-.18-.239-.359-.359-.538-.373-.558-.75-1.114-1.13-1.667-.134-.195-.269-.39-.405-.585-.373-.536-.749-1.07-1.129-1.6-.085-.118-.169-.236-.254-.354-13.149-10.96-28.51-19.079-45.015-23.825 1.339 4.303 2.493 8.686 3.439 13.148 20.857 7.409 39.314 20.873 52.56 39.002l8.363 11.446.765-.559c-.004-.016-.009-.029-.014-.044z" fill="url(#SVGID_16_)"/><path d="m254.972 507.747c-9.053 0-16.72-6.975-17.429-16.153-4.45-57.593-37.167-109.153-87.518-137.924-8.392-4.795-11.307-15.485-6.512-23.876 4.794-8.392 15.484-11.309 23.876-6.512 60.434 34.532 99.705 96.445 105.049 165.616.744 9.636-6.464 18.052-16.1 18.796-.457.036-.914.053-1.366.053z" fill="url(#SVGID_17_)"/><path d="m185.694 507.747c-9.052 0-16.719-6.974-17.429-16.15-4.459-57.606-37.181-109.167-87.533-137.924-8.393-4.793-11.31-15.483-6.517-23.876s15.483-11.311 23.875-6.517c60.437 34.519 99.715 96.431 105.07 165.616.746 9.636-6.461 18.053-16.097 18.798-.459.036-.916.053-1.369.053z" fill="url(#SVGID_18_)"/><path d="m324.268 507.747c-9.052 0-16.719-6.974-17.429-16.15-4.458-57.599-37.175-109.16-87.518-137.926-8.392-4.795-11.307-15.485-6.512-23.876 4.795-8.392 15.483-11.309 23.876-6.512 60.424 34.527 99.695 96.439 105.049 165.614.746 9.636-6.461 18.053-16.097 18.798-.459.035-.916.052-1.369.052z" fill="url(#SVGID_19_)"/><path d="m255.028 507.747c-.453 0-.908-.018-1.367-.053-9.636-.744-16.844-9.16-16.1-18.796 5.344-69.171 44.615-131.084 105.049-165.616 8.391-4.796 19.081-1.879 23.876 6.512 4.795 8.392 1.879 19.082-6.512 23.876-50.351 28.771-83.068 80.331-87.518 137.924-.708 9.178-8.375 16.153-17.428 16.153z" fill="url(#SVGID_20_)"/><path d="m324.306 507.747c-.454 0-.91-.018-1.37-.053-9.636-.746-16.843-9.162-16.097-18.798 5.354-69.185 44.633-131.097 105.07-165.616 8.393-4.793 19.082-1.876 23.875 6.517s1.875 19.082-6.517 23.876c-50.352 28.758-83.074 80.318-87.533 137.924-.709 9.176-8.377 16.15-17.428 16.15z" fill="url(#SVGID_21_)"/><path d="m185.732 507.747c-.454 0-.91-.018-1.37-.053-9.636-.746-16.843-9.162-16.097-18.798 5.354-69.175 44.624-131.087 105.049-165.614 8.391-4.796 19.081-1.879 23.876 6.512 4.795 8.392 1.879 19.082-6.512 23.876-50.343 28.766-83.059 80.327-87.518 137.926-.709 9.177-8.377 16.151-17.428 16.151z" fill="url(#SVGID_22_)"/><path d="m419.747 359.276h-329.494c-11.155 0-20.198-9.043-20.198-20.198 0-11.155 9.043-20.198 20.198-20.198h329.495c11.155 0 20.198 9.043 20.198 20.198-.001 11.155-9.044 20.198-20.199 20.198z" fill="url(#SVGID_23_)"/></svg>