<svg height="512" viewBox="0 0 64 64" width="512" xmlns="http://www.w3.org/2000/svg"><g id="calculator_&#xB7;_finance_&#xB7;_business_&#xB7;_calculation_&#xB7;_money" data-name="calculator &#xB7; finance &#xB7; business &#xB7; calculation &#xB7; money"><path d="m57 57h-46v-44l10-10h36z" fill="#ffdaaa"/><path d="m53 3v40a12 12 0 0 1 -12 12h-30v2h46v-54z" fill="#ffc477"/><path d="m53 19h8v4h-8z" fill="#ffcd00"/><path d="m57 13a4 4 0 0 1 4 4v2a0 0 0 0 1 0 0h-8a0 0 0 0 1 0 0v-2a4 4 0 0 1 4-4z" fill="#ed1c24"/><path d="m53 23h8v26h-8z" fill="#006df0"/><path d="m54 49h6v4h-6z" fill="#ed1c24"/><path d="m57 60-2-7h4z" fill="#00479b"/><path d="m37 8h-9.75l.75 6h7z" fill="#5eac24"/><path d="m39 33a8.989 8.989 0 0 0 -8 4.89v8.22a9 9 0 1 0 8-13.11z" fill="#ff9811"/><path d="m21 12v-8.93l-9.97 9.93h8.97a1 1 0 0 0 1-1z" fill="#ff5023"/><rect fill="#006df0" height="40" rx="4" width="28" x="3" y="21"/><path d="m27 21h-2a4 4 0 0 1 4 4v32a4 4 0 0 1 -4 4h2a4 4 0 0 0 4-4v-32a4 4 0 0 0 -4-4z" fill="#005ece"/><path d="m7 53h4v4h-4z" fill="#ed1c24"/><path d="m7 45h4v4h-4z" fill="#ed1c24"/><path d="m7 37h4v4h-4z" fill="#ed1c24"/><path d="m15 37h4v4h-4z" fill="#ed1c24"/><path d="m23 37h4v4h-4z" fill="#ed1c24"/><path d="m23 45h4v4h-4z" fill="#ed1c24"/><path d="m15 45h4v4h-4z" fill="#ed1c24"/><path d="m15 53h4v4h-4z" fill="#ed1c24"/><path d="m23 53h4v4h-4z" fill="#ed1c24"/><path d="m7 25h20v8h-20z" fill="#5eac24"/><g fill="#231f20"><circle cx="29" cy="17" r="2"/><circle cx="34" cy="17" r="2"/><path d="m35.949 14.316 2-6a1 1 0 0 0 -.949-1.316h-8.867l-.141-1.124a1 1 0 0 0 -.992-.876h-2a1 1 0 0 0 0 2h1.117l.139 1.111v.029l.748 5.984a1 1 0 0 0 .996.876h7a1 1 0 0 0 .949-.684zm-7.066-1.316-.5-4h7.23l-1.334 4z"/><path d="m40 45h-2a1 1 0 0 1 -1-1 1 1 0 0 0 -2 0 3 3 0 0 0 2.988 3l-.013.988a1 1 0 0 0 .987 1.012h.014a1 1 0 0 0 1-.987l.013-1.013h.011a3 3 0 0 0 0-6h-2a1 1 0 0 1 0-2h2a1 1 0 0 1 1 1 1 1 0 0 0 2 0 3 3 0 0 0 -3-3v-1a1 1 0 0 0 -2 0v1a3 3 0 0 0 0 6h2a1 1 0 0 1 0 2z"/><path d="m57 2h-35.93a1.007 1.007 0 0 0 -.71.29l-10.07 10.03a1.033 1.033 0 0 0 -.29.71v6.97h-3a5 5 0 0 0 -5 5v32a5 5 0 0 0 5 5h20a5.017 5.017 0 0 0 4.9-4h20.1a1 1 0 0 0 0-2h-20v-6.89a10 10 0 1 0 0-14.22v-9.89a5 5 0 0 0 -5-5h-15v-6h8a2.006 2.006 0 0 0 2-2v-8h34v5a1 1 0 0 0 2 0v-6a1 1 0 0 0 -1-1zm-25 36.16a8 8 0 1 1 0 7.68zm-5-16.16a3.009 3.009 0 0 1 3 3v32a3.009 3.009 0 0 1 -3 3h-20a3.009 3.009 0 0 1 -3-3v-32a3.009 3.009 0 0 1 3-3zm-7-10h-6.55l6.55-6.52z"/><path d="m50 7h-9a1 1 0 0 0 0 2h9a1 1 0 0 0 0-2z"/><path d="m51 12a1 1 0 0 0 -1-1h-9a1 1 0 0 0 0 2h9a1 1 0 0 0 1-1z"/><path d="m49 15h-10a1 1 0 0 0 0 2h10a1 1 0 0 0 0-2z"/><path d="m50 20a1 1 0 0 0 -1-1h-10a1 1 0 0 0 0 2h10a1 1 0 0 0 1-1z"/><path d="m46 23h-11a1 1 0 0 0 0 2h11a1 1 0 0 0 0-2z"/><path d="m46 27h-11a1 1 0 0 0 0 2h11a1 1 0 0 0 0-2z"/><path d="m57 12a5 5 0 0 0 -5 5v5a3.009 3.009 0 0 0 -3 3v8a1 1 0 0 0 2 0v-8a1 1 0 0 1 1-1v25a1 1 0 0 0 1 1v3a1 1 0 0 0 1 1h.22l1.81 7.24a1 1 0 0 0 1.94 0l1.81-7.24h.22a1 1 0 0 0 1-1v-3a1 1 0 0 0 1-1v-32a5 5 0 0 0 -5-5zm0 44.88-.72-2.88h1.44zm2-4.88h-4v-2h4zm1-4h-6v-24h6zm0-26h-6v-2h6zm0-4h-6v-1a3 3 0 0 1 6 0z"/><path d="m27 24h-20a1 1 0 0 0 -1 1v8a1 1 0 0 0 1 1h20a1 1 0 0 0 1-1v-8a1 1 0 0 0 -1-1zm-1 8h-18v-6h18z"/><path d="m11 36h-4a1 1 0 0 0 -1 1v4a1 1 0 0 0 1 1h4a1 1 0 0 0 1-1v-4a1 1 0 0 0 -1-1zm-1 4h-2v-2h2z"/><path d="m11 44h-4a1 1 0 0 0 -1 1v4a1 1 0 0 0 1 1h4a1 1 0 0 0 1-1v-4a1 1 0 0 0 -1-1zm-1 4h-2v-2h2z"/><path d="m11 52h-4a1 1 0 0 0 -1 1v4a1 1 0 0 0 1 1h4a1 1 0 0 0 1-1v-4a1 1 0 0 0 -1-1zm-1 4h-2v-2h2z"/><path d="m19 36h-4a1 1 0 0 0 -1 1v4a1 1 0 0 0 1 1h4a1 1 0 0 0 1-1v-4a1 1 0 0 0 -1-1zm-1 4h-2v-2h2z"/><path d="m19 44h-4a1 1 0 0 0 -1 1v4a1 1 0 0 0 1 1h4a1 1 0 0 0 1-1v-4a1 1 0 0 0 -1-1zm-1 4h-2v-2h2z"/><path d="m19 52h-4a1 1 0 0 0 -1 1v4a1 1 0 0 0 1 1h4a1 1 0 0 0 1-1v-4a1 1 0 0 0 -1-1zm-1 4h-2v-2h2z"/><path d="m27 36h-4a1 1 0 0 0 -1 1v4a1 1 0 0 0 1 1h4a1 1 0 0 0 1-1v-4a1 1 0 0 0 -1-1zm-1 4h-2v-2h2z"/><path d="m27 44h-4a1 1 0 0 0 -1 1v4a1 1 0 0 0 1 1h4a1 1 0 0 0 1-1v-4a1 1 0 0 0 -1-1zm-1 4h-2v-2h2z"/><path d="m27 52h-4a1 1 0 0 0 -1 1v4a1 1 0 0 0 1 1h4a1 1 0 0 0 1-1v-4a1 1 0 0 0 -1-1zm-1 4h-2v-2h2z"/></g></g></svg>