<?xml version="1.0" encoding="iso-8859-1"?>
<!-- Generator: Adobe Illustrator 21.0.0, SVG Export Plug-In . SVG Version: 6.00 Build 0)  -->
<svg xmlns="http://www.w3.org/2000/svg" xmlns:xlink="http://www.w3.org/1999/xlink" version="1.1" id="Capa_1" x="0px" y="0px" viewBox="0 0 512 512" style="enable-background:new 0 0 512 512;" xml:space="preserve" width="512" height="512">
<g>
	<path style="fill:#FFCCBC;" d="M7.5,262.881v147.421l17.977,0.004c14.666,0.002,29.043,4.664,40.597,13.698   c18.817,14.712,42.507,23.48,68.244,23.48l196.754,0c15.311,0,27.723-12.412,27.723-27.723v0c0-15.311-12.412-27.723-27.723-27.723   h-87.232h124.271c15.311,0,27.723-12.412,27.723-27.723v0c0-15.311-12.412-27.723-27.723-27.723H243.841h157.373   c15.311,0,27.723-12.412,27.723-27.723v0c0-15.311-12.412-27.723-27.723-27.723H243.841h124.271   c15.311,0,27.723-12.412,27.723-27.723v0c0-15.311-12.412-27.723-27.723-27.723l-152.544,0l29.987-17.313   c13.26-7.656,17.803-24.611,10.147-37.87l0,0c-7.656-13.26-24.611-17.803-37.87-10.147L81.843,238.881   c-5.434,2.924-10.596,6.289-15.438,10.045c-11.697,9.074-26.107,13.947-40.911,13.95L7.5,262.881z"/>
	<path style="fill:#FF8A65;" d="M400.637,281.145h-12.799c0.76,2.624,1.151,5.405,1.093,8.287   c-0.308,15.192-13.135,27.159-28.33,27.159h0c-8.997,0-14.31,10.298-8.894,17.481c2.56,3.395,4.224,7.12,4.117,11.021   c-0.414,15.1-13.183,26.944-28.289,26.944h0c-10.021,0-16.456,10.952-11.27,19.526c1.567,2.591,2.53,5.344,2.53,8.198   c0,15.311-12.412,27.723-27.723,27.723l-196.754,0c-9.883,0-19.459-1.304-28.578-3.73c0.11,0.085,0.225,0.164,0.334,0.25   c18.817,14.712,42.507,23.48,68.244,23.48l196.177,0c15.106,0,27.875-11.843,28.289-26.944   c0.43-15.667-12.142-28.503-27.712-28.503h36.463c15.106,0,27.875-11.844,28.289-26.944c0.43-15.667-12.142-28.502-27.712-28.502   h33.102c15.57,0,28.142-12.835,27.712-28.502C428.512,292.989,415.743,281.145,400.637,281.145z"/>
	<circle style="fill:#BBDEFB;" cx="451.706" cy="129.675" r="24.602"/>
	<circle style="fill:#BBDEFB;" cx="400.216" cy="83.168" r="18.651"/>
	<path style="fill:#FF8A65;" d="M287.739,217.579c1.001-24.395,18.631-44.644,41.634-49.909   c-8.307-11.024-23.719-14.38-35.978-7.302l-34.301,19.803c1.68,10.966-3.354,22.333-13.54,28.214l-29.987,17.313h72.446   C287.723,223.046,287.626,220.334,287.739,217.579z"/>
	<path style="fill:#FF8A65;" d="M476.777,281.145H468.8c-3.889,37.935-35.678,66.912-74.493,66.707   c-1.337-0.007-2.664-0.053-3.984-0.13c3.461,4.626,5.511,10.37,5.511,16.592c0,15.311-12.412,27.723-27.723,27.723h-37.039   c15.311,0,27.723,12.412,27.723,27.723v0c0,15.311-12.412,27.723-27.723,27.723l-121.192,0h0.001l196.754,0   c15.311,0,27.723-12.412,27.723-27.723v0c0-15.311-12.412-27.723-27.723-27.723h-38.524h75.563   c15.311,0,27.723-12.412,27.723-27.723c0-15.311-12.412-27.723-27.723-27.723h-9.766h42.868c15.311,0,27.723-12.412,27.723-27.723   S492.088,281.145,476.777,281.145z"/>
	<path style="fill:#BBDEFB;" d="M436.492,211.651c-2.137-1.45-3.201-3.992-2.753-6.536c0.601-3.416,0.724-6.997,0.286-10.675   c-2.038-17.113-16.207-30.579-33.399-31.775c-10.355-0.721-19.857,2.917-26.873,9.256c-1.973,1.783-4.878,2.042-7.218,0.78   c-7.719-4.161-16.573-6.485-25.982-6.374c-28.246,0.335-51.656,23.027-52.814,51.251c-0.113,2.756-0.015,5.467,0.274,8.12l80.098,0   c15.311,0,27.723,12.412,27.723,27.723l0,0c0,15.311-12.412,27.723-27.723,27.723h33.102c15.311,0,27.723,12.412,27.723,27.723l0,0   c0,15.311-12.412,27.723-27.723,27.723h-33.102c9.089,0,17.156,4.374,22.212,11.131c1.319,0.077,2.647,0.123,3.984,0.13   c40.812,0.215,73.882-31.824,74.891-72.624C469.852,248.788,456.723,225.38,436.492,211.651z"/>
	<path style="fill:#64B5F6;" d="M436.492,211.651c-2.138-1.45-3.201-3.992-2.753-6.536c0.601-3.416,0.724-6.997,0.286-10.675   c-2.038-17.113-16.207-30.579-33.399-31.775c-3.39-0.236-6.685,0.003-9.834,0.643c1.644,3.448,2.764,7.192,3.233,11.132   c0.438,3.678,0.315,7.259-0.286,10.675c-0.448,2.544,0.615,5.085,2.753,6.536c20.232,13.728,33.361,37.136,32.707,63.577   c-0.302,12.188-3.482,23.584-8.858,33.582c5.293,5.049,8.596,12.165,8.596,20.058c0,15.311-12.412,27.723-27.723,27.723h-33.102   c9.089,0,17.156,4.374,22.212,11.131c1.319,0.077,2.647,0.123,3.984,0.13c40.812,0.215,73.882-31.824,74.891-72.624   C469.852,248.788,456.723,225.38,436.492,211.651z"/>
	<g>
		<path d="M243.84,344.091h31.383c4.142,0,7.5-3.358,7.5-7.5s-3.358-7.5-7.5-7.5H243.84c-4.142,0-7.5,3.358-7.5,7.5    S239.698,344.091,243.84,344.091z"/>
		<path d="M451.706,161.777c17.701,0,32.102-14.401,32.102-32.102s-14.401-32.102-32.102-32.102s-32.102,14.401-32.102,32.102    S434.005,161.777,451.706,161.777z M451.706,112.573c9.43,0,17.102,7.672,17.102,17.102s-7.672,17.102-17.102,17.102    s-17.102-7.672-17.102-17.102S442.276,112.573,451.706,112.573z"/>
		<path d="M400.216,109.319c14.42,0,26.151-11.731,26.151-26.151s-11.731-26.151-26.151-26.151s-26.151,11.731-26.151,26.151    S385.796,109.319,400.216,109.319z M400.216,72.017c6.149,0,11.151,5.002,11.151,11.151s-5.002,11.151-11.151,11.151    s-11.151-5.002-11.151-11.151S394.067,72.017,400.216,72.017z"/>
		<path d="M512,308.868c0-19.422-15.801-35.223-35.223-35.223h-0.057c0.011-3.205-0.162-6.418-0.518-9.575    c-0.464-4.116-4.173-7.076-8.292-6.613c-4.116,0.463-7.077,4.176-6.613,8.292c3.022,26.823-9.917,52.673-33.238,65.897    c5.223-6.146,8.378-14.101,8.378-22.779c0-19.422-15.801-35.223-35.223-35.223h-4.277c4.03-5.727,6.398-12.704,6.398-20.223    c0-19.422-15.801-35.223-35.223-35.223l-72.89,0c0.004-0.104,0.007-0.208,0.011-0.313c1.402-34.144,38.192-54.512,67.744-38.583    c5.167,2.787,11.52,2.057,15.805-1.817c5.848-5.283,13.425-7.887,21.325-7.339c16.892,1.175,29.224,16.741,26.247,33.668    c-0.958,5.438,1.37,10.95,5.928,14.042c7.065,4.794,13.083,10.804,17.884,17.862c2.331,3.425,6.996,4.311,10.42,1.982    c3.425-2.33,4.312-6.995,1.982-10.42c-5.751-8.453-12.928-15.675-21.338-21.477c4.121-25.559-14.617-48.849-40.082-50.621    c-11.705-0.818-22.927,2.93-31.727,10.558c-11.326-5.92-24.419-8.154-37.242-6.255c-11.097-11.132-28.573-13.673-42.533-5.614    l-26.248,15.154c-8.968-18.449-31.671-25.342-49.316-15.154l-105.396,60.85c-3.587,2.071-4.816,6.658-2.745,10.245    c2.071,3.588,6.658,4.817,10.245,2.745l105.396-60.85c9.656-5.575,22.049-2.255,27.625,7.402s2.255,22.05-7.402,27.625    l-29.987,17.313c-6.624,3.824-3.898,13.995,3.75,13.995l152.544,0c11.151,0,20.223,9.072,20.223,20.223    s-9.072,20.223-20.223,20.223H243.84c-4.142,0-7.5,3.358-7.5,7.5s3.358,7.5,7.5,7.5h157.373c11.151,0,20.223,9.072,20.223,20.223    s-9.072,20.223-20.223,20.223h-90.99c-4.142,0-7.5,3.358-7.5,7.5s3.358,7.5,7.5,7.5h57.888c11.151,0,20.223,9.072,20.223,20.223    s-9.072,20.223-20.223,20.223H243.84c-4.142,0-7.5,3.358-7.5,7.5s3.358,7.5,7.5,7.5h87.232c11.151,0,20.223,9.072,20.223,20.223    s-9.072,20.223-20.223,20.223H134.318c-23.308,0-45.309-7.569-63.625-21.889c-12.608-9.857-28.666-15.287-45.215-15.289    L15,402.803V270.379l10.496-0.003c16.445-0.003,32.606-5.516,45.506-15.524c4.522-3.509,9.366-6.66,14.396-9.367    c3.647-1.963,5.013-6.511,3.05-10.159c-1.963-3.648-6.513-5.014-10.159-3.05c-5.759,3.1-11.305,6.708-16.481,10.724    c-10.284,7.978-23.181,12.374-36.315,12.375l-17.994,0.005C3.356,255.382,0,258.74,0,262.881v147.421    c0,4.142,3.357,7.499,7.499,7.5l17.978,0.004c13.217,0.002,25.995,4.301,35.979,12.106c20.979,16.402,46.175,25.071,72.864,25.071    c15.319,0,252.769,0,272.317,0c19.422,0,35.223-15.801,35.223-35.223c0-7.519-2.369-14.496-6.398-20.223h8.215    c19.422,0,35.223-15.801,35.223-35.223c0-7.519-2.369-14.496-6.398-20.223h4.277C496.199,344.091,512,328.29,512,308.868z     M266.931,184.308l30.214-17.444c5.24-3.025,11.343-3.45,16.72-1.596c-19.234,9.64-32.681,29.15-33.62,52.003    c-0.013,0.309-0.022,0.619-0.03,0.929l-36.657,0C245.037,216.834,266.939,208.855,266.931,184.308z M406.636,439.983l-46.739,0    c8.535-12.129,8.537-28.314,0.001-40.446h46.739c11.151,0,20.223,9.072,20.223,20.223S417.787,439.983,406.636,439.983z     M443.675,384.537h-46.74c6.276-8.919,7.81-19.807,5.158-29.506c12.244-1.074,23.929-4.815,34.342-10.94h7.24    c11.151,0,20.223,9.072,20.223,20.223S454.826,384.537,443.675,384.537z M455.039,329.091    c10.503-11.354,17.467-25.305,20.278-40.446h1.46c11.151,0,20.223,9.072,20.223,20.223s-9.072,20.223-20.223,20.223H455.039z"/>
	</g>
</g>















</svg>
