<svg id="Capa_1" enable-background="new 0 0 512 512" height="512" viewBox="0 0 512 512" width="512" xmlns="http://www.w3.org/2000/svg"><path d="m328 248c-.036 2.68-.267 5.354-.691 8h9.691c.519-.833 7.69-11.902 21.304-12.217 14.374-.333 22.143 11.643 22.502 12.217h19.194v-16h-72.6c.389 2.649.59 5.322.6 8z"/><path d="m272 192c2.434.004 4.865.162 7.278.474l-15.309-30.574c-1.699-3.484-4.5-6.311-7.969-8.041v44.415c4.126-.95 8.051-2.626 11.59-4.95 1.308-.864 2.842-1.324 4.41-1.324z"/><path d="m261.984 246.562c-.002-5.513-4.472-9.981-9.985-9.979s-9.981 4.472-9.979 9.985c.002 5.511 4.469 9.978 9.98 9.979 5.511-.009 9.976-4.474 9.984-9.985z"/><path d="m217.324 280.738 20.191-12.619c-5.09-3.471-8.784-8.636-10.422-14.575-1.019.814-2.102 1.545-3.238 2.186-6.209 3.293-13.521 3.805-20.128 1.411l-35.427-12.882c-.12 1.249-.3 2.505-.3 3.741.039 19.121 13.612 35.538 32.386 39.169 6.005-1.04 11.755-3.223 16.938-6.431z"/><path d="m464 264v-32h-38.113l-9.887 4.945v22.11l9.887 4.945z"/><path d="m259.258 213.969c-12.816 2.984-26.291.842-37.551-5.969h-6.735l7.016 3.008c6.652 2.834 11.728 8.442 13.887 15.343 4.557-3.71 10.248-5.748 16.125-5.773 14.285-.065 25.919 11.462 25.984 25.747.03 6.461-2.36 12.699-6.698 17.487 9.342 3.022 17.242 9.382 22.188 17.863 2.813-1.831 12.413-8.571 16.569-21.718.836-2.643 3.877-13.219-.195-24.807-5.02-14.284-18.911-24.585-35.648-27.091-4.644 2.733-9.685 4.727-14.942 5.91z"/><path d="m192 336h9.465c7.899.007 15.623-2.331 22.191-6.719l35.906-23.937c3.676-2.451 8.643-1.458 11.094 2.218.23.344.432.706.606 1.082l44.539 96.5 17.461-8.73-52.68-105.359c-5.924-11.853-20.335-16.66-32.188-10.737-.683.341-1.349.715-1.996 1.12l-20.593 12.867c-10.135 6.341-21.85 9.701-33.805 9.695-8.837 0-16 7.163-16 16s7.163 16 16 16z"/><path d="m185.629 195.422 1.6.685c6.593-2.698 13.647-4.093 20.771-4.107h16c1.564.001 3.094.46 4.4 1.32 3.544 2.325 7.471 4.006 11.6 4.966v-46.286h-46.39c1.571 4.48 1.728 9.334.449 13.906z"/><path d="m160 352c-2.088-.02-4.094.813-5.555 2.305-1.567 1.479-2.452 3.54-2.445 5.695.006 4.416 3.584 7.994 8 8h84.642l-3.2-16z"/><path d="m200 384h32v16h-32z"/><path d="m248 384.791v55.209 40h16v-30.699z"/><path d="m358.937 403.453-11.867 3.957-22.917 11.459 13.706 18.276 35.047-23.364-4.785-7.176c-1.997-3.006-5.762-4.298-9.184-3.152z"/><path d="m200 416h32v16h-32z"/><path d="m316.422 439.156c-.769-.385-1.471-.891-2.078-1.5l-12.973-12.972-26.914 5.382 4.266 12.8 19.699 13.134h13.125c2.607.002 5.041-1.302 6.484-3.473 0 0 2.809-10.498-.771-12.885-.269-.179-.549-.341-.838-.486z"/><path d="m285.458 377.585-24.8-53.741-18.236 12.156h5.578c3.813 0 7.096 2.691 7.844 6.43l14.433 72.156 23.793-4.758z"/><path d="m168 384h16v96h-16z"/><path d="m167.133 226.809 42.067 15.291c4.578 1.665 9.639-.697 11.303-5.274.104-.287.194-.579.268-.875 1.065-4.199-1.093-8.547-5.082-10.238l-42.836-18.363c-3.701-1.587-5.646-5.679-4.539-9.551l10.367-36.293c1.158-3.954-1.109-8.097-5.063-9.255s-8.097 1.109-9.255 5.063l-12.011 40.039c-3.65 12.183 2.832 25.1 14.781 29.456z"/><path d="m348.9 280c7.944.03 14.535-5.218 17.524-12.578 4.606-11.342-10.26-15.67-15.071-4.262-2.174 5.154-6.796 8.841-12.39 8.84h-5.336l.711.91c3.497 4.487 8.873 7.105 14.562 7.09z"/><path d="m392 120c4.418 0 8-3.582 8-8s-3.582-8-8-8h-32c-4.418 0-8 3.582-8 8v32h-8c-13.255 0-24 10.745-24 24s10.745 24 24 24 24-10.745 24-24v-24h24c4.418 0 8-3.582 8-8s-3.582-8-8-8h-24v-8zm-40 48c0 4.418-3.582 8-8 8s-8-3.582-8-8 3.582-8 8-8h8z"/><path d="m440 104c13.249-.015 23.985-10.751 24-24v-48h24c4.418 0 8-3.582 8-8s-3.582-8-8-8h-32c-4.418 0-8 3.582-8 8v32h-8c-13.255 0-24 10.745-24 24s10.745 24 24 24zm0-32h8v8c0 4.418-3.582 8-8 8s-8-3.582-8-8 3.582-8 8-8z"/><path d="m488 312h-32c-4.418 0-8 3.582-8 8v32h-8c-13.255 0-24 10.745-24 24s10.745 24 24 24 24-10.745 24-24v-48h24c4.418 0 8-3.582 8-8s-3.582-8-8-8zm-40 64c0 4.418-3.582 8-8 8s-8-3.582-8-8 3.582-8 8-8h8z"/><path d="m96 248c4.418 0 8-3.582 8-8s-3.582-8-8-8h-32c-4.418 0-8 3.582-8 8v32h-8c-13.255 0-24 10.745-24 24s10.745 24 24 24 24-10.745 24-24v-24h24c4.418 0 8-3.582 8-8s-3.582-8-8-8h-24v-8zm-40 48c0 4.418-3.582 8-8 8s-8-3.582-8-8 3.582-8 8-8h8z"/><path d="m145.941 72.238c-4.287-1.072-8.631 1.534-9.703 5.821s1.534 8.631 5.821 9.703c13.778 3.397 27.801 5.706 41.941 6.906v9.332c0 13.255 10.745 24 24 24s24-10.745 24-24v-9.332c14.14-1.2 28.164-3.509 41.943-6.906 4.287-1.072 6.893-5.416 5.821-9.703s-5.416-6.893-9.703-5.821c-12.553 3.095-25.323 5.229-38.2 6.385-.704-13.178-11.957-23.29-25.135-22.587-12.194.651-21.936 10.392-22.587 22.587"/></svg>