<?xml version="1.0" encoding="iso-8859-1"?>
<!-- Generator: Adobe Illustrator 18.0.0, SVG Export Plug-In . SVG Version: 6.00 Build 0)  -->
<!DOCTYPE svg PUBLIC "-//W3C//DTD SVG 1.1//EN" "http://www.w3.org/Graphics/SVG/1.1/DTD/svg11.dtd">
<svg version="1.1" id="Capa_1" xmlns="http://www.w3.org/2000/svg" xmlns:xlink="http://www.w3.org/1999/xlink" x="0px" y="0px"
	 viewBox="0 0 419.141 419.141" style="enable-background:new 0 0 419.141 419.141;" xml:space="preserve">
<g>
	<path style="fill:#F99C38;" d="M3.364,380.056l35.721,35.721c4.486,4.486,11.759,4.486,16.245,0L415.777,55.33
		c4.486-4.486,4.486-11.759,0-16.245L380.056,3.364c-4.486-4.486-11.759-4.486-16.245,0l-34.297,34.297
		c7.616,7.616,7.608,19.969,0,27.577c-7.616,7.616-19.962,7.616-27.577,0l-29.444,29.444c7.616,7.616,7.616,19.962,0,27.577
		c-7.616,7.616-19.962,7.616-27.577,0l-29.437,29.437c7.616,7.616,7.616,19.962,0,27.577c-7.616,7.616-19.962,7.616-27.577,0
		l-29.444,29.444c7.616,7.616,7.616,19.962,0,27.577s-19.962,7.616-27.577,0L3.364,363.812
		C-1.121,368.298-1.121,375.571,3.364,380.056z"/>
	<path style="fill:#D17519;" d="M151.422,327.759c-2.56,0-5.118-0.976-7.071-2.929l-50.039-50.04
		c-3.905-3.905-3.905-10.237,0-14.142c3.908-3.905,10.238-3.905,14.143,0l50.039,50.04c3.905,3.905,3.905,10.237,0,14.142
		C156.541,326.782,153.981,327.759,151.422,327.759z"/>
	<path style="fill:#D17519;" d="M402.787,76.395c-2.56,0-5.118-0.976-7.071-2.929l-50.04-50.04c-3.905-3.905-3.905-10.237,0-14.142
		c3.906-3.905,10.236-3.905,14.143,0l50.04,50.04c3.905,3.905,3.905,10.237,0,14.142C407.905,75.418,405.346,76.395,402.787,76.395z
		"/>
	<path style="fill:#D17519;" d="M130.21,348.971c-2.56,0-5.118-0.976-7.071-2.929l-50.04-50.04c-3.905-3.905-3.905-10.237,0-14.142
		c3.906-3.905,10.236-3.905,14.143,0l50.04,50.04c3.905,3.905,3.905,10.237,0,14.142C135.329,347.994,132.77,348.971,130.21,348.971
		z"/>
	<path style="fill:#D17519;" d="M67.284,411.897c-2.56,0-5.118-0.976-7.071-2.929l-50.039-50.04c-3.905-3.905-3.905-10.237,0-14.142
		c3.907-3.905,10.237-3.905,14.143,0l50.039,50.04c3.905,3.905,3.905,10.237,0,14.142C72.402,410.92,69.842,411.897,67.284,411.897z
		"/>
	<path style="fill:#F9E17A;" d="M89.477,335.414h-5.75v-5.749c0-5.523-4.478-10-10-10s-10,4.477-10,10v5.749h-5.749
		c-5.522,0-10,4.477-10,10s4.478,10,10,10h5.749v5.749c0,5.523,4.478,10,10,10s10-4.477,10-10v-5.749h5.75c5.522,0,10-4.477,10-10
		S95,335.414,89.477,335.414z"/>
</g>
<g>
</g>
<g>
</g>
<g>
</g>
<g>
</g>
<g>
</g>
<g>
</g>
<g>
</g>
<g>
</g>
<g>
</g>
<g>
</g>
<g>
</g>
<g>
</g>
<g>
</g>
<g>
</g>
<g>
</g>
</svg>
