<svg height="512" viewBox="0 0 512 512" width="512" xmlns="http://www.w3.org/2000/svg"><path d="m288 24h72v112l24 32 27.9 11.956a46.371 46.371 0 0 1 28.1 42.62 46.37 46.37 0 0 1 -11.474 30.536 179.965 179.965 0 0 0 -44.526 118.506 167.119 167.119 0 0 1 -22.02 82.916 34.663 34.663 0 0 1 -30.1 17.466h-43.88z" fill="#fad7be"/><path d="m306.129 472 12.407-93.05a80.018 80.018 0 0 0 -.1-21.887l-14.09-98.613a15.993 15.993 0 0 1 .057-4.893l7.597-45.557v-184h-24v448z" fill="#e8c8b1"/><path d="m287.995 230.545 72.001 65.455v-40l-72.001-65.455z" fill="#4298d1"/><path d="m287.995 191.384 72.001-55.385v-40l-72.001 55.385z" fill="#4298d1"/><path d="m361.976 454.534a167.123 167.123 0 0 0 22.024-82.917 179.955 179.955 0 0 1 44.527-118.505 46.372 46.372 0 0 0 -16.632-73.158l-27.895-11.954-39.8 119.4a173.453 173.453 0 0 1 -56.2 80.6v104h43.884a34.665 34.665 0 0 0 30.092-17.466z" fill="#62abd7"/><path d="m318.433 357.063-2.48-17.361a173.362 173.362 0 0 1 -27.953 28.298v104h18.134l12.407-93.05a80.018 80.018 0 0 0 -.108-21.887z" fill="#5697be"/><path d="m288.4 253.557 7.049-42.292a40.023 40.023 0 0 0 .544-6.576v-180.689h-87.993v168l-12.621 25.244a32 32 0 0 0 -3.379 14.31v128.524a80.005 80.005 0 0 0 1.554 15.689l19.874 99.371a16 16 0 0 0 15.684 12.862h44.875a16 16 0 0 0 15.86-13.885l12.688-95.165a79.978 79.978 0 0 0 -.1-21.887l-14.087-98.612a16.031 16.031 0 0 1 .052-4.894z" fill="#fad7be"/><path d="m213.423 459.138a16 16 0 0 0 15.689 12.862h44.875a16 16 0 0 0 15.86-13.886l12.689-95.164c.105-.8.071-1.6.153-2.4-.114-1.161-.091-2.331-.256-3.488l-6.4-44.838-16.065 37.176a30.691 30.691 0 0 1 -56.15.61l-31.818-70.01v64.078a80.013 80.013 0 0 0 1.554 15.689z" fill="#eeccb6"/><path d="m288.4 253.557 5.277-31.663-85.677-77.894v40l80.367 73.061a15.9 15.9 0 0 1 .033-3.504z" fill="#3f8ec4"/><path d="m199.995 71.999h96v32h-96z" fill="#4298d1"/><rect fill="#69b9e7" height="32" rx="16" width="32" x="207.995" y="71.999"/><path d="m176.951 127.76-32.951 8.24 6.659-19.975a40.984 40.984 0 0 1 38.876-28.025h18.465a40.984 40.984 0 0 1 -31.049 39.76z" fill="#4298d1"/><path d="m176.951 48.238-32.951-8.238 6.659 19.976a40.983 40.983 0 0 0 38.876 28.024h18.465a40.985 40.985 0 0 0 -31.049-39.762z" fill="#4298d1"/><path d="m302.433 357.063-4.688-32.814-17.777 41.151a30.691 30.691 0 0 1 -56.15.611l-31.818-70.011v64.078a80.013 80.013 0 0 0 1.554 15.689l19.874 99.371a16 16 0 0 0 15.684 12.862h44.875a16 16 0 0 0 15.86-13.886l12.689-95.164a80.018 80.018 0 0 0 -.103-21.887z" fill="#69b9e7"/><path d="m295.995 159.999-104 80.001v40l104-80.001v-14.769l11.095-8.534-.615-16.697z" fill="#4298d1"/><path d="m295.995 185.23 16.001-12.307v-40l-15.906 12.234z" fill="#3f8ec4"/></svg>