<?xml version="1.0" encoding="iso-8859-1"?>
<!-- Generator: Adobe Illustrator 16.0.0, SVG Export Plug-In . SVG Version: 6.00 Build 0)  -->
<!DOCTYPE svg PUBLIC "-//W3C//DTD SVG 1.1//EN" "http://www.w3.org/Graphics/SVG/1.1/DTD/svg11.dtd">
<svg version="1.1" id="Capa_1" xmlns="http://www.w3.org/2000/svg" xmlns:xlink="http://www.w3.org/1999/xlink" x="0px" y="0px"
	 width="423.527px" height="423.527px" viewBox="0 0 423.527 423.527" style="enable-background:new 0 0 423.527 423.527;"
	 xml:space="preserve">
<g>
	<g>
		<path d="M411.869,187.523c-2.46,0-4.748,0-6.632,0v-29.274h3.426c4.685,0,8.464-7.364,8.464-16.464v-38.646
			c0-9.101-3.771-16.465-8.464-16.465c-1.218,0-2.376,0-3.426,0v-4.346c0-12.133-9.839-21.953-21.949-21.953h-99.717h-19.203H58.547
			c-12.121,0-21.957,9.82-21.957,21.953v65.862l4.1,27.683c1.781,11.995,13.048,21.71,25.175,21.71h20.239v33.628h-3.825
			c-0.563-1.547-1.529-2.637-2.691-2.637c-1.768,0-3.204,2.416-3.204,5.366c0,2.973,1.437,5.397,3.204,5.397
			c1.154,0,2.128-1.098,2.691-2.645h3.833v15.54h8.572v-5.262h8.292c0.563,1.551,1.529,2.638,2.683,2.638
			c1.767,0,3.204-2.405,3.204-5.366c0-2.989-1.437-5.382-3.204-5.382c-1.162,0-2.128,1.09-2.683,2.633h-8.292v-29.042h5.22
			c0.583,1.343,1.485,2.292,2.553,2.292c1.775,0,3.202-2.414,3.202-5.394c0-2.952-1.427-5.362-3.202-5.362
			c-1.242,0-2.292,1.227-2.829,2.956h-4.943v-9.367h13.267c12.121,0,21.803-10.079,25.878-21.502
			c2.204-6.179,5.071-11.289,7.941-15.362c5.514-7.851,21.754-12.531,33.867-12.531h66.792c12.11,0,21.94,9.828,21.94,21.953v86.896
			c0,12.115-9.814,21.957-21.94,21.957H21.959C9.828,278.988,0,288.818,0,300.945v40.259c0,12.118,9.828,21.948,21.959,21.948
			H383.28c12.118,0,21.949-9.83,21.949-21.948v-49.412v-12.804v-40.135h6.64c6.44,0,11.658-7.365,11.658-16.474v-18.398
			C423.535,194.885,418.317,187.523,411.869,187.523z M337.091,81.174h44.358c3.033,0,5.486,2.473,5.486,5.492
			c0,3.025-2.453,5.498-5.486,5.498h-44.358c-3.038,0-5.49-2.464-5.49-5.498C331.601,83.646,334.053,81.174,337.091,81.174z
			 M337.091,100.616h44.358c3.033,0,5.486,2.46,5.486,5.482c0,3.036-2.453,5.488-5.486,5.488h-44.358
			c-3.038,0-5.49-2.452-5.49-5.488C331.601,103.076,334.053,100.616,337.091,100.616z M306.242,86.644
			c-6.229,6.727-18.599,12.15-27.691,12.15H126.242c-3.028,0-5.486-2.473-5.486-5.5V80.036c0-3.025,2.458-5.496,5.486-5.496H300.96
			C310.045,74.54,312.413,79.956,306.242,86.644z M395.171,244.232c0,6.055-4.913,10.976-10.977,10.976h-55.339
			c-6.055,0-10.968-4.921-10.968-10.976v-69.978c0-6.059,4.913-10.98,10.968-10.98h55.339c6.063,0,10.977,4.921,10.977,10.98
			V244.232z"/>
	</g>
</g>
<g>
</g>
<g>
</g>
<g>
</g>
<g>
</g>
<g>
</g>
<g>
</g>
<g>
</g>
<g>
</g>
<g>
</g>
<g>
</g>
<g>
</g>
<g>
</g>
<g>
</g>
<g>
</g>
<g>
</g>
</svg>
