<svg id="Capa_1" enable-background="new 0 0 510 510" height="512" viewBox="0 0 510 510" width="512" xmlns="http://www.w3.org/2000/svg" xmlns:xlink="http://www.w3.org/1999/xlink"><linearGradient id="lg1"><stop offset="0" stop-color="#ffd945"/><stop offset=".3043" stop-color="#ffcd3e"/><stop offset=".8558" stop-color="#ffad2b"/><stop offset="1" stop-color="#ffa325"/></linearGradient><linearGradient id="SVGID_1_" gradientUnits="userSpaceOnUse" x1="332.891" x2="354.736" xlink:href="#lg1" y1="433.911" y2="433.911"/><linearGradient id="SVGID_2_" gradientUnits="userSpaceOnUse" x1="301.82" x2="323.665" xlink:href="#lg1" y1="433.911" y2="433.911"/><linearGradient id="SVGID_3_" gradientTransform="matrix(.828 .561 -.561 .828 148.987 76.966)" gradientUnits="userSpaceOnUse" x1="41.433" x2="85.804" xlink:href="#lg1" y1="137.501" y2="216.158"/><linearGradient id="lg2"><stop offset="0" stop-color="#a3ffff"/><stop offset=".1175" stop-color="#9bfbfe"/><stop offset=".3007" stop-color="#85eefb"/><stop offset=".5267" stop-color="#61daf6"/><stop offset=".7842" stop-color="#2fbfef"/><stop offset="1" stop-color="#00a5e8"/></linearGradient><linearGradient id="SVGID_4_" gradientTransform="matrix(.731 .682 -.682 .731 825.852 468.034)" gradientUnits="userSpaceOnUse" x1="-701.789" x2="-657.419" xlink:href="#lg2" y1="289.761" y2="368.417"/><linearGradient id="lg3"><stop offset="0" stop-color="#ff7044"/><stop offset="1" stop-color="#f82814"/></linearGradient><linearGradient id="SVGID_5_" gradientTransform="matrix(.617 .787 -.787 .617 1433.996 959.196)" gradientUnits="userSpaceOnUse" x1="-1412.47" x2="-1368.1" xlink:href="#lg3" y1="555.27" y2="633.927"/><linearGradient id="SVGID_6_" gradientUnits="userSpaceOnUse" x1="446.91" x2="454.524" xlink:href="#lg1" y1="136.798" y2="155.832"/><linearGradient id="SVGID_7_" gradientUnits="userSpaceOnUse" x1="426.705" x2="482.707" xlink:href="#lg1" y1="70.41" y2="151.867"/><linearGradient id="SVGID_8_" gradientUnits="userSpaceOnUse" x1="228.882" x2="426.956" y1="131.411" y2="419.517"><stop offset="0" stop-color="#ff7044"/><stop offset=".2134" stop-color="#fe673e"/><stop offset=".5565" stop-color="#fc502f"/><stop offset=".9846" stop-color="#f82a15"/><stop offset="1" stop-color="#f82814"/></linearGradient><linearGradient id="SVGID_9_" gradientUnits="userSpaceOnUse" x1="330.004" x2="407.618" y1="52.517" y2="165.41"><stop offset="0" stop-color="#f8f6fb"/><stop offset="1" stop-color="#efdcfb"/></linearGradient><linearGradient id="SVGID_10_" gradientUnits="userSpaceOnUse" x1="409.572" x2="270.146" y1="366.528" y2="243.863"><stop offset="0" stop-color="#f82814" stop-opacity="0"/><stop offset="1" stop-color="#c0272d"/></linearGradient><linearGradient id="SVGID_11_" gradientUnits="userSpaceOnUse" x1="317.729" x2="337.538" xlink:href="#lg1" y1="289.226" y2="312.636"/><linearGradient id="SVGID_12_" gradientTransform="matrix(.999 -.034 .034 .999 696.722 -143.781)" gradientUnits="userSpaceOnUse" x1="-460.014" x2="-400.849" xlink:href="#lg2" y1="318.831" y2="423.714"/><linearGradient id="SVGID_13_" gradientTransform="matrix(.993 .121 -.121 .993 1474.049 -226.501)" gradientUnits="userSpaceOnUse" x1="-1169.9" x2="-1110.735" xlink:href="#lg3" y1="541.324" y2="646.207"/><linearGradient id="SVGID_14_" gradientUnits="userSpaceOnUse" x1="373.526" x2="402.962" y1="90.166" y2="119.602"><stop offset="0" stop-color="#8a7889"/><stop offset="1" stop-color="#6e566e"/></linearGradient><linearGradient id="SVGID_15_" gradientUnits="userSpaceOnUse" x1="382.819" x2="414.06" y1="107.38" y2="49.277"><stop offset="0" stop-color="#6e566e" stop-opacity="0"/><stop offset=".0471" stop-color="#6e566e" stop-opacity=".047"/><stop offset="1" stop-color="#6e566e"/></linearGradient><linearGradient id="SVGID_16_" gradientUnits="userSpaceOnUse" x1="326.7" x2="326.7" y1="467.51" y2="506.855"><stop offset="0" stop-color="#fcb37e"/><stop offset=".156" stop-color="#f3ac78"/><stop offset=".4123" stop-color="#da9a69"/><stop offset=".735" stop-color="#b27e50"/><stop offset="1" stop-color="#8c6239"/></linearGradient><linearGradient id="lg4"><stop offset="0" stop-color="#8c6239" stop-opacity="0"/><stop offset="1" stop-color="#8c6239"/></linearGradient><linearGradient id="SVGID_17_" gradientUnits="userSpaceOnUse" x1="382.353" x2="351.54" xlink:href="#lg4" y1="493.794" y2="409.759"/><linearGradient id="SVGID_18_" gradientUnits="userSpaceOnUse" x1="379.239" x2="368.334" xlink:href="#lg4" y1="490.199" y2="420.97"/><linearGradient id="SVGID_19_" gradientUnits="userSpaceOnUse" x1="351.777" x2="343.974" xlink:href="#lg1" y1="456.464" y2="470.87"/><linearGradient id="SVGID_20_" gradientUnits="userSpaceOnUse" x1="319.099" x2="312.196" xlink:href="#lg1" y1="455.65" y2="472.457"/><g><path d="m325.169 400.492h34.133v66.838h-34.133z" fill="url(#SVGID_1_)"/><path d="m294.098 400.492h34.133v66.838h-34.133z" fill="url(#SVGID_2_)"/><g><g><path d="m4.45 255.441c-6.053 5.76-5.916 15.569.323 21.126 4.698 4.185 9.725 8.11 15.077 11.736 57.008 38.629 131.801 30.842 179.725-14.765 6.053-5.76 5.916-15.569-.323-21.126-4.699-4.185-9.725-8.11-15.077-11.736-57.008-38.628-131.801-30.841-179.725 14.765z" fill="url(#SVGID_3_)"/><path d="m8.229 226.115c-6.872 4.753-8.256 14.465-2.952 20.922 3.994 4.862 8.352 9.518 13.077 13.929 50.338 46.991 125.435 50.879 179.843 13.243 6.872-4.753 8.256-14.465 2.952-20.921-3.994-4.862-8.352-9.518-13.077-13.929-50.337-46.992-125.435-50.88-179.843-13.244z" fill="url(#SVGID_4_)"/><path d="m16.505 197.727c-7.525 3.632-10.396 13.012-6.156 20.212 3.193 5.422 6.778 10.696 10.763 15.786 42.455 54.219 116.044 69.689 175.623 40.932 7.525-3.632 10.396-13.012 6.156-20.212-3.193-5.422-6.778-10.697-10.763-15.786-42.454-54.219-116.044-69.688-175.623-40.932z" fill="url(#SVGID_5_)"/></g><g><path d="m453.385 156.668h-31.432v-32.991h52.613v11.809c.001 11.698-9.483 21.182-21.181 21.182z" fill="url(#SVGID_6_)"/><path d="m421.953 75.784v62.366h57.269c8.534 0 16.702 2.974 22.634 8.24 2.961 2.629 8.144.829 8.144-2.827v-11.172c0-31.263-29.523-56.607-65.941-56.607z" fill="url(#SVGID_7_)"/></g><path d="m217.854 114.023v92.684h-51.788c-30.874 0-55.903 25.028-55.903 55.903 0 90.35 73.243 163.593 163.593 163.593 90.35 0 163.593-73.243 163.593-163.593v-148.587c0-60.612-49.136-109.748-109.748-109.748-60.611-.001-109.747 49.135-109.747 109.748z" fill="url(#SVGID_8_)"/><path d="m437.35 156.555v-42.533c0-11.284-1.704-22.169-4.868-32.413-7.697-24.921-30.447-42.552-56.529-42.356-.822.006-1.647.026-2.475.059-39.23 1.565-70.808 34.01-71.376 73.267-.603 41.612 32.949 75.534 74.423 75.534 25.138.001 47.349-12.474 60.825-31.558z" fill="url(#SVGID_9_)"/><path d="m437.35 262.609v-51.556l-46.126-46.125c-2.477-3.121-107.283 4.574-111.443 3.497-8.123-2.102-61.928 38.282-61.928 38.282s-50.454 46.212-60.384 74.67c-2.772 7.945-5.503 15.703.691 20.607 0 0 12.626 12.691 12.777 12.866-.02.109-.043.217-.063.327-1.314 7.211 1.651 14.187 6.979 18.439l17.69 17.848c1.043 4.188 3.449 7.85 6.736 10.45l64.117 64.117c2.441.108 4.893.173 7.36.173 90.351-.001 163.594-73.245 163.594-163.595z" fill="url(#SVGID_10_)"/><g><path d="m194.962 346.392c-.276 11.138 9.101 20.258 20.224 19.615 8.376-.484 16.816-1.523 25.281-3.15 90.173-17.329 153.352-95.192 155.537-183.379.276-11.138-9.101-20.258-20.224-19.615-8.376.484-16.817 1.523-25.281 3.15-90.174 17.328-153.352 95.192-155.537 183.379z" fill="url(#SVGID_11_)"/><path d="m170.874 315.177c-1.997 10.961 5.855 21.423 16.943 22.51 8.35.819 16.849 1.099 25.463.803 91.769-3.156 166.242-70.298 182.057-157.083 1.997-10.961-5.854-21.423-16.943-22.51-8.35-.819-16.85-1.099-25.464-.803-91.768 3.156-166.241 70.297-182.056 157.083z" fill="url(#SVGID_12_)"/><path d="m151.911 280.608c-3.671 10.52 2.467 22.071 13.253 24.862 8.122 2.102 16.476 3.695 25.032 4.736 91.151 11.092 175.123-43.707 204.185-126.997 3.671-10.519-2.467-22.071-13.253-24.862-8.123-2.102-16.476-3.695-25.032-4.736-91.151-11.093-175.123 43.707-204.185 126.997z" fill="url(#SVGID_13_)"/></g><g><path d="m404.757 98.67c0 12.552-10.176 22.728-22.728 22.728s-22.727-10.176-22.727-22.728 10.175-22.728 22.727-22.728c12.553 0 22.728 10.175 22.728 22.728z" fill="url(#SVGID_14_)"/><path d="m392.196 78.339c1.533 3.059 2.397 6.512 2.397 10.167 0 12.552-10.176 22.728-22.728 22.728-3.655 0-7.108-.864-10.167-2.397 3.731 7.448 11.433 12.561 20.33 12.561 12.552 0 22.728-10.176 22.728-22.728.001-8.898-5.112-16.6-12.56-20.331z" fill="url(#SVGID_15_)"/></g></g><path d="m447.773 505.726h-242.146c-11.398 0-20.639-9.24-20.639-20.639 0-11.398 9.24-20.639 20.639-20.639h242.145c11.398 0 20.639 9.24 20.639 20.639 0 11.398-9.24 20.639-20.638 20.639z" fill="url(#SVGID_16_)"/><path d="m447.773 464.448h-166.78l41.278 41.278h125.503c11.398 0 20.639-9.24 20.639-20.639-.002-11.399-9.242-20.639-20.64-20.639z" fill="url(#SVGID_17_)"/><path d="m372.411 464.448h-29.233l41.278 41.278h29.232z" fill="url(#SVGID_18_)"/><path d="m376.255 474.471c0 4.502-3.614 8.452-8.44 8.452-3.698 0-6.867-2.437-8.055-5.931-2.377-7.023-8.848-12.149-16.579-12.545h-31.117c6.231-10.132 17.419-16.891 30.169-16.891 12.761 0 23.95 6.759 30.181 16.891 1.393 2.281 2.545 4.73 3.397 7.323.3.9.444 1.813.444 2.701z" fill="url(#SVGID_19_)"/><path d="m345.182 474.471c0 4.502-3.614 8.452-8.44 8.452-3.698 0-6.867-2.437-8.055-5.931-2.377-7.023-8.848-12.149-16.579-12.545h-31.117c6.231-10.132 17.419-16.891 30.169-16.891 12.761 0 23.95 6.759 30.181 16.891 1.393 2.281 2.545 4.73 3.397 7.323.3.9.444 1.813.444 2.701z" fill="url(#SVGID_20_)"/></g></svg>