<?xml version="1.0" encoding="iso-8859-1"?>
<!-- Generator: Adobe Illustrator 19.0.0, SVG Export Plug-In . SVG Version: 6.00 Build 0)  -->
<svg version="1.1" id="Capa_1" xmlns="http://www.w3.org/2000/svg" xmlns:xlink="http://www.w3.org/1999/xlink" x="0px" y="0px"
	 viewBox="0 0 512.001 512.001" style="enable-background:new 0 0 512.001 512.001;" xml:space="preserve">
<path style="fill:#414B82;" d="M183.565,374.825l-50.686-20.775l-0.612-137.032c-0.071-15.897-12.576-27.044-26.723-26.976
	l-47.423,0.226c-14.684,0.07-26.532,12.028-26.467,26.712l0.538,120.4c0.072,16.113,11.307,30.022,27.044,33.48l10.982,2.413H21.274
	c-11.265,0-20.86,8.76-21.26,20.018c-0.42,11.82,9.037,21.533,20.762,21.533h154.382c9.409,0,17.964-6.054,20.516-15.11
	C198.567,389.445,193.268,378.803,183.565,374.825z"/>
<path style="fill:#64AFFF;" d="M31.655,216.98l0.541,120.54c0.051,5.953,1.624,11.602,4.386,16.529h96.297l-0.612-137.032
	c-0.072-16.046-12.731-27.045-26.723-26.976l-47.423,0.226C43.437,190.338,31.589,202.296,31.655,216.98z"/>
<g>
	<circle style="fill:#FFB69E;" cx="88.406" cy="136.543" r="39.366"/>
	<path style="fill:#FFB69E;" d="M205.682,267.81l-68.747,18.75c-5.763,1.571-11.928,0.154-16.427-3.775l-65.416-57.147
		c-7.419-6.48-8.179-17.748-1.697-25.167c6.476-7.423,17.748-8.179,25.167-1.697l58.215,50.855l59.521-16.233
		c9.503-2.592,19.308,3.01,21.9,12.515C220.786,255.402,215.194,265.217,205.682,267.81z"/>
</g>
<path style="fill:#78BEFF;" d="M111.2,227.287l-32.64-28.514c-7.419-6.48-18.691-5.725-25.167,1.697
	c-6.48,7.419-5.721,18.686,1.697,25.167l33.317,29.105L111.2,227.287z"/>
<path style="fill:#414B82;" d="M328.436,374.825l50.686-20.775l0.612-137.032c0.071-15.897,12.576-27.044,26.723-26.976
	l47.423,0.226c14.684,0.07,26.532,12.028,26.467,26.712l-0.538,120.4c-0.072,16.113-11.307,30.022-27.045,33.48l-10.982,2.413
	h48.945c11.265,0,20.86,8.76,21.26,20.018c0.42,11.82-9.037,21.533-20.762,21.533H336.842c-9.409,0-17.964-6.054-20.516-15.11
	C313.433,389.445,318.732,378.803,328.436,374.825z"/>
<path style="fill:#FF3C3C;" d="M480.346,216.98l-0.541,120.54c-0.051,5.953-1.624,11.602-4.386,16.529h-96.297l0.612-137.032
	c0.069-15.498,12.097-27.049,26.723-26.976l47.423,0.226C468.564,190.338,480.412,202.296,480.346,216.98z"/>
<g>
	<circle style="fill:#BA6746;" cx="423.591" cy="136.543" r="39.366"/>
	<path style="fill:#BA6746;" d="M354.186,331.47l69.64-15.102c5.837-1.266,10.652-5.369,12.83-10.931l31.65-80.891
		c3.589-9.173-0.938-19.52-10.111-23.109c-9.171-3.595-19.52,0.938-23.109,10.111l-28.166,71.985l-60.295,13.076
		c-9.627,2.088-15.738,11.583-13.65,21.211C335.06,327.435,344.551,333.56,354.186,331.47z"/>
</g>
<path style="fill:#FF6248;" d="M419.293,251.91l15.792-40.361c3.589-9.173,13.938-13.706,23.109-10.111
	c9.173,3.589,13.7,13.936,10.111,23.109l-16.12,41.198L419.293,251.91z"/>
<g>
	<path style="fill:#C8E6EB;" d="M274.112,224.526c-0.215-14.21,6.265-24.931,6.265-24.931c-0.12,0.055-10.182,2.809-17.026,11.364
		c-16.399,20.254-2.143,44.437-0.693,59.156c1.172,11.9-6.239,24.827-6.239,24.827c0.694-0.377,12.211-3.232,19.831-15.315
		C288.01,259.225,274.32,238.309,274.112,224.526z"/>
	<path style="fill:#C8E6EB;" d="M308.804,184.117c-0.134-8.871,3.911-15.564,3.911-15.564c-0.075,0.034-6.357,1.753-10.629,7.095
		c-10.237,12.644-1.338,27.741-0.433,36.929c0.732,7.429-3.895,15.499-3.895,15.499c0.433-0.234,7.623-2.018,12.38-9.561
		C317.481,205.778,308.935,192.722,308.804,184.117z"/>
</g>
<path style="fill:#6C9BAA;" d="M190.523,315.098c0.192,27.994,29.545,50.642,65.735,50.642c36.19,0,65.543-22.649,65.735-50.642
	H190.523z"/>
<path style="fill:#3C5A73;" d="M293.978,414.824c-6.433,0-11.648-5.214-11.648-11.648v-25.789h-52.147v25.789
	c0,6.433-5.214,11.648-11.648,11.648c-6.433,0-11.648-5.214-11.648-11.648V365.74c0-6.433,5.214-11.648,11.648-11.648h75.442
	c6.433,0,11.648,5.214,11.648,11.648v37.436C305.626,409.609,300.411,414.824,293.978,414.824z"/>
<g>
</g>
<g>
</g>
<g>
</g>
<g>
</g>
<g>
</g>
<g>
</g>
<g>
</g>
<g>
</g>
<g>
</g>
<g>
</g>
<g>
</g>
<g>
</g>
<g>
</g>
<g>
</g>
<g>
</g>
</svg>
