<svg id="Capa_1" enable-background="new 0 0 512 512" height="512" viewBox="0 0 512 512" width="512" xmlns="http://www.w3.org/2000/svg"><g><g><path d="m428.748 349.059c-4.267 0-7.726-3.459-7.726-7.726v-94.108c0-9.054-3.526-17.567-9.93-23.971l-20.067-20.067c-3.018-3.018-3.018-7.909 0-10.928 3.017-3.016 7.909-3.017 10.927.001l20.068 20.067c9.322 9.323 14.455 21.716 14.455 34.897v94.108c-.001 4.269-3.46 7.727-7.727 7.727z" fill="#454045"/></g><g><path d="m83.252 349.059c-4.267 0-7.726-3.459-7.726-7.726v-94.108c0-13.181 5.133-25.574 14.455-34.896l20.068-20.068c3.017-3.018 7.909-3.017 10.927-.001 3.018 3.018 3.018 7.909 0 10.928l-20.068 20.068c-6.403 6.402-9.929 14.915-9.929 23.97v94.108c-.001 4.267-3.46 7.725-7.727 7.725z" fill="#454045"/></g><circle cx="396.488" cy="197.724" fill="#665e66" r="14.569"/><circle cx="115.512" cy="197.724" fill="#665e66" r="14.569"/><g><path d="m283.057 208.13 62.382 16.721c22.746 6.097 38.561 26.71 38.561 50.258v66.224h-256v-66.224c0-23.549 15.816-44.162 38.561-50.258l62.382-16.721z" fill="#f6f9f9"/><path d="m266.406 284.098 20.814 57.235h-61.273l19.646-57.235z" fill="#e28086"/><path d="m281.405 256.358-25.405-21.171-25.405 21.171 14.998 27.74h20.813z" fill="#dd636e"/><path d="m228.943 208.13-31.864 8.541 12.658 45.708c1.198 4.327 6.465 5.973 9.914 3.099l36.349-30.291v-27.057z" fill="#dfeaef"/><path d="m283.057 208.13 31.864 8.541-12.658 45.708c-1.198 4.327-6.465 5.973-9.914 3.099l-36.349-30.291v-27.057z" fill="#dfeaef"/><path d="m353.587 227.778c2.839 6.452 4.396 13.55 4.396 20.937v92.618h26.017v-66.224c0-20.619-12.126-38.987-30.413-47.331z" fill="#f1f4f6"/><path d="m256 235.187c-14.943 0-27.057-12.114-27.057-27.057v-33.301h54.114v33.301c0 14.943-12.114 27.057-27.057 27.057z" fill="#f1d0a5"/><path d="m228.943 196.075c8.445 3.084 17.558 4.77 27.057 4.77s18.612-1.686 27.057-4.77v-21.246h-54.114z" fill="#f1b986"/><path d="m195.642 61.398v60.358c0 33.335 27.023 60.358 60.358 60.358s60.358-27.023 60.358-60.358v-60.358z" fill="#f1d0a5"/><path d="m295.545 61.398v81.171c0 11.33-3.128 21.927-8.559 30.986 17.593-10.547 29.372-29.795 29.372-51.799v-60.358z" fill="#f1b986"/><path d="m297.626 82.211h18.732v-40.585c0-12.644-10.25-22.894-22.894-22.894h-16.65v42.667c-.001 11.494 9.317 20.812 20.812 20.812z" fill="#544f57"/><path d="m256 82.211h-60.358v-40.585c0-22.989 18.637-41.626 41.626-41.626h20.813c10.345 0 18.732 8.386 18.732 18.732v42.667c0 11.494-9.318 20.812-20.813 20.812z" fill="#665e66"/></g><g><path d="m501.594 376.715h-491.187c-5.748 0-10.407-4.659-10.407-10.406v-14.569c0-5.747 4.659-10.406 10.407-10.406h491.187c5.747 0 10.406 4.659 10.406 10.406v14.569c0 5.747-4.659 10.406-10.406 10.406z" fill="#665e66"/><path d="m501.594 341.333h-29.138c5.747 0 10.406 4.659 10.406 10.406v14.569c0 5.747-4.659 10.407-10.406 10.407h29.138c5.747 0 10.406-4.659 10.406-10.407v-14.568c0-5.748-4.659-10.407-10.406-10.407z" fill="#544f57"/><path d="m480.78 412.098h-449.56c-5.747 0-10.407-4.659-10.407-10.406v-24.976h470.374v24.976c0 5.746-4.659 10.406-10.407 10.406z" fill="#c19d8e"/><path d="m459.967 376.715v24.976c0 5.747-4.659 10.406-10.406 10.406h31.22c5.747 0 10.406-4.659 10.406-10.406v-24.976z" fill="#b78b7a"/><path d="m460.072 512h-408.144c-5.69 0-10.302-4.612-10.302-10.302v-89.601h428.748v89.601c0 5.69-4.612 10.302-10.302 10.302z" fill="#b78b7a"/><path d="m41.626 412.098v27.057h395.447c3.448 0 6.244 2.795 6.244 6.244v66.601h16.755c5.69 0 10.302-4.612 10.302-10.302v-89.601h-428.748z" fill="#aa7a63"/><path d="m83.252 412.098h345.496v99.902h-345.496z" fill="#c19d8e"/><path d="m83.252 412.098h345.496v27.057h-345.496z" fill="#b78b7a"/></g><path d="m491.187 0h-120.715c-11.495 0-20.813 9.318-20.813 20.813v83.252c0 11.495 9.318 20.813 20.813 20.813h5.266c3.414 0 6.181 2.767 6.181 6.181v14.579c0 5.464 6.569 8.241 10.488 4.434l24.136-23.446c1.154-1.121 2.699-1.748 4.307-1.748h70.338c11.495 0 20.813-9.318 20.813-20.813v-83.252c-.001-11.495-9.319-20.813-20.814-20.813z" fill="#cbe2ff"/><g fill="#dfeaef"><path d="m175.428 341.333v-20.813c0-4.268 3.459-7.726 7.726-7.726s7.726 3.459 7.726 7.726v20.813z"/><path d="m321.119 341.333v-20.813c0-4.268 3.459-7.726 7.726-7.726s7.726 3.459 7.726 7.726v20.813z"/></g></g></svg>