<?xml version="1.0" encoding="iso-8859-1"?>
<!-- Generator: Adobe Illustrator 19.0.0, SVG Export Plug-In . SVG Version: 6.00 Build 0)  -->
<svg version="1.1" id="Capa_1" xmlns="http://www.w3.org/2000/svg" xmlns:xlink="http://www.w3.org/1999/xlink" x="0px" y="0px"
	 viewBox="0 0 512 512" style="enable-background:new 0 0 512 512;" xml:space="preserve">
<circle style="fill:#662E57;" cx="256" cy="256" r="256"/>
<path style="fill:#590F38;" d="M512,256c0-16.936-1.661-33.481-4.8-49.498l-71.264-71.517l-2.978,4.02L375,81.167L107.237,381.433
	l129.871,129.872C243.347,511.76,249.645,512,256,512C397.385,512,512,397.385,512,256z"/>
<path style="fill:#FFFFFF;" d="M345.25,394.5H137V81.167h238V364.75C375,381.18,361.68,394.5,345.25,394.5z"/>
<g>
	<path style="fill:#E0E0E0;" d="M255.952,81.167V394.5h89.298c16.43,0,29.75-13.319,29.75-29.75V81.167H255.952z"/>
	<path style="fill:#E0E0E0;" d="M345,334.5c-16.569,0-30,13.431-30,30s13.431,30,30,30H132c-16.569,0-30-13.431-30-30
		s13.431-30,30-30H345z"/>
</g>
<path style="fill:#C0C0C0;" d="M315,364.5c0-16.568,13.431-30,30-30h-89.048v60H345C328.431,394.5,315,381.068,315,364.5z"/>
<path style="fill:#FFCF35;" d="M253.695,287.916c0,0,28.971-115.14,140.768-147.454s-33.799,55.713-33.799,55.713
	s30.921-12.257,33.985-0.557c4.474,17.081-50.977,25.628-134.268,94.155L253.695,287.916z"/>
<path style="fill:#FFB344;" d="M394.464,140.462c-24.308,7.026-44.696,17.969-61.726,30.792v67.725
	c41.061-24.318,64.905-31.93,61.911-43.361c-3.064-11.7-33.985,0.557-33.985,0.557S506.261,108.149,394.464,140.462z"/>
<polygon style="fill:#FFECB3;" points="253.695,287.916 242.553,314.102 249.61,316.144 260.381,289.773 "/>
<g>
</g>
<g>
</g>
<g>
</g>
<g>
</g>
<g>
</g>
<g>
</g>
<g>
</g>
<g>
</g>
<g>
</g>
<g>
</g>
<g>
</g>
<g>
</g>
<g>
</g>
<g>
</g>
<g>
</g>
</svg>
