<svg id="Capa_1" enable-background="new 0 0 512 512" height="512" viewBox="0 0 512 512" width="512" xmlns="http://www.w3.org/2000/svg"><g><g><path d="m492.066 20.902c-2.643-8.721-11.858-13.648-20.577-11.004l-449.089 136.117c-.031.01-.06.023-.091.033v31.513c1.561.485 3.2.749 4.871.749 1.585 0 3.197-.23 4.792-.714l449.09-136.118c8.721-2.643 13.648-11.855 11.004-20.576z" fill="#544f56"/></g><g><path d="m60.54 502.824h-19.408c-2.282 0-4.132-1.85-4.132-4.132v-192.018h57.088l-29.464 192.643c-.308 2.017-2.043 3.507-4.084 3.507z" fill="#8c818f"/></g><g><path d="m22.5 146.207h467v160.362h-467z" fill="#544f56"/></g><g><path d="m459.5 146.207h30v160.362h-30z" fill="#444145"/></g><g><path d="m468.231 216.154v58.071h-424.462v-58.071h-36.269v58.071 32.343h36.269 424.462 36.269v-32.343-58.071z" fill="#8c818f"/></g><g><path d="m474.5 216.154v58.071 32.343h30v-32.343-58.071z" fill="#766d78"/></g><g><path d="m43.769 240.62h30.319v33.605h-30.319z" fill="#f7f7f7"/></g><g><path d="m74.088 240.62h30.319v33.605h-30.319z" fill="#f7f7f7"/></g><g><path d="m104.406 240.62h30.319v33.605h-30.319z" fill="#f7f7f7"/></g><g><path d="m134.725 240.62h30.319v33.605h-30.319z" fill="#f7f7f7"/></g><g><path d="m165.044 240.62h30.319v33.605h-30.319z" fill="#f7f7f7"/></g><g><path d="m195.363 240.62h30.319v33.605h-30.319z" fill="#f7f7f7"/></g><g><path d="m225.681 240.62h30.319v33.605h-30.319z" fill="#f7f7f7"/></g><g><path d="m256 240.62h30.319v33.605h-30.319z" fill="#f7f7f7"/></g><g><path d="m286.319 240.62h30.319v33.605h-30.319z" fill="#f7f7f7"/></g><g><path d="m316.637 240.62h30.319v33.605h-30.319z" fill="#f7f7f7"/></g><g><path d="m346.956 240.62h30.319v33.605h-30.319z" fill="#f7f7f7"/></g><g><path d="m377.275 240.62h30.319v33.605h-30.319z" fill="#f7f7f7"/></g><g><path d="m407.593 240.62h30.319v33.605h-30.319z" fill="#f7f7f7"/></g><g><path d="m437.912 240.62h30.319v33.605h-30.319z" fill="#f7f7f7"/></g><g><path d="m205.252 502.824h-15.579c-1.832 0-3.316-1.046-3.316-2.336v-108.556h45.824l-23.65 108.91c-.248 1.14-1.641 1.982-3.279 1.982z" fill="#704c3b"/></g><g><path d="m320.748 502.824h15.579c1.832 0 3.316-1.046 3.316-2.336v-108.556h-45.824l23.65 108.91c.248 1.14 1.641 1.982 3.279 1.982z" fill="#704c3b"/></g><g><path d="m451.46 502.824h19.409c2.282 0 4.132-1.85 4.132-4.132v-192.018h-57.088l29.464 192.643c.307 2.017 2.042 3.507 4.083 3.507z" fill="#766d78"/></g><g><path d="m170.046 181.1h171.909v25.054h-171.909z" fill="#f7f7f7"/></g><g><path d="m340.485 419.144h-158.061c-11.832 0-21.424-9.592-21.424-21.424v-16.365c0-11.832 9.592-21.424 21.424-21.424h158.061c11.832 0 21.424 9.592 21.424 21.424v16.365c0 11.832-9.592 21.424-21.424 21.424z" fill="#c27e4e"/></g><g><path d="m340.485 359.93h-30c11.832 0 21.424 9.592 21.424 21.424v16.365c0 11.832-9.592 21.424-21.424 21.424h30c11.832 0 21.424-9.592 21.424-21.424v-16.365c0-11.832-9.592-21.424-21.424-21.424z" fill="#b36d3c"/></g><g><path d="m504.5 208.654h-7.5v-62.447c0-4.142-3.358-7.5-7.5-7.5h-28.928v-83.181l22.665-6.87c6.135-1.86 11.178-5.997 14.202-11.65 3.023-5.653 3.664-12.145 1.805-18.28s-5.997-11.179-11.651-14.202c-5.655-3.024-12.146-3.664-18.279-1.804l-148.708 45.073c-3.964 1.201-6.204 5.389-5.003 9.353 1.202 3.964 5.391 6.202 9.353 5.002l148.71-45.074c2.299-.698 4.733-.457 6.853.677 2.121 1.134 3.672 3.025 4.369 5.326.698 2.301.457 4.735-.676 6.854-1.134 2.12-3.025 3.671-5.326 4.369l-28.003 8.488c-.024.007-.048.014-.073.022 0 0-315.79 95.75-316.105 95.896h-62.336l223.861-67.852c3.964-1.201 6.204-5.389 5.002-9.353-1.202-3.965-5.392-6.203-9.353-5.002l-271.654 82.339c-3.631 1.101-5.807 4.707-5.225 8.352v61.465h-7.5c-4.142 0-7.5 3.358-7.5 7.5v90.414c0 4.142 3.358 7.5 7.5 7.5h22v184.625c0 6.414 5.218 11.631 11.631 11.631h19.409c5.787 0 10.623-4.152 11.498-9.873l28.506-186.383h79.659c4.142 0 7.5-3.358 7.5-7.5s-3.358-7.5-7.5-7.5h-165.203v-75.414h21.269v16.966 33.605c0 4.142 3.358 7.5 7.5 7.5h424.462c4.142 0 7.5-3.358 7.5-7.5v-33.606-16.966h21.269v75.414h-286.797c-4.142 0-7.5 3.358-7.5 7.5s3.358 7.5 7.5 7.5h201.253l28.506 186.383c.875 5.721 5.71 9.873 11.498 9.873h19.409c6.414 0 11.631-5.218 11.631-11.631v-184.625h22c4.142 0 7.5-3.358 7.5-7.5v-90.414c0-4.142-3.358-7.5-7.5-7.5zm-446.853 286.67h-13.147v-181.15h40.854zm409.853 0h-13.148l-27.706-181.15h40.854zm-21.928-435.252v78.634h-259.437zm-394.303 188.048h15.319v18.605h-15.319zm30.319 0h15.319v18.605h-15.319zm30.319 0h15.318v18.605h-15.318zm30.318 0h15.319v18.605h-15.319zm30.319 0h15.319v18.605h-15.319zm30.319 0h15.318v18.605h-15.318zm30.318 0h15.319v18.605h-15.319zm30.319 0h15.319v18.605h-15.319zm30.319 0h15.318v18.605h-15.318zm30.318 0h15.319v18.605h-15.319zm30.319 0h15.319v18.605h-15.319zm30.319 0h15.318v18.605h-15.318zm30.318 0h15.319v18.605h-15.319zm45.638 18.605h-15.319v-18.605h15.319zm7.5-58.071c-4.142 0-7.5 3.358-7.5 7.5v16.966h-409.462v-16.966c0-4.142-3.358-7.5-7.5-7.5h-13.769v-54.947h452v54.947z"/><path d="m341.955 173.6h-171.91c-4.142 0-7.5 3.358-7.5 7.5v25.054c0 4.142 3.358 7.5 7.5 7.5h171.909c4.142 0 7.5-3.358 7.5-7.5v-25.054c.001-4.142-3.357-7.5-7.499-7.5zm-7.5 25.054h-156.91v-10.054h156.909v10.054z"/><path d="m340.485 352.43h-158.061c-15.949 0-28.924 12.975-28.924 28.924v16.365c0 14.74 11.086 26.932 25.356 28.696v74.072c0 5.515 4.751 9.836 10.816 9.836h15.579c5.237 0 9.599-3.245 10.607-7.891l16.458-75.789h61.365l16.457 75.788c1.009 4.646 5.371 7.892 10.608 7.892h15.579c6.065 0 10.816-4.32 10.816-9.836v-74.627c12.748-3.016 22.266-14.485 22.266-28.142v-16.365c.002-15.947-12.973-28.923-28.922-28.923zm-138.431 142.894h-8.197v-68.68h23.111zm121.892 0-14.914-68.68h23.111v68.68zm30.463-97.604c0 7.678-6.247 13.924-13.924 13.924h-158.061c-7.678 0-13.924-6.246-13.924-13.924v-16.365c0-7.678 6.247-13.924 13.924-13.924h158.061c7.678 0 13.924 6.246 13.924 13.924z"/></g></g></svg>