<?xml version="1.0" encoding="iso-8859-1"?>
<!-- Generator: Adobe Illustrator 19.0.0, SVG Export Plug-In . SVG Version: 6.00 Build 0)  -->
<svg version="1.1" id="Capa_1" xmlns="http://www.w3.org/2000/svg" xmlns:xlink="http://www.w3.org/1999/xlink" x="0px" y="0px"
	 viewBox="0 0 512 512" style="enable-background:new 0 0 512 512;" xml:space="preserve">
<circle style="fill:#E8E8E8;" cx="256" cy="256" r="256"/>
<g>
	<path style="fill:#535B70;" d="M285.407,150.59c-3.72-2.476-10.898-4.953-21.556-7.429v-0.251
		c6.687-0.742,12.142-0.993,16.353-0.993c2.476,0,5.454,0,8.923,0.251c11.64-17.596,17.596-33.949,17.596-48.567
		c0-6.938-1.243-13.385-3.971-19.331c-17.095-25.025-41.629-43.123-74.094-53.77c-17.095,1.735-31.963,4.953-44.607,8.913
		c-22.789,7.189-42.862,16.363-59.967,28.254c-8.673,4.953-22.298,15.611-39.393,33.207C45.289,132.001,26.46,168.928,26.46,200.4
		c0,7.189,1.233,14.367,3.469,21.305c0.982,5.705,7.931,17.345,22.298,33.458c12.392,13.876,22.549,21.807,29.236,25.025
		c0,0.251-2.476,1.985-7.429,4.462c-9.665,4.953-22.298,13.134-36.425,26.52c-12.413,11.703-19.769,21.556-23.625,28.463
		c14.012,40.563,37.94,76.507,68.88,104.929c4.086,0.606,8.244,0.909,12.476,0.909h3.469c31.974,0,69.392-16.603,108.544-54.021
		c31.472-29.978,44.847-51.294,44.847-59.465v-0.502c0-5.204-2.968-8.171-9.164-8.923c-2.476,0.251-5.705,1.243-9.916,2.978
		c-60.709,44.857-109.526,67.406-146.453,67.406h-2.968c-19.822,0-30.48-4.963-32.214-10.658v-0.742
		c0-2.236,3.218-7.189,9.415-14.629c9.415-9.415,16.603-15.611,21.556-18.829c14.378-9.906,32.956-17.095,55.505-21.807
		c9.174,3.971,17.356,5.945,24.043,5.945c2.727-0.24,5.454-0.491,7.931-0.993c10.648-4.211,15.851-13.625,15.851-27.753v-1.484
		c0-11.4-4.953-22.549-15.109-33.207c-4.211-6.196-10.909-9.164-20.072-9.164c-9.665,0-21.807,2.476-36.425,7.189
		c-4.211-2.236-8.182-4.963-11.901-8.182c-12.633-13.625-19.08-27.502-19.08-41.88v-3.469c0-23.291,15.12-49.81,47.334-76.319
		c46.341-37.919,85.494-55.265,114.981-55.265c1.484,0,3.72,0,6.687,0.251v2.978c0,13.625-6.938,30.229-20.814,49.56
		c-2.226-0.251-3.96-0.251-4.953-0.251h-1.243c-7.189,0-13.375,0.251-18.338,0.742c-14.869,0-25.516,3.469-31.713,10.658
		c-6.938,7.68-12.392,17.596-16.603,30.229c0.251,0,0.251,0,0.251,0.251c12.382-1.494,22.789-2.236,30.971-2.236h2.727
		c0.742,0,1.484,0,2.226-0.24c0.742,0.24,1.494,0.24,2.236,0.24h2.226c26.52,0,55.265,5.204,86.235,15.611h0.491
		c3.229-10.898,4.963-20.072,4.963-27.251l-0.742-6.938C290.119,154.059,288.625,152.575,285.407,150.59z"/>
	<circle style="fill:#535B70;" cx="324.211" cy="223.723" r="29.32"/>
</g>
<path style="fill:#FFCF4B;" d="M452.862,308.233l-44.607,44.617l-47.156-47.156c-1.63-1.63-3.323-3.166-5.078-4.598
	c-19.32-15.82-45.955-20.125-69.339-10.459c-0.157,0.063-0.324,0.136-0.481,0.199c1.954-33.656-8.464-72.579-23.092-107.05
	l4.284-4.274l33.27,33.28c-1.954,6.322-0.428,13.49,4.577,18.495c7.429,7.429,19.623,7.189,26.739-0.731
	c0.042-0.042,0.084-0.094,0.125-0.136c5.987-6.771,6.113-17.147,0.261-24.043c-5.015-5.914-12.769-7.826-19.56-5.726l-33.28-33.28
	l4.284-4.274c34.471,14.629,73.383,25.046,107.039,23.092c-0.063,0.157-0.125,0.324-0.188,0.481
	c-10.553,25.516-4.472,54.888,15.047,74.418L452.862,308.233z"/>
<path style="fill:#F44E72;" d="M500.164,333.154c-0.857,2.727-1.755,5.433-2.706,8.119c-6.06,17.157-13.897,33.468-23.28,48.724
	c-1.912,3.103-3.877,6.154-5.904,9.165c-3.406,5.036-6.98,9.937-10.721,14.702c-1.996,2.55-4.044,5.057-6.144,7.523
	c-38.128-38.599-67.626-77.542-83.341-107.917c-0.282-0.543-0.564-1.087-0.836-1.64c-1.003-1.975-1.954-3.929-2.832-5.841
	l11.912-11.901l28.641-28.63l0.084-0.084c0.031,0.01,0.073,0.021,0.105,0.031h0.01c2.393,1.118,4.838,2.33,7.356,3.626
	c0.805,0.418,1.599,0.836,2.414,1.275C439.539,283.417,469.465,305.245,500.164,333.154z"/>
<path style="fill:#E22952;" d="M468.838,398.314c-0.188,0.282-0.376,0.564-0.564,0.846c-3.406,5.036-6.98,9.937-10.721,14.702
	c-1.996,2.55-4.044,5.057-6.144,7.523c-38.128-38.599-67.626-77.542-83.341-107.917c-0.282-0.543-0.564-1.087-0.836-1.641
	c-1.003-1.975-1.954-3.929-2.832-5.841l11.912-11.901c1.515,2.038,3.103,4.159,4.786,6.353c9.54,12.413,21.849,27.136,36.268,43.29
	C432.465,360.666,449.884,379.182,468.838,398.314z"/>
<path style="fill:#EFAA3A;" d="M373.178,271.756l-17.157,29.341c-19.32-15.82-45.955-20.125-69.339-10.459
	c-0.157,0.063-0.324,0.136-0.481,0.199c1.954-33.656-8.464-72.579-23.092-107.05l4.284-4.274l33.27,33.28
	c-1.954,6.322-0.428,13.49,4.577,18.495c7.429,7.429,19.623,7.189,26.739-0.731L373.178,271.756z"/>
<path style="fill:#C46B35;" d="M415.662,265.873l-49.774,49.774c-5.053,5.053-13.246,5.053-18.3,0l0,0
	c-5.053-5.053-5.053-13.246,0-18.3l49.774-49.774c5.053-5.053,13.246-5.053,18.3,0l0,0
	C420.716,252.627,420.716,260.82,415.662,265.873z"/>
<path style="fill:#AF5A2A;" d="M361.734,301.501c-5.053-5.053-5.053-13.246,0-18.299l-14.146,14.146
	c-5.053,5.053-5.053,13.246,0,18.299c5.053,5.053,13.246,5.053,18.3,0l14.146-14.146
	C374.98,306.554,366.787,306.554,361.734,301.501z"/>
<g>
</g>
<g>
</g>
<g>
</g>
<g>
</g>
<g>
</g>
<g>
</g>
<g>
</g>
<g>
</g>
<g>
</g>
<g>
</g>
<g>
</g>
<g>
</g>
<g>
</g>
<g>
</g>
<g>
</g>
</svg>
