<svg height="512" viewBox="0 0 64 64" width="512" xmlns="http://www.w3.org/2000/svg"><g id="Fill_Outline" data-name="Fill Outline"><g id="Color"><g><path d="m52.1 20.384-2.9 2.9a15.991 15.991 0 1 1 -21.427 22.716h-4.616a19.988 19.988 0 1 0 28.943-25.616z" fill="#d0d8da"/><path d="m49.2 23.283a16.092 16.092 0 0 1 3.8 3.161 3.981 3.981 0 0 0 2-3.444c0-.1-.022-.189-.029-.285a20.176 20.176 0 0 0 -2.87-2.331z" fill="#93999a"/><path d="m15 42h22a0 0 0 0 1 0 0v1a3 3 0 0 1 -3 3h-16a3 3 0 0 1 -3-3v-1a0 0 0 0 1 0 0z" fill="#d0d8da"/><path d="m22 36h8a4 4 0 0 1 4 4v2a0 0 0 0 1 0 0h-16a0 0 0 0 1 0 0v-2a4 4 0 0 1 4-4z" fill="#f9e109"/><g><path d="m40.151 8.849h12v18h-12z" fill="#d0d8da" transform="matrix(.707 .707 -.707 .707 26.139 -27.406)"/><path d="m33.665 23.335h8v6h-8z" fill="#93999a" transform="matrix(.707 .707 -.707 .707 29.653 -18.92)"/><path d="m31.776 27.724h4v5h-4z" fill="#93999a" transform="matrix(.707 .707 -.707 .707 31.264 -15.031)"/><path d="m51.636 6.364h6v6h-6z" fill="#d0d8da" transform="matrix(.707 .707 -.707 .707 22.624 -35.891)"/><g><path d="m51.1 17.385a10 10 0 0 1 -13.527.556l-2.03 2.03 8.485 8.485 12.729-12.728-2-2z" fill="#93999a"/><path d="m51.423 8.334-1.03 1.03 4.243 4.243 4.243-4.243-1.03-1.03a4.968 4.968 0 0 1 -6.426 0z" fill="#93999a"/><g fill="#656b76"><path d="m36.958 21.385-1.5 1.5.622.621a5 5 0 0 1 .7 6.182l1.6 1.6 4.242-4.242z"/><path d="m34.13 27.042-1.03 1.029a2.991 2.991 0 0 1 -.263 3.92l-.414.415 1 1 3.535-3.536z"/></g></g></g><path d="m31 57h20a2 2 0 0 1 2 2v2a0 0 0 0 1 0 0h-24a0 0 0 0 1 0 0v-2a2 2 0 0 1 2-2z" fill="#d0d8da"/><circle cx="51" cy="22" fill="#f9e109" r="4"/><path d="m24.352 25.956a12.989 12.989 0 1 0 -4.387 2.423l6.035 3.621z" fill="#aae1f9"/><path d="m19 17h3a0 0 0 0 1 0 0 4 4 0 0 1 -4 4h-2a0 0 0 0 1 0 0v-1a3 3 0 0 1 3-3z" fill="#f9e109"/><path d="m10 17h2a4 4 0 0 1 4 4 0 0 0 0 1 0 0h-3a3 3 0 0 1 -3-3v-1a0 0 0 0 1 0 0z" fill="#f9e109" transform="matrix(-1 0 0 -1 26 38)"/><path d="m19 13h3a0 0 0 0 1 0 0 4 4 0 0 1 -4 4h-2a0 0 0 0 1 0 0v-1a3 3 0 0 1 3-3z" fill="#f9e109"/><path d="m10 13h2a4 4 0 0 1 4 4 0 0 0 0 1 0 0h-3a3 3 0 0 1 -3-3v-1a0 0 0 0 1 0 0z" fill="#f9e109" transform="matrix(-1 0 0 -1 26 30)"/><g fill="#fcbc04"><path d="m18 19h-1.816a2.962 2.962 0 0 0 -.184 1v1h2a4 4 0 0 0 4-4h-.555a3.982 3.982 0 0 1 -3.445 2z"/><path d="m14 19a3.982 3.982 0 0 1 -3.445-2h-.555a4 4 0 0 0 4 4h2v-1a2.962 2.962 0 0 0 -.184-1z"/><path d="m18 15h-1.816a2.962 2.962 0 0 0 -.184 1v1h2a4 4 0 0 0 4-4h-.555a3.982 3.982 0 0 1 -3.445 2z"/><path d="m14 15a3.982 3.982 0 0 1 -3.445-2h-.555a4 4 0 0 0 4 4h2v-1a2.962 2.962 0 0 0 -.184-1z"/><path d="m25 39a3 3 0 0 1 -3-3 4 4 0 0 0 -4 4v2h16v-2a3.977 3.977 0 0 0 -.141-1z"/></g><path d="m20 44a2 2 0 0 1 -2-2h-3v1a3 3 0 0 0 3 3h16a2.99 2.99 0 0 0 2.816-2z" fill="#93999a"/><path d="m52 23a3.987 3.987 0 0 1 -3.966-3.662 3.994 3.994 0 1 0 6.966 2.662c0-.116-.024-.225-.034-.338a3.976 3.976 0 0 1 -2.966 1.338z" fill="#fcbc04"/><path d="m44.539 54.843a19.886 19.886 0 0 1 -14.011-3.481 1.829 1.829 0 0 1 -.387-2.621 16.083 16.083 0 0 1 -2.368-2.741h-4.616a19.99 19.99 0 0 0 36.261-1.193 20.024 20.024 0 0 1 -14.879 10.036z" fill="#93999a"/><path d="m32 57h-1a2 2 0 0 0 -2 2v2h24v-2h-19a2 2 0 0 1 -2-2z" fill="#93999a"/><path d="m25.939 24.347a15.429 15.429 0 0 1 -19.8-16.8 12.993 12.993 0 0 0 13.826 20.832l6.035 3.621-1.648-6.044a13.04 13.04 0 0 0 1.587-1.609z" fill="#57b7eb"/></g></g><g id="Outlines_copy" data-name="Outlines copy"><g fill="#323232"><path d="m23 11a1 1 0 0 0 -2 0v1h-2a3.959 3.959 0 0 0 -2 .556v-2.556a1 1 0 0 0 -2 0v2.556a3.959 3.959 0 0 0 -2-.556h-2v-1a1 1 0 0 0 -2 0v2a4.948 4.948 0 0 0 1.026 3h-.026a1 1 0 0 0 -1 1 5.006 5.006 0 0 0 5 5h1v2a1 1 0 0 0 2 0v-2h1a5.006 5.006 0 0 0 5-5 1 1 0 0 0 -1-1h-.026a4.948 4.948 0 0 0 1.026-3zm-4 3h1.829a3.006 3.006 0 0 1 -2.829 2h-1a2 2 0 0 1 2-2zm-6 0a2 2 0 0 1 2 2h-1a3.006 3.006 0 0 1 -2.829-2zm-1.829 4h1.829a2 2 0 0 1 2 2h-1a3.006 3.006 0 0 1 -2.829-2zm6.829 2h-1a2 2 0 0 1 2-2h1.829a3.006 3.006 0 0 1 -2.829 2z"/><path d="m56 22a5 5 0 0 0 -10 0 4.931 4.931 0 0 0 .652 2.419l-2.623 2.623-6.362-6.363-.706-.706 11.311-11.316 7.778 7.778a1 1 0 1 0 1.414-1.414l-1.414-1.414 2.829-2.829 1.414 1.414a1 1 0 0 0 1.414-1.414l-2.12-2.12-4.244-4.244-2.12-2.12a1 1 0 0 0 -1.414 1.414l1.414 1.414-2.83 2.828-1.414-1.414a1 1 0 0 0 -1.414 0l-12.728 12.728a1 1 0 0 0 0 1.414l.707.707-3.535 3.535a1 1 0 0 0 0 1.414l.707.708-2.829 2.828a1 1 0 0 0 0 1.414l2.829 2.829a1 1 0 0 0 1.414 0l2.828-2.829.708.707a1 1 0 0 0 1.414 0l1.6-1.6a1 1 0 1 0 -1.414-1.415l-.889.89-.707-.707-2.829-2.829-.707-.707 2.824-2.823 6.364 6.364a1 1 0 0 0 1.414 0l3.223-3.222a4.9 4.9 0 0 0 4.078.948 14.845 14.845 0 0 1 3.963 10.11 14.994 14.994 0 0 1 -26.172 10h4.172a4 4 0 0 0 4-4v-1a1 1 0 0 0 -1-1h-2v-1a5.006 5.006 0 0 0 -5-5h-8a5.006 5.006 0 0 0 -5 5v1h-2a1 1 0 0 0 -1 1v1a4 4 0 0 0 4 4h9.264a16.992 16.992 0 0 0 30.736-10 16.824 16.824 0 0 0 -4.056-10.979 5.007 5.007 0 0 0 1.348-1.5 18.782 18.782 0 0 1 4.708 12.479 18.985 18.985 0 0 1 -33.908 11.751 1 1 0 1 0 -1.571 1.237 20.985 20.985 0 0 0 7.533 6.012h-1.054a3 3 0 0 0 -3 3v2a1 1 0 0 0 1 1h7a1 1 0 0 0 0-2h-6v-1a1 1 0 0 1 1-1h20a1 1 0 0 1 1 1v1h-12a1 1 0 0 0 0 2h13a1 1 0 0 0 1-1v-2a3 3 0 0 0 -3-3h-1.114a21.008 21.008 0 0 0 12.114-19 20.776 20.776 0 0 0 -6.032-14.68c.007-.108.032-.21.032-.32zm-1.364-15.465 2.829 2.829-2.829 2.828-2.828-2.828zm-19.092 23.335-2.121 2.122-1.415-1.415 2.122-2.121zm-16.544 10.13a3 3 0 0 1 2-2.816v.816a1 1 0 0 0 2 0v-1h2v1a1 1 0 0 0 2 0v-1h2v1a1 1 0 0 0 2 0v-.816a3 3 0 0 1 2 2.816v1h-14zm-3 3h20a2 2 0 0 1 -2 2h-16a2 2 0 0 1 -2-2zm32-21a3 3 0 1 1 3 3 3 3 0 0 1 -3-3z"/><circle cx="51" cy="22" r="1"/><path d="m19.831 29.464 5.654 3.393a1 1 0 0 0 1.48-1.12l-1.485-5.437a13.962 13.962 0 0 0 1.82-18.55 1 1 0 0 0 -1.614 1.181 11.965 11.965 0 0 1 -1.973 16.26 1 1 0 0 0 -.321 1.029l.993 3.642-3.9-2.341a1 1 0 0 0 -.819-.1 12 12 0 1 1 3.403-21.102 1 1 0 0 0 1.181-1.614 13.995 13.995 0 1 0 -4.419 24.759z"/></g></g></g></svg>