<svg height="480pt" viewBox="0 0 480 480" width="480pt" xmlns="http://www.w3.org/2000/svg" xmlns:xlink="http://www.w3.org/1999/xlink"><linearGradient id="a" gradientUnits="userSpaceOnUse" x1="18.344" x2="461.656" y1="461.656" y2="18.344"><stop offset="0" stop-color="#41dfd0"/><stop offset="1" stop-color="#ee83ef"/></linearGradient><path d="m456 400h-16v-320h16c4.417969 0 8-3.582031 8-8v-48c0-4.417969-3.582031-8-8-8h-48c-4.417969 0-8 3.582031-8 8v16h-320v-16c0-4.417969-3.582031-8-8-8h-48c-4.417969 0-8 3.582031-8 8v48c0 4.417969 3.582031 8 8 8h16v320h-16c-4.417969 0-8 3.582031-8 8v48c0 4.417969 3.582031 8 8 8h48c4.417969 0 8-3.582031 8-8v-16h320v16c0 4.417969 3.582031 8 8 8h48c4.417969 0 8-3.582031 8-8v-48c0-4.417969-3.582031-8-8-8zm-40-368h32v32h-32zm-24 320h-24v-24h24zm-304-224h24v24h-24zm144 104h-24v-24h24zm16-24h24v24h-24zm-56 24h-24v-24h24zm0 16v24h-24v-24zm16 0h24v24h-24zm40 0h24v24h-24zm40 0h24v24h-24zm0-16v-24h24v24zm0-40v-24h24v24zm-16 0h-24v-24h24zm-40 0h-24v-24h24zm-40 0h-24v-24h24zm-40 0h-24v-24h24zm0 16v24h-24v-24zm0 40v24h-24v-24zm0 40v24h-24v-24zm16 0h24v24h-24zm40 0h24v24h-24zm40 0h24v24h-24zm40 0h24v24h-24zm40 0h24v24h-24zm0-16v-24h24v24zm0-40v-24h24v24zm0-40v-24h24v24zm0-40v-24h24v24zm-16 0h-24v-24h24zm-40 0h-24v-24h24zm-40 0h-24v-24h24zm-40 0h-24v-24h24zm-40 0h-24v-24h24zm-64 16h24v24h-24zm0 40h24v24h-24zm0 40h24v24h-24zm0 40h24v24h-24zm0 40h24v24h-24zm40 0h24v24h-24zm40 0h24v24h-24zm40 0h24v24h-24zm40 0h24v24h-24zm40 0h24v24h-24zm40 0h24v24h-24zm64-16h-24v-24h24zm0-40h-24v-24h24zm0-40h-24v-24h24zm0-40h-24v-24h24zm0-40h-24v-24h24zm0-40h-24v-24h24zm-40 0h-24v-24h24zm-40 0h-24v-24h24zm-40 0h-24v-24h24zm-40 0h-24v-24h24zm-40 0h-24v-24h24zm-40 0h-24v-24h24zm-40 0h-24v-24h24zm-24 256h24v24h-24zm40 0h24v24h-24zm40 0h24v24h-24zm40 0h24v24h-24zm40 0h24v24h-24zm40 0h24v24h-24zm40 0h24v24h-24zm40 0h24v24h-24zm32-312v16h-320v-16zm-368-24h32v32h-32zm32 416h-32v-32h32zm-8-48v-320h16v320zm24 24v-16h320v16zm328-344h16v320h-16zm40 368h-32v-32h32zm-424-320h-24v-16h24zm0 40h-24v-16h24zm0 40h-24v-16h24zm0 40h-24v-16h24zm0 40h-24v-16h24zm0 40h-24v-16h24zm0 40h-24v-16h24zm104-344h-16v-24h16zm40 0h-16v-24h16zm40 0h-16v-24h16zm40 0h-16v-24h16zm40 0h-16v-24h16zm40 0h-16v-24h16zm40 0h-16v-24h16zm-256 432h16v24h-16zm40 0h16v24h-16zm40 0h16v24h-16zm40 0h16v24h-16zm40 0h16v24h-16zm40 0h16v24h-16zm40 0h16v24h-16zm128-344v16h-24v-16zm-24 40h24v16h-24zm0 40h24v16h-24zm0 40h24v16h-24zm0 40h24v16h-24zm0 40h24v16h-24zm0 40h24v16h-24zm0 0" fill="url(#a)"/></svg>