<svg id="Layer_1_1_" enable-background="new 0 0 64 64" height="512" viewBox="0 0 64 64" width="512" xmlns="http://www.w3.org/2000/svg"><path d="m28 42c-3.078 1.847-6.922 1.847-10 0h-3v19h10 6v-19z" fill="#806631"/><path d="m15 42h3v19h-3z" fill="#634f26"/><path d="m41 51c0-4.971-4.029-9-9-9h-1v19h10v-4-3.938z" fill="#5e9446"/><path d="m5 51c0-4.971 4.029-9 9-9h1v19h-10v-4-3.938z" fill="#5e9446"/><path d="m49 57h4v4h-4z" fill="#9c9c9c"/><path d="m39 29-2.388-10.349c-.336-1.455-.53-2.936-.73-4.415-.861-6.345-6.301-11.236-12.882-11.236s-12.021 4.891-12.881 11.236c-.201 1.48-.395 2.96-.73 4.415l-2.389 10.349c-2.209 0-4 1.791-4 4s1.791 4 4 4c0 2.761 2.239 5 5 5h2 1 3v-7.21c-3.559-1.822-6-5.517-6-9.79v-5-.01c3.76-1.575 6.625-4.861 7.612-8.891 1.754 5.731 7.083 9.901 13.388 9.901h1v4c0 4.273-2.441 7.968-6 9.79v7.21h3 1 2c2.761 0 5-2.239 5-5 2.209 0 4-1.791 4-4s-1.791-4-4-4z" fill="#eaca65"/><path d="m34 25v-4h-1c-6.305 0-11.634-4.17-13.387-9.901-.988 4.03-3.852 7.317-7.612 8.891l-.001.01v5c0 6.075 4.925 11 11 11s11-4.925 11-11z" fill="#fce0b9"/><path d="m3 47v14h22v-14z" fill="#999"/><path d="m61 22-2.5-1-7.5 3-7.5-3-2.5 1 4 16c-2.621 4.587-4 9.779-4 15.062v3.938h8 4 8v-3.938c0-5.283-1.379-10.475-4-15.062z" fill="#d0382a"/><circle cx="14" cy="54" fill="#fff" r="3"/><path d="m51 24 7.5-3-5.5-2.2v-4.8h-4v4.8l-5.5 2.2z" fill="#f5cba1"/><path d="m23 36c-1.802 0-3.499-.442-5-1.21v7.21c3.078 1.847 6.922 1.847 10 0v-7.21c-1.501.768-3.198 1.21-5 1.21z" fill="#fce0b9"/><ellipse cx="29.5" cy="28.5" fill="#fcccc0" rx="1.5" ry=".5"/><ellipse cx="16.5" cy="28.5" fill="#fcccc0" rx="1.5" ry=".5"/><path d="m7 31 2.388-10.349c.336-1.455.53-2.936.73-4.415.861-6.345 6.301-11.236 12.882-11.236s12.021 4.891 12.881 11.236c.201 1.48.395 2.96.73 4.415l2.389 10.349c1.862 0 3.412 1.278 3.859 3 .083-.321.141-.653.141-1 0-2.209-1.791-4-4-4l-2.388-10.349c-.336-1.455-.53-2.936-.73-4.415-.861-6.345-6.301-11.236-12.882-11.236s-12.021 4.891-12.881 11.236c-.201 1.48-.395 2.96-.73 4.415l-2.389 10.349c-2.209 0-4 1.791-4 4 0 .347.058.679.141 1 .447-1.722 1.997-3 3.859-3z" fill="#f0d57f"/><path d="m18 34.79v.988l7.657 7.231c.811-.231 1.6-.563 2.343-1.009v-7.21c-1.501.768-3.198 1.21-5 1.21s-3.499-.442-5-1.21z" fill="#f5cba1"/><path d="m33 21c-6.305 0-11.634-4.17-13.387-9.901-.988 4.03-3.852 7.317-7.612 8.891l-.001.01v3-.01c3.76-1.575 6.625-4.861 7.612-8.891 1.754 5.731 7.083 9.901 13.388 9.901h1v-3z" fill="#f5cba1"/><path d="m48 38-4-16 1-.4-1.5-.6-2.5 1 4 16c-2.621 4.587-4 9.779-4 15.062v3.938h3v-3.938c0-5.283 1.379-10.475 4-15.062z" fill="#b83125"/><path d="m28 42h3v19h-3z" fill="#634f26"/><path d="m8.428 60.397-5.428.603h22v-14c-2.438 7.315-8.908 12.545-16.572 13.397z" fill="#808080"/><path d="m18 26.75c-.965 0-1.75-.785-1.75-1.75s.785-1.75 1.75-1.75 1.75.785 1.75 1.75-.785 1.75-1.75 1.75zm0-2c-.138 0-.25.112-.25.25 0 .275.5.275.5 0 0-.138-.112-.25-.25-.25z"/><path d="m28 26.75c-.965 0-1.75-.785-1.75-1.75s.785-1.75 1.75-1.75 1.75.785 1.75 1.75-.785 1.75-1.75 1.75zm0-2c-.138 0-.25.112-.25.25 0 .275.5.275.5 0 0-.138-.112-.25-.25-.25z"/><path d="m23 32.75c-2.067 0-3.75-1.683-3.75-3.75h1.5c0 1.24 1.01 2.25 2.25 2.25s2.25-1.01 2.25-2.25h1.5c0 2.067-1.683 3.75-3.75 3.75z"/><path d="m61.97 22.242c.122-.484-.134-.985-.599-1.171l-7.371-2.948v-4.123c0-.553-.447-1-1-1h-4c-.553 0-1 .447-1 1v4.123l-7.371 2.948c-.465.186-.721.687-.599 1.171l1.637 6.548c-.557-.354-1.18-.614-1.857-.725l-2.225-9.639c-.31-1.343-.501-2.755-.687-4.12l-.027-.205c-.934-6.898-6.898-12.101-13.871-12.101s-12.937 5.203-13.872 12.102l-.027.205c-.186 1.365-.377 2.777-.687 4.12l-2.225 9.639c-2.373.388-4.189 2.453-4.189 4.934 0 2.439 1.756 4.476 4.069 4.913.29 1.888 1.47 3.473 3.089 4.35-1.557.862-2.868 2.138-3.793 3.737h-2.365c-.553 0-1 .447-1 1v14c0 .553.447 1 1 1h22 16c.553 0 1-.447 1-1v-3h6v3c0 .553.447 1 1 1h4c.553 0 1-.447 1-1v-3h7c.553 0 1-.447 1-1v-3.938c0-5.313-1.359-10.562-3.934-15.206zm-12.599-2.513c.38-.153.629-.52.629-.929v-3.8h2v3.8c0 .409.249.776.629.929l3 1.2-4.629 1.983-4.629-1.984zm-5.437 18.127c-1.454 2.624-2.505 5.443-3.158 8.355-.909-1.659-2.276-3.031-3.928-3.951 1.616-.878 2.794-2.462 3.083-4.348 1.459-.276 2.693-1.189 3.408-2.436zm-31.934 3.144c-2.206 0-4-1.794-4-4 0-.553-.447-1-1-1-1.654 0-3-1.346-3-3s1.346-3 3-3c.466 0 .87-.321.975-.775l2.389-10.349c.33-1.433.527-2.891.719-4.301l.028-.204c.801-5.913 5.912-10.371 11.889-10.371s11.088 4.458 11.89 10.371l.028.204c.191 1.41.389 2.868.719 4.301l2.389 10.349c.104.454.508.775.974.775 1.654 0 3 1.346 3 3s-1.346 3-3 3c-.553 0-1 .447-1 1 0 2.206-1.794 4-4 4h-5v-5.623c3.581-2.079 6-5.946 6-10.377v-4c0-.553-.447-1-1-1h-1c-5.754 0-10.749-3.694-12.431-9.193-.132-.43-.491-.716-.984-.708-.449.013-.836.324-.943.762-.9 3.673-3.527 6.741-7.028 8.208-.372.155-.614.528-.614.931v5c0 4.43 2.419 8.298 6 10.377v5.623zm15 .391c-2.515 1.304-5.485 1.304-8 0v-5.091c1.253.445 2.596.7 4 .7s2.747-.255 4-.7zm-4-6.391c-5.514 0-10-4.486-10-10v-4.362c2.948-1.406 5.31-3.808 6.678-6.731 2.535 4.931 7.604 8.093 13.322 8.093v3c0 5.514-4.486 10-10 10zm-9 8v3h-6.226c1.499-1.874 3.753-3 6.226-3zm10 17h-20v-12h20zm-8-14v-3h1.764c1.631.915 3.43 1.389 5.236 1.389s3.605-.474 5.236-1.389h1.764v17h-4v-13c0-.553-.447-1-1-1zm24 14h-8v-17c4.411 0 8 3.589 8 8v2.063 3.937zm12 0h-2v-2h2zm8-6.937v2.937h-18v-2.938c0-5.101 1.338-10.138 3.868-14.566.128-.224.164-.488.102-.738l-3.788-15.153 1.564-.626 6.254 2.68v6.341h2v-6.341l6.254-2.68 1.564.626-3.788 15.153c-.063.25-.026.515.102.738 2.53 4.429 3.868 9.466 3.868 14.567z"/><path d="m14 58c2.206 0 4-1.794 4-4s-1.794-4-4-4-4 1.794-4 4 1.794 4 4 4zm0-6c1.103 0 2 .897 2 2s-.897 2-2 2-2-.897-2-2 .897-2 2-2z"/></svg>