<svg height="512" viewBox="0 0 512 512" width="512" xmlns="http://www.w3.org/2000/svg"><g id="filled_outline" data-name="filled outline"><path d="m136 440h240v48h-240z" fill="#c7463b"/><path d="m376 38v402h-240v-320.06c.65.04 1.31.06 1.97.06a31.982 31.982 0 0 0 32-32 32.344 32.344 0 0 0 -.33-4.54 64.191 64.191 0 0 0 35.65-35.46c.05-.11.1-.22.14-.33a32.344 32.344 0 0 0 4.54.33 32.012 32.012 0 0 0 30.99-24h121.04a14 14 0 0 1 14 14z" fill="#834b10"/><g fill="#a45e14"><path d="m208 48v64h-48v-.78a31.946 31.946 0 0 0 9.97-23.22 32.344 32.344 0 0 0 -.33-4.54 64.191 64.191 0 0 0 35.65-35.46z"/><path d="m232 48h48v64h-48z"/><path d="m304 48h48v64h-48z"/><path d="m160 136h48v64h-48z"/><path d="m160 224h48v64h-48z"/><path d="m160 312h48v64h-48z"/><path d="m232 136h48v64h-48z"/><path d="m232 224h48v64h-48z"/><path d="m304 136h48v64h-48z"/><path d="m304 224h48v64h-48z"/></g><path d="m376 216-.001 224h-240l.001-72z" fill="#dc4d41"/><path d="m376 96 40 56 8 24-48 8z" fill="#a8d6da"/><path d="m248 464h16v24h-16z" fill="#b94137"/><path d="m216 464h16v24h-16z" fill="#b94137"/><path d="m184 464h16v24h-16z" fill="#b94137"/><path d="m152 464h16v24h-16z" fill="#b94137"/><path d="m344 464h16v24h-16z" fill="#b94137"/><path d="m312 464h16v24h-16z" fill="#b94137"/><path d="m280 464h16v24h-16z" fill="#b94137"/><path d="m336 352h16v32h-16z" fill="#f55648"/><path d="m336 400h16v16h-16z" fill="#f55648"/><path d="m136 368 280-216 40 56z" fill="#b3e4e8"/><path d="m304 120h48a8 8 0 0 0 8-8v-64a8 8 0 0 0 -8-8h-48a8 8 0 0 0 -8 8v64a8 8 0 0 0 8 8zm8-64h32v48h-32z"/><path d="m208 128h-48a8 8 0 0 0 -8 8v64a8 8 0 0 0 8 8h48a8 8 0 0 0 8-8v-64a8 8 0 0 0 -8-8zm-8 64h-32v-48h32z"/><path d="m208 216h-48a8 8 0 0 0 -8 8v64a8 8 0 0 0 8 8h48a8 8 0 0 0 8-8v-64a8 8 0 0 0 -8-8zm-8 64h-32v-48h32z"/><path d="m280 128h-48a8 8 0 0 0 -8 8v64a8 8 0 0 0 8 8h48a8 8 0 0 0 8-8v-64a8 8 0 0 0 -8-8zm-8 64h-32v-48h32z"/><path d="m336 352h16v32h-16z"/><path d="m336 400h16v16h-16z"/><path d="m154.5 105.414a23.932 23.932 0 0 1 -16.53 6.586c-.5 0-.991-.015-1.478-.045a8 8 0 0 0 -8.492 7.985v368.06a8 8 0 0 0 8 8h240a8 8 0 0 0 8-8v-235.056l75.578-37.789a8 8 0 0 0 2.932-11.805l-78.51-109.914v-55.436a22.025 22.025 0 0 0 -22-22h-121.04a8 8 0 0 0 -7.748 6.007 23.978 23.978 0 0 1 -23.242 17.993 24.346 24.346 0 0 1 -3.416-.251 8 8 0 0 0 -8.554 4.961c-.014.03-.026.06-.039.09-.024.054-.047.108-.07.163l-.014.034a56.349 56.349 0 0 1 -31.2 31.033 8 8 0 0 0 -4.956 8.553 24.36 24.36 0 0 1 .249 3.417 23.829 23.829 0 0 1 -7.47 17.414zm13.5 227.796v-13.21h17.125zm49.888 2.79h150.112v96h-224v-59.056zm142.112 144v-16h-16v16h-16v-16h-16v16h-16v-16h-16v16h-16v-16h-16v16h-16v-16h-16v16h-16v-16h-16v16h-16v-16h-16v16h-8v-32h224v32zm8-160h-118.112l50.133-25.066a7.96 7.96 0 0 0 3.979 1.066h48a8 8 0 0 0 8-8v-23.056l8-4zm-38.112-40 14.112-7.056v7.056zm-123.7 43.961 208.127-160.561 29.733 41.628zm65.812-70.979-32 24.685v-45.667h32zm72-60.982h-32v-48h32zm61.008-41.625-21.008 16.207v-45.618zm-43.008-118.375a6.006 6.006 0 0 1 6 6v140.925l-8 6.171v-49.096a8 8 0 0 0 -8-8h-48a8 8 0 0 0 -8 8v64a8 8 0 0 0 8 8h26.31l-10.371 8h-15.939a8 8 0 0 0 -8 8v10.468l-8 6.171v-16.639a8 8 0 0 0 -8-8h-48a8 8 0 0 0 -8 8v64a8.031 8.031 0 0 0 .221 1.84l-18.356 14.16h-45.865a8 8 0 0 0 -8 8v33.553l-8 6.172v-224.177a39.76 39.76 0 0 0 17.935-7.548h46.065a8 8 0 0 0 8-8v-56.464a39.835 39.835 0 0 0 8-2.089v58.553a8 8 0 0 0 8 8h48a8 8 0 0 0 8-8v-64a8 8 0 0 0 -8-8h-38.033a39.771 39.771 0 0 0 4.677-8zm-122 24h32v48h-32zm-40 15.507v32.493h-25.335a39.87 39.87 0 0 0 3.3-15.511 72.489 72.489 0 0 0 22.035-16.982z"/></g></svg>