<svg id="Layer_2" enable-background="new 0 0 64 64" height="512" viewBox="0 0 64 64" width="512" xmlns="http://www.w3.org/2000/svg"><path d="m31.49 34.115 5.901-3.392c1.791-1.03 4.062-4.515.81-8.214-3.471-3.943-7.388-1.656-9.176-.102l-14.507 11.708z" fill="#f9dd9d"/><path d="m17.433 34.115 12.029-9.708c1.789-1.555 5.706-3.842 9.176.102.556.632.94 1.257 1.204 1.866-.004-1.187-.45-2.512-1.641-3.866-3.471-3.943-7.388-1.656-9.176-.102l-14.507 11.708z" fill="#ffeecf"/><path d="m31.49 34.615h-16.972c-.212 0-.401-.134-.472-.333-.07-.2-.007-.422.158-.556l14.506-11.708c1.282-1.114 5.823-4.431 9.866.16 1.766 2.009 1.899 3.868 1.7 5.074-.322 1.948-1.621 3.32-2.635 3.904l-5.901 3.392c-.076.044-.162.067-.25.067zm-15.557-1h15.424l5.785-3.326c.89-.512 1.899-1.7 2.147-3.2.238-1.444-.254-2.874-1.464-4.25-3.339-3.793-7.037-1.302-8.473-.054z" fill="#63312d"/><path d="m52.38 23.607c-1.238 3.137-4.784 4.679-7.922 3.441-3.138-1.237-4.679-4.787-3.441-7.924 1.239-3.137 4.786-4.679 7.923-3.439 3.138 1.235 4.678 4.785 3.44 7.922z" fill="#f9a287"/><path d="m42.683 20.791c1.239-3.137 4.786-4.679 7.923-3.439.417.164.804.372 1.162.611-.667-.995-1.63-1.806-2.828-2.278-3.138-1.239-6.684.303-7.923 3.439-1.073 2.72-.055 5.749 2.28 7.312-1.08-1.611-1.379-3.706-.614-5.645z" fill="#ffc8bb"/><path d="m46.69 27.974c-.805 0-1.623-.148-2.416-.46-1.642-.647-2.933-1.896-3.636-3.516-.704-1.619-.734-3.416-.087-5.057.648-1.642 1.897-2.933 3.516-3.636 1.621-.703 3.416-.734 5.057-.085 1.642.646 2.933 1.895 3.636 3.514s.733 3.415.086 5.057c-1.025 2.596-3.521 4.183-6.156 4.183zm.007-12.219c-.758 0-1.515.156-2.231.467-1.374.596-2.434 1.692-2.984 3.085-.549 1.393-.523 2.917.074 4.292s1.693 2.434 3.086 2.983c2.875 1.135 6.139-.283 7.273-3.159.55-1.393.524-2.917-.073-4.292-.597-1.374-1.692-2.434-3.085-2.982-.667-.263-1.364-.394-2.06-.394z" fill="#63312d"/><path d="m25.434 12.308-13.136.41c-1.377.043-2.46 1.194-2.416 2.568.043 1.379 1.195 2.46 2.57 2.415l12.176-.379 9.309 7.931c1.048.89 2.621.767 3.516-.282.892-1.047.767-2.621-.282-3.516l-10.043-8.553c-.47-.4-1.075-.614-1.694-.594z" fill="#f9dd9d"/><path d="m11.726 17.155c-.044-1.374 1.039-2.525 2.416-2.568l14.513-.384-1.526-1.3c-.47-.401-1.075-.615-1.694-.595l-13.136.41c-1.377.043-2.46 1.194-2.416 2.568.036 1.148.844 2.079 1.906 2.337-.035-.152-.058-.308-.063-.468z" fill="#ffeecf"/><path d="m35.551 26.345c-.687 0-1.376-.233-1.938-.71l-9.162-7.807-11.983.373c-.803.017-1.558-.261-2.141-.808-.584-.548-.919-1.291-.944-2.092-.026-.798.262-1.559.811-2.142.548-.582 1.29-.917 2.089-.942l13.135-.41c.739-.038 1.467.229 2.035.714l10.042 8.553c1.256 1.072 1.408 2.965.338 4.221-.592.694-1.435 1.05-2.282 1.05zm-10.924-9.523c.119 0 .234.042.324.12l9.309 7.931c.837.71 2.099.609 2.812-.226.712-.835.611-2.097-.226-2.811l-10.042-8.553c-.378-.323-.859-.481-1.354-.476l-13.136.41c-.533.017-1.027.24-1.392.628s-.557.894-.54 1.424c.017.534.24 1.029.629 1.394.388.363.88.541 1.425.538l12.176-.379z" fill="#63312d"/><path d="m60.831 40.379-2.362 1.472c-.467.291-1.23.291-1.697 0l-1.514-.942c-.467-.291-1.23-.291-1.697 0l-1.51.941c-.467.291-1.23.291-1.697 0l-1.508-.941c-.467-.291-1.23-.291-1.697 0l-1.509.941c-.467.291-1.23.291-1.696 0l-1.505-.94c-.467-.292-1.231-.292-1.697-.001l-1.508.941c-.467.291-1.231.291-1.697 0l-1.508-.941c-.467-.291-1.23-.291-1.696.001l-1.508.94c-.466.291-1.229.291-1.696 0l-1.506-.94c-.466-.292-1.229-.292-1.696 0l-1.507.94c-.467.291-1.23.291-1.696 0l-1.505-.94c-.467-.292-1.231-.292-1.696 0l-1.507.94c-.466.291-1.229.291-1.696 0l-1.503-.94c-.467-.293-1.229-.293-1.696-.001l-1.506.94c-.467.291-1.229.291-1.696 0l-1.503-.94c-.467-.292-1.23-.292-1.695 0l-1.502.94c-.466.291-1.229.291-1.695 0l-2.354-1.47v-9.622l2.352 1.47c.466.292 1.23.291 1.695 0l1.502-.94c.466-.291 1.229-.291 1.695 0l1.503.94c.467.291 1.23.292 1.696 0l1.506-.94c.467-.292 1.229-.292 1.696 0l1.503.94c.467.292 1.23.292 1.696 0l1.507-.94c.466-.292 1.229-.292 1.696 0l1.505.94c.466.292 1.229.292 1.696 0l1.507-.94c.467-.292 1.23-.292 1.696 0l1.506.94c.467.292 1.231.292 1.696 0l1.508-.94c.466-.292 1.23-.292 1.696-.001l1.508.941c.467.291 1.23.291 1.697 0l1.508-.941c.467-.291 1.231-.291 1.697.001l1.505.94c.466.292 1.229.292 1.696.001l1.508-.941c.467-.291 1.23-.291 1.697 0l1.508.941c.467.291 1.23.291 1.697 0l1.51-.941c.467-.291 1.23-.292 1.697-.001l1.514.943c.467.291 1.23.291 1.697 0l2.362-1.472v9.622z" fill="#52b8d9"/><path d="m57.62 42.567c-.4 0-.801-.097-1.113-.292l-1.513-.942c-.307-.19-.863-.19-1.168 0l-1.51.941c-.624.389-1.603.389-2.227 0l-1.508-.941c-.306-.19-.862-.19-1.168 0l-1.508.941c-.624.389-1.602.389-2.226 0l-1.505-.94c-.306-.191-.862-.191-1.167 0l-1.508.941c-.625.389-1.603.388-2.227 0l-1.508-.941c-.307-.191-.862-.191-1.166 0l-1.509.941c-.623.39-1.601.39-2.226 0l-1.506-.94c-.306-.191-.861-.192-1.167 0l-1.507.941c-.624.389-1.602.389-2.226 0l-1.505-.94c-.306-.191-.861-.192-1.166 0l-1.508.941c-.623.389-1.601.39-2.226 0l-1.503-.94c-.306-.192-.862-.192-1.166-.001l-1.506.941c-.624.389-1.602.389-2.226 0l-1.503-.94c-.306-.191-.861-.192-1.165 0l-1.502.939c-.624.39-1.602.391-2.226 0l-2.352-1.471c-.146-.091-.235-.251-.235-.424v-9.622c0-.182.099-.349.258-.438.158-.087.353-.083.507.014l2.352 1.47c.305.19.86.19 1.165 0l1.502-.939c.625-.39 1.602-.389 2.225 0l1.503.94c.306.19.861.19 1.166 0l1.506-.94c.624-.39 1.602-.39 2.226 0l1.503.939c.305.191.86.191 1.166 0l1.508-.94c.623-.391 1.601-.391 2.226 0l1.504.939c.306.191.861.191 1.167 0l1.507-.94c.624-.391 1.603-.39 2.227 0l1.505.939c.307.191.862.192 1.166 0l1.509-.94c.623-.39 1.6-.391 2.226-.001l1.508.941c.305.19.862.191 1.168 0l1.508-.941c.625-.39 1.604-.388 2.227.001l1.504.939c.306.192.861.191 1.167.001l1.508-.941c.625-.389 1.603-.389 2.227 0l1.508.941c.305.19.862.191 1.168 0l1.51-.941c.625-.39 1.603-.39 2.227-.001l1.514.943c.306.19.862.19 1.168 0l2.363-1.472c.154-.096.349-.1.507-.013.159.088.257.255.257.437v9.622c0 .173-.089.333-.236.424l-2.362 1.472c-.312.196-.713.293-1.113.293zm-3.211-2.375c.4 0 .801.098 1.113.292l1.513.942c.307.19.863.19 1.168 0l2.127-1.325v-8.444l-1.598.996c-.623.389-1.601.389-2.226 0l-1.514-.943c-.305-.19-.862-.19-1.168.001l-1.51.941c-.624.389-1.603.389-2.227 0l-1.508-.941c-.306-.19-.862-.19-1.168 0l-1.508.941c-.625.39-1.604.388-2.227-.001l-1.504-.939c-.307-.191-.863-.191-1.168-.001l-1.508.941c-.625.389-1.603.388-2.227 0l-1.508-.941c-.307-.191-.862-.191-1.166 0l-1.509.94c-.624.391-1.602.391-2.226 0l-1.505-.939c-.306-.191-.861-.191-1.167 0l-1.507.94c-.624.391-1.603.39-2.227 0l-1.504-.939c-.307-.191-.861-.192-1.166 0l-1.508.94c-.623.39-1.601.392-2.226 0l-1.503-.939c-.305-.19-.861-.19-1.166 0l-1.506.94c-.623.389-1.6.39-2.226 0l-1.503-.94c-.306-.19-.861-.189-1.165 0l-1.502.939c-.625.391-1.602.39-2.226 0l-1.583-.993v8.443l2.117 1.324c.304.189.859.19 1.165 0l1.502-.939c.623-.391 1.601-.391 2.226 0l1.503.939c.305.189.861.19 1.167 0l1.506-.94c.624-.391 1.603-.39 2.227.002l1.502.939c.305.19.861.19 1.166 0l1.507-.941c.623-.391 1.601-.39 2.226 0l1.505.94c.305.19.861.19 1.167 0l1.507-.94c.624-.391 1.603-.39 2.227 0l1.505.94c.306.19.862.191 1.167 0l1.508-.941c.623-.391 1.6-.391 2.226-.001l1.508.941c.305.19.862.191 1.168 0l1.508-.941c.625-.39 1.604-.388 2.227.001l1.505.94c.305.19.861.19 1.167 0l1.508-.941c.625-.389 1.603-.389 2.227 0l1.508.941c.305.19.862.191 1.168 0l1.51-.941c.307-.195.708-.293 1.109-.293z" fill="#63312d"/><path d="m54.368 31.073c-.294.006-.585.074-.808.214l-1.51.941c-.467.291-1.23.291-1.697 0l-1.508-.941c-.467-.291-1.23-.291-1.697 0l-1.508.941c-.467.291-1.23.291-1.696-.001l-1.505-.94c-.467-.292-1.231-.292-1.697-.001l-1.508.941c-.467.291-1.231.291-1.697 0l-1.508-.941c-.467-.291-1.23-.291-1.696.001l-1.508.94c-.466.292-1.229.292-1.696 0l-1.506-.94c-.466-.292-1.229-.292-1.696 0l-1.507.94c-.467.292-1.23.292-1.696 0l-1.505-.94c-.467-.292-1.231-.292-1.696 0l-1.507.94c-.466.292-1.229.292-1.696 0l-1.503-.94c-.467-.292-1.229-.292-1.696 0l-1.506.94c-.467.292-1.229.291-1.696 0l-1.503-.94c-.467-.291-1.23-.291-1.695 0l-1.502.94c-.466.291-1.229.292-1.695 0l-2.352-1.47v9.622l2.352 1.471c.466.291 1.23.291 1.695 0l1.502-.94c.466-.292 1.229-.292 1.695 0l1.503.94c.467.291 1.23.291 1.696 0l1.506-.94c.467-.292 1.229-.292 1.696.001l1.503.94c.467.291 1.23.291 1.696 0l1.507-.94c.466-.292 1.229-.292 1.696 0l1.505.94c.466.291 1.229.291 1.696 0l1.507-.94c.467-.292 1.23-.292 1.696 0l1.506.94c.467.291 1.231.291 1.696 0l1.508-.94c.466-.292 1.23-.292 1.696-.001l1.508.941c.467.291 1.23.291 1.697 0l1.508-.941c.467-.291 1.231-.291 1.697.001l1.505.94c.466.291 1.229.291 1.696 0l1.508-.941c.467-.291 1.23-.291 1.697 0l1.508.941c.467.291 1.23.291 1.697 0l1.51-.941c.223-.139.514-.207.808-.213z" fill="#84dbff"/><path d="m53.56 31.287-1.51.941c-.467.291-1.23.291-1.697 0l-1.508-.941c-.467-.291-1.23-.291-1.697 0l-1.508.941c-.467.291-1.23.291-1.696-.001l-1.505-.94c-.467-.292-1.231-.292-1.697-.001l-1.508.941c-.467.291-1.231.291-1.697 0l-1.508-.941c-.467-.291-1.23-.291-1.696.001l-1.508.94c-.466.292-1.229.292-1.696 0l-1.506-.94c-.466-.292-1.229-.292-1.696 0l-1.507.94c-.467.292-1.23.292-1.696 0l-1.505-.94c-.467-.292-1.231-.292-1.696 0l-1.507.94c-.466.292-1.229.292-1.696 0l-1.503-.94c-.467-.292-1.229-.292-1.696 0l-1.506.94c-.467.292-1.229.291-1.696 0l-1.503-.94c-.467-.291-1.23-.291-1.695 0l-1.502.94c-.466.291-1.229.292-1.695 0l-.352-.22-2-1.25v2 7.622l2 1.25v-7.622l.352.22c.466.292 1.23.291 1.695 0l1.502-.939c.466-.291 1.229-.291 1.695 0l1.503.939c.467.291 1.23.292 1.696 0l1.506-.939c.467-.292 1.229-.292 1.696 0l1.503.939c.467.292 1.23.292 1.696 0l1.507-.939c.466-.292 1.229-.292 1.696 0l1.505.939c.466.292 1.229.292 1.696 0l1.507-.939c.467-.292 1.23-.292 1.696 0l1.506.939c.467.292 1.231.292 1.696 0l1.508-.939c.466-.292 1.23-.292 1.696-.001l1.508.941c.467.291 1.23.291 1.697 0l1.508-.941c.467-.291 1.231-.291 1.697.001l1.505.939c.466.292 1.229.292 1.696.001l1.508-.941c.467-.291 1.23-.291 1.697 0l1.508.941c.467.291 1.23.291 1.697 0l1.51-.941c.223-.14.514-.208.808-.214v-2c-.294.006-.585.074-.808.214z" fill="#caf4ff"/><path d="m6.37 42.566c-.4 0-.801-.097-1.113-.292l-2.352-1.471c-.146-.091-.235-.251-.235-.424v-9.622c0-.182.099-.349.258-.438.158-.087.353-.083.507.014l2.352 1.47c.305.19.86.19 1.165 0l1.502-.939c.625-.39 1.602-.389 2.225 0l1.503.94c.306.19.861.19 1.166 0l1.506-.94c.624-.39 1.602-.39 2.226 0l1.503.939c.305.191.86.191 1.166 0l1.508-.94c.623-.391 1.601-.391 2.226 0l1.504.939c.306.191.861.191 1.167 0l1.507-.94c.624-.391 1.603-.39 2.227 0l1.505.939c.307.191.862.192 1.166 0l1.509-.94c.623-.391 1.601-.391 2.226-.001l1.508.941c.305.19.862.191 1.168 0l1.508-.941c.625-.39 1.604-.388 2.227.001l1.504.939c.306.192.861.191 1.167.001l1.508-.941c.625-.389 1.603-.389 2.227 0l1.508.941c.305.19.862.191 1.168 0l1.51-.941c.365-.229.779-.284 1.063-.29.1-.007.263.049.36.143.096.094.15.223.15.357v9.623c0 .272-.218.495-.49.5-.218.004-.42.054-.553.137l-1.509.941c-.624.389-1.603.389-2.227 0l-1.508-.941c-.306-.19-.862-.19-1.168 0l-1.508.941c-.624.389-1.602.389-2.226 0l-1.505-.94c-.306-.191-.862-.191-1.167 0l-1.508.941c-.625.389-1.603.388-2.227 0l-1.508-.941c-.307-.191-.862-.191-1.166 0l-1.509.941c-.623.39-1.601.39-2.226 0l-1.506-.94c-.306-.192-.861-.191-1.167 0l-1.507.941c-.624.389-1.602.389-2.226 0l-1.505-.94c-.306-.192-.861-.192-1.166 0l-1.508.941c-.623.389-1.601.39-2.226 0l-1.503-.94c-.306-.192-.862-.192-1.166-.001l-1.506.941c-.624.389-1.602.389-2.226 0l-1.503-.94c-.306-.19-.861-.191-1.165 0l-1.502.939c-.313.196-.713.293-1.113.293zm-2.7-2.463 2.117 1.324c.304.189.859.19 1.165 0l1.502-.939c.623-.391 1.601-.391 2.226 0l1.503.939c.305.189.861.19 1.167 0l1.506-.94c.624-.391 1.603-.39 2.227.002l1.502.939c.305.19.861.19 1.166 0l1.507-.941c.623-.391 1.601-.39 2.226 0l1.505.94c.305.19.861.19 1.167 0l1.507-.94c.624-.391 1.603-.39 2.227 0l1.505.94c.306.19.862.191 1.167 0l1.508-.941c.623-.391 1.6-.391 2.226-.001l1.508.941c.305.19.862.191 1.168 0l1.508-.941c.625-.39 1.604-.388 2.227.001l1.505.94c.305.19.861.19 1.167 0l1.508-.941c.625-.389 1.603-.389 2.227 0l1.508.941c.305.19.862.191 1.168 0l1.51-.941c.187-.116.385-.187.572-.23v-8.568c-.015.008-.029.016-.042.024l-1.511.942c-.624.389-1.603.389-2.227 0l-1.508-.941c-.306-.19-.862-.19-1.168 0l-1.508.941c-.625.39-1.604.388-2.227-.001l-1.504-.939c-.307-.191-.863-.191-1.168-.001l-1.508.941c-.625.389-1.603.388-2.227 0l-1.508-.941c-.307-.191-.862-.191-1.166 0l-1.509.94c-.624.391-1.602.391-2.226 0l-1.505-.939c-.306-.191-.861-.191-1.167 0l-1.507.94c-.624.391-1.603.39-2.227 0l-1.504-.939c-.307-.191-.861-.192-1.166 0l-1.508.94c-.623.391-1.601.391-2.226 0l-1.503-.939c-.305-.19-.861-.19-1.166 0l-1.506.94c-.623.389-1.6.39-2.226 0l-1.503-.94c-.306-.19-.861-.189-1.165 0l-1.502.939c-.625.391-1.602.39-2.226 0l-1.588-.994z" fill="#63312d"/><path d="m60.831 50.003-2.362 1.471c-.467.291-1.23.291-1.697 0l-1.514-.941c-.467-.291-1.23-.291-1.697 0l-1.51.941c-.467.291-1.23.291-1.697 0l-1.508-.941c-.467-.291-1.23-.291-1.697 0l-1.508.941c-.467.291-1.23.291-1.696 0l-1.505-.941c-.467-.291-1.231-.291-1.697 0l-1.508.941c-.467.291-1.231.291-1.697 0l-1.508-.941c-.467-.291-1.23-.291-1.696 0l-1.508.941c-.466.291-1.229.291-1.696 0l-1.506-.941c-.466-.291-1.229-.291-1.696 0l-1.507.941c-.467.291-1.23.291-1.696 0l-1.505-.941c-.467-.291-1.231-.291-1.696 0l-1.507.941c-.466.291-1.229.291-1.696 0l-1.503-.939c-.467-.293-1.229-.293-1.696-.002l-1.506.941c-.467.291-1.229.291-1.696 0l-1.503-.939c-.467-.293-1.23-.293-1.695 0l-1.502.939c-.466.291-1.229.291-1.695 0l-2.355-1.471v-9.622l2.352 1.47c.466.292 1.23.291 1.695 0l1.502-.94c.466-.291 1.229-.291 1.695 0l1.503.94c.467.291 1.23.292 1.696 0l1.506-.94c.467-.292 1.229-.292 1.696 0l1.503.94c.467.292 1.23.292 1.696 0l1.507-.94c.466-.292 1.229-.292 1.696 0l1.505.94c.466.292 1.229.292 1.696 0l1.507-.94c.467-.292 1.23-.292 1.696 0l1.506.94c.467.292 1.231.292 1.696 0l1.508-.94c.466-.292 1.23-.292 1.696-.001l1.508.942c.467.291 1.23.291 1.697 0l1.508-.942c.467-.291 1.231-.291 1.697.001l1.505.94c.466.292 1.229.292 1.696.001l1.508-.942c.467-.291 1.23-.291 1.697 0l1.508.942c.467.291 1.23.291 1.697 0l1.51-.942c.467-.291 1.23-.292 1.697-.001l1.514.943c.467.291 1.23.291 1.697 0l2.362-1.472v9.623z" fill="#52b8d9"/><path d="m6.37 52.19c-.4 0-.801-.097-1.113-.292l-2.352-1.471c-.146-.091-.235-.251-.235-.424v-9.622c0-.182.099-.349.258-.438.158-.088.353-.083.507.014l2.352 1.47c.305.19.86.189 1.165 0l1.502-.939c.625-.39 1.602-.389 2.225 0l1.503.94c.306.19.861.19 1.166 0l1.506-.94c.624-.39 1.602-.39 2.226 0l1.503.939c.305.19.86.191 1.166 0l1.508-.94c.623-.391 1.601-.391 2.226 0l1.504.939c.306.191.861.191 1.167 0l1.507-.94c.624-.391 1.603-.39 2.227 0l1.505.939c.307.191.862.192 1.166 0l1.509-.94c.623-.391 1.601-.391 2.226-.001l1.508.941c.305.19.862.191 1.168 0l1.508-.941c.625-.39 1.604-.388 2.227.001l1.504.939c.306.192.861.191 1.167.001l1.508-.941c.625-.389 1.603-.389 2.227 0l1.508.941c.305.19.862.191 1.168 0l1.51-.941c.625-.39 1.603-.39 2.227-.001l1.514.943c.306.19.862.19 1.168 0l2.363-1.472c.154-.096.349-.101.507-.013.159.088.257.255.257.437v9.622c0 .173-.089.333-.236.424l-2.362 1.471c-.624.39-1.601.389-2.226 0l-1.513-.941c-.306-.192-.863-.19-1.168 0l-1.51.941c-.624.389-1.603.389-2.227 0l-1.508-.941c-.306-.19-.862-.191-1.168 0l-1.508.941c-.624.389-1.602.389-2.226 0l-1.505-.941c-.305-.19-.862-.189-1.167 0l-1.508.941c-.625.389-1.603.388-2.227 0l-1.508-.941c-.306-.19-.862-.191-1.167 0l-1.508.942c-.623.389-1.601.39-2.226 0l-1.506-.942c-.305-.19-.861-.19-1.167 0l-1.506.941c-.625.39-1.603.39-2.227 0l-1.505-.941c-.305-.19-.861-.19-1.166 0l-1.507.941c-.624.39-1.601.39-2.226 0l-1.503-.94c-.305-.191-.861-.192-1.167-.001l-1.505.941c-.625.39-1.602.389-2.226 0l-1.503-.94c-.305-.191-.859-.192-1.164 0l-1.503.94c-.314.198-.714.295-1.114.295zm-2.7-2.463 2.117 1.324c.304.19.859.19 1.165 0l1.502-.939c.623-.392 1.601-.392 2.226 0l1.502.939c.305.189.861.19 1.167 0l1.505-.941c.625-.391 1.603-.389 2.227.002l1.502.939c.305.19.861.19 1.166 0l1.507-.941c.624-.39 1.601-.39 2.226 0l1.505.942c.305.19.861.19 1.167 0l1.506-.941c.625-.39 1.603-.39 2.227 0l1.506.941c.305.19.861.19 1.166 0l1.508-.942c.623-.389 1.601-.39 2.226 0l1.508.941c.305.19.862.19 1.168 0l1.508-.941c.625-.389 1.603-.389 2.227 0l1.505.942c.305.19.861.19 1.167 0l1.508-.941c.625-.389 1.603-.389 2.227 0l1.508.941c.305.19.862.19 1.168 0l1.51-.941c.624-.389 1.603-.389 2.227 0l1.513.941c.306.191.863.191 1.168 0l2.127-1.324v-8.444l-1.598.996c-.623.389-1.601.389-2.226 0l-1.514-.943c-.305-.19-.862-.19-1.168.001l-1.51.941c-.624.389-1.603.389-2.227 0l-1.508-.941c-.306-.19-.862-.19-1.168 0l-1.508.941c-.625.39-1.604.388-2.227-.001l-1.504-.939c-.307-.191-.863-.191-1.168-.001l-1.508.941c-.625.389-1.603.388-2.227 0l-1.508-.941c-.307-.191-.862-.191-1.166 0l-1.509.94c-.624.391-1.602.391-2.226 0l-1.505-.939c-.306-.191-.861-.191-1.167 0l-1.507.94c-.624.391-1.603.39-2.227 0l-1.504-.939c-.307-.191-.861-.192-1.166 0l-1.508.94c-.623.391-1.601.391-2.226 0l-1.503-.939c-.305-.19-.861-.19-1.166 0l-1.506.94c-.623.389-1.6.39-2.226 0l-1.503-.94c-.306-.19-.861-.19-1.165 0l-1.502.939c-.625.391-1.602.39-2.226 0l-1.585-.996z" fill="#63312d"/><path d="m54.368 40.697c-.294.006-.585.074-.808.214l-1.51.942c-.467.291-1.23.291-1.697 0l-1.508-.942c-.467-.291-1.23-.291-1.697 0l-1.508.942c-.467.291-1.23.291-1.696-.001l-1.505-.94c-.467-.292-1.231-.292-1.697-.001l-1.508.942c-.467.291-1.231.291-1.697 0l-1.508-.942c-.467-.291-1.23-.291-1.696.001l-1.508.94c-.466.292-1.229.292-1.696 0l-1.506-.94c-.466-.292-1.229-.292-1.696 0l-1.507.94c-.467.292-1.23.292-1.696 0l-1.505-.94c-.467-.292-1.231-.292-1.696 0l-1.507.94c-.466.292-1.229.292-1.696 0l-1.503-.94c-.467-.292-1.229-.292-1.696 0l-1.506.94c-.467.292-1.229.291-1.696 0l-1.503-.94c-.467-.291-1.23-.291-1.695 0l-1.502.94c-.466.291-1.229.292-1.695 0l-2.352-1.47v9.622l2.352 1.471c.466.291 1.23.291 1.695 0l1.502-.939c.466-.293 1.229-.293 1.695 0l1.503.939c.467.291 1.23.291 1.696 0l1.506-.941c.467-.291 1.229-.291 1.696.002l1.503.939c.467.291 1.23.291 1.696 0l1.507-.941c.466-.291 1.229-.291 1.696 0l1.505.941c.466.291 1.229.291 1.696 0l1.507-.941c.467-.291 1.23-.291 1.696 0l1.506.941c.467.291 1.231.291 1.696 0l1.508-.941c.466-.291 1.23-.291 1.696 0l1.508.941c.467.291 1.23.291 1.697 0l1.508-.941c.467-.291 1.231-.291 1.697 0l1.505.941c.466.291 1.229.291 1.696 0l1.508-.941c.467-.291 1.23-.291 1.697 0l1.508.941c.467.291 1.23.291 1.697 0l1.51-.941c.223-.139.514-.207.808-.213z" fill="#84dbff"/><path d="m53.56 40.911-1.51.942c-.467.291-1.23.291-1.697 0l-1.508-.942c-.467-.291-1.23-.291-1.697 0l-1.508.942c-.467.291-1.23.291-1.696-.001l-1.505-.94c-.467-.292-1.231-.292-1.697-.001l-1.508.942c-.467.291-1.231.291-1.697 0l-1.508-.942c-.467-.291-1.23-.291-1.696.001l-1.508.94c-.466.292-1.229.292-1.696 0l-1.506-.94c-.466-.292-1.229-.292-1.696 0l-1.507.94c-.467.292-1.23.292-1.696 0l-1.505-.94c-.467-.292-1.231-.292-1.696 0l-1.507.94c-.466.292-1.229.292-1.696 0l-1.503-.94c-.467-.292-1.229-.292-1.696 0l-1.506.94c-.467.292-1.229.291-1.696 0l-1.503-.94c-.467-.291-1.23-.291-1.695 0l-1.502.94c-.466.291-1.229.292-1.695 0l-.352-.22-2-1.25v2 7.622l2 1.25v-7.622l.352.22c.466.292 1.23.291 1.695 0l1.502-.94c.466-.291 1.229-.291 1.695 0l1.503.94c.467.291 1.23.292 1.696 0l1.506-.94c.467-.292 1.229-.292 1.696 0l1.503.94c.467.292 1.23.292 1.696 0l1.507-.94c.466-.292 1.229-.292 1.696 0l1.505.94c.466.292 1.229.292 1.696 0l1.507-.94c.467-.292 1.23-.292 1.696 0l1.506.94c.467.292 1.231.292 1.696 0l1.508-.94c.466-.292 1.23-.292 1.696-.001l1.508.942c.467.291 1.23.291 1.697 0l1.508-.942c.467-.291 1.231-.291 1.697.001l1.505.94c.466.292 1.229.292 1.696.001l1.508-.942c.467-.291 1.23-.291 1.697 0l1.508.942c.467.291 1.23.291 1.697 0l1.51-.942c.223-.14.514-.208.808-.214v-2c-.294.006-.585.074-.808.214z" fill="#caf4ff"/><path d="m6.37 52.19c-.4 0-.801-.097-1.113-.292l-2.352-1.471c-.146-.091-.235-.251-.235-.424v-9.622c0-.182.099-.349.258-.438.158-.088.353-.083.507.014l2.352 1.47c.305.19.86.189 1.165 0l1.502-.939c.625-.39 1.602-.389 2.225 0l1.503.94c.306.19.861.19 1.166 0l1.506-.94c.624-.39 1.602-.39 2.226 0l1.503.939c.305.19.86.191 1.166 0l1.508-.94c.623-.391 1.601-.391 2.226 0l1.504.939c.306.191.861.191 1.167 0l1.507-.94c.624-.391 1.603-.39 2.227 0l1.505.939c.307.191.862.192 1.166 0l1.509-.94c.623-.391 1.601-.391 2.226-.001l1.508.941c.305.19.862.191 1.168 0l1.508-.941c.625-.39 1.604-.388 2.227.001l1.504.939c.306.192.861.191 1.167.001l1.508-.941c.625-.389 1.603-.389 2.227 0l1.508.941c.305.19.862.191 1.168 0l1.51-.941c.365-.229.779-.284 1.063-.29.1-.002.263.048.36.143.096.094.15.223.15.357v9.623c0 .272-.218.495-.49.5-.218.004-.42.054-.553.137l-1.509.941c-.624.389-1.603.389-2.227 0l-1.508-.941c-.306-.19-.862-.191-1.168 0l-1.508.941c-.624.389-1.602.389-2.226 0l-1.505-.941c-.305-.19-.862-.189-1.167 0l-1.508.941c-.625.389-1.603.388-2.227 0l-1.508-.941c-.306-.19-.862-.191-1.167 0l-1.508.942c-.623.389-1.601.39-2.226 0l-1.506-.942c-.305-.19-.861-.19-1.167 0l-1.506.941c-.625.39-1.603.39-2.227 0l-1.505-.941c-.305-.19-.861-.19-1.166 0l-1.507.941c-.624.39-1.601.39-2.226 0l-1.503-.94c-.305-.191-.861-.192-1.167-.001l-1.505.941c-.625.39-1.602.389-2.226 0l-1.503-.94c-.305-.191-.859-.192-1.164 0l-1.503.94c-.314.198-.714.295-1.114.295zm-2.7-2.463 2.117 1.324c.304.19.859.19 1.165 0l1.502-.939c.623-.392 1.601-.392 2.226 0l1.502.939c.305.189.861.19 1.167 0l1.505-.941c.625-.391 1.603-.389 2.227.002l1.502.939c.305.19.861.19 1.166 0l1.507-.941c.624-.39 1.601-.39 2.226 0l1.505.942c.305.19.861.19 1.167 0l1.506-.941c.625-.39 1.603-.39 2.227 0l1.506.941c.305.19.861.19 1.166 0l1.508-.942c.623-.389 1.601-.39 2.226 0l1.508.941c.305.19.862.19 1.168 0l1.508-.941c.625-.389 1.603-.389 2.227 0l1.505.942c.305.19.861.19 1.167 0l1.508-.941c.625-.389 1.603-.389 2.227 0l1.508.941c.305.19.862.19 1.168 0l1.51-.941c.187-.116.385-.187.572-.23v-8.571c-.015.008-.029.016-.042.024l-1.511.942c-.624.389-1.603.389-2.227 0l-1.508-.941c-.306-.19-.862-.19-1.168 0l-1.508.941c-.625.39-1.604.388-2.227-.001l-1.504-.939c-.307-.191-.863-.191-1.168-.001l-1.508.941c-.625.389-1.603.388-2.227 0l-1.508-.941c-.307-.191-.862-.191-1.166 0l-1.509.94c-.624.391-1.602.391-2.226 0l-1.505-.939c-.306-.191-.861-.191-1.167 0l-1.507.94c-.624.391-1.603.39-2.227 0l-1.504-.939c-.307-.191-.861-.192-1.166 0l-1.508.94c-.623.391-1.601.391-2.226 0l-1.503-.939c-.305-.19-.861-.19-1.166 0l-1.506.94c-.623.389-1.6.39-2.226 0l-1.503-.94c-.306-.19-.861-.19-1.165 0l-1.502.939c-.625.391-1.602.39-2.226 0l-1.585-.993z" fill="#63312d"/></svg>