<?xml version="1.0" encoding="iso-8859-1"?>
<!-- Generator: Adobe Illustrator 19.0.0, SVG Export Plug-In . SVG Version: 6.00 Build 0)  -->
<svg version="1.1" id="Capa_1" xmlns="http://www.w3.org/2000/svg" xmlns:xlink="http://www.w3.org/1999/xlink" x="0px" y="0px"
	 viewBox="0 0 510.672 510.672" style="enable-background:new 0 0 510.672 510.672;" xml:space="preserve">
<rect x="3.989" y="291.236" style="fill:#ED5565;" width="502.69" height="47.876"/>
<rect x="3.989" y="339.116" style="fill:#E6E9ED;" width="502.69" height="135.65"/>
<path style="fill:#5D9CEC;" d="M220.388,188.464c-32.875,12.53-61.201-17.158-61.201-17.158c-2.314-8.852-3.592-18.109-3.592-27.686
	c0-51.071,35.509-93.834,83.303-104.93C235.388,40.451,158.147,80.425,220.388,188.464z"/>
<path style="fill:#FFCE54;" d="M239.058,38.612c7.741-1.753,15.88-2.712,24.256-2.712c9.74,0,19.154,1.278,28.084,3.748
	c0,0-39.733,9.655-45.479,44.206c-2.474,14.844,1.36,34.395,17.396,59.767c-13.885,26.494-28.885,39.577-42.927,44.844
	c-62.241-108.039,15-148.014,18.51-149.774C238.98,38.612,239.058,38.612,239.058,38.612z"/>
<path style="fill:#5D9CEC;" d="M291.398,39.648c45.881,12.289,79.637,54.258,79.637,103.972c0,10.933-1.598,21.468-4.707,31.442
	c0.234-3.437,4.863-91.208-120.409-91.208C251.666,49.303,291.398,39.648,291.398,39.648z"/>
<path style="fill:#FFCE54;" d="M324.758,159.181c-11.572-9.974-30.648-16.761-61.443-15.561
	c-16.036-25.372-19.87-44.922-17.396-59.767c125.272,0,120.644,87.772,120.409,91.208c0,0.078,0,0.078,0,0.078
	c-5.189,17.15-14.602,32.47-26.977,44.758C339.352,219.898,350.604,181.6,324.758,159.181z"/>
<path style="fill:#5D9CEC;" d="M324.758,159.181c25.846,22.418,14.594,60.717,14.594,60.717
	c-19.543,19.473-46.348,31.442-76.037,31.442c-30.72,0-58.488-12.85-78.035-33.593c8.455,5.268,79.392,45.484,139.392-58.488
	L324.758,159.181z"/>
<path style="fill:#FFCE54;" d="M220.388,188.464c14.042-5.268,29.042-18.351,42.927-44.844c30.795-1.2,49.871,5.587,61.443,15.561
	l-0.086,0.078c-60,103.972-130.938,63.756-139.392,58.488c-0.082-0.078-0.16-0.163-0.242-0.163
	c-12.128-12.842-21.144-28.645-25.851-46.278C159.187,171.306,187.512,200.995,220.388,188.464z"/>
<g style="opacity:0.3;">
	<rect x="3.989" y="291.236" style="fill:#FFFFFF;" width="502.69" height="7.979"/>
</g>
<g style="opacity:0.2;">
	<rect x="3.989" y="331.136" width="502.69" height="7.979"/>
</g>
<g style="opacity:0.2;">
	<rect x="3.989" y="339.116" width="502.69" height="7.979"/>
</g>
<g style="opacity:0.3;">
	<path style="fill:#FFFFFF;" d="M171.776,143.62c0-56.798,43.987-103.216,99.736-107.315c-2.641-0.195-5.283-0.405-7.979-0.405
		c-59.49,0-107.716,48.227-107.716,107.72c0,59.486,48.227,107.72,107.716,107.72c2.695,0,5.338-0.21,7.979-0.405
		C215.763,246.836,171.776,200.41,171.776,143.62z"/>
</g>
<g style="opacity:0.2;">
	<path d="M355.076,143.62c0,56.798-43.986,103.216-99.74,107.315c2.645,0.195,5.287,0.405,7.979,0.405
		c59.494,0,107.721-48.227,107.721-107.72c0-59.486-48.227-107.72-107.721-107.72c-2.691,0-5.334,0.21-7.979,0.405
		C311.09,40.404,355.076,86.83,355.076,143.62z"/>
</g>
<g>
	<path style="fill:#3A3847;" d="M366.328,179.051c-0.389,0-0.795-0.054-1.184-0.179c-2.104-0.655-3.281-2.891-2.627-4.995
		c3-9.639,4.527-19.815,4.527-30.257c0-46.855-31.527-88.029-76.676-100.115c-16.027-4.426-33.732-4.785-50.431-1.005
		c-2.139,0.514-4.282-0.857-4.773-3.008c-0.487-2.151,0.861-4.286,3.012-4.769c17.97-4.083,37.045-3.686,54.29,1.083
		c48.6,13.014,82.559,57.352,82.559,107.814c0,11.244-1.645,22.224-4.887,32.626C369.602,177.961,368.027,179.051,366.328,179.051z"
		/>
	<path style="fill:#3A3847;" d="M185.038,221.574c-1.06,0-2.116-0.421-2.899-1.247c-12.764-13.52-22.032-30.109-26.805-47.993
		c-2.478-9.468-3.729-19.122-3.729-28.714c0-52.263,35.525-97.006,86.389-108.819c2.162-0.491,4.293,0.85,4.788,2.984
		c0.499,2.15-0.838,4.294-2.98,4.792c-47.233,10.964-80.218,52.512-80.218,101.042c0,8.915,1.165,17.891,3.464,26.673
		c4.426,16.59,13.033,31.995,24.889,44.548c1.516,1.605,1.441,4.13-0.16,5.642C187.005,221.215,186.02,221.574,185.038,221.574z"/>
	<path style="fill:#3A3847;" d="M263.315,255.33c-30.568,0-60.07-12.701-80.937-34.847c-1.512-1.605-1.438-4.13,0.167-5.642
		c1.605-1.504,4.134-1.434,5.638,0.171c19.652,20.852,46.337,32.338,75.132,32.338c27.617,0,53.627-10.753,73.225-30.281
		c12.102-12.016,21.078-26.914,25.971-43.083c0.641-2.104,2.869-3.312,4.973-2.665c2.111,0.639,3.303,2.867,2.664,4.971
		c-5.275,17.439-14.945,33.491-27.975,46.434C321.072,243.751,293.066,255.33,263.315,255.33z"/>
	<path style="fill:#3A3847;" d="M263.315,147.61c-1.32,0-2.613-0.654-3.373-1.854c-14.903-23.587-20.946-44.634-17.958-62.557
		c6.109-36.725,46.75-47.011,48.479-47.431c2.135-0.483,4.295,0.794,4.816,2.938c0.514,2.135-0.795,4.293-2.93,4.816
		c-0.375,0.093-37.259,9.506-42.496,40.987c-2.657,15.935,3.008,35.104,16.835,56.977c1.176,1.862,0.615,4.333-1.238,5.509
		C264.779,147.407,264.047,147.61,263.315,147.61z"/>
	<path style="fill:#3A3847;" d="M366.328,179.09c-0.047,0-0.094,0-0.139,0c-2.152-0.078-3.85-1.8-3.85-3.95v-0.078
		c0.092-1.52,1.854-31.06-20.713-55.247c-19.79-21.219-51.997-31.972-95.707-31.972c-2.205,0-3.99-1.784-3.99-3.99
		s1.785-3.99,3.99-3.99c46.009,0,80.171,11.61,101.536,34.504c24.92,26.696,22.949,59.58,22.855,60.967
		C370.162,177.439,368.418,179.09,366.328,179.09z"/>
	<path style="fill:#3A3847;" d="M203.591,195.586c-26.388,0-46.282-20.47-47.291-21.53c-1.52-1.589-1.461-4.106,0.133-5.634
		c1.589-1.527,4.118-1.465,5.638,0.125c0.261,0.289,26.938,27.624,56.895,16.192c15.117-5.673,28.843-20.127,40.816-42.974
		c1.021-1.94,3.439-2.704,5.389-1.675c1.947,1.021,2.703,3.429,1.684,5.384c-12.917,24.631-28.076,40.348-45.063,46.722
		C215.498,194.597,209.389,195.586,203.591,195.586z"/>
	<path style="fill:#3A3847;" d="M220.465,192.532c-1.122,0-2.135-0.46-2.859-1.208c-0.261-0.25-0.487-0.545-0.674-0.865
		c-22.875-39.702-29.923-74.985-20.95-104.876c10.243-34.13,37.995-48.889,41.127-50.463l0,0c2.696-1.379,5.934,0.639,5.938,3.491
		c0,1.613-0.958,3.008-2.341,3.631c-0.004,0.008-0.012,0.008-0.02,0.016c-2.817,1.411-27.779,14.696-37.064,45.616
		c-8.291,27.639-1.543,60.717,20.065,98.322c0.479,0.67,0.768,1.48,0.768,2.346C224.456,190.748,222.671,192.532,220.465,192.532z"
		/>
	<path style="fill:#3A3847;" d="M339.359,223.888c-0.365,0-0.748-0.055-1.121-0.164c-2.113-0.616-3.328-2.829-2.713-4.948
		c0.102-0.358,10.178-36.148-13.379-56.58c-12.428-10.707-32.119-15.654-58.676-14.587c-2.17,0.062-4.055-1.629-4.141-3.834
		s1.627-4.06,3.83-4.146c28.611-1.114,50.189,4.449,64.207,16.527c27.477,23.837,16.301,63.203,15.818,64.863
		C342.672,222.758,341.082,223.888,339.359,223.888z"/>
	<path style="fill:#3A3847;" d="M228.807,233.738c-23.91,0.008-41.622-10.099-45.635-12.601c-0.082-0.054-0.164-0.109-0.242-0.163
		c-0.658-0.397-1.071-0.764-1.305-0.998c-1.539-1.582-1.508-4.106,0.07-5.642c1.508-1.473,3.861-1.511,5.412-0.155
		c0.152,0.085,0.304,0.179,0.444,0.28c4.995,3.078,29.33,16.605,59.692,9.031c27.729-6.935,52.618-29.213,73.975-66.227
		c1.1-1.909,3.547-2.571,5.447-1.457c1.918,1.099,2.572,3.538,1.465,5.447c-22.48,38.954-49.045,62.494-78.951,69.975
		C242.043,233.021,235.201,233.738,228.807,233.738z"/>
	<path style="fill:#3A3847;" d="M506.684,295.227H3.989c-2.205,0-3.989-1.784-3.989-3.989s1.784-3.989,3.989-3.989h502.695
		c2.205,0,3.988,1.784,3.988,3.989S508.889,295.227,506.684,295.227z"/>
	<path style="fill:#3A3847;" d="M506.684,343.103H3.989c-2.205,0-3.989-1.784-3.989-3.989c0-2.206,1.784-3.99,3.989-3.99h502.695
		c2.205,0,3.988,1.784,3.988,3.99C510.672,341.318,508.889,343.103,506.684,343.103z"/>
	<path style="fill:#3A3847;" d="M31.917,478.75c-2.205,0-3.99-1.784-3.99-3.99V339.113c0-2.206,1.785-3.99,3.99-3.99
		s3.989,1.784,3.989,3.99v135.646C35.906,476.966,34.122,478.75,31.917,478.75z"/>
	<path style="fill:#3A3847;" d="M87.771,478.75c-2.205,0-3.989-1.784-3.989-3.99V339.113c0-2.206,1.784-3.99,3.989-3.99
		c2.206,0,3.99,1.784,3.99,3.99v135.646C91.761,476.966,89.977,478.75,87.771,478.75z"/>
	<path style="fill:#3A3847;" d="M143.627,478.75c-2.206,0-3.99-1.784-3.99-3.99V339.113c0-2.206,1.785-3.99,3.99-3.99
		s3.989,1.784,3.989,3.99v135.646C147.616,476.966,145.832,478.75,143.627,478.75z"/>
	<path style="fill:#3A3847;" d="M199.481,478.75c-2.205,0-3.989-1.784-3.989-3.99V339.113c0-2.206,1.784-3.99,3.989-3.99
		s3.99,1.784,3.99,3.99v135.646C203.471,476.966,201.686,478.75,199.481,478.75z"/>
	<path style="fill:#3A3847;" d="M255.336,478.75c-2.205,0-3.99-1.784-3.99-3.99V339.113c0-2.206,1.785-3.99,3.99-3.99
		c2.205,0,3.99,1.784,3.99,3.99v135.646C259.326,476.966,257.541,478.75,255.336,478.75z"/>
	<path style="fill:#3A3847;" d="M311.191,478.75c-2.205,0-3.99-1.784-3.99-3.99V339.113c0-2.206,1.785-3.99,3.99-3.99
		s3.988,1.784,3.988,3.99v135.646C315.18,476.966,313.397,478.75,311.191,478.75z"/>
	<path style="fill:#3A3847;" d="M367.045,478.75c-2.205,0-3.988-1.784-3.988-3.99V339.113c0-2.206,1.783-3.99,3.988-3.99
		s3.99,1.784,3.99,3.99v135.646C371.035,476.966,369.25,478.75,367.045,478.75z"/>
	<path style="fill:#3A3847;" d="M422.9,478.75c-2.205,0-3.99-1.784-3.99-3.99V339.113c0-2.206,1.785-3.99,3.99-3.99
		s3.99,1.784,3.99,3.99v135.646C426.891,476.966,425.106,478.75,422.9,478.75z"/>
	<path style="fill:#3A3847;" d="M478.756,478.75c-2.205,0-3.99-1.784-3.99-3.99V339.113c0-2.206,1.785-3.99,3.99-3.99
		s3.988,1.784,3.988,3.99v135.646C482.744,476.966,480.961,478.75,478.756,478.75z"/>
	<path style="fill:#3A3847;" d="M506.684,398.957H3.989c-2.205,0-3.989-1.784-3.989-3.989s1.784-3.989,3.989-3.989h502.695
		c2.205,0,3.988,1.784,3.988,3.989S508.889,398.957,506.684,398.957z"/>
	<path style="fill:#3A3847;" d="M506.684,454.813H3.989c-2.205,0-3.989-1.785-3.989-3.99s1.784-3.989,3.989-3.989h502.695
		c2.205,0,3.988,1.784,3.988,3.989S508.889,454.813,506.684,454.813z"/>
	<path style="fill:#3A3847;" d="M11.968,303.206c-2.205,0-3.99-1.784-3.99-3.989v-7.979c0-2.205,1.785-3.989,3.99-3.989
		s3.99,1.784,3.99,3.989v7.979C15.958,301.422,14.173,303.206,11.968,303.206z"/>
	<path style="fill:#3A3847;" d="M35.906,303.206c-2.205,0-3.989-1.784-3.989-3.989v-7.979c0-2.205,1.784-3.989,3.989-3.989
		c2.206,0,3.99,1.784,3.99,3.989v7.979C39.896,301.422,38.111,303.206,35.906,303.206z"/>
	<path style="fill:#3A3847;" d="M59.844,303.206c-2.206,0-3.99-1.784-3.99-3.989v-7.979c0-2.205,1.785-3.989,3.99-3.989
		c2.205,0,3.989,1.784,3.989,3.989v7.979C63.834,301.422,62.049,303.206,59.844,303.206z"/>
	<path style="fill:#3A3847;" d="M83.782,303.206c-2.205,0-3.99-1.784-3.99-3.989v-7.979c0-2.205,1.785-3.989,3.99-3.989
		s3.989,1.784,3.989,3.989v7.979C87.771,301.422,85.987,303.206,83.782,303.206z"/>
	<path style="fill:#3A3847;" d="M107.719,303.206c-2.205,0-3.989-1.784-3.989-3.989v-7.979c0-2.205,1.784-3.989,3.989-3.989
		c2.206,0,3.99,1.784,3.99,3.989v7.979C111.71,301.422,109.925,303.206,107.719,303.206z"/>
	<path style="fill:#3A3847;" d="M131.657,303.206c-2.205,0-3.99-1.784-3.99-3.989v-7.979c0-2.205,1.785-3.989,3.99-3.989
		c2.206,0,3.99,1.784,3.99,3.989v7.979C135.647,301.422,133.863,303.206,131.657,303.206z"/>
	<path style="fill:#3A3847;" d="M155.595,303.206c-2.205,0-3.99-1.784-3.99-3.989v-7.979c0-2.205,1.785-3.989,3.99-3.989
		s3.989,1.784,3.989,3.989v7.979C159.585,301.422,157.8,303.206,155.595,303.206z"/>
	<path style="fill:#3A3847;" d="M179.533,303.206c-2.205,0-3.989-1.784-3.989-3.989v-7.979c0-2.205,1.784-3.989,3.989-3.989
		s3.99,1.784,3.99,3.989v7.979C183.523,301.422,181.738,303.206,179.533,303.206z"/>
	<path style="fill:#3A3847;" d="M203.471,303.206c-2.205,0-3.99-1.784-3.99-3.989v-7.979c0-2.205,1.785-3.989,3.99-3.989
		c2.206,0,3.99,1.784,3.99,3.989v7.979C207.461,301.422,205.676,303.206,203.471,303.206z"/>
	<path style="fill:#3A3847;" d="M227.409,303.206c-2.205,0-3.99-1.784-3.99-3.989v-7.979c0-2.205,1.785-3.989,3.99-3.989
		s3.989,1.784,3.989,3.989v7.979C231.398,301.422,229.614,303.206,227.409,303.206z"/>
	<path style="fill:#3A3847;" d="M251.346,303.206c-2.205,0-3.989-1.784-3.989-3.989v-7.979c0-2.205,1.784-3.989,3.989-3.989
		s3.99,1.784,3.99,3.989v7.979C255.336,301.422,253.551,303.206,251.346,303.206z"/>
	<path style="fill:#3A3847;" d="M275.283,303.206c-2.205,0-3.988-1.784-3.988-3.989v-7.979c0-2.205,1.783-3.989,3.988-3.989
		s3.99,1.784,3.99,3.989v7.979C279.274,301.422,277.488,303.206,275.283,303.206z"/>
	<path style="fill:#3A3847;" d="M299.223,303.206c-2.205,0-3.99-1.784-3.99-3.989v-7.979c0-2.205,1.785-3.989,3.99-3.989
		s3.988,1.784,3.988,3.989v7.979C303.211,301.422,301.428,303.206,299.223,303.206z"/>
	<path style="fill:#3A3847;" d="M323.16,303.206c-2.205,0-3.99-1.784-3.99-3.989v-7.979c0-2.205,1.785-3.989,3.99-3.989
		s3.988,1.784,3.988,3.989v7.979C327.148,301.422,325.365,303.206,323.16,303.206z"/>
	<path style="fill:#3A3847;" d="M347.098,303.206c-2.205,0-3.99-1.784-3.99-3.989v-7.979c0-2.205,1.785-3.989,3.99-3.989
		s3.99,1.784,3.99,3.989v7.979C351.088,301.422,349.303,303.206,347.098,303.206z"/>
	<path style="fill:#3A3847;" d="M371.035,303.206c-2.205,0-3.99-1.784-3.99-3.989v-7.979c0-2.205,1.785-3.989,3.99-3.989
		s3.99,1.784,3.99,3.989v7.979C375.025,301.422,373.24,303.206,371.035,303.206z"/>
	<path style="fill:#3A3847;" d="M394.973,303.206c-2.205,0-3.988-1.784-3.988-3.989v-7.979c0-2.205,1.783-3.989,3.988-3.989
		s3.99,1.784,3.99,3.989v7.979C398.963,301.422,397.178,303.206,394.973,303.206z"/>
	<path style="fill:#3A3847;" d="M418.91,303.206c-2.205,0-3.988-1.784-3.988-3.989v-7.979c0-2.205,1.783-3.989,3.988-3.989
		s3.99,1.784,3.99,3.989v7.979C422.9,301.422,421.115,303.206,418.91,303.206z"/>
	<path style="fill:#3A3847;" d="M442.85,303.206c-2.207,0-3.99-1.784-3.99-3.989v-7.979c0-2.205,1.783-3.989,3.99-3.989
		c2.205,0,3.988,1.784,3.988,3.989v7.979C446.838,301.422,445.055,303.206,442.85,303.206z"/>
	<path style="fill:#3A3847;" d="M466.787,303.206c-2.205,0-3.99-1.784-3.99-3.989v-7.979c0-2.205,1.785-3.989,3.99-3.989
		s3.988,1.784,3.988,3.989v7.979C470.775,301.422,468.992,303.206,466.787,303.206z"/>
	<path style="fill:#3A3847;" d="M490.725,303.206c-2.205,0-3.99-1.784-3.99-3.989v-7.979c0-2.205,1.785-3.989,3.99-3.989
		s3.99,1.784,3.99,3.989v7.979C494.715,301.422,492.93,303.206,490.725,303.206z"/>
</g>
<g>
</g>
<g>
</g>
<g>
</g>
<g>
</g>
<g>
</g>
<g>
</g>
<g>
</g>
<g>
</g>
<g>
</g>
<g>
</g>
<g>
</g>
<g>
</g>
<g>
</g>
<g>
</g>
<g>
</g>
</svg>
