<?xml version="1.0" encoding="iso-8859-1"?>
<!-- Generator: Adobe Illustrator 19.0.0, SVG Export Plug-In . SVG Version: 6.00 Build 0)  -->
<svg version="1.1" id="Capa_1" xmlns="http://www.w3.org/2000/svg" xmlns:xlink="http://www.w3.org/1999/xlink" x="0px" y="0px"
	 viewBox="0 0 215.04 215.04" style="enable-background:new 0 0 215.04 215.04;" xml:space="preserve">
<path style="fill:#FFDD95;" d="M42.182,3.413h51.647c0,0,38.506,116.332-5.082,195.905c0,0-4.086,10.493-12.706,10.493
	c-8.62,0-12.247-5.564-12.247-5.564s-11.839-10.25-7.919-31.896c3.92-21.644-9.182-41.684-22.385-58.699
	c-13.203-17.017,4.311-35.941,18.403-47.891C65.983,53.811,42.182,3.413,42.182,3.413z"/>
<path d="M76.041,213.226c-8.994,0-13.621-5.152-14.804-6.692c-2.057-1.963-12.621-13.266-8.721-34.79
	c3.615-19.951-8.305-38.706-21.722-55.999c-11.353-14.631-4.997-32.324,18.891-52.586c4.576-3.881,4.357-15.251-0.616-32.012
	c-4.062-13.689-9.916-26.151-9.974-26.276c-0.498-1.056-0.423-2.297,0.205-3.284C39.926,0.599,41.013,0,42.182,0h51.647
	c1.471,0,2.778,0.944,3.241,2.34c0.097,0.295,9.789,29.88,13.957,68.823c3.859,36.047,3.656,87.776-19.195,129.625
	C91.088,202.563,86.185,213.226,76.041,213.226z M47.439,6.827c2.145,5.009,5.482,13.314,8.154,22.306
	C61.658,49.536,61.17,62.37,54.1,68.364c-20.871,17.702-26.73,31.831-17.913,43.197c14.387,18.541,27.138,38.813,23.045,61.399
	c-3.531,19.505,6.692,28.619,6.794,28.708c0.241,0.208,0.451,0.449,0.625,0.715c0.089,0.126,2.862,4.016,9.388,4.016
	c6.149,0,9.496-8.247,9.528-8.329c0.051-0.131,0.116-0.268,0.183-0.391c38.999-71.195,10.605-174.087,5.56-190.851H47.439V6.827z"/>
<path d="M68.267,102.402c-1.428,0-2.761-0.905-3.238-2.335c-0.596-1.789,0.37-3.722,2.159-4.318l35.526-11.841L52.279,36.625
	c-0.954-0.893-1.312-2.251-0.927-3.5c0.387-1.246,1.451-2.166,2.741-2.364l44.373-6.827c1.859-0.283,3.606,0.99,3.893,2.855
	c0.287,1.864-0.992,3.604-2.854,3.891l-37.441,5.76l49.495,46.403c0.877,0.821,1.258,2.046,1,3.22
	c-0.258,1.174-1.114,2.128-2.255,2.509l-40.96,13.653C68.989,102.345,68.623,102.402,68.267,102.402z"/>
<path style="fill:#F97DA3;" d="M74.46,96.775c-3.615-14.307-13.194-24.617-22.112-31.478c-0.155,0.152-0.292,0.323-0.457,0.464
	c-14.09,11.95-31.604,30.874-18.401,47.891s26.305,37.055,22.385,58.699c-3.92,21.646,7.919,31.896,7.919,31.896
	s3.627,5.564,12.247,5.564s12.706-10.493,12.706-10.493c4.884-8.919,8.69-18.313,11.682-27.938
	C79.138,153.095,81.114,123.104,74.46,96.775z"/>
<path d="M76.041,213.226c-8.994,0-13.621-5.152-14.802-6.692c-2.057-1.964-12.621-13.268-8.721-34.79
	c3.613-19.948-8.305-38.704-21.722-55.999c-11.353-14.631-4.997-32.324,18.891-52.586c0.079-0.099,0.179-0.205,0.283-0.307
	c1.217-1.179,3.12-1.294,4.461-0.258c12.283,9.448,20.135,20.668,23.34,33.345l0,0c1.823,7.212,3.016,14.722,4.169,21.984
	c3.128,19.698,6.084,38.304,20.714,50.869c1.033,0.887,1.439,2.304,1.034,3.603c-3.198,10.29-7.187,19.843-11.856,28.396
	C91.088,202.563,86.185,213.226,76.041,213.226z M52.473,69.763c-19.541,17.046-24.87,30.734-16.287,41.798
	c14.387,18.543,27.136,38.816,23.045,61.399c-3.531,19.505,6.692,28.619,6.794,28.708c0.241,0.208,0.452,0.451,0.625,0.717
	c0.089,0.125,2.862,4.014,9.387,4.014c6.115,0,9.492-8.235,9.527-8.318c0.055-0.138,0.116-0.271,0.188-0.401
	c4.175-7.622,7.788-16.101,10.755-25.231c-15.065-14.131-18.239-34.111-21.311-53.453c-1.13-7.113-2.299-14.469-4.045-21.381l0,0
	C68.524,87.217,62.246,77.862,52.473,69.763z"/>
<path style="fill:#FFDD95;" d="M110.449,3.413h51.647c0,0,38.506,116.332-5.082,195.905c0,0-4.086,10.493-12.706,10.493
	s-12.247-5.564-12.247-5.564s-11.839-10.25-7.919-31.896c3.92-21.644-9.182-41.684-22.385-58.699
	c-13.203-17.017,4.311-35.941,18.403-47.891C134.25,53.811,110.449,3.413,110.449,3.413z"/>
<path d="M144.307,213.226c-8.994,0-13.621-5.152-14.804-6.692c-2.057-1.963-12.621-13.266-8.721-34.79
	c3.615-19.951-8.305-38.706-21.722-55.999c-11.353-14.631-4.997-32.324,18.891-52.586c4.576-3.881,4.357-15.251-0.616-32.012
	c-4.062-13.689-9.916-26.151-9.974-26.276c-0.498-1.056-0.423-2.297,0.205-3.284C108.192,0.599,109.28,0,110.449,0h51.647
	c1.471,0,2.778,0.944,3.241,2.34c0.097,0.295,9.789,29.88,13.957,68.823c3.859,36.047,3.656,87.776-19.195,129.625
	C159.355,202.563,154.452,213.226,144.307,213.226z M115.705,6.827c2.145,5.009,5.482,13.314,8.154,22.306
	c6.065,20.403,5.577,33.237-1.493,39.231c-20.871,17.702-26.73,31.831-17.913,43.197c14.387,18.541,27.138,38.813,23.045,61.399
	c-3.531,19.505,6.692,28.619,6.794,28.708c0.241,0.208,0.451,0.449,0.625,0.715c0.089,0.126,2.862,4.016,9.388,4.016
	c6.149,0,9.496-8.247,9.528-8.329c0.051-0.131,0.116-0.268,0.183-0.391c38.999-71.195,10.605-174.087,5.56-190.851h-43.872V6.827z"
	/>
<path d="M136.533,102.402c-1.428,0-2.761-0.905-3.238-2.335c-0.596-1.789,0.37-3.722,2.159-4.318l35.526-11.841l-50.435-47.283
	c-0.954-0.893-1.312-2.251-0.927-3.5c0.387-1.246,1.451-2.166,2.741-2.364l44.373-6.827c1.859-0.283,3.606,0.99,3.893,2.855
	c0.287,1.864-0.992,3.604-2.854,3.891l-37.441,5.76l49.495,46.403c0.877,0.821,1.258,2.046,1,3.22
	c-0.258,1.174-1.114,2.128-2.255,2.509l-40.96,13.653C137.255,102.345,136.89,102.402,136.533,102.402z"/>
<path style="fill:#F97DA3;" d="M142.727,96.775c-3.615-14.307-13.194-24.617-22.112-31.478c-0.155,0.152-0.292,0.323-0.457,0.464
	c-14.09,11.95-31.604,30.874-18.401,47.891s26.305,37.055,22.385,58.699c-3.92,21.646,7.919,31.896,7.919,31.896
	s3.627,5.564,12.247,5.564s12.706-10.493,12.706-10.493c4.884-8.919,8.69-18.313,11.682-27.938
	C147.405,153.095,149.381,123.104,142.727,96.775z"/>
<path d="M144.307,213.226c-8.994,0-13.621-5.152-14.804-6.692c-2.057-1.963-12.621-13.266-8.721-34.79
	c3.613-19.949-8.305-38.704-21.722-55.999c-11.353-14.631-4.997-32.324,18.891-52.586c0.08-0.099,0.177-0.201,0.276-0.3
	c1.217-1.188,3.123-1.302,4.468-0.265c12.285,9.45,20.137,20.668,23.34,33.345c1.823,7.212,3.016,14.722,4.169,21.984
	c3.128,19.698,6.084,38.304,20.714,50.869c1.033,0.887,1.439,2.304,1.034,3.603c-3.198,10.29-7.187,19.843-11.856,28.396
	C159.355,202.563,154.452,213.226,144.307,213.226z M120.74,69.763c-19.541,17.046-24.87,30.734-16.287,41.798
	c14.387,18.543,27.136,38.815,23.045,61.399c-3.531,19.505,6.692,28.619,6.794,28.708c0.241,0.208,0.451,0.449,0.625,0.715
	c0.089,0.126,2.862,4.016,9.388,4.016c6.149,0,9.496-8.247,9.528-8.329c0.051-0.131,0.116-0.268,0.183-0.391
	c4.174-7.622,7.788-16.101,10.755-25.231c-15.065-14.131-18.239-34.111-21.311-53.453c-1.13-7.113-2.299-14.469-4.045-21.381l0,0
	C136.793,87.217,130.514,77.862,120.74,69.763z"/>
<path d="M174.08,215.04H40.96c-1.884,0-3.413-1.529-3.413-3.413c0-1.884,1.529-3.413,3.413-3.413h133.12
	c1.884,0,3.413,1.529,3.413,3.413C177.493,213.511,175.964,215.04,174.08,215.04z"/>
<path d="M27.307,215.04H3.413c-1.884,0-3.413-1.529-3.413-3.413c0-1.884,1.529-3.413,3.413-3.413h23.893
	c1.884,0,3.413,1.529,3.413,3.413C30.72,213.511,29.191,215.04,27.307,215.04z"/>
<path d="M211.627,215.04h-23.893c-1.884,0-3.413-1.529-3.413-3.413c0-1.884,1.529-3.413,3.413-3.413h23.893
	c1.884,0,3.413,1.529,3.413,3.413C215.04,213.511,213.511,215.04,211.627,215.04z"/>
<g>
</g>
<g>
</g>
<g>
</g>
<g>
</g>
<g>
</g>
<g>
</g>
<g>
</g>
<g>
</g>
<g>
</g>
<g>
</g>
<g>
</g>
<g>
</g>
<g>
</g>
<g>
</g>
<g>
</g>
</svg>
