<?xml version="1.0" standalone="no"?>
<!DOCTYPE svg PUBLIC "-//W3C//DTD SVG 20010904//EN"
 "http://www.w3.org/TR/2001/REC-SVG-20010904/DTD/svg10.dtd">
<svg version="1.0" xmlns="http://www.w3.org/2000/svg"
 width="512.000000pt" height="512.000000pt" viewBox="0 0 512.000000 512.000000"
 preserveAspectRatio="xMidYMid meet">
<metadata>
Created by potrace 1.16, written by Peter Selinger 2001-2019
</metadata>
<g transform="translate(0.000000,512.000000) scale(0.100000,-0.100000)"
fill="#000000" stroke="none">
<path d="M842 4425 c-174 -88 -172 -345 3 -431 47 -22 65 -26 124 -22 88 5
152 42 196 112 27 44 30 58 30 126 0 68 -3 82 -30 126 -45 72 -109 108 -199
112 -61 3 -78 0 -124 -23z m141 -124 c89 -34 89 -148 0 -182 -35 -13 -69 -2
-98 33 -31 36 -32 76 -4 112 32 41 63 52 102 37z"/>
<path d="M2428 4418 c-17 -18 -39 -46 -49 -63 -10 -16 -108 -141 -216 -278
l-198 -247 -50 4 c-27 2 -192 20 -365 40 -365 42 -391 43 -413 18 -24 -26 -22
-67 22 -467 22 -192 36 -353 33 -356 -4 -3 -143 -115 -309 -249 -299 -239
-303 -243 -303 -279 0 -47 -7 -40 342 -320 270 -217 276 -223 272 -254 -15
-109 -74 -687 -74 -727 0 -42 4 -52 25 -66 23 -15 50 -13 405 26 210 22 388
40 397 38 8 -2 121 -136 251 -298 130 -162 249 -301 263 -309 14 -8 36 -11 50
-8 17 4 101 101 269 311 179 223 251 306 266 306 11 0 187 -18 390 -40 391
-43 404 -43 424 2 10 22 -17 299 -66 677 -9 68 -12 127 -7 131 4 4 136 110
293 235 157 125 293 237 302 247 27 30 22 70 -9 100 -16 14 -156 128 -311 253
l-284 227 6 42 c24 176 77 729 73 748 -13 50 -29 50 -419 8 -200 -22 -375 -40
-391 -40 -24 0 -57 38 -273 308 -230 287 -248 307 -280 310 -29 3 -40 -3 -66
-30z m358 -513 c163 -202 170 -210 207 -213 22 -2 192 13 378 34 187 20 341
35 343 33 2 -2 -14 -164 -36 -359 -21 -195 -36 -365 -33 -377 3 -14 112 -108
290 -250 156 -125 284 -231 285 -234 0 -4 -127 -108 -282 -233 -156 -125 -287
-237 -291 -249 -5 -14 7 -160 31 -382 22 -198 39 -361 38 -362 -1 -1 -163 16
-361 38 -198 22 -370 37 -381 34 -13 -3 -114 -120 -250 -290 -126 -157 -231
-285 -234 -285 -3 1 -92 110 -198 244 -107 134 -213 265 -236 292 l-43 48
-369 -39 c-321 -35 -369 -38 -371 -25 -2 8 15 170 36 360 23 206 35 354 30
367 -4 12 -136 125 -293 251 l-285 230 288 231 c159 127 291 240 293 249 3 10
-13 179 -34 376 -21 197 -37 360 -35 362 2 3 85 -4 183 -15 377 -41 531 -54
555 -47 16 4 101 102 252 292 l229 285 63 -78 c35 -43 139 -172 231 -288z"/>
<path d="M1967 3132 c-15 -17 -17 -63 -17 -449 0 -236 -3 -458 -6 -492 l-7
-61 -109 0 c-102 0 -110 -1 -133 -25 -31 -30 -32 -65 -2 -93 22 -21 33 -22
185 -22 149 0 164 2 182 20 20 20 20 33 20 560 0 527 0 540 -20 560 -25 25
-72 26 -93 2z"/>
<path d="M2240 3130 c-19 -19 -20 -33 -20 -248 0 -190 3 -231 16 -250 20 -29
74 -30 100 -1 18 19 19 39 19 249 0 210 -1 230 -19 249 -24 27 -70 27 -96 1z"/>
<path d="M2511 3124 c-21 -26 -21 -36 -21 -510 l0 -484 -109 0 c-94 0 -112 -3
-135 -21 -35 -28 -35 -70 0 -98 24 -19 40 -21 181 -21 150 0 155 1 178 25 24
23 25 28 25 170 l0 145 409 0 c228 0 421 4 434 9 29 11 48 57 36 87 -11 31
-123 148 -191 200 -79 62 -175 105 -247 111 -50 5 -61 3 -80 -16 -49 -49 -16
-103 74 -120 60 -11 132 -49 195 -102 l34 -29 -332 0 -332 0 0 314 c0 302 -1
314 -21 340 -13 17 -30 26 -49 26 -19 0 -36 -9 -49 -26z"/>
<path d="M735 1835 c-49 -48 -19 -119 50 -119 43 0 75 30 75 71 0 32 -42 73
-75 73 -14 0 -37 -11 -50 -25z"/>
<path d="M3817 972 c-10 -10 -17 -34 -17 -52 0 -27 10 -44 45 -80 l45 -46 -45
-44 c-37 -36 -45 -51 -45 -81 0 -44 25 -69 69 -69 24 0 44 11 79 44 l47 44 47
-44 c53 -50 94 -58 128 -24 35 35 26 79 -25 130 l-44 44 44 47 c35 37 45 56
45 82 0 43 -26 67 -70 67 -27 0 -44 -10 -80 -45 l-46 -45 -44 45 c-36 37 -51
45 -81 45 -22 0 -42 -7 -52 -18z"/>
<path d="M1555 745 c-14 -13 -25 -36 -25 -50 0 -33 42 -75 75 -75 33 0 75 42
75 75 0 33 -42 75 -75 75 -14 0 -37 -11 -50 -25z"/>
</g>
</svg>
