<svg id="Capa_1" enable-background="new 0 0 512 512" height="512" viewBox="0 0 512 512" width="512" xmlns="http://www.w3.org/2000/svg"><g><path d="m512 256.037c0 88.366-44.772 166.274-112.868 212.279-40.858 27.603-90.113 21.841-143.132 21.841-52.713 0-101.706 5.948-142.424-21.364-68.494-45.942-113.576-124.084-113.576-212.756 0-141.385 114.615-256 256-256s256 114.615 256 256z" fill="#132866"/><g><path d="m398.41 468.797c-70.92 48.449-167.303 56.801-245.64 21.57-13.74-6.06-26.84-13.29-39.19-21.58 10.39-14.37 23.76-26.43 39.19-35.32 10.2-5.87 21.3-10.34 33.03-13.15 9.629-2.325 19.465-3.459 29.4-3.47h81.59c9.983.02 19.761 1.118 29.41 3.46 11.74 2.82 22.83 7.29 33.03 13.16 15.43 8.9 28.79 20.96 39.18 35.33z" fill="#51aaf7"/><path d="m215.2 416.847c-29.36 0-49.26 42.43-50.73 78.33-17.903-6.826-35.079-15.777-50.89-26.39 10.39-14.37 23.76-26.43 39.19-35.32 10.2-5.87 21.3-10.34 33.03-13.15 9.614-2.325 19.467-3.458 29.4-3.47z" fill="#378ae5"/><path d="m315.71 418.257v17.97c0 12.25-5.92 23.87-15.82 31.08l-21.25 15.48c-6.62 4.82-14.45 7.37-22.64 7.37s-16.02-2.54-22.65-7.37l-21.25-15.48c-9.9-7.21-15.82-18.83-15.82-31.09v-17.95c6.271-.942 12.536-1.417 18.92-1.42h81.59c6.425.007 12.652.467 18.92 1.41z" fill="#fadc42"/><path d="m211.284 436.221v-67.647h89.422v67.648c0 7.5-3.585 14.547-9.647 18.963l-21.246 15.478c-8.232 5.997-19.394 5.998-27.627.001l-21.253-15.479c-6.063-4.415-9.649-11.463-9.649-18.964z" fill="#f1c0a6"/><g fill="#e6ac94"><path d="m132.54 278.191c0 20.497-14.973 37.492-34.579 40.646-3.562-12.95-5.464-26.579-5.464-40.646s1.902-27.696 5.464-40.646c19.606 3.154 34.579 20.149 34.579 40.646z"/><path d="m379.449 278.191c0 20.497 14.973 37.492 34.579 40.646 3.562-12.95 5.464-26.579 5.464-40.646s-1.902-27.696-5.464-40.646c-19.606 3.154-34.579 20.149-34.579 40.646z"/></g><path d="m410.696 256.548c0 76.985-56.241 140.847-129.873 152.705-8.078 1.326-16.369 1.997-24.828 1.997-85.444 0-154.701-69.258-154.701-154.701v-157.5l309.403 14.715v142.784z" fill="#f1c0a6"/><path d="m204.782 144.264s61.511 89.463 183.896 59.056v-77.321h-177.394" fill="#132866"/><path d="m283.243 408.847c-.8.14-1.61.28-2.42.41-8.08 1.32-16.37 1.99-24.83 1.99-85.44 0-154.7-69.25-154.7-154.7v-157.5h54.55v157.5c0 76.14 54.98 139.41 127.4 152.3z" fill="#e6ac94"/><path d="m255.995 337.968c-12.954 0-25.908-3.246-37.716-9.737-3.331-1.831-4.546-6.015-2.715-9.346s6.016-4.545 9.346-2.715c19.465 10.701 42.707 10.7 62.17 0 3.329-1.831 7.514-.616 9.346 2.715 1.831 3.331.616 7.515-2.715 9.346-11.808 6.491-24.762 9.737-37.716 9.737z" fill="#d49985"/><path d="m273.544 291.731h-35.098c-4.181 0-7.57-3.389-7.57-7.57 0-4.181 3.389-7.57 7.57-7.57h35.098c4.181 0 7.57 3.389 7.57 7.57 0 4.181-3.389 7.57-7.57 7.57z" fill="#e6ac94"/><g><path d="m281.34 249.198c0 17.165 13.915 31.08 31.08 31.08s31.08-13.915 31.08-31.08z" fill="#e6ac94"/><circle cx="312.42" cy="249.198" fill="#343a3e" r="22.287"/><circle cx="321.708" cy="245.265" fill="#fff" r="9.55"/><path d="m168.49 249.198c0 17.165 13.915 31.08 31.08 31.08s31.08-13.915 31.08-31.08z" fill="#e6ac94"/><circle cx="199.57" cy="249.198" fill="#343a3e" r="22.287"/><path d="m204.782 270.868c-1.67.41-3.42.62-5.21.62-12.31 0-22.29-9.98-22.29-22.29s9.98-22.29 22.29-22.29c1.79 0 3.54.21 5.21.62-9.8 2.34-17.07 11.16-17.07 21.67s7.27 19.33 17.07 21.67z" fill="#1f2426"/><path d="m317.632 270.868c-1.67.41-3.42.62-5.21.62-12.31 0-22.29-9.98-22.29-22.29s9.98-22.29 22.29-22.29c1.79 0 3.54.21 5.21.62-9.8 2.34-17.07 11.16-17.07 21.67s7.27 19.33 17.07 21.67z" fill="#1f2426"/><circle cx="208.858" cy="245.265" fill="#fff" r="9.55"/></g><g fill="#132866"><path d="m383.666 270.524h27.03v-169.234l-44.036 28.934z"/><g><path d="m189.817 293.889h-24.365c-5.917 0-10.713 4.797-10.713 10.713 0 5.917 4.797 10.713 10.713 10.713h24.365c5.917 0 10.713-4.797 10.713-10.713.001-5.916-4.796-10.713-10.713-10.713z"/><path d="m346.537 293.889h-24.365c-5.917 0-10.713 4.797-10.713 10.713 0 5.917 4.797 10.713 10.713 10.713h24.365c5.917 0 10.713-4.797 10.713-10.713 0-5.916-4.796-10.713-10.713-10.713z"/></g></g></g><g><path d="m129.907 140.184 18.644 189.491c2.291 23.281-13.845 44.357-36.918 48.221l-29.6-181.118 27.857-65.584z" fill="#f6b231"/><path d="m383.535 140.184-18.644 189.491c-2.291 23.281 13.845 44.357 36.918 48.221l29.6-181.118-27.857-65.584z" fill="#f6b231"/><path d="m429.96 196.777-15.72 136.1c-.65 5.64-3.36 10.6-7.34 14.13-3.97 3.54-9.2 5.67-14.87 5.67l18.82-149.25c.24-1.94.36-3.87.36-5.77 0-21.85-15.65-41.02-37.69-44.96-38.87-6.93-78.2-10.4-117.52-10.4-39.33 0-78.66 3.47-117.53 10.4-23.96 4.28-40.38 26.58-37.33 50.73l18.82 149.25c-11.35 0-20.91-8.51-22.21-19.8l-15.72-136.1c-7.53-65.19 21-129.89 75.38-166.63 25.23-17.04 55.11-27.73 87.34-29.75 3.72-.24 7.47-.36 11.24-.36 3.78 0 7.52.12 11.24.36 32.23 2.02 62.12 12.71 87.35 29.75 54.38 36.74 82.9 101.44 75.38 166.63z" fill="#51aaf7"/><path d="m291.148 3.555c-23.116 4.659-44.577 13.853-63.433 26.589-41.324 27.912-67.72 71.979-74.708 120.126-4.852.759-9.69 1.558-14.528 2.426-23.97 4.273-40.387 26.575-37.34 50.738l18.829 149.238c-11.358 0-20.91-8.505-22.22-19.793l-15.715-136.102c-7.526-65.198 20.993-129.885 75.384-166.633 28.133-19.008 62.055-30.104 98.582-30.104 12.033.001 23.791 1.2 35.149 3.515z" fill="#378ae5"/><path d="m393.902 148.279c-90.221-26.534-185.594-26.534-275.814 0-32.436 9.541-52.464 42.934-45.617 76.038l26.794 156.868c4.322 25.312 26.097 43.684 51.776 43.684h209.907c25.68 0 47.454-18.372 51.776-43.684l26.794-156.868c6.848-33.104-13.179-66.497-45.616-76.038zm-60.607 192.307 6.067-40.546c21.811-1.814 43.867-4.377 65.663-7.63l-6.994 40.939c-21.436 3.111-43.186 5.543-64.736 7.237zm60.75 16.095-3.538 20.709c-2.467 14.45-14.898 24.938-29.559 24.938h-36.893l5.819-38.887c21.408-1.571 42.962-3.842 64.171-6.76zm-211.865 6.762 5.82 38.885h-36.959c-14.66 0-27.092-10.488-29.559-24.938l-3.537-20.709c21.341 2.936 42.917 5.208 64.235 6.762zm-9.49-63.398 6.068 40.545c-21.448-1.678-43.217-4.111-64.799-7.243l-6.992-40.937c21.82 3.257 43.898 5.821 65.723 7.635zm-69.721-31.045-8.327-48.748-.069-.355c-4.58-21.759 8.543-43.719 29.877-49.994 42.824-12.597 87.083-18.984 131.546-18.984 44.46 0 88.719 6.387 131.546 18.984 21.333 6.275 34.456 28.235 29.876 49.994l-8.392 49.102c-101.549 15.941-204.506 15.942-306.057.001zm98.807 73.095-6.047-40.397c20.063 1.204 40.318 1.813 60.266 1.813 19.969 0 40.244-.611 60.328-1.818l-6.046 40.403c-36.008 1.979-72.482 1.979-108.501-.001zm105.096 22.754-5.608 37.479h-90.473l-5.609-37.48c17.166.867 34.255 1.306 50.855 1.306 16.595.001 33.679-.438 50.835-1.305z" fill="#e8eeff"/><path d="m166.391 402.336h-15.35c-14.66 0-27.09-10.49-29.56-24.94l-3.53-20.71c13.93 1.91 27.95 3.55 41.94 4.88l-3.46-22.98c-14.14-1.43-28.35-3.18-42.47-5.24l-6.99-40.93c14.39 2.14 28.89 3.99 43.35 5.51l-3.46-23.03c-14.65-1.63-29.29-3.6-43.89-5.89l-8.33-48.75-.07-.36c-4.58-21.76 8.55-43.72 29.88-49.99 7.21-2.12 14.46-4.07 21.74-5.83 6.36-12.1 15.69-22.18 27.14-28.63-18.57 3.2-37.01 7.48-55.24 12.84-32.44 9.54-52.47 42.93-45.62 76.03l26.79 156.87c4.33 25.31 26.1 43.69 51.78 43.69h26.27c-4.95-6.39-8.73-14.03-10.92-22.54z" fill="#d2dbf9"/></g><path d="m267.23.397v141.07h-22.48v-141.07c3.72-.24 7.47-.36 11.24-.36 3.78 0 7.52.12 11.24.36z" fill="#e8eeff"/></g></svg>