<svg id="Capa_1" enable-background="new 0 0 512.12 512.12" height="512" viewBox="0 0 512.12 512.12" width="512" xmlns="http://www.w3.org/2000/svg"><path d="m308.203 25.344v225.27h43.202 124.408 28.81v-225.27z" fill="#ebebeb"/><path d="m121.463 39.984c-1.82-.84-3.47-2-4.88-3.4-3.06-3.07-4.95-7.29-4.95-11.97 0-9.34 7.57-16.91 16.91-16.91h87.12c21.64 0 40.09 15.72 43.52 37.09l1.09 6.78h32.31 36.24v99.08h-36.24-26.9l-17.83 11.17c-14.04 8.8-30.28 13.46-46.86 13.46h-68.03-57.41c-4.67 0-8.9-1.89-11.96-4.95-3.07-3.06-4.96-7.29-4.96-11.96 0-9.34 7.58-16.91 16.92-16.91h-15.01c-9.48 0-17.54-7.76-17.36-17.24.17-9.19 7.68-16.59 16.91-16.59h-16.09c-9.23 0-16.74-7.4-16.91-16.59-.17-9.48 7.88-17.24 17.36-17.24h8.9c-4.67 0-8.9-1.89-11.96-4.95s-4.95-7.29-4.95-11.96c0-9.34 7.57-16.91 16.91-16.91z" fill="#fed2a4"/><path d="m352.673 25.344c4.32 0 8.22 1.75 11.05 4.57 2.82 2.83 4.57 6.74 4.57 11.05v10.61 99.08 84.34c0 8.62-6.99 15.62-15.62 15.62h-44.467v-225.269z" fill="#fe646f"/><path d="m323.823 150.654v84.34c0 8.62-6.99 15.62-15.62 15.62-4.31 0-8.22-1.75-11.04-4.58-2.83-2.82-4.58-6.73-4.58-11.04v-84.34-99.08-10.61c0-8.63 7-15.62 15.62-15.62 4.32 0 8.22 1.75 11.05 4.57 2.82 2.83 4.57 6.74 4.57 11.05v10.61z" fill="#bfbfbf"/><path d="m290.848 51.574v55.812c0 13.899-11.267 25.166-25.166 25.166l-17.83 11.17c-14.04 8.8-30.28 13.46-46.86 13.46h-68.03-57.41c-4.67 0-8.9-1.89-11.96-4.95-.879-.876-1.647-1.857-2.316-2.907-1.666 2.618-2.644 5.717-2.644 9.049 0 4.67 1.89 8.9 4.96 11.96 3.06 3.06 7.29 4.95 11.96 4.95h57.41 68.03c16.58 0 32.82-4.66 46.86-13.46l17.83-11.17h26.9 9.266 21.974v-18.103-80.977z" fill="#ffbd86"/><path d="m420.583 219.534-5.16 17.79-11.92-2.67c-8.06-1.81-11.38-11.49-6.11-17.85l4.11-4.97.01-.01c1.39 1.56 3.23 2.79 5.45 3.48z" fill="#f6a96c"/><path d="m409.773 189.854 14.97 15.37-4.16 14.31-13.62-4.23c-2.22-.69-4.06-1.92-5.45-3.48-3.89-4.27-4.48-11.04-.49-16l6.72-8.35c.62.83 1.29 1.62 2.03 2.38z" fill="#ffbd86"/><path d="m7.503 274.034h222.04c-10.52 0-19.05 8.53-19.05 19.06v192.26c0 5.26 2.13 10.03 5.58 13.48s8.21 5.58 13.47 5.58h-222.04z" fill="#ebebeb"/><path d="m248.603 421.154v64.2c0 10.53-8.53 19.06-19.06 19.06-5.26 0-10.02-2.13-13.47-5.58s-5.58-8.22-5.58-13.48v-192.26c0-10.53 8.53-19.06 19.05-19.06 5.26 0 10.03 2.13 13.48 5.58s5.58 8.22 5.58 13.48v10.29z" fill="#bfbfbf"/><path d="m420.583 219.534 4.16-14.31-14.97-15.37c-.74-.76-1.41-1.55-2.03-2.38-6.37-8.52-6.34-20.44.43-28.97l.34-.44c7.95-10.03 22.13-12.31 32.73-5.33 2.44 1.61 4.98 3.28 7.53 4.96 17.94 11.79 29.04 31.56 29.78 53.01l.53 15.46c.21 6.19-.41 12.37-1.83 18.4l-7.69 32.42c-2.61 10.99-2.26 22.48 1.01 33.3l3.41 11.25c3.59 11.87 5.42 24.2 5.42 36.6v40.87c0 22.52-18.26 40.77-40.78 40.77h-14.76c-9.39 0-17.89-3.8-24.04-9.96-6.16-6.15-9.96-14.65-9.96-24.04 0-1.46-1.19-2.65-2.65-2.65h-93.34c-1.61 0-3.14.72-4.17 1.96-8.49 10.18-21.06 16.07-34.32 16.07h-47.89v-117.77h137.31l5.76-8.97c9.14-14.26 24.92-22.88 41.85-22.88h13.08l9.93-34.21z" fill="#fed2a4"/><g fill="#ffbd86"><path d="m469.563 251.04c-2.167 9.125-2.287 18.594-.395 27.74.124-.6.253-1.198.395-1.795l7.69-32.42c1.42-6.03 2.04-12.21 1.83-18.4l-.511-14.904c-.31 2.471-.746 4.928-1.319 7.36z"/><path d="m409.773 189.854 9.164 9.409 1.646-5.673 4.16-14.31-14.97-15.37c-.74-.76-1.41-1.55-2.03-2.38-.302-.404-.576-.823-.849-1.241-5.459 8.351-5.088 19.244.849 27.186.62.829 1.29 1.619 2.03 2.379z"/><path d="m438.623 413.83h-14.76c-9.39 0-17.89-3.8-24.04-9.96-6.153-6.143-9.951-14.63-9.96-24.007-.001-1.475-1.175-2.683-2.65-2.683h-93.34c-1.61 0-3.14.72-4.17 1.96-8.49 10.18-21.06 16.07-34.32 16.07-10.975 0-19.872-8.897-19.872-19.872v-71.954h-28.018v91.826 25.944h28.018 19.872c13.26 0 25.83-5.89 34.32-16.07 1.03-1.24 2.56-1.96 4.17-1.96h93.34c1.475 0 2.649 1.208 2.65 2.683.009 9.377 3.807 17.864 9.96 24.007 6.15 6.16 14.65 9.96 24.04 9.96h14.76c22.522 0 40.78-18.258 40.78-40.78v-25.934c0 22.52-18.26 40.77-40.78 40.77z"/></g><path d="m229.543 274.034c-10.52 0-19.05 8.53-19.05 19.06v192.26c0 5.26 2.13 10.03 5.58 13.48s8.21 5.58 13.47 5.58h-52.8c-10.53 0-19.06-8.53-19.06-19.06v-192.26c0-10.53 8.53-19.06 19.06-19.06z" fill="#fe646f"/><path d="m58.808 123.392c-4.67 0-8.9-1.89-11.96-4.95-.598-.596-1.128-1.255-1.627-1.938-1.25 2.304-1.987 4.927-2.039 7.72-.18 9.48 7.88 17.24 17.36 17.24h15.01c-.2 0-.395.023-.594.03h41.26 22.34c0-9.997-8.105-18.102-18.102-18.102h-4.238z" fill="#ffbd86"/><path d="m42.612 89.532c-4.67 0-8.9-1.89-11.96-4.95-.548-.546-1.038-1.144-1.503-1.762-1.354 2.448-2.11 5.251-2.057 8.224.17 9.19 7.68 16.59 16.91 16.59h16.09c-.003 0-.005 0-.007 0h39.937 38.536c0-9.997-8.105-18.102-18.102-18.102h-20.434z" fill="#ffbd86"/><path d="m116.583 18.482c-.876-.879-1.643-1.862-2.311-2.914-1.197 1.885-2.026 4.021-2.399 6.313h9.59c-1.82-.839-3.47-1.999-4.88-3.399z" fill="#ffbd86"/><path d="m259.183 44.794 1.09 6.78-.294 26.468c-.042 3.785-3.123 6.832-6.908 6.832h-36.168c-21.523 0-38.97-17.447-38.97-38.97v-4.37h-49.39c-2.53 0-4.93-.55-7.08-1.55-1.82-.84-3.47-2-4.88-3.4-3.077-3.087-4.971-7.337-4.95-12.048.042-9.378 7.957-16.832 17.335-16.832h86.694c21.641 0 40.091 15.72 43.521 37.09z" fill="#fed2a4"/><path d="m225.057 70.531c-21.523 0-38.97-17.447-38.97-38.97v-.014c0-2.406-1.95-4.356-4.356-4.356h-45.034c-2.53 0-4.93-.55-7.08-1.55-1.82-.84-3.47-2-4.88-3.4-3.051-3.061-4.933-7.267-4.944-11.931-4.838 2.968-8.133 8.192-8.16 14.226-.021 4.711 1.873 8.961 4.95 12.048 1.41 1.4 3.06 2.56 4.88 3.4 2.15 1 4.55 1.55 7.08 1.55h49.39v4.37c0 21.522 17.447 38.97 38.97 38.97h36.168c3.785 0 6.866-3.046 6.908-6.832l.083-7.511z" fill="#ffbd86"/><path d="m52.069 55.689c-4.67 0-8.9-1.89-11.96-4.95-.594-.592-1.12-1.245-1.616-1.922-1.307 2.4-2.05 5.151-2.05 8.076 0 4.67 1.89 8.9 4.95 11.96 3.007 3.007 7.146 4.873 11.719 4.938h56.367 29.079c0-9.997-8.105-18.102-18.102-18.102h-10.977z" fill="#ffbd86"/><path d="m367.31 337.572h-6.518c-4.142 0-7.5 3.358-7.5 7.5s3.358 7.5 7.5 7.5h6.518c7.084 0 12.848 5.764 12.848 12.848v11.759c0 4.142 3.358 7.5 7.5 7.5s7.5-3.358 7.5-7.5v-11.759c0-15.355-12.493-27.848-27.848-27.848z"/><path d="m504.62 243.111h-19.4c1.092-5.662 1.553-11.433 1.355-17.2l-.53-15.46c-.818-23.848-13.209-45.913-33.147-59.024l-7.532-4.956c-13.947-9.178-32.313-6.196-42.728 6.94l-.343.432c-7.588 9.573-8.712 22.454-3.663 32.989l-3.452 4.288c-4.119 5.116-5.435 11.921-3.52 18.203.191.626.419 1.235.668 1.832l-.716.866c-4.147 5.016-5.365 11.687-3.257 17.845s7.157 10.684 13.508 12.106l4.134.926-.062.213h-31.617c.952-2.528 1.476-5.264 1.476-8.121v-194.024c0-2.857-.524-5.593-1.476-8.121h125.955c4.142 0 7.5-3.358 7.5-7.5s-3.358-7.5-7.5-7.5h-192.048c-.006 0-.013 0-.019 0-12.749 0-23.121 10.372-23.121 23.121v3.109h-18.421l-.076-.473c-4.041-25.146-25.459-43.396-50.928-43.396h-87.116c-13.461 0-24.413 10.952-24.413 24.414 0 2.75.464 5.392 1.306 7.861h-52.083c-13.462 0-24.414 10.952-24.414 24.413 0 4.577 1.267 8.865 3.467 12.53-2.132 1.172-4.102 2.653-5.827 4.411-4.625 4.712-7.105 10.874-6.984 17.35.208 11.114 7.999 20.485 18.336 23.174-1.383 2.973-2.182 6.265-2.247 9.725-.122 6.476 2.358 12.637 6.983 17.349 3.006 3.063 6.758 5.291 10.817 6.496-1.506 3.168-2.349 6.71-2.349 10.446 0 13.461 10.952 24.413 24.413 24.413h125.443c18.004 0 35.586-5.052 50.845-14.609l16.002-10.024h17.245v76.837c0 12.749 10.372 23.121 23.121 23.121h93.375l-1.72 5.927h-7.447c-19.584 0-37.59 9.841-48.165 26.326l-3.541 5.52h-84.607v-2.793c0-14.643-11.913-26.556-26.556-26.556h-222.044c-4.142 0-7.5 3.358-7.5 7.5s3.358 7.5 7.5 7.5h145.333c-1.697 3.496-2.65 7.416-2.65 11.556v192.269c0 4.139.953 8.06 2.65 11.556h-145.333c-4.142 0-7.5 3.358-7.5 7.5s3.358 7.5 7.5 7.5h222.026.019c14.643 0 26.556-11.913 26.556-26.556v-56.727c14.934-.203 28.961-6.718 38.73-18.006h87.813c2.408 20.607 19.975 36.652 41.218 36.652h14.762c26.619 0 48.275-21.656 48.275-48.274v-40.869c0-13.144-1.931-26.188-5.738-38.771l-3.405-11.251c-2.886-9.538-3.197-19.706-.897-29.403l4.884-20.599h22.878c4.142 0 7.5-3.358 7.5-7.5s-3.359-7.503-7.501-7.503zm-204.535-202.145c0-4.476 3.641-8.118 8.116-8.121h.005.01c4.474.005 8.111 3.646 8.111 8.121v3.109h-16.242zm-34.4 102.187c-1.408 0-2.788.396-3.981 1.144l-17.829 11.168c-12.869 8.061-27.697 12.321-42.882 12.321h-125.443c-5.19 0-9.413-4.223-9.413-9.413 0-5.191 4.223-9.414 9.413-9.414h40.791c4.142 0 7.5-3.358 7.5-7.5s-3.358-7.5-7.5-7.5h-40.791-15.012c-2.66 0-5.271-1.106-7.163-3.035-1.781-1.815-2.737-4.145-2.692-6.562.096-5.09 4.317-9.23 9.412-9.23h56.247c4.142 0 7.5-3.358 7.5-7.5s-3.358-7.5-7.5-7.5h-56.247-16.089c-5.094 0-9.316-4.141-9.412-9.23-.045-2.417.911-4.747 2.692-6.562 1.893-1.929 4.503-3.035 7.162-3.035h8.905 62.988c4.142 0 7.5-3.358 7.5-7.5s-3.358-7.5-7.5-7.5h-62.987c-5.191 0-9.414-4.223-9.414-9.414 0-5.19 4.223-9.413 9.414-9.413h66.632c2.665 1.001 5.548 1.552 8.559 1.552h41.992c1.614 24.17 21.792 43.341 46.364 43.341 4.142 0 7.5-3.358 7.5-7.5s-3.358-7.5-7.5-7.5c-17.352 0-31.468-14.117-31.468-31.468v-4.373c0-4.142-3.358-7.5-7.5-7.5h-49.388c-5.19 0-9.413-4.223-9.413-9.413s4.223-9.414 9.413-9.414h87.116c18.062 0 33.252 12.943 36.118 30.777l1.09 6.783c.584 3.636 3.722 6.31 7.405 6.31h56.054v84.079h-50.643zm34.4 15h16.242v30.301c0 4.142 3.358 7.5 7.5 7.5s7.5-3.358 7.5-7.5v-147.488c0-2.857-.524-5.593-1.476-8.121h22.822c4.478 0 8.121 3.643 8.121 8.121v194.024c0 4.478-3.643 8.121-8.121 8.121h-22.822c.952-2.528 1.476-5.264 1.476-8.121v-16.536c0-4.142-3.358-7.5-7.5-7.5s-7.5 3.358-7.5 7.5v16.536c0 4.478-3.643 8.121-8.121 8.121s-8.121-3.643-8.121-8.121zm116.235 49.176-.806 2.778-6.33-1.966c-2.196-.682-2.953-2.46-3.177-3.193-.223-.733-.587-2.631.855-4.422l1.281-1.591zm-11.178 20.006c-1.696-.38-2.354-1.621-2.596-2.327-.227-.663-.437-1.922.451-3.182.568.236 1.145.456 1.739.64l6.596 2.048-1.146 3.95zm-164.041 65.755v2.793h-23.112v-2.793c0-6.372 5.184-11.556 11.556-11.556s11.556 5.184 11.556 11.556zm-11.551 203.825c-.002 0-.003 0-.005 0h-.01c-6.368-.005-11.547-5.187-11.547-11.556v-56.708h23.112v56.708c.001 6.37-5.18 11.553-11.55 11.556zm242.349-97.912c0 18.348-14.927 33.274-33.275 33.274h-14.762c-14.612 0-26.499-11.887-26.499-26.499 0-5.599-4.555-10.153-10.153-10.153h-93.333c-3.851 0-7.473 1.696-9.937 4.653-7.084 8.498-17.493 13.372-28.557 13.372h-37.394v-50.139c0-4.142-3.358-7.5-7.5-7.5s-7.5 3.358-7.5 7.5v56.761c-.034.288-.056.581-.056.878s.022.59.056.878v63.33c0 4.139.953 8.06 2.65 11.556h-28.9c-6.372 0-11.556-5.184-11.556-11.556v-192.268c0-6.372 5.184-11.556 11.556-11.556h28.9c-1.697 3.496-2.65 7.416-2.65 11.556v40.422c0 4.142 3.358 7.5 7.5 7.5s7.5-3.358 7.5-7.5v-22.628h126.818c2.555 0 4.934-1.3 6.313-3.45l5.754-8.97c7.803-12.164 21.089-19.425 35.54-19.425h13.08c3.337 0 6.272-2.205 7.203-5.409l6.03-20.776c.004-.012.007-.024.01-.036l13.206-45.5c.752-2.593.054-5.39-1.83-7.324l-14.969-15.37c-.252-.259-.482-.532-.714-.804-.34-.632-.776-1.222-1.304-1.748-3.69-5.745-3.456-13.384.925-18.911l.343-.432c5.547-6.999 15.318-8.601 22.726-3.726l7.536 4.958c15.878 10.442 25.747 28.014 26.398 47.005l.53 15.46c.189 5.514-.36 11.033-1.634 16.404l-7.687 32.42c-2.91 12.272-2.517 25.139 1.136 37.208l3.405 11.251c3.381 11.172 5.095 22.754 5.095 34.426z"/><path d="m374.225 439.826h-81.64c-4.142 0-7.5 3.358-7.5 7.5s3.358 7.5 7.5 7.5h81.64c4.142 0 7.5-3.358 7.5-7.5s-3.358-7.5-7.5-7.5z"/><path d="m127.169 213.805c4.142 0 7.5-3.358 7.5-7.5s-3.358-7.5-7.5-7.5h-13.985c-4.142 0-7.5 3.358-7.5 7.5s3.358 7.5 7.5 7.5z"/><path d="m223.42 213.805c4.142 0 7.5-3.358 7.5-7.5s-3.358-7.5-7.5-7.5h-69.251c-4.142 0-7.5 3.358-7.5 7.5s3.358 7.5 7.5 7.5z"/></svg>