<svg height="681pt" viewBox="-21 -75 681.33464 681" width="681pt" xmlns="http://www.w3.org/2000/svg"><path d="m9.441406 71.328125c5.164063 0 9.355469-4.1875 9.355469-9.359375v-36.144531c0-5.847657 4.757813-10.601563 10.605469-10.601563h530.324218c5.171876 0 9.355469-4.191406 9.355469-9.359375 0-5.167969-4.183593-9.355469-9.355469-9.355469h-530.324218c-16.167969 0-29.3203128 13.152344-29.3203128 29.316407v36.144531c0 5.171875 4.1914068 9.359375 9.3593748 9.359375zm0 0"/><path d="m609.515625-3.492188h-10.121094c-5.171875 0-9.355469 4.1875-9.355469 9.355469s4.183594 9.359375 9.355469 9.359375h10.121094c5.847656 0 10.605469 4.753906 10.605469 10.601563v344.953125h-19.855469v-279.300782c0-19.59375-15.945313-35.539062-35.574219-35.539062-19.59375 0-35.535156 15.945312-35.535156 35.539062v279.300782h-49.527344c-5.171875 0-9.355468 4.183594-9.355468 9.355468 0 5.164063 4.183593 9.355469 9.355468 9.355469h49.527344v31.191407h-499.753906c-5.847656 0-10.605469-4.757813-10.605469-10.605469v-20.585938h420.332031c5.167969 0 9.355469-4.191406 9.355469-9.355469 0-5.171874-4.1875-9.355468-9.355469-9.355468h-420.332031v-269.136719c0-5.171875-4.191406-9.359375-9.355469-9.359375-5.167968 0-9.3593748 4.1875-9.3593748 9.359375v308.433594c0 16.164062 13.1523438 29.316406 29.3203128 29.316406h195.867187v31.191406h-61.757812c-15.476563 0-28.066407 12.589844-28.066407 28.070313 0 15.476562 12.589844 28.070312 28.066407 28.070312h311.890625c15.480468 0 28.070312-12.59375 28.070312-28.070312 0-15.480469-12.589844-28.070313-28.070312-28.070313h-61.753906v-31.191406h115.507812v24.636719c0 1.265625.253906 2.542968.769531 3.726562l19.886719 48.066406c2.667969 6.445313 8.375 10.449219 14.898438 10.449219 6.519531 0 12.226562-4.003906 14.894531-10.449219l19.886719-48.066406c.507812-1.175781.769531-2.441406.769531-3.726562v-24.636719h9.253906c16.164063 0 29.320313-13.152344 29.320313-29.316406v-384.25c0-16.164063-13.15625-29.316407-29.320313-29.316407zm-124.753906 502.144532c0 5.160156-4.195313 9.355468-9.359375 9.355468h-311.890625c-5.160157 0-9.355469-4.195312-9.355469-9.355468s4.195312-9.359375 9.355469-9.359375h311.890625c5.164062 0 9.359375 4.199219 9.359375 9.359375zm-89.824219-28.070313h-150.957031v-31.191406h150.957031zm152.933594-259.113281h33.683594c-.011719 192.027344 0 231.308594 0 243.199219h-33.683594zm0-49.84375h33.683594v31.128906h-33.683594zm16.855468-86.972656c9.277344 0 16.828126 7.550781 16.828126 16.824218v51.4375h-33.683594v-51.4375c0-9.277343 7.546875-16.824218 16.855468-16.824218zm-.015624 428.222656-12.203126-29.492188h24.402344zm44.804687-82.195312h-9.25v-31.191407h19.855469v20.585938c0 5.847656-4.757813 10.605469-10.605469 10.605469zm0 0"/><path d="m338.332031 165.972656c-5.984375 0-11.652343 2.894532-15.160156 7.753906l-22.121094 30.671876-52.449219-71.945313c-3.625-4.972656-9.464843-7.945313-15.621093-7.945313-6.152344 0-11.996094 2.972657-15.621094 7.945313l-88.683594 121.652344h-22.3125c-15.476562 0-28.070312 12.59375-28.070312 28.070312 0 15.476563 12.59375 28.070313 28.070312 28.070313h327.378907c15.476562 0 28.070312-12.59375 28.070312-28.070313 0-15.476562-12.59375-28.070312-28.070312-28.070312h-22.28125l-57.96875-80.378907c-3.503907-4.859374-9.167969-7.753906-15.160157-7.753906zm-105.851562-22.496094c.058593-.078124.183593-.253906.5-.253906.320312 0 .441406.175782.503906.253906l80.648437 110.628907h-162.300781zm210.617187 138.695313c0 5.160156-4.195312 9.355469-9.355468 9.355469h-327.378907c-5.160156 0-9.355469-4.195313-9.355469-9.355469 0-5.15625 4.195313-9.359375 9.355469-9.359375h327.378907c5.160156 0 9.355468 4.203125 9.355468 9.359375zm-105.808594-28.070313-24.644531-33.796874 25.675781-35.628907 50.070313 69.425781zm0 0"/><path d="m443.796875 114.105469c0-19.605469-15.953125-35.554688-35.554687-35.554688-19.605469 0-35.558594 15.949219-35.558594 35.554688s15.953125 35.554687 35.558594 35.554687c19.601562 0 35.554687-15.949218 35.554687-35.554687zm-52.398437 0c0-9.285157 7.558593-16.84375 16.84375-16.84375 9.285156 0 16.839843 7.558593 16.839843 16.84375 0 9.289062-7.554687 16.839843-16.839843 16.839843-9.285157 0-16.84375-7.550781-16.84375-16.839843zm0 0"/></svg>