<?xml version="1.0" encoding="UTF-8"?>
<svg width="100px" height="100px" viewBox="0 0 100 100" version="1.1" xmlns="http://www.w3.org/2000/svg" xmlns:xlink="http://www.w3.org/1999/xlink">
    <title>Artboard</title>
    <g id="Artboard" stroke="none" stroke-width="1" fill="none" fill-rule="evenodd">
        <g id="Other-icon" transform="translate(7.000000, 5.000000)">
            <path d="M84.3196314,15.2887631 L84.3196314,11.5315516 C84.3196314,11.2112897 84.0604868,10.9523382 83.7403214,10.9523382 L81.7708606,10.9523382 C81.5169297,10.9523382 81.290516,10.7881038 81.2181023,10.5444074 C81.0182403,9.86922158 80.7489577,9.22464266 80.4195234,8.61684993 C80.298158,8.39342937 80.342089,8.11709851 80.521482,7.93654689 L81.914626,6.54340291 C82.1410396,6.31698926 82.1410396,5.94980327 81.914626,5.72338962 L79.2578138,3.06657744 C79.0313036,2.84016379 78.6642142,2.84016379 78.4378005,3.06657744 L77.0446565,4.45972142 C76.865167,4.63921097 76.5877741,4.68304542 76.3644501,4.56167998 C75.7565608,4.23234225 75.1120784,3.96305966 74.4368926,3.76310116 C74.1931962,3.69068741 74.0289618,3.46427375 74.0289618,3.21034287 L74.0289618,1.24097855 C74.0289618,0.920716681 73.7699137,0.661765114 73.4496518,0.661765114 L69.6924403,0.661765114 C69.3721785,0.661765114 69.1132269,0.920813232 69.1132269,1.24097855 L69.1132269,3.21034287 C69.1132269,3.46427375 68.9489925,3.69068741 68.7052961,3.76310116 C68.0302069,3.9629631 67.3855314,4.2322457 66.7777387,4.56167998 C66.5544147,4.68294887 66.2779872,4.63911442 66.0975322,4.45972142 L64.7043882,3.06657744 C64.4779745,2.84016379 64.1107886,2.84016379 63.8843749,3.06657744 L61.2275627,5.72338962 C61.0010525,5.94989983 61.0010525,6.31698926 61.2275627,6.54340291 L62.6207067,7.93654689 C62.8001962,8.11603644 62.8440307,8.39342937 62.7226653,8.61684993 C62.3933275,9.22473921 62.1240449,9.86922158 61.9240864,10.5444074 C61.8516727,10.7881038 61.625259,10.9523382 61.3713282,10.9523382 L59.4020604,10.9523382 C59.0817985,10.9523382 58.8228469,11.2113863 58.8228469,11.5315516 L58.8228469,15.2887631 C58.8228469,15.609025 59.0818951,15.8679765 59.4020604,15.8679765 L61.3714247,15.8679765 C61.6253556,15.8679765 61.8517692,16.0322109 61.924183,16.2759073 C62.1240449,16.9510931 62.3933275,17.595672 62.7227618,18.2035613 C62.8441273,18.4268853 62.8002928,18.7033128 62.6208033,18.8837678 L61.2276593,20.2769118 C61.0012456,20.5033254 61.0012456,20.8705114 61.2276593,21.0969251 L63.8844714,23.7537373 C64.1108851,23.9802475 64.4780711,23.9802475 64.7044847,23.7537373 L66.0976287,22.3605933 C66.2771183,22.1811037 66.5545112,22.1372693 66.7778352,22.2586347 C67.3857245,22.5879725 68.0302069,22.857255 68.7053927,23.0572135 C68.9490891,23.1296273 69.1133234,23.356041 69.1133234,23.6099718 L69.1133234,25.5793362 C69.1133234,25.899598 69.3723716,26.1586461 69.6926334,26.1586461 L73.4497484,26.1586461 C73.7700103,26.1586461 74.0290584,25.899598 74.0290584,25.5793362 L74.0290584,23.6099718 C74.0290584,23.356041 74.1932928,23.1296273 74.4369892,23.0572135 C75.1120784,22.8573516 75.7567539,22.588069 76.3645466,22.2586347 C76.5879672,22.1372693 76.864298,22.1811037 77.0447531,22.3605933 L78.4378971,23.7537373 C78.6644073,23.9802475 79.0314967,23.9802475 79.2579104,23.7537373 L81.9147225,21.0969251 C82.1411362,20.8705114 82.1411362,20.5033254 81.9147225,20.2769118 L80.5215786,18.8837678 C80.342089,18.7042783 80.2982546,18.4268853 80.41962,18.2035613 C80.7489577,17.595672 81.0182403,16.9511897 81.2181988,16.2759073 C81.2906126,16.0322109 81.5170262,15.8679765 81.7709571,15.8679765 L83.7403214,15.8679765 C84.0596178,15.8690386 84.3196314,15.6089284 84.3196314,15.2887631 L84.3196314,15.2887631 L84.3196314,15.2887631 Z M75.0468095,14.9012047 C74.8816096,15.3019907 74.6490166,15.6752594 74.3523134,15.9944592 C73.2671692,17.1633137 71.4069082,17.5293411 69.9597919,16.858307 C68.5126755,16.1872729 67.5895451,14.5309291 67.7802346,12.9470956 C67.9699586,11.3723379 69.2427992,9.99145599 70.7960259,9.67119411 C72.3697215,9.34687707 74.1065894,10.1454559 74.8887544,11.5477723 C75.4528092,12.5625303 75.4864092,13.8332467 75.0468095,14.9011082 L75.0468095,14.9012047 L75.0468095,14.9012047 Z" id="Shape" fill="#CCCCCC"></path>
            <g id="Group" transform="translate(0.000000, 1.303447)" fill="#78B9EB">
                <polygon id="Path" points="0 32.9011386 5.61631382 42.4021121 5.48625873 29.6580647 0 32.9011386"></polygon>
                <polygon id="Path" points="32.9004627 88.5578633 56.1836072 74.7944234 24.9572538 75.1204784"></polygon>
                <polygon id="Path" points="55.6566282 0.000675861657 38.2045285 10.3172213 61.6101004 10.0718835"></polygon>
            </g>
            <polygon id="Path" fill="#5AAAE7" points="88.5570909 56.9607515 70.0935159 25.7265774 70.5347571 67.6143588"></polygon>
            <path d="M38.9081004,76.2779398 L56.1835106,76.0978709 L70.6175018,75.9521744 L70.5347571,67.6144554 L70.2391159,39.7675068 C66.3833251,56.3235105 54.6867667,69.9532264 38.9081004,76.2779398 L38.9081004,76.2779398 L38.9081004,76.2779398 Z" id="Path" fill="#E65C00"></path>
            <polygon id="Path" fill="#FFDA44" points="19.7263742 12.5986069 19.725119 12.6037183 31.3999533 11.7077708 31.3988912 11.6946274"></polygon>
            <path d="M19.7529259,1.06892349 C16.0978661,3.23515665 14.8864323,7.95160895 17.044362,11.6116895 L17.1797275,11.84071 L18.9568574,11.8222687 L19.7263742,11.8141583 L20.4775462,11.3700207 L19.694319,10.0450422 C18.3961819,7.84897453 19.124278,5.01721074 21.3197663,3.71936325 C23.5152546,2.42161232 26.3473081,3.14874291 27.6454452,5.34481054 L35.478875,18.5965266 C36.7767224,20.7919184 36.0485298,23.6237787 33.8530415,24.9216262 C31.6576497,26.2194737 28.8255962,25.4922465 27.5277488,23.2967582 L22.8276137,15.345632 L20.1776567,16.9121828 L24.8774055,24.8627297 C27.0405491,28.5220378 31.7605738,29.7354026 35.4198819,27.5722591 C39.0797693,25.4088259 40.2922651,20.6885115 38.1291216,17.0292034 L30.2959816,3.77816322 C28.1291691,0.123393028 23.4129099,-1.08900623 19.7529259,1.06892349 Z" id="Path" fill="#333333"></path>
            <path d="M68.8309098,11.3090966 L61.6100039,11.3754276 L38.2044319,11.6207653 L34.9536339,11.6575515 L38.1294113,17.0298793 C40.2925548,20.6891874 39.07919,25.4092121 35.4198819,27.5723556 C31.7605738,29.7354991 27.0409353,28.5227137 24.8777917,24.8634056 L20.1776567,16.9122794 L22.8277102,15.3457286 L27.5275557,23.2962755 C28.8256928,25.4923431 31.6577462,26.2195702 33.8532346,24.9217228 C36.0487229,23.6239718 36.7765293,20.7915322 35.4786818,18.5960439 L31.4000498,11.6963653 L19.7246363,11.8152204 L18.9565678,11.8216894 L17.1792447,11.8409997 L5.28794161,11.9617858 L5.48635528,30.9615122 L5.61641037,43.7055596 L5.95810672,76.6217602 L24.9572538,76.4237328 L38.908197,76.2776501 C54.6868633,69.9530333 66.3834217,56.3232209 70.2392124,39.7673137 L70.0936125,25.7263843 L69.980647,15.1893149 L69.9478195,11.2923931 L68.8308133,11.309 L68.8309098,11.3090966 Z" id="Path" fill="#FF6600"></path>
            <polygon id="Path" fill="#A7A9AC" points="18.9564712 12.61769 19.86408 11.9813263 19.8655621 11.91769"></polygon>
            <path d="M34.9372201,20.7048288 L33.6122416,21.4880559 C31.416174,22.786193 28.5844102,22.0580969 27.2865627,19.8626086 L25.7197223,17.2120723 L28.3697758,15.6456181 L29.9366163,18.2961544 C30.3694574,19.0284022 31.3132499,19.2704572 32.0454012,18.8376161 L33.3703797,18.0542925 L34.9372201,20.7048288 L34.9372201,20.7048288 Z" id="Path" fill="#333333"></path>
            <g id="Group" transform="translate(18.586196, 35.289634)" fill="#FFFFFF">
                <rect id="Rectangle" x="5.87246539" y="0.00386206661" width="32.4810423" height="2.74621902"></rect>
                <rect id="Rectangle" x="5.87246539" y="14.20835" width="32.4810423" height="2.74621902"></rect>
                <rect id="Rectangle" x="5.87246539" y="7.10610602" width="32.4810423" height="2.74621902"></rect>
                <rect id="Rectangle" x="0.00125517165" y="0.00386206661" width="3.88253557" height="2.74621902"></rect>
                <rect id="Rectangle" x="0.00125517165" y="14.20835" width="3.88253557" height="2.74621902"></rect>
                <rect id="Rectangle" x="0.00125517165" y="7.10610602" width="3.88253557" height="2.74621902"></rect>
            </g>
            <path d="M21.5387455,65.6719324 L5.11974861,65.6719324 C3.02197057,65.6719324 1.32140609,67.3724969 1.32140609,69.4702749 L1.32140609,76.1733743 L1.32140609,78.5177453 L1.32140609,85.8617546 L5.18318305,82.3159913 L21.5388421,82.3159913 C23.6366201,82.3159913 25.3371846,80.6156199 25.3371846,78.5177453 L25.3371846,69.4702749 C25.3371846,67.3724969 23.6366201,65.6719324 21.5388421,65.6719324 L21.5387455,65.6719324 Z" id="Path" fill="#00AAFF" fill-rule="nonzero"></path>
            <g id="Group" transform="translate(6.266203, 72.635818)" fill="#FFFFFF" fill-rule="nonzero">
                <path d="M3.30573592,1.65981968 C3.30573592,2.57184671 2.56634327,3.31123936 1.65441279,3.31123936 C0.742385755,3.31123936 0.00289654996,2.57184671 0.00289654996,1.65981968 C0.00289654996,0.747696096 0.742385755,0.00849654655 1.65441279,0.00849654655 C2.56634327,0.00849654655 3.30573592,0.747792648 3.30573592,1.65981968 L3.30573592,1.65981968 Z" id="Path"></path>
                <path d="M9.05065656,1.65981968 C9.05065656,2.57184671 8.31126391,3.31123936 7.39923687,3.31123936 C6.48711329,3.31123936 5.74781719,2.57184671 5.74781719,1.65981968 C5.74781719,0.747696096 6.48720984,0.00849654655 7.39923687,0.00849654655 C8.31126391,0.00849654655 9.05065656,0.747792648 9.05065656,1.65981968 Z" id="Path"></path>
                <path d="M14.7955772,1.65981968 C14.7955772,2.57184671 14.0561845,3.31123936 13.1441575,3.31123936 C12.2321305,3.31123936 11.4927378,2.57184671 11.4927378,1.65981968 C11.4927378,0.747696096 12.2321305,0.00849654655 13.1441575,0.00849654655 C14.0561845,0.00849654655 14.7955772,0.747792648 14.7955772,1.65981968 Z" id="Path"></path>
            </g>
        </g>
    </g>
</svg>