<svg id="Layer_35" enable-background="new 0 0 64 64" height="512" viewBox="0 0 64 64" width="512" xmlns="http://www.w3.org/2000/svg"><g fill="#f0bc5e"><path d="m11.744 14.077-.744 8.923 2 3 2-3-.744-8.923z"/><path d="m58 27v29h-30v-29h-4v7c0 1.008-.385 1.917-1 2.62v24.38h15.551c1.142 1.277 2.736 2 4.449 2s3.308-.723 4.449-2h15.551v-34z"/><path d="m31 40h9v12h-9z"/><path d="m46 30h9v8h-9z"/></g><path d="m17.032 13.712c1.792-1.269 2.968-3.354 2.968-5.712 0-3.86-3.141-7-7-7s-7 3.14-7 7c0 2.358 1.176 4.443 2.968 5.712-4.637 1.662-7.968 6.087-7.968 11.288v9c0 2.757 2.243 5 5 5v20c0 2.206 1.794 4 4 4 1.201 0 2.266-.542 3-1.382.734.84 1.799 1.382 3 1.382 2.206 0 4-1.794 4-4v-20c2.757 0 5-2.243 5-5v-9c0-5.201-3.331-9.626-7.968-11.288zm-9.032-5.712c0-2.757 2.243-5 5-5s5 2.243 5 5-2.243 5-5 5-5-2.243-5-5zm15 26c0 1.654-1.346 3-3 3v-16h-2v38c0 1.103-.897 2-2 2s-2-.897-2-2v-26h-2v26c0 1.103-.897 2-2 2s-2-.897-2-2v-38h-2v16c-1.654 0-3-1.346-3-3v-9c0-5.514 4.486-10 10-10s10 4.486 10 10z"/><path d="m31 29v8h9v-8zm7 6h-5v-4h5z"/><path d="m50.5 44c-2.481 0-4.5 2.019-4.5 4.5s2.019 4.5 4.5 4.5 4.5-2.019 4.5-4.5-2.019-4.5-4.5-4.5zm0 7c-1.379 0-2.5-1.122-2.5-2.5s1.121-2.5 2.5-2.5 2.5 1.122 2.5 2.5-1.121 2.5-2.5 2.5z"/><path d="m31 39h9v2h-9z"/><path d="m31 43h9v2h-9z"/><path d="m38 47h2v2h-2z"/><path d="m31 47h5v2h-5z"/><path d="m31 51h9v2h-9z"/><path d="m46 29h9v2h-9z"/><path d="m46 33h9v2h-9z"/><path d="m46 37h9v2h-9z"/><path d="m31 21h2v2h-2z"/><path d="m31 17h2v2h-2z"/><path d="m57 17.475c2.481-1.664 4-4.476 4-7.475 0-4.962-4.037-9-9-9s-9 4.038-9 9c0 2.999 1.519 5.812 4 7.475v7.525h-10v-8.408c2.482-1.483 4-4.136 4-7.064v-5.942l-2.586-2.586h-5.414v7c0 .551-.448 1-1 1s-1-.449-1-1v-7h-5.414l-2.586 2.586v5.942c0 2.928 1.518 5.581 4 7.064v8.408 1 31h32v-32h-2zm-8.499-1.419c-2.159-1.251-3.501-3.572-3.501-6.056 0-3.86 3.141-7 7-7s7 3.14 7 7c0 2.484-1.342 4.805-3.501 6.056l-.499.289v8.655h-6v-8.655zm-20.054-.951c-2.126-1.063-3.447-3.2-3.447-5.577v-5.114l1.414-1.414h2.586v5c0 1.654 1.346 3 3 3s3-1.346 3-3v-5h2.586l1.414 1.414v5.114c0 2.377-1.321 4.515-3.447 5.578l-.553.276v9.618h-6v-9.618zm.553 11.895h13v28h-13zm28 28h-13v-28h13z"/><path d="m57 10c0-2.757-2.243-5-5-5s-5 2.243-5 5 2.243 5 5 5 5-2.243 5-5zm-8 0c0-1.654 1.346-3 3-3s3 1.346 3 3-1.346 3-3 3-3-1.346-3-3z"/><path d="m51 21h2v2h-2z"/><path d="m51 17h2v2h-2z"/></svg>