<svg id="Capa_1" enable-background="new 0 0 508 508" height="512" viewBox="0 0 508 508" width="512" xmlns="http://www.w3.org/2000/svg"><g><path d="m138 68h360v266h-360z" fill="#fff"/><path d="m364 474v-160c0-11.046-8.954-20-20-20h-314c-11.046 0-20 8.954-20 20v160c0 11.046 8.954 20 20 20h314c11.046 0 20-8.954 20-20z" fill="#c5d3de"/><path d="m498 94v-60c0-11.046-8.954-20-20-20h-320c-11.046 0-20 8.954-20 20v60z" fill="#80b6ff"/><path d="m188 54c0 5.523-4.477 10-10 10s-10-4.477-10-10 4.477-10 10-10 10 4.477 10 10zm45 0c0 5.523-4.477 10-10 10s-10-4.477-10-10 4.477-10 10-10 10 4.477 10 10zm45 0c0 5.523-4.477 10-10 10s-10-4.477-10-10 4.477-10 10-10 10 4.477 10 10zm230 280c0 5.523-4.477 10-10 10h-22c-5.521 0-10-4.49-10-10s4.479-10 10-10h12v-220h-340v180h196c16.569 0 30 13.431 30 30v10h12c5.739 0 10.373 4.872 9.976 10.694-.361 5.306-5.016 9.306-10.334 9.306h-11.642v130c0 16.569-13.431 30-30 30h-314c-16.569 0-30-13.431-30-30v-160c0-16.569 13.431-30 30-30h98v-250c0-16.569 13.431-30 30-30h320c16.569 0 30 13.431 30 30zm-164-30h-314c-5.514 0-10 4.486-10 10v160c0 5.514 4.486 10 10 10h314c5.514 0 10-4.486 10-10v-160c0-5.514-4.486-10-10-10zm-196-220h340v-50c0-5.514-4.486-10-10-10h-320c-5.514 0-10 4.486-10 10zm174.629 81.305-27.842 70c-2.041 5.131.465 10.946 5.596 12.987 1.213.482 2.463.711 3.693.711 3.976 0 7.736-2.388 9.295-6.308l27.842-70c2.041-5.131-.465-10.946-5.596-12.987-5.132-2.04-10.947.464-12.988 5.597zm57.866 1.888c-2.851-4.729-8.997-6.254-13.727-3.401-4.729 2.852-6.252 8.998-3.401 13.728l15.646 25.949-15.734 27.162c-2.768 4.779-1.138 10.897 3.641 13.666 1.578.914 3.302 1.349 5.003 1.349 3.451 0 6.809-1.789 8.663-4.989l18.696-32.276c1.827-3.155 1.793-7.054-.089-10.176zm-111.264-3.401c-4.729-2.852-10.876-1.328-13.727 3.401l-18.697 31.011c-1.882 3.122-1.916 7.021-.089 10.176l18.696 32.276c1.854 3.201 5.212 4.989 8.663 4.989 1.7 0 3.425-.435 5.003-1.349 4.778-2.769 6.408-8.887 3.641-13.666l-15.734-27.162 15.646-25.949c2.85-4.729 1.328-10.875-3.402-13.727zm-219.231 180.208h10c5.522 0 10-4.478 10-10s-4.478-10-10-10h-10c-5.522 0-10 4.478-10 10s4.478 10 10 10zm53 0h10c5.522 0 10-4.478 10-10s-4.478-10-10-10h-10c-5.522 0-10 4.478-10 10s4.478 10 10 10zm53 0h10c5.522 0 10-4.478 10-10s-4.478-10-10-10h-10c-5.522 0-10 4.478-10 10s4.478 10 10 10zm52 0h10c5.522 0 10-4.478 10-10s-4.478-10-10-10h-10c-5.522 0-10 4.478-10 10s4.478 10 10 10zm53 0h10c5.522 0 10-4.478 10-10s-4.478-10-10-10h-10c-5.522 0-10 4.478-10 10s4.478 10 10 10zm53 0h10c5.522 0 10-4.478 10-10s-4.478-10-10-10h-10c-5.522 0-10 4.478-10 10s4.478 10 10 10zm10 20h-45c-5.522 0-10 4.478-10 10s4.478 10 10 10h45c5.522 0 10-4.478 10-10s-4.478-10-10-10zm-274 20h32c5.522 0 10-4.478 10-10s-4.478-10-10-10h-32c-5.522 0-10 4.478-10 10s4.478 10 10 10zm73-20c-5.522 0-10 4.478-10 10s4.478 10 10 10h10c5.522 0 10-4.478 10-10s-4.478-10-10-10zm42 10c0 5.522 4.478 10 10 10h10c5.522 0 10-4.478 10-10s-4.478-10-10-10h-10c-5.522 0-10 4.478-10 10zm52 0c0 5.522 4.478 10 10 10h10c5.522 0 10-4.478 10-10s-4.478-10-10-10h-10c-5.522 0-10 4.478-10 10zm-167 50h45c5.522 0 10-4.478 10-10s-4.478-10-10-10h-45c-5.522 0-10 4.478-10 10s4.478 10 10 10zm274-20h-32c-5.522 0-10 4.478-10 10s4.478 10 10 10h32c5.522 0 10-4.478 10-10s-4.478-10-10-10zm-93 10c0 5.522 4.478 10 10 10h10c5.522 0 10-4.478 10-10s-4.478-10-10-10h-10c-5.522 0-10 4.478-10 10zm-32 10c5.522 0 10-4.478 10-10s-4.478-10-10-10h-10c-5.522 0-10 4.478-10 10s4.478 10 10 10zm-52 0c5.522 0 10-4.478 10-10s-4.478-10-10-10h-10c-5.522 0-10 4.478-10 10s4.478 10 10 10zm74 20h-120c-5.522 0-10 4.478-10 10s4.478 10 10 10h120c5.522 0 10-4.478 10-10s-4.478-10-10-10zm103 0h-10c-5.522 0-10 4.478-10 10s4.478 10 10 10h10c5.522 0 10-4.478 10-10s-4.478-10-10-10zm-52 0h-10c-5.522 0-10 4.478-10 10s4.478 10 10 10h10c5.522 0 10-4.478 10-10s-4.478-10-10-10zm-212 0h-10c-5.522 0-10 4.478-10 10s4.478 10 10 10h10c5.522 0 10-4.478 10-10s-4.478-10-10-10zm371-120c-5.521 0-10 4.49-10 10s4.479 10 10 10c5.51 0 10-4.49 10-10s-4.49-10-10-10z"/></g></svg>