<svg height="512" viewBox="0 0 512 512" width="512" xmlns="http://www.w3.org/2000/svg"><g id="Planting-3" data-name="Planting"><g id="Filled"><path d="m320 216a80 80 0 0 0 -128 0 56 56 0 1 0 13.81 110.28 79.939 79.939 0 0 0 100.38 0 56 56 0 1 0 13.81-110.28z" fill="#a1887f"/><path d="m323.172 216.1a168.338 168.338 0 0 1 -105.914 117.884 79.937 79.937 0 0 0 88.932-7.7 56 56 0 1 0 16.982-110.184z" fill="#9c7b70"/><circle cx="248" cy="208" fill="#bcaaa4" r="16"/><circle cx="264" cy="248" fill="#bcaaa4" r="8"/><g fill="#81c784"><path d="m288.418 90.648c-24.536 8.569-34.346 23.991-29.739 37.18s21.884 19.151 46.42 10.582 46.663-43.091 46.663-43.091-38.808-13.24-63.344-4.671z"/><path d="m225.158 90.648c24.536 8.569 34.346 23.991 29.739 37.18s-21.884 19.151-46.42 10.582-46.663-43.091-46.663-43.091 38.808-13.24 63.344-4.671z"/><path d="m239.829 46.4c.138 17.072 7.415 26.438 16.3 26.367s16.007-9.552 15.871-26.624-16.395-38.143-16.395-38.143-15.913 21.33-15.776 38.4z"/><path d="m272 456h128v56h-128z"/><path d="m112 456h128v56h-128z"/></g><path d="m492.558 82.884c-22.195 0-36.458 17.939-36.558 40.134v117.961l-31.61 30.681a28 28 0 0 0 0-39.6l-.908-.869c-11.123-10.18-28.443-9.378-39.1 1.284l-80.2 80.2c-19.52 19.52-26.343 45.776-24.181 71.286v72.039h96v-27.889l127.999-164.111v-173.252c-.074-4.365-7.077-7.864-11.442-7.864z" fill="#ffead2"/><path d="m280 415.955v40.045h96v-27.889l42.74-54.8a258.638 258.638 0 0 1 -138.74 42.644z" fill="#faddc3"/><path d="m207.819 312.672-80.2-80.2c-10.661-10.662-27.981-11.464-39.1-1.284l-.908.869a28 28 0 0 0 0 39.6l-31.611-30.678v-117.961c-.1-22.2-14.363-40.134-36.558-40.134-4.365 0-11.368 3.5-11.442 7.864v173.252l128 164.111v27.889h96v-72.042c2.162-25.51-4.661-51.766-24.181-71.286z" fill="#ffead2"/><path d="m136 431.986v24.014h96v-72.042a97.574 97.574 0 0 0 -4.309-38.937 188.71 188.71 0 0 1 -91.691 86.965z" fill="#faddc3"/><path d="m376.666 456a92.006 92.006 0 0 1 -84.666 56h108v-56z" fill="#66bb6a"/><path d="m216.666 456a92.006 92.006 0 0 1 -84.666 56h108v-56z" fill="#66bb6a"/><path d="m234.584 94.627a68.205 68.205 0 0 1 -38.827 37.1 54.434 54.434 0 0 0 12.72 6.685c24.536 8.569 41.814 2.607 46.42-10.582 3.962-11.345-2.75-24.336-20.313-33.203z" fill="#66bb6a"/><path d="m316.964 88.148a68.081 68.081 0 0 1 -53.787 46.922c7.643 7.8 22.506 10.121 41.922 3.34 24.536-8.569 46.663-43.091 46.663-43.091a164.775 164.775 0 0 0 -34.798-7.171z" fill="#66bb6a"/></g><g id="Outline"><path d="m392 448h-112a16.019 16.019 0 0 0 -16 16v40a8 8 0 0 0 16 0v-40h112v40a8 8 0 0 0 16 0v-40a16.019 16.019 0 0 0 -16-16z"/><path d="m272 384.292v39.708a8 8 0 0 0 16 0v-40.04c.166-1.47-5.561-38.235 21.836-65.633l80.2-80.19c7.671-7.671 20.208-8.158 27.982-1.1l.769.735a20.034 20.034 0 0 1 -.05 28.227l-50.006 50a8.01 8.01 0 0 0 5.658 13.657c6.02 0 3.787-1.7 55.637-52.324l33.974-32.968v-36.364a8 8 0 0 0 -16 0v29.6l-8.014 7.778c-5.12-28.172-40.1-39.711-61.262-18.551l-80.2 80.19c-19.586 19.583-28.998 47.016-26.524 77.275z"/><path d="m512 90.621c-.157-9.752-11.428-15.741-19.439-15.741-25.695 0-44.435 20.231-44.56 48.14v20.98a8 8 0 0 0 16 0v-20.944c.125-27.876 24.75-35.917 32-30.88v169.073l-126.31 161.941a8.011 8.011 0 0 0 6.3 12.92c7.486 0 .426 2.478 136.006-169.359z"/><path d="m320 480h-16a8 8 0 0 0 0 16h16a8 8 0 0 0 0-16z"/><path d="m232 448h-112a16.019 16.019 0 0 0 -16 16v40a8 8 0 0 0 16 0v-40h112v40a8 8 0 0 0 16 0v-40a16.019 16.019 0 0 0 -16-16z"/><path d="m143.267 327.317a8 8 0 0 0 0-11.314l-50-50a20.034 20.034 0 0 1 -.054-28.228l.77-.735c7.774-7.058 20.312-6.573 27.983 1.1l80.2 80.19c16.27 16.27 24.035 39.339 21.865 64.958-.042 56.205-.031 36.302-.031 40.712a8 8 0 0 0 16 0v-39.708c2.474-30.26-6.938-57.694-26.523-77.279l-80.2-80.19c-21.17-21.171-56.147-9.6-61.263 18.552l-8.014-7.775v-114.616c-.126-27.874-18.866-48.1-44.56-48.1-8.012-.004-19.283 5.985-19.44 15.738v176.129l40.122 51.439a8 8 0 1 0 12.616-9.84l-36.738-47.101v-169.073c7.223-5.022 31.874 2.918 32 30.844v121.344l34.021 33.021 49.933 49.932a8 8 0 0 0 11.313 0z"/><path d="m136.005 436.11a8.01 8.01 0 0 0 6.3-12.921l-40.42-51.819a8 8 0 1 0 -12.616 9.84l40.42 51.82a7.985 7.985 0 0 0 6.316 3.08z"/><path d="m208 480h-16a8 8 0 0 0 0 16h16a8 8 0 0 0 0-16z"/><path d="m303.759 210.087a63.651 63.651 0 0 0 -28.55 16.2 8 8 0 0 0 11.2 11.427 47.992 47.992 0 0 1 57.635-7.265c9.128 5.3 17.163-8.537 8.033-13.837a63.9 63.9 0 0 0 -28.091-8.487 87.1 87.1 0 0 0 -59.986-31.765v-30.7c12.948 7.3 29.759 5.18 43.736.3 26.835-9.372 49.8-44.822 50.762-46.327a8 8 0 0 0 -4.152-11.888c-1.692-.577-41.73-14.024-68.566-4.653a72.577 72.577 0 0 0 -21.78 11.668v-15.617c16.382-7.048 26.411-39.119-2.061-76.03a8 8 0 0 0 -12.746.1c-27.683 37.1-17.466 68.823-1.193 75.9v14.419a74.55 74.55 0 0 0 -20.2-10.432c-26.834-9.371-66.875 4.075-68.566 4.653a8 8 0 0 0 -4.152 11.888c.964 1.505 23.927 36.955 50.762 46.327 13.5 4.717 29.434 6.8 42.16.533v29.859a87.1 87.1 0 0 0 -59.986 31.764 63.9 63.9 0 0 0 -27.818 8.326c-7.357 3.887-4.584 15.08 3.738 15.08h2.154l1.863-1.082c31.645-18.368 72.045 4.444 72.045 41.552a8 8 0 0 0 16 0 64.112 64.112 0 0 0 -47.765-61.908 72.053 72.053 0 0 1 95.524-.005zm-12.703-111.887c13.695-4.783 33.508-1.751 47.59 1.717-8.549 11.014-22.609 26.2-36.185 30.939-40.876 14.278-52.214-18.404-11.405-32.656zm-79.941 32.656c-14.351-5.011-28.327-20.809-36.155-30.946 12.438-3.06 33.212-6.721 47.561-1.71 41.116 14.36 29.188 46.838-11.406 32.657zm36.714-84.52c-.058-7.314 3.923-16.467 7.895-23.621 4.087 7.09 8.215 16.178 8.274 23.491.202 24.616-15.969 24.841-16.169.131z"/><circle cx="72" cy="344" r="8"/><circle cx="456" cy="176" r="8"/><circle cx="248" cy="304" r="8"/></g></g></svg>