<svg id="Capa_1" enable-background="new 0 0 512 512" height="512" viewBox="0 0 512 512" width="512" xmlns="http://www.w3.org/2000/svg"><g><g><path clip-rule="evenodd" d="m462.5 9.457v174.575l-132.005 19.306-134.189-19.306v-174.575c0-5.192 4.253-9.457 9.486-9.457h247.254c5.19 0 9.454 4.265 9.454 9.457z" fill="#fea610" fill-rule="evenodd"/></g><g><path clip-rule="evenodd" d="m382.678 458.677-15.556-168-37.707-22.894-37.707 22.894-15.585 168c-2.685 29.202 23.99 53.323 53.292 53.323s55.978-24.121 53.263-53.323zm-53.263-19.741c10.682 0 19.379 8.673 19.379 19.39s-8.697 19.39-19.379 19.39c-10.711 0-19.379-8.673-19.379-19.39s8.668-19.39 19.379-19.39z" fill="#7bacdf" fill-rule="evenodd"/></g><g><path clip-rule="evenodd" d="m401.707 244.859-71.212-20.909-73.372 20.909v28.092c0 9.753 7.968 17.726 17.686 17.726h16.898 75.415 16.869c9.748 0 17.715-7.972 17.715-17.726v-28.092z" fill="#acacac" fill-rule="evenodd"/></g><g><path clip-rule="evenodd" d="m462.5 184.031h-266.198c0 33.466 27.376 60.828 60.822 60.828h144.584c33.416 0 60.792-27.362 60.792-60.828z" fill="#f3eae6" fill-rule="evenodd"/></g><g><path clip-rule="evenodd" d="m420.794 9.461v174.57h41.706v-174.57c0-5.198-4.261-9.461-9.456-9.461h-34.905-6.8c2.656 0 5.078 1.11 6.8 2.891 1.634 1.723 2.655 4.03 2.655 6.57z" fill="#fe7600" fill-rule="evenodd"/></g><g><path clip-rule="evenodd" d="m420.473 190.164c-2.247 22.194-16.519 40.941-36.16 49.614-7.471 3.271-15.702 5.081-24.311 5.081h41.706c33.417 0 60.793-27.362 60.793-60.828h-41.706c-.001 2.074-.088 4.118-.322 6.133z" fill="#cdbeb9" fill-rule="evenodd"/></g><g><path clip-rule="evenodd" d="m360.002 244.859v28.092c0 4.176-1.459 8.001-3.882 11.038-3.269 4.059-8.259 6.687-13.834 6.687h24.837 16.869c9.748 0 17.715-7.972 17.715-17.726v-28.092h-41.705z" fill="#838383" fill-rule="evenodd"/></g><g><path clip-rule="evenodd" d="m346.664 290.677 15.585 168c2.364 25.756-18.095 47.541-43.077 52.33 3.356.642 6.771.993 10.244.993 29.302 0 55.977-24.121 53.263-53.323l-15.556-168z" fill="#3987d0" fill-rule="evenodd"/></g><g><path d="m248.389 0v106.531c0 4.265-3.461 7.726-7.724 7.726s-7.724-3.461-7.724-7.726v-106.531z" fill="#f3eae6"/></g><g><path d="m292.779 0v60.42c0 4.265-3.46 7.726-7.724 7.726s-7.724-3.461-7.724-7.726v-60.42z" fill="#f3eae6"/></g><g><path d="m337.138 0v106.531c0 4.265-3.461 7.726-7.724 7.726-4.264 0-7.724-3.461-7.724-7.726v-106.531z" fill="#f3eae6"/></g><g><path d="m381.496 0v60.42c0 4.265-3.45 7.726-7.724 7.726-4.264 0-7.724-3.461-7.724-7.726v-60.42z" fill="#f3eae6"/></g><g><path d="m425.865 0v106.531c0 4.265-3.46 7.726-7.724 7.726s-7.724-3.461-7.724-7.726v-106.531z" fill="#f3eae6"/></g><g><path clip-rule="evenodd" d="m135.246 474.066-2.831-67.895-35.489-8.877-34.701 8.877-2.802 67.895c-.876 21.084 17.453 37.934 37.912 37.934 20.838 0 38.758-17.083 37.911-37.934z" fill="#fd4755" fill-rule="evenodd"/></g><g><path clip-rule="evenodd" d="m131.073 373.641-5.925-143.412-28.222-11.973-27.405 11.973-5.954 143.412 33.768 16.265z" fill="#fd4755" fill-rule="evenodd"/></g><g><path clip-rule="evenodd" d="m129.322 194.807c23.64-8.731 11.441-49.206-8.405-76.539-21.568-29.698 5.983-63.193-21.568-42.372-16.344 12.382-27.055 24.851-35.956 42.08-13.863 26.895-16.519 60.623 2.831 76.831l30.294 9.666z" fill="#fea610" fill-rule="evenodd"/></g><g><path clip-rule="evenodd" d="m131.073 373.641h-67.506l-1.342 32.531h70.19z" fill="#f3eae6" fill-rule="evenodd"/></g><g><path clip-rule="evenodd" d="m127.483 194.807h-60.297c-9.748 0-17.686 7.972-17.686 17.726 0 9.724 7.938 17.696 17.686 17.696h2.335 55.627 2.335c9.719 0 17.686-7.972 17.686-17.696 0-9.754-7.967-17.726-17.686-17.726z" fill="#f3eae6" fill-rule="evenodd"/></g><g><path clip-rule="evenodd" d="m106.499 230.229 5.924 143.412h18.65l-5.925-143.412h-16.314z" fill="#e41e2b" fill-rule="evenodd"/></g><g><path clip-rule="evenodd" d="m112.803 382.46.788 18.981.175 4.731h18.649l-1.342-32.531h-18.65z" fill="#cdbeb9" fill-rule="evenodd"/></g><g><path clip-rule="evenodd" d="m113.766 406.172 2.831 67.895c.73 17.638-11.995 32.59-28.543 36.765 2.977.759 6.1 1.168 9.281 1.168 20.838 0 38.758-17.083 37.912-37.934l-2.831-67.895h-18.65z" fill="#e41e2b" fill-rule="evenodd"/></g><g><path clip-rule="evenodd" d="m118.786 197.932c4.67 3.183 7.734 8.556 7.734 14.601 0 6.191-3.24 11.681-8.084 14.835-2.773 1.811-6.071 2.862-9.602 2.862h16.315 2.335c9.719 0 17.686-7.972 17.686-17.696 0-9.199-7.121-16.82-16.11-17.638-.525-.058-1.051-.088-1.576-.088h-16.811l-.233.088c3.063.261 5.923 1.342 8.346 3.036z" fill="#cdbeb9" fill-rule="evenodd"/></g><g><path clip-rule="evenodd" d="m102.267 118.268c19.846 27.333 32.075 67.807 8.405 76.539h16.811c.525 0 1.051.029 1.576.088l.263-.088c23.64-8.731 11.441-49.206-8.405-76.539-21.568-29.698 5.983-63.193-21.568-42.372-2.014 1.548-3.94 3.066-5.808 4.585-.701 9.637-1.197 24.121 8.726 37.787z" fill="#fe7600" fill-rule="evenodd"/></g></g></svg>