<?xml version="1.0"?>
<svg xmlns="http://www.w3.org/2000/svg" id="filled_outline" data-name="filled outline" viewBox="0 0 512 512" width="512" height="512"><rect x="328" y="192" width="32" height="136" style="fill:#a36522"/><polygon points="416 200 404.34 231.09 368 328 344 328 374.69 223.67 384 192 416 200" style="fill:#b1712c"/><rect x="425.37258" y="214.05887" width="45.25483" height="67.88225" transform="translate(-44.14632 389.42136) rotate(-45)" style="fill:#d1e4ff"/><rect x="320" y="328" width="136" height="160" style="fill:#548aff"/><rect x="320" y="328" width="136" height="32" style="fill:#4f7ff7"/><path d="M224,224a30.7386,30.7386,0,0,0,29.82083-23.2834L256,192h0a24,24,0,0,0,24-24V96a24,24,0,0,0-24-24h0a24,24,0,0,1-24-24v0a24,24,0,0,0-24-24H185.88853A28.94425,28.94425,0,0,0,160,40v0a28.94425,28.94425,0,0,0-25.88852-16H112A24,24,0,0,0,88,48v0A24,24,0,0,1,64,72h0A24,24,0,0,0,40,96v72a24,24,0,0,0,24,24h0l2.17915,8.7166A30.7386,30.7386,0,0,0,96,224Z" style="fill:#ffd873"/><path d="M224,416l72-88V304a40,40,0,0,0-40-40H224V168H96v96H64a40,40,0,0,0-40,40v24l80,88Z" style="fill:#ffc431"/><polygon points="136 152 224 152 224 264 136 240 136 152" style="fill:#ffb401"/><path d="M96,104v80.00006A63.99994,63.99994,0,0,0,159.99994,248h.00012A63.99994,63.99994,0,0,0,224,184.00006V104h-7.75121a24,24,0,0,1-22.28344-15.08662l-6.85887-17.14719A12.35458,12.35458,0,0,0,175.63555,64h0a12.35459,12.35459,0,0,0-11.05026,6.82943L160,80l-4.58528-9.17057A12.35459,12.35459,0,0,0,144.36446,64h0a12.35458,12.35458,0,0,0-11.47093,7.76619l-6.85887,17.14719A24,24,0,0,1,103.75121,104Z" style="fill:#ffc431"/><polygon points="264 416 56 416 40 440 40 488 280 488 280 440 264 416" style="fill:#ffc431"/><path d="M392.97055,352h0a16.97054,16.97054,0,0,1,12,4.97056l70.05888,70.05888a16.97054,16.97054,0,0,1,4.97056,12v0A16.97054,16.97054,0,0,1,463.02945,456h0a16.97054,16.97054,0,0,1-12-4.97056l-70.05888-70.05888a16.97054,16.97054,0,0,1-4.97056-12v0A16.97054,16.97054,0,0,1,392.97055,352Z" style="fill:#7dafff"/><polygon points="352 328 392 280 392 256 408 240 456 288 440 304 424 304 400 328 352 328" style="fill:#c78640"/><path d="M384,192l4.47325-22.36626a30.98786,30.98786,0,0,1,20.58688-23.32045h0a30.98781,30.98781,0,0,0,12.11251-7.48594L432,128l2.42012,14.52071A65.954,65.954,0,0,1,416,200l0,0Z" style="fill:#d1e4ff"/><path d="M328,192l-5.48308-10.96615a26.63915,26.63915,0,0,1,9.05-34.07849h0a26.63934,26.63934,0,0,0,7.38837-7.38837L352,120l5.59286,9.32143A65.17411,65.17411,0,0,1,360,192l0,0Z" style="fill:#d1e4ff"/><rect x="328" y="192" width="32" height="32" style="fill:#ffc431"/><polygon points="416 200 404.34 231.09 374.69 223.67 384 192 416 200" style="fill:#ffc431"/><polygon points="264 416 56 416 40 440 280 440 264 416" style="fill:#ffb401"/><circle cx="128" cy="136" r="8"/><circle cx="192" cy="136" r="8"/><path d="M176,152V128H160v24a8.00917,8.00917,0,0,1-8,8h-8v16h8A24.0275,24.0275,0,0,0,176,152Z"/><path d="M120.84473,195.57812A36.74411,36.74411,0,0,0,153.88867,216H176V200H153.88867a20.83107,20.83107,0,0,1-18.7334-11.57812Z"/><path d="M256,256H232V231.16943a38.68278,38.68278,0,0,0,29.583-28.51318l.82422-3.30078A32.05472,32.05472,0,0,0,288,168V96a32.03667,32.03667,0,0,0-32-32,16.01833,16.01833,0,0,1-16-16,32.03667,32.03667,0,0,0-32-32H185.88867A36.74825,36.74825,0,0,0,160,26.55176,36.74825,36.74825,0,0,0,134.11133,16H112A32.03667,32.03667,0,0,0,80,48,16.01833,16.01833,0,0,1,64,64,32.03667,32.03667,0,0,0,32,96v72a32.05472,32.05472,0,0,0,25.59277,31.35547l.8252,3.30176A38.68006,38.68006,0,0,0,88,231.16943V256H64a48.05375,48.05375,0,0,0-48,48v24a8.00468,8.00468,0,0,0,2.08008,5.38184L85.91479,408H56a7.99943,7.99943,0,0,0-6.65625,3.5625l-16,24A8.00221,8.00221,0,0,0,32,440v48a8.00039,8.00039,0,0,0,8,8H280a8.00039,8.00039,0,0,0,8-8V440a8.00221,8.00221,0,0,0-1.34375-4.4375l-16-24A7.99943,7.99943,0,0,0,264,408H240.88135l61.31006-74.93457A7.99505,7.99505,0,0,0,304,328V304A48.05375,48.05375,0,0,0,256,256ZM104,111.99072a31.83981,31.83981,0,0,0,29.46191-20.10595l6.85938-17.14747a4.35532,4.35532,0,0,1,7.93848-.33105l4.585,9.1709a7.99931,7.99931,0,0,0,14.31054,0l4.585-9.16992a4.35464,4.35464,0,0,1,7.93848.33105l6.85938,17.14551A31.83925,31.83925,0,0,0,216,111.99072V184a56,56,0,0,1-112,0ZM73.94043,198.77734l-2.17871-8.71679A8.00149,8.00149,0,0,0,64,184a16.01833,16.01833,0,0,1-16-16V96A16.01833,16.01833,0,0,1,64,80,32.03667,32.03667,0,0,0,96,48a16.01833,16.01833,0,0,1,16-16h22.11133a20.83107,20.83107,0,0,1,18.7334,11.57812,8.00009,8.00009,0,0,0,14.31054,0A20.83107,20.83107,0,0,1,185.88867,32H208a16.01833,16.01833,0,0,1,16,16,32.03667,32.03667,0,0,0,32,32,16.01833,16.01833,0,0,1,16,16v72a16.01833,16.01833,0,0,1-16,16,8.00149,8.00149,0,0,0-7.76172,6.06055l-2.17773,8.71582A22.69486,22.69486,0,0,1,232,214.53711V112h16V96H216.249a15.92412,15.92412,0,0,1-14.85547-10.05859L194.53418,68.7959A20.36493,20.36493,0,0,0,160,63.30762a20.36528,20.36528,0,0,0-34.53418,5.4873l-6.85937,17.14746A15.92467,15.92467,0,0,1,103.751,96H72v16H88V214.53711A22.69188,22.69188,0,0,1,73.94043,198.77734ZM272,442.42188V480H48V442.42188L60.28125,424h199.4375Zm16-117.27735L220.20947,408H107.53979L32,324.90723V304a32.03667,32.03667,0,0,1,32-32H96a8.00039,8.00039,0,0,0,8-8V229.18506a71.88234,71.88234,0,0,0,112,0V264a8.00039,8.00039,0,0,0,8,8h32a32.03667,32.03667,0,0,1,32,32Z"/><rect x="56" y="296" width="16" height="16"/><path d="M160,317.50635A47.9884,47.9884,0,0,0,120,296H88v16h32a32.03667,32.03667,0,0,1,32,32v40h16V344a32.03667,32.03667,0,0,1,32-32h32V296H200A47.9884,47.9884,0,0,0,160,317.50635Z"/><rect x="248" y="296" width="16" height="16"/><path d="M440,312a8.00235,8.00235,0,0,0,5.65723-2.34277l16-16,32-32a8.00122,8.00122,0,0,0,0-11.31446l-48-48a8.003,8.003,0,0,0-11.31446,0L417.2583,219.42725l5.64551-15.05518a74.10731,74.10731,0,0,0,19.40771-63.167l-2.41992-14.52051a8.0011,8.0011,0,0,0-13.54883-4.3418l-10.82715,10.82715a23.08828,23.08828,0,0,1-8.98535,5.55371,39.07369,39.07369,0,0,0-25.90136,29.34082l-4.405,22.0232L368,218.04883V193.81909a72.81237,72.81237,0,0,0-3.54688-68.614l-5.59277-9.32129a8.00175,8.00175,0,0,0-6.66992-3.88184,8.09378,8.09378,0,0,0-6.84668,3.56055l-13.0459,19.56738a18.52446,18.52446,0,0,1-5.168,5.16895,34.69491,34.69491,0,0,0-11.76855,44.31347L320,193.88867V320a8.00039,8.00039,0,0,0-8,8V488a8.00039,8.00039,0,0,0,8,8H456a8.00039,8.00039,0,0,0,8-8V463.97534a24.96689,24.96689,0,0,0,16.68652-42.60327L464,404.68555V328a8.00039,8.00039,0,0,0-8-8H419.314l7.99952-8Zm0-92.68652L476.68652,256,456,276.68555,419.31445,240Zm-40.64111,2.28027-14.647-3.66162,4.79688-16.30908,15.85254,3.96386Zm-5.65406,15.07837-3.78515,10.09375-3.57691,3.5769A8.00235,8.00235,0,0,0,384,256v21.10352l-25.79663,30.95654,21.99023-74.76587Zm17.886-82.76978a39.19273,39.19273,0,0,0,15.06836-9.249,58.06959,58.06959,0,0,1-13.32886,46.43335l-19.9895-4.99731,2.97754-14.88721A23.03835,23.03835,0,0,1,411.59082,153.90234ZM352,216H336V200h16Zm-15.99512-62.3877a34.43813,34.43813,0,0,0,9.60645-9.60742l6.01562-9.02343A56.83091,56.83091,0,0,1,354.80371,184H332.94385l-3.272-6.543A18.66881,18.66881,0,0,1,336.00488,153.6123ZM336,232h16v40h.13208L338.0144,320H336ZM472,439.0293a8.97,8.97,0,0,1-15.31348,6.34277l-70.05859-70.05859a8.97,8.97,0,1,1,12.68555-12.68555l70.05859,70.05859A8.9108,8.9108,0,0,1,472,439.0293ZM427.31445,368H448v20.68555ZM448,352H411.31445l-.68652-.68652A24.9448,24.9448,0,0,0,374.67578,352H344v16h24.02466c-.01245.32251-.02466.64526-.02466.9707a24.81056,24.81056,0,0,0,7.31348,17.65723l70.05859,70.05859A25.29935,25.29935,0,0,0,448,458.9707V480H328V336H448Zm-29.65723-53.65723L396.68555,320H369.07983l29.06568-34.87891A7.99881,7.99881,0,0,0,400,280V259.31348l8-8L444.68652,288l-8,8H424A8.00235,8.00235,0,0,0,418.34277,298.34277Z"/></svg>
