<svg height="512pt" viewBox="0 0 512 512" width="512pt" xmlns="http://www.w3.org/2000/svg"><path d="m512 256c0 141.386719-114.613281 256-256 256s-256-114.613281-256-256 114.613281-256 256-256 256 114.613281 256 256zm0 0" fill="#65b2ff"/><path d="m512 256c0 141.378906-114.621094 256-256 256s-256-114.621094-256-256c0-46.21875 12.25-89.570312 33.679688-127 44.121093 77.070312 127.160156 129 222.320312 129s178.210938-51.929688 222.320312-129c21.429688 37.429688 33.679688 80.78125 33.679688 127zm0 0" fill="#0f9be8"/><path d="m481.261719 377.699219v.011719c-43.292969 79.96875-127.941407 134.289062-225.261719 134.289062s-181.96875-54.320312-225.261719-134.289062v-.011719zm0 0" fill="#0066e8"/><path d="m202.238281 214.078125c25.378907-19.359375 42.425781-49.078125 44.835938-82.847656.167969-2.332031 1.226562-4.402344 2.835937-5.886719.007813-.007812.019532-.015625.027344-.023438 1.601562-1.46875 3.734375-2.359374 6.058594-2.359374h.003906c2.328125 0 4.457031.890624 6.0625 2.359374 1.617188 1.484376 2.691406 3.5625 2.863281 5.910157 1.613281 22.65625 9.816407 43.488281 22.710938 60.59375 6.320312 8.390625 13.769531 15.886719 22.125 22.257812 2.71875 2.070313 4.128906 5.441407 3.671875 8.828125l-14.59375 109.488282h-85.679688l-14.597656-109.492188c-.449219-3.386719.957031-6.753906 3.675781-8.828125zm0 0" fill="#ffe955"/><path d="m202.238281 214.078125c25.378907-19.359375 42.425781-49.078125 44.835938-82.847656.167969-2.332031 1.226562-4.402344 2.835937-5.886719.007813-.007812.019532-.015625.027344-.023438 1.601562-1.46875 3.734375-2.359374 6.058594-2.359374h.003906c2.328125 0 4.457031.890624 6.0625 2.359374 1.617188 1.484376 2.691406 3.5625 2.863281 5.910157 1.613281 22.65625 9.816407 43.488281 22.710938 60.59375l-11.523438 140.574219h-62.953125l-14.597656-109.492188c-.449219-3.386719.957031-6.753906 3.675781-8.828125zm0 0" fill="#ffd112"/><path d="m202.238281 214.078125c25.378907-19.359375 42.425781-49.078125 44.835938-82.847656.167969-2.332031 1.226562-4.402344 2.835937-5.886719.007813-.007812.019532-.015625.027344-.023438 1.601562-1.46875 3.734375-2.359374 6.058594-2.359374h.003906v209.4375h-42.839844l-14.597656-109.492188c-.449219-3.386719.957031-6.753906 3.675781-8.828125zm0 0" fill="#ff9f00"/><path d="m242.882812 259.390625c6.226563-9.871094 9.136719-21.472656 8.921876-33.144531l-1.867188-100.925782c1.601562-1.464843 3.734375-2.359374 6.058594-2.359374h.003906c2.324219 0 4.457031.890624 6.058594 2.359374l-1.859375 100.425782c-.214844 11.863281 2.710937 23.65625 8.972656 33.734375 1.625 2.617187 2.496094 5.757812 2.292969 9.113281-.472656 7.890625-6.957032 14.226562-14.855469 14.53125-.203125.007812-.40625.011719-.609375.011719-8.558594 0-15.496094-6.933594-15.496094-15.496094 0-3.03125.871094-5.863281 2.378906-8.25zm0 0" fill="#ff9f00"/><path d="m242.882812 259.390625c6.226563-9.871094 9.136719-21.472656 8.921876-33.144531l-1.867188-100.925782c1.601562-1.464843 3.734375-2.359374 6.058594-2.359374h.003906v160.175781c-8.558594 0-15.496094-6.933594-15.496094-15.496094 0-3.03125.871094-5.863281 2.378906-8.25zm0 0" fill="#ed771b"/><path d="m313.519531 310.511719-10.28125 197.128906c-7.867187 1.480469-15.859375 2.589844-23.96875 3.320313-7.660156.6875-15.429687 1.039062-23.269531 1.039062-16.140625 0-31.929688-1.488281-47.238281-4.359375l-10.28125-197.128906zm0 0" fill="#474f6f"/><path d="m285.46875 310.511719-.679688 21.886719-5.519531 178.5625c-7.660156.6875-15.429687 1.039062-23.269531 1.039062-16.140625 0-31.929688-1.488281-47.238281-4.359375l-10.28125-197.128906zm0 0" fill="#323b5a"/><path d="m256 310.511719v201.488281c-16.140625 0-31.929688-1.488281-47.238281-4.359375l-10.28125-197.128906zm0 0" fill="#20273a"/><g fill="#fff"><path d="m419.636719 277.441406h1.523437c6.753906 0 12.230469 5.472656 12.230469 12.226563v1.523437h8.714844v-1.523437c0-6.753907 5.472656-12.226563 12.226562-12.226563h1.523438v-8.714844h-1.523438c-6.753906 0-12.226562-5.476562-12.226562-12.230468v-1.523438h-8.714844v1.523438c0 6.753906-5.476563 12.230468-12.230469 12.230468h-1.523437zm0 0"/><path d="m354.984375 422.449219h1.523437c6.753907 0 12.226563 5.472656 12.226563 12.226562v1.523438h8.714844v-1.523438c0-6.753906 5.476562-12.226562 12.226562-12.226562h1.527344v-8.714844h-1.527344c-6.75 0-12.226562-5.476563-12.226562-12.226563v-1.527343h-8.714844v1.527343c0 6.75-5.472656 12.226563-12.226563 12.226563h-1.523437zm0 0"/><path d="m120.800781 422.449219h1.523438c6.75 0 12.226562 5.472656 12.226562 12.226562v1.523438h8.714844v-1.523438c0-6.753906 5.472656-12.226562 12.226563-12.226562h1.527343v-8.714844h-1.527343c-6.753907 0-12.226563-5.476563-12.226563-12.226563v-1.527343h-8.714844v1.527343c0 6.75-5.476562 12.226563-12.226562 12.226563h-1.523438zm0 0"/><path d="m354.984375 109.929688h1.523437c6.753907 0 12.226563 5.472656 12.226563 12.226562v1.523438h8.714844v-1.523438c0-6.753906 5.476562-12.226562 12.226562-12.226562h1.527344v-8.71875h-1.527344c-6.75 0-12.226562-5.472657-12.226562-12.226563v-1.523437h-8.714844v1.523437c0 6.753906-5.472656 12.226563-12.226563 12.226563h-1.523437zm0 0"/><path d="m120.800781 109.929688h1.523438c6.75 0 12.226562 5.472656 12.226562 12.226562v1.523438h8.714844v-1.523438c0-6.753906 5.472656-12.226562 12.226563-12.226562h1.527343v-8.71875h-1.527343c-6.753907 0-12.226563-5.472657-12.226563-12.226563v-1.523437h-8.714844v1.523437c0 6.753906-5.476562 12.226563-12.226562 12.226563h-1.523438zm0 0"/><path d="m56.144531 277.441406h1.523438c6.753906 0 12.226562 5.472656 12.226562 12.226563v1.523437h8.714844v-1.523437c0-6.753907 5.476563-12.226563 12.230469-12.226563h1.523437v-8.714844h-1.523437c-6.753906 0-12.230469-5.476562-12.230469-12.230468v-1.523438h-8.714844v1.523438c0 6.753906-5.472656 12.230468-12.226562 12.230468h-1.523438zm0 0"/></g></svg>