<svg height="512pt" viewBox="-114 0 512 512" width="512pt" xmlns="http://www.w3.org/2000/svg"><path d="m168.804688 421.089844h57.019531c4.054687-7.808594 7.230469-16.15625 6.980469-24.929688-.347657-12.398437-7.523438-24.121094-6.160157-36.445312 1.707031-15.433594 15.632813-25.527344 26.003907-36.691406 16.5625-17.824219 25.679687-42.011719 29.636718-66.472657 8.222656-50.863281-5.25-105.113281-36.121094-145.445312-30.871093-40.328125-82.441406-59.234375-131.777343-54.824219-47.210938 4.21875-84.226563 32.390625-100.277344 78.824219-16.054687 46.433593-11.398437 99.214843 8.175781 144.164062 19.574219 44.945313 53.207032 82.320313 92.363282 110.109375l54.300781 29.34375c-.058594.789063-.105469 1.578125-.144531 2.367188zm0 0" fill="#485072"/><path d="m142.273438 299.132812h79.824218v91.773438h-79.824218zm0 0" fill="#28375b"/><path d="m168.871094 358.214844v-56.621094h-62.96875v56.621094c0 16.097656-10.585938 30.128906-25.933594 34.96875-38.339844 12.085937-66.140625 47.921875-66.140625 90.253906v28.5625h247.117187v-28.5625c0-42.328125-27.796874-78.167969-66.136718-90.253906-15.355469-4.839844-25.9375-18.871094-25.9375-34.96875zm0 0" fill="#f9c4aa"/><path d="m194.808594 393.183594c-15.355469-4.839844-25.9375-18.871094-25.9375-34.96875v-56.617188h-25.53125v56.617188c0 16.097656 10.582031 30.128906 25.933594 34.96875 38.335937 12.085937 66.136718 47.925781 66.136718 90.253906v28.5625h25.535156v-28.5625c0-42.328125-27.800781-78.167969-66.136718-90.253906zm0 0" fill="#e89c82"/><path d="m105.902344 356.0625c12.230468 5.027344 23.816406 8.3125 31.484375 8.3125s19.253906-3.285156 31.484375-8.3125v-54.464844h-62.972656v54.464844zm0 0" fill="#e89c82"/><path d="m252.046875 224.515625h-33.335937v45.457031h33.335937c12.550781 0 22.726563-10.175781 22.726563-22.726562 0-12.554688-10.175782-22.730469-22.726563-22.730469zm0 0" fill="#f9c4aa"/><path d="m22.726562 224.515625h33.335938v45.457031h-33.335938c-12.550781 0-22.726562-10.175781-22.726562-22.726562 0-12.554688 10.175781-22.730469 22.726562-22.730469zm0 0" fill="#f9c4aa"/><path d="m221.40625 297.402344c-12.648438 17.582031-63.015625 42.226562-84.019531 42.226562-21.003907 0-71.371094-24.644531-84.019531-42.226562-10.984376-15.265625-11.949219-45.800782-9.101563-77.121094 5.015625-55.230469 51.5625-97.398438 107.019531-97.398438h61.675782c0-.003906 36.191406 135.964844 8.445312 174.519532zm0 0" fill="#f9c4aa"/><path d="m212.960938 122.882812h-31.484376s36.1875 135.964844 8.445313 174.519532c-10.101563 14.035156-44.234375 32.570312-68.277344 39.476562 6.074219 1.746094 11.503907 2.75 15.742188 2.75 21.003906 0 71.371093-24.644531 84.019531-42.226562 27.746094-38.554688-8.445312-174.519532-8.445312-174.519532zm0 0" fill="#e89c82"/><g fill="#485072"><path d="m137.386719 285.109375c-10.230469 0-19.886719-5.054687-26.5-13.871094-2.5625-3.410156-1.871094-8.253906 1.542969-10.816406 3.414062-2.558594 8.253906-1.867187 10.816406 1.546875 3.722656 4.957031 8.742187 7.691406 14.140625 7.691406 5.394531 0 10.417969-2.734375 14.140625-7.691406 2.5625-3.414062 7.402344-4.105469 10.816406-1.542969 3.414062 2.558594 4.105469 7.402344 1.542969 10.816407-6.613281 8.8125-16.273438 13.867187-26.5 13.867187zm0 0"/><path d="m96.117188 229.929688c-4.269532 0-7.726563-3.457032-7.726563-7.726563v-2.894531c0-4.269532 3.457031-7.726563 7.726563-7.726563 4.265624 0 7.726562 3.457031 7.726562 7.726563v2.894531c0 4.269531-3.460938 7.726563-7.726562 7.726563zm0 0"/><path d="m178.65625 229.929688c-4.265625 0-7.726562-3.457032-7.726562-7.726563v-2.894531c0-4.269532 3.460937-7.726563 7.726562-7.726563 4.269531 0 7.726562 3.457031 7.726562 7.726563v2.894531c0 4.269531-3.457031 7.726563-7.726562 7.726563zm0 0"/></g><path d="m80.828125 456.335938c-3.527344 0-6.710937-2.433594-7.527344-6.019532-4.167969-18.363281-5.882812-37.226562-5.09375-56.074218.179688-4.265626 3.765625-7.601563 8.042969-7.394532 4.265625.175782 7.574219 3.777344 7.394531 8.042969-.730469 17.480469.859375 34.976563 4.726563 52.003906.945312 4.164063-1.660156 8.300781-5.824219 9.246094-.574219.132813-1.152344.195313-1.71875.195313zm0 0" fill="#e9e9ea"/><path d="m207.78125 477.421875c1.207031-8.320313 1.789062-16.867187.039062-25.089844-1.753906-8.222656-6.070312-16.160156-13.027343-20.878906-19.730469.800781-39.707031 11.835937-52.167969 27.574219-2.671875 3.371094-7.804688 3.371094-10.476562 0-12.460938-15.738282-32.4375-26.773438-52.167969-27.574219-6.957031 4.71875-11.273438 12.65625-13.027344 20.878906-1.75 8.222657-1.171875 16.769531.039063 25.089844 1.71875 11.796875 4.691406 23.40625 8.84375 34.578125h123.105468c4.148438-11.175781 7.121094-22.78125 8.839844-34.578125zm0 0" fill="#e9e9ea"/><path d="m282.285156 256.546875c-3.960937 24.460937-13.074218 48.65625-29.640625 66.480469-10.363281 11.164062-24.292969 21.253906-26.003906 36.6875-1.367187 12.324218 5.820313 24.042968 6.164063 36.445312.3125 11.003906-4.757813 21.332032-10.1875 30.769532-5.445313 9.4375-11.511719 18.832031-13.585938 29.628906-1.425781 7.40625-1.347656 17.78125 1.816406 25.308594 1.394532 3.324218-1.773437 6.757812-5.148437 5.503906-18.355469-6.8125-32.140625-26.234375-35.769531-46.722656-4.359376-24.613282 3.105468-49.925782 13.636718-72.417969 10.523438-22.503907 24.160156-43.390625 33.460938-66.46875 9.289062-23.089844 13.980468-49.578125 5.722656-73.082031-7.339844-20.894532-23.96875-36.835938-41.882812-48.957032-17.914063-12.121094-37.578126-21.253906-55.332032-33.625-17.746094-12.371094-34.023437-28.84375-40.550781-50.035156 0 0 130.300781-25.28125 161.175781 15.042969 30.871094 40.335937 44.34375 94.582031 36.125 145.441406zm0 0" fill="#485072"/><path d="m246.160156 111.101562c-15.664062-20.457031-56.917968-33.027343-93.765625-31.582031 28.210938 1.273438 54.78125 16.078125 66.652344 31.582031 30.875 40.335938 44.34375 94.585938 36.128906 145.445313-3.960937 24.460937-13.074219 48.65625-29.640625 66.480469-10.363281 11.164062-24.296875 21.253906-26.003906 36.6875-1.367188 12.324218 5.816406 24.042968 6.160156 36.445312.3125 11.003906-4.753906 21.332032-10.1875 30.769532-5.441406 9.4375-11.511718 18.832031-13.585937 29.628906-.617188 3.214844-.953125 6.992187-.875 10.851562 6.347656 9.078125 14.847656 16.320313 24.65625 19.960938 3.378906 1.25 6.542969-2.183594 5.148437-5.503906-3.160156-7.527344-3.238281-17.902344-1.816406-25.3125 2.074219-10.792969 8.144531-20.1875 13.585938-29.625 5.433593-9.441407 10.5-19.769532 10.1875-30.769532-.34375-12.402344-7.527344-24.121094-6.164063-36.449218 1.710937-15.433594 15.640625-25.519532 26.003906-36.6875 16.570313-17.820313 25.679688-42.019532 29.644531-66.476563 8.214844-50.859375-5.257812-105.105469-36.128906-145.445313zm0 0" fill="#28375b"/><path d="m224.007812 69.566406c-4.769531-2.527344-9.722656-4.214844-14.644531-5.105468-1.222656-15.460938-14.15625-27.609376-29.925781-27.609376-4.238281 0-8.265625.871094-11.917969 2.460938-2.136719-14.65625-9.921875-27.476562-21.070312-36.195312-5.3125-4.15625-12.8125-4.15625-18.125 0-11.148438 8.71875-18.933594 21.539062-21.070313 36.195312-3.652344-1.589844-7.683594-2.460938-11.917968-2.460938-15.769532 0-28.699219 12.148438-29.925782 27.609376-4.921875.890624-9.875 2.578124-14.644531 5.105468-20.167969 10.695313-29.746094 32.585938-22.441406 50.074219 10.503906-11.992187 27.792969-21.96875 49.246093-28.523437 9.324219-2.847657 19.417969-5.054688 30.089844-6.488282 3.882813-.527344 7.84375-.957031 11.871094-1.269531.320312-.03125.652344-.054687.984375-.074219 5.503906-.421875 11.144531-.628906 16.871094-.628906 5.726562 0 11.367187.207031 16.871093.628906.332032.019532.664063.042969.984376.074219 4.027343.3125 7.988281.742187 11.871093 1.269531 10.671875 1.433594 20.769531 3.640625 30.089844 6.488282 21.453125 6.554687 38.742187 16.53125 49.246094 28.523437 7.304687-17.488281-2.273438-39.378906-22.441407-50.074219zm0 0" fill="#ffcd34"/><path d="m149.695312 48.90625c0-8.832031-5.511718-15.992188-12.308593-15.992188s-12.308594 7.160157-12.308594 15.992188 5.511719 15.992188 12.308594 15.992188 12.308593-7.160157 12.308593-15.992188zm0 0" fill="#fa7ec1"/></svg>