<?xml version="1.0"?>
<svg xmlns="http://www.w3.org/2000/svg" id="Layer_1" data-name="Layer 1" viewBox="0 0 512 512" width="512" height="512"><path d="M417,16.554c-14.633-3.855-33.988-5.977-54.5-5.977s-39.863,2.122-54.5,5.977c-15.846,4.173-24.6,10.012-26.142,17.369l-.137-.038c-9.812,35.517-23.4,110.162-23.4,157.935,0,39.516,4.3,78.1,12.267,112.31L261,288.359v-7.276a6,6,0,0,0-12,0v7.291l-6.32,10.4c7.189-32.879,11.011-69.557,11.011-106.951,0-47.17-13.259-120.535-23.039-156.569-.716-7.985-9.558-14.275-26.346-18.7-14.633-3.855-33.99-5.977-54.5-5.977s-39.864,2.122-54.5,5.977C79.463,20.727,70.705,26.566,69.167,33.923l-.137-.038c-9.813,35.517-23.4,110.162-23.4,157.935a511.191,511.191,0,0,0,9.181,97.819l-.015.006c.009.022.02.044.029.066,8.957,45.493,24.074,84.117,43.653,109.143a6.011,6.011,0,0,0,3.1,2.079c1.233.345,21.812,6,49.589,6a190.535,190.535,0,0,0,27.255-1.91L124.029,495H103.708a6,6,0,1,0,0,12h47.924a6,6,0,1,0,0-12H138.053l92.2-152.516.025,0c.014-.039.06-.086.074-.125L249,311.567V412H231.506a6,6,0,1,0,0,12H279.43a6,6,0,1,0,0-12H261V311.4L372.949,495H359.3a6,6,0,0,0,0,12h47.924a6,6,0,0,0,0-12H387.009l-55.216-90.5a214.51,214.51,0,0,0,32.157,2.45,178.349,178.349,0,0,0,46.857-6,6,6,0,0,0,4.115-3.909c31.779-42.128,51.453-120.418,51.453-205.22,0-47.168-13.25-120.529-23.03-156.564C442.633,27.269,433.794,20.977,417,16.554ZM94.553,78.393c-15.727-3.782-20.754-8-21.517-9.429,1.5-7.19,3.016-13.9,4.489-19.969q6.483,4.08,17.784,7.067c14.632,3.855,33.986,5.978,54.5,5.978s39.865-2.123,54.5-5.978q11.075-2.916,17.511-6.905c1.459,6.014,2.956,12.657,4.443,19.77-.819,1.528-5.872,5.709-21.457,9.463-14.954,3.6-34.528,5.585-55.115,5.585S109.522,81.993,94.553,78.393ZM149.8,22.577c44.721,0,67.1,9.686,68.871,13.731C216.9,40.354,194.524,50.04,149.8,50.04S82.71,40.354,80.935,36.308C82.71,32.262,105.087,22.577,149.8,22.577ZM70.4,82.125c4.713,2.858,10.994,5.346,19.192,7.445C95.214,91.01,102,92.219,108,93.189V175H93.094a6.3,6.3,0,0,0-5.366,9.024l21.85,43.757a5.994,5.994,0,0,0,10.733.043l21.85-43.693a6.432,6.432,0,0,0-.263-6.061,6.218,6.218,0,0,0-5.1-3.07H120V94.623c10,.886,19.358,1.352,29.5,1.352,22.5,0,43.861-2.275,59.972-6.405,8.185-2.1,14.673-4.587,19.38-7.444,6.821,35.506,12.8,78.5,12.8,109.694a503.414,503.414,0,0,1-8.58,93.885c-1.294,1.757-7.269,5.906-24.139,9.552-16.2,3.5-37.4,5.431-59.693,5.431-22.245,0-43.3-1.926-59.283-5.425C73.32,291.621,67.449,287.444,66.2,285.7a502.565,502.565,0,0,1-8.577-93.875C57.625,160.621,63.578,117.632,70.4,82.125ZM127.087,187l-12.143,24.284L102.8,187Zm-20.4,202.853C90.807,368.838,78.1,338.067,69.6,301.69c18.833,7.928,51.513,11,79.642,11,23.119,0,45.22-2.025,62.231-5.7a109.132,109.132,0,0,0,18.24-5.375,337.433,337.433,0,0,1-10.3,35.59l-32.747,54.16C149.805,399.142,115,391.851,106.688,389.853ZM307.253,78.393c-15.726-3.782-20.754-8-21.517-9.429,1.5-7.19,3.016-13.9,4.49-19.969q6.482,4.08,17.782,7.067C322.642,59.917,342,62.04,362.5,62.04s39.866-2.123,54.5-5.978q11.073-2.916,17.511-6.905c1.458,6.014,2.955,12.657,4.443,19.77-.82,1.528-5.873,5.709-21.458,9.463-14.954,3.6-34.527,5.585-55.114,5.585S322.223,81.993,307.253,78.393ZM362.5,22.577c44.723,0,67.1,9.686,68.872,13.731C429.6,40.354,407.226,50.04,362.5,50.04s-67.094-9.686-68.869-13.732C295.41,32.262,317.787,22.577,362.5,22.577Zm42.684,367.439c-35,8.888-69.338,3.348-81.758.751l-30.1-49.325.693-.256A331.982,331.982,0,0,1,282.31,301.7c18.837,7.918,51.5,10.984,79.609,10.984,23.118,0,45.219-2.025,62.23-5.7a108.985,108.985,0,0,0,18.273-5.39C433.9,338.109,421.141,368.979,405.188,390.016Zm40.62-104.38c-1.187,1.716-7.1,5.927-24.195,9.621-16.2,3.5-37.4,5.431-59.694,5.431-22.245,0-43.3-1.926-59.286-5.425-16.5-3.611-22.408-7.748-23.723-9.524a502.893,502.893,0,0,1-8.585-93.919c0-31.2,5.953-74.188,12.775-109.695,4.713,2.858,11,5.346,19.195,7.445,5.7,1.461,12.7,2.685,18.7,3.662V175H305.794a6.3,6.3,0,0,0-5.366,9.024l21.85,43.757a5.994,5.994,0,0,0,10.733.043l21.85-43.693a6.435,6.435,0,0,0-.262-6.061,6.221,6.221,0,0,0-5.1-3.07H333V94.652c10,.868,19.169,1.323,29.208,1.323,22.5,0,43.858-2.275,59.969-6.405,8.186-2.1,14.673-4.587,19.379-7.444,6.822,35.506,12.8,78.5,12.8,109.694A502.63,502.63,0,0,1,445.808,285.636ZM339.787,187l-12.142,24.284L315.5,187Z"/></svg>
