<svg id="Layer_1" enable-background="new 0 0 256 256" height="512" viewBox="0 0 256 256" width="512" xmlns="http://www.w3.org/2000/svg"><path d="m98.563 62.026c1.737 2.473 4.569 3.945 7.591 3.945h42.008v-20.029c0-2.209-1.791-4-4-4h-59.7z" fill="#f9a7a7"/><path d="m98.563 62.026-14.975-21.329c-.868-1.237-2.285-1.973-3.796-1.973h-67.154c-2.562.001-4.638 2.077-4.638 4.638v164.638c0 5.123 4.153 9.275 9.275 9.275h221.449c5.123 0 9.275-4.153 9.275-9.275v-137.391c0-2.561-2.076-4.638-4.638-4.638h-137.207c-3.022 0-5.854-1.472-7.591-3.945z" fill="#4671c6"/><path d="m148.162 67.971h-42.008c-3.67 0-7.119-1.793-9.228-4.797l-14.101-20.083c-.429-.611-.482-1.41-.138-2.072s1.028-1.078 1.774-1.078h59.7c3.309 0 6 2.691 6 6v20.029c.001 1.106-.894 2.001-1.999 2.001zm-59.852-24.029 11.89 16.934c1.36 1.938 3.586 3.095 5.954 3.095h40.008v-18.029c0-1.103-.897-2-2-2z" fill="#3762cc"/><path d="m235.275 51.855h-40.557v14.116h44.557v-10.116c0-2.209-1.791-4-4-4z" fill="#6bdddd"/><path d="m239.275 67.971h-44.557c-1.104 0-2-.896-2-2v-14.116c0-1.104.896-2 2-2h40.557c3.309 0 6 2.691 6 6v10.116c0 1.105-.895 2-2 2zm-42.556-4h40.557v-8.116c0-1.103-.897-2-2-2h-38.557z" fill="#3762cc"/><path d="m190.719 46.899h-42.557v19.072h46.557v-15.072c0-2.21-1.791-4-4-4z" fill="#b9befc"/><path d="m194.719 67.971h-46.557c-1.104 0-2-.896-2-2v-19.073c0-1.104.896-2 2-2h42.557c3.309 0 6 2.691 6 6v15.073c0 1.105-.896 2-2 2zm-44.557-4h42.557v-13.073c0-1.103-.897-2-2-2h-40.557z" fill="#3762cc"/><path d="m98.563 62.026-14.975-21.329c-.868-1.237-2.285-1.973-3.796-1.973h-67.154c-2.562.001-4.638 2.077-4.638 4.638v164.638c0 5.123 4.153 9.275 9.275 9.275h221.449c5.123 0 9.275-4.153 9.275-9.275v-137.391c0-2.561-2.076-4.638-4.638-4.638h-137.207c-3.022 0-5.854-1.472-7.591-3.945z" fill="#4671c6"/><path d="m238.725 219.275h-221.45c-6.216 0-11.275-5.058-11.275-11.275v-164.638c0-3.66 2.978-6.638 6.638-6.638h67.154c2.16 0 4.191 1.056 5.433 2.823l14.975 21.329c1.36 1.938 3.586 3.095 5.954 3.095h137.208c3.66 0 6.638 2.978 6.638 6.638v137.391c0 6.217-5.059 11.275-11.275 11.275zm-226.087-178.55c-1.454 0-2.638 1.183-2.638 2.638v164.637c0 4.012 3.264 7.275 7.275 7.275h221.449c4.012 0 7.275-3.264 7.275-7.275v-137.391c0-1.455-1.184-2.638-2.638-2.638h-137.207c-3.67 0-7.119-1.793-9.228-4.797l-14.975-21.327c-.493-.703-1.301-1.122-2.159-1.122z" fill="#3762cc"/><path d="m224.812 200.853h-88c-3.314 0-6-2.686-6-6v-18c0-3.314 2.686-6 6-6h88c3.314 0 6 2.686 6 6v18c0 3.313-2.686 6-6 6z" fill="#f9cfcf"/><path d="m224.813 202.853h-88c-4.411 0-8-3.589-8-8v-18c0-4.411 3.589-8 8-8h88c4.411 0 8 3.589 8 8v18c0 4.411-3.589 8-8 8zm-88-30c-2.206 0-4 1.794-4 4v18c0 2.206 1.794 4 4 4h88c2.206 0 4-1.794 4-4v-18c0-2.206-1.794-4-4-4z" fill="#3762cc"/></svg>